<svg id="Flag_of_India" xmlns="http://www.w3.org/2000/svg" width="35" height="23.333" viewBox="0 0 35 23.333">
  <rect id="Rectangle_9436" data-name="Rectangle 9436" width="35" height="23.333" fill="#f93"/>
  <rect id="Rectangle_9437" data-name="Rectangle 9437" width="35" height="7.778" transform="translate(0 7.778)" fill="#fff"/>
  <rect id="Rectangle_9438" data-name="Rectangle 9438" width="35" height="7.778" transform="translate(0 15.556)" fill="#128807"/>
  <g id="Group_6153" data-name="Group 6153" transform="translate(17.5 11.667)">
    <circle id="Ellipse_1278" data-name="Ellipse 1278" cx="3.111" cy="3.111" r="3.111" transform="translate(-3.111 -3.111)" fill="#008"/>
    <circle id="Ellipse_1279" data-name="Ellipse 1279" cx="2.722" cy="2.722" r="2.722" transform="translate(-2.722 -2.722)" fill="#fff"/>
    <circle id="Ellipse_1280" data-name="Ellipse 1280" cx="0.544" cy="0.544" r="0.544" transform="translate(-0.544 -0.544)" fill="#008"/>
    <g id="d">
      <g id="c">
        <g id="b">
          <g id="a">
            <circle id="Ellipse_1281" data-name="Ellipse 1281" cx="0.136" cy="0.136" r="0.136" transform="matrix(0.991, 0.131, -0.131, 0.991, 2.582, 0.203)" fill="#008"/>
            <path id="Path_8037" data-name="Path 8037" d="M0,2.722.093,1.089,0,.311l-.093.778Z" fill="#008"/>
          </g>
          <g id="Group_6130" data-name="Group 6130" transform="matrix(0.966, 0.259, -0.259, 0.966, 0, 0)">
            <circle id="Ellipse_1282" data-name="Ellipse 1282" cx="0.136" cy="0.136" r="0.136" transform="matrix(0.991, 0.131, -0.131, 0.991, 2.582, 0.203)" fill="#008"/>
            <path id="Path_8038" data-name="Path 8038" d="M0,2.722.093,1.089,0,.311l-.093.778Z" fill="#008"/>
          </g>
        </g>
        <g id="Group_6132" data-name="Group 6132" transform="matrix(0.866, 0.5, -0.5, 0.866, 0, 0)">
          <g id="a-2" data-name="a">
            <circle id="Ellipse_1283" data-name="Ellipse 1283" cx="0.136" cy="0.136" r="0.136" transform="matrix(0.991, 0.131, -0.131, 0.991, 2.582, 0.203)" fill="#008"/>
            <path id="Path_8039" data-name="Path 8039" d="M0,2.722.093,1.089,0,.311l-.093.778Z" fill="#008"/>
          </g>
          <g id="Group_6131" data-name="Group 6131" transform="matrix(0.966, 0.259, -0.259, 0.966, 0, 0)">
            <circle id="Ellipse_1284" data-name="Ellipse 1284" cx="0.136" cy="0.136" r="0.136" transform="matrix(0.991, 0.131, -0.131, 0.991, 2.582, 0.203)" fill="#008"/>
            <path id="Path_8040" data-name="Path 8040" d="M0,2.722.093,1.089,0,.311l-.093.778Z" fill="#008"/>
          </g>
        </g>
      </g>
      <g id="Group_6136" data-name="Group 6136" transform="matrix(0.5, 0.866, -0.866, 0.5, 0, 0)">
        <g id="b-2" data-name="b">
          <g id="a-3" data-name="a">
            <circle id="Ellipse_1285" data-name="Ellipse 1285" cx="0.136" cy="0.136" r="0.136" transform="matrix(0.991, 0.131, -0.131, 0.991, 2.582, 0.203)" fill="#008"/>
            <path id="Path_8041" data-name="Path 8041" d="M0,2.722.093,1.089,0,.311l-.093.778Z" fill="#008"/>
          </g>
          <g id="Group_6133" data-name="Group 6133" transform="matrix(0.966, 0.259, -0.259, 0.966, 0, 0)">
            <circle id="Ellipse_1286" data-name="Ellipse 1286" cx="0.136" cy="0.136" r="0.136" transform="matrix(0.991, 0.131, -0.131, 0.991, 2.582, 0.203)" fill="#008"/>
            <path id="Path_8042" data-name="Path 8042" d="M0,2.722.093,1.089,0,.311l-.093.778Z" fill="#008"/>
          </g>
        </g>
        <g id="Group_6135" data-name="Group 6135" transform="matrix(0.866, 0.5, -0.5, 0.866, 0, 0)">
          <g id="a-4" data-name="a">
            <circle id="Ellipse_1287" data-name="Ellipse 1287" cx="0.136" cy="0.136" r="0.136" transform="matrix(0.991, 0.131, -0.131, 0.991, 2.582, 0.203)" fill="#008"/>
            <path id="Path_8043" data-name="Path 8043" d="M0,2.722.093,1.089,0,.311l-.093.778Z" fill="#008"/>
          </g>
          <g id="Group_6134" data-name="Group 6134" transform="matrix(0.966, 0.259, -0.259, 0.966, 0, 0)">
            <circle id="Ellipse_1288" data-name="Ellipse 1288" cx="0.136" cy="0.136" r="0.136" transform="matrix(0.991, 0.131, -0.131, 0.991, 2.582, 0.203)" fill="#008"/>
            <path id="Path_8044" data-name="Path 8044" d="M0,2.722.093,1.089,0,.311l-.093.778Z" fill="#008"/>
          </g>
        </g>
      </g>
    </g>
    <g id="Group_6144" data-name="Group 6144" transform="matrix(-0.5, 0.866, -0.866, -0.5, 0, 0)">
      <g id="c-2" data-name="c">
        <g id="b-3" data-name="b">
          <g id="a-5" data-name="a">
            <circle id="Ellipse_1289" data-name="Ellipse 1289" cx="0.136" cy="0.136" r="0.136" transform="matrix(0.991, 0.131, -0.131, 0.991, 2.582, 0.203)" fill="#008"/>
            <path id="Path_8045" data-name="Path 8045" d="M0,2.722.093,1.089,0,.311l-.093.778Z" fill="#008"/>
          </g>
          <g id="Group_6137" data-name="Group 6137" transform="matrix(0.966, 0.259, -0.259, 0.966, 0, 0)">
            <circle id="Ellipse_1290" data-name="Ellipse 1290" cx="0.136" cy="0.136" r="0.136" transform="matrix(0.991, 0.131, -0.131, 0.991, 2.582, 0.203)" fill="#008"/>
            <path id="Path_8046" data-name="Path 8046" d="M0,2.722.093,1.089,0,.311l-.093.778Z" fill="#008"/>
          </g>
        </g>
        <g id="Group_6139" data-name="Group 6139" transform="matrix(0.866, 0.5, -0.5, 0.866, 0, 0)">
          <g id="a-6" data-name="a">
            <circle id="Ellipse_1291" data-name="Ellipse 1291" cx="0.136" cy="0.136" r="0.136" transform="matrix(0.991, 0.131, -0.131, 0.991, 2.582, 0.203)" fill="#008"/>
            <path id="Path_8047" data-name="Path 8047" d="M0,2.722.093,1.089,0,.311l-.093.778Z" fill="#008"/>
          </g>
          <g id="Group_6138" data-name="Group 6138" transform="matrix(0.966, 0.259, -0.259, 0.966, 0, 0)">
            <circle id="Ellipse_1292" data-name="Ellipse 1292" cx="0.136" cy="0.136" r="0.136" transform="matrix(0.991, 0.131, -0.131, 0.991, 2.582, 0.203)" fill="#008"/>
            <path id="Path_8048" data-name="Path 8048" d="M0,2.722.093,1.089,0,.311l-.093.778Z" fill="#008"/>
          </g>
        </g>
      </g>
      <g id="Group_6143" data-name="Group 6143" transform="matrix(0.5, 0.866, -0.866, 0.5, 0, 0)">
        <g id="b-4" data-name="b">
          <g id="a-7" data-name="a">
            <circle id="Ellipse_1293" data-name="Ellipse 1293" cx="0.136" cy="0.136" r="0.136" transform="matrix(0.991, 0.131, -0.131, 0.991, 2.582, 0.203)" fill="#008"/>
            <path id="Path_8049" data-name="Path 8049" d="M0,2.722.093,1.089,0,.311l-.093.778Z" fill="#008"/>
          </g>
          <g id="Group_6140" data-name="Group 6140" transform="matrix(0.966, 0.259, -0.259, 0.966, 0, 0)">
            <circle id="Ellipse_1294" data-name="Ellipse 1294" cx="0.136" cy="0.136" r="0.136" transform="matrix(0.991, 0.131, -0.131, 0.991, 2.582, 0.203)" fill="#008"/>
            <path id="Path_8050" data-name="Path 8050" d="M0,2.722.093,1.089,0,.311l-.093.778Z" fill="#008"/>
          </g>
        </g>
        <g id="Group_6142" data-name="Group 6142" transform="matrix(0.866, 0.5, -0.5, 0.866, 0, 0)">
          <g id="a-8" data-name="a">
            <circle id="Ellipse_1295" data-name="Ellipse 1295" cx="0.136" cy="0.136" r="0.136" transform="matrix(0.991, 0.131, -0.131, 0.991, 2.582, 0.203)" fill="#008"/>
            <path id="Path_8051" data-name="Path 8051" d="M0,2.722.093,1.089,0,.311l-.093.778Z" fill="#008"/>
          </g>
          <g id="Group_6141" data-name="Group 6141" transform="matrix(0.966, 0.259, -0.259, 0.966, 0, 0)">
            <circle id="Ellipse_1296" data-name="Ellipse 1296" cx="0.136" cy="0.136" r="0.136" transform="matrix(0.991, 0.131, -0.131, 0.991, 2.582, 0.203)" fill="#008"/>
            <path id="Path_8052" data-name="Path 8052" d="M0,2.722.093,1.089,0,.311l-.093.778Z" fill="#008"/>
          </g>
        </g>
      </g>
    </g>
    <g id="Group_6152" data-name="Group 6152" transform="matrix(-0.5, -0.866, 0.866, -0.5, 0, 0)">
      <g id="c-3" data-name="c">
        <g id="b-5" data-name="b">
          <g id="a-9" data-name="a">
            <circle id="Ellipse_1297" data-name="Ellipse 1297" cx="0.136" cy="0.136" r="0.136" transform="matrix(0.991, 0.131, -0.131, 0.991, 2.582, 0.203)" fill="#008"/>
            <path id="Path_8053" data-name="Path 8053" d="M0,2.722.093,1.089,0,.311l-.093.778Z" fill="#008"/>
          </g>
          <g id="Group_6145" data-name="Group 6145" transform="matrix(0.966, 0.259, -0.259, 0.966, 0, 0)">
            <circle id="Ellipse_1298" data-name="Ellipse 1298" cx="0.136" cy="0.136" r="0.136" transform="matrix(0.991, 0.131, -0.131, 0.991, 2.582, 0.203)" fill="#008"/>
            <path id="Path_8054" data-name="Path 8054" d="M0,2.722.093,1.089,0,.311l-.093.778Z" fill="#008"/>
          </g>
        </g>
        <g id="Group_6147" data-name="Group 6147" transform="matrix(0.866, 0.5, -0.5, 0.866, 0, 0)">
          <g id="a-10" data-name="a">
            <circle id="Ellipse_1299" data-name="Ellipse 1299" cx="0.136" cy="0.136" r="0.136" transform="matrix(0.991, 0.131, -0.131, 0.991, 2.582, 0.203)" fill="#008"/>
            <path id="Path_8055" data-name="Path 8055" d="M0,2.722.093,1.089,0,.311l-.093.778Z" fill="#008"/>
          </g>
          <g id="Group_6146" data-name="Group 6146" transform="matrix(0.966, 0.259, -0.259, 0.966, 0, 0)">
            <circle id="Ellipse_1300" data-name="Ellipse 1300" cx="0.136" cy="0.136" r="0.136" transform="matrix(0.991, 0.131, -0.131, 0.991, 2.582, 0.203)" fill="#008"/>
            <path id="Path_8056" data-name="Path 8056" d="M0,2.722.093,1.089,0,.311l-.093.778Z" fill="#008"/>
          </g>
        </g>
      </g>
      <g id="Group_6151" data-name="Group 6151" transform="matrix(0.5, 0.866, -0.866, 0.5, 0, 0)">
        <g id="b-6" data-name="b">
          <g id="a-11" data-name="a">
            <circle id="Ellipse_1301" data-name="Ellipse 1301" cx="0.136" cy="0.136" r="0.136" transform="matrix(0.991, 0.131, -0.131, 0.991, 2.582, 0.203)" fill="#008"/>
            <path id="Path_8057" data-name="Path 8057" d="M0,2.722.093,1.089,0,.311l-.093.778Z" fill="#008"/>
          </g>
          <g id="Group_6148" data-name="Group 6148" transform="matrix(0.966, 0.259, -0.259, 0.966, 0, 0)">
            <circle id="Ellipse_1302" data-name="Ellipse 1302" cx="0.136" cy="0.136" r="0.136" transform="matrix(0.991, 0.131, -0.131, 0.991, 2.582, 0.203)" fill="#008"/>
            <path id="Path_8058" data-name="Path 8058" d="M0,2.722.093,1.089,0,.311l-.093.778Z" fill="#008"/>
          </g>
        </g>
        <g id="Group_6150" data-name="Group 6150" transform="matrix(0.866, 0.5, -0.5, 0.866, 0, 0)">
          <g id="a-12" data-name="a">
            <circle id="Ellipse_1303" data-name="Ellipse 1303" cx="0.136" cy="0.136" r="0.136" transform="matrix(0.991, 0.131, -0.131, 0.991, 2.582, 0.203)" fill="#008"/>
            <path id="Path_8059" data-name="Path 8059" d="M0,2.722.093,1.089,0,.311l-.093.778Z" fill="#008"/>
          </g>
          <g id="Group_6149" data-name="Group 6149" transform="matrix(0.966, 0.259, -0.259, 0.966, 0, 0)">
            <circle id="Ellipse_1304" data-name="Ellipse 1304" cx="0.136" cy="0.136" r="0.136" transform="matrix(0.991, 0.131, -0.131, 0.991, 2.582, 0.203)" fill="#008"/>
            <path id="Path_8060" data-name="Path 8060" d="M0,2.722.093,1.089,0,.311l-.093.778Z" fill="#008"/>
          </g>
        </g>
      </g>
    </g>
  </g>
  <g id="Rectangle_9439" data-name="Rectangle 9439" fill="none" stroke="rgba(0,0,0,0.12)" stroke-width="1">
    <rect width="35" height="23.333" stroke="none"/>
    <rect x="0.5" y="0.5" width="34" height="22.333" fill="none"/>
  </g>
</svg>
