<svg xmlns="http://www.w3.org/2000/svg" width="264.372" height="32" viewBox="0 0 264.372 32">
  <g id="JM_Logo" data-name="JM Logo" style="mix-blend-mode: normal;isolation: isolate">
    <path id="Path_287" data-name="Path 287" d="M-110.556-183.946h4.805v16.883a12.019,12.019,0,0,1-11.813,12.054,11.656,11.656,0,0,1-7.938-3.127,12.078,12.078,0,0,1-3.4-5.55l4.616-1.357a7.006,7.006,0,0,0,6.727,5.131,7.089,7.089,0,0,0,7.008-7.151Zm27.135,23.325-12.7-23.325h-4.824v28.482h4.824v-18.419L-86.1-155.464h5.367l10.018-18.419v18.419H-65.9v-28.482h-4.824Z" transform="translate(128.907 184.69)" fill="#fff"/>
    <g id="Group_204" data-name="Group 204" transform="translate(76.965)">
      <path id="Path_288" data-name="Path 288" d="M181.785-164.683a5.441,5.441,0,0,0-1.486-4.042,5.962,5.962,0,0,0-4.406-1.54q-4.032,0-5.4,2.673a6.309,6.309,0,0,0-.663,2.919,6.607,6.607,0,0,0,.31,2.021,4.7,4.7,0,0,0,1.176,2,6.062,6.062,0,0,0,4.491,1.54,6.063,6.063,0,0,0,4.491-1.54,5.449,5.449,0,0,0,1.486-4.032m-2.545,0a3.942,3.942,0,0,1-.716,2.47,3.228,3.228,0,0,1-2.716,1.112,3.21,3.21,0,0,1-2.716-1.112,3.942,3.942,0,0,1-.716-2.47,3.961,3.961,0,0,1,.716-2.481,3.307,3.307,0,0,1,2.78-1.112,3.152,3.152,0,0,1,2.652,1.112,3.961,3.961,0,0,1,.716,2.481" transform="translate(-155.602 175.326)" fill="#fff"/>
      <path id="Path_289" data-name="Path 289" d="M217.39-170.62v-6.79a4.634,4.634,0,0,1,1.337-1.165,4.754,4.754,0,0,1,2.481-.834,1.842,1.842,0,0,1,1.668.663,3.382,3.382,0,0,1,.31,1.7v6.427h2.492v-6.64a6.31,6.31,0,0,0-.417-2.705q-.781-1.5-3.475-1.5a6.98,6.98,0,0,0-4.4,1.593v-6.514l-2.492.716v15.047Z" transform="translate(-186.135 186.383)" fill="#fff"/>
      <path id="Path_290" data-name="Path 290" d="M259.827-159.422v-6.79a4.8,4.8,0,0,1,1.358-1.155,4.792,4.792,0,0,1,2.481-.845,1.832,1.832,0,0,1,1.647.663,3.314,3.314,0,0,1,.31,1.69v6.437h2.492v-6.64a6.267,6.267,0,0,0-.417-2.706q-.781-1.5-3.465-1.5a6.612,6.612,0,0,0-4.545,1.786v-1.476h-2.352v10.533Z" transform="translate(-215.257 175.324)" fill="#fff"/>
      <path id="Path_291" data-name="Path 291" d="M302.956-159.112q4.951,0,4.951-3.3a2.748,2.748,0,0,0-.3-1.337,2.863,2.863,0,0,0-1.069-1.027,22.151,22.151,0,0,0-3.625-1.347,3.264,3.264,0,0,1-1.1-.5.759.759,0,0,1-.278-.588q0-1.059,1.957-1.059a8.578,8.578,0,0,1,3.1.588l.524-2.064a13.71,13.71,0,0,0-3.764-.513,5.858,5.858,0,0,0-3.155.716,2.587,2.587,0,0,0-1.208,2.342,2.339,2.339,0,0,0,.973,2.032,10.7,10.7,0,0,0,2.834,1.262l1.4.449a2.877,2.877,0,0,1,.8.374.8.8,0,0,1,.364.706q0,1.283-2.459,1.283a8.472,8.472,0,0,1-3.818-.909l-.642,2.139a11.747,11.747,0,0,0,4.513.759" transform="translate(-243.479 175.326)" fill="#fff"/>
      <path id="Path_292" data-name="Path 292" d="M346.4-164.683a5.44,5.44,0,0,0-1.486-4.042,5.962,5.962,0,0,0-4.406-1.54q-4.031,0-5.4,2.673a6.309,6.309,0,0,0-.663,2.919,6.609,6.609,0,0,0,.31,2.021,4.7,4.7,0,0,0,1.177,2,6.061,6.061,0,0,0,4.491,1.54,6.063,6.063,0,0,0,4.491-1.54,5.447,5.447,0,0,0,1.486-4.032m-2.545,0a3.944,3.944,0,0,1-.716,2.47,3.229,3.229,0,0,1-2.716,1.112,3.21,3.21,0,0,1-2.716-1.112,3.943,3.943,0,0,1-.716-2.47,3.961,3.961,0,0,1,.716-2.481,3.308,3.308,0,0,1,2.78-1.112,3.153,3.153,0,0,1,2.652,1.112,3.963,3.963,0,0,1,.716,2.481" transform="translate(-268.158 175.326)" fill="#fff"/>
      <path id="Path_293" data-name="Path 293" d="M382.105-159.422v-6.79a4.8,4.8,0,0,1,1.358-1.155,4.792,4.792,0,0,1,2.481-.845,1.832,1.832,0,0,1,1.647.663,3.313,3.313,0,0,1,.31,1.69v6.437h2.492v-6.64a6.266,6.266,0,0,0-.417-2.706q-.781-1.5-3.465-1.5a6.612,6.612,0,0,0-4.545,1.786v-1.476h-2.352v10.533Z" transform="translate(-299.171 175.324)" fill="#fff"/>
      <path id="Path_294" data-name="Path 294" d="M442.171-168.986v-10.736l5.133,10.736h1.658l5.133-10.736v10.736h2.492v-15.046h-2.78l-5.668,11.848-5.678-11.848h-2.78v15.046Z" transform="translate(-340.291 184.75)" fill="#fff"/>
      <path id="Path_295" data-name="Path 295" d="M511.957-159.422v-6.416q0-.93-.021-1.262a3.57,3.57,0,0,0-.428-1.593q-.984-1.572-4.352-1.572a14.036,14.036,0,0,0-2.289.182,17.1,17.1,0,0,0-1.893.481l-.545.161.61,2.032a9.66,9.66,0,0,1,3.818-.866,3.339,3.339,0,0,1,2.107.492,1.522,1.522,0,0,1,.46,1.219v.406q-1.283.032-2,.075a10.3,10.3,0,0,0-4.278.93,3.089,3.089,0,0,0-1.6,2.866q0,3.176,4,3.176a5.221,5.221,0,0,0,4.106-1.412v1.1Zm-2.491-3.743a1.833,1.833,0,0,1-.064.567,1.7,1.7,0,0,1-.6.749,4.35,4.35,0,0,1-2.663.749q-2.064,0-2.064-1.347t2.342-1.679q.952-.128,3.048-.193Z" transform="translate(-382.85 175.326)" fill="#fff"/>
      <path id="Path_296" data-name="Path 296" d="M542.693-169.64a7.894,7.894,0,0,0,.15,1.679,2.179,2.179,0,0,0,1.027,1.508,4.457,4.457,0,0,0,2.085.374,11.31,11.31,0,0,0,2.706-.342l-.46-1.925a4.479,4.479,0,0,1-1.572.278q-1.091,0-1.3-.567a6.38,6.38,0,0,1-.139-1.711v-4.587h3.048v-1.989h-3.048v-3.372l-2.492.706v2.666h-1.925v1.989h1.925Z" transform="translate(-409.821 182.153)" fill="#fff"/>
      <path id="Path_297" data-name="Path 297" d="M571.571-169.64a7.886,7.886,0,0,0,.15,1.679,2.179,2.179,0,0,0,1.027,1.508,4.457,4.457,0,0,0,2.085.374,11.31,11.31,0,0,0,2.706-.342l-.46-1.925a4.479,4.479,0,0,1-1.572.278q-1.091,0-1.3-.567a6.38,6.38,0,0,1-.139-1.711v-4.587h3.048v-1.989h-3.048v-3.372l-2.491.706v2.666h-1.925v1.989h1.925Z" transform="translate(-429.642 182.153)" fill="#fff"/>
      <path id="Path_298" data-name="Path 298" d="M603.559-170.62v-6.79a4.635,4.635,0,0,1,1.337-1.165,4.753,4.753,0,0,1,2.481-.834,1.842,1.842,0,0,1,1.668.663,3.382,3.382,0,0,1,.31,1.7v6.427h2.492v-6.64a6.315,6.315,0,0,0-.417-2.705q-.781-1.5-3.475-1.5a6.98,6.98,0,0,0-4.4,1.593v-6.514l-2.492.716v15.047Z" transform="translate(-450.42 186.383)" fill="#fff"/>
      <path id="Path_299" data-name="Path 299" d="M653.576-165.228a5.524,5.524,0,0,0-.727-2.952q-1.294-2.085-4.641-2.085a5.456,5.456,0,0,0-4.363,1.636,6.039,6.039,0,0,0-1.3,4.074q0,3.668,2.8,4.887a8.812,8.812,0,0,0,3.443.556,12.883,12.883,0,0,0,4.619-.8l-.738-1.936a9.819,9.819,0,0,1-1.283.471,8.13,8.13,0,0,1-2.213.278q-2.609,0-3.54-1.2a2.8,2.8,0,0,1-.556-1.657h8.437q.064-.941.064-1.273m-2.32-.567h-6.192a3.591,3.591,0,0,1,.31-1.2q.652-1.3,2.791-1.3a2.923,2.923,0,0,1,2.684,1.123,3.488,3.488,0,0,1,.407,1.379" transform="translate(-479.233 175.326)" fill="#fff"/>
      <path id="Path_300" data-name="Path 300" d="M690.832-169.249l-3.614,7.988-3.294-7.988h-2.759l4.684,10.533-2.167,4.057h2.725l7.067-14.59Z" transform="translate(-506.067 174.659)" fill="#fff"/>
      <path id="Path_301" data-name="Path 301" d="M129.284-168.685a6.308,6.308,0,0,1-4.452-1.807,6.128,6.128,0,0,1-1.609-2.7l2.39-.685a3.658,3.658,0,0,0,.961,1.612,3.838,3.838,0,0,0,2.71,1.094,3.844,3.844,0,0,0,2.713-.97,4.1,4.1,0,0,0,1.136-2.941v-8.951h2.485v9a6.518,6.518,0,0,1-1.91,4.695,6.274,6.274,0,0,1-4.424,1.653" transform="translate(-123.223 184.749)" fill="#fff"/>
      <path id="Path_302" data-name="Path 302" d="M652.882-111.514v-8.353l-1.076.3v8.05Z" transform="translate(-485.671 140.75)" fill="#fff"/>
      <rect id="Rectangle_94" data-name="Rectangle 94" width="1.076" height="5.636" transform="translate(168.957 23.601)" fill="#fff"/>
      <path id="Path_303" data-name="Path 303" d="M660.652-118.252a.618.618,0,0,0-.24.492.618.618,0,0,0,.189.452.721.721,0,0,0,.538.223.729.729,0,0,0,.48-.172.612.612,0,0,0,.24-.5.627.627,0,0,0-.183-.452.719.719,0,0,0-.527-.217.751.751,0,0,0-.5.172" transform="translate(-491.649 139.568)" fill="#fff"/>
      <path id="Path_304" data-name="Path 304" d="M672.322-116.533v-.864h-1.78v-.692a1.877,1.877,0,0,1,.16-.9.951.951,0,0,1,.887-.372,3.22,3.22,0,0,1,.818.12l.206-.829a4.626,4.626,0,0,0-1.155-.154,1.9,1.9,0,0,0-1.619.647,2.5,2.5,0,0,0-.372,1.516v.664h-1.219v.864h1.219v4.772h1.076v-4.772Z" transform="translate(-497.093 140.998)" fill="#fff"/>
      <path id="Path_305" data-name="Path 305" d="M688.96-108.8a3.01,3.01,0,0,0-.361-1.528,2.608,2.608,0,0,0-2.46-1.184,2.826,2.826,0,0,0-2.249.858,3.2,3.2,0,0,0-.7,2.169,2.841,2.841,0,0,0,.8,2.18,3.469,3.469,0,0,0,2.449.761,5.6,5.6,0,0,0,2.4-.5l-.389-.847a3.75,3.75,0,0,1-1.825.486,3.52,3.52,0,0,1-1.293-.194,1.547,1.547,0,0,1-.761-.635,1.981,1.981,0,0,1-.286-1.042h4.64q.028-.343.029-.52m-1.042-.292H684.3a2.587,2.587,0,0,1,.183-.721,1.668,1.668,0,0,1,1.665-.841,1.625,1.625,0,0,1,1.528.727,2.224,2.224,0,0,1,.24.835" transform="translate(-507.476 134.943)" fill="#fff"/>
      <rect id="Rectangle_95" data-name="Rectangle 95" width="1.076" height="5.636" transform="translate(27.31 23.601)" fill="#fff"/>
      <path id="Path_306" data-name="Path 306" d="M212.29-118.252a.618.618,0,0,0-.241.492.618.618,0,0,0,.189.452.721.721,0,0,0,.538.223.729.729,0,0,0,.48-.172.612.612,0,0,0,.24-.5.627.627,0,0,0-.183-.452.717.717,0,0,0-.526-.217.751.751,0,0,0-.5.172" transform="translate(-184.934 139.568)" fill="#fff"/>
      <rect id="Rectangle_96" data-name="Rectangle 96" width="1.076" height="5.636" transform="translate(34.994 23.601)" fill="#fff"/>
      <path id="Path_307" data-name="Path 307" d="M237.463-118.252a.617.617,0,0,0-.24.492.617.617,0,0,0,.189.452.721.721,0,0,0,.538.223.729.729,0,0,0,.48-.172.612.612,0,0,0,.24-.5.627.627,0,0,0-.183-.452.717.717,0,0,0-.526-.217.751.751,0,0,0-.5.172" transform="translate(-202.423 139.568)" fill="#fff"/>
      <rect id="Rectangle_97" data-name="Rectangle 97" width="1.076" height="5.636" transform="translate(68.6 23.601)" fill="#fff"/>
      <path id="Path_308" data-name="Path 308" d="M341.788-118.252a.617.617,0,0,0-.24.492.617.617,0,0,0,.189.452.722.722,0,0,0,.538.223.73.73,0,0,0,.481-.172.613.613,0,0,0,.24-.5.626.626,0,0,0-.183-.452.718.718,0,0,0-.527-.217.751.751,0,0,0-.5.172" transform="translate(-273.144 139.568)" fill="#fff"/>
      <rect id="Rectangle_98" data-name="Rectangle 98" width="1.076" height="5.636" transform="translate(145.605 23.601)" fill="#fff"/>
      <path id="Path_309" data-name="Path 309" d="M587.573-118.252a.617.617,0,0,0-.24.492.617.617,0,0,0,.189.452.721.721,0,0,0,.538.223.73.73,0,0,0,.481-.172.613.613,0,0,0,.24-.5.627.627,0,0,0-.183-.452.718.718,0,0,0-.526-.217.752.752,0,0,0-.5.172" transform="translate(-441.921 139.568)" fill="#fff"/>
      <rect id="Rectangle_99" data-name="Rectangle 99" width="1.104" height="8.05" transform="translate(4.775 21.187)" fill="#fff"/>
      <path id="Path_310" data-name="Path 310" d="M148.672-105.707V-109.5a3.335,3.335,0,0,1,.824-.658,2.871,2.871,0,0,1,1.453-.463,1.116,1.116,0,0,1,.967.361,1.735,1.735,0,0,1,.189.95v3.6h1.076v-3.542a6.165,6.165,0,0,0-.052-.9,1.358,1.358,0,0,0-.681-1.087,2.727,2.727,0,0,0-1.293-.275,3.918,3.918,0,0,0-2.54,1.013v-.847H147.6v5.635Z" transform="translate(-140.156 134.943)" fill="#fff"/>
      <path id="Path_311" data-name="Path 311" d="M171.657-105.541q2.517,0,2.517-1.751a1.26,1.26,0,0,0-.492-1.087,4.941,4.941,0,0,0-1.345-.618l-.8-.269a2.2,2.2,0,0,1-.5-.229.509.509,0,0,1-.257-.458q0-.692,1.144-.692a3.924,3.924,0,0,1,1.6.349l.292-.893a5.774,5.774,0,0,0-1.922-.321,2.915,2.915,0,0,0-1.6.372,1.33,1.33,0,0,0-.607,1.2,1.212,1.212,0,0,0,.515,1.053,6.029,6.029,0,0,0,1.476.658q.561.183.761.252a1.339,1.339,0,0,1,.446.258.591.591,0,0,1,.189.469q0,.847-1.43.847a3.72,3.72,0,0,1-1.928-.5l-.355.933a5.234,5.234,0,0,0,2.289.435" transform="translate(-155.282 134.943)" fill="#fff"/>
      <path id="Path_312" data-name="Path 312" d="M195.047-108.7a3.189,3.189,0,0,0-.521-1.917,2.37,2.37,0,0,0-2.042-.893,3.073,3.073,0,0,0-1.556.378,3.234,3.234,0,0,0-.606.458v-.669h-1.013v8.4l1.076-.3v-2.592a3.631,3.631,0,0,0,1.59.3,2.93,2.93,0,0,0,2.386-.967,3.313,3.313,0,0,0,.687-2.191m-1.1-.023a2.674,2.674,0,0,1-.452,1.59,1.933,1.933,0,0,1-1.688.727,2.78,2.78,0,0,1-1.425-.338v-2.225a1.625,1.625,0,0,1,.114-.681,1.655,1.655,0,0,1,.709-.721,2.157,2.157,0,0,1,1.07-.275,1.512,1.512,0,0,1,1.265.538,2.176,2.176,0,0,1,.406,1.385" transform="translate(-169.135 134.943)" fill="#fff"/>
      <path id="Path_313" data-name="Path 313" d="M222.407-105.433v-3.622a4.05,4.05,0,0,1,1.327-.87,3.7,3.7,0,0,1,1.362-.286l.046-.9a4.335,4.335,0,0,0-1.413.246,5.069,5.069,0,0,0-1.373.812v-1.013h-1.024v5.635Z" transform="translate(-191.382 134.669)" fill="#fff"/>
      <path id="Path_314" data-name="Path 314" d="M247.591-105.707V-109.5a3.332,3.332,0,0,1,.824-.658,2.87,2.87,0,0,1,1.453-.463,1.117,1.117,0,0,1,.967.361,1.738,1.738,0,0,1,.189.95v3.6H252.1v-3.542a6.173,6.173,0,0,0-.051-.9,1.357,1.357,0,0,0-.681-1.087,2.727,2.727,0,0,0-1.293-.275,3.918,3.918,0,0,0-2.54,1.013v-.847h-1.018v5.635Z" transform="translate(-207.863 134.943)" fill="#fff"/>
      <path id="Path_315" data-name="Path 315" d="M274.371-106.731v-4.417a9.838,9.838,0,0,0-2.42-.36,3.036,3.036,0,0,0-2.54,1.024,3.524,3.524,0,0,0-.692,2.254,2.986,2.986,0,0,0,.521,1.848,2.343,2.343,0,0,0,2.008.841,2.9,2.9,0,0,0,2.048-.8v.275a3.477,3.477,0,0,1-.24,1.522q-.355.681-1.636.681a5.172,5.172,0,0,1-1.819-.309l-.315.887a8.016,8.016,0,0,0,2.174.286,4.174,4.174,0,0,0,1.5-.229,1.833,1.833,0,0,0,1.19-1.179,8.716,8.716,0,0,0,.218-2.329m-1.076-1.35a2.318,2.318,0,0,1-.034.469,1.4,1.4,0,0,1-.32.578,1.96,1.96,0,0,1-1.533.629q-1.591,0-1.59-1.854a2.662,2.662,0,0,1,.509-1.7,1.92,1.92,0,0,1,1.6-.681,5.04,5.04,0,0,1,1.373.206Z" transform="translate(-223.104 134.943)" fill="#fff"/>
      <path id="Path_316" data-name="Path 316" d="M304.5-105.541q2.518,0,2.517-1.751a1.26,1.26,0,0,0-.492-1.087A4.939,4.939,0,0,0,305.18-109l-.8-.269a2.2,2.2,0,0,1-.5-.229.509.509,0,0,1-.257-.458q0-.692,1.144-.692a3.925,3.925,0,0,1,1.6.349l.292-.893a5.774,5.774,0,0,0-1.922-.321,2.917,2.917,0,0,0-1.6.372,1.33,1.33,0,0,0-.606,1.2,1.212,1.212,0,0,0,.515,1.053,6.029,6.029,0,0,0,1.476.658q.56.183.761.252a1.338,1.338,0,0,1,.446.258.591.591,0,0,1,.189.469q0,.847-1.43.847a3.719,3.719,0,0,1-1.928-.5l-.355.933a5.234,5.234,0,0,0,2.289.435" transform="translate(-246.103 134.943)" fill="#fff"/>
      <path id="Path_317" data-name="Path 317" d="M324.188-106.4a2.02,2.02,0,0,1-1.654-.652,2.16,2.16,0,0,1-.458-1.43,2.226,2.226,0,0,1,.572-1.619,1.979,1.979,0,0,1,1.482-.538,3.573,3.573,0,0,1,1.654.412l.309-.887a5.07,5.07,0,0,0-2-.389,3.207,3.207,0,0,0-2.157.664,3,3,0,0,0-.956,2.409,2.867,2.867,0,0,0,.744,2.111,3.127,3.127,0,0,0,2.323.784,4.639,4.639,0,0,0,2.174-.48l-.366-.87a3.225,3.225,0,0,1-1.665.486" transform="translate(-258.984 134.943)" fill="#fff"/>
      <path id="Path_318" data-name="Path 318" d="M355.523-108.8a3.009,3.009,0,0,0-.36-1.528,2.607,2.607,0,0,0-2.46-1.184,2.826,2.826,0,0,0-2.249.858,3.2,3.2,0,0,0-.7,2.169,2.842,2.842,0,0,0,.8,2.18,3.469,3.469,0,0,0,2.449.761,5.6,5.6,0,0,0,2.4-.5l-.389-.847a3.75,3.75,0,0,1-1.825.486,3.519,3.519,0,0,1-1.293-.194,1.547,1.547,0,0,1-.761-.635,1.983,1.983,0,0,1-.286-1.042h4.64q.028-.343.029-.52m-1.041-.292h-3.616a2.585,2.585,0,0,1,.183-.721,1.668,1.668,0,0,1,1.665-.841,1.625,1.625,0,0,1,1.528.727,2.234,2.234,0,0,1,.24.835" transform="translate(-278.735 134.943)" fill="#fff"/>
      <path id="Path_319" data-name="Path 319" d="M374.12-105.707V-109.5a3.338,3.338,0,0,1,.824-.658,2.871,2.871,0,0,1,1.453-.463,1.116,1.116,0,0,1,.967.361,1.738,1.738,0,0,1,.189.95v3.6h1.075v-3.542a6.167,6.167,0,0,0-.051-.9,1.358,1.358,0,0,0-.681-1.087,2.727,2.727,0,0,0-1.293-.275,3.917,3.917,0,0,0-2.54,1.013v-.847h-1.018v5.635Z" transform="translate(-294.725 134.943)" fill="#fff"/>
      <path id="Path_320" data-name="Path 320" d="M398.344-106.4a2.019,2.019,0,0,1-1.653-.652,2.16,2.16,0,0,1-.458-1.43,2.225,2.225,0,0,1,.572-1.619,1.979,1.979,0,0,1,1.482-.538,3.573,3.573,0,0,1,1.654.412l.309-.887a5.072,5.072,0,0,0-2-.389,3.207,3.207,0,0,0-2.157.664,3,3,0,0,0-.956,2.409,2.868,2.868,0,0,0,.744,2.111,3.127,3.127,0,0,0,2.323.784,4.639,4.639,0,0,0,2.174-.48l-.366-.87a3.225,3.225,0,0,1-1.665.486" transform="translate(-309.893 134.943)" fill="#fff"/>
      <path id="Path_321" data-name="Path 321" d="M420.295-108.8a3.006,3.006,0,0,0-.36-1.528,2.607,2.607,0,0,0-2.46-1.184,2.826,2.826,0,0,0-2.248.858,3.2,3.2,0,0,0-.7,2.169,2.84,2.84,0,0,0,.8,2.18,3.468,3.468,0,0,0,2.449.761,5.6,5.6,0,0,0,2.4-.5l-.389-.847a3.751,3.751,0,0,1-1.825.486,3.518,3.518,0,0,1-1.293-.194,1.547,1.547,0,0,1-.761-.635,1.982,1.982,0,0,1-.286-1.042h4.64q.028-.343.028-.52m-1.041-.292h-3.616a2.577,2.577,0,0,1,.183-.721,1.668,1.668,0,0,1,1.665-.841,1.624,1.624,0,0,1,1.527.727,2.227,2.227,0,0,1,.24.835" transform="translate(-323.201 134.943)" fill="#fff"/>
      <path id="Path_322" data-name="Path 322" d="M438.2-93.641l.672-2.3h-1.011l-.348,2.3Z" transform="translate(-339.04 124.127)" fill="#fff"/>
      <path id="Path_323" data-name="Path 323" d="M458.46-108.8a3.009,3.009,0,0,0-.36-1.528,2.608,2.608,0,0,0-2.46-1.184,2.826,2.826,0,0,0-2.249.858,3.2,3.2,0,0,0-.7,2.169,2.842,2.842,0,0,0,.8,2.18,3.469,3.469,0,0,0,2.449.761,5.6,5.6,0,0,0,2.4-.5l-.389-.847a3.751,3.751,0,0,1-1.825.486,3.519,3.519,0,0,1-1.293-.194,1.547,1.547,0,0,1-.761-.635,1.983,1.983,0,0,1-.286-1.042h4.64q.028-.343.029-.52m-1.042-.292H453.8a2.585,2.585,0,0,1,.183-.721,1.669,1.669,0,0,1,1.665-.841,1.624,1.624,0,0,1,1.528.727,2.222,2.222,0,0,1,.24.835" transform="translate(-349.4 134.943)" fill="#fff"/>
      <path id="Path_324" data-name="Path 324" d="M476.808-105.707V-109.5a3.336,3.336,0,0,1,.824-.658,2.87,2.87,0,0,1,1.453-.463,1.116,1.116,0,0,1,.967.361,1.739,1.739,0,0,1,.189.95v3.6h1.075v-3.542a6.177,6.177,0,0,0-.051-.9,1.358,1.358,0,0,0-.681-1.087,2.726,2.726,0,0,0-1.293-.275,3.917,3.917,0,0,0-2.54,1.013v-.847h-1.018v5.635Z" transform="translate(-365.22 134.943)" fill="#fff"/>
      <path id="Path_325" data-name="Path 325" d="M500.215-111.514v-3.793a3.286,3.286,0,0,1,.818-.658,2.87,2.87,0,0,1,1.453-.463,1.124,1.124,0,0,1,.972.361,1.755,1.755,0,0,1,.189.95v3.6h1.076v-3.542a6.163,6.163,0,0,0-.051-.9,1.347,1.347,0,0,0-.681-1.087,2.762,2.762,0,0,0-1.3-.275,3.97,3.97,0,0,0-2.477.938v-3.49l-1.076.3v8.05Z" transform="translate(-381.288 140.75)" fill="#fff"/>
      <path id="Path_326" data-name="Path 326" d="M526.719-105.707v-3.49q0-.5-.011-.681a1.88,1.88,0,0,0-.218-.813q-.48-.818-2.191-.818a5.894,5.894,0,0,0-1.774.252q-.131.046-.726.263l.32.881a4.617,4.617,0,0,1,2.071-.532,1.73,1.73,0,0,1,1.179.3,1.022,1.022,0,0,1,.257.778v.257q-.67.029-1,.046a5.968,5.968,0,0,0-2.328.492,1.646,1.646,0,0,0-.916,1.539q0,1.688,2.083,1.688a2.8,2.8,0,0,0,2.243-.784v.618Zm-1.076-1.877a.935.935,0,0,1-.04.315.932.932,0,0,1-.343.418,2.568,2.568,0,0,1-1.562.446q-1.213,0-1.213-.875t1.4-1.076q.629-.091,1.762-.137Z" transform="translate(-396.566 134.943)" fill="#fff"/>
      <path id="Path_327" data-name="Path 327" d="M545-105.707V-109.5a3.332,3.332,0,0,1,.824-.658,2.87,2.87,0,0,1,1.453-.463,1.117,1.117,0,0,1,.967.361,1.739,1.739,0,0,1,.189.95v3.6h1.076v-3.542a6.157,6.157,0,0,0-.052-.9,1.357,1.357,0,0,0-.681-1.087,2.728,2.728,0,0,0-1.293-.275,3.918,3.918,0,0,0-2.54,1.013v-.847h-1.018v5.635Z" transform="translate(-412.032 134.943)" fill="#fff"/>
      <path id="Path_328" data-name="Path 328" d="M569.335-106.4a2.02,2.02,0,0,1-1.654-.652,2.16,2.16,0,0,1-.458-1.43,2.226,2.226,0,0,1,.572-1.619,1.979,1.979,0,0,1,1.482-.538,3.571,3.571,0,0,1,1.654.412l.309-.887a5.069,5.069,0,0,0-2-.389,3.206,3.206,0,0,0-2.157.664,3,3,0,0,0-.956,2.409,2.868,2.868,0,0,0,.744,2.111,3.127,3.127,0,0,0,2.323.784,4.639,4.639,0,0,0,2.174-.48l-.366-.87a3.225,3.225,0,0,1-1.665.486" transform="translate(-427.281 134.943)" fill="#fff"/>
      <path id="Path_329" data-name="Path 329" d="M597.675-105.707V-109.5a3.329,3.329,0,0,1,.824-.658,2.869,2.869,0,0,1,1.453-.463,1.117,1.117,0,0,1,.967.361,1.738,1.738,0,0,1,.189.95v3.6h1.076v-3.542a6.155,6.155,0,0,0-.052-.9,1.358,1.358,0,0,0-.681-1.087,2.728,2.728,0,0,0-1.293-.275,3.919,3.919,0,0,0-2.541,1.013v-.847H596.6v5.635Z" transform="translate(-448.194 134.943)" fill="#fff"/>
      <path id="Path_330" data-name="Path 330" d="M624.455-106.731v-4.417a9.839,9.839,0,0,0-2.42-.36,3.036,3.036,0,0,0-2.541,1.024,3.524,3.524,0,0,0-.692,2.254,2.987,2.987,0,0,0,.521,1.848,2.344,2.344,0,0,0,2.008.841,2.9,2.9,0,0,0,2.048-.8v.275a3.478,3.478,0,0,1-.24,1.522q-.355.681-1.636.681a5.173,5.173,0,0,1-1.819-.309l-.315.887a8.015,8.015,0,0,0,2.174.286,4.175,4.175,0,0,0,1.5-.229,1.832,1.832,0,0,0,1.19-1.179,8.719,8.719,0,0,0,.218-2.329m-1.076-1.35a2.294,2.294,0,0,1-.034.469,1.4,1.4,0,0,1-.321.578,1.96,1.96,0,0,1-1.533.629q-1.59,0-1.59-1.854a2.662,2.662,0,0,1,.509-1.7,1.921,1.921,0,0,1,1.6-.681,5.039,5.039,0,0,1,1.373.206Z" transform="translate(-462.741 134.943)" fill="#fff"/>
    </g>
  </g>
</svg>
