<?xml version="1.0" standalone="no"?>
<!DOCTYPE svg PUBLIC "-//W3C//DTD SVG 1.1//EN" "http://www.w3.org/Graphics/SVG/1.1/DTD/svg11.dtd" >
<svg xmlns="http://www.w3.org/2000/svg" xmlns:xlink="http://www.w3.org/1999/xlink" version="1.1">
<metadata>
Created by FontForge 20190801 at Fri Mar 24 11:34:00 2017
 By www-data
(URW)++,Copyright 2016 by (URW)++ Design &#38; Development
</metadata>
<defs>
<font id="JMSansLight" horiz-adv-x="1147" >
  <font-face 
    font-family="JMSansLight"
    font-weight="300"
    font-stretch="normal"
    units-per-em="2048"
    panose-1="0 0 0 0 0 0 0 0 0 0"
    ascent="1536"
    descent="-512"
    x-height="985"
    cap-height="1407"
    bbox="-291 -557 2302 1983"
    underline-thickness="98"
    underline-position="-404"
    unicode-range="U+0020-FB04"
  />
<missing-glyph horiz-adv-x="492" 
d="M49 0v1407h394v-1407h-394zM394 49v1309h-296v-1309h296z" />
    <glyph glyph-name="ff" unicode="ff" horiz-adv-x="1267" 
d="M356 875v-875h-129v875h-190l8 110h182v119q0 172 55 256q70 107 228 107q84 0 157 -30l-30 -104q-61 25 -121 25q-90 0 -125 -55.5t-35 -196.5v-121h239l-10 -110h-229zM976 875v-875h-129v875h-190l8 110h182v119q0 172 55 256q71 107 228 107q84 0 157 -30l-30 -104
q-61 25 -121 25q-90 0 -125 -55.5t-35 -196.5v-121h266l-10 -110h-256z" />
    <glyph glyph-name="fi" unicode="fi" horiz-adv-x="1175" 
d="M356 875v-875h-129v875h-190l8 110h182v119q0 172 55 256q70 107 228 107q84 0 157 -30l-30 -104q-61 25 -121 25q-90 0 -125 -55.5t-35 -196.5v-121h266l-10 -110h-256zM846 0v985h129v-985h-129zM912 1352q39 0 66.5 -28t27.5 -67q0 -40 -28 -68t-67 -28q-40 0 -68 28
t-28 68t28 67.5t69 27.5z" />
    <glyph glyph-name="fl" unicode="fl" horiz-adv-x="1165" 
d="M356 875v-875h-129v875h-190l8 110h182v119q0 172 55 256q70 107 228 107q84 0 157 -30l-30 -104q-61 25 -121 25q-90 0 -125 -55.5t-35 -196.5v-121h266l-10 -110h-256zM838 0v1450l129 27v-1477h-129z" />
    <glyph glyph-name="ffi" unicode="ffi" horiz-adv-x="1796" 
d="M356 875v-875h-129v875h-190l8 110h182v119q0 172 55 256q70 107 228 107q84 0 157 -30l-30 -104q-61 25 -121 25q-90 0 -125 -55.5t-35 -196.5v-121h239l-10 -110h-229zM1467 0v985h129v-985h-129zM1533 1352q39 0 66.5 -28t27.5 -67q0 -40 -28 -68t-68 -28
q-39 0 -67 28t-28 68t28 67.5t69 27.5zM976 875v-875h-129v875h-190l8 110h182v119q0 172 55 256q71 107 228 107q84 0 157 -30l-30 -104q-61 25 -121 25q-90 0 -125 -55.5t-35 -196.5v-121h266l-10 -110h-256z" />
    <glyph glyph-name=".notdef" horiz-adv-x="492" 
d="M49 0v1407h394v-1407h-394zM394 49v1309h-296v-1309h296z" />
    <glyph glyph-name="glyph1" horiz-adv-x="0" 
 />
    <glyph glyph-name="glyph2" horiz-adv-x="492" 
 />
    <glyph glyph-name="space" unicode=" " horiz-adv-x="492" 
 />
    <glyph glyph-name="exclam" unicode="!" horiz-adv-x="684" 
d="M292 380l-24 1027h148l-25 -1027h-99zM344 176q41 0 71 -30t30 -72q0 -43 -30 -73t-73 -30t-73 30t-30 73t30.5 72.5t74.5 29.5z" />
    <glyph glyph-name="quotedbl" unicode="&#x22;" horiz-adv-x="510" 
d="M86 881l-21 526h127l-20 -526h-86zM339 881l-21 526h127l-21 -526h-85z" />
    <glyph glyph-name="numbersign" unicode="#" 
d="M341 594l30 228h-233l19 114h233l45 317h121l-45 -317h191l45 317h121l-45 -317h233l-19 -114h-233l-30 -228h230l-21 -114h-228l-43 -328h-121l43 328h-191l-44 -328h-120l43 328h-238l20 114h237zM462 594h191l30 228h-191z" />
    <glyph glyph-name="dollar" unicode="$" 
d="M627 1396q158 -9 299 -81l-52 -109q-103 64 -247 76v-514q126 -54 175.5 -81.5t86.5 -63.5q102 -99 102 -269q0 -116 -51.5 -202t-148.5 -130q-71 -33 -164 -44v-166h-97v160q-223 -1 -384 81l50 118q139 -88 334 -86v585q-125 51 -204 101q-80 51 -116.5 115.5
t-36.5 156.5q0 235 209 318q67 27 148 33v193h97v-191zM627 628v-533q91 17 140 55q93 73 93 201q0 127 -93 201q-40 32 -140 76zM530 811v470q-225 -29 -225 -226q0 -116 102 -182q31 -20 123 -62z" />
    <glyph glyph-name="percent" unicode="%" horiz-adv-x="1624" 
d="M397 1436q139 0 212 -95t73 -275q0 -172 -67 -268q-73 -103 -223 -103q-141 0 -215 94t-74 275q0 372 294 372zM395 1349q-94 0 -137.5 -69t-43.5 -216q0 -282 178 -282q179 0 179 283q0 284 -176 284zM1234 712q139 0 212 -95.5t73 -275.5q0 -171 -68 -267
q-72 -103 -221 -103q-142 0 -216 94t-74 275q0 372 294 372zM1233 625q-94 0 -138 -69t-44 -216q0 -282 179 -282q102 0 143 84q35 71 35 199q0 284 -175 284zM507 0l498 1407h109l-497 -1407h-110z" />
    <glyph glyph-name="ampersand" unicode="&#x26;" horiz-adv-x="1395" 
d="M1076 235l199 -235h-182l-111 137q-195 -166 -429 -166q-192 0 -315 100q-130 106 -130 298q0 154 80.5 256t256.5 170q-126 155 -126 320q0 143 86 231q88 90 242 90q161 0 249 -93q74 -77 74 -208q0 -133 -78.5 -219t-261.5 -154l368 -437q125 183 188 578l130 -2
q-64 -440 -240 -666zM571 843q104 41 157 79q111 80 111 217q0 90 -50 138.5t-143 48.5q-195 0 -195 -204q0 -72 27 -135t93 -144zM508 716q-139 -55 -202.5 -133.5t-63.5 -193.5q0 -162 110 -242q90 -66 226 -66q177 0 331 144z" />
    <glyph glyph-name="quotesingle" unicode="'" horiz-adv-x="258" 
d="M86 881l-21 526h127l-20 -526h-86z" />
    <glyph glyph-name="parenleft" unicode="(" horiz-adv-x="807" 
d="M642 -291l-91 -49q-96 144 -163 327q-108 291 -108 608q0 335 120 642q64 163 151 294l91 -50q-85 -149 -133 -304q-53 -170 -72.5 -294.5t-19.5 -287.5q0 -169 22.5 -304.5t82.5 -317.5q39 -123 120 -264z" />
    <glyph glyph-name="parenright" unicode=")" horiz-adv-x="807" 
d="M164 1481l91 50q97 -147 163 -327q108 -291 108 -609q0 -335 -120 -641q-64 -162 -151 -294l-91 49q85 148 133 305q53 170 72.5 294t19.5 287q0 170 -22.5 305t-82.5 318q-41 125 -120 263z" />
    <glyph glyph-name="asterisk" unicode="*" 
d="M573 1104l-187 -322l-115 63l232 316l-358 70l39 125l341 -118l-22 351h139l-20 -351l340 118l40 -125l-359 -70l233 -315l-115 -64z" />
    <glyph glyph-name="plus" unicode="+" 
d="M118 650l10 109h395v412h120v-412h407l-10 -109h-397v-409h-120v409h-405z" />
    <glyph glyph-name="comma" unicode="," horiz-adv-x="573" 
d="M173 -262l58 431h148l-113 -431h-93z" />
    <glyph glyph-name="hyphen" unicode="-" horiz-adv-x="707" 
d="M67 587l23 114h549l-23 -114h-549z" />
    <glyph glyph-name="period" unicode="." horiz-adv-x="573" 
d="M289 176q41 0 71 -30t30 -72q0 -43 -30 -73t-73 -30t-73 30t-30 73t30.5 72.5t74.5 29.5z" />
    <glyph glyph-name="slash" unicode="/" horiz-adv-x="573" 
d="M14 0l422 1407h124l-423 -1407h-123z" />
    <glyph glyph-name="zero" unicode="0" 
d="M579 1436q167 0 282 -96q92 -78 131.5 -224t39.5 -412q0 -370 -83 -525q-52 -97 -138 -147q-104 -61 -238 -61q-175 0 -288 96q-92 79 -131.5 225.5t-39.5 412.5q0 368 83 523q112 208 382 208zM578 1327q-212 0 -283 -197q-47 -130 -47 -424q0 -327 59 -458
q36 -81 104 -123q71 -45 162 -45q101 0 172 50.5t106 146.5q47 129 47 427q0 325 -58 455q-37 82 -104 123q-72 45 -158 45z" />
    <glyph glyph-name="one" unicode="1" 
d="M572 0v1267l-249 -77l-33 105l302 112h109v-1407h-129z" />
    <glyph glyph-name="two" unicode="2" 
d="M143 0v111l444 498q131 147 185 248t54 200q0 114 -57 182q-74 88 -228 88q-179 0 -340 -133l-63 97q105 79 201.5 113.5t211.5 34.5q211 0 318 -114q91 -97 91 -265q0 -120 -58.5 -233.5t-205.5 -275.5l-395 -438h692v-113h-850z" />
    <glyph glyph-name="three" unicode="3" 
d="M390 691v110h78q139 0 223 63q109 82 109 221q0 109 -59 170q-68 71 -206 71q-92 0 -170.5 -27t-170.5 -91l-61 97q178 131 410 131q198 0 301 -102q90 -88 90 -239q0 -243 -247 -331q118 -24 185 -75q122 -94 122 -287q0 -229 -162 -342q-127 -89 -335 -89
q-223 0 -390 106l59 107q96 -62 160.5 -83t159.5 -21q197 0 292 93q82 81 82 223q0 178 -124 249q-82 46 -244 46h-102z" />
    <glyph glyph-name="four" unicode="4" 
d="M682 395h-638v106l640 906h128v-900h199l-11 -112h-188v-395h-130v395zM684 506v721l-504 -721h504z" />
    <glyph glyph-name="five" unicode="5" 
d="M226 676l26 731h666l-19 -113h-529l-17 -502q71 40 130 55.5t140 15.5q390 0 390 -412q0 -249 -148 -373q-129 -107 -346 -107q-210 0 -369 94l54 107q154 -92 313 -92q101 0 179.5 31t119.5 88q63 88 63 247q0 142 -56 217q-67 90 -222 90q-71 0 -130 -22t-146 -81z" />
    <glyph glyph-name="six" unicode="6" 
d="M275 707q117 179 336 179q198 0 313 -132q98 -114 98 -304q0 -192 -89 -322q-110 -160 -350 -160q-276 0 -375 223q-60 134 -60 395q0 444 157 659q66 91 172 141t231 50q121 0 234 -43l-39 -105q-77 38 -182 38q-180 0 -283 -108q-71 -74 -109 -193.5t-54 -317.5z
M604 776q-132 0 -219 -73q-106 -88 -106 -268q0 -143 59 -238q73 -119 246 -119q164 0 238 112q66 99 66 255q0 136 -56 220q-74 111 -228 111z" />
    <glyph glyph-name="seven" unicode="7" 
d="M858 1291h-721l16 116h856v-69l-569 -1338h-143z" />
    <glyph glyph-name="eight" unicode="8" 
d="M352 744q-71 35 -111 75q-86 89 -86 242q0 168 95 265q109 110 321 110q213 0 321 -110q96 -97 96 -265q0 -117 -46.5 -192t-149.5 -125q249 -86 249 -370q0 -231 -145 -326q-118 -77 -324 -77q-469 0 -469 403q0 284 249 370zM576 1326q-287 0 -287 -267
q0 -131 72.5 -200t210.5 -69q137 0 209.5 69t72.5 200q0 125 -66 192q-73 75 -212 75zM577 678q-168 0 -252 -70q-88 -73 -88 -231q0 -152 81.5 -224t253.5 -72q165 0 247 67q88 73 88 231q0 299 -330 299z" />
    <glyph glyph-name="nine" unicode="9" 
d="M873 717q-99 -182 -338 -182q-217 0 -332 155q-78 105 -78 268q0 196 97 327q112 151 344 151q279 0 377 -225q56 -129 56 -400q0 -442 -152 -652q-65 -91 -170.5 -140.5t-230.5 -49.5q-127 0 -240 42l38 106q81 -38 184 -38q279 0 374 248q54 141 71 390zM568 1326
q-163 0 -238 -105q-71 -99 -71 -259q0 -125 53 -205q73 -112 235 -112q128 0 215 70q106 86 106 258q0 143 -59 236q-35 56 -93 84q-70 33 -148 33z" />
    <glyph glyph-name="colon" unicode=":" horiz-adv-x="573" 
d="M289 176q41 0 71 -30t30 -72q0 -43 -30 -73t-73 -30t-73 30t-30 73t30.5 72.5t74.5 29.5zM289 1009q41 0 71 -30.5t30 -72.5t-30 -72t-73 -30t-73 30t-30 73t30.5 72.5t74.5 29.5z" />
    <glyph glyph-name="semicolon" unicode=";" horiz-adv-x="573" 
d="M312 1009q41 0 71 -30.5t30 -72.5t-30 -72t-73 -30t-73 30t-30 73t30.5 72.5t74.5 29.5zM173 -262l58 431h148l-113 -431h-93z" />
    <glyph glyph-name="less" unicode="&#x3c;" 
d="M274 708l749 -373v-129l-899 456v92l899 456v-129z" />
    <glyph glyph-name="equal" unicode="=" 
d="M148 785l10 109h840l-10 -109h-840zM148 518l10 109h840l-10 -109h-840z" />
    <glyph glyph-name="greater" unicode="&#x3e;" 
d="M873 708l-749 373v129l899 -456v-92l-899 -456v129z" />
    <glyph glyph-name="question" unicode="?" horiz-adv-x="921" 
d="M469 378h-113v102q0 108 25.5 156.5t145.5 168.5q98 97 133.5 161.5t35.5 142.5q0 218 -246 218q-173 0 -326 -105l-53 102q171 112 392 112q187 0 284 -90q83 -77 83 -216q0 -99 -42 -176.5t-155 -190.5q-122 -122 -143 -160t-21 -136v-89zM420 176q41 0 71 -30t30 -72
q0 -43 -30 -73t-73 -30t-73 30t-30 73t30.5 72.5t74.5 29.5z" />
    <glyph glyph-name="at" unicode="@" horiz-adv-x="1636" 
d="M1093 999h112l-107 -503q-12 -58 -12 -90q0 -78 81 -78q73 0 128 62q115 133 115 345q0 102 -31 197.5t-84 157.5q-73 85 -193 128q-126 46 -264 46q-266 0 -428 -165q-184 -188 -184 -512q0 -604 613 -604q137 0 245.5 25t226.5 83l39 -97q-225 -113 -500 -113
q-350 0 -538 162q-208 180 -208 537q0 385 226 597q198 186 516 186q244 0 418 -110q146 -93 214 -260q52 -126 52 -264q0 -253 -156 -402q-93 -89 -226 -89q-79 0 -114.5 36.5t-37.5 121.5q-113 -163 -274 -163q-114 0 -175 70t-61 201q0 117 41.5 231.5t110.5 185.5
q95 99 233 99q141 0 204 -121zM874 929q-119 0 -195 -131q-74 -129 -74 -291q0 -88 41 -134q39 -42 100 -42q127 0 211 142q82 139 82 275q0 77 -42 125q-48 56 -123 56z" />
    <glyph glyph-name="A" unicode="A" horiz-adv-x="1292" 
d="M957 462h-627l-187 -462h-138l580 1407h122l581 -1407h-143zM913 574l-270 664l-269 -664h539z" />
    <glyph glyph-name="B" unicode="B" horiz-adv-x="1212" 
d="M199 0v1407h430q229 0 328 -64q129 -84 129 -269q0 -131 -62.5 -214.5t-180.5 -109.5q121 -20 183 -78q101 -94 101 -277q0 -248 -174 -339q-107 -56 -333 -56h-421zM330 802h225q130 0 197.5 12t107.5 43q92 70 92 211q0 130 -91 185q-67 40 -265 40h-266v-491zM330 115
h259q215 0 293 45q108 62 108 228q0 192 -123 256q-84 44 -299 44h-238v-573z" />
    <glyph glyph-name="C" unicode="C" horiz-adv-x="1097" 
d="M981 182l65 -103q-137 -108 -354 -108q-297 0 -445 192q-143 185 -143 516q0 252 81 432q146 325 522 325q189 0 331 -90l-56 -108q-122 83 -274 83q-231 0 -344 -162q-123 -177 -123 -469q0 -275 105 -435q112 -169 352 -169q171 0 283 96z" />
    <glyph glyph-name="D" unicode="D" horiz-adv-x="1314" 
d="M199 0v1407h344q318 0 472 -138q94 -84 144.5 -229.5t50.5 -331.5q0 -228 -79 -400q-72 -158 -220 -233t-385 -75h-327zM330 115h177q278 0 407 119q92 85 132 245q27 111 27 234q0 218 -83 376q-80 152 -266 186q-93 17 -236 17h-158v-1177z" />
    <glyph glyph-name="E" unicode="E" horiz-adv-x="1115" 
d="M199 0v1407h805l-8 -115h-666v-481h572l-9 -114h-563v-582h700l-11 -115h-820z" />
    <glyph glyph-name="F" unicode="F" horiz-adv-x="1021" 
d="M199 0v1407h768l-9 -115h-628v-494h543l-9 -114h-534v-684h-131z" />
    <glyph glyph-name="G" unicode="G" horiz-adv-x="1285" 
d="M1013 140v432h-318l18 113h431v-620q-171 -94 -400 -94q-640 0 -640 717q0 426 226 616q157 132 393 132q198 0 364 -99l-49 -111q-88 53 -157 74t-154 21q-246 0 -359 -154q-127 -173 -127 -464q0 -284 111 -449q114 -169 393 -169q163 0 268 55z" />
    <glyph glyph-name="H" unicode="H" horiz-adv-x="1405" 
d="M199 0v1407h131v-613h746v613h131v-1407h-131v677h-746v-677h-131z" />
    <glyph glyph-name="I" unicode="I" horiz-adv-x="548" 
d="M209 0v1407h131v-1407h-131z" />
    <glyph glyph-name="J" unicode="J" horiz-adv-x="532" 
d="M200 1407h131v-975q0 -213 -12.5 -317t-47.5 -188q-55 -130 -222 -278l-67 58q83 92 114.5 141.5t56.5 127.5q47 141 47 474v957z" />
    <glyph glyph-name="K" unicode="K" horiz-adv-x="1183" 
d="M199 0v1407h131v-613l644 613h167l-673 -633l715 -774h-174l-679 744v-744h-131z" />
    <glyph glyph-name="L" unicode="L" horiz-adv-x="1004" 
d="M199 0v1407h131v-1292h649l-10 -115h-770z" />
    <glyph glyph-name="M" unicode="M" horiz-adv-x="1694" 
d="M148 0l93 1407h143l464 -1189l464 1189h141l93 -1407h-125l-70 1170l-462 -1170h-85l-461 1170l-71 -1170h-124z" />
    <glyph glyph-name="N" unicode="N" horiz-adv-x="1443" 
d="M198 0v1407h135l784 -1179v1179h128v-1407h-120l-799 1196v-1196h-128z" />
    <glyph glyph-name="O" unicode="O" horiz-adv-x="1391" 
d="M705 1436q192 0 329 -99q148 -107 211 -323q41 -140 41 -311q0 -313 -135 -516q-144 -216 -456 -216t-455 216q-136 203 -136 513q0 320 136 517q150 219 465 219zM703 1321q-248 0 -363 -183q-99 -157 -99 -438q0 -273 99 -435q110 -179 355 -179t355 179q99 163 99 438
q0 278 -99 435q-60 94 -159 141q-88 42 -188 42z" />
    <glyph glyph-name="P" unicode="P" 
d="M199 0v1407h353q270 0 380 -103q120 -111 120 -317q0 -240 -154 -345q-119 -81 -371 -81h-197v-561h-131zM330 676h178q237 0 318 75q41 37 65 99t24 132q0 79 -28 146.5t-75 103.5q-82 61 -296 61h-186v-617z" />
    <glyph glyph-name="Q" unicode="Q" horiz-adv-x="1391" 
d="M1047 82q168 38 319 38l1 -120q-273 -3 -481 -20q-104 -9 -165 -9q-239 0 -366 94q-145 107 -210 326q-41 140 -41 312q0 313 136 514q147 219 455 219t456 -219q135 -201 135 -514q0 -206 -60.5 -363t-178.5 -258zM703 1321q-248 0 -363 -183q-99 -157 -99 -438
q0 -273 99 -435q110 -179 355 -179t355 179q99 163 99 438q0 278 -99 435q-60 94 -159 141q-88 42 -188 42z" />
    <glyph glyph-name="R" unicode="R" horiz-adv-x="1209" 
d="M330 604v-604h-131v1407h395q240 0 344 -85q121 -100 121 -301q0 -149 -64.5 -247t-184.5 -132q40 -28 62.5 -59.5t68.5 -122.5l231 -460h-153l-166 335q-97 196 -130 232.5t-112 36.5h-281zM330 718h210q218 0 296 65q86 72 86 235q0 169 -105 229q-79 46 -283 46h-204
v-575z" />
    <glyph glyph-name="S" unicode="S" horiz-adv-x="1002" 
d="M84 53l48 116q139 -83 308 -83q187 0 271 85q72 73 72 188q0 91 -44 155q-30 43 -79 74t-168 82q-206 87 -288 156q-100 84 -100 241q0 193 130 290q105 79 280 79q179 0 328 -82l-50 -106q-133 73 -278 73q-121 0 -194 -55q-82 -62 -82 -186q0 -102 61 -157
q31 -29 85.5 -57.5t182.5 -84.5q129 -56 191.5 -97.5t98.5 -95.5q61 -91 61 -225q0 -95 -36 -174.5t-100 -127.5q-120 -90 -332 -90q-214 0 -366 82z" />
    <glyph glyph-name="T" unicode="T" horiz-adv-x="1018" 
d="M444 0v1292h-423l8 115h968l-9 -115h-413v-1292h-131z" />
    <glyph glyph-name="U" unicode="U" horiz-adv-x="1332" 
d="M192 1407h131v-848q0 -257 50 -346q72 -127 293 -127q239 0 305 151q38 88 38 322v848h131v-895q0 -239 -59 -349q-101 -192 -415 -192q-337 0 -430 223q-44 104 -44 318v895z" />
    <glyph glyph-name="V" unicode="V" horiz-adv-x="1127" 
d="M498 0l-489 1407h139l417 -1226l418 1226h134l-489 -1407h-130z" />
    <glyph glyph-name="W" unicode="W" horiz-adv-x="1727" 
d="M386 0l-350 1407h135l284 -1205l347 1205h125l349 -1209l280 1209h134l-351 -1407h-130l-345 1203l-345 -1203h-133z" />
    <glyph glyph-name="X" unicode="X" horiz-adv-x="1167" 
d="M509 744l-406 663h149l349 -570l349 570h143l-429 -672l450 -735h-150l-393 642l-417 -642h-144z" />
    <glyph glyph-name="Y" unicode="Y" horiz-adv-x="1087" 
d="M476 0v555l-457 852h142l385 -733l384 733h137l-460 -852v-555h-131z" />
    <glyph glyph-name="Z" unicode="Z" horiz-adv-x="1051" 
d="M38 0l-1 97l777 1195h-691l9 115h826l12 -97l-771 -1195h810l-10 -115h-961z" />
    <glyph glyph-name="bracketleft" unicode="[" horiz-adv-x="807" 
d="M631 1552v-94h-178v-1708h178v-94h-307v1896h307z" />
    <glyph glyph-name="backslash" unicode="\" horiz-adv-x="573" 
d="M436 0l-422 1407h123l423 -1407h-124z" />
    <glyph glyph-name="bracketright" unicode="]" horiz-adv-x="807" 
d="M176 -344v94h178v1708h-178v94h307v-1896h-307z" />
    <glyph glyph-name="asciicircum" unicode="^" 
d="M573 1270l-340 -562h-137l451 725h52l451 -725h-137z" />
    <glyph glyph-name="underscore" unicode="_" horiz-adv-x="1024" 
d="M-61 -404v98h1146v-98h-1146z" />
    <glyph glyph-name="grave" unicode="`" horiz-adv-x="1024" 
d="M628 1126h-104l-242 257h190z" />
    <glyph glyph-name="a" unicode="a" horiz-adv-x="1021" 
d="M711 630v52q0 105 -35 154q-48 68 -182 68q-159 0 -305 -112l-56 101q170 121 370 121q219 0 296 -129q27 -44 35 -94.5t8 -168.5v-622h-105l-22 118q-100 -147 -328 -147q-296 0 -296 292q0 147 90 232q67 63 168 90t330 42zM712 525q-189 -15 -269 -32
q-218 -46 -218 -227q0 -186 183 -186q145 0 244 97q34 32 47 64t13 81v203z" />
    <glyph glyph-name="b" unicode="b" horiz-adv-x="1100" 
d="M187 67v1384l129 26v-610q128 147 309 147q194 0 285 -141q91 -140 91 -371q0 -227 -103 -373q-112 -158 -335 -158q-163 0 -376 96zM316 147q104 -66 235 -66q167 0 246 130q70 116 70 288q0 179 -59 291q-27 52 -80.5 83t-116.5 31q-67 0 -131.5 -32.5t-106.5 -86.5
q-33 -43 -45 -83t-12 -108v-447z" />
    <glyph glyph-name="c" unicode="c" horiz-adv-x="913" 
d="M801 185l62 -99q-142 -115 -328 -115q-221 0 -333 144q-106 135 -106 361q0 265 137 416q112 122 312 122q161 0 297 -86l-50 -105q-122 81 -247 81q-147 0 -225 -103q-90 -119 -90 -317q0 -167 72 -276q83 -127 254 -127q132 0 245 104z" />
    <glyph glyph-name="d" unicode="d" horiz-adv-x="1097" 
d="M781 955v496l129 26v-1477h-103l-21 123q-71 -81 -145.5 -116.5t-172.5 -35.5q-138 0 -231 78q-141 119 -141 411q0 229 105 381q66 96 175 141q76 32 167 32q148 0 238 -59zM781 835q-95 69 -218 69q-176 0 -259 -143q-74 -126 -74 -307q0 -171 61 -271
q29 -47 81.5 -74.5t112.5 -27.5q68 0 132 32t107 87q33 43 45 83t12 108v444z" />
    <glyph glyph-name="e" unicode="e" horiz-adv-x="1014" 
d="M918 477h-691q1 -121 42 -219q40 -94 113 -135q75 -43 198 -43q140 0 260 103l61 -98q-141 -114 -345 -114q-227 0 -343 137q-117 138 -117 378q0 234 103 377q109 151 323 151q187 0 292.5 -130t105.5 -362q0 -22 -2 -45zM785 583q-23 321 -267 321q-251 0 -285 -321
h552z" />
    <glyph glyph-name="f" unicode="f" horiz-adv-x="647" 
d="M356 875v-875h-129v875h-190l8 110h182v119q0 172 55 256q70 107 228 107q84 0 157 -30l-30 -104q-61 25 -121 25q-90 0 -125 -55.5t-35 -196.5v-121h266l-10 -110h-256z" />
    <glyph glyph-name="g" unicode="g" horiz-adv-x="1085" 
d="M769 130q-132 -159 -309 -159q-136 0 -227 77q-137 114 -137 398q0 230 100 384q120 184 360 184q80 0 147.5 -12.5t194.5 -50.5v-755q0 -286 -26 -402q-28 -126 -128.5 -194t-259.5 -68q-162 0 -294 56l44 107q106 -53 247 -53q200 0 253 137q35 92 35 304v47zM769 861
q-120 43 -212 43q-167 0 -247 -131t-80 -337q0 -355 244 -355q149 0 240 119q32 43 43.5 83t11.5 108v470z" />
    <glyph glyph-name="h" unicode="h" horiz-adv-x="1161" 
d="M187 0v1451l129 26v-651q107 105 190 146.5t185 41.5q101 0 171.5 -42t96.5 -117q23 -69 23 -245v-610h-129v655q0 127 -28 178q-39 68 -151 68q-173 0 -358 -210v-691h-129z" />
    <glyph glyph-name="i" unicode="i" horiz-adv-x="528" 
d="M200 0v985h129v-985h-129zM266 1352q39 0 66.5 -28t27.5 -67q0 -40 -28 -68t-67 -28q-40 0 -68 28t-28 68t28 67.5t69 27.5z" />
    <glyph glyph-name="j" unicode="j" horiz-adv-x="534" 
d="M205 985h129v-965q0 -185 -38 -283t-150 -202l-62 52q78 114 99 205q22 92 22 334v859zM271 1352q39 0 66.5 -28t27.5 -67q0 -40 -28 -68t-67 -28q-40 0 -68 28t-28 68t28 67.5t69 27.5z" />
    <glyph glyph-name="k" unicode="k" horiz-adv-x="1030" 
d="M187 0v1450l129 27v-883l454 391h169l-488 -417l533 -568h-168l-500 541v-541h-129z" />
    <glyph glyph-name="l" unicode="l" horiz-adv-x="525" 
d="M198 0v1450l129 27v-1477h-129z" />
    <glyph glyph-name="m" unicode="m" horiz-adv-x="1772" 
d="M187 0v985h110l17 -160q59 59 105 95q119 94 257 94q111 0 179.5 -51.5t86.5 -146.5q99 105 186.5 151.5t186.5 46.5q97 0 164 -42t92 -117q22 -69 22 -245v-610h-129v663q0 122 -27 172q-36 66 -139 66q-166 0 -344 -210v-691h-129v659q0 121 -25 171q-35 71 -140 71
q-166 0 -344 -210v-691h-129z" />
    <glyph glyph-name="n" unicode="n" horiz-adv-x="1161" 
d="M187 0v985h110l17 -160q61 59 109 95q122 94 269 94q101 0 171 -41.5t96 -117.5q23 -69 23 -245v-610h-129v663q0 123 -30 173q-39 65 -149 65q-174 0 -358 -210v-691h-129z" />
    <glyph glyph-name="o" unicode="o" horiz-adv-x="1083" 
d="M549 1014q210 0 327 -145q112 -139 112 -377q0 -236 -112 -376q-116 -145 -334 -145t-334 145q-112 140 -112 375q0 239 112 378q116 145 341 145zM547 904q-179 0 -255 -137q-62 -113 -62 -275q0 -160 62 -274q74 -137 250 -137t250 137q62 114 62 275q0 163 -62 274
q-76 137 -245 137z" />
    <glyph glyph-name="p" unicode="p" horiz-adv-x="1100" 
d="M187 -476v1461h109l17 -119q51 57 96 86q96 62 219 62q139 0 232 -80q141 -121 141 -418q0 -223 -97 -368q-59 -89 -158 -136q-89 -41 -190 -41q-146 0 -240 58v-469zM316 150q100 -69 222 -69q178 0 258 139q71 123 71 303q0 172 -61 275q-29 49 -81.5 77.5t-112.5 28.5
q-68 0 -132.5 -32t-106.5 -87q-33 -43 -45 -83t-12 -108v-444z" />
    <glyph glyph-name="q" unicode="q" horiz-adv-x="1100" 
d="M912 951v-1391l-129 -38v603q-133 -154 -311 -154q-140 0 -233 76q-141 115 -141 399q0 230 103 383q124 185 371 185q134 0 340 -63zM783 861q-119 43 -209 43q-175 0 -259 -131q-83 -131 -83 -336q0 -356 255 -356q150 0 240 119q32 42 44 82.5t12 108.5v470z" />
    <glyph glyph-name="r" unicode="r" horiz-adv-x="718" 
d="M187 0v985h110l17 -184q118 109 200.5 148.5t197.5 43.5l-8 -112q-187 9 -388 -214v-667h-129z" />
    <glyph glyph-name="s" unicode="s" horiz-adv-x="773" 
d="M27 57l55 117q103 -94 248 -94q226 0 226 179q0 75 -36.5 112.5t-162.5 91.5q-159 67 -216.5 128t-57.5 161q0 123 79.5 192.5t220.5 69.5q134 0 274 -73l-56 -105q-110 68 -221 68q-170 0 -170 -144q0 -60 39 -94q24 -22 47.5 -34.5t138.5 -63.5q149 -67 199 -126
t50 -168q0 -303 -352 -303q-182 0 -305 86z" />
    <glyph glyph-name="t" unicode="t" horiz-adv-x="686" 
d="M230 875h-168l8 110h161l13 240l115 37v-277h226l-9 -110h-217v-561q0 -150 15 -187q18 -43 96 -43q61 0 120 33l27 -103q-79 -43 -177 -43q-112 0 -161 57.5t-49 190.5v656z" />
    <glyph glyph-name="u" unicode="u" horiz-adv-x="1131" 
d="M820 130q-91 -84 -175 -121.5t-181 -37.5q-209 0 -262 159q-23 69 -23 244v611h129v-663q0 -124 30 -175q38 -64 144 -64q176 0 332 175v727h129v-985h-103z" />
    <glyph glyph-name="v" unicode="v" horiz-adv-x="919" 
d="M403 0l-372 985h140l293 -818l292 818h132l-374 -985h-111z" />
    <glyph glyph-name="w" unicode="w" horiz-adv-x="1472" 
d="M361 0l-325 985h139l248 -818l264 818h105l263 -818l249 818h132l-328 -985h-111l-261 814l-262 -814h-113z" />
    <glyph glyph-name="x" unicode="x" horiz-adv-x="982" 
d="M423 510l-343 475h155l272 -379l263 379h147l-345 -467l373 -518h-154l-305 424l-305 -424h-147z" />
    <glyph glyph-name="y" unicode="y" horiz-adv-x="917" 
d="M398 -3l-366 988h141l295 -835l321 835h132l-582 -1459l-123 51z" />
    <glyph glyph-name="z" unicode="z" horiz-adv-x="880" 
d="M53 0l-3 100l553 775h-489l16 110h623l10 -98l-556 -777h616l-16 -110h-754z" />
    <glyph glyph-name="braceleft" unicode="{" horiz-adv-x="807" 
d="M328 656q72 -18 116 -75q27 -35 33 -73.5t6 -176.5v-237q0 -198 27 -267q35 -92 177 -92h51v-79h-82q-179 0 -244 86q-35 47 -46.5 109.5t-11.5 205.5v274q0 140 -5 176.5t-28 64.5q-41 51 -140 51h-33v66h33q99 0 140 51q23 28 28 65t5 177v170q0 142 11.5 204.5
t46.5 109.5q65 86 244 86h82v-79h-51q-126 0 -165 -68t-39 -290v-134q0 -143 -8 -184.5t-42 -78.5q-43 -45 -105 -62z" />
    <glyph glyph-name="bar" unicode="|" horiz-adv-x="1024" 
d="M450 -412v1819h123v-1819h-123z" />
    <glyph glyph-name="braceright" unicode="}" horiz-adv-x="807" 
d="M478 656q-72 19 -116 75q-27 35 -33 73.5t-6 176.5v134q0 197 -27 266q-35 92 -176 92h-51v79h82q177 0 243 -86q35 -47 46.5 -109.5t11.5 -204.5v-170q0 -141 5 -177.5t28 -64.5q42 -51 140 -51h34v-66h-34q-98 0 -140 -51q-23 -28 -28 -64.5t-5 -176.5v-274
q0 -143 -11.5 -205.5t-46.5 -109.5q-66 -86 -243 -86h-82v79h51q126 0 164.5 68t38.5 291v237q0 144 8 185t43 78q42 46 104 62z" />
    <glyph glyph-name="asciitilde" unicode="~" 
d="M244 582l-89 28q41 131 102 190.5t153 59.5q58 0 103.5 -21.5t117.5 -82.5q58 -50 84 -64.5t58 -14.5q49 0 82 38t60 124l89 -29q-31 -103 -63 -151q-64 -96 -185 -96q-58 0 -96.5 18.5t-118.5 84.5q-61 51 -88 65.5t-59 14.5q-98 0 -150 -164z" />
    <glyph glyph-name="nonbreakingspace" unicode="&#xa0;" horiz-adv-x="492" 
 />
    <glyph glyph-name="exclamdown" unicode="&#xa1;" horiz-adv-x="684" 
d="M391 606l25 -1027h-148l24 1027h99zM343 1016q42 0 72 -30.5t30 -72.5t-30 -72t-73 -30t-73 30t-30 73q0 42 30.5 72t73.5 30z" />
    <glyph glyph-name="cent" unicode="&#xa2;" 
d="M668 1392q157 -7 284 -86l-50 -104q-114 71 -234 80v-822q129 2 243 103l62 -99q-128 -103 -305 -113v-310h-98v312q-144 12 -241 92q-163 133 -163 409q0 227 107 368.5t297 165.5v194h98v-190zM570 468v806q-84 -18 -148 -74q-122 -108 -122 -336q0 -161 71.5 -266
t198.5 -130z" />
    <glyph glyph-name="sterling" unicode="&#xa3;" 
d="M433 775h286l-8 -113h-278v-546h638l-9 -116h-918l8 116h152v546h-194l8 113h188v189q0 107 18.5 173.5t63.5 122.5q112 137 350 137q155 0 317 -71l-47 -114q-123 72 -271 72q-186 0 -257 -115q-47 -76 -47 -246v-148z" />
    <glyph glyph-name="currency" unicode="&#xa4;" 
d="M144 159l-75 72l176 182q-91 118 -91 268t91 269l-176 182l75 72l175 -182q126 85 255 85q125 0 253 -85l175 182l75 -72l-176 -182q90 -121 90 -269q0 -147 -90 -268l176 -182l-75 -72l-175 182q-127 -84 -254 -84q-126 0 -254 84zM576 1004q-135 0 -220 -101
q-73 -87 -73 -222q0 -133 73 -221q84 -100 217 -100q131 0 215 100q74 88 74 222q0 135 -74 221q-85 101 -212 101z" />
    <glyph glyph-name="yen" unicode="&#xa5;" 
d="M496 0v321h-387l17 95h370v127l-8 18h-379l17 95h317l-399 751h140l382 -733l381 733h136l-402 -751h336l-17 -95h-364l-9 -18v-127h390l-17 -95h-373v-321h-131z" />
    <glyph glyph-name="brokenbar" unicode="&#xa6;" horiz-adv-x="1024" 
d="M450 889v518h123v-518h-123zM450 0v484h123v-484h-123z" />
    <glyph glyph-name="section" unicode="&#xa7;" 
d="M221 -145l57 105q133 -81 275 -81q110 0 170 46q69 54 69 155q0 89 -54 134.5t-215 91.5q-112 32 -168 58t-93 62q-69 68 -69 191q0 98 38 158.5t134 114.5q-108 79 -108 244q0 162 108 245q91 70 239 70q151 0 281 -78l-57 -104q-106 72 -217 72q-103 0 -160 -47
q-65 -54 -65 -151q0 -88 52 -134t201 -91q114 -34 167 -58.5t89 -58.5q72 -69 72 -195q0 -96 -37.5 -158t-126.5 -113q118 -77 118 -246q0 -168 -113 -249q-95 -69 -251 -69q-180 0 -336 86zM723 375q66 44 91.5 88t25.5 115q0 89 -42.5 128.5t-189.5 87.5l-166 53
q-66 -40 -93.5 -86.5t-27.5 -119.5q0 -89 47 -132q25 -22 62.5 -38.5t128.5 -44.5z" />
    <glyph glyph-name="dieresis" unicode="&#xa8;" horiz-adv-x="1024" 
d="M355 1352q38 0 65.5 -28t27.5 -67t-28 -67t-67 -28q-40 0 -67.5 28t-27.5 68q0 39 28 66.5t69 27.5zM674 1352q38 0 65.5 -28t27.5 -67t-28 -67t-67 -28q-40 0 -67.5 28t-27.5 68q0 39 28 66.5t69 27.5z" />
    <glyph glyph-name="copyright" unicode="&#xa9;" horiz-adv-x="1695" 
d="M1050 474l40 -73q-85 -53 -201 -53q-167 0 -250 100q-76 92 -76 256q0 184 86.5 288t238.5 104q101 0 193 -46l-37 -73q-82 42 -150 42q-103 0 -159 -78q-61 -83 -61 -223q0 -132 52 -210q55 -82 171 -82q88 0 153 48zM857 1452q313 0 523 -212q211 -212 211 -532
q0 -318 -211 -531q-209 -212 -534 -212q-323 0 -533 212q-211 213 -211 530q0 225 110 405q101 167 279 259q157 81 366 81zM856 1372q-298 0 -483 -201q-172 -186 -172 -464q0 -274 172 -461q184 -201 474 -201t475 201q171 187 171 462q0 281 -171 463q-191 201 -466 201z
" />
    <glyph glyph-name="ordfeminine" unicode="&#xaa;" horiz-adv-x="737" 
d="M488 1195v25q0 64 -29.5 93t-95.5 29q-86 0 -196 -75l-42 83q119 75 249 75q143 0 195 -74q19 -27 25 -59t6 -107v-377h-92l-10 63q-74 -80 -203 -80q-199 0 -199 182q0 164 208 204q58 11 184 18zM489 1117q-112 -8 -161 -19q-119 -28 -119 -124q0 -48 27 -75t75 -27
q73 0 125.5 40t52.5 95v110z" />
    <glyph glyph-name="guillemotleft" unicode="&#xab;" horiz-adv-x="799" 
d="M538 543l180 -270l-52 -41l-281 303v15l281 304l52 -41zM231 543l181 -270l-53 -41l-281 303v15l281 304l53 -41z" />
    <glyph glyph-name="logicalnot" unicode="&#xac;" 
d="M128 656v110h853v-543h-119v433h-734z" />
    <glyph glyph-name="uni00AD" unicode="&#xad;" horiz-adv-x="707" 
d="M67 587l23 114h549l-23 -114h-549z" />
    <glyph glyph-name="registered" unicode="&#xae;" horiz-adv-x="1252" 
d="M468 735v557h164q110 0 156 -33q55 -41 55 -125q0 -121 -121 -147q17 -17 41 -61l101 -191h-88l-70 134q-40 76 -52.5 90t-40.5 14h-69v-238h-76zM544 1034h72q81 0 111 21q34 24 34 78q0 56 -32 77.5t-116 21.5h-69v-198zM633 1557q220 0 374 -145q163 -155 163 -399
q0 -242 -163 -398q-153 -145 -381 -145q-227 0 -381 145q-163 155 -163 397q0 248 163 400q157 145 388 145zM633 1488q-210 0 -337 -132q-61 -64 -95.5 -154.5t-34.5 -188.5q0 -97 34.5 -187.5t95.5 -154.5q126 -132 330 -132q205 0 330 132q61 64 95.5 154.5t34.5 187.5
q0 206 -130 343q-125 132 -323 132z" />
    <glyph glyph-name="macron" unicode="&#xaf;" horiz-adv-x="1024" 
d="M254 1201v108h516v-108h-516z" />
    <glyph glyph-name="degree" unicode="&#xb0;" horiz-adv-x="558" 
d="M282 1414q93 0 155 -60q64 -61 64 -153t-63 -153t-158 -61q-96 0 -158 60q-64 62 -64 153q0 93 63 153.5t161 60.5zM281 1321q-53 0 -83 -32t-30 -89q0 -56 30 -88t81 -32q52 0 82 32.5t30 88.5q0 55 -30 87.5t-80 32.5z" />
    <glyph glyph-name="plusminus" unicode="&#xb1;" 
d="M117 608l8 109h397v432h120v-432h406l-10 -109h-396v-404h-120v404h-405zM117 0l10 109h903l-10 -109h-903z" />
    <glyph glyph-name="twosuperior" unicode="&#xb2;" horiz-adv-x="737" 
d="M82 762v79l283 297q81 85 115.5 144t34.5 114q0 70 -44.5 110.5t-122.5 40.5q-106 0 -219 -88l-55 78q75 51 137.5 71.5t142.5 20.5q133 0 203.5 -59.5t70.5 -170.5q0 -75 -37 -143t-132 -166l-236 -244h426v-84h-567z" />
    <glyph glyph-name="threesuperior" unicode="&#xb3;" horiz-adv-x="737" 
d="M262 1172v81h35q80 0 130 38q66 49 66 125q0 62 -41.5 96.5t-114.5 34.5q-99 0 -213 -79l-50 74q118 87 269 87q132 0 203 -61q60 -50 60 -145q0 -141 -134 -197q173 -43 173 -217q0 -125 -87 -194t-245 -69q-152 0 -261 73l53 79q62 -41 104 -55.5t96 -14.5
q107 0 167 47t60 131q0 166 -220 166h-50z" />
    <glyph glyph-name="acute" unicode="&#xb4;" horiz-adv-x="1024" 
d="M418 1126l156 257h190l-241 -257h-105z" />
    <glyph glyph-name="mu" unicode="&#xb5;" horiz-adv-x="1139" 
d="M184 -477v1462h129v-670q0 -118 29 -168q38 -64 141 -64q170 0 339 195v707h129v-985h-109l-17 142q-179 -171 -354 -171q-89 0 -158 40v-451z" />
    <glyph glyph-name="paragraph" unicode="&#xb6;" horiz-adv-x="1341" 
d="M594 -377v1082h-91q-87 0 -122 7t-80 32q-90 51 -133 150q-33 77 -33 165q0 111 48.5 196t131.5 121q52 22 99 26.5t229 4.5h364v-1784h-120v1669h-173v-1669h-120z" />
    <glyph glyph-name="glyph121" unicode="&#xb7;" horiz-adv-x="573" 
d="M289 737q41 0 71 -30t30 -72q0 -43 -30 -73t-73 -30t-73 30t-30 74q0 42 30.5 71.5t74.5 29.5z" />
    <glyph glyph-name="cedilla" unicode="&#xb8;" horiz-adv-x="1024" 
d="M514 20h92l-106 -153q133 -11 186.5 -47.5t53.5 -117.5q0 -185 -239 -185q-108 0 -209 39l34 75q77 -33 157 -33q122 0 122 104q0 52 -46 72.5t-165 20.5l-10 30z" />
    <glyph glyph-name="onesuperior" unicode="&#xb9;" horiz-adv-x="737" 
d="M352 762v745l-154 -45l-27 81l201 69h91v-850h-111z" />
    <glyph glyph-name="ordmasculine" unicode="&#xba;" horiz-adv-x="737" 
d="M369 1425q141 0 212 -86q69 -84 69 -230q0 -153 -73 -235t-209 -82q-141 0 -211 86q-69 84 -69 235q0 149 73.5 230.5t207.5 81.5zM369 1342q-78 0 -122.5 -61t-44.5 -170q0 -113 43.5 -174.5t124.5 -61.5q78 0 122 61.5t44 171.5q0 111 -44 172.5t-123 61.5z" />
    <glyph glyph-name="guillemotright" unicode="&#xbb;" horiz-adv-x="799" 
d="M261 543l-180 270l52 41l281 -303v-16l-281 -303l-52 41zM568 543l-181 270l53 41l281 -303v-16l-281 -303l-53 41z" />
    <glyph glyph-name="onequarter" unicode="&#xbc;" horiz-adv-x="1720" 
d="M320 557v749l-155 -45l-27 77l201 69h91v-850h-110zM1317 233h-394v74l397 543h107v-535h127l-9 -82h-118v-233h-110v233zM1320 313v407l-292 -407h292zM355 0l719 1407h109l-719 -1407h-109z" />
    <glyph glyph-name="onehalf" unicode="&#xbd;" horiz-adv-x="1720" 
d="M318 557v749l-155 -45l-27 77l201 69h91v-850h-110zM979 0v75l283 299q78 82 113.5 143.5t35.5 116.5q0 70 -44 110t-121 40q-105 0 -220 -84l-55 75q74 50 138 71t144 21q147 0 217 -74q54 -56 54 -156q0 -76 -38 -145t-129 -164l-240 -246h428v-82h-566zM329 0
l719 1407h109l-718 -1407h-110z" />
    <glyph glyph-name="threequarters" unicode="&#xbe;" horiz-adv-x="1720" 
d="M290 967v81h34q80 0 131 37q65 49 65 125q0 62 -42 96.5t-116 34.5q-54 0 -98.5 -15t-117.5 -57l-47 76q118 78 270 78q134 0 204 -60q60 -50 60 -145q0 -142 -136 -199q92 -25 133.5 -76.5t41.5 -139.5q0 -125 -87 -193.5t-247 -68.5q-147 0 -258 65l44 83
q70 -40 110.5 -53t95.5 -13q109 0 169 46.5t60 130.5q0 167 -219 167h-50zM1376 233h-394v74l398 543h106v-535h127l-8 -82h-119v-233h-110v233zM1379 313v407l-291 -407h291zM470 0l719 1407h109l-718 -1407h-110z" />
    <glyph glyph-name="questiondown" unicode="&#xbf;" horiz-adv-x="921" 
d="M452 609h113v-102q0 -107 -26.5 -157t-144.5 -168q-98 -97 -133.5 -161t-35.5 -143q0 -218 246 -218q171 0 325 105l54 -102q-172 -112 -392 -112q-188 0 -284 90q-83 77 -83 216q0 98 41.5 175.5t155.5 191.5q121 122 142.5 160.5t21.5 135.5v89zM503 1016q43 0 73 -30
t30 -74q0 -42 -30.5 -71.5t-74.5 -29.5q-41 0 -71 30t-30 72q0 43 30 73t73 30z" />
    <glyph glyph-name="Agrave" unicode="&#xc0;" horiz-adv-x="1292" 
d="M957 462h-627l-187 -462h-138l580 1407h122l581 -1407h-143zM913 574l-270 664l-269 -664h539zM763 1528h-104l-242 257h190z" />
    <glyph glyph-name="Aacute" unicode="&#xc1;" horiz-adv-x="1292" 
d="M957 462h-627l-187 -462h-138l580 1407h122l581 -1407h-143zM913 574l-270 664l-269 -664h539zM539 1528l156 257h191l-242 -257h-105z" />
    <glyph glyph-name="Acircumflex" unicode="&#xc2;" horiz-adv-x="1292" 
d="M957 462h-627l-187 -462h-138l580 1407h122l581 -1407h-143zM913 574l-270 664l-269 -664h539zM646 1686l-189 -158h-120l225 257h168l227 -257h-121z" />
    <glyph glyph-name="Atilde" unicode="&#xc3;" horiz-adv-x="1292" 
d="M957 462h-627l-187 -462h-138l580 1407h122l581 -1407h-143zM913 574l-270 664l-269 -664h539zM881 1768h88q-44 -237 -207 -237q-40 0 -73.5 16.5t-80.5 59.5q-67 61 -103 61q-55 0 -94 -121h-87q51 235 210 235q75 0 153 -74q40 -38 60 -50.5t41 -12.5q58 0 93 123z
" />
    <glyph glyph-name="Adieresis" unicode="&#xc4;" horiz-adv-x="1292" 
d="M957 462h-627l-187 -462h-138l580 1407h122l581 -1407h-143zM913 574l-270 664l-269 -664h539zM459 1755q38 0 65.5 -28t27.5 -67t-28 -67t-67 -28t-67 28t-28 68t28 67t69 27zM838 1755q38 0 65.5 -28t27.5 -67t-28 -67t-67 -28t-67 28t-28 68t28 67t69 27z" />
    <glyph glyph-name="Aring" unicode="&#xc5;" horiz-adv-x="1292" 
d="M957 462h-627l-187 -462h-138l580 1407h122l581 -1407h-143zM913 574l-270 664l-269 -664h539zM646 1852q82 0 131.5 -49.5t49.5 -132.5q0 -84 -49.5 -133t-133.5 -49q-85 0 -134.5 49t-49.5 133t49.5 133t136.5 49zM645 1786q-50 0 -78 -30.5t-28 -85.5q0 -54 28 -85
t77 -31q48 0 76 31t28 85t-27.5 85t-75.5 31z" />
    <glyph glyph-name="AE" unicode="&#xc6;" horiz-adv-x="1759" 
d="M858 455h-499l-253 -455h-152l803 1407h891l-9 -115h-650v-481h556l-9 -114h-547v-582h685l-12 -115h-804v455zM858 570v721h-36l-400 -721h436z" />
    <glyph glyph-name="Ccedilla" unicode="&#xc7;" horiz-adv-x="1097" 
d="M981 182l65 -103q-137 -108 -345 -108q-8 0 -30 1l-73 -105q134 -11 187.5 -47.5t53.5 -117.5q0 -185 -239 -185q-109 0 -209 39l34 75q76 -33 157 -33q122 0 122 104q0 52 -46.5 72.5t-164.5 20.5l-10 30l102 155q-165 25 -273 116q-208 174 -208 583q0 252 81 432
q146 325 522 325q189 0 331 -90l-56 -108q-122 83 -274 83q-231 0 -344 -162q-123 -177 -123 -469q0 -275 105 -435q112 -169 352 -169q171 0 283 96z" />
    <glyph glyph-name="Egrave" unicode="&#xc8;" horiz-adv-x="1115" 
d="M199 0v1407h805l-8 -115h-666v-481h572l-9 -114h-563v-582h700l-11 -115h-820zM720 1528h-105l-242 257h191z" />
    <glyph glyph-name="Eacute" unicode="&#xc9;" horiz-adv-x="1115" 
d="M199 0v1407h805l-8 -115h-666v-481h572l-9 -114h-563v-582h700l-11 -115h-820zM536 1528l156 257h190l-241 -257h-105z" />
    <glyph glyph-name="Ecircumflex" unicode="&#xca;" horiz-adv-x="1115" 
d="M199 0v1407h805l-8 -115h-666v-481h572l-9 -114h-563v-582h700l-11 -115h-820zM607 1686l-189 -158h-121l227 257h167l226 -257h-120z" />
    <glyph glyph-name="Edieresis" unicode="&#xcb;" horiz-adv-x="1115" 
d="M199 0v1407h805l-8 -115h-666v-481h572l-9 -114h-563v-582h700l-11 -115h-820zM422 1755q38 0 65.5 -28t27.5 -67t-28 -67t-67 -28t-67 28t-28 68t28 67t69 27zM801 1755q38 0 65.5 -28t27.5 -67t-28 -67t-67 -28t-67 28t-28 68t28 67t69 27z" />
    <glyph glyph-name="Igrave" unicode="&#xcc;" horiz-adv-x="548" 
d="M209 0v1407h131v-1407h-131zM380 1528h-104l-242 257h190z" />
    <glyph glyph-name="Iacute" unicode="&#xcd;" horiz-adv-x="548" 
d="M208 0v1407h131v-1407h-131zM177 1528l156 257h190l-241 -257h-105z" />
    <glyph glyph-name="Icircumflex" unicode="&#xce;" horiz-adv-x="548" 
d="M209 0v1407h131v-1407h-131zM274 1686l-189 -158h-121l226 257h167l227 -257h-121z" />
    <glyph glyph-name="Idieresis" unicode="&#xcf;" horiz-adv-x="549" 
d="M209 0v1407h131v-1407h-131zM87 1755q38 0 65.5 -28t27.5 -67t-28 -67t-67 -28t-67 28t-28 68t28 67t69 27zM466 1755q38 0 65.5 -28t27.5 -67t-28 -67t-67 -28t-67 28t-28 68t28 67t69 27z" />
    <glyph glyph-name="Eth" unicode="&#xd0;" horiz-adv-x="1314" 
d="M199 662h-165l9 113h156v632h344q317 0 471 -138q94 -84 145 -230t51 -330q0 -229 -79 -401q-72 -158 -219.5 -233t-385.5 -75h-327v662zM330 662v-547h177q278 0 407 119q92 85 132 245q27 111 27 234q0 217 -83 375q-80 152 -266 186q-93 17 -236 17h-158v-516h448
l-9 -113h-439z" />
    <glyph glyph-name="Ntilde" unicode="&#xd1;" horiz-adv-x="1443" 
d="M198 0v1407h135l784 -1179v1179h128v-1407h-120l-799 1196v-1196h-128zM974 1768h87q-42 -237 -206 -237q-41 0 -74 16.5t-81 59.5q-67 61 -103 61q-55 0 -93 -121h-87q50 235 209 235q76 0 153 -74q41 -38 60.5 -50.5t40.5 -12.5q59 0 94 123z" />
    <glyph glyph-name="Ograve" unicode="&#xd2;" horiz-adv-x="1391" 
d="M705 1436q192 0 329 -99q148 -107 211 -323q41 -140 41 -311q0 -313 -135 -516q-144 -216 -456 -216t-455 216q-136 203 -136 513q0 320 136 517q150 219 465 219zM703 1321q-248 0 -363 -183q-99 -157 -99 -438q0 -273 99 -435q110 -179 355 -179t355 179q99 163 99 438
q0 278 -99 435q-60 94 -159 141q-88 42 -188 42zM812 1528h-105l-241 257h190z" />
    <glyph glyph-name="Oacute" unicode="&#xd3;" horiz-adv-x="1391" 
d="M705 1436q192 0 329 -99q148 -107 211 -323q41 -140 41 -311q0 -313 -135 -516q-144 -216 -456 -216t-455 216q-136 203 -136 513q0 320 136 517q150 219 465 219zM703 1321q-248 0 -363 -183q-99 -157 -99 -438q0 -273 99 -435q110 -179 355 -179t355 179q99 163 99 438
q0 278 -99 435q-60 94 -159 141q-88 42 -188 42zM588 1528l156 257h190l-241 -257h-105z" />
    <glyph glyph-name="Ocircumflex" unicode="&#xd4;" horiz-adv-x="1391" 
d="M705 1436q192 0 329 -99q148 -107 211 -323q41 -140 41 -311q0 -313 -135 -516q-144 -216 -456 -216t-455 216q-136 203 -136 513q0 320 136 517q150 219 465 219zM703 1321q-248 0 -363 -183q-99 -157 -99 -438q0 -273 99 -435q110 -179 355 -179t355 179q99 163 99 438
q0 278 -99 435q-60 94 -159 141q-88 42 -188 42zM695 1686l-189 -158h-121l226 257h168l226 -257h-121z" />
    <glyph glyph-name="Otilde" unicode="&#xd5;" horiz-adv-x="1391" 
d="M705 1436q192 0 329 -99q148 -107 211 -323q41 -140 41 -311q0 -313 -135 -516q-144 -216 -456 -216t-455 216q-136 203 -136 513q0 320 136 517q150 219 465 219zM703 1321q-248 0 -363 -183q-99 -157 -99 -438q0 -273 99 -435q110 -179 355 -179t355 179q99 163 99 438
q0 278 -99 435q-60 94 -159 141q-88 42 -188 42zM930 1768h88q-44 -237 -207 -237q-40 0 -73.5 16.5t-81.5 59.5q-67 61 -103 61q-54 0 -93 -121h-87q23 113 77.5 174t131.5 61q76 0 154 -74q40 -39 59.5 -51t40.5 -12q60 0 94 123z" />
    <glyph glyph-name="Odieresis" unicode="&#xd6;" horiz-adv-x="1391" 
d="M705 1436q192 0 329 -99q148 -107 211 -323q41 -140 41 -311q0 -313 -135 -516q-144 -216 -456 -216t-455 216q-136 203 -136 513q0 320 136 517q150 219 465 219zM703 1321q-248 0 -363 -183q-99 -157 -99 -438q0 -273 99 -435q110 -179 355 -179t355 179q99 163 99 438
q0 278 -99 435q-60 94 -159 141q-88 42 -188 42zM508 1755q38 0 65.5 -28t27.5 -67t-28 -67t-67 -28q-40 0 -67.5 28t-27.5 68t28 67t69 27zM887 1755q38 0 65.5 -28t27.5 -67t-28 -67t-67 -28t-67 28t-28 68t28 67t69 27z" />
    <glyph glyph-name="multiply" unicode="&#xd7;" 
d="M488 702l-290 291l83 82l290 -291l292 293l83 -82l-292 -292l290 -290l-83 -82l-290 290l-288 -288l-83 82z" />
    <glyph glyph-name="Oslash" unicode="&#xd8;" horiz-adv-x="1391" 
d="M220 215q-118 202 -118 487q0 315 136 515q148 219 455 219q243 0 393 -144l115 143l88 -71l-130 -163q126 -203 126 -496q0 -315 -136 -518q-144 -216 -459 -216q-132 0 -226.5 35.5t-170.5 113.5l-102 -128l-91 73zM309 325l697 868q-119 128 -315 128q-156 0 -267 -87
q-185 -146 -185 -532q0 -227 70 -377zM373 219q117 -133 318 -133q457 0 457 621q0 227 -76 385z" />
    <glyph glyph-name="Ugrave" unicode="&#xd9;" horiz-adv-x="1332" 
d="M192 1407h131v-848q0 -257 50 -346q72 -127 293 -127q239 0 305 151q38 88 38 322v848h131v-895q0 -239 -59 -349q-101 -192 -415 -192q-337 0 -430 223q-44 104 -44 318v895zM782 1528h-105l-241 257h190z" />
    <glyph glyph-name="Uacute" unicode="&#xda;" horiz-adv-x="1332" 
d="M192 1407h131v-848q0 -257 50 -346q72 -127 293 -127q239 0 305 151q38 88 38 322v848h131v-895q0 -239 -59 -349q-101 -192 -415 -192q-337 0 -430 223q-44 104 -44 318v895zM577 1528l156 257h191l-242 -257h-105z" />
    <glyph glyph-name="Ucircumflex" unicode="&#xdb;" horiz-adv-x="1332" 
d="M192 1407h131v-848q0 -257 50 -346q72 -127 293 -127q239 0 305 151q38 88 38 322v848h131v-895q0 -239 -59 -349q-101 -192 -415 -192q-337 0 -430 223q-44 104 -44 318v895zM665 1686l-189 -158h-120l226 257h167l227 -257h-121z" />
    <glyph glyph-name="Udieresis" unicode="&#xdc;" horiz-adv-x="1332" 
d="M192 1407h131v-848q0 -257 50 -346q72 -127 293 -127q239 0 305 151q38 88 38 322v848h131v-895q0 -239 -59 -349q-101 -192 -415 -192q-337 0 -430 223q-44 104 -44 318v895zM479 1755q38 0 65.5 -28t27.5 -67t-28 -67t-67 -28t-67 28t-28 68t28 67t69 27zM858 1755
q38 0 65.5 -28t27.5 -67t-28 -67t-67 -28t-67 28t-28 68t28 67t69 27z" />
    <glyph glyph-name="Yacute" unicode="&#xdd;" horiz-adv-x="1087" 
d="M476 0v555l-457 852h142l385 -733l384 733h137l-460 -852v-555h-131zM449 1528l156 257h190l-241 -257h-105z" />
    <glyph glyph-name="Thorn" unicode="&#xde;" horiz-adv-x="1149" 
d="M199 0v1407h131v-229h226q255 0 368 -93q133 -109 133 -328q0 -247 -159 -350q-114 -74 -345 -74h-223v-333h-131zM330 449h183q237 0 318 74q89 81 89 231q0 78 -28 145t-75 102q-83 61 -297 61h-190v-613z" />
    <glyph glyph-name="germandbls" unicode="&#xdf;" horiz-adv-x="1133" 
d="M187 0v917q0 191 21 267q72 262 382 262q166 0 258 -72t92 -203q0 -79 -33 -130.5t-127 -117.5q-61 -43 -79.5 -69t-18.5 -69q0 -63 52 -106q17 -14 130 -76q120 -67 170 -135q50 -70 50 -180q0 -154 -79 -231q-81 -80 -232 -80q-152 0 -270 48l32 112q114 -50 237 -50
q100 0 143 52q42 52 42 133q0 74 -35 122.5t-121 93.5q-88 46 -118.5 65.5t-59.5 49.5q-70 68 -70 170q0 71 32.5 121.5t112.5 102.5q71 47 91 75q26 39 26 99q0 82 -53 119q-66 46 -176 46q-192 0 -241 -149q-30 -90 -30 -313v-874h-128z" />
    <glyph glyph-name="agrave" unicode="&#xe0;" horiz-adv-x="1021" 
d="M711 630v52q0 105 -35 154q-48 68 -182 68q-159 0 -305 -112l-56 101q170 121 370 121q219 0 296 -129q27 -44 35 -94.5t8 -168.5v-622h-105l-22 118q-100 -147 -328 -147q-296 0 -296 292q0 147 90 232q67 63 168 90t330 42zM712 525q-189 -15 -269 -32
q-218 -46 -218 -227q0 -186 183 -186q145 0 244 97q34 32 47 64t13 81v203zM623 1126h-105l-241 257h190z" />
    <glyph glyph-name="aacute" unicode="&#xe1;" horiz-adv-x="1021" 
d="M711 630v52q0 105 -35 154q-48 68 -182 68q-159 0 -305 -112l-56 101q170 121 370 121q219 0 296 -129q27 -44 35 -94.5t8 -168.5v-622h-105l-22 118q-100 -147 -328 -147q-296 0 -296 292q0 147 90 232q67 63 168 90t330 42zM712 525q-189 -15 -269 -32
q-218 -46 -218 -227q0 -186 183 -186q145 0 244 97q34 32 47 64t13 81v203zM415 1126l156 257h190l-241 -257h-105z" />
    <glyph glyph-name="acircumflex" unicode="&#xe2;" horiz-adv-x="1021" 
d="M711 630v52q0 105 -35 154q-48 68 -182 68q-159 0 -305 -112l-56 101q170 121 370 121q219 0 296 -129q27 -44 35 -94.5t8 -168.5v-622h-105l-22 118q-100 -147 -328 -147q-296 0 -296 292q0 147 90 232q67 63 168 90t330 42zM712 525q-189 -15 -269 -32
q-218 -46 -218 -227q0 -186 183 -186q145 0 244 97q34 32 47 64t13 81v203zM489 1284l-189 -158h-121l226 257h168l226 -257h-120z" />
    <glyph glyph-name="atilde" unicode="&#xe3;" horiz-adv-x="1021" 
d="M711 630v52q0 105 -35 154q-48 68 -182 68q-159 0 -305 -112l-56 101q170 121 370 121q219 0 296 -129q27 -44 35 -94.5t8 -168.5v-622h-105l-22 118q-100 -147 -328 -147q-296 0 -296 292q0 147 90 232q67 63 168 90t330 42zM712 525q-189 -15 -269 -32
q-218 -46 -218 -227q0 -186 183 -186q145 0 244 97q34 32 47 64t13 81v203zM730 1362h87q-42 -237 -206 -237q-41 0 -74 16.5t-81 59.5q-67 61 -103 61q-56 0 -93 -121h-88q25 114 78.5 174.5t130.5 60.5t154 -74q41 -38 60.5 -50.5t40.5 -12.5q59 0 94 123z" />
    <glyph glyph-name="adieresis" unicode="&#xe4;" horiz-adv-x="1021" 
d="M711 630v52q0 105 -35 154q-48 68 -182 68q-159 0 -305 -112l-56 101q170 121 370 121q219 0 296 -129q27 -44 35 -94.5t8 -168.5v-622h-105l-22 118q-100 -147 -328 -147q-296 0 -296 292q0 147 90 232q67 63 168 90t330 42zM712 525q-189 -15 -269 -32
q-218 -46 -218 -227q0 -186 183 -186q145 0 244 97q34 32 47 64t13 81v203zM354 1352q38 0 65.5 -28t27.5 -67t-28 -67t-67 -28q-40 0 -67.5 28t-27.5 68q0 39 28 66.5t69 27.5zM673 1352q38 0 65.5 -28t27.5 -67t-28 -67t-67 -28q-40 0 -67.5 28t-27.5 68q0 39 28 66.5
t69 27.5z" />
    <glyph glyph-name="aring" unicode="&#xe5;" horiz-adv-x="1021" 
d="M711 630v52q0 105 -35 154q-48 68 -182 68q-159 0 -305 -112l-56 101q170 121 370 121q219 0 296 -129q27 -44 35 -94.5t8 -168.5v-622h-105l-22 118q-100 -147 -328 -147q-296 0 -296 292q0 147 90 232q67 63 168 90t330 42zM712 525q-189 -15 -269 -32
q-218 -46 -218 -227q0 -186 183 -186q145 0 244 97q34 32 47 64t13 81v203zM513 1469q82 0 131.5 -49.5t49.5 -132.5t-49.5 -132t-133.5 -49q-85 0 -134.5 49t-49.5 132q0 84 50 133t136 49zM512 1403q-50 0 -78 -30.5t-28 -85.5q0 -54 28 -84.5t76 -30.5q49 0 77 30.5
t28 85.5q0 53 -27.5 84t-75.5 31z" />
    <glyph glyph-name="ae" unicode="&#xe6;" horiz-adv-x="1629" 
d="M792 181q-121 -210 -403 -210q-144 0 -215 64q-80 74 -80 217q0 126 77.5 202t238.5 107q87 16 228 24q57 3 76 5v91q0 121 -50 172t-170 51q-155 0 -301 -112l-57 101q171 121 367 121q241 0 307 -177q112 177 326 177q188 0 293.5 -130t105.5 -362q0 -23 -2 -45h-691
q1 -121 42 -218q40 -94 113 -136q75 -42 197 -42q141 0 261 102l61 -98q-140 -114 -345 -114q-271 0 -379 210zM715 484q-189 -12 -269 -27q-218 -41 -218 -204q0 -84 46.5 -128t135.5 -44q146 0 245 96q35 33 47.5 64t12.5 81v162zM1399 583q-26 321 -266 321
q-251 0 -285 -321h551z" />
    <glyph glyph-name="ccedilla" unicode="&#xe7;" horiz-adv-x="913" 
d="M801 185l62 -99q-137 -111 -319 -114l-72 -105q133 -11 186.5 -47.5t53.5 -116.5q0 -186 -239 -186q-108 0 -209 39l34 75q77 -33 157 -33q122 0 122 104q0 52 -46 72.5t-165 20.5l-10 30l101 152q-127 18 -209 89q-152 133 -152 410q0 265 137 416q112 122 312 122
q161 0 297 -86l-50 -105q-122 81 -247 81q-147 0 -225 -103q-90 -119 -90 -317q0 -167 72 -276q83 -127 254 -127q132 0 245 104z" />
    <glyph glyph-name="egrave" unicode="&#xe8;" horiz-adv-x="1014" 
d="M918 477h-691q1 -121 42 -219q40 -94 113 -135q75 -43 198 -43q140 0 260 103l61 -98q-141 -114 -345 -114q-227 0 -343 137q-117 138 -117 378q0 234 103 377q109 151 323 151q187 0 292.5 -130t105.5 -362q0 -22 -2 -45zM785 583q-23 321 -267 321q-251 0 -285 -321
h552zM640 1126h-104l-242 257h190z" />
    <glyph glyph-name="eacute" unicode="&#xe9;" horiz-adv-x="1014" 
d="M918 477h-691q1 -121 42 -219q40 -94 113 -135q75 -43 198 -43q140 0 260 103l61 -98q-141 -114 -345 -114q-227 0 -343 137q-117 138 -117 378q0 234 103 377q109 151 323 151q187 0 292.5 -130t105.5 -362q0 -22 -2 -45zM785 583q-23 321 -267 321q-251 0 -285 -321
h552zM431 1126l155 257h191l-242 -257h-104z" />
    <glyph glyph-name="ecircumflex" unicode="&#xea;" horiz-adv-x="1014" 
d="M918 477h-691q1 -121 42 -219q40 -94 113 -135q75 -43 198 -43q140 0 260 103l61 -98q-141 -114 -345 -114q-227 0 -343 137q-117 138 -117 378q0 234 103 377q109 151 323 151q187 0 292.5 -130t105.5 -362q0 -22 -2 -45zM785 583q-23 321 -267 321q-251 0 -285 -321
h552zM530 1284l-189 -158h-121l226 257h168l226 -257h-121z" />
    <glyph glyph-name="edieresis" unicode="&#xeb;" horiz-adv-x="1014" 
d="M918 477h-691q1 -121 42 -219q40 -94 113 -135q75 -43 198 -43q140 0 260 103l61 -98q-141 -114 -345 -114q-227 0 -343 137q-117 138 -117 378q0 234 103 377q109 151 323 151q187 0 292.5 -130t105.5 -362q0 -22 -2 -45zM785 583q-23 321 -267 321q-251 0 -285 -321
h552zM375 1352q38 0 65.5 -28t27.5 -67t-28 -67t-67 -28q-40 0 -67.5 28t-27.5 68q0 39 28 66.5t69 27.5zM695 1352q38 0 65.5 -28t27.5 -67t-28 -67t-67 -28q-40 0 -67.5 28t-27.5 68q0 39 28 66.5t69 27.5z" />
    <glyph glyph-name="igrave" unicode="&#xec;" horiz-adv-x="528" 
d="M199 0v985h129v-985h-129zM375 1126h-104l-242 257h190z" />
    <glyph glyph-name="iacute" unicode="&#xed;" horiz-adv-x="528" 
d="M200 0v985h129v-985h-129zM162 1126l156 257h190l-241 -257h-105z" />
    <glyph glyph-name="icircumflex" unicode="&#xee;" horiz-adv-x="528" 
d="M199 0v985h129v-985h-129zM264 1284l-189 -158h-121l226 257h167l227 -257h-121z" />
    <glyph glyph-name="idieresis" unicode="&#xef;" horiz-adv-x="528" 
d="M200 0v985h129v-985h-129zM107 1352q38 0 65.5 -28t27.5 -67t-28 -67t-67 -28q-40 0 -67.5 28t-27.5 68q0 39 28 66.5t69 27.5zM426 1352q38 0 65.5 -28t27.5 -67t-28 -67t-67 -28q-40 0 -67.5 28t-27.5 68q0 39 28 66.5t69 27.5z" />
    <glyph glyph-name="eth" unicode="&#xf0;" horiz-adv-x="1080" 
d="M718 968q-62 137 -160 235l-230 -101l-36 86l180 79q-95 56 -239 80l19 86q193 -18 338 -115l177 77l38 -86l-131 -56q139 -132 225 -340.5t86 -415.5q0 -223 -94 -358q-117 -167 -350 -167q-229 0 -343 154q-102 137 -102 367q0 239 111 377q115 144 324 144
q89 0 187 -46zM546 904q-316 0 -316 -418q0 -166 65 -276q76 -128 245 -128q173 0 249 133q62 108 62 274q0 172 -60 279q-76 136 -245 136z" />
    <glyph glyph-name="ntilde" unicode="&#xf1;" horiz-adv-x="1161" 
d="M187 0v985h110l17 -160q61 59 109 95q122 94 269 94q101 0 171 -41.5t96 -117.5q23 -69 23 -245v-610h-129v663q0 123 -30 173q-39 65 -149 65q-174 0 -358 -210v-691h-129zM822 1362h88q-42 -237 -207 -237q-41 0 -74 16.5t-81 59.5q-67 61 -103 61q-55 0 -93 -121h-87
q50 235 209 235q76 0 154 -74q40 -38 59.5 -50.5t40.5 -12.5q59 0 94 123z" />
    <glyph glyph-name="ograve" unicode="&#xf2;" horiz-adv-x="1083" 
d="M549 1014q210 0 327 -145q112 -139 112 -377q0 -236 -112 -376q-116 -145 -334 -145t-334 145q-112 140 -112 375q0 239 112 378q116 145 341 145zM547 904q-179 0 -255 -137q-62 -113 -62 -275q0 -160 62 -274q74 -137 250 -137t250 137q62 114 62 275q0 163 -62 274
q-76 137 -245 137zM658 1126h-105l-241 257h190z" />
    <glyph glyph-name="oacute" unicode="&#xf3;" horiz-adv-x="1083" 
d="M549 1014q210 0 327 -145q112 -139 112 -377q0 -236 -112 -376q-116 -145 -334 -145t-334 145q-112 140 -112 375q0 239 112 378q116 145 341 145zM547 904q-179 0 -255 -137q-62 -113 -62 -275q0 -160 62 -274q74 -137 250 -137t250 137q62 114 62 275q0 163 -62 274
q-76 137 -245 137zM443 1126l156 257h190l-242 -257h-104z" />
    <glyph glyph-name="ocircumflex" unicode="&#xf4;" horiz-adv-x="1083" 
d="M549 1014q210 0 327 -145q112 -139 112 -377q0 -236 -112 -376q-116 -145 -334 -145t-334 145q-112 140 -112 375q0 239 112 378q116 145 341 145zM547 904q-179 0 -255 -137q-62 -113 -62 -275q0 -160 62 -274q74 -137 250 -137t250 137q62 114 62 275q0 163 -62 274
q-76 137 -245 137zM542 1284l-189 -158h-121l226 257h167l227 -257h-121z" />
    <glyph glyph-name="otilde" unicode="&#xf5;" horiz-adv-x="1083" 
d="M549 1014q210 0 327 -145q112 -139 112 -377q0 -236 -112 -376q-116 -145 -334 -145t-334 145q-112 140 -112 375q0 239 112 378q116 145 341 145zM547 904q-179 0 -255 -137q-62 -113 -62 -275q0 -160 62 -274q74 -137 250 -137t250 137q62 114 62 275q0 163 -62 274
q-76 137 -245 137zM788 1362h87q-42 -237 -206 -237q-41 0 -74.5 16.5t-80.5 59.5q-67 61 -103 61q-56 0 -93 -121h-88q25 114 78.5 174.5t130.5 60.5t154 -74q41 -38 60.5 -50.5t40.5 -12.5q58 0 94 123z" />
    <glyph glyph-name="odieresis" unicode="&#xf6;" horiz-adv-x="1083" 
d="M549 1014q210 0 327 -145q112 -139 112 -377q0 -236 -112 -376q-116 -145 -334 -145t-334 145q-112 140 -112 375q0 239 112 378q116 145 341 145zM547 904q-179 0 -255 -137q-62 -113 -62 -275q0 -160 62 -274q74 -137 250 -137t250 137q62 114 62 275q0 163 -62 274
q-76 137 -245 137zM385 1352q38 0 65.5 -28t27.5 -67t-28 -67t-67 -28q-40 0 -67.5 28t-27.5 68q0 39 28 66.5t69 27.5zM704 1352q38 0 65.5 -28t27.5 -67t-28 -67t-67 -28q-40 0 -67.5 28t-27.5 68q0 39 28 66.5t69 27.5z" />
    <glyph glyph-name="divide" unicode="&#xf7;" 
d="M576 1081q39 0 67.5 -28.5t28.5 -67.5q0 -40 -28.5 -68.5t-68.5 -28.5q-41 0 -69.5 28.5t-28.5 68.5t29 68t70 28zM117 650l10 109h903l-10 -109h-903zM576 522q39 0 67.5 -28.5t28.5 -67.5q0 -41 -28.5 -69t-68.5 -28q-42 0 -70 28t-28 69q0 40 29 68t70 28z" />
    <glyph glyph-name="oslash" unicode="&#xf8;" horiz-adv-x="1083" 
d="M180 156q-83 139 -83 338q0 236 112 375q116 145 333 145q168 0 288 -97l99 116l82 -72l-108 -128q86 -136 86 -341q0 -236 -112 -376q-116 -145 -332 -145q-180 0 -293 100l-97 -114l-84 72zM272 264l478 561q-77 79 -209 79q-172 0 -248 -136q-62 -114 -62 -278
q0 -118 41 -226zM811 727l-479 -563q80 -83 212 -83q175 0 249 137q62 114 62 276q0 128 -44 233z" />
    <glyph glyph-name="ugrave" unicode="&#xf9;" horiz-adv-x="1131" 
d="M820 130q-91 -84 -175 -121.5t-181 -37.5q-209 0 -262 159q-23 69 -23 244v611h129v-663q0 -124 30 -175q38 -64 144 -64q176 0 332 175v727h129v-985h-103zM681 1126h-104l-242 257h190z" />
    <glyph glyph-name="uacute" unicode="&#xfa;" horiz-adv-x="1131" 
d="M820 130q-91 -84 -175 -121.5t-181 -37.5q-209 0 -262 159q-23 69 -23 244v611h129v-663q0 -124 30 -175q38 -64 144 -64q176 0 332 175v727h129v-985h-103zM494 1126l156 257h191l-242 -257h-105z" />
    <glyph glyph-name="ucircumflex" unicode="&#xfb;" horiz-adv-x="1131" 
d="M820 130q-91 -84 -175 -121.5t-181 -37.5q-209 0 -262 159q-23 69 -23 244v611h129v-663q0 -124 30 -175q38 -64 144 -64q176 0 332 175v727h129v-985h-103zM565 1284l-189 -158h-121l226 257h168l226 -257h-120z" />
    <glyph glyph-name="udieresis" unicode="&#xfc;" horiz-adv-x="1131" 
d="M820 130q-91 -84 -175 -121.5t-181 -37.5q-209 0 -262 159q-23 69 -23 244v611h129v-663q0 -124 30 -175q38 -64 144 -64q176 0 332 175v727h129v-985h-103zM408 1352q38 0 65.5 -28t27.5 -67t-28 -67t-67 -28q-40 0 -67.5 28t-27.5 68q0 39 28 66.5t69 27.5zM728 1352
q38 0 65.5 -28t27.5 -67t-28 -67t-67 -28q-40 0 -67.5 28t-27.5 68q0 39 28 66.5t69 27.5z" />
    <glyph glyph-name="yacute" unicode="&#xfd;" horiz-adv-x="917" 
d="M398 -3l-366 988h141l295 -835l321 835h132l-582 -1459l-123 51zM400 1126l156 257h191l-242 -257h-105z" />
    <glyph glyph-name="thorn" unicode="&#xfe;" horiz-adv-x="1122" 
d="M200 -476v1927l129 27v-609q128 145 311 145q140 0 233 -80q141 -121 141 -417q0 -224 -97 -369q-59 -89 -159 -135q-88 -42 -189 -42q-141 0 -240 58v-469zM329 150q101 -69 222 -69q178 0 258 139q71 123 71 304q0 171 -61 274q-29 49 -81.5 77.5t-113.5 28.5
q-67 0 -131.5 -32t-106.5 -87q-57 -74 -57 -180v-455z" />
    <glyph glyph-name="ydieresis" unicode="&#xff;" horiz-adv-x="917" 
d="M398 -3l-366 988h141l295 -835l321 835h132l-582 -1459l-123 51zM308 1352q38 0 65.5 -28t27.5 -67t-28 -67t-67 -28q-40 0 -67.5 28t-27.5 68q0 39 28 66.5t69 27.5zM627 1352q38 0 65.5 -28t27.5 -67t-28 -67t-67 -28q-40 0 -67.5 28t-27.5 68q0 39 28 66.5t69 27.5z
" />
    <glyph glyph-name="Amacron" unicode="&#x100;" horiz-adv-x="1292" 
d="M957 462h-627l-187 -462h-138l580 1407h122l581 -1407h-143zM913 574l-270 664l-269 -664h539zM330 1603v108h633v-108h-633z" />
    <glyph glyph-name="amacron" unicode="&#x101;" horiz-adv-x="1021" 
d="M711 630v52q0 105 -35 154q-48 68 -182 68q-159 0 -305 -112l-56 101q170 121 370 121q219 0 296 -129q27 -44 35 -94.5t8 -168.5v-622h-105l-22 118q-100 -147 -328 -147q-296 0 -296 292q0 147 90 232q67 63 168 90t330 42zM712 525q-189 -15 -269 -32
q-218 -46 -218 -227q0 -186 183 -186q145 0 244 97q34 32 47 64t13 81v203zM239 1201v108h517v-108h-517z" />
    <glyph glyph-name="Abreve" unicode="&#x102;" horiz-adv-x="1292" 
d="M957 462h-627l-187 -462h-138l580 1407h122l581 -1407h-143zM913 574l-270 664l-269 -664h539zM365 1777h105q7 -63 27 -91q38 -54 150 -54q90 0 129 32t47 113h105q-4 -107 -44 -162q-68 -96 -235 -96q-143 0 -210.5 61.5t-73.5 196.5z" />
    <glyph glyph-name="abreve" unicode="&#x103;" horiz-adv-x="1021" 
d="M711 630v52q0 105 -35 154q-48 68 -182 68q-159 0 -305 -112l-56 101q170 121 370 121q219 0 296 -129q27 -44 35 -94.5t8 -168.5v-622h-105l-22 118q-100 -147 -328 -147q-296 0 -296 292q0 147 90 232q67 63 168 90t330 42zM712 525q-189 -15 -269 -32
q-218 -46 -218 -227q0 -186 183 -186q145 0 244 97q34 32 47 64t13 81v203zM216 1377h105q7 -64 26 -92q39 -55 151 -55q89 0 128 32.5t48 114.5h105q-4 -107 -44 -163q-69 -97 -235 -97q-143 0 -210.5 62t-73.5 198z" />
    <glyph glyph-name="Aogonek" unicode="&#x104;" horiz-adv-x="1292" 
d="M957 462h-627l-187 -462h-138l580 1407h122l581 -1407q-102 -81 -139.5 -135.5t-37.5 -122.5q0 -71 41 -103.5t131 -32.5q58 0 114 14l17 -74q-81 -24 -170 -24q-129 0 -196 47q-66 46 -66 151q0 80 44 143t151 137h-32zM913 574l-270 664l-269 -664h539z" />
    <glyph glyph-name="aogonek" unicode="&#x105;" horiz-adv-x="1021" 
d="M711 630v52q0 105 -35 154q-48 68 -182 68q-159 0 -305 -112l-56 101q170 121 370 121q219 0 296 -129q27 -44 35 -94.5t8 -168.5v-622q-102 -81 -139.5 -135.5t-37.5 -122.5q0 -71 41 -103.5t131 -32.5q58 0 114 14l17 -74q-81 -24 -170 -24q-129 0 -196 47
q-66 46 -66 153q0 82 44 143t158 136l-23 117q-100 -147 -328 -147q-296 0 -296 292q0 235 220 309q116 39 368 55zM712 525q-189 -15 -269 -32q-218 -46 -218 -227q0 -186 183 -186q145 0 244 97q34 32 47 64t13 81v203z" />
    <glyph glyph-name="Cacute" unicode="&#x106;" horiz-adv-x="1097" 
d="M981 182l65 -103q-137 -108 -354 -108q-297 0 -445 192q-143 185 -143 516q0 252 81 432q146 325 522 325q189 0 331 -90l-56 -108q-122 83 -274 83q-231 0 -344 -162q-123 -177 -123 -469q0 -275 105 -435q112 -169 352 -169q171 0 283 96zM587 1528l156 257h190
l-241 -257h-105z" />
    <glyph glyph-name="cacute" unicode="&#x107;" horiz-adv-x="913" 
d="M801 185l62 -99q-142 -115 -328 -115q-221 0 -333 144q-106 135 -106 361q0 265 137 416q112 122 312 122q161 0 297 -86l-50 -105q-122 81 -247 81q-147 0 -225 -103q-90 -119 -90 -317q0 -167 72 -276q83 -127 254 -127q132 0 245 104zM442 1126l156 257h190l-241 -257
h-105z" />
    <glyph glyph-name="Ccircumflex" unicode="&#x108;" horiz-adv-x="1097" 
d="M981 182l65 -103q-137 -108 -354 -108q-297 0 -445 192q-143 185 -143 516q0 252 81 432q146 325 522 325q189 0 331 -90l-56 -108q-122 83 -274 83q-231 0 -344 -162q-123 -177 -123 -469q0 -275 105 -435q112 -169 352 -169q171 0 283 96zM694 1686l-190 -158h-120
l226 257h167l227 -257h-121z" />
    <glyph glyph-name="ccircumflex" unicode="&#x109;" horiz-adv-x="913" 
d="M801 185l62 -99q-142 -115 -328 -115q-221 0 -333 144q-106 135 -106 361q0 265 137 416q112 122 312 122q161 0 297 -86l-50 -105q-122 81 -247 81q-147 0 -225 -103q-90 -119 -90 -317q0 -167 72 -276q83 -127 254 -127q132 0 245 104zM534 1284l-189 -158h-121
l227 257h167l226 -257h-120z" />
    <glyph glyph-name="Cdotaccent" unicode="&#x10a;" horiz-adv-x="1097" 
d="M981 182l65 -103q-137 -108 -354 -108q-297 0 -445 192q-143 185 -143 516q0 252 81 432q146 325 522 325q189 0 331 -90l-56 -108q-122 83 -274 83q-231 0 -344 -162q-123 -177 -123 -469q0 -275 105 -435q112 -169 352 -169q171 0 283 96zM692 1756q39 0 66.5 -28
t27.5 -67q0 -40 -28 -68t-67 -28q-40 0 -68 28t-28 68t28 67.5t69 27.5z" />
    <glyph glyph-name="cdotaccent" unicode="&#x10b;" horiz-adv-x="913" 
d="M801 185l62 -99q-142 -115 -328 -115q-221 0 -333 144q-106 135 -106 361q0 265 137 416q112 122 312 122q161 0 297 -86l-50 -105q-122 81 -247 81q-147 0 -225 -103q-90 -119 -90 -317q0 -167 72 -276q83 -127 254 -127q132 0 245 104zM539 1352q39 0 66.5 -28
t27.5 -67q0 -40 -28 -68t-67 -28q-40 0 -68 28t-28 68t28 67.5t69 27.5z" />
    <glyph glyph-name="Ccaron" unicode="&#x10c;" horiz-adv-x="1097" 
d="M981 182l65 -103q-137 -108 -354 -108q-297 0 -445 192q-143 185 -143 516q0 252 81 432q146 325 522 325q189 0 331 -90l-56 -108q-122 83 -274 83q-231 0 -344 -162q-123 -177 -123 -469q0 -275 105 -435q112 -169 352 -169q171 0 283 96zM696 1627l189 158h121
l-226 -257h-167l-227 257h121z" />
    <glyph glyph-name="ccaron" unicode="&#x10d;" horiz-adv-x="913" 
d="M801 185l62 -99q-142 -115 -328 -115q-221 0 -333 144q-106 135 -106 361q0 265 137 416q112 122 312 122q161 0 297 -86l-50 -105q-122 81 -247 81q-147 0 -225 -103q-90 -119 -90 -317q0 -167 72 -276q83 -127 254 -127q132 0 245 104zM548 1225l189 158h121l-226 -257
h-167l-227 257h121z" />
    <glyph glyph-name="Dcaron" unicode="&#x10e;" horiz-adv-x="1314" 
d="M199 0v1407h344q318 0 472 -138q94 -84 144.5 -229.5t50.5 -331.5q0 -228 -79 -400q-72 -158 -220 -233t-385 -75h-327zM330 115h177q278 0 407 119q92 85 132 245q27 111 27 234q0 218 -83 376q-80 152 -266 186q-93 17 -236 17h-158v-1177zM605 1627l188 158h121
l-226 -257h-167l-227 257h121z" />
    <glyph glyph-name="dcaron" unicode="&#x10f;" horiz-adv-x="1287" 
d="M781 955v496l129 26v-1477h-103l-21 123q-71 -81 -145.5 -116.5t-172.5 -35.5q-138 0 -231 78q-141 119 -141 411q0 229 105 381q66 96 175 141q76 32 167 32q148 0 238 -59zM781 835q-95 69 -218 69q-176 0 -259 -143q-74 -126 -74 -307q0 -171 61 -271
q29 -47 81.5 -74.5t112.5 -27.5q68 0 132 32t107 87q33 43 45 83t12 108v444zM1089 1031l51 445h152l-98 -445h-105z" />
    <glyph glyph-name="Dcroat" unicode="&#x110;" horiz-adv-x="1314" 
d="M199 662h-165l9 113h156v632h344q317 0 471 -138q94 -84 145 -230t51 -330q0 -229 -79 -401q-72 -158 -219.5 -233t-385.5 -75h-327v662zM330 662v-547h177q278 0 407 119q92 85 132 245q27 111 27 234q0 217 -83 375q-80 152 -266 186q-93 17 -236 17h-158v-516h448
l-9 -113h-439z" />
    <glyph glyph-name="dcroat" unicode="&#x111;" horiz-adv-x="1097" 
d="M781 955v218h-280v104h280v174l129 26v-200h119v-104h-119v-1173h-103l-21 123q-70 -80 -145 -116t-173 -36q-138 0 -231 78q-141 119 -141 411q0 229 105 381q66 96 175 141q76 32 167 32q148 0 238 -59zM781 835q-95 69 -218 69q-176 0 -259 -143q-74 -126 -74 -307
q0 -171 61 -271q29 -47 81.5 -74.5t112.5 -27.5q68 0 132 32t107 87q33 43 45 83t12 108v444z" />
    <glyph glyph-name="Emacron" unicode="&#x112;" horiz-adv-x="1115" 
d="M199 0v1407h805l-8 -115h-666v-481h572l-9 -114h-563v-582h700l-11 -115h-820zM289 1603v108h633v-108h-633z" />
    <glyph glyph-name="emacron" unicode="&#x113;" horiz-adv-x="1014" 
d="M918 477h-691q1 -121 42 -219q40 -94 113 -135q75 -43 198 -43q140 0 260 103l61 -98q-141 -114 -345 -114q-227 0 -343 137q-117 138 -117 378q0 234 103 377q109 151 323 151q187 0 292.5 -130t105.5 -362q0 -22 -2 -45zM785 583q-23 321 -267 321q-251 0 -285 -321
h552zM264 1201v108h516v-108h-516z" />
    <glyph glyph-name="Ebreve" unicode="&#x114;" horiz-adv-x="1115" 
d="M199 0v1407h805l-8 -115h-666v-481h572l-9 -114h-563v-582h700l-11 -115h-820zM333 1777h106q6 -62 26 -91q38 -54 150 -54q90 0 129 32.5t47 112.5h105q-5 -108 -44 -162q-68 -96 -240 -96q-139 0 -206 62.5t-73 195.5z" />
    <glyph glyph-name="ebreve" unicode="&#x115;" horiz-adv-x="1014" 
d="M918 477h-691q1 -121 42 -219q40 -94 113 -135q75 -43 198 -43q140 0 260 103l61 -98q-141 -114 -345 -114q-227 0 -343 137q-117 138 -117 378q0 234 103 377q109 151 323 151q187 0 292.5 -130t105.5 -362q0 -22 -2 -45zM785 583q-23 321 -267 321q-251 0 -285 -321
h552zM242 1377h105q7 -64 27 -92q38 -55 150 -55q90 0 128.5 32.5t47.5 114.5h105q-4 -107 -44 -163q-68 -97 -235 -97q-142 0 -210 62t-74 198z" />
    <glyph glyph-name="Edotaccent" unicode="&#x116;" horiz-adv-x="1115" 
d="M199 0v1407h805l-8 -115h-666v-481h572l-9 -114h-563v-582h700l-11 -115h-820zM640 1756q39 0 66.5 -28t27.5 -67q0 -40 -28 -68t-67 -28q-40 0 -68 28t-28 68t28.5 67.5t68.5 27.5z" />
    <glyph glyph-name="edotaccent" unicode="&#x117;" horiz-adv-x="1014" 
d="M918 477h-691q1 -121 42 -219q40 -94 113 -135q75 -43 198 -43q140 0 260 103l61 -98q-141 -114 -345 -114q-227 0 -343 137q-117 138 -117 378q0 234 103 377q109 151 323 151q187 0 292.5 -130t105.5 -362q0 -22 -2 -45zM785 583q-23 321 -267 321q-251 0 -285 -321
h552zM535 1352q39 0 66.5 -28t27.5 -67q0 -40 -28 -68t-67 -28q-40 0 -68 28t-28 68t28 67.5t69 27.5z" />
    <glyph glyph-name="Eogonek" unicode="&#x118;" horiz-adv-x="1115" 
d="M199 0v1407h805l-8 -115h-666v-481h572l-9 -114h-563v-582h700l-11 -115q-93 -78 -119 -109q-57 -68 -57 -148q0 -72 41 -104.5t131 -32.5q56 0 113 14l17 -74q-81 -24 -170 -24q-128 0 -195 47q-66 46 -66 153q0 78 45.5 143.5t148.5 134.5h-709z" />
    <glyph glyph-name="eogonek" unicode="&#x119;" horiz-adv-x="1014" 
d="M918 477h-691q1 -121 42 -219q40 -94 113 -135q75 -43 198 -43q140 0 260 103l61 -98q-26 -21 -79 -55q-197 -125 -197 -287q0 -72 41 -104.5t131 -32.5q58 0 114 14l17 -74q-82 -24 -170 -24q-129 0 -196 47q-66 46 -66 153q0 73 31 129t110 125q-52 -5 -88 -5
q-219 0 -336 137t-117 378q0 234 103 377q109 151 323 151q187 0 292.5 -130t105.5 -362q0 -22 -2 -45zM785 583q-23 321 -267 321q-251 0 -285 -321h552z" />
    <glyph glyph-name="Ecaron" unicode="&#x11a;" horiz-adv-x="1115" 
d="M199 0v1407h805l-8 -115h-666v-481h572l-9 -114h-563v-582h700l-11 -115h-820zM619 1627l189 158h120l-226 -257h-167l-227 257h121z" />
    <glyph glyph-name="ecaron" unicode="&#x11b;" horiz-adv-x="1014" 
d="M918 477h-691q1 -121 42 -219q40 -94 113 -135q75 -43 198 -43q140 0 260 103l61 -98q-141 -114 -345 -114q-227 0 -343 137q-117 138 -117 378q0 234 103 377q109 151 323 151q187 0 292.5 -130t105.5 -362q0 -22 -2 -45zM785 583q-23 321 -267 321q-251 0 -285 -321
h552zM529 1225l189 158h121l-226 -257h-167l-227 257h121z" />
    <glyph glyph-name="Gcircumflex" unicode="&#x11c;" horiz-adv-x="1285" 
d="M1013 140v432h-318l18 113h431v-620q-171 -94 -400 -94q-640 0 -640 717q0 426 226 616q157 132 393 132q198 0 364 -99l-49 -111q-88 53 -157 74t-154 21q-246 0 -359 -154q-127 -173 -127 -464q0 -284 111 -449q114 -169 393 -169q163 0 268 55zM711 1686l-189 -158
h-121l226 257h167l227 -257h-121z" />
    <glyph glyph-name="gcircumflex" unicode="&#x11d;" horiz-adv-x="1085" 
d="M769 130q-132 -159 -309 -159q-136 0 -227 77q-137 114 -137 398q0 230 100 384q120 184 360 184q80 0 147.5 -12.5t194.5 -50.5v-755q0 -286 -26 -402q-28 -126 -128.5 -194t-259.5 -68q-162 0 -294 56l44 107q106 -53 247 -53q200 0 253 137q35 92 35 304v47zM769 861
q-120 43 -212 43q-167 0 -247 -131t-80 -337q0 -355 244 -355q149 0 240 119q32 43 43.5 83t11.5 108v470zM571 1284l-189 -158h-121l226 257h167l227 -257h-121z" />
    <glyph glyph-name="Gbreve" unicode="&#x11e;" horiz-adv-x="1285" 
d="M1013 140v432h-318l18 113h431v-620q-171 -94 -400 -94q-640 0 -640 717q0 426 226 616q157 132 393 132q198 0 364 -99l-49 -111q-88 53 -157 74t-154 21q-246 0 -359 -154q-127 -173 -127 -464q0 -284 111 -449q114 -169 393 -169q163 0 268 55zM407 1777h105
q6 -62 26 -91q38 -54 150 -54q90 0 129 32t47 113h105q-5 -108 -44 -162q-68 -96 -234 -96q-143 0 -210.5 61.5t-73.5 196.5z" />
    <glyph glyph-name="gbreve" unicode="&#x11f;" horiz-adv-x="1085" 
d="M769 130q-132 -159 -309 -159q-136 0 -227 77q-137 114 -137 398q0 230 100 384q120 184 360 184q80 0 147.5 -12.5t194.5 -50.5v-755q0 -286 -26 -402q-28 -126 -128.5 -194t-259.5 -68q-162 0 -294 56l44 107q106 -53 247 -53q200 0 253 137q35 92 35 304v47zM769 861
q-120 43 -212 43q-167 0 -247 -131t-80 -337q0 -355 244 -355q149 0 240 119q32 43 43.5 83t11.5 108v470zM283 1377h106q6 -63 26 -92q38 -55 150 -55q90 0 129 32.5t47 114.5h105q-4 -107 -44 -163q-68 -97 -235 -97q-142 0 -210 62t-74 198z" />
    <glyph glyph-name="Gdotaccent" unicode="&#x120;" horiz-adv-x="1285" 
d="M1013 140v432h-318l18 113h431v-620q-171 -94 -400 -94q-640 0 -640 717q0 426 226 616q157 132 393 132q198 0 364 -99l-49 -111q-88 53 -157 74t-154 21q-246 0 -359 -154q-127 -173 -127 -464q0 -284 111 -449q114 -169 393 -169q163 0 268 55zM709 1756
q39 0 66.5 -28t27.5 -67q0 -40 -28 -68t-67 -28q-40 0 -68 28t-28 68t28 67.5t69 27.5z" />
    <glyph glyph-name="gdotaccent" unicode="&#x121;" horiz-adv-x="1085" 
d="M769 130q-132 -159 -309 -159q-136 0 -227 77q-137 114 -137 398q0 230 100 384q120 184 360 184q80 0 147.5 -12.5t194.5 -50.5v-755q0 -286 -26 -402q-28 -126 -128.5 -194t-259.5 -68q-162 0 -294 56l44 107q106 -53 247 -53q200 0 253 137q35 92 35 304v47zM769 861
q-120 43 -212 43q-167 0 -247 -131t-80 -337q0 -355 244 -355q149 0 240 119q32 43 43.5 83t11.5 108v470zM553 1352q39 0 66.5 -28t27.5 -67q0 -40 -28 -68t-68 -28q-39 0 -67 28t-28 68t28 67.5t69 27.5z" />
    <glyph glyph-name="Gcommaaccent" unicode="&#x122;" horiz-adv-x="1285" 
d="M1013 140v432h-318l18 113h431v-620q-171 -94 -400 -94q-640 0 -640 717q0 426 226 616q157 132 393 132q198 0 364 -99l-49 -111q-88 53 -157 74t-154 21q-246 0 -359 -154q-127 -173 -127 -464q0 -284 111 -449q114 -169 393 -169q163 0 268 55zM543 -500l70 374h143
l-109 -374h-104z" />
    <glyph glyph-name="gcommaaccent" unicode="&#x123;" horiz-adv-x="1085" 
d="M769 130q-132 -159 -309 -159q-136 0 -227 77q-137 114 -137 398q0 230 100 384q120 184 360 184q80 0 147.5 -12.5t194.5 -50.5v-755q0 -286 -26 -402q-28 -126 -128.5 -194t-259.5 -68q-162 0 -294 56l44 107q106 -53 247 -53q200 0 253 137q35 92 35 304v47zM769 861
q-120 43 -212 43q-167 0 -247 -131t-80 -337q0 -355 244 -355q149 0 240 119q32 43 43.5 83t11.5 108v470zM826 1385l-164 -259h-191l250 259h105z" />
    <glyph glyph-name="Hcircumflex" unicode="&#x124;" horiz-adv-x="1405" 
d="M199 0v1407h131v-613h746v613h131v-1407h-131v677h-746v-677h-131zM703 1686l-190 -158h-120l226 257h167l227 -257h-121z" />
    <glyph glyph-name="hcircumflex" unicode="&#x125;" horiz-adv-x="1161" 
d="M187 0v1451l129 26v-651q106 104 189.5 146t185.5 42q101 0 171.5 -42t96.5 -117q23 -69 23 -245v-610h-129v655q0 127 -29 178q-38 68 -150 68q-174 0 -358 -210v-691h-129zM320 1686l-189 -158h-121l226 257h167l227 -257h-121z" />
    <glyph glyph-name="Hbar" unicode="&#x126;" horiz-adv-x="1405" 
d="M199 0v1020h-155v104h155v283h131v-283h745v283h131v-283h155v-104h-155v-1020h-131v675h-745v-675h-131zM330 1020v-228h745v228h-745z" />
    <glyph glyph-name="hbar" unicode="&#x127;" horiz-adv-x="1161" 
d="M187 0v1173h-118v104h118v174l129 26v-200h276v-104h-276v-347q59 57 106 94q124 94 269 94q101 0 171.5 -42t95.5 -117q24 -70 24 -245v-610h-129v655q0 126 -29 178q-37 68 -150 68q-173 0 -358 -210v-691h-129z" />
    <glyph glyph-name="Itilde" unicode="&#x128;" horiz-adv-x="548" 
d="M209 0v1407h131v-1407h-131zM509 1768h88q-44 -237 -207 -237q-40 0 -73.5 16.5t-80.5 59.5q-68 61 -103 61q-55 0 -94 -121h-87q23 113 77.5 174t131.5 61q76 0 154 -74q40 -38 60 -50.5t41 -12.5q59 0 93 123z" />
    <glyph glyph-name="itilde" unicode="&#x129;" horiz-adv-x="528" 
d="M200 0v985h129v-985h-129zM499 1362h88q-44 -237 -207 -237q-40 0 -73.5 16.5t-80.5 59.5q-68 61 -103 61q-55 0 -94 -121h-87q23 113 77.5 174t131.5 61q76 0 154 -74q40 -38 60 -50.5t41 -12.5q59 0 93 123z" />
    <glyph glyph-name="Imacron" unicode="&#x12a;" horiz-adv-x="548" 
d="M209 0v1407h131v-1407h-131zM-42 1603v108h632v-108h-632z" />
    <glyph glyph-name="imacron" unicode="&#x12b;" horiz-adv-x="528" 
d="M200 0v985h129v-985h-129zM6 1201v108h516v-108h-516z" />
    <glyph glyph-name="Ibreve" unicode="&#x12c;" horiz-adv-x="548" 
d="M209 0v1407h131v-1407h-131zM-7 1777h105q7 -63 26 -91q38 -54 150 -54q90 0 129.5 32.5t46.5 112.5h106q-5 -107 -44 -162q-69 -96 -235 -96q-143 0 -210.5 61.5t-73.5 196.5z" />
    <glyph glyph-name="ibreve" unicode="&#x12d;" horiz-adv-x="528" 
d="M200 0v985h129v-985h-129zM-17 1377h105q7 -64 26 -92q38 -55 150 -55q90 0 129.5 33t46.5 114h106q-5 -107 -44 -163q-69 -97 -235 -97q-143 0 -210.5 62t-73.5 198z" />
    <glyph glyph-name="Iogonek" unicode="&#x12e;" horiz-adv-x="548" 
d="M208 0v1407h131v-1407q-20 -18 -80 -69q-96 -81 -96 -188q0 -72 41 -104.5t131 -32.5q57 0 114 14l16 -74q-81 -24 -170 -24q-128 0 -195 47q-66 46 -66 153q0 78 46.5 144.5t147.5 133.5h-20z" />
    <glyph glyph-name="iogonek" unicode="&#x12f;" horiz-adv-x="528" 
d="M199 0v985h129v-985q-91 -68 -133 -129.5t-42 -128.5q0 -71 41 -103.5t130 -32.5q57 0 114 14l16 -74q-81 -24 -170 -24q-261 0 -261 198q0 81 44.5 145t149.5 135h-18zM265 1352q39 0 66.5 -28t27.5 -67q0 -40 -28 -68t-67 -28q-40 0 -68 28t-28 68t28 67.5t69 27.5z
" />
    <glyph glyph-name="Idotaccent" unicode="&#x130;" horiz-adv-x="548" 
d="M209 0v1407h131v-1407h-131zM276 1756q39 0 66.5 -28t27.5 -67q0 -40 -28 -68t-67 -28q-40 0 -68 28t-28 68t28 67.5t69 27.5z" />
    <glyph glyph-name="dotlessi" unicode="&#x131;" horiz-adv-x="528" 
d="M200 0v985h129v-985h-129z" />
    <glyph glyph-name="IJ" unicode="&#x132;" horiz-adv-x="1080" 
d="M209 0v1407h131v-1407h-131zM749 1407h131v-975q0 -213 -12.5 -317.5t-47.5 -187.5q-56 -132 -222 -278l-67 58q83 91 114.5 141t57.5 128q46 141 46 474v957z" />
    <glyph glyph-name="ij" unicode="&#x133;" horiz-adv-x="1062" 
d="M200 0v985h129v-985h-129zM266 1352q39 0 66.5 -28t27.5 -67q0 -40 -28 -68t-67 -28q-40 0 -68 28t-28 68t28 67.5t69 27.5zM733 985h129v-965q0 -185 -38 -283.5t-150 -201.5l-62 52q78 114 99 205q22 92 22 334v859zM800 1352q39 0 66.5 -28t27.5 -67q0 -40 -28 -68
t-67 -28q-40 0 -68 28t-28 68t28 67.5t69 27.5z" />
    <glyph glyph-name="Jcircumflex" unicode="&#x134;" horiz-adv-x="532" 
d="M197 1407h131v-975q0 -213 -12.5 -317.5t-47.5 -187.5q-55 -130 -222 -278l-67 58q82 91 114 141t58 128q46 140 46 474v957zM263 1686l-189 -158h-121l226 257h167l227 -257h-121z" />
    <glyph glyph-name="jcircumflex" unicode="&#x135;" horiz-adv-x="534" 
d="M205 985h129v-965q0 -185 -38 -283t-150 -202l-62 52q78 116 99 205q22 92 22 334v859zM267 1284l-189 -158h-121l226 257h167l227 -257h-121z" />
    <glyph glyph-name="Kcommaaccent" unicode="&#x136;" horiz-adv-x="1183" 
d="M199 0v1407h131v-613l644 613h167l-673 -633l715 -774h-174l-679 744v-744h-131zM481 -500l69 374h143l-109 -374h-103z" />
    <glyph glyph-name="kcommaaccent" unicode="&#x137;" horiz-adv-x="1030" 
d="M187 0v1450l129 27v-883l454 391h169l-488 -417l533 -568h-168l-500 541v-541h-129zM395 -500l70 374h143l-109 -374h-104z" />
    <glyph glyph-name="kgreenlandic" unicode="&#x138;" horiz-adv-x="1037" 
d="M187 0v985h129v-421l463 421h173l-503 -442l542 -543h-168l-507 512v-512h-129z" />
    <glyph glyph-name="Lacute" unicode="&#x139;" horiz-adv-x="1004" 
d="M199 0v1407h131v-1292h649l-10 -115h-770zM217 1528l156 257h190l-242 -257h-104z" />
    <glyph glyph-name="lacute" unicode="&#x13a;" horiz-adv-x="525" 
d="M198 0v1450l129 27v-1477h-129zM168 1579l156 258h190l-241 -258h-105z" />
    <glyph glyph-name="Lcommaaccent" unicode="&#x13b;" horiz-adv-x="1004" 
d="M199 0v1407h131v-1292h649l-10 -115h-770zM404 -500l70 374h143l-109 -374h-104z" />
    <glyph glyph-name="lcommaaccent" unicode="&#x13c;" horiz-adv-x="525" 
d="M198 0v1450l129 27v-1477h-129zM127 -500l70 374h143l-109 -374h-104z" />
    <glyph glyph-name="Lcaron" unicode="&#x13d;" horiz-adv-x="1004" 
d="M199 0v1407h131v-1292h649l-10 -115h-770zM559 1031l51 445h152l-99 -445h-104z" />
    <glyph glyph-name="lcaron" unicode="&#x13e;" horiz-adv-x="715" 
d="M198 0v1450l129 27v-1477h-129zM517 1031l51 445h152l-98 -445h-105z" />
    <glyph glyph-name="Ldot" unicode="&#x13f;" horiz-adv-x="1004" 
d="M199 0v1407h131v-1292h649l-10 -115h-770zM745 738q41 0 71 -30t30 -72q0 -43 -30 -73t-73 -30t-73 30t-30 74q0 42 30.5 71.5t74.5 29.5z" />
    <glyph glyph-name="ldot" unicode="&#x140;" horiz-adv-x="746" 
d="M198 0v1450l129 27v-1477h-129zM638 737q41 0 71 -30t30 -72q0 -43 -30 -73t-73 -30t-73 30t-30 74q0 42 30.5 71.5t74.5 29.5z" />
    <glyph glyph-name="Lslash" unicode="&#x141;" horiz-adv-x="1000" 
d="M196 0v458l-199 -137v127l199 137v822h131v-732l455 313v-127l-455 -313v-433h649l-11 -115h-769z" />
    <glyph glyph-name="lslash" unicode="&#x142;" horiz-adv-x="538" 
d="M204 0v642l-186 -129v130l186 128v679l129 27v-618l186 129v-130l-186 -128v-730h-129z" />
    <glyph glyph-name="Nacute" unicode="&#x143;" horiz-adv-x="1443" 
d="M198 0v1407h135l784 -1179v1179h128v-1407h-120l-799 1196v-1196h-128zM627 1528l156 257h191l-242 -257h-105z" />
    <glyph glyph-name="nacute" unicode="&#x144;" horiz-adv-x="1161" 
d="M187 0v985h110l17 -160q61 59 109 95q122 94 269 94q101 0 171 -41.5t96 -117.5q23 -69 23 -245v-610h-129v663q0 123 -30 173q-39 65 -149 65q-174 0 -358 -210v-691h-129zM505 1126l156 257h190l-241 -257h-105z" />
    <glyph glyph-name="Ncommaaccent" unicode="&#x145;" horiz-adv-x="1443" 
d="M198 0v1407h135l784 -1179v1179h128v-1407h-120l-799 1196v-1196h-128zM584 -500l70 374h143l-109 -374h-104z" />
    <glyph glyph-name="ncommaaccent" unicode="&#x146;" horiz-adv-x="1161" 
d="M187 0v985h110l17 -160q61 59 109 95q122 94 269 94q101 0 171 -41.5t96 -117.5q23 -69 23 -245v-610h-129v663q0 123 -30 173q-39 65 -149 65q-174 0 -358 -210v-691h-129zM450 -500l69 374h143l-109 -374h-103z" />
    <glyph glyph-name="Ncaron" unicode="&#x147;" horiz-adv-x="1443" 
d="M198 0v1407h135l784 -1179v1179h128v-1407h-120l-799 1196v-1196h-128zM739 1627l189 158h121l-226 -257h-167l-227 257h121z" />
    <glyph glyph-name="ncaron" unicode="&#x148;" horiz-adv-x="1161" 
d="M187 0v985h110l17 -160q61 59 109 95q122 94 269 94q101 0 171 -41.5t96 -117.5q23 -69 23 -245v-610h-129v663q0 123 -30 173q-39 65 -149 65q-174 0 -358 -210v-691h-129zM589 1225l189 158h121l-226 -257h-168l-227 257h121z" />
    <glyph glyph-name="napostrophe" unicode="&#x149;" horiz-adv-x="1161" 
d="M187 0v985h110l17 -160q60 59 108 95q124 94 270 94q101 0 171 -41.5t95 -117.5q24 -69 24 -245v-610h-129v663q0 123 -30 173q-39 65 -150 65q-175 0 -357 -210v-691h-129zM-15 1024l50 440h147l-98 -440h-99z" />
    <glyph glyph-name="Eng" unicode="&#x14a;" horiz-adv-x="1443" 
d="M198 0v1407h135l784 -1179v1179h128v-1386q0 -186 -38 -284t-150 -202l-62 52q78 114 99 205q20 85 21 223l-789 1181v-1196h-128z" />
    <glyph glyph-name="eng" unicode="&#x14b;" horiz-adv-x="1161" 
d="M187 0v985h110l17 -160q61 59 109 95q122 94 269 94q101 0 171 -41.5t96 -117.5q23 -69 23 -245v-589q0 -186 -38 -284.5t-150 -201.5l-62 52q78 116 99 205q22 91 22 334v537q0 123 -30 173q-39 65 -149 65q-174 0 -358 -210v-691h-129z" />
    <glyph glyph-name="Omacron" unicode="&#x14c;" horiz-adv-x="1391" 
d="M705 1436q192 0 329 -99q148 -107 211 -323q41 -140 41 -311q0 -313 -135 -516q-144 -216 -456 -216t-455 216q-136 203 -136 513q0 320 136 517q150 219 465 219zM703 1321q-248 0 -363 -183q-99 -157 -99 -438q0 -273 99 -435q110 -179 355 -179t355 179q99 163 99 438
q0 278 -99 435q-60 94 -159 141q-88 42 -188 42zM379 1603v108h632v-108h-632z" />
    <glyph glyph-name="omacron" unicode="&#x14d;" horiz-adv-x="1083" 
d="M549 1014q210 0 327 -145q112 -139 112 -377q0 -236 -112 -376q-116 -145 -334 -145t-334 145q-112 140 -112 375q0 239 112 378q116 145 341 145zM547 904q-179 0 -255 -137q-62 -113 -62 -275q0 -160 62 -274q74 -137 250 -137t250 137q62 114 62 275q0 163 -62 274
q-76 137 -245 137zM284 1201v108h517v-108h-517z" />
    <glyph glyph-name="Obreve" unicode="&#x14e;" horiz-adv-x="1391" 
d="M705 1436q192 0 329 -99q148 -107 211 -323q41 -140 41 -311q0 -313 -135 -516q-144 -216 -456 -216t-455 216q-136 203 -136 513q0 320 136 517q150 219 465 219zM703 1321q-248 0 -363 -183q-99 -157 -99 -438q0 -273 99 -435q110 -179 355 -179t355 179q99 163 99 438
q0 278 -99 435q-60 94 -159 141q-88 42 -188 42zM414 1777h105q6 -62 26 -91q39 -54 150 -54q90 0 129.5 32.5t46.5 112.5h106q-5 -108 -44 -162q-69 -96 -238 -96q-141 0 -208 61.5t-73 196.5z" />
    <glyph glyph-name="obreve" unicode="&#x14f;" horiz-adv-x="1083" 
d="M549 1014q210 0 327 -145q112 -139 112 -377q0 -236 -112 -376q-116 -145 -334 -145t-334 145q-112 140 -112 375q0 239 112 378q116 145 341 145zM547 904q-179 0 -255 -137q-62 -113 -62 -275q0 -160 62 -274q74 -137 250 -137t250 137q62 114 62 275q0 163 -62 274
q-76 137 -245 137zM261 1377h105q6 -64 26 -92q39 -55 150 -55q90 0 129 32.5t47 114.5h106q-5 -108 -44 -163q-69 -97 -235 -97q-143 0 -210.5 62t-73.5 198z" />
    <glyph glyph-name="Ohungarumlaut" unicode="&#x150;" horiz-adv-x="1391" 
d="M705 1436q192 0 329 -99q148 -107 211 -323q41 -140 41 -311q0 -313 -135 -516q-144 -216 -456 -216t-455 216q-136 203 -136 513q0 320 136 517q150 219 465 219zM703 1321q-248 0 -363 -183q-99 -157 -99 -438q0 -273 99 -435q110 -179 355 -179t355 179q99 163 99 438
q0 278 -99 435q-60 94 -159 141q-88 42 -188 42zM516 1528l107 257h190l-200 -257h-97zM787 1528l107 257h190l-200 -257h-97z" />
    <glyph glyph-name="ohungarumlaut" unicode="&#x151;" horiz-adv-x="1083" 
d="M549 1014q210 0 327 -145q112 -139 112 -377q0 -236 -112 -376q-116 -145 -334 -145t-334 145q-112 140 -112 375q0 239 112 378q116 145 341 145zM547 904q-179 0 -255 -137q-62 -113 -62 -275q0 -160 62 -274q74 -137 250 -137t250 137q62 114 62 275q0 163 -62 274
q-76 137 -245 137zM355 1126l108 257h189l-202 -257h-95zM626 1126l108 257h189l-201 -257h-96z" />
    <glyph glyph-name="OE" unicode="&#x152;" horiz-adv-x="1836" 
d="M1739 0h-845q-180 0 -247 5t-143 25q-137 35 -234 139q-79 85 -122.5 225t-43.5 309q0 269 108 456q69 120 200 185q79 39 170.5 51t311.5 12h830l-8 -115h-675v-481h581l-9 -114h-572v-582h709zM910 116v1174h-95q-139 0 -175.5 -2t-84.5 -13q-164 -38 -247 -210
q-67 -140 -67 -361q0 -362 171 -502q82 -67 213 -82q36 -4 184 -4h101z" />
    <glyph glyph-name="oe" unicode="&#x153;" horiz-adv-x="1729" 
d="M875 213q-101 -242 -356 -242q-207 0 -316 145q-107 141 -107 376t107 377q109 145 316 145q130 0 216 -58.5t142 -184.5q31 66 55 101q47 68 127.5 105t178.5 37q244 0 343 -213q54 -116 54 -279q0 -23 -2 -45h-691q2 -123 42 -219q40 -94 113 -135q75 -43 197 -43
q141 0 261 103l61 -98q-142 -114 -345 -114q-148 0 -243 58t-153 184zM526 904q-168 0 -238 -137q-58 -114 -58 -276q0 -159 58 -273q69 -137 233 -137t233 137q58 115 58 274q0 163 -58 275q-70 137 -228 137zM1500 583q-23 321 -267 321q-248 0 -285 -321h552z" />
    <glyph glyph-name="Racute" unicode="&#x154;" horiz-adv-x="1209" 
d="M330 604v-604h-131v1407h395q240 0 344 -85q121 -100 121 -301q0 -149 -64.5 -247t-184.5 -132q40 -28 62.5 -59.5t68.5 -122.5l231 -460h-153l-166 335q-97 196 -130 232.5t-112 36.5h-281zM330 718h210q218 0 296 65q86 72 86 235q0 169 -105 229q-79 46 -283 46h-204
v-575zM522 1528l156 257h190l-242 -257h-104z" />
    <glyph glyph-name="racute" unicode="&#x155;" horiz-adv-x="718" 
d="M187 0v985h110l17 -184q118 109 200.5 148.5t197.5 43.5l-8 -112q-187 9 -388 -214v-667h-129zM383 1126l156 257h191l-242 -257h-105z" />
    <glyph glyph-name="Rcommaaccent" unicode="&#x156;" horiz-adv-x="1209" 
d="M330 604v-604h-131v1407h395q240 0 344 -85q121 -100 121 -301q0 -149 -64.5 -247t-184.5 -132q40 -28 62.5 -59.5t68.5 -122.5l231 -460h-153l-166 335q-97 196 -130 232.5t-112 36.5h-281zM330 718h210q218 0 296 65q86 72 86 235q0 169 -105 229q-79 46 -283 46h-204
v-575zM500 -500l70 374h143l-109 -374h-104z" />
    <glyph glyph-name="rcommaaccent" unicode="&#x157;" horiz-adv-x="718" 
d="M187 0v985h110l17 -184q117 108 200 148t198 44l-8 -112q-187 9 -388 -214v-667h-129zM117 -500l70 374h143l-109 -374h-104z" />
    <glyph glyph-name="Rcaron" unicode="&#x158;" horiz-adv-x="1209" 
d="M330 604v-604h-131v1407h395q240 0 344 -85q121 -100 121 -301q0 -149 -64.5 -247t-184.5 -132q40 -28 62.5 -59.5t68.5 -122.5l231 -460h-153l-166 335q-97 196 -130 232.5t-112 36.5h-281zM330 718h210q218 0 296 65q86 72 86 235q0 169 -105 229q-79 46 -283 46h-204
v-575zM572 1627l189 158h121l-226 -257h-167l-227 257h121z" />
    <glyph glyph-name="rcaron" unicode="&#x159;" horiz-adv-x="718" 
d="M187 0v985h110l17 -184q118 109 200 148.5t198 43.5l-8 -112q-187 9 -388 -214v-667h-129zM424 1225l189 158h121l-226 -257h-167l-227 257h121z" />
    <glyph glyph-name="Sacute" unicode="&#x15a;" horiz-adv-x="1002" 
d="M84 53l48 116q139 -83 308 -83q187 0 271 85q72 73 72 188q0 91 -44 155q-30 43 -79 74t-168 82q-206 87 -288 156q-100 84 -100 241q0 193 130 290q105 79 280 79q179 0 328 -82l-50 -106q-133 73 -278 73q-121 0 -194 -55q-82 -62 -82 -186q0 -102 61 -157
q31 -29 85.5 -57.5t182.5 -84.5q129 -56 191.5 -97.5t98.5 -95.5q61 -91 61 -225q0 -95 -36 -174.5t-100 -127.5q-120 -90 -332 -90q-214 0 -366 82zM432 1528l156 257h191l-242 -257h-105z" />
    <glyph glyph-name="sacute" unicode="&#x15b;" horiz-adv-x="774" 
d="M27 57l55 117q103 -94 248 -94q226 0 226 179q0 75 -36.5 112.5t-162.5 91.5q-159 67 -216.5 128t-57.5 161q0 123 79.5 192.5t220.5 69.5q134 0 274 -73l-56 -105q-110 68 -221 68q-170 0 -170 -144q0 -60 39 -94q24 -22 47.5 -34.5t138.5 -63.5q149 -67 199 -126
t50 -168q0 -303 -352 -303q-182 0 -305 86zM285 1126l156 257h191l-242 -257h-105z" />
    <glyph glyph-name="Scircumflex" unicode="&#x15c;" horiz-adv-x="1002" 
d="M84 53l48 116q139 -83 308 -83q187 0 271 85q72 73 72 188q0 91 -44 155q-30 43 -79 74t-168 82q-206 87 -288 156q-100 84 -100 241q0 193 130 290q105 79 280 79q179 0 328 -82l-50 -106q-133 73 -278 73q-121 0 -194 -55q-82 -62 -82 -186q0 -102 61 -157
q31 -29 85.5 -57.5t182.5 -84.5q129 -56 191.5 -97.5t98.5 -95.5q61 -91 61 -225q0 -95 -36 -174.5t-100 -127.5q-120 -90 -332 -90q-214 0 -366 82zM500 1686l-189 -158h-121l226 257h168l226 -257h-121z" />
    <glyph glyph-name="scircumflex" unicode="&#x15d;" horiz-adv-x="774" 
d="M26 57l55 117q103 -94 248 -94q226 0 226 179q0 75 -36.5 112.5t-162.5 91.5q-159 67 -216.5 128t-57.5 161q0 123 79.5 192.5t220.5 69.5q134 0 274 -73l-56 -105q-110 68 -221 68q-170 0 -170 -144q0 -60 39 -94q24 -22 47.5 -34.5t138.5 -63.5q149 -67 199 -126
t50 -168q0 -303 -352 -303q-182 0 -305 86zM392 1284l-189 -158h-120l226 257h167l227 -257h-121z" />
    <glyph glyph-name="Scedilla" unicode="&#x15e;" horiz-adv-x="1002" 
d="M84 53l48 116q139 -83 308 -83q187 0 271 85q72 73 72 188q0 91 -44 155q-30 43 -79 74t-168 82q-206 87 -288 156q-100 84 -100 241q0 193 130 290q105 79 280 79q179 0 328 -82l-50 -106q-133 73 -278 73q-121 0 -194 -55q-82 -62 -82 -186q0 -102 61 -157
q31 -29 85 -57.5t183 -84.5q129 -55 191.5 -97t98.5 -96q61 -90 61 -225q0 -159 -91 -260q-99 -111 -319 -129l-74 -107q134 -11 187.5 -47.5t53.5 -116.5q0 -186 -239 -186q-108 0 -209 39l34 75q77 -33 157 -33q122 0 122 104q0 52 -46 72.5t-165 20.5l-10 30l98 147
q-195 8 -333 81z" />
    <glyph glyph-name="scedilla" unicode="&#x15f;" horiz-adv-x="773" 
d="M27 57l55 117q103 -93 248 -93q226 0 226 179q0 75 -36.5 112t-162.5 91q-159 68 -216.5 128.5t-57.5 160.5q0 124 79.5 193t220.5 69q134 0 274 -73l-56 -105q-112 68 -221 68q-170 0 -170 -144q0 -60 39 -94q24 -22 47.5 -34t138.5 -64q149 -67 199 -125.5t50 -167.5
q0 -137 -69 -209.5t-216 -90.5l-74 -108q134 -11 187.5 -47.5t53.5 -116.5q0 -186 -239 -186q-109 0 -209 39l34 75q76 -33 157 -33q122 0 122 104q0 52 -46.5 72.5t-164.5 20.5l-10 30l98 147q-173 10 -281 85z" />
    <glyph glyph-name="Scaron" unicode="&#x160;" horiz-adv-x="1002" 
d="M84 53l48 116q139 -83 308 -83q187 0 271 85q72 73 72 188q0 91 -44 155q-30 43 -79 74t-168 82q-206 87 -288 156q-100 84 -100 241q0 193 130 290q105 79 280 79q179 0 328 -82l-50 -106q-133 73 -278 73q-121 0 -194 -55q-82 -62 -82 -186q0 -102 61 -157
q31 -29 85.5 -57.5t182.5 -84.5q129 -56 191.5 -97.5t98.5 -95.5q61 -91 61 -225q0 -95 -36 -174.5t-100 -127.5q-120 -90 -332 -90q-214 0 -366 82zM529 1627l189 158h121l-226 -257h-168l-227 257h121z" />
    <glyph glyph-name="scaron" unicode="&#x161;" horiz-adv-x="774" 
d="M26 57l55 117q103 -94 248 -94q226 0 226 179q0 75 -36.5 112.5t-162.5 91.5q-159 67 -216.5 128t-57.5 161q0 123 79.5 192.5t220.5 69.5q134 0 274 -73l-56 -105q-110 68 -221 68q-170 0 -170 -144q0 -60 39 -94q24 -22 47.5 -34.5t138.5 -63.5q149 -67 199 -126
t50 -168q0 -303 -352 -303q-182 0 -305 86zM390 1225l189 158h121l-226 -257h-167l-227 257h121z" />
    <glyph glyph-name="Tcommaaccent" unicode="&#x162;" horiz-adv-x="1018" 
d="M444 0v1292h-423l8 115h968l-9 -115h-413v-1292h-131zM373 -500l69 374h143l-108 -374h-104z" />
    <glyph glyph-name="tcommaaccent" unicode="&#x163;" horiz-adv-x="686" 
d="M230 875h-168l8 110h161l13 240l115 37v-277h226l-9 -110h-217v-561q0 -150 15 -187q18 -43 96 -43q61 0 120 33l27 -103q-79 -43 -177 -43q-112 0 -161 57.5t-49 190.5v656zM226 -500l70 374h143l-109 -374h-104z" />
    <glyph glyph-name="Tcaron" unicode="&#x164;" horiz-adv-x="1018" 
d="M444 0v1292h-423l8 115h968l-9 -115h-413v-1292h-131zM509 1627l189 158h120l-226 -257h-167l-227 257h121z" />
    <glyph glyph-name="tcaron" unicode="&#x165;" horiz-adv-x="752" 
d="M230 875h-168l8 110h161l13 240l115 37v-277h226l-9 -110h-217v-561q0 -150 15 -187q18 -43 96 -43q61 0 120 33l27 -103q-79 -43 -177 -43q-112 0 -161 57.5t-49 190.5v656zM554 1093l50 445h153l-99 -445h-104z" />
    <glyph glyph-name="Tbar" unicode="&#x166;" horiz-adv-x="1018" 
d="M444 0v662h-265l9 113h256v517h-423l8 115h968l-9 -115h-413v-517h264l-9 -113h-255v-662h-131z" />
    <glyph glyph-name="tbar" unicode="&#x167;" horiz-adv-x="686" 
d="M230 875h-168l8 110h161l13 240l115 37v-277h226l-9 -110h-217v-220h217l-10 -104h-207v-238q0 -148 15 -185q17 -44 96 -44q60 0 120 33l27 -103q-79 -43 -177 -43q-112 0 -161 57.5t-49 190.5v332h-168l9 104h159v220z" />
    <glyph glyph-name="Utilde" unicode="&#x168;" horiz-adv-x="1332" 
d="M192 1407h131v-848q0 -257 50 -346q72 -127 293 -127q239 0 305 151q38 88 38 322v848h131v-895q0 -239 -59 -349q-101 -192 -415 -192q-337 0 -430 223q-44 104 -44 318v895zM901 1768h87q-43 -237 -206 -237q-41 0 -74 16.5t-81 59.5q-67 61 -103 61q-55 0 -93 -121
h-88q51 235 210 235q75 0 153 -74q41 -38 60.5 -50.5t40.5 -12.5q59 0 94 123z" />
    <glyph glyph-name="utilde" unicode="&#x169;" horiz-adv-x="1131" 
d="M820 130q-91 -84 -175 -121.5t-181 -37.5q-209 0 -262 159q-23 69 -23 244v611h129v-663q0 -124 30 -175q38 -64 144 -64q176 0 332 175v727h129v-985h-103zM800 1362h88q-42 -237 -207 -237q-40 0 -73.5 16.5t-80.5 59.5q-68 61 -103 61q-56 0 -94 -121h-87
q24 114 78 174.5t131 60.5q76 0 154 -74q40 -38 59.5 -50.5t41.5 -12.5q58 0 93 123z" />
    <glyph glyph-name="Umacron" unicode="&#x16a;" horiz-adv-x="1332" 
d="M192 1407h131v-848q0 -257 50 -346q72 -127 293 -127q239 0 305 151q38 88 38 322v848h131v-895q0 -239 -59 -349q-101 -192 -415 -192q-337 0 -430 223q-44 104 -44 318v895zM350 1603v108h632v-108h-632z" />
    <glyph glyph-name="umacron" unicode="&#x16b;" horiz-adv-x="1131" 
d="M820 130q-91 -84 -175 -121.5t-181 -37.5q-209 0 -262 159q-23 69 -23 244v611h129v-663q0 -124 30 -175q38 -64 144 -64q176 0 332 175v727h129v-985h-103zM307 1201v108h516v-108h-516z" />
    <glyph glyph-name="Ubreve" unicode="&#x16c;" horiz-adv-x="1332" 
d="M192 1407h131v-848q0 -257 50 -346q72 -127 293 -127q239 0 305 151q38 88 38 322v848h131v-895q0 -239 -59 -349q-101 -192 -415 -192q-337 0 -430 223q-44 104 -44 318v895zM385 1777h105q6 -63 26 -91q38 -54 150 -54q90 0 129 32t47 113h105q-4 -107 -44 -162
q-68 -96 -237 -96q-141 0 -208 61.5t-73 196.5z" />
    <glyph glyph-name="ubreve" unicode="&#x16d;" horiz-adv-x="1131" 
d="M820 130q-91 -84 -175 -121.5t-181 -37.5q-209 0 -262 159q-23 69 -23 244v611h129v-663q0 -124 30 -175q38 -64 144 -64q176 0 332 175v727h129v-985h-103zM284 1377h105q7 -63 26 -92q39 -55 151 -55q89 0 128.5 32.5t47.5 114.5h105q-4 -107 -44 -163
q-69 -97 -237 -97q-141 0 -208.5 62t-73.5 198z" />
    <glyph glyph-name="Uring" unicode="&#x16e;" horiz-adv-x="1332" 
d="M192 1407h131v-848q0 -257 50 -346q72 -127 293 -127q239 0 305 151q38 88 38 322v848h131v-895q0 -239 -59 -349q-101 -192 -415 -192q-337 0 -430 223q-44 104 -44 318v895zM666 1855q82 0 131.5 -50t49.5 -133t-49.5 -132.5t-134.5 -49.5q-84 0 -133.5 49.5
t-49.5 132.5q0 85 49.5 134t136.5 49zM665 1789q-50 0 -78 -30.5t-28 -85.5q0 -54 28 -85t76 -31q49 0 77 31t28 85t-27.5 85t-75.5 31z" />
    <glyph glyph-name="uring" unicode="&#x16f;" horiz-adv-x="1131" 
d="M820 130q-91 -84 -175 -121.5t-181 -37.5q-209 0 -262 159q-23 69 -23 244v611h129v-663q0 -124 30 -175q38 -64 144 -64q176 0 332 175v727h129v-985h-103zM568 1470q82 0 131.5 -50t49.5 -132q0 -84 -49.5 -133t-133.5 -49q-85 0 -134.5 49t-49.5 133t50 133t136 49z
M567 1403q-50 0 -78 -30.5t-28 -84.5t28 -84.5t77 -30.5q48 0 76 30.5t28 84.5q0 53 -27.5 84t-75.5 31z" />
    <glyph glyph-name="Uhungarumlaut" unicode="&#x170;" horiz-adv-x="1332" 
d="M192 1407h131v-848q0 -257 50 -346q72 -127 293 -127q239 0 305 151q38 88 38 322v848h131v-895q0 -239 -59 -349q-101 -192 -415 -192q-337 0 -430 223q-44 104 -44 318v895zM487 1528l107 257h190l-201 -257h-96zM758 1528l107 257h190l-200 -257h-97z" />
    <glyph glyph-name="uhungarumlaut" unicode="&#x171;" horiz-adv-x="1131" 
d="M820 130q-91 -84 -175 -121.5t-181 -37.5q-209 0 -262 159q-23 69 -23 244v611h129v-663q0 -124 30 -175q38 -64 144 -64q176 0 332 175v727h129v-985h-103zM386 1126l108 257h189l-202 -257h-95zM657 1126l109 257h189l-202 -257h-96z" />
    <glyph glyph-name="Uogonek" unicode="&#x172;" horiz-adv-x="1332" 
d="M192 1407h131v-848q0 -257 50 -346q72 -127 293 -127q239 0 305 151q38 88 38 322v848h131v-895q0 -160 -22 -251q-44 -183 -210 -247q-52 -20 -120 -32q-91 -78 -122 -126t-31 -113q0 -72 41 -104.5t130 -32.5q57 0 114 14l17 -74q-82 -24 -170 -24q-129 0 -196 47
q-66 46 -66 151q0 73 35 130.5t118 121.5q-258 9 -368 134q-54 61 -76 153t-22 253v895z" />
    <glyph glyph-name="uogonek" unicode="&#x173;" horiz-adv-x="1131" 
d="M821 131q-93 -85 -176.5 -122.5t-180.5 -37.5q-209 0 -262 159q-23 69 -23 244v611h129v-663q0 -124 30 -175q38 -64 144 -64q176 0 332 175v727h129v-985q-20 -17 -30 -26q-88 -74 -117 -120.5t-29 -110.5q0 -72 41 -104.5t131 -32.5q57 0 114 14l16 -74
q-81 -24 -170 -24q-129 0 -195 47q-66 46 -66 151q0 109 91 196q26 25 114 89z" />
    <glyph glyph-name="Wcircumflex" unicode="&#x174;" horiz-adv-x="1727" 
d="M386 0l-350 1407h135l284 -1205l347 1205h125l349 -1209l280 1209h134l-351 -1407h-130l-345 1203l-345 -1203h-133zM863 1692l-189 -158h-121l226 257h167l227 -257h-121z" />
    <glyph glyph-name="wcircumflex" unicode="&#x175;" horiz-adv-x="1472" 
d="M361 0l-325 985h139l248 -818l264 818h105l263 -818l249 818h132l-328 -985h-111l-261 814l-262 -814h-113zM736 1284l-190 -158h-120l226 257h167l227 -257h-121z" />
    <glyph glyph-name="Ycircumflex" unicode="&#x176;" horiz-adv-x="1087" 
d="M476 0v555l-457 852h142l385 -733l384 733h137l-460 -852v-555h-131zM543 1686l-189 -158h-121l226 257h167l227 -257h-121z" />
    <glyph glyph-name="ycircumflex" unicode="&#x177;" horiz-adv-x="917" 
d="M398 -3l-366 988h141l295 -835l321 835h132l-582 -1459l-123 51zM469 1284l-189 -158h-121l226 257h167l227 -257h-121z" />
    <glyph glyph-name="Ydieresis" unicode="&#x178;" horiz-adv-x="1087" 
d="M476 0v555l-457 852h142l385 -733l384 733h137l-460 -852v-555h-131zM356 1755q38 0 65.5 -28t27.5 -67t-28 -67t-67 -28t-67 28t-28 68t28 67t69 27zM735 1755q38 0 65.5 -28t27.5 -67t-28 -67t-67 -28t-67 28t-28 68t28 67t69 27z" />
    <glyph glyph-name="Zacute" unicode="&#x179;" horiz-adv-x="1051" 
d="M38 0l-1 97l777 1195h-691l9 115h826l12 -97l-771 -1195h810l-10 -115h-961zM472 1528l156 257h190l-242 -257h-104z" />
    <glyph glyph-name="zacute" unicode="&#x17a;" horiz-adv-x="880" 
d="M53 0l-3 100l553 775h-489l16 110h623l10 -98l-556 -777h616l-16 -110h-754zM379 1126l156 257h191l-242 -257h-105z" />
    <glyph glyph-name="Zdotaccent" unicode="&#x17b;" horiz-adv-x="1051" 
d="M38 0l-1 97l777 1195h-691l9 115h826l12 -97l-771 -1195h810l-10 -115h-961zM578 1756q39 0 66.5 -28t27.5 -67q0 -40 -28 -68t-67 -28q-40 0 -68 28t-28 68t28 67.5t69 27.5z" />
    <glyph glyph-name="zdotaccent" unicode="&#x17c;" horiz-adv-x="880" 
d="M53 0l-3 100l553 775h-489l16 110h623l10 -98l-556 -777h616l-16 -110h-754zM468 1352q39 0 66.5 -28t27.5 -67q0 -40 -28 -68t-67 -28q-40 0 -68 28t-28 68t28 67.5t69 27.5z" />
    <glyph glyph-name="Zcaron" unicode="&#x17d;" horiz-adv-x="1051" 
d="M38 0l-1 97l777 1195h-691l9 115h826l12 -97l-771 -1195h810l-10 -115h-961zM574 1627l189 158h121l-226 -257h-168l-226 257h120z" />
    <glyph glyph-name="zcaron" unicode="&#x17e;" horiz-adv-x="880" 
d="M53 0l-3 100l553 775h-489l16 110h623l10 -98l-556 -777h616l-16 -110h-754zM457 1225l189 158h121l-226 -257h-168l-226 257h120z" />
    <glyph glyph-name="uni018F" unicode="&#x18f;" horiz-adv-x="1385" 
d="M116 1070q35 99 95 169q169 197 466 197q225 0 354 -95q144 -107 209 -329q41 -142 41 -311q0 -313 -135 -511q-148 -219 -453 -219q-391 0 -526 368q-57 155 -62 405h1034q-7 179 -54 302q-57 148 -162 211q-96 59 -244 59q-231 0 -357 -148q-45 -53 -76 -149zM1138 630
h-891q8 -166 57 -285q54 -130 157 -196q100 -64 231 -64q181 0 297 117q68 69 102 165.5t47 262.5z" />
    <glyph glyph-name="florin" unicode="&#x192;" 
d="M482 662h-186l8 113h202l72 350q29 143 91 210q75 83 216 83q82 0 183 -33l-34 -114q-70 33 -139 33q-87 0 -129.5 -55t-74.5 -209l-54 -265h243l-9 -113h-258l-165 -803q-29 -141 -90 -207q-74 -81 -215 -81q-85 0 -182 31l36 112q73 -29 135 -29q88 0 129.5 53.5
t73.5 208.5z" />
    <glyph glyph-name="uni01C4" unicode="&#x1c4;" horiz-adv-x="2303" 
d="M199 0v1407h344q318 0 472 -138q94 -84 144.5 -229.5t50.5 -331.5q0 -228 -79 -400q-72 -158 -220 -233t-385 -75h-327zM330 115h177q278 0 407 119q92 85 132 245q27 111 27 234q0 218 -83 376q-80 152 -266 186q-93 17 -236 17h-158v-1177zM1291 0l-1 97l777 1195h-691
l9 115h826l13 -97l-772 -1195h810l-10 -115h-961zM1827 1627l189 158h121l-226 -257h-168l-226 257h120z" />
    <glyph glyph-name="uni01C5" unicode="&#x1c5;" horiz-adv-x="2133" 
d="M199 0v1407h344q318 0 472 -138q94 -84 144.5 -229.5t50.5 -331.5q0 -228 -79 -400q-72 -158 -220 -233t-385 -75h-327zM330 115h177q278 0 407 119q92 85 132 245q27 111 27 234q0 218 -83 376q-80 152 -266 186q-93 17 -236 17h-158v-1177zM1305 0l-2 100l553 775h-490
l16 110h623l10 -98l-555 -777h616l-17 -110h-754zM1710 1225l189 158h121l-227 -257h-167l-227 257h121z" />
    <glyph glyph-name="uni01C6" unicode="&#x1c6;" horiz-adv-x="1916" 
d="M781 955v496l129 26v-1477h-103l-21 123q-71 -81 -145.5 -116.5t-172.5 -35.5q-138 0 -231 78q-141 119 -141 411q0 229 105 381q66 96 175 141q76 32 167 32q148 0 238 -59zM781 835q-95 69 -218 69q-176 0 -259 -143q-74 -126 -74 -307q0 -171 61 -271
q29 -47 81.5 -74.5t112.5 -27.5q68 0 132 32t107 87q33 43 45 83t12 108v444zM1088 0l-3 100l554 775h-490l16 110h623l10 -98l-556 -777h616l-16 -110h-754zM1492 1225l189 158h121l-226 -257h-167l-227 257h121z" />
    <glyph glyph-name="uni01C7" unicode="&#x1c7;" horiz-adv-x="1480" 
d="M199 0v1407h131v-1292h593l-10 -115h-714zM1148 1407h131v-975q0 -212 -12.5 -318t-47.5 -187q-57 -132 -222 -278l-67 58q83 91 114.5 141t57.5 128q46 141 46 474v957z" />
    <glyph glyph-name="uni01C8" unicode="&#x1c8;" horiz-adv-x="1481" 
d="M199 0v1407h131v-1292h593l-10 -115h-714zM1153 985h129v-965q0 -185 -38 -283.5t-150 -201.5l-62 52q78 114 99 205q22 91 22 334v859zM1219 1352q39 0 66.5 -28t27.5 -67q0 -40 -28 -68t-67 -28q-40 0 -68 28t-28 68t28 67.5t69 27.5z" />
    <glyph glyph-name="uni01C9" unicode="&#x1c9;" horiz-adv-x="1059" 
d="M198 0v1450l129 27v-1477h-129zM730 985h129v-965q0 -185 -38 -283.5t-150 -201.5l-62 52q78 116 99 205q22 92 22 334v859zM796 1352q39 0 66.5 -28t27.5 -67q0 -40 -28 -68t-67 -28q-40 0 -68 28t-28 68t28 67.5t69 27.5z" />
    <glyph glyph-name="uni01CA" unicode="&#x1ca;" horiz-adv-x="1975" 
d="M198 0v1407h135l784 -1179v1179h128v-1407h-120l-799 1196v-1196h-128zM1643 1407h131v-975q0 -213 -12.5 -317.5t-47.5 -187.5q-56 -132 -222 -278l-67 58q83 91 114.5 141t57.5 128q46 141 46 474v957z" />
    <glyph glyph-name="uni01CB" unicode="&#x1cb;" horiz-adv-x="1977" 
d="M198 0v1407h135l784 -1179v1179h128v-1407h-120l-799 1196v-1196h-128zM1648 985h129v-965q0 -185 -38.5 -284t-149.5 -201l-62 52q78 114 99 205q22 91 22 334v859zM1714 1352q39 0 66.5 -28t27.5 -67q0 -40 -28 -68t-67 -28q-40 0 -68 28t-28 68t28 67.5t69 27.5z" />
    <glyph glyph-name="uni01CC" unicode="&#x1cc;" horiz-adv-x="1669" 
d="M187 0v985h110l17 -160q61 59 109 95q122 94 269 94q101 0 171 -41.5t96 -117.5q23 -69 23 -245v-610h-129v663q0 123 -30 173q-39 65 -149 65q-174 0 -358 -210v-691h-129zM1340 985h129v-965q0 -185 -38 -283t-150 -202l-62 52q78 114 99 205q22 92 22 334v859z
M1406 1352q39 0 66.5 -28t27.5 -67q0 -40 -28 -68t-67 -28q-40 0 -68 28t-28 68t28 67.5t69 27.5z" />
    <glyph glyph-name="uni01CD" unicode="&#x1cd;" horiz-adv-x="1292" 
d="M957 462h-627l-187 -462h-138l580 1407h122l581 -1407h-143zM913 574l-270 664l-269 -664h539zM647 1627l189 158h121l-226 -257h-168l-226 257h120z" />
    <glyph glyph-name="uni01CE" unicode="&#x1ce;" horiz-adv-x="1021" 
d="M711 630v52q0 105 -35 154q-48 68 -182 68q-159 0 -305 -112l-56 101q170 121 370 121q219 0 296 -129q27 -44 35 -94.5t8 -168.5v-622h-105l-22 118q-100 -147 -328 -147q-296 0 -296 292q0 147 90 232q67 63 168 90t330 42zM712 525q-189 -15 -269 -32
q-218 -46 -218 -227q0 -186 183 -186q145 0 244 97q34 32 47 64t13 81v203zM492 1225l189 158h121l-226 -257h-168l-226 257h120z" />
    <glyph glyph-name="uni01CF" unicode="&#x1cf;" horiz-adv-x="548" 
d="M208 0v1407h131v-1407h-131zM274 1636l189 159h121l-226 -258h-167l-227 258h121z" />
    <glyph glyph-name="uni01D0" unicode="&#x1d0;" horiz-adv-x="528" 
d="M199 0v985h129v-985h-129zM264 1225l189 158h121l-226 -257h-167l-227 257h121z" />
    <glyph glyph-name="uni01D1" unicode="&#x1d1;" horiz-adv-x="1391" 
d="M705 1436q192 0 329 -99q148 -107 211 -323q41 -140 41 -311q0 -313 -135 -516q-144 -216 -456 -216t-455 216q-136 203 -136 513q0 320 136 517q150 219 465 219zM703 1321q-248 0 -363 -183q-99 -157 -99 -438q0 -273 99 -435q110 -179 355 -179t355 179q99 163 99 438
q0 278 -99 435q-60 94 -159 141q-88 42 -188 42zM695 1636l189 159h121l-226 -258h-167l-227 258h121z" />
    <glyph glyph-name="uni01D2" unicode="&#x1d2;" horiz-adv-x="1083" 
d="M549 1014q210 0 327 -145q112 -139 112 -377q0 -236 -112 -376q-116 -145 -334 -145t-334 145q-112 140 -112 375q0 239 112 378q116 145 341 145zM547 904q-179 0 -255 -137q-62 -113 -62 -275q0 -160 62 -274q74 -137 250 -137t250 137q62 114 62 275q0 163 -62 274
q-76 137 -245 137zM542 1225l189 158h121l-226 -257h-167l-227 257h121z" />
    <glyph glyph-name="uni01D3" unicode="&#x1d3;" horiz-adv-x="1332" 
d="M192 1407h131v-848q0 -257 50 -346q72 -127 293 -127q239 0 305 151q38 88 38 322v848h131v-895q0 -239 -59 -349q-101 -192 -415 -192q-337 0 -430 223q-44 104 -44 318v895zM666 1627l189 158h121l-226 -257h-167l-227 257h121z" />
    <glyph glyph-name="uni01D4" unicode="&#x1d4;" horiz-adv-x="1131" 
d="M820 130q-91 -84 -175 -121.5t-181 -37.5q-209 0 -262 159q-23 69 -23 244v611h129v-663q0 -124 30 -175q38 -64 144 -64q176 0 332 175v727h129v-985h-103zM564 1225l189 158h121l-226 -257h-167l-227 257h121z" />
    <glyph glyph-name="uni01DD" unicode="&#x1dd;" horiz-adv-x="1042" 
d="M815 508q-1 121 -44 218q-42 94 -118 136q-78 42 -206 42q-147 0 -272 -102l-61 98q148 114 357 114q234 0 354 -137q121 -138 121 -380q0 -231 -102 -375q-107 -151 -325 -151q-259 0 -366 213q-59 115 -59 275q0 23 2 49h719zM809 402h-580q28 -322 292 -322
q254 0 288 322z" />
    <glyph glyph-name="Gcaron" unicode="&#x1e6;" horiz-adv-x="1285" 
d="M1013 140v432h-318l18 113h431v-620q-171 -94 -400 -94q-640 0 -640 717q0 426 226 616q157 132 393 132q198 0 364 -99l-49 -111q-88 53 -157 74t-154 21q-246 0 -359 -154q-127 -173 -127 -464q0 -284 111 -449q114 -169 393 -169q163 0 268 55zM709 1627l189 158h121
l-226 -257h-167l-227 257h121z" />
    <glyph glyph-name="gcaron" unicode="&#x1e7;" horiz-adv-x="1085" 
d="M769 130q-132 -159 -309 -159q-136 0 -227 77q-137 114 -137 398q0 230 100 384q120 184 360 184q80 0 147.5 -12.5t194.5 -50.5v-755q0 -286 -26 -402q-28 -126 -128.5 -194t-259.5 -68q-162 0 -294 56l44 107q106 -53 247 -53q200 0 253 137q35 92 35 304v47zM769 861
q-120 43 -212 43q-167 0 -247 -131t-80 -337q0 -355 244 -355q149 0 240 119q32 43 43.5 83t11.5 108v470zM579 1225l189 158h121l-227 -257h-167l-227 257h121z" />
    <glyph glyph-name="uni01EA" unicode="&#x1ea;" horiz-adv-x="1391" 
d="M816 -19l-14 -12q-74 -61 -106 -113.5t-32 -113.5q0 -71 41 -103.5t131 -32.5q57 0 114 14l17 -74q-82 -24 -171 -24q-128 0 -195 47q-66 46 -66 153q0 71 36.5 130t117.5 120q-97 3 -159 17q-233 50 -345 297q-81 176 -81 417q0 313 136 514q147 219 455 219t456 -219
q135 -201 135 -514q0 -308 -124.5 -499.5t-345.5 -222.5zM703 1321q-248 0 -363 -183q-99 -157 -99 -438q0 -273 99 -435q110 -179 355 -179t355 179q99 163 99 438q0 278 -99 435q-60 94 -159 141q-88 42 -188 42z" />
    <glyph glyph-name="uni01EB" unicode="&#x1eb;" horiz-adv-x="1083" 
d="M668 -14q-84 -65 -121.5 -122.5t-37.5 -121.5q0 -71 41 -103.5t131 -32.5q57 0 114 14l17 -74q-82 -24 -171 -24q-128 0 -195 47q-66 46 -66 153q0 71 36.5 130t117.5 119q-162 3 -268 88q-170 135 -170 434q0 236 112 376q116 145 334 145t334 -145q112 -140 112 -376
q0 -206 -81.5 -335t-238.5 -172zM547 904q-179 0 -255 -137q-62 -113 -62 -275q0 -160 62 -274q74 -137 250 -137t250 137q62 114 62 275q0 163 -62 274q-76 137 -245 137z" />
    <glyph glyph-name="uni01F1" unicode="&#x1f1;" horiz-adv-x="2303" 
d="M199 0v1407h344q318 0 472 -138q94 -84 144.5 -229.5t50.5 -331.5q0 -228 -79 -400q-72 -158 -220 -233t-385 -75h-327zM330 115h177q278 0 407 119q92 85 132 245q27 111 27 234q0 218 -83 376q-80 152 -266 186q-93 17 -236 17h-158v-1177zM1291 0l-1 97l777 1195h-691
l9 115h826l13 -97l-772 -1195h810l-10 -115h-961z" />
    <glyph glyph-name="uni01F2" unicode="&#x1f2;" horiz-adv-x="2133" 
d="M199 0v1407h344q318 0 472 -138q94 -84 144.5 -229.5t50.5 -331.5q0 -228 -79 -400q-72 -158 -220 -233t-385 -75h-327zM330 115h177q278 0 407 119q92 85 132 245q27 111 27 234q0 218 -83 376q-80 152 -266 186q-93 17 -236 17h-158v-1177zM1305 0l-2 100l553 775h-490
l16 110h623l10 -98l-555 -777h616l-17 -110h-754z" />
    <glyph glyph-name="uni01F3" unicode="&#x1f3;" horiz-adv-x="1916" 
d="M781 955v496l129 26v-1477h-103l-21 123q-71 -81 -145.5 -116.5t-172.5 -35.5q-138 0 -231 78q-141 119 -141 411q0 229 105 381q66 96 175 141q76 32 167 32q148 0 238 -59zM781 835q-95 69 -218 69q-176 0 -259 -143q-74 -126 -74 -307q0 -171 61 -271
q29 -47 81.5 -74.5t112.5 -27.5q68 0 132 32t107 87q33 43 45 83t12 108v444zM1088 0l-3 100l554 775h-490l16 110h623l10 -98l-556 -777h616l-16 -110h-754z" />
    <glyph glyph-name="uni01F4" unicode="&#x1f4;" horiz-adv-x="1285" 
d="M1013 140v432h-318l18 113h431v-620q-171 -94 -400 -94q-640 0 -640 717q0 426 226 616q157 132 393 132q198 0 364 -99l-49 -111q-88 53 -157 74t-154 21q-246 0 -359 -154q-127 -173 -127 -464q0 -284 111 -449q114 -169 393 -169q163 0 268 55zM582 1528l156 257h190
l-242 -257h-104z" />
    <glyph glyph-name="uni01F5" unicode="&#x1f5;" horiz-adv-x="1085" 
d="M769 130q-132 -159 -309 -159q-136 0 -227 77q-137 114 -137 398q0 230 100 384q120 184 360 184q80 0 147.5 -12.5t194.5 -50.5v-755q0 -286 -26 -402q-28 -126 -128.5 -194t-259.5 -68q-162 0 -294 56l44 107q106 -53 247 -53q200 0 253 137q35 92 35 304v47zM769 861
q-120 43 -212 43q-167 0 -247 -131t-80 -337q0 -355 244 -355q149 0 240 119q32 43 43.5 83t11.5 108v470zM480 1126l156 257h190l-241 -257h-105z" />
    <glyph glyph-name="Aringacute" unicode="&#x1fa;" horiz-adv-x="1292" 
d="M564 1356q-106 45 -106 166q0 82 50 130t135 48t134.5 -48t49.5 -130q0 -122 -99 -164l560 -1358h-143l-188 462h-627l-187 -462h-138zM913 574l-270 664l-269 -664h539zM644 1635q-105 0 -105 -114t103 -114q104 0 104 114t-102 114zM546 1741l152 242h187l-237 -242
h-102z" />
    <glyph glyph-name="aringacute" unicode="&#x1fb;" horiz-adv-x="1021" 
d="M711 630v52q0 105 -35 154q-48 68 -182 68q-159 0 -305 -112l-56 101q170 121 370 121q219 0 296 -129q27 -44 35 -94.5t8 -168.5v-622h-105l-22 118q-100 -147 -328 -147q-296 0 -296 292q0 147 90 232q67 63 168 90t330 42zM712 525q-189 -15 -269 -32
q-218 -46 -218 -227q0 -186 183 -186q145 0 244 97q34 32 47 64t13 81v203zM513 1459q83 0 132.5 -48.5t49.5 -129.5q0 -82 -50 -130.5t-134 -48.5q-85 0 -135 48.5t-50 130.5t50 130t137 48zM512 1394q-105 0 -105 -114q0 -113 104 -113q103 0 103 114q0 113 -102 113z
M410 1516l152 250h188l-238 -250h-102z" />
    <glyph glyph-name="AEacute" unicode="&#x1fc;" horiz-adv-x="1759" 
d="M858 455h-499l-253 -455h-152l803 1407h891l-9 -115h-650v-481h556l-9 -114h-547v-582h685l-12 -115h-804v455zM858 570v721h-36l-400 -721h436zM1087 1528l156 257h190l-241 -257h-105z" />
    <glyph glyph-name="aeacute" unicode="&#x1fd;" horiz-adv-x="1629" 
d="M792 181q-121 -210 -403 -210q-144 0 -215 64q-80 74 -80 217q0 126 77.5 202t238.5 107q87 16 228 24q57 3 76 5v91q0 121 -50 172t-170 51q-155 0 -301 -112l-57 101q171 121 367 121q241 0 307 -177q112 177 326 177q188 0 293.5 -130t105.5 -362q0 -23 -2 -45h-691
q1 -121 42 -218q40 -94 113 -136q75 -42 197 -42q141 0 261 102l61 -98q-140 -114 -345 -114q-271 0 -379 210zM715 484q-189 -12 -269 -27q-218 -41 -218 -204q0 -84 46.5 -128t135.5 -44q146 0 245 96q35 33 47.5 64t12.5 81v162zM1399 583q-26 321 -266 321
q-251 0 -285 -321h551zM706 1126l156 257h190l-242 -257h-104z" />
    <glyph glyph-name="Oslashacute" unicode="&#x1fe;" horiz-adv-x="1391" 
d="M220 215q-118 202 -118 487q0 315 136 515q148 219 455 219q243 0 393 -144l115 143l88 -71l-130 -163q126 -203 126 -496q0 -315 -136 -518q-144 -216 -459 -216q-132 0 -226.5 35.5t-170.5 113.5l-102 -128l-91 73zM309 325l697 868q-119 128 -315 128q-156 0 -267 -87
q-185 -146 -185 -532q0 -227 70 -377zM373 219q117 -133 318 -133q457 0 457 621q0 227 -76 385zM586 1528l156 257h191l-242 -257h-105z" />
    <glyph glyph-name="oslashacute" unicode="&#x1ff;" horiz-adv-x="1083" 
d="M180 156q-83 139 -83 338q0 236 112 375q116 145 333 145q168 0 288 -97l99 116l82 -72l-108 -128q86 -136 86 -341q0 -236 -112 -376q-116 -145 -332 -145q-180 0 -293 100l-97 -114l-84 72zM272 264l478 561q-77 79 -209 79q-172 0 -248 -136q-62 -114 -62 -278
q0 -118 41 -226zM811 727l-479 -563q80 -83 212 -83q175 0 249 137q62 114 62 276q0 128 -44 233zM431 1126l156 257h191l-242 -257h-105z" />
    <glyph glyph-name="uni0200" unicode="&#x200;" horiz-adv-x="1292" 
d="M957 462h-627l-187 -462h-138l580 1407h122l581 -1407h-143zM913 574l-270 664l-269 -664h539zM823 1534h-94l-201 257h188zM552 1534h-94l-201 257h188z" />
    <glyph glyph-name="uni0201" unicode="&#x201;" horiz-adv-x="1021" 
d="M711 630v52q0 105 -35 154q-48 68 -182 68q-159 0 -305 -112l-56 101q170 121 370 121q219 0 296 -129q27 -44 35 -94.5t8 -168.5v-622h-105l-22 118q-100 -147 -328 -147q-296 0 -296 292q0 147 90 232q67 63 168 90t330 42zM712 525q-189 -15 -269 -32
q-218 -46 -218 -227q0 -186 183 -186q145 0 244 97q34 32 47 64t13 81v203zM719 1126h-94l-201 257h188zM447 1126h-93l-201 257h187z" />
    <glyph glyph-name="uni0202" unicode="&#x202;" horiz-adv-x="1292" 
d="M957 462h-627l-187 -462h-138l580 1407h122l581 -1407h-143zM913 574l-270 664l-269 -664h539zM926 1525h-102q-7 77 -33 105q-41 43 -145 43q-94 0 -132 -31.5t-46 -116.5h-101q5 114 38 165q61 92 241 92q150 0 212 -56.5t68 -200.5z" />
    <glyph glyph-name="uni0203" unicode="&#x203;" horiz-adv-x="1021" 
d="M711 630v52q0 105 -35 154q-48 68 -182 68q-159 0 -305 -112l-56 101q170 121 370 121q219 0 296 -129q27 -44 35 -94.5t8 -168.5v-622h-105l-22 118q-100 -147 -328 -147q-296 0 -296 292q0 147 90 232q67 63 168 90t330 42zM712 525q-189 -15 -269 -32
q-218 -46 -218 -227q0 -186 183 -186q145 0 244 97q34 32 47 64t13 81v203zM790 1116h-102q-7 78 -33 106q-41 43 -145 43q-93 0 -131 -32t-47 -117h-101q5 114 38 165q61 93 242 93q149 0 211 -57t68 -201z" />
    <glyph glyph-name="uni0204" unicode="&#x204;" horiz-adv-x="1116" 
d="M199 0v1407h805l-8 -115h-666v-481h572l-9 -114h-563v-582h700l-11 -115h-820zM850 1534h-94l-201 257h188zM579 1534h-94l-201 257h188z" />
    <glyph glyph-name="uni0205" unicode="&#x205;" horiz-adv-x="1014" 
d="M918 477h-691q1 -121 42 -219q40 -94 113 -135q75 -43 198 -43q140 0 260 103l61 -98q-141 -114 -345 -114q-227 0 -343 137q-117 138 -117 378q0 234 103 377q109 151 323 151q187 0 292.5 -130t105.5 -362q0 -22 -2 -45zM785 583q-23 321 -267 321q-251 0 -285 -321
h552zM754 1126h-94l-200 257h187zM483 1126h-94l-201 257h188z" />
    <glyph glyph-name="uni0206" unicode="&#x206;" horiz-adv-x="1115" 
d="M199 0v1407h805l-8 -115h-666v-481h572l-9 -114h-563v-582h700l-11 -115h-820zM880 1525h-101q-7 77 -34 105q-41 43 -144 43q-94 0 -132 -31.5t-46 -116.5h-101q4 114 38 165q61 92 241 92q150 0 211.5 -56.5t67.5 -200.5z" />
    <glyph glyph-name="uni0207" unicode="&#x207;" horiz-adv-x="1014" 
d="M918 477h-691q1 -121 42 -219q40 -94 113 -135q75 -43 198 -43q140 0 260 103l61 -98q-141 -114 -345 -114q-227 0 -343 137q-117 138 -117 378q0 234 103 377q109 151 323 151q187 0 292.5 -130t105.5 -362q0 -22 -2 -45zM785 583q-23 321 -267 321q-251 0 -285 -321
h552zM795 1116h-101q-7 78 -34 106q-41 43 -144 43q-94 0 -132 -32t-46 -117h-101q5 115 38 165q61 93 241 93q150 0 211.5 -57t67.5 -201z" />
    <glyph glyph-name="uni0208" unicode="&#x208;" horiz-adv-x="548" 
d="M209 0v1407h131v-1407h-131zM451 1534h-94l-201 257h188zM179 1534h-93l-201 257h187z" />
    <glyph glyph-name="uni0209" unicode="&#x209;" horiz-adv-x="528" 
d="M200 0v985h129v-985h-129zM441 1126h-94l-201 257h188zM169 1126h-93l-201 257h187z" />
    <glyph glyph-name="uni020A" unicode="&#x20a;" horiz-adv-x="548" 
d="M209 0v1407h131v-1407h-131zM554 1525h-102q-7 77 -33 105q-41 43 -145 43q-94 0 -132 -31.5t-46 -116.5h-101q5 114 38 165q61 92 241 92q150 0 212 -56.5t68 -200.5z" />
    <glyph glyph-name="uni020B" unicode="&#x20b;" horiz-adv-x="528" 
d="M200 0v985h129v-985h-129zM544 1116h-102q-7 78 -33 106q-41 43 -145 43q-94 0 -132 -32t-46 -117h-101q5 114 38 165q61 93 241 93q150 0 212 -57t68 -201z" />
    <glyph glyph-name="uni020C" unicode="&#x20c;" horiz-adv-x="1391" 
d="M705 1436q192 0 329 -99q148 -107 211 -323q41 -140 41 -311q0 -313 -135 -516q-144 -216 -456 -216t-455 216q-136 203 -136 513q0 320 136 517q150 219 465 219zM703 1321q-248 0 -363 -183q-99 -157 -99 -438q0 -273 99 -435q110 -179 355 -179t355 179q99 163 99 438
q0 278 -99 435q-60 94 -159 141q-88 42 -188 42zM872 1534h-94l-201 257h188zM600 1534h-93l-201 257h187z" />
    <glyph glyph-name="uni020D" unicode="&#x20d;" horiz-adv-x="1083" 
d="M549 1014q210 0 327 -145q112 -139 112 -377q0 -236 -112 -376q-116 -145 -334 -145t-334 145q-112 140 -112 375q0 239 112 378q116 145 341 145zM547 904q-179 0 -255 -137q-62 -113 -62 -275q0 -160 62 -274q74 -137 250 -137t250 137q62 114 62 275q0 163 -62 274
q-76 137 -245 137zM719 1126h-94l-201 257h188zM447 1126h-93l-201 257h187z" />
    <glyph glyph-name="uni020E" unicode="&#x20e;" horiz-adv-x="1391" 
d="M705 1436q192 0 329 -99q148 -107 211 -323q41 -140 41 -311q0 -313 -135 -516q-144 -216 -456 -216t-455 216q-136 203 -136 513q0 320 136 517q150 219 465 219zM703 1321q-248 0 -363 -183q-99 -157 -99 -438q0 -273 99 -435q110 -179 355 -179t355 179q99 163 99 438
q0 278 -99 435q-60 94 -159 141q-88 42 -188 42zM975 1525h-102q-8 78 -34 105q-40 43 -144 43q-94 0 -132 -31.5t-46 -116.5h-101q5 114 38 165q61 92 241 92q150 0 211.5 -56.5t68.5 -200.5z" />
    <glyph glyph-name="uni020F" unicode="&#x20f;" horiz-adv-x="1083" 
d="M549 1014q210 0 327 -145q112 -139 112 -377q0 -236 -112 -376q-116 -145 -334 -145t-334 145q-112 140 -112 375q0 239 112 378q116 145 341 145zM547 904q-179 0 -255 -137q-62 -113 -62 -275q0 -160 62 -274q74 -137 250 -137t250 137q62 114 62 275q0 163 -62 274
q-76 137 -245 137zM822 1116h-102q-7 78 -34 106q-41 43 -144 43q-94 0 -132 -32t-46 -117h-101q5 115 38 165q61 93 241 93q193 0 250 -107q25 -47 30 -151z" />
    <glyph glyph-name="uni0210" unicode="&#x210;" horiz-adv-x="1209" 
d="M320 604v-604h-131v1407h395q240 0 344 -85q121 -100 121 -301q0 -149 -64.5 -247t-184.5 -132q40 -28 62.5 -59.5t68.5 -122.5l231 -460h-153l-166 335q-97 196 -130 232.5t-112 36.5h-281zM320 718h210q218 0 296 65q86 72 86 235q0 169 -105 229q-79 46 -283 46h-204
v-575zM771 1534h-94l-200 257h187zM500 1534h-94l-200 257h187z" />
    <glyph glyph-name="uni0211" unicode="&#x211;" horiz-adv-x="718" 
d="M188 0v985h110l17 -184q118 109 200.5 148.5t197.5 43.5l-8 -112q-187 9 -388 -214v-667h-129zM582 1126h-94l-201 257h188zM310 1126h-93l-201 257h187z" />
    <glyph glyph-name="uni0212" unicode="&#x212;" horiz-adv-x="1209" 
d="M330 604v-604h-131v1407h395q240 0 344 -85q121 -100 121 -301q0 -149 -64.5 -247t-184.5 -132q40 -28 62.5 -59.5t68.5 -122.5l231 -460h-153l-166 335q-97 196 -130 232.5t-112 36.5h-281zM330 718h210q218 0 296 65q86 72 86 235q0 169 -105 229q-79 46 -283 46h-204
v-575zM848 1525h-102q-7 77 -33 105q-41 43 -145 43q-94 0 -131.5 -31.5t-46.5 -116.5h-101q5 114 38 165q61 92 242 92q150 0 211.5 -56.5t67.5 -200.5z" />
    <glyph glyph-name="uni0213" unicode="&#x213;" horiz-adv-x="718" 
d="M187 0v985h110l17 -184q118 109 200.5 148.5t197.5 43.5l-8 -112q-187 9 -388 -214v-667h-129zM684 1116h-102q-7 78 -33 106q-41 43 -145 43q-94 0 -132 -32t-46 -117h-101q5 114 38 165q61 93 241 93q150 0 212 -57t68 -201z" />
    <glyph glyph-name="uni0214" unicode="&#x214;" horiz-adv-x="1332" 
d="M192 1407h131v-848q0 -257 50 -346q72 -127 293 -127q239 0 305 151q38 88 38 322v848h131v-895q0 -239 -59 -349q-101 -192 -415 -192q-337 0 -430 223q-44 104 -44 318v895zM852 1534h-94l-201 257h188zM580 1534h-93l-201 257h187z" />
    <glyph glyph-name="uni0215" unicode="&#x215;" horiz-adv-x="1131" 
d="M811 130q-91 -84 -175 -121.5t-181 -37.5q-209 0 -262 159q-23 69 -23 244v611h129v-663q0 -124 30 -175q38 -64 144 -64q176 0 332 175v727h129v-985h-103zM740 1126h-94l-201 257h188zM469 1126h-94l-201 257h188z" />
    <glyph glyph-name="uni0216" unicode="&#x216;" horiz-adv-x="1332" 
d="M192 1407h131v-848q0 -257 50 -346q72 -127 293 -127q239 0 305 151q38 88 38 322v848h131v-895q0 -239 -59 -349q-101 -192 -415 -192q-337 0 -430 223q-44 104 -44 318v895zM945 1525h-101q-7 77 -34 105q-41 43 -145 43q-93 0 -131 -31.5t-46 -116.5h-102
q5 114 38 165q62 92 242 92q150 0 211.5 -56.5t67.5 -200.5z" />
    <glyph glyph-name="uni0217" unicode="&#x217;" horiz-adv-x="1131" 
d="M820 130q-91 -84 -175 -121.5t-181 -37.5q-209 0 -262 159q-23 69 -23 244v611h129v-663q0 -124 30 -175q38 -64 144 -64q176 0 332 175v727h129v-985h-103zM845 1116h-102q-7 78 -33 106q-42 43 -145 43q-94 0 -132 -32t-46 -117h-101q5 114 38 165q61 93 241 93
q150 0 212 -57t68 -201z" />
    <glyph glyph-name="Scommaaccent" unicode="&#x218;" horiz-adv-x="1002" 
d="M84 53l48 116q139 -83 308 -83q187 0 271 85q72 73 72 188q0 91 -44 155q-30 43 -79 74t-168 82q-206 87 -288 156q-100 84 -100 241q0 193 130 290q105 79 280 79q179 0 328 -82l-50 -106q-133 73 -278 73q-121 0 -194 -55q-82 -62 -82 -186q0 -102 61 -157
q31 -29 85.5 -57.5t182.5 -84.5q129 -56 191.5 -97.5t98.5 -95.5q61 -91 61 -225q0 -95 -36 -174.5t-100 -127.5q-120 -90 -332 -90q-214 0 -366 82zM354 -500l70 374h143l-109 -374h-104z" />
    <glyph glyph-name="scommaaccent" unicode="&#x219;" horiz-adv-x="773" 
d="M27 57l55 117q103 -94 248 -94q226 0 226 179q0 75 -36.5 112.5t-162.5 91.5q-159 67 -216.5 128t-57.5 161q0 123 79.5 192.5t220.5 69.5q134 0 274 -73l-56 -105q-110 68 -221 68q-170 0 -170 -144q0 -60 39 -94q24 -22 47.5 -34.5t138.5 -63.5q149 -67 199 -126
t50 -168q0 -303 -352 -303q-182 0 -305 86zM226 -500l70 374h143l-109 -374h-104z" />
    <glyph glyph-name="uni021A" unicode="&#x21a;" horiz-adv-x="1018" 
d="M444 0v1292h-423l8 115h968l-9 -115h-413v-1292h-131zM373 -500l69 374h143l-108 -374h-104z" />
    <glyph glyph-name="uni021B" unicode="&#x21b;" horiz-adv-x="686" 
d="M230 875h-168l8 110h161l13 240l115 37v-277h226l-9 -110h-217v-561q0 -150 15 -187q18 -43 96 -43q61 0 120 33l27 -103q-79 -43 -177 -43q-112 0 -161 57.5t-49 190.5v656zM226 -500l70 374h143l-109 -374h-104z" />
    <glyph glyph-name="uni0226" unicode="&#x226;" horiz-adv-x="1292" 
d="M957 462h-627l-187 -462h-138l580 1407h122l581 -1407h-143zM913 574l-270 664l-269 -664h539zM648 1756q39 0 66.5 -28t27.5 -67q0 -40 -28 -68t-68 -28q-39 0 -67 28t-28 68t28 67.5t69 27.5z" />
    <glyph glyph-name="uni0227" unicode="&#x227;" horiz-adv-x="1021" 
d="M711 630v52q0 105 -35 154q-48 68 -182 68q-159 0 -305 -112l-56 101q170 121 370 121q219 0 296 -129q27 -44 35 -94.5t8 -168.5v-622h-105l-22 118q-100 -147 -328 -147q-296 0 -296 292q0 147 90 232q67 63 168 90t330 42zM712 525q-189 -15 -269 -32
q-218 -46 -218 -227q0 -186 183 -186q145 0 244 97q34 32 47 64t13 81v203zM515 1352q39 0 66.5 -28t27.5 -67q0 -40 -28 -68t-68 -28q-39 0 -67 28t-28 68t28 67.5t69 27.5z" />
    <glyph glyph-name="uni0237" unicode="&#x237;" horiz-adv-x="534" 
d="M205 985h129v-965q0 -185 -38 -283t-150 -202l-62 52q78 114 99 205q22 92 22 334v859z" />
    <glyph glyph-name="uni0259" unicode="&#x259;" horiz-adv-x="1042" 
d="M815 508q-1 121 -44 218q-42 94 -118 136q-78 42 -206 42q-147 0 -272 -102l-61 98q148 114 357 114q234 0 354 -137q121 -138 121 -380q0 -231 -102 -375q-107 -151 -325 -151q-259 0 -366 213q-59 115 -59 275q0 23 2 49h719zM809 402h-580q28 -322 292 -322
q254 0 288 322z" />
    <glyph glyph-name="afii57929" unicode="&#x2bc;" horiz-adv-x="362" 
d="M90 1004l51 445h147l-98 -445h-100z" />
    <glyph glyph-name="circumflex" unicode="&#x2c6;" horiz-adv-x="1024" 
d="M512 1284l-189 -158h-121l226 257h167l227 -257h-121z" />
    <glyph glyph-name="caron" unicode="&#x2c7;" horiz-adv-x="1024" 
d="M512 1225l189 158h121l-226 -257h-167l-227 257h121z" />
    <glyph glyph-name="uni02C9" unicode="&#x2c9;" horiz-adv-x="1024" 
d="M254 1201v108h516v-108h-516z" />
    <glyph glyph-name="breve" unicode="&#x2d8;" horiz-adv-x="1024" 
d="M231 1377h105q7 -64 26 -92q38 -55 150 -55q90 0 129.5 33t46.5 114h106q-5 -107 -44 -163q-69 -97 -235 -97q-143 0 -210.5 62t-73.5 198z" />
    <glyph glyph-name="dotaccent" unicode="&#x2d9;" horiz-adv-x="1024" 
d="M514 1352q39 0 66.5 -28t27.5 -67q0 -40 -28 -68t-67 -28q-40 0 -68 28t-28 68t28 67.5t69 27.5z" />
    <glyph glyph-name="ring" unicode="&#x2da;" horiz-adv-x="1024" 
d="M514 1469q82 0 131.5 -49.5t49.5 -132.5t-49.5 -132t-133.5 -49t-134 49t-50 132q0 84 50 133t136 49zM513 1403q-50 0 -78 -30.5t-28 -85.5q0 -54 28 -84.5t77 -30.5q48 0 76 30.5t28 85.5q0 53 -27.5 84t-75.5 31z" />
    <glyph glyph-name="ogonek" unicode="&#x2db;" horiz-adv-x="1024" 
d="M544 0h111q-101 -80 -138.5 -135t-37.5 -123q0 -71 41 -103.5t131 -32.5q57 0 114 14l17 -74q-82 -24 -170 -24q-129 0 -196 47q-66 46 -66 153q0 79 43.5 141t150.5 137z" />
    <glyph glyph-name="tilde" unicode="&#x2dc;" horiz-adv-x="1024" 
d="M747 1362h88q-44 -237 -207 -237q-40 0 -73.5 16.5t-80.5 59.5q-68 61 -103 61q-55 0 -94 -121h-87q23 113 77.5 174t131.5 61q76 0 154 -74q40 -38 60 -50.5t41 -12.5q59 0 93 123z" />
    <glyph glyph-name="hungarumlaut" unicode="&#x2dd;" horiz-adv-x="1024" 
d="M332 1126l109 257h189l-202 -257h-96zM604 1126l108 257h189l-202 -257h-95z" />
    <glyph glyph-name="uni0312" unicode="&#x312;" horiz-adv-x="1024" 
d="M712 1385l-165 -259h-190l250 259h105z" />
    <glyph glyph-name="uni0313" unicode="&#x313;" horiz-adv-x="200" 
d="M-8 1031l51 445h152l-99 -445h-104z" />
    <glyph glyph-name="uni031B" unicode="&#x31b;" horiz-adv-x="200" 
d="M-8 1031l51 445h152l-99 -445h-104z" />
    <glyph glyph-name="uni0323" unicode="&#x323;" horiz-adv-x="1024" 
d="M514 -194q37 0 64 -28t27 -66q0 -40 -27 -67.5t-66 -27.5t-66 27.5t-27 67.5q0 39 27.5 66.5t67.5 27.5z" />
    <glyph glyph-name="commaaccent" unicode="&#x326;" horiz-adv-x="1024" 
d="M401 -500l70 374h143l-109 -374h-104z" />
    <glyph glyph-name="pi" unicode="&#x3c0;" horiz-adv-x="1170" 
d="M223 0v875h-151l8 110h1018l-9 -110h-141v-875h-129v875h-467v-875h-129z" />
    <glyph glyph-name="uni04D8" unicode="&#x4d8;" horiz-adv-x="1385" 
d="M116 1070q35 99 95 169q169 197 466 197q225 0 354 -95q144 -107 209 -329q41 -142 41 -311q0 -313 -135 -511q-148 -219 -453 -219q-391 0 -526 368q-57 155 -62 405h1034q-7 179 -54 302q-57 148 -162 211q-96 59 -244 59q-231 0 -357 -148q-45 -53 -76 -149zM1138 630
h-891q8 -166 57 -285q54 -130 157 -196q100 -64 231 -64q181 0 297 117q68 69 102 165.5t47 262.5z" />
    <glyph glyph-name="afii10846" unicode="&#x4d9;" horiz-adv-x="1042" 
d="M815 508q-1 121 -44 218q-42 94 -118 136q-78 42 -206 42q-147 0 -272 -102l-61 98q148 114 357 114q234 0 354 -137q121 -138 121 -380q0 -231 -102 -375q-107 -151 -325 -151q-259 0 -366 213q-59 115 -59 275q0 23 2 49h719zM809 402h-580q28 -322 292 -322
q254 0 288 322z" />
    <glyph glyph-name="uni1E02" unicode="&#x1e02;" horiz-adv-x="1212" 
d="M199 0v1407h430q229 0 328 -64q129 -84 129 -269q0 -131 -62.5 -214.5t-180.5 -109.5q121 -20 183 -78q101 -94 101 -277q0 -248 -174 -339q-107 -56 -333 -56h-421zM330 802h225q130 0 197.5 12t107.5 43q92 70 92 211q0 130 -91 185q-67 40 -265 40h-266v-491zM330 115
h259q215 0 293 45q108 62 108 228q0 192 -123 256q-84 44 -299 44h-238v-573zM606 1756q39 0 66.5 -28t27.5 -67q0 -40 -28 -68t-67 -28q-40 0 -68 28t-28 68t28.5 67.5t68.5 27.5z" />
    <glyph glyph-name="uni1E03" unicode="&#x1e03;" horiz-adv-x="1100" 
d="M187 67v1384l129 26v-610q128 147 309 147q194 0 285 -141q91 -140 91 -371q0 -227 -103 -373q-112 -158 -335 -158q-163 0 -376 96zM316 147q104 -66 235 -66q167 0 246 130q70 116 70 288q0 179 -59 291q-27 52 -80.5 83t-116.5 31q-67 0 -131.5 -32.5t-106.5 -86.5
q-33 -43 -45 -83t-12 -108v-447zM634 1352q39 0 66.5 -28t27.5 -67q0 -40 -28 -68t-67 -28q-40 0 -68 28t-28 68t28 67.5t69 27.5z" />
    <glyph glyph-name="uni1E0C" unicode="&#x1e0c;" horiz-adv-x="1314" 
d="M199 0v1407h344q318 0 472 -138q94 -84 144.5 -229.5t50.5 -331.5q0 -228 -79 -400q-72 -158 -220 -233t-385 -75h-327zM330 115h177q278 0 407 119q92 85 132 245q27 111 27 234q0 218 -83 376q-80 152 -266 186q-93 17 -236 17h-158v-1177zM592 -194q37 0 64 -28
t27 -66q0 -40 -27 -67.5t-66 -27.5t-66 27.5t-27 67.5t27.5 67t67.5 27z" />
    <glyph glyph-name="uni1E0D" unicode="&#x1e0d;" horiz-adv-x="1097" 
d="M781 955v496l129 26v-1477h-103l-21 123q-71 -81 -145.5 -116.5t-172.5 -35.5q-138 0 -231 78q-141 119 -141 411q0 229 105 381q66 96 175 141q76 32 167 32q148 0 238 -59zM781 835q-95 69 -218 69q-176 0 -259 -143q-74 -126 -74 -307q0 -171 61 -271
q29 -47 81.5 -74.5t112.5 -27.5q68 0 132 32t107 87q33 43 45 83t12 108v444zM551 -194q37 0 64 -28t27 -66q0 -40 -27 -67.5t-66 -27.5t-66 27.5t-27 67.5t27.5 67t67.5 27z" />
    <glyph glyph-name="uni1E1E" unicode="&#x1e1e;" horiz-adv-x="1021" 
d="M199 0v1407h768l-9 -115h-628v-494h543l-9 -114h-534v-684h-131zM605 1756q39 0 66.5 -28t27.5 -67q0 -40 -28 -68t-68 -28t-67.5 28t-27.5 68t28 67.5t69 27.5z" />
    <glyph glyph-name="uni1E1F" unicode="&#x1e1f;" horiz-adv-x="647" 
d="M356 875v-875h-129v875h-190l8 110h182v119q0 172 55 256q70 107 228 107q84 0 157 -30l-30 -104q-61 25 -121 25q-90 0 -125 -55.5t-35 -196.5v-121h266l-10 -110h-256zM335 1765q39 0 66.5 -28t27.5 -67q0 -40 -28 -68t-67 -28q-40 0 -68 28t-28 68t28 67.5t69 27.5z
" />
    <glyph glyph-name="uni1E24" unicode="&#x1e24;" horiz-adv-x="1405" 
d="M199 0v1407h131v-613h746v613h131v-1407h-131v677h-746v-677h-131zM705 -194q37 0 64 -28t27 -66q0 -40 -27 -67.5t-66 -27.5t-66 28t-27 67t27.5 66.5t67.5 27.5z" />
    <glyph glyph-name="uni1E25" unicode="&#x1e25;" horiz-adv-x="1161" 
d="M187 0v1451l129 26v-651q107 105 190 146.5t185 41.5q101 0 171.5 -42t96.5 -117q23 -69 23 -245v-610h-129v655q0 127 -28 178q-39 68 -151 68q-173 0 -358 -210v-691h-129zM583 -194q37 0 64 -28t27 -66q0 -40 -27 -67.5t-66 -27.5t-66 27.5t-27 67.5t27.5 67t67.5 27z
" />
    <glyph glyph-name="uni1E44" unicode="&#x1e44;" horiz-adv-x="1443" 
d="M198 0v1407h135l784 -1179v1179h128v-1407h-120l-799 1196v-1196h-128zM755 1756q39 0 66.5 -28t27.5 -67q0 -40 -28 -68t-67 -28q-40 0 -68 28t-28 68t28 67.5t69 27.5z" />
    <glyph glyph-name="uni1E45" unicode="&#x1e45;" horiz-adv-x="1161" 
d="M187 0v985h110l17 -160q61 59 109 95q122 94 269 94q101 0 171 -41.5t96 -117.5q23 -69 23 -245v-610h-129v663q0 123 -30 173q-39 65 -149 65q-174 0 -358 -210v-691h-129zM582 1352q39 0 66.5 -28t27.5 -67q0 -40 -28 -68t-67 -28q-40 0 -68 28t-28 68t28 67.5t69 27.5
z" />
    <glyph glyph-name="uni1E5A" unicode="&#x1e5a;" horiz-adv-x="1209" 
d="M330 604v-604h-131v1407h395q240 0 344 -85q121 -100 121 -301q0 -149 -64.5 -247t-184.5 -132q40 -28 62.5 -59.5t68.5 -122.5l231 -460h-153l-166 335q-97 196 -130 232.5t-112 36.5h-281zM330 718h210q218 0 296 65q86 72 86 235q0 169 -105 229q-79 46 -283 46h-204
v-575zM639 -194q37 0 64 -28t27 -66q0 -40 -27 -67.5t-66 -27.5t-66 27.5t-27 67.5t27.5 67t67.5 27z" />
    <glyph glyph-name="uni1E5B" unicode="&#x1e5b;" horiz-adv-x="718" 
d="M187 0v985h109l18 -184q117 108 200 148t198 44l-8 -112q-187 9 -388 -214v-667h-129zM257 -194q37 0 64 -28t27 -66q0 -40 -27 -67.5t-66 -27.5t-66 27.5t-27 67.5q0 39 27.5 66.5t67.5 27.5z" />
    <glyph glyph-name="uni1E62" unicode="&#x1e62;" horiz-adv-x="1002" 
d="M84 53l48 116q139 -83 308 -83q187 0 271 85q72 73 72 188q0 91 -44 155q-30 43 -79 74t-168 82q-206 87 -288 156q-100 84 -100 241q0 193 130 290q105 79 280 79q179 0 328 -82l-50 -106q-133 73 -278 73q-121 0 -194 -55q-82 -62 -82 -186q0 -102 61 -157
q31 -29 85.5 -57.5t182.5 -84.5q129 -56 191.5 -97.5t98.5 -95.5q61 -91 61 -225q0 -95 -36 -174.5t-100 -127.5q-120 -90 -332 -90q-214 0 -366 82zM487 -194q37 0 64 -28t27 -66q0 -40 -27 -67.5t-66 -27.5t-66 27.5t-27 67.5t27.5 67t67.5 27z" />
    <glyph glyph-name="uni1E63" unicode="&#x1e63;" horiz-adv-x="773" 
d="M27 57l55 117q103 -94 248 -94q226 0 226 179q0 75 -36.5 112.5t-162.5 91.5q-159 67 -216.5 128t-57.5 161q0 123 79.5 192.5t220.5 69.5q134 0 274 -73l-56 -105q-110 68 -221 68q-170 0 -170 -144q0 -60 39 -94q24 -22 47.5 -34.5t138.5 -63.5q149 -67 199 -126
t50 -168q0 -303 -352 -303q-182 0 -305 86zM367 -194q37 0 64 -28t27 -66q0 -40 -27 -67.5t-66 -27.5t-66 27.5t-27 67.5t27.5 67t67.5 27z" />
    <glyph glyph-name="uni1E6C" unicode="&#x1e6c;" horiz-adv-x="1018" 
d="M444 0v1292h-423l8 115h968l-9 -115h-413v-1292h-131zM510 -194q38 0 65 -28t27 -66q0 -40 -27.5 -67.5t-65.5 -27.5q-39 0 -66 28t-27 67t27.5 66.5t66.5 27.5z" />
    <glyph glyph-name="uni1E6D" unicode="&#x1e6d;" horiz-adv-x="686" 
d="M230 875h-168l8 110h161l13 240l115 37v-277h226l-9 -110h-217v-561q0 -150 15 -187q18 -43 96 -43q61 0 120 33l27 -103q-79 -43 -177 -43q-112 0 -161 57.5t-49 190.5v656zM345 -194q37 0 64 -28t27 -66q0 -40 -27 -67.5t-66 -27.5t-66 27.5t-27 67.5t27.5 67t67.5 27z
" />
    <glyph glyph-name="Wgrave" unicode="&#x1e80;" horiz-adv-x="1727" 
d="M386 0l-350 1407h135l284 -1205l347 1205h125l349 -1209l280 1209h134l-351 -1407h-130l-345 1203l-345 -1203h-133zM975 1537h-104l-242 258h191z" />
    <glyph glyph-name="wgrave" unicode="&#x1e81;" horiz-adv-x="1472" 
d="M361 0l-325 985h139l248 -818l264 818h105l263 -818l249 818h132l-328 -985h-111l-261 814l-262 -814h-113zM848 1126h-104l-242 257h190z" />
    <glyph glyph-name="Wacute" unicode="&#x1e82;" horiz-adv-x="1727" 
d="M386 0l-350 1407h135l284 -1205l347 1205h125l349 -1209l280 1209h134l-351 -1407h-130l-345 1203l-345 -1203h-133zM753 1537l156 258h191l-242 -258h-105z" />
    <glyph glyph-name="wacute" unicode="&#x1e83;" horiz-adv-x="1472" 
d="M361 0l-325 985h139l248 -818l264 818h105l263 -818l249 818h132l-328 -985h-111l-261 814l-262 -814h-113zM626 1126l156 257h190l-241 -257h-105z" />
    <glyph glyph-name="Wdieresis" unicode="&#x1e84;" horiz-adv-x="1727" 
d="M386 0l-350 1407h135l284 -1205l347 1205h125l349 -1209l280 1209h134l-351 -1407h-130l-345 1203l-345 -1203h-133zM676 1760q37 0 63.5 -27.5t26.5 -65.5q0 -39 -27 -66.5t-65 -27.5t-65 27.5t-27 66.5t27 66t67 27zM1054 1760q37 0 63.5 -27.5t26.5 -65.5
q0 -39 -27 -66.5t-65 -27.5t-65 27.5t-27 66.5t27 66t67 27z" />
    <glyph glyph-name="wdieresis" unicode="&#x1e85;" horiz-adv-x="1472" 
d="M361 0l-325 985h139l248 -818l264 818h105l263 -818l249 818h132l-328 -985h-111l-261 814l-262 -814h-113zM579 1352q38 0 65.5 -28t27.5 -67t-28 -67t-67 -28q-40 0 -67.5 28t-27.5 68q0 39 28 66.5t69 27.5zM898 1352q38 0 65.5 -28t27.5 -67t-28 -67t-67 -28
q-40 0 -67.5 28t-27.5 68q0 39 28 66.5t69 27.5z" />
    <glyph glyph-name="uni1E92" unicode="&#x1e92;" horiz-adv-x="1051" 
d="M38 0l-1 97l777 1195h-691l9 115h826l12 -97l-771 -1195h810l-10 -115h-961zM554 -194q37 0 64 -28t27 -66q0 -40 -27 -67.5t-66 -27.5t-66 27.5t-27 67.5t27.5 67t67.5 27z" />
    <glyph glyph-name="uni1E93" unicode="&#x1e93;" horiz-adv-x="880" 
d="M53 0l-3 100l553 775h-489l16 110h623l10 -98l-556 -777h616l-16 -110h-754zM443 -194q37 0 64 -28t27 -66q0 -40 -27 -67.5t-66 -27.5t-66 27.5t-27 67.5t27.5 67t67.5 27z" />
    <glyph glyph-name="Ygrave" unicode="&#x1ef2;" horiz-adv-x="1087" 
d="M476 0v555l-457 852h142l385 -733l384 733h137l-460 -852v-555h-131zM656 1537h-105l-242 258h191z" />
    <glyph glyph-name="ygrave" unicode="&#x1ef3;" horiz-adv-x="917" 
d="M398 -3l-366 988h141l295 -835l321 835h132l-582 -1459l-123 51zM577 1126h-105l-241 257h190z" />
    <glyph glyph-name="uni2011" unicode="&#x2011;" horiz-adv-x="707" 
d="M67 587l23 114h549l-23 -114h-549z" />
    <glyph glyph-name="figuredash" unicode="&#x2012;" 
d="M111 587l22 114h903l-22 -114h-903z" />
    <glyph glyph-name="endash" unicode="&#x2013;" 
d="M111 587l22 114h903l-22 -114h-903z" />
    <glyph glyph-name="emdash" unicode="&#x2014;" 
d="M-110 587v114h1367v-114h-1367z" />
    <glyph glyph-name="afii00208" unicode="&#x2015;" 
d="M-110 587v114h1367v-114h-1367z" />
    <glyph glyph-name="quoteleft" unicode="&#x2018;" horiz-adv-x="362" 
d="M272 1449l-51 -445h-147l99 445h99z" />
    <glyph glyph-name="quoteright" unicode="&#x2019;" horiz-adv-x="362" 
d="M90 1004l51 445h147l-98 -445h-100z" />
    <glyph glyph-name="quotesinglbase" unicode="&#x201a;" horiz-adv-x="362" 
d="M90 -276l51 445h147l-98 -445h-100z" />
    <glyph glyph-name="quotereversed" unicode="&#x201b;" horiz-adv-x="362" 
d="M288 1004h-99l-99 445h147z" />
    <glyph glyph-name="quotedblleft" unicode="&#x201c;" horiz-adv-x="590" 
d="M501 1449l-51 -445h-147l98 445h100zM272 1449l-51 -445h-147l99 445h99z" />
    <glyph glyph-name="quotedblright" unicode="&#x201d;" horiz-adv-x="590" 
d="M90 1004l51 445h147l-98 -445h-100zM319 1004l50 445h148l-99 -445h-99z" />
    <glyph glyph-name="quotedblbase" unicode="&#x201e;" horiz-adv-x="590" 
d="M90 -276l51 445h147l-98 -445h-100zM319 -276l50 445h148l-99 -445h-99z" />
    <glyph glyph-name="dagger" unicode="&#x2020;" 
d="M512 822h-360l8 112h352v473h129v-473h360l-8 -112h-352v-1235h-129v1235z" />
    <glyph glyph-name="daggerdbl" unicode="&#x2021;" 
d="M512 822h-360l8 112h352v473h129v-473h360l-8 -112h-352v-566h360l-8 -112h-352v-557h-129v557h-360l8 112h352v566z" />
    <glyph glyph-name="bullet" unicode="&#x2022;" 
d="M576 981q110 0 183 -81q64 -70 64 -170q0 -116 -82 -189q-71 -63 -170 -63q-114 0 -188 81q-64 71 -64 173q0 112 82 186q71 63 175 63z" />
    <glyph glyph-name="ellipsis" unicode="&#x2026;" horiz-adv-x="1720" 
d="M289 176q41 0 71 -30t30 -72q0 -43 -30 -73t-73 -30t-73 30t-30 73t30.5 72.5t74.5 29.5zM862 176q41 0 71 -30.5t30 -71.5q0 -43 -30 -73t-73 -30t-73 30t-30 73t30.5 72.5t74.5 29.5zM1436 176q41 0 71 -30t30 -72q0 -43 -30 -73t-73 -30t-73 30t-30 73t30.5 72.5
t74.5 29.5z" />
    <glyph glyph-name="perthousand" unicode="&#x2030;" horiz-adv-x="2313" 
d="M398 1436q139 0 212 -95t73 -275q0 -172 -67 -268q-73 -103 -223 -103q-141 0 -215 94t-74 275q0 372 294 372zM396 1349q-94 0 -137.5 -69t-43.5 -216q0 -282 178 -282q179 0 179 283q0 284 -176 284zM1230 712q138 0 211.5 -95.5t73.5 -275.5q0 -171 -68 -267
q-72 -103 -222 -103q-142 0 -216 94t-74 275q0 372 295 372zM1228 625q-94 0 -138 -69t-44 -216q0 -282 179 -282q103 0 144 84q35 71 35 199q0 284 -176 284zM1923 712q139 0 212 -95t73 -276q0 -171 -67 -267q-73 -103 -222 -103q-142 0 -216 94t-74 275q0 372 294 372z
M1921 625q-93 0 -137 -69t-44 -216q0 -282 178 -282q103 0 144 84q35 71 35 199q0 284 -176 284zM505 0l498 1407h109l-498 -1407h-109z" />
    <glyph glyph-name="guilsinglleft" unicode="&#x2039;" horiz-adv-x="505" 
d="M237 543l181 -270l-53 -41l-281 303v15l281 304l53 -41z" />
    <glyph glyph-name="guilsinglright" unicode="&#x203a;" horiz-adv-x="505" 
d="M268 543l-180 270l52 41l281 -303v-16l-281 -303l-52 41z" />
    <glyph glyph-name="uni203E" unicode="&#x203e;" horiz-adv-x="1024" 
d="M-61 1713v98h1146v-98h-1146z" />
    <glyph glyph-name="glyph452" unicode="&#x2044;" horiz-adv-x="246" 
d="M-291 0l719 1407h109l-719 -1407h-109z" />
    <glyph glyph-name="zerosuperior" unicode="&#x2070;" horiz-adv-x="737" 
d="M372 1629q191 0 259 -147q42 -91 42 -295q0 -223 -54 -316q-72 -125 -251 -125q-194 0 -263 147q-42 91 -42 295q0 224 54 316q73 125 255 125zM371 1547q-122 0 -166 -113q-29 -75 -29 -245q0 -189 36 -265q47 -96 156 -96q119 0 163 113q29 75 29 247q0 187 -36 263
q-22 44 -63 70t-90 26z" />
    <glyph glyph-name="foursuperior" unicode="&#x2074;" horiz-adv-x="737" 
d="M423 995h-393v74l397 543h106v-535h127l-8 -82h-119v-233h-110v233zM426 1075v407l-290 -407h290z" />
    <glyph glyph-name="fivesuperior" unicode="&#x2075;" horiz-adv-x="737" 
d="M135 1165l17 447h452l-15 -84h-334l-12 -276q77 38 160 38q259 0 259 -252q0 -154 -97 -228q-84 -65 -231 -65q-145 0 -251 61l45 84q104 -63 207 -63q214 0 214 208q0 173 -161 173q-70 0 -171 -64z" />
    <glyph glyph-name="sixsuperior" unicode="&#x2076;" horiz-adv-x="737" 
d="M198 1234q81 71 194 71q130 0 202.5 -70.5t72.5 -196.5q0 -120 -58 -196q-73 -97 -235 -97q-154 0 -221.5 87.5t-67.5 287.5q0 509 370 509q82 0 165 -29l-33 -84q-65 31 -124 31q-137 0 -205 -108q-39 -63 -60 -205zM389 1223q-87 0 -139.5 -52.5t-52.5 -140.5
q0 -95 47.5 -149t132.5 -54q82 0 129.5 56t47.5 152q0 74 -32 121q-45 67 -133 67z" />
    <glyph glyph-name="sevensuperior" unicode="&#x2077;" horiz-adv-x="737" 
d="M538 1526h-461l12 86h570v-54l-362 -796h-123z" />
    <glyph glyph-name="eightsuperior" unicode="&#x2078;" horiz-adv-x="737" 
d="M200 1212q-59 32 -84 75t-25 113q0 112 70.5 170.5t206.5 58.5q144 0 215 -66q63 -58 63 -163q0 -129 -110 -188q143 -61 143 -219q0 -126 -76 -186.5t-235 -60.5q-137 0 -215 46q-96 57 -96 200q0 159 143 220zM371 1547q-80 0 -123.5 -39t-43.5 -111q0 -71 43.5 -111
t120.5 -40q78 0 121.5 40t43.5 111t-43 110.5t-119 39.5zM371 1164q-201 0 -201 -169q0 -167 198 -167t198 167q0 169 -195 169z" />
    <glyph glyph-name="ninesuperior" unicode="&#x2079;" horiz-adv-x="737" 
d="M540 1147q-76 -67 -197 -67q-127 0 -200 69t-73 189q0 123 64 201q74 90 229 90q190 0 253 -137q36 -77 36 -241q0 -267 -98 -391q-89 -114 -267 -114q-90 0 -170 28l33 84q66 -30 131 -30q135 0 201 108q40 65 58 211zM364 1547q-92 0 -138 -60q-43 -57 -43 -146
q0 -83 45 -131t122 -48q86 0 138 51t52 134q0 79 -36 133q-45 67 -140 67z" />
    <glyph glyph-name="zeroinferior" unicode="&#x2080;" horiz-adv-x="737" 
d="M372 662q190 0 259 -147q42 -91 42 -295q0 -223 -54 -316q-72 -125 -251 -125q-194 0 -263 147q-42 91 -42 295q0 224 54 316q73 125 255 125zM371 580q-122 0 -166 -113q-29 -75 -29 -245q0 -189 36 -265q46 -96 156 -96q119 0 163 113q29 75 29 247q0 187 -36 263
q-22 44 -63 70t-90 26z" />
    <glyph glyph-name="oneinferior" unicode="&#x2081;" horiz-adv-x="737" 
d="M352 -205v745l-154 -45l-27 81l201 69h91v-850h-111z" />
    <glyph glyph-name="twoinferior" unicode="&#x2082;" horiz-adv-x="737" 
d="M82 -205v79l283 297q81 85 115.5 144t34.5 114q0 71 -44.5 111t-122.5 40q-106 0 -219 -88l-55 78q134 92 280 92q133 0 203.5 -59t70.5 -171q0 -75 -37 -142.5t-132 -166.5l-236 -244h426v-84h-567z" />
    <glyph glyph-name="threeinferior" unicode="&#x2083;" horiz-adv-x="737" 
d="M262 204v82h35q79 0 130 38q66 49 66 125q0 62 -41.5 96.5t-114.5 34.5q-98 0 -213 -79l-50 74q119 87 269 87q132 0 203 -61q60 -50 60 -145q0 -141 -134 -198q173 -42 173 -217q0 -125 -87 -193.5t-246 -68.5q-152 0 -260 72l53 79q61 -40 103.5 -54.5t96.5 -14.5
q107 0 167 47t60 130q0 166 -220 166h-50z" />
    <glyph glyph-name="fourinferior" unicode="&#x2084;" horiz-adv-x="737" 
d="M423 28h-393v74l397 543h106v-535h127l-8 -82h-119v-233h-110v233zM426 108v407l-290 -407h290z" />
    <glyph glyph-name="fiveinferior" unicode="&#x2085;" horiz-adv-x="737" 
d="M135 197l17 448h452l-15 -84h-334l-12 -276q76 38 160 38q259 0 259 -252q0 -154 -97 -228q-85 -65 -231 -65q-145 0 -251 61l45 83q105 -62 207 -62q214 0 214 208q0 173 -161 173q-42 0 -76 -13t-95 -51z" />
    <glyph glyph-name="sixinferior" unicode="&#x2086;" horiz-adv-x="737" 
d="M198 267q82 70 194 70q130 0 202.5 -70.5t72.5 -196.5q0 -119 -58 -196q-73 -96 -235 -96q-154 0 -221.5 87.5t-67.5 287.5q0 509 369 509q87 0 166 -29l-33 -84q-66 31 -125 31q-136 0 -204 -108q-39 -63 -60 -205zM389 255q-87 0 -139.5 -52.5t-52.5 -139.5
q0 -80 36 -135q44 -68 143 -68q83 0 130.5 55.5t47.5 152.5q0 73 -32 120q-45 67 -133 67z" />
    <glyph glyph-name="seveninferior" unicode="&#x2087;" horiz-adv-x="737" 
d="M538 559h-461l12 86h570v-54l-362 -796h-123z" />
    <glyph glyph-name="eightinferior" unicode="&#x2088;" horiz-adv-x="737" 
d="M200 245q-109 58 -109 188q0 229 277 229q144 0 215 -66q63 -58 63 -163q0 -130 -110 -188q76 -33 109.5 -85t33.5 -138q0 -243 -311 -243q-137 0 -215 46q-96 57 -96 201q0 157 143 219zM371 580q-80 0 -123.5 -39t-43.5 -111q0 -71 43.5 -111t120.5 -40q78 0 121.5 40
t43.5 111t-43 110.5t-119 39.5zM371 197q-201 0 -201 -169q0 -167 198 -167t198 168t-195 168z" />
    <glyph glyph-name="nineinferior" unicode="&#x2089;" horiz-adv-x="737" 
d="M540 180q-76 -67 -196 -67q-128 0 -201 69t-73 189q0 123 64 201q74 90 229 90q189 0 253 -137q36 -77 36 -241q0 -267 -98 -391q-89 -114 -267 -114q-90 0 -170 28l33 83q66 -29 130 -29q135 0 202 108q40 65 58 211zM364 580q-92 0 -138 -60q-43 -58 -43 -146
q0 -69 32 -115q45 -64 135 -64q85 0 137.5 51t52.5 134q0 79 -36 133q-45 67 -140 67z" />
    <glyph glyph-name="franc" unicode="&#x20a3;" horiz-adv-x="1677" 
d="M198 0v1407h775l-10 -114h-634v-495h536l-9 -112h-527v-686h-131zM1050 0v868h100l22 -186q114 105 203 148q87 42 208 46l-8 -112q-107 -2 -193 -49q-116 -64 -203 -164v-551h-129z" />
    <glyph glyph-name="lira" unicode="&#x20a4;" 
d="M305 512h-198l20 92h179v148h-199l20 92h179v120q0 111 18 176.5t63 121.5q109 134 349 134q159 0 321 -70l-47 -112q-127 69 -270 69q-188 0 -260 -115q-46 -73 -46 -245v-79h349l-20 -92h-329v-148h349l-20 -92h-329v-400h638l-8 -112h-920l9 112h152v400z" />
    <glyph glyph-name="peseta" unicode="&#x20a7;" 
d="M200 931h-146l20 92h126v384h329q187 0 302 -46q147 -58 194 -236q13 -49 16 -102h152l-20 -92h-133q-20 -196 -145 -283t-386 -87h-180v-561h-129v931zM329 931v-259h181q202 0 288.5 56.5t108.5 202.5h-578zM329 1023h580q-11 93 -52 157q-40 62 -120.5 89t-226.5 27
h-181v-273z" />
    <glyph glyph-name="Euro" unicode="&#x20ac;" 
d="M-2 496l44 106h125q-3 39 -3 80q0 36 3 67h-169l44 106h134q81 581 586 581q213 0 362 -109l-48 -107q-144 107 -316 107q-384 0 -451 -472h617l-44 -106h-582q-2 -32 -2 -60t3 -87h519l-43 -106h-463q22 -126 77 -222q110 -194 369 -194q168 0 304 100l62 -94
q-147 -115 -372 -115q-247 0 -393.5 133.5t-183.5 391.5h-179z" />
    <glyph glyph-name="uni2101" unicode="&#x2101;" horiz-adv-x="1553" 
d="M503 1145v37q0 84 -34.5 119.5t-116.5 35.5q-113 0 -214 -78l-39 71q117 84 258 84q154 0 208 -90q19 -31 24.5 -66t5.5 -118v-435h-74l-15 82q-71 -102 -230 -102q-207 0 -207 204q0 164 154 216q80 27 258 39zM504 1072q-130 -10 -189 -22q-152 -32 -152 -159
q0 -129 128 -129q102 0 171 67q42 41 42 101v142zM995 40l38 82q73 -66 174 -66q159 0 159 126q0 52 -26 78.5t-114 63.5q-111 47 -151.5 89.5t-40.5 112.5q0 87 55.5 135.5t154.5 48.5q94 0 192 -51l-39 -74q-79 48 -155 48q-119 0 -119 -101q0 -44 25 -65t132 -69
q105 -47 140 -88t35 -117q0 -213 -246 -213q-129 0 -214 60zM404 0l719 1407h107l-719 -1407h-107z" />
    <glyph glyph-name="afii61248" unicode="&#x2105;" horiz-adv-x="1535" 
d="M566 836l44 -70q-99 -80 -231 -80q-154 0 -232 101q-74 95 -74 253q0 185 96 291q77 85 218 85q111 0 208 -60l-35 -73q-87 56 -173 56q-103 0 -157 -72q-63 -83 -63 -222q0 -132 60.5 -207t167.5 -75q92 0 171 73zM1160 710q147 0 229 -101q78 -97 78 -264
q0 -166 -78 -263q-81 -102 -234 -102t-234 102q-78 98 -78 262q0 167 78 265q81 101 239 101zM1159 633q-126 0 -178 -96q-44 -79 -44 -193q0 -136 57 -211.5t161 -75.5q123 0 175 96q43 79 43 192q0 115 -43 192q-54 96 -171 96zM370 0l718 1407h107l-718 -1407h-107z" />
    <glyph glyph-name="afii61289" unicode="&#x2113;" horiz-adv-x="983" 
d="M465 592q-25 -133 -45 -274.5t-20 -184.5q0 -54 38 -54q33 0 67 43.5t54 111.5l70 -31q-85 -243 -234 -243q-74 0 -116.5 53t-42.5 146q0 71 19 274l-122 -108l-37 60q9 7 52 52q75 77 124 133q77 413 178 669q107 270 265 270q66 0 107 -50t41 -131q0 -197 -143 -426
q-78 -126 -255 -310zM485 718q102 112 161 212q55 93 91 205.5t36 189.5q0 36 -15.5 59t-40.5 23q-60 0 -99 -102q-60 -159 -133 -587z" />
    <glyph glyph-name="afii61352" unicode="&#x2116;" horiz-adv-x="2497" 
d="M198 0v1407h135l784 -1179v1179h128v-1407h-120l-799 1196v-1196h-128zM1894 1194q185 0 299 -132q107 -124 107 -339t-107 -339q-113 -133 -305 -133q-191 0 -305 133q-107 125 -107 338q0 219 107 340q115 132 311 132zM1892 1084q-159 0 -226 -119q-58 -102 -58 -241
t56 -243q65 -120 224 -120q160 0 224 120q56 104 56 243q0 140 -56 241q-66 119 -220 119zM1471 0l10 112h821l-9 -112h-822z" />
    <glyph glyph-name="uni2117" unicode="&#x2117;" horiz-adv-x="1694" 
d="M637 179v985h247q189 0 266 -72q84 -78 84 -223q0 -153 -89 -225t-278 -72h-138v-393h-92zM729 652h125q165 0 222 52q62 57 62 162q0 121 -72 175q-57 43 -207 43h-130v-432zM857 1452q313 0 523 -212q211 -212 211 -532q0 -318 -211 -531q-209 -212 -534 -212
q-323 0 -533 212q-211 213 -211 530q0 225 110 405q101 167 279 259q157 81 366 81zM856 1372q-298 0 -483 -201q-172 -186 -172 -464q0 -274 172 -461q184 -201 474 -201t475 201q171 187 171 462q0 281 -171 463q-191 201 -466 201z" />
    <glyph glyph-name="trademark" unicode="&#x2122;" horiz-adv-x="1689" 
d="M699 557l64 850h137l267 -671l268 671h133l64 -850h-109l-49 681l-272 -681h-73l-272 681l-49 -681h-109zM262 557v749h-267l6 101h648l-7 -101h-260v-749h-120z" />
    <glyph glyph-name="Omega" unicode="&#x2126;" horiz-adv-x="1459" 
d="M132 0v98h333q-117 79 -195 168q-155 179 -155 454q0 243 109 434q161 282 510 282q347 0 509 -282q110 -191 110 -432q0 -206 -83 -353.5t-268 -270.5h334v-98h-515v109q122 56 228 161q84 83 120 173q47 115 47 283q0 215 -84 369q-125 227 -398 227t-398 -227
q-84 -153 -84 -369q0 -165 43 -274t146 -204q97 -89 205 -139v-109h-514z" />
    <glyph glyph-name="estimated" unicode="&#x212e;" horiz-adv-x="1501" 
d="M1336 607h-943v-251q20 -69 40 -105.5t53 -66.5q94 -84 262 -84q152 0 249 62t154 195h136q-106 -381 -541 -381q-279 0 -432 178q-150 173 -150 471q0 317 165 495q160 172 426 172q220 0 372 -113q186 -139 205 -421q2 -30 4 -151zM1114 709v219q-20 57 -54 97
q-65 76 -139 109.5t-177 33.5q-164 0 -257 -99q-43 -46 -88 -141v-219h715z" />
    <glyph glyph-name="onethird" unicode="&#x2153;" horiz-adv-x="1720" 
d="M353 557v749l-155 -45l-27 77l201 69h91v-850h-110zM1199 410v80h34q79 0 130 38q66 49 66 126q0 61 -42 96t-116 35q-54 0 -97.5 -14.5t-118.5 -58.5l-47 75q116 80 270 80q135 0 204 -60q60 -51 60 -145q0 -143 -136 -200q91 -25 133 -76.5t42 -140.5
q0 -124 -87.5 -192.5t-246.5 -68.5q-145 0 -258 64l44 84q72 -41 111.5 -53.5t95.5 -12.5q108 0 168 46.5t60 130.5q0 167 -220 167h-49zM361 0l718 1407h110l-719 -1407h-109z" />
    <glyph glyph-name="twothirds" unicode="&#x2154;" horiz-adv-x="1720" 
d="M83 557v74l283 300q78 81 113 143t35 117q0 70 -44 109.5t-121 39.5q-103 0 -219 -83l-55 75q78 51 140 71t143 20q147 0 216 -74q54 -57 54 -156q0 -75 -37.5 -144t-129.5 -164l-240 -246h421v-82h-559zM1250 410v80h34q79 0 130 38q66 49 66 126q0 61 -42 96t-116 35
q-53 0 -97 -15t-115 -57l-47 75q116 79 266 79q135 0 204 -60q60 -52 60 -145q0 -143 -136 -200q92 -25 133.5 -76.5t41.5 -140.5q0 -125 -87.5 -193t-246.5 -68q-145 0 -258 64l44 84q72 -41 111.5 -53.5t95.5 -12.5q108 0 168 46.5t60 130.5q0 167 -219 167h-50zM446 0
l719 1407h109l-719 -1407h-109z" />
    <glyph glyph-name="uni2155" unicode="&#x2155;" horiz-adv-x="1720" 
d="M353 557v749l-155 -45l-27 77l201 69h91v-850h-110zM1067 403l17 447h451l-16 -82h-336l-13 -283q77 42 167 42q256 0 256 -251q0 -154 -97 -228q-85 -64 -232 -64q-143 0 -251 62l43 85q97 -65 205 -65q219 0 219 207q0 173 -162 173q-73 0 -176 -64zM361 0l718 1407
h110l-719 -1407h-109z" />
    <glyph glyph-name="uni2156" unicode="&#x2156;" horiz-adv-x="1720" 
d="M83 557v74l283 300q78 82 113 143.5t35 116.5q0 70 -44 109.5t-121 39.5q-102 0 -219 -83l-55 75q77 51 139 71t143 20q147 0 216 -74q54 -57 54 -156q0 -75 -37.5 -144.5t-129.5 -163.5l-239 -246h421v-82h-559zM1118 403l17 447h451l-15 -82h-337l-12 -283
q76 42 166 42q256 0 256 -251q0 -154 -97 -228q-85 -64 -232 -64q-143 0 -251 62l44 85q97 -65 204 -65q219 0 219 207q0 173 -162 173q-73 0 -175 -64zM446 0l719 1407h109l-719 -1407h-109z" />
    <glyph glyph-name="uni2157" unicode="&#x2157;" horiz-adv-x="1720" 
d="M267 967v81h34q80 0 131 37q65 49 65 125q0 62 -42 96.5t-116 34.5q-54 0 -98.5 -15t-117.5 -57l-47 76q118 78 270 78q134 0 204 -60q60 -50 60 -145q0 -142 -136 -199q92 -25 133.5 -76.5t41.5 -139.5q0 -125 -87 -193.5t-247 -68.5q-147 0 -258 65l44 83
q70 -40 110.5 -53t95.5 -13q109 0 169 46.5t60 130.5q0 167 -219 167h-50zM1118 403l17 447h451l-15 -82h-337l-12 -283q76 42 166 42q256 0 256 -251q0 -154 -97 -228q-84 -64 -232 -64q-143 0 -251 62l44 85q97 -65 204 -65q219 0 219 207q0 173 -162 173q-73 0 -175 -64z
M444 0l719 1407h109l-718 -1407h-110z" />
    <glyph glyph-name="uni2158" unicode="&#x2158;" horiz-adv-x="1720" 
d="M424 790h-394v74l397 543h106v-535h127l-8 -82h-119v-233h-109v233zM426 870v407l-290 -407h290zM1118 403l17 447h451l-15 -82h-337l-12 -283q76 42 166 42q256 0 256 -251q0 -154 -97 -228q-84 -64 -232 -64q-143 0 -251 62l44 85q97 -65 204 -65q219 0 219 207
q0 173 -162 173q-73 0 -175 -64zM446 0l719 1407h109l-719 -1407h-109z" />
    <glyph glyph-name="uni2159" unicode="&#x2159;" horiz-adv-x="1720" 
d="M353 557v749l-155 -45l-27 77l201 69h91v-850h-110zM1127 470q76 72 197 72q127 0 200 -71t73 -195q0 -141 -74.5 -216.5t-213.5 -75.5q-194 0 -258 137q-35 77 -35 237q0 509 366 509q82 0 167 -29l-32 -81q-69 28 -126 28q-136 0 -204 -108q-40 -64 -60 -207zM1318 460
q-88 0 -140 -52t-52 -140q0 -95 47.5 -148.5t133.5 -53.5q82 0 129.5 55.5t47.5 150.5q0 75 -32 122q-45 66 -134 66zM361 0l718 1407h110l-719 -1407h-109z" />
    <glyph glyph-name="uni215A" unicode="&#x215a;" horiz-adv-x="1720" 
d="M135 960l17 447h452l-16 -82h-336l-13 -282q76 41 166 41q257 0 257 -251q0 -154 -97 -228q-84 -64 -232 -64q-143 0 -251 62l43 86q97 -66 205 -66q219 0 219 207q0 173 -162 173q-74 0 -176 -64zM1180 470q77 72 197 72q128 0 200.5 -71t72.5 -195q0 -127 -64 -206
q-72 -86 -224 -86q-194 0 -257 137q-36 77 -36 238q0 508 367 508q81 0 167 -29l-33 -81q-68 28 -125 28q-136 0 -204 -108q-40 -64 -61 -207zM1371 460q-88 0 -140 -52t-52 -139q0 -96 47.5 -149.5t133.5 -53.5q82 0 129.5 55t47.5 152q0 74 -32 121q-45 66 -134 66zM447 0
l719 1407h109l-718 -1407h-110z" />
    <glyph glyph-name="oneeighth" unicode="&#x215b;" horiz-adv-x="1720" 
d="M353 557v749l-155 -45l-27 77l201 69h91v-850h-110zM1132 448q-60 31 -85 73.5t-25 113.5q0 232 278 232t278 -232q0 -130 -111 -187q144 -59 144 -218q0 -125 -76.5 -185.5t-234.5 -60.5q-137 0 -216 46q-95 57 -95 200q0 159 143 218zM1302 785q-168 0 -168 -150
q0 -72 43.5 -111.5t122.5 -39.5t122.5 39.5t43.5 112.5q0 70 -43 109.5t-121 39.5zM1303 401q-202 0 -202 -169q0 -166 199 -166t199 167q0 168 -196 168zM350 0l719 1407h109l-719 -1407h-109z" />
    <glyph glyph-name="threeeighths" unicode="&#x215c;" horiz-adv-x="1720" 
d="M267 967v81h34q80 0 131 37q65 49 65 125q0 62 -42 96.5t-116 34.5q-54 0 -98.5 -15t-117.5 -57l-47 76q118 78 270 78q134 0 204 -60q60 -50 60 -145q0 -142 -136 -199q92 -25 133.5 -76.5t41.5 -139.5q0 -125 -87 -193.5t-247 -68.5q-147 0 -258 65l44 83
q70 -40 110.5 -53t95.5 -13q109 0 169 46.5t60 130.5q0 167 -219 167h-50zM1183 448q-110 57 -110 187q0 232 278 232t278 -232q0 -131 -111 -187q144 -59 144 -218q0 -126 -76.5 -186t-234.5 -60q-137 0 -215 46q-96 57 -96 200q0 159 143 218zM1354 785q-169 0 -169 -150
q0 -72 43.5 -111.5t122.5 -39.5t122.5 39.5t43.5 112.5q0 70 -43 109.5t-120 39.5zM1354 401q-202 0 -202 -169q0 -166 199 -166t199 167q0 168 -196 168zM445 0l719 1407h109l-719 -1407h-109z" />
    <glyph glyph-name="fiveeighths" unicode="&#x215d;" horiz-adv-x="1720" 
d="M135 960l17 447h452l-16 -82h-336l-13 -282q76 41 166 41q257 0 257 -251q0 -154 -97 -228q-84 -64 -232 -64q-143 0 -251 62l43 86q97 -66 205 -66q219 0 219 207q0 173 -162 173q-74 0 -176 -64zM1184 448q-60 31 -85 73.5t-25 113.5q0 232 277 232q278 0 278 -232
q0 -131 -110 -187q144 -59 144 -218q0 -126 -76.5 -186t-234.5 -60q-138 0 -216 46q-96 57 -96 200q0 84 33.5 135t110.5 83zM1354 785q-168 0 -168 -150q0 -72 43.5 -111.5t121.5 -39.5q79 0 122.5 39.5t43.5 112.5q0 70 -43 109.5t-120 39.5zM1355 401q-203 0 -203 -169
q0 -166 199 -166q200 0 200 167q0 168 -196 168zM447 0l718 1407h110l-719 -1407h-109z" />
    <glyph glyph-name="seveneighths" unicode="&#x215e;" horiz-adv-x="1720" 
d="M542 1325h-465l13 82h569v-51l-363 -799h-121zM1133 448q-110 56 -110 187q0 232 278 232t278 -232q0 -130 -111 -187q144 -59 144 -218q0 -126 -76.5 -186t-235.5 -60q-137 0 -215 46q-96 57 -96 200q0 84 33.5 135t110.5 83zM1304 785q-82 0 -125.5 -38.5t-43.5 -111.5
q0 -72 43.5 -111.5t122.5 -39.5t122.5 39.5t43.5 112.5q0 70 -43 109.5t-120 39.5zM1304 401q-203 0 -203 -169q0 -166 200 -166q199 0 199 167q0 168 -196 168zM337 0l718 1407h110l-719 -1407h-109z" />
    <glyph glyph-name="partialdiff" unicode="&#x2202;" 
d="M800 888q-92 218 -227 319q-114 85 -305 114l17 103q301 -32 485 -241q116 -131 183 -313t67 -364q0 -227 -99 -365q-121 -167 -350 -167q-199 0 -320 132q-124 134 -124 368q0 233 122 373q114 131 307 131q112 0 180 -42q5 -3 64 -48zM577 872q-161 0 -243 -115
q-83 -119 -83 -291q0 -153 75 -261q85 -121 246 -121q160 0 241 119t81 279q0 157 -78 271q-81 119 -239 119z" />
    <glyph glyph-name="emptyset" unicode="&#x2205;" 
d="M244 414q-90 115 -90 267q0 93 36.5 177t100.5 141q123 108 283 108q139 0 251 -85l178 186l74 -71l-177 -186q41 -50 66 -124t25 -145q0 -93 -36.5 -178t-101.5 -141q-122 -106 -281 -106q-133 0 -253 85l-175 -183l-75 72zM329 503l420 439q-81 62 -176 62
q-132 0 -217 -101q-73 -88 -73 -223q0 -95 46 -177zM815 862l-420 -440q78 -62 178 -62q131 0 215 100q74 88 74 224q0 97 -47 178z" />
    <glyph glyph-name="Delta" unicode="&#x2206;" 
d="M-63 0l580 1407h115l581 -1407h-1276zM1031 114l-459 1135l-458 -1135h917z" />
    <glyph glyph-name="product" unicode="&#x220f;" horiz-adv-x="1434" 
d="M1107 1441h-780v-1953h-131v2068h1042v-2068h-131v1953z" />
    <glyph glyph-name="summation" unicode="&#x2211;" horiz-adv-x="1229" 
d="M1157 1556v-115h-931l553 -880l-537 -958h934v-115h-1066v153l521 922l-533 845v148h1059z" />
    <glyph glyph-name="minus" unicode="&#x2212;" 
d="M117 650l10 109h903l-10 -109h-903z" />
    <glyph glyph-name="fraction" unicode="&#x2215;" horiz-adv-x="246" 
d="M-291 0l719 1407h109l-719 -1407h-109z" />
    <glyph glyph-name="periodcentered" unicode="&#x2219;" horiz-adv-x="573" 
d="M289 737q41 0 71 -30t30 -72q0 -43 -30 -73t-73 -30t-73 30t-30 74q0 42 30.5 71.5t74.5 29.5z" />
    <glyph glyph-name="radical" unicode="&#x221a;" 
d="M423 0l-192 629h-160v100h258l170 -595l445 1560h492v-101h-395l-462 -1593h-156z" />
    <glyph glyph-name="infinity" unicode="&#x221e;" horiz-adv-x="1502" 
d="M751 647q-129 -221 -325 -221q-130 0 -211 83q-80 82 -80 212q0 131 80 211q83 84 214 84q194 0 322 -222q128 222 321 222q131 0 214 -84q80 -80 80 -211q0 -130 -80 -212q-81 -83 -211 -83q-196 0 -324 221zM701 720l-9 19q-43 89 -112.5 142.5t-140.5 53.5
q-92 0 -150 -60t-58 -154q0 -98 59 -156q59 -59 149 -59q92 0 165 75q58 59 88 121zM801 720l9 -18q43 -89 112 -142.5t140 -53.5q91 0 149.5 60t58.5 155q0 97 -58 155q-60 59 -150 59q-92 0 -165 -75q-57 -59 -87 -121z" />
    <glyph glyph-name="integral" unicode="&#x222b;" 
d="M259 -543l24 119q47 -16 86 -16q92 0 120 72q16 40 16 162v1436q0 169 36 240q29 56 90.5 88t141.5 32q48 0 109 -15l-24 -120q-49 18 -88 18q-75 0 -104.5 -46t-29.5 -163v-1461q0 -118 -10 -172t-39 -95q-65 -93 -233 -93q-51 0 -95 14z" />
    <glyph glyph-name="uni2243" unicode="&#x2243;" 
d="M145 511l10 116h841l-10 -116h-841zM239 733l-94 27q37 111 75 161q71 93 184 93q58 0 103.5 -21t118.5 -82q62 -51 90 -66t60 -15q48 0 81.5 38t61.5 125l92 -30q-33 -105 -69 -155q-68 -92 -187 -92q-59 0 -98 18.5t-116 83.5q-59 50 -88 65.5t-63 15.5
q-51 0 -86 -38.5t-65 -127.5z" />
    <glyph glyph-name="approxequal" unicode="&#x2248;" 
d="M244 737l-89 28q41 131 102 190.5t153 59.5q58 0 103.5 -21.5t117.5 -83.5q58 -50 84.5 -64.5t57.5 -14.5q49 0 82 37.5t61 125.5l88 -29q-30 -101 -63 -151q-63 -96 -185 -96q-58 0 -96.5 18.5t-118.5 84.5q-60 50 -87.5 65t-59.5 15q-97 0 -150 -164zM244 427l-89 28
q41 130 102 189.5t153 59.5q59 0 104 -21t117 -83q57 -50 84 -64.5t59 -14.5q48 0 81 37.5t61 125.5l88 -29q-30 -102 -63 -151q-64 -97 -184 -97q-59 0 -97.5 18.5t-118.5 84.5q-61 50 -88 65t-59 15q-97 0 -150 -163z" />
    <glyph glyph-name="notequal" unicode="&#x2260;" 
d="M148 518l10 109h318l73 158h-401l10 109h440l106 233l100 -41l-87 -192h281l-10 -109h-320l-73 -158h403l-10 -109h-443l-106 -233l-100 41l88 192h-279z" />
    <glyph glyph-name="lessequal" unicode="&#x2264;" 
d="M274 705l749 -374v-131l-899 459v92l899 459v-131zM129 0v113h888v-113h-888z" />
    <glyph glyph-name="greaterequal" unicode="&#x2265;" 
d="M873 705l-749 374v131l899 -459v-92l-899 -459v131zM129 0v113h888v-113h-888z" />
    <glyph glyph-name="dotmath" unicode="&#x22c5;" horiz-adv-x="573" 
d="M289 737q41 0 71 -30t30 -72q0 -43 -30 -73t-73 -30t-73 30t-30 74q0 42 30.5 71.5t74.5 29.5z" />
    <glyph glyph-name="lozenge" unicode="&#x25ca;" 
d="M49 704l524 770l525 -770l-525 -771zM183 704l390 -572l391 572l-391 572z" />
    <glyph glyph-name="ffl" unicode="&#xfb04;" horiz-adv-x="1792" 
d="M356 875v-875h-129v875h-190l8 110h182v119q0 172 55 256q70 107 228 107q84 0 157 -30l-30 -104q-61 25 -121 25q-90 0 -125 -55.5t-35 -196.5v-121h239l-10 -110h-229zM1465 0v1450l129 27v-1477h-129zM976 875v-875h-129v875h-190l8 110h182v119q0 172 55 256
q71 107 228 107q84 0 157 -30l-30 -104q-61 25 -121 25q-90 0 -125 -55.5t-35 -196.5v-121h266l-10 -110h-256z" />
    <glyph glyph-name="glyph172" 
 />
    <glyph glyph-name="glyph210" horiz-adv-x="492" 
 />
    <glyph glyph-name="idotaccent" horiz-adv-x="528" 
d="M200 0v985h129v-985h-129zM266 1352q39 0 66.5 -28t27.5 -67q0 -40 -28 -68t-67 -28q-40 0 -68 28t-28 68t28 67.5t69 27.5z" />
    </font>
</defs>
</svg>
