<?xml version="1.0" standalone="no"?>
<!DOCTYPE svg PUBLIC "-//W3C//DTD SVG 1.1//EN" "http://www.w3.org/Graphics/SVG/1.1/DTD/svg11.dtd" >
<svg xmlns="http://www.w3.org/2000/svg" xmlns:xlink="http://www.w3.org/1999/xlink" version="1.1">
<metadata>
Created by FontForge 20190801 at Fri Mar 24 11:34:11 2017
 By www-data
(URW)++,Copyright 2016 by (URW)++ Design &#38; Development
</metadata>
<defs>
<font id="JMSansItalic" horiz-adv-x="1147" >
  <font-face 
    font-family="JMSansItalic"
    font-weight="400"
    font-style="italic"
    font-stretch="normal"
    units-per-em="2048"
    panose-1="0 0 0 0 0 0 0 0 0 0"
    ascent="1536"
    descent="-512"
    x-height="985"
    cap-height="1407"
    bbox="-396 -540 2411 2000"
    underline-thickness="119"
    underline-position="-401"
    slope="-10"
    unicode-range="U+0020-FB04"
  />
<missing-glyph horiz-adv-x="492" 
d="M49 0v1407h394v-1407h-394zM394 49v1309h-296v-1309h296z" />
    <glyph glyph-name="ff" unicode="ff" horiz-adv-x="1336" 
d="M277 835h-190l37 150h179l26 148q30 168 94 245q85 102 249 102q100 0 190 -39l-64 -136q-62 25 -116 25q-81 0 -121.5 -49.5t-63.5 -174.5l-21 -121h261l-38 -150h-249l-168 -945q-31 -176 -92 -256q-82 -108 -237 -108q-92 0 -177 34l64 136q56 -19 104 -19
q72 0 108.5 49t59.5 174zM945 835h-190l37 150h179l26 148q30 168 94 245q85 102 249 102q100 0 190 -39l-64 -136q-62 25 -116 25q-81 0 -122 -49.5t-63 -174.5l-21 -121h261l-38 -150h-249l-168 -945q-31 -176 -92 -256q-82 -108 -237 -108q-92 0 -177 34l64 136
q56 -19 104 -19q72 0 108.5 49t58.5 174z" />
    <glyph glyph-name="fi" unicode="fi" horiz-adv-x="1217" 
d="M277 835h-190l37 150h179l26 148q30 168 94 245q85 102 249 102q100 0 190 -39l-64 -136q-62 25 -116 25q-81 0 -121.5 -49.5t-63.5 -174.5l-21 -121h261l-38 -150h-249l-168 -945q-31 -176 -92 -256q-82 -108 -237 -108q-92 0 -177 34l64 136q56 -19 104 -19
q72 0 108.5 49t59.5 174zM1081 1385q47 0 80.5 -35t33.5 -84t-34 -84t-82 -35t-82 35t-34 85t34 84t84 34zM767 0l173 985h178l-174 -985h-177z" />
    <glyph glyph-name="fl" unicode="fl" horiz-adv-x="1220" 
d="M277 835h-190l37 150h179l26 148q30 168 94 245q85 102 249 102q100 0 190 -39l-64 -136q-62 25 -116 25q-81 0 -121.5 -49.5t-63.5 -174.5l-21 -121h261l-38 -150h-249l-168 -945q-31 -176 -92 -256q-82 -108 -237 -108q-92 0 -177 34l64 136q56 -19 104 -19
q72 0 108.5 49t59.5 174zM771 0l255 1448l184 38l-261 -1486h-178z" />
    <glyph glyph-name="ffi" unicode="ffi" horiz-adv-x="1885" 
d="M277 835h-190l37 150h179l26 148q30 168 94 245q85 102 249 102q100 0 190 -39l-64 -136q-62 25 -116 25q-81 0 -121.5 -49.5t-63.5 -174.5l-21 -121h261l-38 -150h-249l-168 -945q-31 -176 -92 -256q-82 -108 -237 -108q-92 0 -177 34l64 136q56 -19 104 -19
q72 0 108.5 49t59.5 174zM1435 0l173 985h178l-174 -985h-177zM1749 1382q47 0 80.5 -34t33.5 -82q0 -49 -34 -83t-82 -34t-82 34.5t-34 82.5q0 49 34.5 82.5t83.5 33.5zM945 835h-190l37 150h179l26 148q30 168 94 245q85 102 249 102q100 0 190 -39l-64 -136
q-62 25 -116 25q-81 0 -122 -49.5t-63 -174.5l-21 -121h261l-38 -150h-249l-168 -945q-31 -176 -92 -256q-82 -108 -237 -108q-92 0 -177 34l64 136q56 -19 104 -19q72 0 108.5 49t58.5 174z" />
    <glyph glyph-name=".notdef" horiz-adv-x="492" 
d="M49 0v1407h394v-1407h-394zM394 49v1309h-296v-1309h296z" />
    <glyph glyph-name="glyph1" horiz-adv-x="0" 
 />
    <glyph glyph-name="glyph2" horiz-adv-x="492" 
 />
    <glyph glyph-name="space" unicode=" " horiz-adv-x="492" 
 />
    <glyph glyph-name="exclam" unicode="!" horiz-adv-x="706" 
d="M260 397l153 1010h203l-203 -1010h-153zM286 220q50 0 86 -36.5t36 -87.5q0 -52 -36 -88.5t-88 -36.5q-53 0 -89 36.5t-36 89.5q0 51 37 87t90 36z" />
    <glyph glyph-name="quotedbl" unicode="&#x22;" horiz-adv-x="700" 
d="M193 855l73 552h183l-122 -552h-134zM501 855l73 552h183l-122 -552h-134z" />
    <glyph glyph-name="numbersign" unicode="#" 
d="M330 597l60 221h-207l34 130h208l85 314h160l-85 -314h180l85 314h160l-84 -314h207l-34 -130h-208l-60 -221h206l-36 -130h-204l-86 -323h-160l85 323h-180l-85 -323h-161l86 323h-211l36 130h209zM491 597h180l60 221h-180z" />
    <glyph glyph-name="dollar" unicode="$" 
d="M448 -28q-239 9 -378 87l84 153q78 -48 146.5 -67t173.5 -23l93 526q-141 69 -199 117q-124 102 -124 250q0 180 119 281t337 109l33 186h110l-34 -190q160 -15 293 -84l-87 -143q-111 65 -232 78l-83 -473q148 -71 204 -113q124 -93 124 -257q0 -169 -106 -287
q-119 -132 -364 -148l-30 -166h-109zM599 828l74 423q-102 -14 -154 -44q-91 -52 -91 -172q0 -68 34 -109.5t137 -97.5zM668 599l-82 -468q96 17 147 53q104 74 104 201q0 101 -75 158q-23 18 -94 56z" />
    <glyph glyph-name="percent" unicode="%" horiz-adv-x="1713" 
d="M567 1436q126 0 198 -71q72 -72 72 -204q0 -90 -24.5 -180.5t-64.5 -149.5q-101 -147 -289 -147q-137 0 -208 71q-71 72 -71 205q0 90 24.5 179.5t64.5 149.5q100 147 298 147zM556 1316q-115 0 -170 -127q-46 -107 -46 -239q0 -146 124 -146q112 0 167 127
q46 108 46 239q0 146 -121 146zM1338 723q126 0 197 -71q72 -72 72 -203q0 -91 -24.5 -181.5t-64.5 -149.5q-101 -147 -289 -147q-137 0 -207 71q-71 72 -71 206q0 89 24.5 178.5t64.5 149.5q100 147 298 147zM1326 603q-115 0 -169 -127q-46 -108 -46 -239q0 -146 124 -146
q111 0 166 127q46 107 46 240q0 145 -121 145zM419 0l791 1407h158l-791 -1407h-158z" />
    <glyph glyph-name="ampersand" unicode="&#x26;" horiz-adv-x="1400" 
d="M1061 244l179 -244h-249l-84 127q-202 -156 -438 -156q-184 0 -289 91q-108 93 -108 254q0 208 149 344q84 76 262 140q-75 122 -75 252q0 163 98 269q106 115 292 115q155 0 239 -76q78 -71 78 -198q0 -185 -145 -297q-79 -61 -246 -121l249 -380q145 163 272 514
l158 -27q-63 -188 -153.5 -348.5t-188.5 -258.5zM651 860q126 43 194 95q104 79 104 217q0 130 -153 130q-115 0 -173 -82q-47 -67 -47 -158q0 -88 75 -202zM549 679q-293 -109 -293 -341q0 -109 66 -165q68 -58 189 -58q157 0 318 120z" />
    <glyph glyph-name="quotesingle" unicode="'" horiz-adv-x="354" 
d="M174 855l73 552h183l-122 -552h-134z" />
    <glyph glyph-name="parenleft" unicode="(" horiz-adv-x="834" 
d="M537 -297l-125 -67q-75 136 -115 308t-40 356q0 447 208 854q117 229 269 398l118 -67q-130 -177 -227 -395q-87 -197 -129 -385q-56 -252 -56 -435q0 -313 97 -567z" />
    <glyph glyph-name="parenright" unicode=")" horiz-adv-x="834" 
d="M332 1485l126 67q75 -136 115 -307.5t40 -355.5q0 -339 -126 -669t-351 -584l-118 67q129 175 227 395q87 196 129 385q56 253 56 434q0 157 -24.5 299.5t-73.5 268.5z" />
    <glyph glyph-name="asterisk" unicode="*" 
d="M674 1059l-235 -310l-127 99l270 289l-327 66l78 162l305 -111l39 333h179l-78 -333l344 111l21 -162l-351 -66l168 -289l-161 -99z" />
    <glyph glyph-name="plus" unicode="+" 
d="M133 622l43 160h372l70 394h172l-69 -394h388l-44 -160h-372l-70 -392h-172l69 392h-387z" />
    <glyph glyph-name="comma" unicode="," horiz-adv-x="573" 
d="M12 -271l148 480h200l-207 -480h-141z" />
    <glyph glyph-name="hyphen" unicode="-" horiz-adv-x="735" 
d="M83 563l55 159h567l-55 -159h-567z" />
    <glyph glyph-name="period" unicode="." horiz-adv-x="573" 
d="M219 220q50 0 86 -36.5t36 -87.5q0 -52 -36 -88.5t-88 -36.5q-53 0 -89 36.5t-36 89.5q0 51 37 87t90 36z" />
    <glyph glyph-name="slash" unicode="/" horiz-adv-x="573" 
d="M-103 0l674 1407h181l-674 -1407h-181z" />
    <glyph glyph-name="zero" unicode="0" 
d="M725 1436q87 0 166.5 -29t126.5 -79q98 -104 98 -326q0 -128 -33 -315.5t-79 -317.5q-76 -215 -204 -307q-126 -91 -296 -91q-89 0 -167.5 26.5t-124.5 72.5q-50 50 -78.5 137t-28.5 192q0 138 35 328t85 328q76 209 210 298q123 83 290 83zM711 1285q-122 0 -200 -79.5
t-130 -256.5q-35 -122 -61.5 -291.5t-26.5 -273.5q0 -262 220 -262q120 0 198 80.5t129 255.5q34 119 61 289t27 269q0 269 -217 269z" />
    <glyph glyph-name="one" unicode="1" 
d="M449 0l217 1233l-255 -78l-20 130l348 122h140l-248 -1407h-182z" />
    <glyph glyph-name="two" unicode="2" 
d="M35 0l24 138l526 489q168 157 239 267t71 214q0 179 -218 179q-165 0 -374 -130l-45 141q211 140 437 140q192 0 292 -83q46 -37 72 -101.5t26 -138.5q0 -144 -82 -274.5t-286 -312.5l-425 -379h658l-27 -149h-888z" />
    <glyph glyph-name="three" unicode="3" 
d="M395 671l25 144h93q157 0 253 76q106 84 106 217q0 177 -220 177q-154 0 -344 -103l-43 143q123 62 215 86.5t203 24.5q189 0 285 -84q91 -79 91 -221q0 -165 -110 -271q-57 -56 -174 -100q232 -67 232 -291q0 -102 -39 -195.5t-110 -159.5q-152 -143 -436 -143
q-257 0 -409 106l84 143q86 -56 155 -77t168 -21q225 0 325 125q72 90 72 212t-86 172q-68 40 -218 40h-118z" />
    <glyph glyph-name="four" unicode="4" 
d="M639 372h-630l25 140l792 895h177l-157 -886h199l-38 -149h-187l-65 -372h-182zM671 518l117 660l-574 -660h457z" />
    <glyph glyph-name="five" unicode="5" 
d="M245 663l151 744h702l-40 -149h-525l-91 -439q77 37 125 49.5t113 12.5q354 0 354 -334q0 -119 -40 -228.5t-110 -184.5q-153 -163 -438 -163q-219 0 -384 94l82 147q136 -90 295 -90q237 0 332 154q73 116 73 265q0 194 -216 194q-124 0 -279 -99z" />
    <glyph glyph-name="six" unicode="6" 
d="M366 770q73 74 146.5 105t172.5 31q163 0 256 -84q103 -93 103 -265q0 -98 -30.5 -201.5t-81.5 -180.5q-138 -206 -418 -206q-202 0 -298 102q-94 100 -94 279q0 164 50.5 374t123.5 353q184 359 539 359q152 0 279 -53l-73 -138q-85 40 -194 40q-179 0 -293.5 -122.5
t-187.5 -392.5zM647 760q-164 0 -261 -132q-82 -112 -82 -279q0 -234 217 -234q178 0 268 168q65 121 65 260q0 102 -49 156q-55 61 -158 61z" />
    <glyph glyph-name="seven" unicode="7" 
d="M950 1258h-680l38 149h874l-17 -97l-768 -1310h-216z" />
    <glyph glyph-name="eight" unicode="8" 
d="M378 735q-59 36 -86 69q-60 74 -60 188q0 92 34.5 178.5t94.5 142.5q129 123 349 123q193 0 302 -87q99 -80 99 -231q0 -137 -63.5 -231t-194.5 -152q189 -75 189 -292q0 -105 -37.5 -197.5t-104.5 -153.5q-133 -121 -395 -121q-444 0 -444 329q0 161 84 276t233 159z
M711 1290q-168 0 -243 -116q-52 -80 -52 -182q0 -183 214 -183q167 0 244 117q53 80 53 182q0 87 -56 134.5t-160 47.5zM608 658q-199 0 -288 -114q-71 -91 -71 -228q0 -199 262 -199q193 0 280 112q69 90 69 229q0 200 -252 200z" />
    <glyph glyph-name="nine" unicode="9" 
d="M862 660q-128 -139 -321 -139q-168 0 -265 89q-96 88 -96 253q0 100 34.5 204t92.5 182q140 187 397 187q210 0 309 -110q86 -95 86 -271q0 -191 -58.5 -422t-141.5 -367q-182 -297 -516 -297q-154 0 -282 51l74 141q91 -41 199 -41q240 0 366 218q68 117 122 322z
M704 1290q-175 0 -265 -155q-69 -119 -69 -260q0 -97 50 -150q55 -58 163 -58q155 0 254 123q81 102 81 267q0 233 -214 233z" />
    <glyph glyph-name="colon" unicode=":" horiz-adv-x="573" 
d="M212 220q50 0 86 -36.5t36 -87.5q0 -52 -36 -88.5t-88 -36.5q-53 0 -89 36.5t-36 89.5q0 51 37 87t90 36zM352 1012q50 0 86 -37t36 -88t-36.5 -87.5t-87.5 -36.5q-53 0 -89 36.5t-36 88.5t37 88t90 36z" />
    <glyph glyph-name="semicolon" unicode=";" horiz-adv-x="573" 
d="M12 -271l148 480h200l-207 -480h-141zM352 1012q50 0 86 -37t36 -88t-36.5 -87.5t-87.5 -36.5q-52 0 -88.5 36.5t-36.5 88.5t37 88t90 36z" />
    <glyph glyph-name="less" unicode="&#x3c;" 
d="M400 693l609 -316l-33 -188l-831 465l17 93l995 469l-36 -202z" />
    <glyph glyph-name="equal" unicode="=" 
d="M184 781l44 160h865l-43 -160h-866zM129 467l43 161h866l-44 -161h-865z" />
    <glyph glyph-name="greater" unicode="&#x3e;" 
d="M821 712l-609 316l33 188l831 -465l-17 -93l-995 -469l35 202z" />
    <glyph glyph-name="question" unicode="?" horiz-adv-x="927" 
d="M481 395h-166l16 92q21 120 66 178q39 50 174 164q116 97 161.5 167.5t45.5 150.5q0 143 -188 143q-160 0 -341 -106l-45 137q203 115 430 115q195 0 278 -89q56 -61 56 -155q0 -135 -76 -252q-49 -74 -191 -194q-138 -117 -164.5 -152t-41.5 -122zM350 220
q50 0 86 -36.5t36 -87.5q0 -52 -36.5 -88.5t-87.5 -36.5q-53 0 -89 36.5t-36 89.5q0 51 37 87t90 36z" />
    <glyph glyph-name="at" unicode="@" horiz-adv-x="1642" 
d="M1115 988h130l-100 -472q-14 -66 -14 -95q0 -75 76 -75q78 0 132 81q104 156 104 374q0 195 -100 304q-66 72 -170 107q-113 39 -238 39q-289 0 -470 -185q-203 -208 -203 -569q0 -284 154 -410q138 -113 397 -113q275 0 532 106l39 -104q-263 -113 -565 -113
q-688 0 -688 629q0 280 116 487q108 194 303 291q176 87 392 87q223 0 380 -92q248 -146 248 -470q0 -287 -159 -465q-93 -105 -229 -105q-80 0 -117 33.5t-48 116.5q-64 -82 -125.5 -117.5t-141.5 -35.5q-114 0 -177.5 72t-63.5 200q0 113 40 222.5t107 182.5
q102 110 248 110q69 0 114 -26.5t79 -87.5zM909 888q-108 0 -176 -128q-66 -122 -66 -265q0 -73 32 -110q32 -38 82 -38q112 0 190 132q76 130 76 257q0 63 -33 103q-40 49 -105 49z" />
    <glyph glyph-name="A" unicode="A" horiz-adv-x="1312" 
d="M951 418h-607l-241 -418h-200l828 1407h171l332 -1407h-190zM920 567l-138 621l-355 -621h493z" />
    <glyph glyph-name="B" unicode="B" horiz-adv-x="1246" 
d="M100 0l248 1407h436q253 0 350 -72q95 -72 95 -216q0 -151 -92 -258q-68 -79 -198 -114q101 -25 148 -77q67 -71 67 -202q0 -115 -45.5 -215.5t-122.5 -158.5q-70 -51 -165 -72.5t-255 -21.5h-466zM427 812h210q142 0 207.5 16t112.5 64q86 85 86 212q0 88 -62 121
t-225 33h-250zM311 149h237q225 0 310 66q49 38 77.5 106.5t28.5 148.5q0 131 -98 172q-70 30 -257 30h-206z" />
    <glyph glyph-name="C" unicode="C" horiz-adv-x="1127" 
d="M964 222l61 -147q-163 -104 -382 -104q-251 0 -385 125q-145 135 -145 402q0 241 93 472q186 466 647 466q221 0 369 -101l-90 -138q-120 88 -280 88q-280 0 -430 -281q-54 -101 -86.5 -237.5t-32.5 -263.5q0 -381 354 -381q160 0 307 100z" />
    <glyph glyph-name="D" unicode="D" horiz-adv-x="1327" 
d="M100 0l248 1407h348q283 0 419 -97q169 -120 169 -421q0 -270 -106 -498q-110 -237 -312 -326q-147 -65 -372 -65h-394zM311 153h154q206 0 317 56q163 82 248 310q64 174 64 355q0 275 -180 346q-87 34 -276 34h-132z" />
    <glyph glyph-name="E" unicode="E" horiz-adv-x="1128" 
d="M100 0l248 1407h841l-39 -153h-644l-76 -429h536l-37 -146h-525l-93 -526h680l-39 -153h-852z" />
    <glyph glyph-name="F" unicode="F" horiz-adv-x="1041" 
d="M100 0l248 1407h805l-39 -153h-608l-79 -444h507l-38 -149h-495l-117 -661h-184z" />
    <glyph glyph-name="G" unicode="G" horiz-adv-x="1312" 
d="M932 171l69 391h-292l39 144h462l-116 -661q-188 -74 -411 -74q-282 0 -419 121q-76 67 -113 177q-37 109 -37 229q0 254 101 496q100 239 298 354q153 88 357 88q224 0 402 -109l-87 -142q-151 100 -317 100q-179 0 -298 -93q-147 -114 -220 -366q-46 -162 -46 -317
q0 -207 101 -303q89 -84 275 -84q152 0 252 49z" />
    <glyph glyph-name="H" unicode="H" horiz-adv-x="1411" 
d="M100 0l248 1407h184l-104 -594h669l105 594h184l-248 -1407h-184l116 657h-670l-116 -657h-184z" />
    <glyph glyph-name="I" unicode="I" horiz-adv-x="587" 
d="M115 0l248 1407h184l-248 -1407h-184z" />
    <glyph glyph-name="J" unicode="J" horiz-adv-x="570" 
d="M354 1407h185l-175 -991q-40 -223 -74.5 -332.5t-95.5 -202.5q-78 -118 -274 -265l-86 85q156 134 225.5 281.5t124.5 459.5z" />
    <glyph glyph-name="K" unicode="K" horiz-adv-x="1217" 
d="M100 0l248 1407h184l-102 -580l686 580h237l-756 -631l541 -776h-211l-511 749l-132 -749h-184z" />
    <glyph glyph-name="L" unicode="L" horiz-adv-x="1022" 
d="M100 0l248 1407h184l-221 -1254h626l-38 -153h-799z" />
    <glyph glyph-name="M" unicode="M" horiz-adv-x="1716" 
d="M47 0l351 1407h187l232 -1130l631 1130h192l-145 -1407h-174l127 1098l-618 -1098h-118l-231 1098l-260 -1098h-174z" />
    <glyph glyph-name="N" unicode="N" horiz-adv-x="1442" 
d="M100 0l248 1407h175l525 -1107l195 1107h175l-249 -1407h-165l-533 1115l-196 -1115h-175z" />
    <glyph glyph-name="O" unicode="O" horiz-adv-x="1400" 
d="M835 1436q155 0 279 -62q137 -68 195 -216q48 -119 48 -269q0 -174 -53 -357q-82 -284 -258 -430q-156 -131 -401 -131q-256 0 -387 128q-70 68 -105 174q-37 116 -37 243q0 175 54 359q164 561 665 561zM830 1285q-280 0 -418 -288q-47 -97 -76.5 -238t-29.5 -264
q0 -185 92 -284q84 -89 250 -89q276 0 413 287q47 98 76.5 237t29.5 263q0 184 -91 282q-41 43 -107 68.5t-139 25.5z" />
    <glyph glyph-name="P" unicode="P" horiz-adv-x="1160" 
d="M100 0l248 1407h331q250 0 362 -68q73 -45 108 -135q26 -69 26 -150q0 -102 -38 -201t-102 -167q-74 -76 -182.5 -111t-275.5 -35h-198l-95 -540h-184zM406 689h169q224 0 310 90q45 47 72.5 118.5t27.5 142.5q0 132 -85 179q-70 39 -224 39h-170z" />
    <glyph glyph-name="Q" unicode="Q" horiz-adv-x="1400" 
d="M1018 101q103 19 148.5 23t160.5 6l-23 -130q-274 -2 -489 -19q-120 -10 -170 -10q-201 0 -329 82q-103 65 -154 195q-46 118 -46 267q0 177 53 360q83 284 259 428q162 133 399 133q259 0 395 -138q64 -66 99.5 -172.5t35.5 -233.5q0 -242 -94.5 -463.5t-244.5 -327.5z
M830 1285q-280 0 -418 -288q-47 -97 -76.5 -238t-29.5 -264q0 -185 92 -284q84 -89 250 -89q276 0 413 287q47 98 76.5 237t29.5 263q0 184 -91 282q-41 43 -107 68.5t-139 25.5z" />
    <glyph glyph-name="R" unicode="R" horiz-adv-x="1228" 
d="M387 584l-103 -584h-184l248 1407h388q225 0 331 -63q125 -74 125 -259q0 -92 -33.5 -184.5t-88.5 -153.5q-76 -84 -197 -119q36 -29 57.5 -67t50.5 -123l148 -438h-209l-108 344q-53 170 -78.5 205t-99.5 35h-247zM412 722h191q124 0 195.5 20.5t113.5 67.5
q40 46 65 118t25 143q0 106 -66 146.5t-239 40.5h-191z" />
    <glyph glyph-name="S" unicode="S" horiz-adv-x="1030" 
d="M-8 59l84 153q148 -90 324 -90q194 0 282 91q76 78 76 185q0 86 -46 136q-38 40 -181 114q-117 60 -171.5 96.5t-95.5 83.5q-73 83 -73 203q0 87 34 165.5t94 131.5q124 108 339 108q202 0 372 -89l-87 -142q-139 80 -282 80q-142 0 -218 -72q-68 -65 -68 -162
q0 -77 49.5 -125t215.5 -133q171 -87 231 -150q77 -82 77 -222q0 -107 -44 -199t-123 -152q-130 -99 -374 -99q-259 0 -415 88z" />
    <glyph glyph-name="T" unicode="T" horiz-adv-x="1062" 
d="M352 0l221 1254h-414l38 153h1003l-39 -153h-403l-221 -1254h-185z" />
    <glyph glyph-name="U" unicode="U" horiz-adv-x="1342" 
d="M341 1407h184l-152 -863q-26 -147 -26 -211q0 -117 74 -167q64 -44 190 -44q211 0 295 139q46 75 82 283l152 863h185l-168 -951q-22 -128 -46.5 -195t-67.5 -122q-131 -168 -448 -168q-237 0 -345 96q-89 80 -89 243q0 77 26 222z" />
    <glyph glyph-name="V" unicode="V" horiz-adv-x="1149" 
d="M398 0l-237 1407h186l176 -1163l591 1163h196l-736 -1407h-176z" />
    <glyph glyph-name="W" unicode="W" horiz-adv-x="1747" 
d="M292 0l-105 1407h184l68 -1136l519 1136h158l121 -1148l458 1148h188l-599 -1407h-177l-114 1132l-517 -1132h-184z" />
    <glyph glyph-name="X" unicode="X" horiz-adv-x="1198" 
d="M538 751l-296 656h195l237 -529l410 529h217l-557 -681l327 -726h-195l-268 597l-486 -597h-220z" />
    <glyph glyph-name="Y" unicode="Y" horiz-adv-x="1109" 
d="M374 0l97 549l-310 858h195l235 -686l474 686h206l-616 -858l-96 -549h-185z" />
    <glyph glyph-name="Z" unicode="Z" horiz-adv-x="1066" 
d="M-55 0l20 126l933 1128h-652l39 153h858l-9 -126l-933 -1128h771l-39 -153h-988z" />
    <glyph glyph-name="bracketleft" unicode="[" horiz-adv-x="834" 
d="M869 1548l-23 -135h-192l-287 -1627h192l-24 -133h-376l334 1895h376z" />
    <glyph glyph-name="backslash" unicode="\" horiz-adv-x="573" 
d="M331 0l-182 1407h173l182 -1407h-173z" />
    <glyph glyph-name="bracketright" unicode="]" horiz-adv-x="834" 
d="M3 -347l24 133h192l286 1627h-192l24 135h376l-334 -1895h-376z" />
    <glyph glyph-name="asciicircum" unicode="^" 
d="M703 1196l-398 -509h-210l595 745h98l333 -745h-200z" />
    <glyph glyph-name="underscore" unicode="_" horiz-adv-x="1024" 
d="M-231 -402l21 119h1172l-21 -119h-1172z" />
    <glyph glyph-name="grave" unicode="`" horiz-adv-x="1024" 
d="M770 1122h-138l-218 285h234z" />
    <glyph glyph-name="a" unicode="a" horiz-adv-x="1109" 
d="M872 0h-180l7 111q-74 -74 -146 -107t-161 -33q-153 0 -241 88q-82 83 -82 254q0 123 35.5 248.5t97.5 219.5q154 233 445 233q153 0 367 -68l-101 -574q-41 -232 -41 -372zM816 829q-85 38 -175 38q-204 0 -309 -209q-36 -72 -57.5 -165.5t-21.5 -176.5q0 -199 176 -199
q135 0 233 112q35 40 52 79t29 106z" />
    <glyph glyph-name="b" unicode="b" horiz-adv-x="1118" 
d="M101 69l243 1379l184 37l-105 -598q133 127 300 127q161 0 243 -98q79 -95 79 -272q0 -120 -34 -242t-92 -213q-141 -218 -414 -218q-196 0 -404 98zM297 177q80 -60 198 -60q193 0 292 194q74 145 74 319q0 238 -174 238q-138 0 -238 -112q-62 -70 -82 -185z" />
    <glyph glyph-name="c" unicode="c" horiz-adv-x="906" 
d="M754 206l44 -140q-146 -95 -325 -95q-397 0 -397 400q0 149 51 285q136 358 495 358q169 0 298 -78l-73 -137q-107 69 -219 69q-184 0 -284 -171q-84 -143 -84 -319q0 -261 248 -261q66 0 118 19t128 70z" />
    <glyph glyph-name="d" unicode="d" horiz-adv-x="1118" 
d="M849 964l85 484l184 37l-262 -1485h-139l-2 120q-141 -149 -321 -149q-147 0 -232 82q-92 89 -92 271q0 120 34 241t93 211q155 238 428 238q62 0 103 -9t121 -41zM821 808q-74 60 -184 60q-201 0 -307 -210q-76 -150 -76 -322q0 -116 53 -170q48 -49 129 -49
q133 0 233 112q62 70 83 185z" />
    <glyph glyph-name="e" unicode="e" horiz-adv-x="974" 
d="M260 405q-1 -19 -1 -26q0 -140 61 -204t193 -64q76 0 135 19.5t140 72.5l51 -135q-171 -97 -359 -97q-194 0 -287 84q-113 101 -113 310q0 117 35.5 234.5t96.5 204.5q147 210 416 210q145 0 221.5 -64t76.5 -184q0 -105 -60 -172.5t-194 -111.5q-118 -39 -412 -77z
M277 537q214 24 337 69q78 29 112.5 66t34.5 93q0 114 -141 114q-129 0 -218 -88.5t-125 -253.5z" />
    <glyph glyph-name="f" unicode="f" horiz-adv-x="668" 
d="M277 835h-190l37 150h179l26 148q30 168 94 245q85 102 249 102q100 0 190 -39l-64 -136q-62 25 -116 25q-81 0 -121.5 -49.5t-63.5 -174.5l-21 -121h261l-38 -150h-249l-168 -945q-31 -176 -92 -256q-82 -108 -237 -108q-92 0 -177 34l64 136q56 -19 104 -19
q72 0 108.5 49t59.5 174z" />
    <glyph glyph-name="g" unicode="g" horiz-adv-x="1105" 
d="M683 100q-73 -70 -140 -99.5t-152 -29.5q-147 0 -233 82q-89 85 -89 261q0 120 34.5 242.5t95.5 217.5q154 240 445 240q155 0 366 -68l-135 -767q-50 -286 -104 -405q-110 -248 -430 -248q-187 0 -333 69l75 140q106 -65 253 -65q157 0 228 81t112 306zM812 829
q-88 39 -173 39q-203 0 -307 -209q-35 -72 -57 -167t-22 -178q0 -95 45.5 -146t128.5 -51q134 0 231 112q35 40 52 79t29 106z" />
    <glyph glyph-name="h" unicode="h" horiz-adv-x="1171" 
d="M88 0l255 1448l184 37l-112 -636q109 92 191 128.5t177 36.5q129 0 202 -61q62 -52 62 -144q0 -68 -23 -201l-108 -608h-177l111 631q11 63 11 111q0 117 -132 117q-98 0 -216 -80q-77 -53 -130 -114l-117 -665h-178z" />
    <glyph glyph-name="i" unicode="i" horiz-adv-x="550" 
d="M99 0l174 985h177l-173 -985h-178zM413 1382q47 0 80.5 -34t33.5 -82q0 -49 -34 -83t-82 -34t-82 34.5t-34 82.5q0 49 34.5 82.5t83.5 33.5z" />
    <glyph glyph-name="j" unicode="j" horiz-adv-x="555" 
d="M279 985h177l-165 -940q-42 -234 -127 -351q-58 -80 -184 -174l-72 71q97 117 132 196q46 103 89 350zM419 1382q47 0 80.5 -34.5t33.5 -81.5q0 -49 -34 -83t-82 -34t-82 34.5t-34 82.5q0 49 34.5 82.5t83.5 33.5z" />
    <glyph glyph-name="k" unicode="k" horiz-adv-x="1065" 
d="M95 0l255 1448l184 38l-146 -830l81 34q198 84 281.5 146t115.5 149h177q-25 -83 -71.5 -141t-131.5 -113q-115 -74 -278 -144l437 -587h-201l-377 527l-59 -23l-89 -504h-178z" />
    <glyph glyph-name="l" unicode="l" horiz-adv-x="547" 
d="M98 0l255 1448l184 37l-262 -1485h-177z" />
    <glyph glyph-name="m" unicode="m" horiz-adv-x="1769" 
d="M88 0l174 985h143l-8 -143q103 94 185.5 133t176.5 39q68 0 128 -20t87 -52t43 -104q185 176 367 176q130 0 202 -66q57 -52 57 -143q0 -71 -24 -210l-105 -595h-178l112 632q10 59 10 115q0 112 -119 112q-75 0 -165.5 -53t-166.5 -141l-117 -665h-178l111 629
q11 63 11 118q0 112 -120 112q-74 0 -165 -53t-166 -141l-117 -665h-178z" />
    <glyph glyph-name="n" unicode="n" horiz-adv-x="1171" 
d="M88 0l174 985h143l-8 -143q195 172 389 172q122 0 191 -56t69 -155q0 -66 -25 -208l-105 -595h-177l109 623q15 82 15 119q0 115 -133 115q-79 0 -175 -53t-172 -139l-117 -665h-178z" />
    <glyph glyph-name="o" unicode="o" horiz-adv-x="1101" 
d="M623 1014q194 0 299 -109q101 -104 101 -299q0 -113 -35 -230t-95 -201q-143 -204 -409 -204q-197 0 -299 101q-107 105 -107 308q0 113 35.5 230t93.5 200q145 204 416 204zM615 868q-192 0 -287 -195q-66 -135 -66 -296q0 -260 229 -260q187 0 282 195q66 136 66 297
q0 121 -54 188q-56 71 -170 71z" />
    <glyph glyph-name="p" unicode="p" horiz-adv-x="1118" 
d="M5 -480l258 1465h142v-120q140 149 320 149q153 0 239 -92q85 -91 85 -267q0 -115 -33 -235t-88 -211q-147 -238 -426 -238q-139 0 -231 53l-82 -464zM299 180q75 -63 185 -63q204 0 307 210q74 152 74 313q0 110 -44 167q-46 61 -136 61q-135 0 -235 -112
q-62 -70 -82 -185z" />
    <glyph glyph-name="q" unicode="q" horiz-adv-x="1118" 
d="M1023 946l-245 -1387l-184 -40l101 578q-132 -126 -295 -126q-70 0 -134.5 22.5t-105.5 60.5q-91 86 -91 263q0 121 36 246t98 218q155 233 446 233q162 0 374 -68zM824 829q-89 39 -181 39q-204 0 -310 -209q-80 -157 -80 -340q0 -99 48 -150q47 -52 135 -52
q136 0 234 112q35 40 52.5 79t28.5 106z" />
    <glyph glyph-name="r" unicode="r" horiz-adv-x="747" 
d="M88 0l174 985h143l-13 -173q118 102 217 144t227 43l-39 -155q-114 -5 -209 -52q-118 -59 -211 -157l-111 -635h-178z" />
    <glyph glyph-name="s" unicode="s" horiz-adv-x="807" 
d="M-36 62l78 139q78 -51 136.5 -70.5t127.5 -19.5q99 0 156 49.5t57 134.5q0 51 -24.5 75.5t-138.5 84.5q-131 69 -179 125q-51 60 -51 146q0 132 94.5 210t254.5 78q161 0 293 -69l-77 -135q-96 64 -213 64q-82 0 -126.5 -36t-44.5 -103q0 -52 51 -88q26 -19 136 -80
q115 -64 161 -120.5t46 -134.5q0 -64 -25 -128t-68 -109q-100 -104 -313 -104q-200 0 -331 91z" />
    <glyph glyph-name="t" unicode="t" horiz-adv-x="713" 
d="M275 839h-169l37 146h163l56 247l169 55l-53 -302h232l-38 -146h-220l-87 -497q-20 -111 -20 -154q0 -71 93 -71q61 0 125 35l40 -138q-115 -43 -227 -43q-214 0 -214 174q0 56 19 166z" />
    <glyph glyph-name="u" unicode="u" horiz-adv-x="1144" 
d="M736 126q-172 -155 -354 -155q-122 0 -188.5 56.5t-66.5 159.5q0 71 25 216l103 582h178l-106 -600q-16 -89 -16 -143q0 -116 126 -116q74 0 159.5 41.5t158.5 113.5l124 704h178l-174 -985h-148z" />
    <glyph glyph-name="v" unicode="v" horiz-adv-x="972" 
d="M289 0l-177 985h181l121 -797q325 348 325 545q0 44 -17.5 76.5t-66.5 80.5l112 118q82 -62 119 -120t37 -123q0 -156 -160 -380q-126 -176 -323 -385h-151z" />
    <glyph glyph-name="w" unicode="w" horiz-adv-x="1530" 
d="M274 0l-149 985h181l89 -767l363 767h147l138 -783q264 342 264 531q0 44 -17.5 75.5t-69.5 81.5l108 118q81 -61 118.5 -119.5t37.5 -125.5q0 -153 -142 -378q-113 -179 -284 -385h-143l-122 750l-354 -750h-165z" />
    <glyph glyph-name="x" unicode="x" horiz-adv-x="1019" 
d="M418 516l-271 469h197l201 -351l303 351h212l-442 -474l295 -511h-197l-225 393l-354 -393h-209z" />
    <glyph glyph-name="y" unicode="y" horiz-adv-x="972" 
d="M306 1l-211 984h181l158 -815q17 23 26 34q115 148 149.5 199t69.5 123q62 128 62 209q0 42 -17.5 74.5t-65.5 80.5l111 118q81 -60 118.5 -119.5t37.5 -126.5q0 -135 -111 -321q-57 -96 -300 -413q-192 -250 -311 -511l-166 62q132 239 269 422z" />
    <glyph glyph-name="z" unicode="z" horiz-adv-x="874" 
d="M-3 0l-21 132l644 707h-71q-257 0 -392 41l49 144q159 -39 441 -39h184l25 -119l-652 -719q79 6 143 6q251 0 445 -74l-62 -142q-107 39 -210.5 54.5t-261.5 15.5q-97 0 -261 -7z" />
    <glyph glyph-name="braceleft" unicode="{" horiz-adv-x="834" 
d="M404 653q102 -44 102 -149q0 -31 -24 -169l-42 -235q-24 -137 -24 -201q0 -69 38.5 -97.5t132.5 -28.5h46l-22 -120h-107q-111 0 -171 25q-103 43 -103 191q0 62 29 226l44 247q7 44 16 86q9 48 9 82q0 96 -138 96h-30l16 94h30q95 0 137 44q25 26 36 61.5t33 159.5
l37 208q25 140 48 199.5t69 101.5q83 74 271 74h108l-21 -120h-45q-78 0 -121 -17.5t-69 -60.5q-40 -65 -73 -251l-22 -127q-26 -143 -40.5 -183t-55.5 -77q-39 -36 -94 -59z" />
    <glyph glyph-name="bar" unicode="|" horiz-adv-x="1024" 
d="M264 -410l320 1817h178l-320 -1817h-178z" />
    <glyph glyph-name="braceright" unicode="}" horiz-adv-x="834" 
d="M486 653q-102 48 -102 149q0 30 25 169l22 129q24 136 24 202q0 69 -38.5 97.5t-132.5 28.5h-45l21 120h101q113 0 175 -25q105 -42 105 -191q0 -63 -29 -226l-24 -142q-8 -41 -16 -79q-11 -53 -11 -88q0 -97 139 -97h30l-16 -94h-30q-94 0 -137 -44q-25 -25 -36 -60.5
t-33 -160.5l-56 -313q-24 -140 -47.5 -200t-69.5 -101q-82 -74 -271 -74h-108l21 120h46q78 0 120.5 17.5t69.5 60.5q40 65 72 251l41 232q25 143 39.5 182.5t54.5 77.5q42 39 96 59z" />
    <glyph glyph-name="asciitilde" unicode="~" 
d="M265 555l-123 33q57 128 106 182q86 98 205 98q60 0 101.5 -18t109.5 -73q57 -47 85 -61.5t58 -14.5q46 0 81.5 33t82.5 117l119 -38q-53 -115 -101 -170q-87 -99 -209 -99q-55 0 -95.5 18t-106.5 72q-58 49 -85 63t-60 14q-48 0 -86 -35.5t-82 -120.5z" />
    <glyph glyph-name="nonbreakingspace" unicode="&#xa0;" horiz-adv-x="492" 
 />
    <glyph glyph-name="exclamdown" unicode="&#xa1;" horiz-adv-x="706" 
d="M447 589l-154 -1010h-202l203 1010h153zM425 1014q50 0 86.5 -37t36.5 -88t-36.5 -87.5t-88.5 -36.5t-88 36.5t-36 88.5t37 88t89 36z" />
    <glyph glyph-name="cent" unicode="&#xa2;" 
d="M524 351q-359 39 -359 396q0 189 88 354q143 267 454 287l35 197h109l-35 -199q127 -11 233 -74l-72 -138q-93 59 -186 67l-132 -747q61 4 107 22t118 66l44 -141q-132 -86 -295 -93l-50 -284h-110zM551 502l129 733q-108 -20 -187 -100q-65 -65 -104.5 -171t-39.5 -212
q0 -150 103 -215q28 -17 99 -35z" />
    <glyph glyph-name="sterling" unicode="&#xa3;" 
d="M522 787h280l-37 -146h-268l-87 -492h614l-38 -149h-941l38 149h146l87 492h-191l37 146h180l35 203q20 110 47.5 171.5t80.5 115.5q128 128 365 128q184 0 349 -79l-86 -143q-121 71 -255 71q-148 0 -224 -75.5t-107 -254.5z" />
    <glyph glyph-name="currency" unicode="&#xa4;" 
d="M177 132l-96 94l176 183q-85 119 -85 263q0 143 85 262l-176 183l96 94l175 -184q123 80 254 80q72 0 127.5 -17.5t123.5 -62.5l176 184l96 -94l-176 -183q83 -123 83 -263q0 -139 -83 -262l176 -183l-96 -94l-176 184q-69 -45 -124.5 -62.5t-127.5 -17.5t-127.5 17.5
t-125.5 62.5zM608 967q-127 0 -204 -91q-67 -79 -67 -205q0 -125 67 -204q77 -91 200 -91t200 91q67 80 67 204q0 126 -67 205q-77 91 -196 91z" />
    <glyph glyph-name="yen" unicode="&#xa5;" 
d="M387 0l55 312h-369l33 111h356l20 115l-8 25h-357l33 111h288l-251 733l191 -1l226 -686l465 686l202 1l-513 -733h304l-33 -111h-345l-18 -25l-20 -115h371l-32 -111h-358l-56 -312h-184z" />
    <glyph glyph-name="brokenbar" unicode="&#xa6;" horiz-adv-x="1024" 
d="M488 863l96 544h178l-96 -544h-178zM336 0l90 511h178l-90 -511h-178z" />
    <glyph glyph-name="section" unicode="&#xa7;" 
d="M81 -131l94 141q136 -92 280 -92q127 0 189 68q54 60 54 139q0 61 -45 94q-37 28 -176 73q-97 32 -147 56.5t-83 56.5q-60 59 -60 164q0 213 221 321q-71 63 -71 188q0 158 109 266q105 103 297 103q178 0 324 -86l-92 -134q-114 76 -227 76q-114 0 -174 -64
q-53 -57 -53 -133q0 -71 52 -108q38 -27 161 -69q95 -33 140 -55.5t77 -52.5q63 -60 63 -169q0 -199 -205 -311q73 -68 73 -186q0 -158 -104 -267q-109 -114 -319 -114q-207 0 -378 95zM696 395q9 6 14 9q46 29 65 47.5t36 51.5q30 57 30 116q0 62 -51 99q-14 11 -142 61
l-131 53q-78 -45 -106 -83q-50 -68 -50 -146q0 -62 40 -93q32 -26 157 -68z" />
    <glyph glyph-name="dieresis" unicode="&#xa8;" horiz-adv-x="1024" 
d="M475 1378q45 0 77.5 -33t32.5 -79q0 -47 -33 -80t-79 -33q-47 0 -79.5 33t-32.5 80t33 79.5t81 32.5zM825 1378q45 0 77.5 -33t32.5 -79q0 -47 -33 -80t-79 -33q-47 0 -79.5 33t-32.5 80t33 79.5t81 32.5z" />
    <glyph glyph-name="copyright" unicode="&#xa9;" horiz-adv-x="1707" 
d="M1109 491l48 -94q-96 -58 -228 -58q-177 0 -264 103q-79 93 -79 260q0 185 91 288.5t252 103.5q113 0 215 -50l-46 -95q-84 41 -150 41q-97 0 -149 -74q-54 -77 -54 -203q0 -270 207 -270q85 0 157 48zM902 1458q316 0 528 -213q213 -214 213 -537q0 -321 -213 -535
q-211 -214 -538 -214t-538 214q-213 214 -213 534q0 226 111 408q102 168 281 261q159 82 369 82zM901 1364q-293 0 -476 -199q-169 -183 -169 -458q0 -271 169 -455q182 -199 467 -199t467 199q169 184 169 456q0 278 -169 457q-187 199 -458 199z" />
    <glyph glyph-name="ordfeminine" unicode="&#xaa;" horiz-adv-x="737" 
d="M684 808h-129v58q-83 -73 -181 -73q-100 0 -152.5 53.5t-52.5 155.5q0 160 83 281q96 141 280 141q95 0 243 -42l-65 -346q-26 -136 -26 -228zM622 1302q-54 20 -97 20q-111 0 -170 -119q-45 -92 -45 -200q0 -109 91 -109q67 0 114 43.5t61 117.5z" />
    <glyph glyph-name="guillemotleft" unicode="&#xab;" horiz-adv-x="915" 
d="M672 530l127 -272l-97 -62l-249 328l7 36l364 328l71 -86zM300 530l127 -272l-97 -62l-249 328l6 36l365 328l71 -86z" />
    <glyph glyph-name="logicalnot" unicode="&#xac;" 
d="M150 638l26 146h865l-100 -568h-178l74 422h-687z" />
    <glyph glyph-name="uni00AD" unicode="&#xad;" horiz-adv-x="735" 
d="M83 563l55 159h567l-55 -159h-567z" />
    <glyph glyph-name="registered" unicode="&#xae;" horiz-adv-x="1259" 
d="M553 735v557h172q117 0 169.5 -38t52.5 -123q0 -63 -26 -96.5t-90 -53.5q17 -16 43 -63l99 -183h-111l-71 137q-35 67 -46.5 80t-36.5 13h-56v-230h-99zM652 1034h64q72 0 100 20.5t28 72.5q0 51 -28 71.5t-100 20.5h-64v-185zM729 1561q221 0 375 -146
q165 -156 165 -401q0 -244 -165 -401q-154 -146 -382 -146q-229 0 -383 146q-165 157 -165 400q0 249 165 402q158 146 390 146zM729 1481q-208 0 -332 -130q-60 -63 -94 -152t-34 -186q0 -95 34 -184t94 -152q124 -130 325 -130t325 130q128 134 128 337q0 202 -128 337
q-123 130 -318 130z" />
    <glyph glyph-name="macron" unicode="&#xaf;" horiz-adv-x="1024" 
d="M349 1192l25 140h574l-25 -140h-574z" />
    <glyph glyph-name="degree" unicode="&#xb0;" horiz-adv-x="573" 
d="M414 1418q94 0 158 -61q66 -64 66 -157t-65 -155.5t-161 -62.5q-97 0 -160 62q-66 63 -66 155q0 95 65 157t163 62zM413 1320q-53 0 -83.5 -32t-30.5 -89q0 -55 30.5 -87t82.5 -32t82.5 32.5t30.5 88.5q0 54 -30.5 86.5t-81.5 32.5z" />
    <glyph glyph-name="plusminus" unicode="&#xb1;" 
d="M132 616l41 153h373l70 399h172l-71 -399h388l-42 -153h-373l-66 -375h-171l66 375h-387zM23 0l42 153h913l-42 -153h-913z" />
    <glyph glyph-name="twosuperior" unicode="&#xb2;" horiz-adv-x="737" 
d="M117 762l17 97l332 292q103 91 147 153t44 117q0 104 -130 104q-96 0 -241 -85l-40 102q90 51 153.5 70t143.5 19q262 0 262 -197q0 -90 -50.5 -167t-182.5 -188l-250 -210h405l-19 -107h-591z" />
    <glyph glyph-name="threesuperior" unicode="&#xb3;" horiz-adv-x="737" 
d="M366 1160l18 102h43q92 0 149 47q62 51 62 123q0 92 -125 92q-51 0 -94 -13t-132 -54l-36 100q83 41 144 57t138 16q122 0 186.5 -46t64.5 -132q0 -159 -161 -225q130 -47 130 -172q0 -141 -99 -225q-100 -84 -282 -84q-164 0 -268 66l65 103q100 -63 199 -63
q144 0 203 84q34 48 34 105q0 63 -42.5 91t-137.5 28h-59z" />
    <glyph glyph-name="acute" unicode="&#xb4;" horiz-adv-x="1024" 
d="M498 1122l223 285h239l-319 -285h-143z" />
    <glyph glyph-name="mu" unicode="&#xb5;" horiz-adv-x="1139" 
d="M-4 -480l258 1465h178l-116 -656q-11 -61 -11 -90q0 -52 20 -78q28 -35 100 -35q145 0 329 157l124 702h178l-174 -985h-154l4 128q-171 -153 -338 -153q-77 0 -135 34l-79 -449z" />
    <glyph glyph-name="paragraph" unicode="&#xb6;" horiz-adv-x="1364" 
d="M388 -394l189 1072h-57q-129 0 -185 25q-74 33 -117 108q-42 76 -42 174q0 115 57 216.5t150 152.5q83 47 202 51q36 2 183 2h455l-317 -1801h-175l290 1648h-168l-290 -1648h-175z" />
    <glyph glyph-name="glyph121" unicode="&#xb7;" horiz-adv-x="573" 
d="M314 758q50 0 86 -36.5t36 -87.5q0 -52 -36.5 -88.5t-87.5 -36.5q-53 0 -89 36.5t-36 89.5q0 51 37 87t90 36z" />
    <glyph glyph-name="cedilla" unicode="&#xb8;" horiz-adv-x="1024" 
d="M420 20h117l-113 -152q198 -16 198 -158q0 -100 -74.5 -157.5t-204.5 -57.5q-104 0 -212 43l54 94q66 -31 142 -31q59 0 95 32t36 83q0 40 -39.5 58.5t-130.5 20.5l-9 41z" />
    <glyph glyph-name="onesuperior" unicode="&#xb9;" horiz-adv-x="737" 
d="M377 762l128 724l-158 -44l-16 94l230 76h111l-150 -850h-145z" />
    <glyph glyph-name="ordmasculine" unicode="&#xba;" horiz-adv-x="737" 
d="M522 1423q132 0 198 -73q58 -64 58 -180q0 -154 -84 -262q-89 -115 -255 -115q-126 0 -190 59q-71 65 -71 191q0 72 23 144t61 122q89 114 260 114zM518 1322q-105 0 -160 -111q-39 -79 -39 -167q0 -150 121 -150q103 0 158 111q39 78 39 169q0 148 -119 148z" />
    <glyph glyph-name="guillemotright" unicode="&#xbb;" horiz-adv-x="915" 
d="M261 554l-127 272l97 62l249 -328l-6 -36l-365 -328l-71 86zM633 554l-127 272l97 62l249 -328l-6 -36l-364 -328l-72 86z" />
    <glyph glyph-name="onequarter" unicode="&#xbc;" horiz-adv-x="1720" 
d="M307 557l128 721l-158 -45l-16 98l230 76h111l-150 -850h-145zM1253 215h-387l17 97l480 538h145l-93 -528h127l-28 -107h-117l-38 -215h-144zM1278 317l66 375l-328 -375h262zM251 0l969 1407h143l-969 -1407h-143z" />
    <glyph glyph-name="onehalf" unicode="&#xbd;" horiz-adv-x="1720" 
d="M309 557l127 721l-157 -45l-16 98l229 76h111l-150 -850h-144zM891 0l17 99l331 291q104 91 148 152.5t44 115.5q0 102 -130 102q-100 0 -241 -85l-40 105q153 89 297 89q262 0 262 -197q0 -90 -52 -169.5t-181 -186.5l-250 -206h405l-19 -110h-591zM229 0l969 1407h143
l-969 -1407h-143z" />
    <glyph glyph-name="threequarters" unicode="&#xbe;" horiz-adv-x="1720" 
d="M350 954l18 104h43q92 0 149 46q62 50 62 122q0 90 -125 90q-51 0 -95 -13t-131 -54l-35 103q143 73 280 73q123 0 187.5 -46t64.5 -133q0 -158 -161 -224q130 -47 130 -172q0 -144 -102 -226.5t-280 -82.5q-164 0 -267 67l65 105q99 -63 199 -63q144 0 203 83
q34 47 34 104q0 61 -43 89t-137 28h-59zM1311 215h-387l17 97l480 538h145l-93 -528h127l-28 -107h-118l-38 -215h-143zM1335 317l67 375l-328 -375h261zM366 0l969 1407h143l-968 -1407h-144z" />
    <glyph glyph-name="questiondown" unicode="&#xbf;" horiz-adv-x="927" 
d="M447 591h167l-16 -91q-22 -121 -66 -178q-41 -51 -175 -164q-116 -99 -161.5 -168.5t-45.5 -150.5q0 -142 188 -142q161 0 342 106l45 -137q-203 -115 -431 -115q-195 0 -278 89q-56 60 -56 155q0 135 76 251q48 73 191 195q140 118 166 152t41 121zM581 1015
q53 0 89 -36.5t36 -89.5q0 -52 -37 -87.5t-90 -35.5q-50 0 -86 36.5t-36 87.5q0 52 36.5 88.5t87.5 36.5z" />
    <glyph glyph-name="Agrave" unicode="&#xc0;" horiz-adv-x="1312" 
d="M951 418h-607l-241 -418h-200l828 1407h171l332 -1407h-190zM920 567l-138 621l-355 -621h493zM910 1535h-137l-219 285h234z" />
    <glyph glyph-name="Aacute" unicode="&#xc1;" horiz-adv-x="1312" 
d="M951 418h-607l-241 -418h-200l828 1407h171l332 -1407h-190zM920 567l-138 621l-355 -621h493zM723 1535l223 285h239l-318 -285h-144z" />
    <glyph glyph-name="Acircumflex" unicode="&#xc2;" horiz-adv-x="1312" 
d="M951 418h-607l-241 -418h-200l828 1407h171l332 -1407h-190zM920 567l-138 621l-355 -621h493zM850 1700l-205 -165h-178l296 285h206l196 -285h-167z" />
    <glyph glyph-name="Atilde" unicode="&#xc3;" horiz-adv-x="1312" 
d="M951 418h-607l-241 -418h-200l828 1407h171l332 -1407h-190zM920 567l-138 621l-355 -621h493zM1097 1803h116q-31 -92 -64 -146q-74 -121 -190 -121q-85 0 -158 78q-35 38 -54 51t-41 13q-29 0 -61 -35.5t-55 -93.5h-116q91 267 258 267q82 0 154 -74q42 -44 59.5 -56
t37.5 -12q63 0 114 129z" />
    <glyph glyph-name="Adieresis" unicode="&#xc4;" horiz-adv-x="1312" 
d="M951 418h-607l-241 -418h-200l828 1407h171l332 -1407h-190zM920 567l-138 621l-355 -621h493zM646 1792q45 0 77.5 -33t32.5 -79q0 -47 -32.5 -80t-79.5 -33t-79.5 33t-32.5 81q0 46 33 78.5t81 32.5zM1041 1792q45 0 77.5 -33t32.5 -79q0 -47 -32.5 -80t-79.5 -33
t-79.5 33t-32.5 81q0 46 33 78.5t81 32.5z" />
    <glyph glyph-name="Aring" unicode="&#xc5;" horiz-adv-x="1312" 
d="M951 418h-607l-241 -418h-200l828 1407h171l332 -1407h-190zM920 567l-138 621l-355 -621h493zM842 1860q94 0 150 -51q57 -52 57 -139t-57.5 -139.5t-152.5 -52.5t-151 52q-58 54 -58 140q0 88 57 139t155 51zM841 1780q-103 0 -103 -111t101 -111q102 0 102 111
t-100 111z" />
    <glyph glyph-name="AE" unicode="&#xc6;" horiz-adv-x="1763" 
d="M832 414h-505l-292 -414h-205l1010 1407h983l-39 -153h-620l-76 -429h512l-37 -146h-501l-92 -526h655l-39 -153h-827zM859 567l121 687h-66l-480 -687h425z" />
    <glyph glyph-name="Ccedilla" unicode="&#xc7;" horiz-adv-x="1127" 
d="M964 222l61 -147q-164 -104 -391 -103l-76 -104q102 -8 150 -46.5t48 -111.5q0 -100 -75 -157.5t-204 -57.5q-104 0 -212 43l54 94q67 -31 142 -31q59 0 95.5 32t36.5 83q0 40 -40 58.5t-130 20.5l-10 41l111 145q-411 64 -411 518q0 240 93 471q100 252 288 370
q152 96 359 96q223 0 369 -101l-90 -138q-120 88 -280 88q-280 0 -430 -281q-54 -101 -86.5 -237.5t-32.5 -262.5q0 -381 354 -381q159 0 307 99z" />
    <glyph glyph-name="Egrave" unicode="&#xc8;" horiz-adv-x="1128" 
d="M100 0l248 1407h841l-39 -153h-644l-76 -429h536l-37 -146h-525l-93 -526h680l-39 -153h-852zM919 1535h-138l-218 285h234z" />
    <glyph glyph-name="Eacute" unicode="&#xc9;" horiz-adv-x="1128" 
d="M100 0l248 1407h841l-39 -153h-644l-76 -429h536l-37 -146h-525l-93 -526h680l-39 -153h-852zM678 1535l222 285h240l-319 -285h-143z" />
    <glyph glyph-name="Ecircumflex" unicode="&#xca;" horiz-adv-x="1128" 
d="M100 0l248 1407h841l-39 -153h-644l-76 -429h536l-37 -146h-525l-93 -526h680l-39 -153h-852zM807 1700l-205 -165h-178l296 285h206l196 -285h-168z" />
    <glyph glyph-name="Edieresis" unicode="&#xcb;" horiz-adv-x="1128" 
d="M100 0l248 1407h841l-39 -153h-644l-76 -429h536l-37 -146h-525l-93 -526h680l-39 -153h-852zM598 1792q45 0 77.5 -33t32.5 -79q0 -47 -32.5 -80t-79.5 -33t-79.5 33t-32.5 81q0 46 33 78.5t81 32.5zM993 1792q45 0 77.5 -33t32.5 -79q0 -47 -32.5 -80t-79.5 -33
t-79.5 33t-32.5 81q0 46 33 78.5t81 32.5z" />
    <glyph glyph-name="Igrave" unicode="&#xcc;" horiz-adv-x="587" 
d="M115 0l248 1407h184l-248 -1407h-184zM565 1535h-138l-218 285h234z" />
    <glyph glyph-name="Iacute" unicode="&#xcd;" horiz-adv-x="587" 
d="M115 0l248 1407h184l-248 -1407h-184zM378 1535l223 285h239l-319 -285h-143z" />
    <glyph glyph-name="Icircumflex" unicode="&#xce;" horiz-adv-x="587" 
d="M104 0l248 1407h185l-248 -1407h-185zM487 1700l-206 -165h-178l296 285h206l196 -285h-167z" />
    <glyph glyph-name="Idieresis" unicode="&#xcf;" horiz-adv-x="587" 
d="M115 0l248 1407h184l-248 -1407h-184zM290 1792q45 0 77.5 -33t32.5 -79q0 -47 -32.5 -80t-79.5 -33t-79.5 33t-32.5 81q0 46 33 78.5t81 32.5zM685 1792q45 0 77.5 -33t32.5 -79q0 -47 -32.5 -80t-79.5 -33t-79.5 33t-32.5 81q0 46 33 78.5t81 32.5z" />
    <glyph glyph-name="Eth" unicode="&#xd0;" horiz-adv-x="1327" 
d="M214 649h-162l37 144h151l108 614h348q283 0 419 -97q169 -120 169 -420q0 -271 -106 -499q-110 -237 -312 -326q-147 -65 -372 -65h-394zM399 649l-88 -496h154q206 0 317 56q163 81 247 309q65 175 65 355q0 276 -180 347q-87 34 -276 34h-133l-81 -461h398l-37 -144
h-386z" />
    <glyph glyph-name="Ntilde" unicode="&#xd1;" horiz-adv-x="1442" 
d="M100 0l248 1407h175l525 -1107l195 1107h175l-249 -1407h-165l-533 1115l-196 -1115h-175zM1200 1803h115q-30 -92 -63 -146q-74 -121 -190 -121q-86 0 -158 78q-35 38 -54.5 51t-40.5 13q-29 0 -61.5 -35.5t-55.5 -93.5h-115q91 267 257 267q83 0 155 -74
q42 -44 59.5 -56t37.5 -12q63 0 114 129z" />
    <glyph glyph-name="Ograve" unicode="&#xd2;" horiz-adv-x="1400" 
d="M835 1436q155 0 279 -62q137 -68 195 -216q48 -119 48 -269q0 -174 -53 -357q-82 -284 -258 -430q-156 -131 -401 -131q-256 0 -387 128q-70 68 -105 174q-37 116 -37 243q0 175 54 359q164 561 665 561zM830 1285q-280 0 -418 -288q-47 -97 -76.5 -238t-29.5 -264
q0 -185 92 -284q84 -89 250 -89q276 0 413 287q47 98 76.5 237t29.5 263q0 184 -91 282q-41 43 -107 68.5t-139 25.5zM1022 1535h-138l-218 285h234z" />
    <glyph glyph-name="Oacute" unicode="&#xd3;" horiz-adv-x="1400" 
d="M835 1436q155 0 279 -62q137 -68 195 -216q48 -119 48 -269q0 -174 -53 -357q-82 -284 -258 -430q-156 -131 -401 -131q-256 0 -387 128q-70 68 -105 174q-37 116 -37 243q0 175 54 359q164 561 665 561zM830 1285q-280 0 -418 -288q-47 -97 -76.5 -238t-29.5 -264
q0 -185 92 -284q84 -89 250 -89q276 0 413 287q47 98 76.5 237t29.5 263q0 184 -91 282q-41 43 -107 68.5t-139 25.5zM777 1535l223 285h239l-319 -285h-143z" />
    <glyph glyph-name="Ocircumflex" unicode="&#xd4;" horiz-adv-x="1400" 
d="M835 1436q155 0 279 -62q137 -68 195 -216q48 -119 48 -269q0 -174 -53 -357q-82 -284 -258 -430q-156 -131 -401 -131q-256 0 -387 128q-70 68 -105 174q-37 116 -37 243q0 175 54 359q164 561 665 561zM830 1285q-280 0 -418 -288q-47 -97 -76.5 -238t-29.5 -264
q0 -185 92 -284q84 -89 250 -89q276 0 413 287q47 98 76.5 237t29.5 263q0 184 -91 282q-41 43 -107 68.5t-139 25.5zM900 1700l-205 -165h-178l296 285h206l196 -285h-167z" />
    <glyph glyph-name="Otilde" unicode="&#xd5;" horiz-adv-x="1400" 
d="M835 1436q155 0 279 -62q137 -68 195 -216q48 -119 48 -269q0 -174 -53 -357q-82 -284 -258 -430q-156 -131 -401 -131q-256 0 -387 128q-70 68 -105 174q-37 116 -37 243q0 175 54 359q164 561 665 561zM830 1285q-280 0 -418 -288q-47 -97 -76.5 -238t-29.5 -264
q0 -185 92 -284q84 -89 250 -89q276 0 413 287q47 98 76.5 237t29.5 263q0 184 -91 282q-41 43 -107 68.5t-139 25.5zM1162 1803h116q-31 -92 -64 -146q-74 -121 -190 -121q-85 0 -158 78q-35 38 -54 51t-41 13q-29 0 -61 -35t-55 -94h-116q91 267 258 267q82 0 154 -74
q42 -44 59.5 -56t37.5 -12q63 0 114 129z" />
    <glyph glyph-name="Odieresis" unicode="&#xd6;" horiz-adv-x="1400" 
d="M835 1436q155 0 279 -62q137 -68 195 -216q48 -119 48 -269q0 -174 -53 -357q-82 -284 -258 -430q-156 -131 -401 -131q-256 0 -387 128q-70 68 -105 174q-37 116 -37 243q0 175 54 359q164 561 665 561zM830 1285q-280 0 -418 -288q-47 -97 -76.5 -238t-29.5 -264
q0 -185 92 -284q84 -89 250 -89q276 0 413 287q47 98 76.5 237t29.5 263q0 184 -91 282q-41 43 -107 68.5t-139 25.5zM709 1792q45 0 77.5 -33t32.5 -79q0 -47 -32.5 -80t-79.5 -33t-79.5 33t-32.5 81q0 46 33 78.5t81 32.5zM1105 1792q45 0 77.5 -33t32.5 -79
q0 -47 -33 -80t-79 -33q-47 0 -79.5 33t-32.5 81q0 46 33 78.5t81 32.5z" />
    <glyph glyph-name="multiply" unicode="&#xd7;" 
d="M492 700l-287 287l117 118l287 -287l287 288l118 -118l-287 -288l287 -286l-118 -118l-287 286l-282 -282l-117 118z" />
    <glyph glyph-name="Oslash" unicode="&#xd8;" horiz-adv-x="1400" 
d="M1294 1196q63 -138 63 -310q0 -158 -44.5 -323t-119.5 -286q-103 -167 -244 -240q-127 -66 -311 -66q-262 0 -400 152l-127 -130l-86 83l147 149q-56 129 -56 297q0 156 45 321.5t119 284.5q192 308 547 308q257 0 398 -143l140 142l84 -81zM1141 1043l-774 -790
q85 -131 283 -131q272 0 409 283q45 93 73 219.5t28 235.5q0 106 -19 183zM326 380l771 784q-89 121 -272 121q-313 0 -443 -363q-70 -194 -70 -413q0 -51 14 -129z" />
    <glyph glyph-name="Ugrave" unicode="&#xd9;" horiz-adv-x="1342" 
d="M341 1407h184l-152 -863q-26 -147 -26 -211q0 -117 74 -167q64 -44 190 -44q211 0 295 139q46 75 82 283l152 863h185l-168 -951q-22 -128 -46.5 -195t-67.5 -122q-131 -168 -448 -168q-237 0 -345 96q-89 80 -89 243q0 77 26 222zM986 1535h-137l-219 285h234z" />
    <glyph glyph-name="Uacute" unicode="&#xda;" horiz-adv-x="1342" 
d="M341 1407h184l-152 -863q-26 -147 -26 -211q0 -117 74 -167q64 -44 190 -44q211 0 295 139q46 75 82 283l152 863h185l-168 -951q-22 -128 -46.5 -195t-67.5 -122q-131 -168 -448 -168q-237 0 -345 96q-89 80 -89 243q0 77 26 222zM746 1535l222 285h240l-319 -285h-143z
" />
    <glyph glyph-name="Ucircumflex" unicode="&#xdb;" horiz-adv-x="1342" 
d="M341 1407h184l-152 -863q-26 -147 -26 -211q0 -117 74 -167q64 -44 190 -44q211 0 295 139q46 75 82 283l152 863h185l-168 -951q-22 -128 -46.5 -195t-67.5 -122q-131 -168 -448 -168q-237 0 -345 96q-89 80 -89 243q0 77 26 222zM877 1700l-205 -165h-178l296 285h205
l197 -285h-168z" />
    <glyph glyph-name="Udieresis" unicode="&#xdc;" horiz-adv-x="1342" 
d="M341 1407h184l-152 -863q-26 -147 -26 -211q0 -117 74 -167q64 -44 190 -44q211 0 295 139q46 75 82 283l152 863h185l-168 -951q-22 -128 -46.5 -195t-67.5 -122q-131 -168 -448 -168q-237 0 -345 96q-89 80 -89 243q0 77 26 222zM672 1792q45 0 77.5 -33t32.5 -79
q0 -47 -32.5 -80t-79.5 -33t-79.5 33t-32.5 81q0 46 33 78.5t81 32.5zM1068 1792q45 0 77.5 -33t32.5 -79q0 -47 -32.5 -80t-79.5 -33t-79.5 33t-32.5 81q0 46 33 78.5t81 32.5z" />
    <glyph glyph-name="Yacute" unicode="&#xdd;" horiz-adv-x="1109" 
d="M374 0l97 549l-310 858h195l235 -686l474 686h206l-616 -858l-96 -549h-185zM654 1535l223 285h239l-318 -285h-144z" />
    <glyph glyph-name="Thorn" unicode="&#xde;" horiz-adv-x="1160" 
d="M100 0l248 1407h184l-39 -222h147q250 0 362 -68q73 -45 108 -135q26 -69 26 -150q0 -102 -38 -201t-102 -166q-74 -77 -183 -112t-275 -35h-198l-56 -318h-184zM367 467h169q224 0 310 90q45 47 72.5 118.5t27.5 142.5q0 132 -85 179q-70 39 -224 39h-170z" />
    <glyph glyph-name="germandbls" unicode="&#xdf;" horiz-adv-x="1167" 
d="M433 19l69 154q97 -48 203 -48q114 0 163 71q40 59 40 128q0 66 -49 116q-27 28 -142 108q-99 69 -99 180q0 78 39 136.5t130 118.5q79 51 107.5 93.5t28.5 106.5q0 125 -184 125q-167 0 -234 -126q-46 -85 -81 -287l-178 -1005q-31 -176 -92 -256q-82 -108 -237 -108
q-92 0 -177 34l64 136q58 -20 104 -20q80 0 119 67q27 48 47 157l184 1043q34 193 64 262q110 254 421 254q184 0 278 -80q81 -67 81 -182q0 -89 -42.5 -153.5t-147.5 -133.5q-66 -43 -88.5 -72.5t-22.5 -72.5q0 -54 78 -107q114 -78 154 -122q59 -67 59 -167
q0 -76 -25.5 -151.5t-67.5 -126.5q-97 -116 -291 -116q-145 0 -275 44z" />
    <glyph glyph-name="agrave" unicode="&#xe0;" horiz-adv-x="1109" 
d="M872 0h-180l7 111q-74 -74 -146 -107t-161 -33q-153 0 -241 88q-82 83 -82 254q0 123 35.5 248.5t97.5 219.5q154 233 445 233q153 0 367 -68l-101 -574q-41 -232 -41 -372zM816 829q-85 38 -175 38q-204 0 -309 -209q-36 -72 -57.5 -165.5t-21.5 -176.5q0 -199 176 -199
q135 0 233 112q35 40 52 79t29 106zM829 1122h-138l-218 285h234z" />
    <glyph glyph-name="aacute" unicode="&#xe1;" horiz-adv-x="1109" 
d="M872 0h-180l7 111q-74 -74 -146 -107t-161 -33q-153 0 -241 88q-82 83 -82 254q0 123 35.5 248.5t97.5 219.5q154 233 445 233q153 0 367 -68l-101 -574q-41 -232 -41 -372zM816 829q-85 38 -175 38q-204 0 -309 -209q-36 -72 -57.5 -165.5t-21.5 -176.5q0 -199 176 -199
q135 0 233 112q35 40 52 79t29 106zM600 1122l223 285h239l-319 -285h-143z" />
    <glyph glyph-name="acircumflex" unicode="&#xe2;" horiz-adv-x="1109" 
d="M872 0h-180l7 111q-74 -74 -146 -107t-161 -33q-153 0 -241 88q-82 83 -82 254q0 123 35.5 248.5t97.5 219.5q154 233 445 233q153 0 367 -68l-101 -574q-41 -232 -41 -372zM816 829q-85 38 -175 38q-204 0 -309 -209q-36 -72 -57.5 -165.5t-21.5 -176.5q0 -199 176 -199
q135 0 233 112q35 40 52 79t29 106zM703 1287l-206 -165h-178l296 285h206l196 -285h-167z" />
    <glyph glyph-name="atilde" unicode="&#xe3;" horiz-adv-x="1109" 
d="M872 0h-180l7 111q-74 -74 -146 -107t-161 -33q-153 0 -241 88q-82 83 -82 254q0 123 35.5 248.5t97.5 219.5q154 233 445 233q153 0 367 -68l-101 -574q-41 -232 -41 -372zM816 829q-85 38 -175 38q-204 0 -309 -209q-36 -72 -57.5 -165.5t-21.5 -176.5q0 -199 176 -199
q135 0 233 112q35 40 52 79t29 106zM963 1389h115q-30 -92 -64 -147q-72 -120 -190 -120q-85 0 -157 79q-36 37 -55 50t-40 13q-30 0 -61 -34.5t-56 -94.5h-115q35 101 75 160q73 107 182 107q83 0 154 -74q43 -44 60 -56t38 -12q63 0 114 129z" />
    <glyph glyph-name="adieresis" unicode="&#xe4;" horiz-adv-x="1109" 
d="M872 0h-180l7 111q-74 -74 -146 -107t-161 -33q-153 0 -241 88q-82 83 -82 254q0 123 35.5 248.5t97.5 219.5q154 233 445 233q153 0 367 -68l-101 -574q-41 -232 -41 -372zM816 829q-85 38 -175 38q-204 0 -309 -209q-36 -72 -57.5 -165.5t-21.5 -176.5q0 -199 176 -199
q135 0 233 112q35 40 52 79t29 106zM518 1378q45 0 77.5 -33t32.5 -79q0 -47 -33 -80t-79 -33q-47 0 -79.5 33t-32.5 80t33 79.5t81 32.5zM868 1378q45 0 77.5 -33t32.5 -79q0 -47 -33 -80t-79 -33q-47 0 -79.5 33t-32.5 80t33 79.5t81 32.5z" />
    <glyph glyph-name="aring" unicode="&#xe5;" horiz-adv-x="1109" 
d="M872 0h-180l7 111q-74 -74 -146 -107t-161 -33q-153 0 -241 88q-82 83 -82 254q0 123 35.5 248.5t97.5 219.5q154 233 445 233q153 0 367 -68l-101 -574q-41 -232 -41 -372zM816 829q-85 38 -175 38q-204 0 -309 -209q-36 -72 -57.5 -165.5t-21.5 -176.5q0 -199 176 -199
q135 0 233 112q35 40 52 79t29 106zM727 1485q93 0 149 -51q57 -52 57 -138q0 -88 -57 -140.5t-152 -52.5q-96 0 -152 52q-58 54 -58 140q0 88 57 139t156 51zM725 1405q-103 0 -103 -111t102 -111q101 0 101 111t-100 111z" />
    <glyph glyph-name="ae" unicode="&#xe6;" horiz-adv-x="1574" 
d="M738 158q-147 -187 -429 -187q-270 0 -270 249q0 138 95 230q74 71 201 102t384 39l14 77q9 51 9 75q0 127 -179 127q-150 0 -315 -99l-40 128q192 115 389 115q235 0 286 -148q47 49 86 75q110 73 264 73q141 0 217 -64.5t76 -183.5q0 -105 -60.5 -172.5t-193.5 -111.5
q-118 -39 -411 -77q-1 -17 -1 -27q0 -139 61 -203t193 -64q76 0 134 19.5t140 72.5l51 -135q-170 -97 -353 -97q-142 0 -224.5 44.5t-123.5 142.5zM701 470q-162 -10 -211.5 -16.5t-105.5 -24.5q-161 -52 -161 -196q0 -124 148 -124q138 0 234 83q56 47 71 135zM877 537
q214 24 337 69q78 29 112.5 66t34.5 93q0 114 -140 114q-130 0 -219 -89t-125 -253z" />
    <glyph glyph-name="ccedilla" unicode="&#xe7;" horiz-adv-x="906" 
d="M754 206l44 -140q-134 -87 -293 -93l-77 -105q199 -16 199 -158q0 -99 -75 -157t-204 -58q-105 0 -213 43l54 94q67 -31 143 -31q59 0 95.5 32t36.5 83q0 40 -40 58.5t-131 20.5l-10 41l109 141q-316 42 -316 395q0 148 51 284q136 358 495 358q169 0 298 -78l-73 -137
q-109 69 -219 69q-184 0 -284 -171q-84 -143 -84 -318q0 -261 248 -261q65 0 118.5 19t127.5 69z" />
    <glyph glyph-name="egrave" unicode="&#xe8;" horiz-adv-x="974" 
d="M260 405q-1 -19 -1 -26q0 -140 61 -204t193 -64q76 0 135 19.5t140 72.5l51 -135q-171 -97 -359 -97q-194 0 -287 84q-113 101 -113 310q0 117 35.5 234.5t96.5 204.5q147 210 416 210q145 0 221.5 -64t76.5 -184q0 -105 -60 -172.5t-194 -111.5q-118 -39 -412 -77z
M277 537q214 24 337 69q78 29 112.5 66t34.5 93q0 114 -141 114q-129 0 -218 -88.5t-125 -253.5zM741 1122h-138l-218 285h234z" />
    <glyph glyph-name="eacute" unicode="&#xe9;" horiz-adv-x="974" 
d="M260 405q-1 -19 -1 -26q0 -140 61 -204t193 -64q76 0 135 19.5t140 72.5l51 -135q-171 -97 -359 -97q-194 0 -287 84q-113 101 -113 310q0 117 35.5 234.5t96.5 204.5q147 210 416 210q145 0 221.5 -64t76.5 -184q0 -105 -60 -172.5t-194 -111.5q-118 -39 -412 -77z
M277 537q214 24 337 69q78 29 112.5 66t34.5 93q0 114 -141 114q-129 0 -218 -88.5t-125 -253.5zM523 1122l223 285h239l-319 -285h-143z" />
    <glyph glyph-name="ecircumflex" unicode="&#xea;" horiz-adv-x="974" 
d="M260 405q-1 -19 -1 -26q0 -140 61 -204t193 -64q76 0 135 19.5t140 72.5l51 -135q-171 -97 -359 -97q-194 0 -287 84q-113 101 -113 310q0 117 35.5 234.5t96.5 204.5q147 210 416 210q145 0 221.5 -64t76.5 -184q0 -105 -60 -172.5t-194 -111.5q-118 -39 -412 -77z
M277 537q214 24 337 69q78 29 112.5 66t34.5 93q0 114 -141 114q-129 0 -218 -88.5t-125 -253.5zM657 1287l-205 -165h-178l296 285h206l196 -285h-168z" />
    <glyph glyph-name="edieresis" unicode="&#xeb;" horiz-adv-x="974" 
d="M260 405q-1 -19 -1 -26q0 -140 61 -204t193 -64q76 0 135 19.5t140 72.5l51 -135q-171 -97 -359 -97q-194 0 -287 84q-113 101 -113 310q0 117 35.5 234.5t96.5 204.5q147 210 416 210q145 0 221.5 -64t76.5 -184q0 -105 -60 -172.5t-194 -111.5q-118 -39 -412 -77z
M277 537q214 24 337 69q78 29 112.5 66t34.5 93q0 114 -141 114q-129 0 -218 -88.5t-125 -253.5zM470 1378q45 0 77.5 -33t32.5 -79q0 -47 -33 -80t-79 -33q-47 0 -79.5 33t-32.5 80t33 79.5t81 32.5zM821 1378q45 0 77.5 -33t32.5 -79q0 -47 -33 -80t-79 -33
q-47 0 -79.5 33t-32.5 80t33 79.5t81 32.5z" />
    <glyph glyph-name="igrave" unicode="&#xec;" horiz-adv-x="550" 
d="M99 0l174 985h177l-173 -985h-178zM492 1122h-138l-218 285h234z" />
    <glyph glyph-name="iacute" unicode="&#xed;" horiz-adv-x="550" 
d="M99 0l174 985h177l-173 -985h-178zM270 1122l222 285h240l-319 -285h-143z" />
    <glyph glyph-name="icircumflex" unicode="&#xee;" horiz-adv-x="550" 
d="M100 0l174 985h177l-173 -985h-178zM409 1287l-206 -165h-178l296 285h206l196 -285h-167z" />
    <glyph glyph-name="idieresis" unicode="&#xef;" horiz-adv-x="550" 
d="M93 0l174 985h177l-173 -985h-178zM219 1378q45 0 77.5 -33t32.5 -79q0 -47 -33 -80t-79 -33q-47 0 -79.5 33t-32.5 80t33 79.5t81 32.5zM570 1378q45 0 77.5 -33t32.5 -79q0 -47 -33 -80t-79 -33q-47 0 -79.5 33t-32.5 80t33 79.5t81 32.5z" />
    <glyph glyph-name="eth" unicode="&#xf0;" horiz-adv-x="1104" 
d="M810 950q-37 142 -126 238l-220 -98l-42 77l183 82q-93 54 -210 75l47 127q191 -21 322 -118l194 88l42 -78l-162 -73q90 -97 142.5 -253.5t52.5 -331.5q0 -148 -37.5 -285t-102.5 -227q-146 -202 -413 -202q-191 0 -292 94q-110 103 -110 306q0 115 35 230.5t95 198.5
q71 97 174 149t224 52q55 0 93 -9.5t111 -41.5zM622 855q-195 0 -292 -191q-68 -133 -68 -291q0 -256 225 -256q191 0 288 191q68 133 68 292q0 255 -221 255z" />
    <glyph glyph-name="ntilde" unicode="&#xf1;" horiz-adv-x="1171" 
d="M88 0l174 985h143l-8 -143q195 172 389 172q122 0 191 -56t69 -155q0 -66 -25 -208l-105 -595h-177l109 623q15 82 15 119q0 115 -133 115q-79 0 -175 -53t-172 -139l-117 -665h-178zM952 1389h116q-31 -93 -64 -147q-73 -120 -190 -120q-85 0 -158 79q-35 37 -54 50
t-41 13q-29 0 -61 -35t-55 -94h-116q35 100 75 160q73 107 183 107q82 0 154 -74q42 -44 59.5 -56t37.5 -12q64 0 114 129z" />
    <glyph glyph-name="ograve" unicode="&#xf2;" horiz-adv-x="1101" 
d="M623 1014q194 0 299 -109q101 -104 101 -299q0 -113 -35 -230t-95 -201q-143 -204 -409 -204q-197 0 -299 101q-107 105 -107 308q0 113 35.5 230t93.5 200q145 204 416 204zM615 868q-192 0 -287 -195q-66 -135 -66 -296q0 -260 229 -260q187 0 282 195q66 136 66 297
q0 121 -54 188q-56 71 -170 71zM777 1122h-138l-218 285h234z" />
    <glyph glyph-name="oacute" unicode="&#xf3;" horiz-adv-x="1101" 
d="M623 1014q194 0 299 -109q101 -104 101 -299q0 -113 -35 -230t-95 -201q-143 -204 -409 -204q-197 0 -299 101q-107 105 -107 308q0 113 35.5 230t93.5 200q145 204 416 204zM615 868q-192 0 -287 -195q-66 -135 -66 -296q0 -260 229 -260q187 0 282 195q66 136 66 297
q0 121 -54 188q-56 71 -170 71zM546 1122l223 285h239l-319 -285h-143z" />
    <glyph glyph-name="ocircumflex" unicode="&#xf4;" horiz-adv-x="1101" 
d="M623 1014q194 0 299 -109q101 -104 101 -299q0 -113 -35 -230t-95 -201q-143 -204 -409 -204q-197 0 -299 101q-107 105 -107 308q0 113 35.5 230t93.5 200q145 204 416 204zM615 868q-192 0 -287 -195q-66 -135 -66 -296q0 -260 229 -260q187 0 282 195q66 136 66 297
q0 121 -54 188q-56 71 -170 71zM683 1287l-206 -165h-178l296 285h206l196 -285h-167z" />
    <glyph glyph-name="otilde" unicode="&#xf5;" horiz-adv-x="1102" 
d="M623 1014q194 0 299 -109q101 -104 101 -299q0 -113 -35 -230t-95 -201q-143 -204 -409 -204q-197 0 -299 101q-107 105 -107 308q0 113 35.5 230t93.5 200q145 204 416 204zM615 868q-192 0 -287 -195q-66 -135 -66 -296q0 -260 229 -260q187 0 282 195q66 136 66 297
q0 121 -54 188q-56 71 -170 71zM936 1389h116q-31 -93 -64 -147q-74 -120 -190 -120q-85 0 -158 79q-35 37 -54 50t-41 13q-29 0 -61 -35t-55 -94h-116q35 100 75 160q73 107 183 107q82 0 154 -74q42 -43 59.5 -55.5t37.5 -12.5q63 0 114 129z" />
    <glyph glyph-name="odieresis" unicode="&#xf6;" horiz-adv-x="1101" 
d="M623 1014q194 0 299 -109q101 -104 101 -299q0 -113 -35 -230t-95 -201q-143 -204 -409 -204q-197 0 -299 101q-107 105 -107 308q0 113 35.5 230t93.5 200q145 204 416 204zM615 868q-192 0 -287 -195q-66 -135 -66 -296q0 -260 229 -260q187 0 282 195q66 136 66 297
q0 121 -54 188q-56 71 -170 71zM496 1378q45 0 77.5 -33t32.5 -79q0 -47 -33 -80t-79 -33q-47 0 -79.5 33t-32.5 80t33 79.5t81 32.5zM846 1378q45 0 77.5 -33t32.5 -79q0 -47 -33 -80t-79 -33q-47 0 -79.5 33t-32.5 80t33 79.5t81 32.5z" />
    <glyph glyph-name="divide" unicode="&#xf7;" 
d="M668 1134q47 0 81.5 -35t34.5 -83q0 -49 -34.5 -83.5t-83.5 -34.5q-50 0 -84 34.5t-34 84.5q0 49 35 83t85 34zM132 622l43 160h913l-43 -160h-913zM558 508q48 0 82 -34.5t34 -83.5t-34.5 -83.5t-83.5 -34.5t-83.5 34.5t-34.5 84.5q0 49 35 83t85 34z" />
    <glyph glyph-name="oslash" unicode="&#xf8;" horiz-adv-x="1101" 
d="M974 832q49 -101 49 -228q0 -111 -35.5 -228.5t-94.5 -200.5q-144 -204 -409 -204q-185 0 -293 99l-118 -114l-78 74l130 126q-47 101 -47 226q0 111 35 227.5t94 200.5q144 204 410 204q179 0 292 -97l121 117l77 -74zM830 693l-518 -506q64 -74 180 -74q215 0 306 248
q41 112 41 231q0 27 -9 101zM270 296l518 504q-62 72 -178 72q-182 0 -278 -184q-71 -138 -71 -289q0 -43 9 -103z" />
    <glyph glyph-name="ugrave" unicode="&#xf9;" horiz-adv-x="1144" 
d="M736 126q-172 -155 -354 -155q-122 0 -188.5 56.5t-66.5 159.5q0 71 25 216l103 582h178l-106 -600q-16 -89 -16 -143q0 -116 126 -116q74 0 159.5 41.5t158.5 113.5l124 704h178l-174 -985h-148zM801 1122h-137l-219 285h234z" />
    <glyph glyph-name="uacute" unicode="&#xfa;" horiz-adv-x="1144" 
d="M736 126q-172 -155 -354 -155q-122 0 -188.5 56.5t-66.5 159.5q0 71 25 216l103 582h178l-106 -600q-16 -89 -16 -143q0 -116 126 -116q74 0 159.5 41.5t158.5 113.5l124 704h178l-174 -985h-148zM577 1122l222 285h240l-319 -285h-143z" />
    <glyph glyph-name="ucircumflex" unicode="&#xfb;" horiz-adv-x="1144" 
d="M736 126q-172 -155 -354 -155q-122 0 -188.5 56.5t-66.5 159.5q0 71 25 216l103 582h178l-106 -600q-16 -89 -16 -143q0 -116 126 -116q74 0 159.5 41.5t158.5 113.5l124 704h178l-174 -985h-148zM709 1287l-205 -165h-178l296 285h206l196 -285h-167z" />
    <glyph glyph-name="udieresis" unicode="&#xfc;" horiz-adv-x="1144" 
d="M736 126q-172 -155 -354 -155q-122 0 -188.5 56.5t-66.5 159.5q0 71 25 216l103 582h178l-106 -600q-16 -89 -16 -143q0 -116 126 -116q74 0 159.5 41.5t158.5 113.5l124 704h178l-174 -985h-148zM523 1378q45 0 77.5 -33t32.5 -79q0 -47 -33 -80t-79 -33q-47 0 -79.5 33
t-32.5 80t33 79.5t81 32.5zM874 1378q45 0 77.5 -33t32.5 -79q0 -47 -33 -80t-79 -33q-47 0 -79.5 33t-32.5 80t33 79.5t81 32.5z" />
    <glyph glyph-name="yacute" unicode="&#xfd;" horiz-adv-x="972" 
d="M306 1l-211 984h181l158 -815q17 23 26 34q115 148 149.5 199t69.5 123q62 128 62 209q0 42 -17.5 74.5t-65.5 80.5l111 118q81 -60 118.5 -119.5t37.5 -126.5q0 -135 -111 -321q-57 -96 -300 -413q-192 -250 -311 -511l-166 62q132 239 269 422zM429 1122l223 285h239
l-319 -285h-143z" />
    <glyph glyph-name="thorn" unicode="&#xfe;" horiz-adv-x="1127" 
d="M14 -480l340 1928l184 37l-106 -602q50 48 89 72q96 59 214 59q153 0 239 -92q84 -91 84 -267q0 -115 -32.5 -235t-88.5 -211q-147 -238 -423 -238q-148 0 -234 53l-82 -464zM308 180q76 -63 185 -63q204 0 307 210q74 152 74 313q0 110 -43 167q-47 61 -137 61
q-135 0 -235 -112q-62 -69 -82 -185z" />
    <glyph glyph-name="ydieresis" unicode="&#xff;" horiz-adv-x="972" 
d="M306 1l-211 984h181l158 -815q17 23 26 34q115 148 149.5 199t69.5 123q62 128 62 209q0 42 -17.5 74.5t-65.5 80.5l111 118q81 -60 118.5 -119.5t37.5 -126.5q0 -135 -111 -321q-57 -96 -300 -413q-192 -250 -311 -511l-166 62q132 239 269 422zM340 1378q45 0 77.5 -33
t32.5 -79q0 -47 -32.5 -80t-79.5 -33t-79.5 33t-32.5 80t33 79.5t81 32.5zM690 1378q45 0 77.5 -33t32.5 -79q0 -47 -33 -80t-79 -33q-47 0 -79.5 33t-32.5 80t33 79.5t81 32.5z" />
    <glyph glyph-name="Amacron" unicode="&#x100;" horiz-adv-x="1312" 
d="M951 418h-607l-241 -418h-200l828 1407h171l332 -1407h-190zM920 567l-138 621l-355 -621h493zM490 1609l24 140h662l-25 -140h-661z" />
    <glyph glyph-name="amacron" unicode="&#x101;" horiz-adv-x="1109" 
d="M872 0h-180l7 111q-74 -74 -146 -107t-161 -33q-153 0 -241 88q-82 83 -82 254q0 123 35.5 248.5t97.5 219.5q154 233 445 233q153 0 367 -68l-101 -574q-41 -232 -41 -372zM816 829q-85 38 -175 38q-204 0 -309 -209q-36 -72 -57.5 -165.5t-21.5 -176.5q0 -199 176 -199
q135 0 233 112q35 40 52 79t29 106zM410 1192l24 140h574l-24 -140h-574z" />
    <glyph glyph-name="Abreve" unicode="&#x102;" horiz-adv-x="1312" 
d="M951 418h-607l-241 -418h-200l828 1407h171l332 -1407h-190zM920 567l-138 621l-355 -621h493zM556 1813h131q-4 -30 -4 -45q0 -105 161 -105q93 0 136.5 31.5t68.5 118.5h131q-25 -126 -67 -183q-80 -107 -276 -107q-289 0 -289 205q0 31 8 85z" />
    <glyph glyph-name="abreve" unicode="&#x103;" horiz-adv-x="1109" 
d="M872 0h-180l7 111q-74 -74 -146 -107t-161 -33q-153 0 -241 88q-82 83 -82 254q0 123 35.5 248.5t97.5 219.5q154 233 445 233q153 0 367 -68l-101 -574q-41 -232 -41 -372zM816 829q-85 38 -175 38q-204 0 -309 -209q-36 -72 -57.5 -165.5t-21.5 -176.5q0 -199 176 -199
q135 0 233 112q35 40 52 79t29 106zM403 1400h131q-4 -29 -4 -45q0 -105 161 -105q94 0 137 31.5t68 118.5h131q-26 -127 -67 -183q-80 -107 -276 -107q-289 0 -289 205q0 32 8 85z" />
    <glyph glyph-name="Aogonek" unicode="&#x104;" horiz-adv-x="1312" 
d="M951 418h-607l-241 -418h-200l828 1407h171l332 -1407q-130 -85 -187.5 -155.5t-57.5 -145.5q0 -48 36 -70t113 -22q49 0 122 15l6 -97q-88 -30 -179 -30q-258 0 -258 186q0 96 60.5 165.5t216.5 153.5h-62zM920 567l-138 621l-355 -621h493z" />
    <glyph glyph-name="aogonek" unicode="&#x105;" horiz-adv-x="1109" 
d="M692 0l7 111q-74 -74 -146 -107t-161 -33q-153 0 -241 88q-82 83 -82 254q0 123 35.5 248.5t97.5 219.5q154 233 445 233q145 0 367 -68l-101 -574q-41 -231 -41 -337v-17v-18q-131 -87 -188 -156.5t-57 -144.5q0 -48 35.5 -70t113.5 -22q49 0 122 15l5 -97
q-87 -30 -179 -30q-257 0 -257 186q0 95 61.5 166.5t213.5 152.5h-50zM816 829q-85 38 -175 38q-204 0 -309 -209q-36 -72 -57.5 -165.5t-21.5 -176.5q0 -199 176 -199q135 0 233 112q35 40 52 79t29 106z" />
    <glyph glyph-name="Cacute" unicode="&#x106;" horiz-adv-x="1127" 
d="M964 222l61 -147q-163 -104 -382 -104q-251 0 -385 125q-145 135 -145 402q0 241 93 472q186 466 647 466q221 0 369 -101l-90 -138q-120 88 -280 88q-280 0 -430 -281q-54 -101 -86.5 -237.5t-32.5 -263.5q0 -381 354 -381q160 0 307 100zM720 1535l223 285h239
l-319 -285h-143z" />
    <glyph glyph-name="cacute" unicode="&#x107;" horiz-adv-x="906" 
d="M754 206l44 -140q-146 -95 -325 -95q-397 0 -397 400q0 149 51 285q136 358 495 358q169 0 298 -78l-73 -137q-107 69 -219 69q-184 0 -284 -171q-84 -143 -84 -319q0 -261 248 -261q66 0 118 19t128 70zM509 1122l223 285h240l-319 -285h-144z" />
    <glyph glyph-name="Ccircumflex" unicode="&#x108;" horiz-adv-x="1127" 
d="M964 222l61 -147q-163 -104 -382 -104q-251 0 -385 125q-145 135 -145 402q0 241 93 472q186 466 647 466q221 0 369 -101l-90 -138q-120 88 -280 88q-280 0 -430 -281q-54 -101 -86.5 -237.5t-32.5 -263.5q0 -381 354 -381q160 0 307 100zM870 1700l-205 -165h-178
l296 285h206l196 -285h-167z" />
    <glyph glyph-name="ccircumflex" unicode="&#x109;" horiz-adv-x="906" 
d="M754 206l44 -140q-146 -95 -325 -95q-397 0 -397 400q0 149 51 285q136 358 495 358q169 0 298 -78l-73 -137q-107 69 -219 69q-184 0 -284 -171q-84 -143 -84 -319q0 -261 248 -261q66 0 118 19t128 70zM648 1287l-205 -165h-178l296 285h206l196 -285h-167z" />
    <glyph glyph-name="Cdotaccent" unicode="&#x10a;" horiz-adv-x="1127" 
d="M964 222l61 -147q-163 -104 -382 -104q-251 0 -385 125q-145 135 -145 402q0 241 93 472q186 466 647 466q221 0 369 -101l-90 -138q-120 88 -280 88q-280 0 -430 -281q-54 -101 -86.5 -237.5t-32.5 -263.5q0 -381 354 -381q160 0 307 100zM852 1796q46 0 79.5 -34
t33.5 -82q0 -49 -34 -83t-81 -34q-48 0 -82 34.5t-34 83.5q0 48 34 81.5t84 33.5z" />
    <glyph glyph-name="cdotaccent" unicode="&#x10b;" horiz-adv-x="906" 
d="M754 206l44 -140q-146 -95 -325 -95q-397 0 -397 400q0 149 51 285q136 358 495 358q169 0 298 -78l-73 -137q-107 69 -219 69q-184 0 -284 -171q-84 -143 -84 -319q0 -261 248 -261q66 0 118 19t128 70zM628 1382q47 0 80.5 -34t33.5 -82q0 -49 -34 -83t-82 -34
t-82 34.5t-34 83.5q0 48 34 81.5t84 33.5z" />
    <glyph glyph-name="Ccaron" unicode="&#x10c;" horiz-adv-x="1127" 
d="M964 222l61 -147q-163 -104 -382 -104q-251 0 -385 125q-145 135 -145 402q0 241 93 472q186 466 647 466q221 0 369 -101l-90 -138q-120 88 -280 88q-280 0 -430 -281q-54 -101 -86.5 -237.5t-32.5 -263.5q0 -381 354 -381q160 0 307 100zM863 1655l205 165h179
l-296 -285h-206l-197 285h168z" />
    <glyph glyph-name="ccaron" unicode="&#x10d;" horiz-adv-x="906" 
d="M754 206l44 -140q-146 -95 -325 -95q-397 0 -397 400q0 149 51 285q136 358 495 358q169 0 298 -78l-73 -137q-107 69 -219 69q-184 0 -284 -171q-84 -143 -84 -319q0 -261 248 -261q66 0 118 19t128 70zM653 1242l205 165h178l-296 -285h-206l-196 285h167z" />
    <glyph glyph-name="Dcaron" unicode="&#x10e;" horiz-adv-x="1327" 
d="M100 0l248 1407h348q283 0 419 -97q169 -120 169 -421q0 -270 -106 -498q-110 -237 -312 -326q-147 -65 -372 -65h-394zM311 153h154q206 0 317 56q163 82 248 310q64 174 64 355q0 275 -180 346q-87 34 -276 34h-132zM741 1655l205 165h179l-296 -285h-206l-197 285h167
z" />
    <glyph glyph-name="dcaron" unicode="&#x10f;" horiz-adv-x="1303" 
d="M849 964l85 484l184 37l-262 -1485h-139l-2 120q-141 -149 -321 -149q-147 0 -232 82q-92 89 -92 271q0 120 34 241t93 211q155 238 428 238q62 0 103 -9t121 -41zM821 808q-74 60 -184 60q-201 0 -307 -210q-76 -150 -76 -322q0 -116 53 -170q48 -49 129 -49
q133 0 233 112q62 70 83 185zM1197 993l145 490h198l-202 -490h-141z" />
    <glyph glyph-name="Dcroat" unicode="&#x110;" horiz-adv-x="1327" 
d="M214 649h-162l37 144h151l108 614h348q283 0 419 -97q169 -120 169 -420q0 -271 -106 -499q-110 -237 -312 -326q-147 -65 -372 -65h-394zM399 649l-88 -496h154q206 0 317 56q163 81 247 309q65 175 65 355q0 276 -180 347q-87 34 -276 34h-133l-81 -461h398l-37 -144
h-386z" />
    <glyph glyph-name="dcroat" unicode="&#x111;" horiz-adv-x="1118" 
d="M849 964l34 195h-267l23 129h267l28 160l184 37l-35 -197h126l-23 -129h-125l-205 -1159h-139l-2 120q-141 -149 -321 -149q-147 0 -232 82q-92 89 -92 271q0 120 34 240.5t93 211.5q155 238 428 238q62 0 102.5 -9t121.5 -41zM821 808q-74 60 -184 60q-201 0 -307 -210
q-76 -150 -76 -322q0 -116 53 -170q48 -49 129 -49q133 0 233 112q62 70 83 185z" />
    <glyph glyph-name="Emacron" unicode="&#x112;" horiz-adv-x="1128" 
d="M100 0l248 1407h841l-39 -153h-644l-76 -429h536l-37 -146h-525l-93 -526h680l-39 -153h-852zM444 1609l25 140h662l-25 -140h-662z" />
    <glyph glyph-name="emacron" unicode="&#x113;" horiz-adv-x="974" 
d="M260 405q-1 -19 -1 -26q0 -140 61 -204t193 -64q76 0 135 19.5t140 72.5l51 -135q-171 -97 -359 -97q-194 0 -287 84q-113 101 -113 310q0 117 35.5 234.5t96.5 204.5q147 210 416 210q145 0 221.5 -64t76.5 -184q0 -105 -60 -172.5t-194 -111.5q-118 -39 -412 -77z
M277 537q214 24 337 69q78 29 112.5 66t34.5 93q0 114 -141 114q-129 0 -218 -88.5t-125 -253.5zM316 1192l25 140h574l-25 -140h-574z" />
    <glyph glyph-name="Ebreve" unicode="&#x114;" horiz-adv-x="1128" 
d="M100 0l248 1407h841l-39 -153h-644l-76 -429h536l-37 -146h-525l-93 -526h680l-39 -153h-852zM522 1813h131q-4 -26 -4 -44q0 -106 161 -106q93 0 136.5 32t68.5 118h130q-24 -126 -66 -183q-80 -107 -276 -107q-289 0 -289 204q0 30 8 86z" />
    <glyph glyph-name="ebreve" unicode="&#x115;" horiz-adv-x="974" 
d="M260 405q-1 -19 -1 -26q0 -140 61 -204t193 -64q76 0 135 19.5t140 72.5l51 -135q-171 -97 -359 -97q-194 0 -287 84q-113 101 -113 310q0 117 35.5 234.5t96.5 204.5q147 210 416 210q145 0 221.5 -64t76.5 -184q0 -105 -60 -172.5t-194 -111.5q-118 -39 -412 -77z
M277 537q214 24 337 69q78 29 112.5 66t34.5 93q0 114 -141 114q-129 0 -218 -88.5t-125 -253.5zM374 1400h130q-3 -33 -3 -46q0 -104 161 -104q93 0 136 31.5t69 118.5h130q-25 -127 -66 -183q-80 -107 -276 -107q-289 0 -289 205q0 34 8 85z" />
    <glyph glyph-name="Edotaccent" unicode="&#x116;" horiz-adv-x="1128" 
d="M100 0l248 1407h841l-39 -153h-644l-76 -429h536l-37 -146h-525l-93 -526h680l-39 -153h-852zM808 1796q47 0 80.5 -34t33.5 -82q0 -49 -34 -83t-82 -34t-82 34.5t-34 83.5q0 48 34.5 81.5t83.5 33.5z" />
    <glyph glyph-name="edotaccent" unicode="&#x117;" horiz-adv-x="974" 
d="M260 405q-1 -19 -1 -26q0 -140 61 -204t193 -64q76 0 135 19.5t140 72.5l51 -135q-171 -97 -359 -97q-194 0 -287 84q-113 101 -113 310q0 117 35.5 234.5t96.5 204.5q147 210 416 210q145 0 221.5 -64t76.5 -184q0 -105 -60 -172.5t-194 -111.5q-118 -39 -412 -77z
M277 537q214 24 337 69q78 29 112.5 66t34.5 93q0 114 -141 114q-129 0 -218 -88.5t-125 -253.5zM624 1382q47 0 80.5 -34t33.5 -82q0 -49 -33.5 -83t-81.5 -34q-49 0 -82.5 34.5t-33.5 82.5q0 49 34 82.5t83 33.5z" />
    <glyph glyph-name="Eogonek" unicode="&#x118;" horiz-adv-x="1128" 
d="M100 0l248 1407h841l-39 -153h-644l-76 -429h536l-37 -146h-525l-93 -526h680l-39 -153q-85 -56 -164 -128q-81 -75 -81 -173q0 -48 35.5 -70t113.5 -22q49 0 122 15l5 -97q-87 -30 -179 -30q-257 0 -257 186q0 96 58 164.5t211 154.5h-716z" />
    <glyph glyph-name="eogonek" unicode="&#x119;" horiz-adv-x="974" 
d="M260 405q-1 -19 -1 -26q0 -140 61 -204t193 -64q76 0 135 19.5t140 72.5l51 -135q-23 -16 -92 -59q-131 -82 -191.5 -156t-60.5 -154q0 -48 35.5 -70t112.5 -22q50 0 123 15l5 -97q-87 -30 -179 -30q-257 0 -257 187q0 85 46.5 153.5t150.5 137.5q-42 -2 -62 -2
q-183 0 -277 84q-55 48 -82 126q-31 87 -31 184q0 117 35.5 234.5t96.5 204.5q147 210 416 210q145 0 221.5 -64t76.5 -184q0 -105 -60 -172.5t-194 -111.5q-119 -39 -412 -77zM277 537q260 30 372 83t112 145q0 114 -141 114q-129 0 -218 -88.5t-125 -253.5z" />
    <glyph glyph-name="Ecaron" unicode="&#x11a;" horiz-adv-x="1128" 
d="M100 0l248 1407h841l-39 -153h-644l-76 -429h536l-37 -146h-525l-93 -526h680l-39 -153h-852zM810 1655l205 165h178l-296 -285h-206l-196 285h167z" />
    <glyph glyph-name="ecaron" unicode="&#x11b;" horiz-adv-x="974" 
d="M260 405q-1 -19 -1 -26q0 -140 61 -204t193 -64q76 0 135 19.5t140 72.5l51 -135q-171 -97 -359 -97q-194 0 -287 84q-113 101 -113 310q0 117 35.5 234.5t96.5 204.5q147 210 416 210q145 0 221.5 -64t76.5 -184q0 -105 -60 -172.5t-194 -111.5q-118 -39 -412 -77z
M277 537q214 24 337 69q78 29 112.5 66t34.5 93q0 114 -141 114q-129 0 -218 -88.5t-125 -253.5zM634 1242l205 165h179l-296 -285h-206l-197 285h168z" />
    <glyph glyph-name="Gcircumflex" unicode="&#x11c;" horiz-adv-x="1312" 
d="M932 171l69 391h-292l39 144h462l-116 -661q-188 -74 -411 -74q-282 0 -419 121q-76 67 -113 177q-37 109 -37 229q0 254 101 496q100 239 298 354q153 88 357 88q224 0 402 -109l-87 -142q-151 100 -317 100q-179 0 -298 -93q-147 -114 -220 -366q-46 -162 -46 -317
q0 -207 101 -303q89 -84 275 -84q152 0 252 49zM888 1700l-205 -165h-178l296 285h206l196 -285h-168z" />
    <glyph glyph-name="gcircumflex" unicode="&#x11d;" horiz-adv-x="1105" 
d="M683 100q-73 -70 -140 -99.5t-152 -29.5q-147 0 -233 82q-89 85 -89 261q0 120 34.5 242.5t95.5 217.5q154 240 445 240q155 0 366 -68l-135 -767q-50 -286 -104 -405q-110 -248 -430 -248q-187 0 -333 69l75 140q106 -65 253 -65q157 0 228 81t112 306zM812 829
q-88 39 -173 39q-203 0 -307 -209q-35 -72 -57 -167t-22 -178q0 -95 45.5 -146t128.5 -51q134 0 231 112q35 40 52 79t29 106zM707 1287l-206 -165h-178l296 285h206l196 -285h-167z" />
    <glyph glyph-name="Gbreve" unicode="&#x11e;" horiz-adv-x="1312" 
d="M932 171l69 391h-292l39 144h462l-116 -661q-188 -74 -411 -74q-282 0 -419 121q-76 67 -113 177q-37 109 -37 229q0 254 101 496q100 239 298 354q153 88 357 88q224 0 402 -109l-87 -142q-151 100 -317 100q-179 0 -298 -93q-147 -114 -220 -366q-46 -162 -46 -317
q0 -207 101 -303q89 -84 275 -84q152 0 252 49zM578 1813h130q-4 -27 -4 -45q0 -105 161 -105q93 0 137 32t68 118h131q-25 -126 -67 -183q-79 -107 -276 -107q-289 0 -289 205q0 32 9 85z" />
    <glyph glyph-name="gbreve" unicode="&#x11f;" horiz-adv-x="1105" 
d="M683 100q-73 -70 -140 -99.5t-152 -29.5q-147 0 -233 82q-89 85 -89 261q0 120 34.5 242.5t95.5 217.5q154 240 445 240q155 0 366 -68l-135 -767q-50 -286 -104 -405q-110 -248 -430 -248q-187 0 -333 69l75 140q106 -65 253 -65q157 0 228 81t112 306zM812 829
q-88 39 -173 39q-203 0 -307 -209q-35 -72 -57 -167t-22 -178q0 -95 45.5 -146t128.5 -51q134 0 231 112q35 40 52 79t29 106zM421 1400h131q-4 -32 -4 -46q0 -104 161 -104q93 0 136.5 32t68.5 118h131q-26 -127 -67 -183q-80 -107 -275 -107q-290 0 -290 205q0 31 8 85z
" />
    <glyph glyph-name="Gdotaccent" unicode="&#x120;" horiz-adv-x="1312" 
d="M932 171l69 391h-292l39 144h462l-116 -661q-188 -74 -411 -74q-282 0 -419 121q-76 67 -113 177q-37 109 -37 229q0 254 101 496q100 239 298 354q153 88 357 88q224 0 402 -109l-87 -142q-151 100 -317 100q-179 0 -298 -93q-147 -114 -220 -366q-46 -162 -46 -317
q0 -207 101 -303q89 -84 275 -84q152 0 252 49zM881 1796q46 0 79.5 -34t33.5 -82q0 -49 -34 -83t-81 -34q-49 0 -82.5 34.5t-33.5 83.5q0 48 34 81.5t84 33.5z" />
    <glyph glyph-name="gdotaccent" unicode="&#x121;" horiz-adv-x="1105" 
d="M683 100q-73 -70 -140 -99.5t-152 -29.5q-147 0 -233 82q-89 85 -89 261q0 120 34.5 242.5t95.5 217.5q154 240 445 240q155 0 366 -68l-135 -767q-50 -286 -104 -405q-110 -248 -430 -248q-187 0 -333 69l75 140q106 -65 253 -65q157 0 228 81t112 306zM812 829
q-88 39 -173 39q-203 0 -307 -209q-35 -72 -57 -167t-22 -178q0 -95 45.5 -146t128.5 -51q134 0 231 112q35 40 52 79t29 106zM711 1382q47 0 80.5 -34.5t33.5 -81.5q0 -49 -34 -83t-82 -34t-82 34.5t-34 82.5q0 49 34.5 82.5t83.5 33.5z" />
    <glyph glyph-name="Gcommaaccent" unicode="&#x122;" horiz-adv-x="1312" 
d="M932 171l69 391h-292l39 144h462l-116 -661q-188 -74 -411 -74q-282 0 -419 121q-76 67 -113 177q-37 109 -37 229q0 254 101 496q100 239 298 354q153 88 357 88q224 0 402 -109l-87 -142q-151 100 -317 100q-179 0 -298 -93q-147 -114 -220 -366q-46 -162 -46 -317
q0 -207 101 -303q89 -84 275 -84q152 0 252 49zM400 -523l140 399h191l-193 -399h-138z" />
    <glyph glyph-name="gcommaaccent" unicode="&#x123;" horiz-adv-x="1105" 
d="M683 100q-73 -70 -140 -99.5t-152 -29.5q-147 0 -233 82q-89 85 -89 261q0 120 34.5 242.5t95.5 217.5q154 240 445 240q155 0 366 -68l-135 -767q-50 -286 -104 -405q-110 -248 -430 -248q-187 0 -333 69l75 140q106 -65 253 -65q157 0 228 81t112 306zM812 829
q-88 39 -173 39q-203 0 -307 -209q-35 -72 -57 -167t-22 -178q0 -95 45.5 -146t128.5 -51q134 0 231 112q35 40 52 79t29 106zM1025 1408l-220 -286h-240l317 286h143z" />
    <glyph glyph-name="Hcircumflex" unicode="&#x124;" horiz-adv-x="1411" 
d="M100 0l248 1407h184l-104 -594h669l105 594h184l-248 -1407h-184l116 657h-670l-116 -657h-184zM912 1700l-206 -165h-178l296 285h206l197 -285h-168z" />
    <glyph glyph-name="hcircumflex" unicode="&#x125;" horiz-adv-x="1171" 
d="M88 0l255 1448l184 37l-112 -636q109 92 191 128.5t177 36.5q129 0 202 -61q62 -52 62 -144q0 -68 -23 -201l-108 -608h-177l111 631q11 63 11 111q0 117 -132 117q-98 0 -216 -80q-77 -53 -130 -114l-117 -665h-178zM551 1700l-205 -165h-178l296 285h206l196 -285h-167
z" />
    <glyph glyph-name="Hbar" unicode="&#x126;" horiz-adv-x="1411" 
d="M100 0l178 1007h-153l23 131h153l47 269h184l-47 -269h669l48 269h184l-48 -269h154l-24 -131h-152l-178 -1007h-184l114 647h-670l-114 -647h-184zM462 1007l-38 -215h669l38 215h-669z" />
    <glyph glyph-name="hbar" unicode="&#x127;" horiz-adv-x="1171" 
d="M88 0l204 1159h-124l23 129h124l28 160l184 37l-34 -197h270l-22 -129h-271l-55 -310q109 92 191 128.5t177 36.5q129 0 202 -61q62 -52 62 -144q0 -68 -23 -201l-108 -608h-177l111 631q11 63 11 111q0 117 -132 117q-98 0 -216 -80q-77 -53 -130 -114l-117 -665h-178z
" />
    <glyph glyph-name="Itilde" unicode="&#x128;" horiz-adv-x="587" 
d="M115 0l248 1407h184l-248 -1407h-184zM756 1803h116q-30 -92 -64 -146q-73 -121 -190 -121q-85 0 -158 78q-35 38 -54 51t-41 13q-29 0 -60.5 -35t-55.5 -94h-116q91 267 258 267q82 0 154 -74q42 -43 59.5 -55.5t37.5 -12.5q64 0 114 129z" />
    <glyph glyph-name="itilde" unicode="&#x129;" horiz-adv-x="550" 
d="M100 0l174 985h177l-173 -985h-178zM665 1389h116q-31 -93 -64 -147q-74 -120 -190 -120q-85 0 -158 79q-35 38 -54 50.5t-41 12.5q-29 0 -61 -35t-55 -94h-116q35 100 75 160q73 107 183 107q83 0 154 -74q42 -44 59.5 -56t37.5 -12q64 0 114 129z" />
    <glyph glyph-name="Imacron" unicode="&#x12a;" horiz-adv-x="587" 
d="M115 0l248 1407h184l-248 -1407h-184zM148 1609l24 140h662l-25 -140h-661z" />
    <glyph glyph-name="imacron" unicode="&#x12b;" horiz-adv-x="550" 
d="M93 0l174 985h177l-173 -985h-178zM93 1192l25 140h574l-25 -140h-574z" />
    <glyph glyph-name="Ibreve" unicode="&#x12c;" horiz-adv-x="587" 
d="M115 0l248 1407h184l-248 -1407h-184zM211 1813h131q-4 -30 -4 -46q0 -104 161 -104q93 0 136.5 32t68.5 118h131q-26 -127 -67 -183q-79 -107 -276 -107q-289 0 -289 205q0 33 8 85z" />
    <glyph glyph-name="ibreve" unicode="&#x12d;" horiz-adv-x="550" 
d="M100 0l173 985h178l-174 -985h-177zM103 1400h131q-4 -32 -4 -46q0 -104 161 -104q93 0 136 31.5t69 118.5h131q-26 -127 -67 -183q-80 -107 -275 -107q-290 0 -290 205q0 33 8 85z" />
    <glyph glyph-name="Iogonek" unicode="&#x12e;" horiz-adv-x="587" 
d="M115 0l248 1407h184l-248 -1407q-131 -86 -188 -156t-57 -145q0 -48 35.5 -70t112.5 -22q50 0 123 15l5 -97q-87 -30 -178 -30q-258 0 -258 186q0 94 66 170t211 149h-56z" />
    <glyph glyph-name="iogonek" unicode="&#x12f;" horiz-adv-x="550" 
d="M100 0l173 985h178l-174 -985q-128 -84 -186.5 -155.5t-58.5 -145.5q0 -48 35.5 -70t112.5 -22q50 0 123 15l5 -97q-87 -30 -178 -30q-258 0 -258 186q0 95 63.5 168.5t213.5 150.5h-49zM414 1382q47 0 80.5 -34t33.5 -82q0 -49 -34 -83t-82 -34t-82 34.5t-34 82.5
q0 49 34.5 82.5t83.5 33.5z" />
    <glyph glyph-name="Idotaccent" unicode="&#x130;" horiz-adv-x="587" 
d="M115 0l248 1407h184l-248 -1407h-184zM493 1796q47 0 80.5 -34t33.5 -82q0 -49 -34 -83t-82 -34t-82 34.5t-34 83.5q0 48 34.5 81.5t83.5 33.5z" />
    <glyph glyph-name="dotlessi" unicode="&#x131;" horiz-adv-x="550" 
d="M99 0l174 985h177l-173 -985h-178z" />
    <glyph glyph-name="IJ" unicode="&#x132;" horiz-adv-x="1157" 
d="M115 0l248 1407h184l-248 -1407h-184zM941 1407h185l-175 -991q-39 -223 -74 -332.5t-96 -202.5q-78 -118 -274 -265l-86 85q156 134 225.5 281.5t124.5 459.5z" />
    <glyph glyph-name="ij" unicode="&#x133;" horiz-adv-x="1105" 
d="M99 0l174 985h177l-173 -985h-178zM413 1382q47 0 80.5 -34t33.5 -82q0 -49 -34 -83t-82 -34t-82 34.5t-34 82.5q0 49 34.5 82.5t83.5 33.5zM828 985h178l-166 -940q-42 -234 -126 -351q-59 -80 -185 -174l-72 71q97 117 132 196q46 103 89 350zM969 1382q47 0 80.5 -34
t33.5 -82q0 -49 -34 -83t-82 -34t-82 34.5t-34 82.5q0 49 34 82.5t84 33.5z" />
    <glyph glyph-name="Jcircumflex" unicode="&#x134;" horiz-adv-x="570" 
d="M354 1407h185l-175 -991q-40 -223 -74.5 -332.5t-95.5 -202.5q-78 -118 -274 -265l-86 85q156 134 225.5 281.5t124.5 459.5zM474 1700l-205 -165h-178l296 285h206l196 -285h-167z" />
    <glyph glyph-name="jcircumflex" unicode="&#x135;" horiz-adv-x="555" 
d="M279 985h177l-165 -940q-42 -234 -127 -351q-58 -80 -184 -174l-72 71q97 117 132 196q46 103 89 350zM406 1287l-206 -165h-178l296 285h206l196 -285h-167z" />
    <glyph glyph-name="Kcommaaccent" unicode="&#x136;" horiz-adv-x="1217" 
d="M100 0l248 1407h184l-102 -580l686 580h237l-756 -631l541 -776h-211l-511 749l-132 -749h-184zM334 -523l140 399h192l-193 -399h-139z" />
    <glyph glyph-name="kcommaaccent" unicode="&#x137;" horiz-adv-x="1065" 
d="M95 0l255 1448l184 38l-146 -830l81 34q198 84 281.5 146t115.5 149h177q-25 -83 -71.5 -141t-131.5 -113q-115 -74 -278 -144l437 -587h-201l-377 527l-59 -23l-89 -504h-178zM259 -525l140 401h191l-193 -401h-138z" />
    <glyph glyph-name="kgreenlandic" unicode="&#x138;" horiz-adv-x="1047" 
d="M89 0l174 985h177l-69 -393l485 393h224l-551 -437l419 -548h-204l-386 518l-91 -518h-178z" />
    <glyph glyph-name="Lacute" unicode="&#x139;" horiz-adv-x="1022" 
d="M100 0l248 1407h184l-221 -1254h626l-38 -153h-799zM404 1535l223 285h239l-318 -285h-144z" />
    <glyph glyph-name="lacute" unicode="&#x13a;" horiz-adv-x="547" 
d="M98 0l255 1448l184 37l-261 -1485h-178zM368 1591l223 285h240l-319 -285h-144z" />
    <glyph glyph-name="Lcommaaccent" unicode="&#x13b;" horiz-adv-x="1022" 
d="M100 0l248 1407h184l-221 -1254h626l-38 -153h-799zM273 -523l140 399h191l-193 -399h-138z" />
    <glyph glyph-name="lcommaaccent" unicode="&#x13c;" horiz-adv-x="547" 
d="M97 0l256 1448l184 37l-262 -1485h-178zM-65 -523l140 399h191l-193 -399h-138z" />
    <glyph glyph-name="Lcaron" unicode="&#x13d;" horiz-adv-x="1022" 
d="M100 0l248 1407h184l-221 -1254h626l-38 -153h-799zM644 993l145 490h198l-202 -490h-141z" />
    <glyph glyph-name="lcaron" unicode="&#x13e;" horiz-adv-x="732" 
d="M98 0l255 1448l184 37l-261 -1485h-178zM626 993l145 490h198l-202 -490h-141z" />
    <glyph glyph-name="Ldot" unicode="&#x13f;" horiz-adv-x="1022" 
d="M100 0l248 1407h184l-221 -1254h626l-38 -153h-799zM820 769q50 0 86 -36.5t36 -87.5q0 -52 -36 -88.5t-88 -36.5q-53 0 -89 36.5t-36 89.5q0 52 37 87.5t90 35.5z" />
    <glyph glyph-name="ldot" unicode="&#x140;" horiz-adv-x="819" 
d="M98 0l255 1448l184 37l-261 -1485h-178zM711 758q50 0 86 -37t36 -87q0 -52 -36.5 -88.5t-87.5 -36.5q-53 0 -89 36.5t-36 89.5q0 51 37 87t90 36z" />
    <glyph glyph-name="Lslash" unicode="&#x141;" horiz-adv-x="1027" 
d="M105 0l75 428l-208 -125l31 175l208 125l142 804h184l-122 -692l477 285l-31 -175l-477 -285l-68 -387h626l-38 -153h-799z" />
    <glyph glyph-name="lslash" unicode="&#x142;" horiz-adv-x="589" 
d="M120 0l104 593l-212 -125l30 172l213 125l120 683l184 37l-107 -610l211 125l-31 -172l-211 -125l-124 -703h-177z" />
    <glyph glyph-name="Nacute" unicode="&#x143;" horiz-adv-x="1442" 
d="M100 0l248 1407h175l525 -1107l195 1107h175l-249 -1407h-165l-533 1115l-196 -1115h-175zM799 1535l222 285h240l-319 -285h-143z" />
    <glyph glyph-name="nacute" unicode="&#x144;" horiz-adv-x="1171" 
d="M88 0l174 985h143l-8 -143q195 172 389 172q122 0 191 -56t69 -155q0 -66 -25 -208l-105 -595h-177l109 623q15 82 15 119q0 115 -133 115q-79 0 -175 -53t-172 -139l-117 -665h-178zM565 1122l222 285h240l-319 -285h-143z" />
    <glyph glyph-name="Ncommaaccent" unicode="&#x145;" horiz-adv-x="1442" 
d="M100 0l248 1407h175l525 -1107l195 1107h175l-249 -1407h-165l-533 1115l-196 -1115h-175zM429 -523l140 399h191l-193 -399h-138z" />
    <glyph glyph-name="ncommaaccent" unicode="&#x146;" horiz-adv-x="1171" 
d="M88 0l174 985h143l-8 -143q195 172 389 172q122 0 191 -56t69 -155q0 -66 -25 -208l-105 -595h-177l109 623q15 82 15 119q0 115 -133 115q-79 0 -175 -53t-172 -139l-117 -665h-178zM268 -523l140 399h191l-193 -399h-138z" />
    <glyph glyph-name="Ncaron" unicode="&#x147;" horiz-adv-x="1442" 
d="M100 0l248 1407h175l525 -1107l195 1107h175l-249 -1407h-165l-533 1115l-196 -1115h-175zM917 1655l205 165h178l-296 -285h-205l-197 285h167z" />
    <glyph glyph-name="ncaron" unicode="&#x148;" horiz-adv-x="1171" 
d="M88 0l174 985h143l-8 -143q195 172 389 172q122 0 191 -56t69 -155q0 -66 -25 -208l-105 -595h-177l109 623q15 82 15 119q0 115 -133 115q-79 0 -175 -53t-172 -139l-117 -665h-178zM678 1242l205 165h179l-297 -285h-205l-197 285h168z" />
    <glyph glyph-name="napostrophe" unicode="&#x149;" horiz-adv-x="1171" 
d="M80 1044l122 427h193l-179 -427h-136zM88 0l173 985h144l-8 -143q194 172 388 172q122 0 191 -56t69 -155q0 -70 -24 -208l-105 -595h-178l110 623q14 79 14 119q0 115 -133 115q-79 0 -175 -53t-172 -139l-117 -665h-177z" />
    <glyph glyph-name="Eng" unicode="&#x14a;" horiz-adv-x="1442" 
d="M100 0l248 1407h178l522 -1107l195 1107h175l-238 -1346q-42 -242 -128 -362q-60 -83 -186 -179l-71 71q96 116 132 196q40 92 67 229l-523 1099l-196 -1115h-175z" />
    <glyph glyph-name="eng" unicode="&#x14b;" horiz-adv-x="1171" 
d="M88 0l174 985h143l-8 -143q195 172 389 172q122 0 191 -56t69 -155q0 -66 -25 -208l-97 -550q-41 -234 -126 -351q-58 -80 -185 -174l-71 71q97 117 132 196q46 103 89 350l85 486q15 82 15 119q0 115 -133 115q-79 0 -175 -53t-172 -139l-117 -665h-178z" />
    <glyph glyph-name="Omacron" unicode="&#x14c;" horiz-adv-x="1400" 
d="M835 1436q155 0 279 -62q137 -68 195 -216q48 -119 48 -269q0 -174 -53 -357q-82 -284 -258 -430q-156 -131 -401 -131q-256 0 -387 128q-70 68 -105 174q-37 116 -37 243q0 175 54 359q164 561 665 561zM830 1285q-280 0 -418 -288q-47 -97 -76.5 -238t-29.5 -264
q0 -185 92 -284q84 -89 250 -89q276 0 413 287q47 98 76.5 237t29.5 263q0 184 -91 282q-41 43 -107 68.5t-139 25.5zM549 1609l25 140h662l-25 -140h-662z" />
    <glyph glyph-name="omacron" unicode="&#x14d;" horiz-adv-x="1101" 
d="M623 1014q194 0 299 -109q101 -104 101 -299q0 -113 -35 -230t-95 -201q-143 -204 -409 -204q-197 0 -299 101q-107 105 -107 308q0 113 35.5 230t93.5 200q145 204 416 204zM615 868q-192 0 -287 -195q-66 -135 -66 -296q0 -260 229 -260q187 0 282 195q66 136 66 297
q0 121 -54 188q-56 71 -170 71zM375 1192l25 140h574l-25 -140h-574z" />
    <glyph glyph-name="Obreve" unicode="&#x14e;" horiz-adv-x="1400" 
d="M835 1436q155 0 279 -62q137 -68 195 -216q48 -119 48 -269q0 -174 -53 -357q-82 -284 -258 -430q-156 -131 -401 -131q-256 0 -387 128q-70 68 -105 174q-37 116 -37 243q0 175 54 359q164 561 665 561zM830 1285q-280 0 -418 -288q-47 -97 -76.5 -238t-29.5 -264
q0 -185 92 -284q84 -89 250 -89q276 0 413 287q47 98 76.5 237t29.5 263q0 184 -91 282q-41 43 -107 68.5t-139 25.5zM603 1813h131q-4 -32 -4 -46q0 -104 161 -104q93 0 136.5 31.5t68.5 118.5h131q-25 -126 -67 -183q-79 -107 -276 -107q-289 0 -289 206q0 31 8 84z" />
    <glyph glyph-name="obreve" unicode="&#x14f;" horiz-adv-x="1101" 
d="M623 1014q194 0 299 -109q101 -104 101 -299q0 -113 -35 -230t-95 -201q-143 -204 -409 -204q-197 0 -299 101q-107 105 -107 308q0 113 35.5 230t93.5 200q145 204 416 204zM615 868q-192 0 -287 -195q-66 -135 -66 -296q0 -260 229 -260q187 0 282 195q66 136 66 297
q0 121 -54 188q-56 71 -170 71zM381 1400h131q-4 -28 -4 -44q0 -106 161 -106q94 0 137 31.5t68 118.5h131q-26 -127 -67 -183q-80 -107 -276 -107q-289 0 -289 205q0 33 8 85z" />
    <glyph glyph-name="Ohungarumlaut" unicode="&#x150;" horiz-adv-x="1400" 
d="M835 1436q155 0 279 -62q137 -68 195 -216q48 -119 48 -269q0 -174 -53 -357q-82 -284 -258 -430q-156 -131 -401 -131q-256 0 -387 128q-70 68 -105 174q-37 116 -37 243q0 175 54 359q164 561 665 561zM830 1285q-280 0 -418 -288q-47 -97 -76.5 -238t-29.5 -264
q0 -185 92 -284q84 -89 250 -89q276 0 413 287q47 98 76.5 237t29.5 263q0 184 -91 282q-41 43 -107 68.5t-139 25.5zM659 1535l181 285h230l-278 -285h-133zM972 1535l181 285h229l-277 -285h-133z" />
    <glyph glyph-name="ohungarumlaut" unicode="&#x151;" horiz-adv-x="1102" 
d="M623 1014q194 0 299 -109q101 -104 101 -299q0 -113 -35 -230t-95 -201q-143 -204 -409 -204q-197 0 -299 101q-107 105 -107 308q0 113 35.5 230t93.5 200q145 204 416 204zM615 868q-192 0 -287 -195q-66 -135 -66 -296q0 -260 229 -260q187 0 282 195q66 136 66 297
q0 121 -54 188q-56 71 -170 71zM428 1122l181 285h230l-278 -285h-133zM742 1122l180 285h230l-278 -285h-132z" />
    <glyph glyph-name="OE" unicode="&#x152;" horiz-adv-x="1839" 
d="M1663 0h-829q-217 0 -299 10q-219 27 -320 158q-97 126 -97 355q0 271 116 504q137 277 393 348q70 20 150 26t259 6h864l-39 -153h-642l-76 -429h534l-37 -146h-523l-92 -526h677zM840 152l194 1101h-84q-138 0 -193 -7t-113 -32q-167 -71 -257 -291q-35 -86 -57 -200.5
t-22 -214.5q0 -114 41.5 -198t114.5 -120q50 -25 101.5 -31.5t190.5 -6.5h84z" />
    <glyph glyph-name="oe" unicode="&#x153;" horiz-adv-x="1671" 
d="M834 173q-145 -202 -368 -202q-188 0 -285 101q-103 106 -103 307q0 113 34 230t91 201q140 204 395 204q131 0 209 -49t122 -160q150 209 396 209q145 0 221.5 -64t76.5 -184q0 -105 -60 -172.5t-194 -111.5q-118 -39 -412 -77q-1 -19 -1 -27q0 -139 60.5 -203
t193.5 -64q76 0 134.5 19.5t140.5 72.5l51 -135q-171 -97 -357 -97q-266 0 -345 202zM598 868q-182 0 -273 -195q-63 -135 -63 -297q0 -259 214 -259q177 0 268 195q63 136 63 298q0 258 -209 258zM974 537q215 24 337 69q78 29 112.5 66t34.5 93q0 114 -141 114
q-129 0 -217.5 -88.5t-125.5 -253.5z" />
    <glyph glyph-name="Racute" unicode="&#x154;" horiz-adv-x="1228" 
d="M387 584l-103 -584h-184l248 1407h388q225 0 331 -63q125 -74 125 -259q0 -92 -33.5 -184.5t-88.5 -153.5q-76 -84 -197 -119q36 -29 57.5 -67t50.5 -123l148 -438h-209l-108 344q-53 170 -78.5 205t-99.5 35h-247zM412 722h191q124 0 195.5 20.5t113.5 67.5
q40 46 65 118t25 143q0 106 -66 146.5t-239 40.5h-191zM659 1535l223 285h239l-319 -285h-143z" />
    <glyph glyph-name="racute" unicode="&#x155;" horiz-adv-x="747" 
d="M88 0l174 985h143l-13 -173q118 102 217 144t227 43l-39 -155q-114 -5 -209 -52q-118 -59 -211 -157l-111 -635h-178zM468 1122l223 285h239l-319 -285h-143z" />
    <glyph glyph-name="Rcommaaccent" unicode="&#x156;" horiz-adv-x="1228" 
d="M387 584l-103 -584h-184l248 1407h388q225 0 331 -63q125 -74 125 -259q0 -92 -33.5 -184.5t-88.5 -153.5q-76 -84 -197 -119q36 -29 57.5 -67t50.5 -123l148 -438h-209l-108 344q-53 170 -78.5 205t-99.5 35h-247zM412 722h191q124 0 195.5 20.5t113.5 67.5
q40 46 65 118t25 143q0 106 -66 146.5t-239 40.5h-191zM353 -523l140 399h192l-193 -399h-139z" />
    <glyph glyph-name="rcommaaccent" unicode="&#x157;" horiz-adv-x="747" 
d="M88 0l174 985h143l-13 -173q119 102 218 144t226 43l-38 -155q-114 -5 -209 -52q-120 -60 -211 -157l-112 -635h-178zM-69 -523l140 399h191l-193 -399h-138z" />
    <glyph glyph-name="Rcaron" unicode="&#x158;" horiz-adv-x="1228" 
d="M387 584l-103 -584h-184l248 1407h388q225 0 331 -63q125 -74 125 -259q0 -92 -33.5 -184.5t-88.5 -153.5q-76 -84 -197 -119q36 -29 57.5 -67t50.5 -123l148 -438h-209l-108 344q-53 170 -78.5 205t-99.5 35h-247zM412 722h191q124 0 195.5 20.5t113.5 67.5
q40 46 65 118t25 143q0 106 -66 146.5t-239 40.5h-191zM789 1655l205 165h178l-296 -285h-206l-196 285h167z" />
    <glyph glyph-name="rcaron" unicode="&#x159;" horiz-adv-x="747" 
d="M88 0l174 985h143l-13 -173q118 102 217 144t227 43l-39 -155q-114 -5 -209 -52q-118 -59 -211 -157l-111 -635h-178zM559 1242l205 165h179l-297 -285h-206l-196 285h167z" />
    <glyph glyph-name="Sacute" unicode="&#x15a;" horiz-adv-x="1030" 
d="M-8 59l84 153q148 -90 324 -90q194 0 282 91q76 78 76 185q0 86 -46 136q-38 40 -181 114q-117 60 -171.5 96.5t-95.5 83.5q-73 83 -73 203q0 87 34 165.5t94 131.5q124 108 339 108q202 0 372 -89l-87 -142q-139 80 -282 80q-142 0 -218 -72q-68 -65 -68 -162
q0 -77 49.5 -125t215.5 -133q171 -87 231 -150q77 -82 77 -222q0 -107 -44 -199t-123 -152q-130 -99 -374 -99q-259 0 -415 88zM592 1535l222 285h240l-319 -285h-143z" />
    <glyph glyph-name="sacute" unicode="&#x15b;" horiz-adv-x="807" 
d="M-36 62l78 139q78 -51 136.5 -70.5t127.5 -19.5q99 0 156 49.5t57 134.5q0 51 -24.5 75.5t-138.5 84.5q-131 69 -179 125q-51 60 -51 146q0 132 94.5 210t254.5 78q161 0 293 -69l-77 -135q-96 64 -213 64q-82 0 -126.5 -36t-44.5 -103q0 -52 51 -88q26 -19 136 -80
q115 -64 161 -120.5t46 -134.5q0 -64 -25 -128t-68 -109q-100 -104 -313 -104q-200 0 -331 91zM405 1122l223 285h239l-319 -285h-143z" />
    <glyph glyph-name="Scircumflex" unicode="&#x15c;" horiz-adv-x="1030" 
d="M-8 59l84 153q148 -90 324 -90q194 0 282 91q76 78 76 185q0 86 -46 136q-38 40 -181 114q-117 60 -171.5 96.5t-95.5 83.5q-73 83 -73 203q0 87 34 165.5t94 131.5q124 108 339 108q202 0 372 -89l-87 -142q-139 80 -282 80q-142 0 -218 -72q-68 -65 -68 -162
q0 -77 49.5 -125t215.5 -133q171 -87 231 -150q77 -82 77 -222q0 -107 -44 -199t-123 -152q-130 -99 -374 -99q-259 0 -415 88zM706 1700l-206 -165h-178l296 285h206l197 -285h-168z" />
    <glyph glyph-name="scircumflex" unicode="&#x15d;" horiz-adv-x="807" 
d="M-36 62l78 139q78 -51 136.5 -70.5t127.5 -19.5q99 0 156 49.5t57 134.5q0 51 -24.5 75.5t-138.5 84.5q-131 69 -179 125q-51 60 -51 146q0 132 94.5 210t254.5 78q161 0 293 -69l-77 -135q-96 64 -213 64q-82 0 -126.5 -36t-44.5 -103q0 -52 51 -88q26 -19 136 -80
q115 -64 161 -120.5t46 -134.5q0 -64 -25 -128t-68 -109q-100 -104 -313 -104q-200 0 -331 91zM540 1287l-206 -165h-178l296 285h206l196 -285h-167z" />
    <glyph glyph-name="Scedilla" unicode="&#x15e;" horiz-adv-x="1030" 
d="M-8 59l84 153q147 -89 324 -89q194 0 282 91q76 78 76 184q0 87 -46 137q-38 40 -181 113q-116 60 -171 97t-96 84q-73 82 -73 202q0 87 34 166t94 131q123 108 339 108q202 0 372 -89l-87 -142q-137 80 -282 80q-143 0 -218 -72q-68 -65 -68 -162q0 -77 50 -125.5
t215 -131.5q171 -87 231 -150q77 -83 77 -223q0 -173 -107 -295q-122 -140 -373 -152l-78 -106q198 -16 198 -158q0 -99 -75 -157t-204 -58q-104 0 -212 43l54 94q67 -31 142 -31q59 0 95.5 32t36.5 83q0 40 -40 58.5t-130 20.5l-10 41l105 137q-225 12 -358 86z" />
    <glyph glyph-name="scedilla" unicode="&#x15f;" horiz-adv-x="807" 
d="M-36 62l78 139q77 -49 136 -69t128 -20q99 0 156 49.5t57 134.5q0 51 -24.5 75t-138.5 84q-130 69 -179 126q-51 59 -51 145q0 132 94.5 210t254.5 78q161 0 293 -69l-77 -135q-96 64 -213 64q-82 0 -126.5 -36t-44.5 -103q0 -52 51 -88q26 -19 136 -80
q115 -64 161 -120.5t46 -134.5q0 -79 -36.5 -153.5t-96.5 -117.5q-73 -52 -211 -67l-78 -106q199 -16 199 -158q0 -99 -75 -157t-204 -58q-105 0 -213 43l54 94q67 -31 143 -31q59 0 95.5 32t36.5 83q0 40 -40 58.5t-131 20.5l-10 41l106 138q-164 11 -276 88z" />
    <glyph glyph-name="Scaron" unicode="&#x160;" horiz-adv-x="1030" 
d="M-8 59l84 153q148 -90 324 -90q194 0 282 91q76 78 76 185q0 86 -46 136q-38 40 -181 114q-117 60 -171.5 96.5t-95.5 83.5q-73 83 -73 203q0 87 34 165.5t94 131.5q124 108 339 108q202 0 372 -89l-87 -142q-139 80 -282 80q-142 0 -218 -72q-68 -65 -68 -162
q0 -77 49.5 -125t215.5 -133q171 -87 231 -150q77 -82 77 -222q0 -107 -44 -199t-123 -152q-130 -99 -374 -99q-259 0 -415 88zM712 1655l205 165h179l-296 -285h-206l-196 285h167z" />
    <glyph glyph-name="scaron" unicode="&#x161;" horiz-adv-x="807" 
d="M-36 62l78 139q78 -51 136.5 -70.5t127.5 -19.5q99 0 156 49.5t57 134.5q0 51 -24.5 75.5t-138.5 84.5q-131 69 -179 125q-51 60 -51 146q0 132 94.5 210t254.5 78q161 0 293 -69l-77 -135q-96 64 -213 64q-82 0 -126.5 -36t-44.5 -103q0 -52 51 -88q26 -19 136 -80
q115 -64 161 -120.5t46 -134.5q0 -64 -25 -128t-68 -109q-100 -104 -313 -104q-200 0 -331 91zM521 1242l205 165h178l-296 -285h-206l-196 285h167z" />
    <glyph glyph-name="Tcommaaccent" unicode="&#x162;" horiz-adv-x="1062" 
d="M352 0l221 1254h-414l38 153h1003l-39 -153h-403l-221 -1254h-185zM189 -523l140 399h191l-193 -399h-138z" />
    <glyph glyph-name="tcommaaccent" unicode="&#x163;" horiz-adv-x="713" 
d="M275 839h-168l36 146h163l57 247l169 55l-53 -302h231l-38 -146h-219l-88 -497q-20 -114 -20 -154q0 -71 93 -71q62 0 126 35l39 -138q-113 -43 -227 -43q-214 0 -214 174q0 52 20 166zM46 -523l140 399h191l-193 -399h-138z" />
    <glyph glyph-name="Tcaron" unicode="&#x164;" horiz-adv-x="1062" 
d="M352 0l221 1254h-414l38 153h1003l-39 -153h-403l-221 -1254h-185zM723 1655l205 165h178l-296 -285h-206l-196 285h167z" />
    <glyph glyph-name="tcaron" unicode="&#x165;" horiz-adv-x="792" 
d="M275 839h-169l37 146h163l56 247l169 55l-53 -302h232l-38 -146h-220l-87 -497q-20 -111 -20 -154q0 -71 93 -71q61 0 125 35l40 -138q-115 -43 -227 -43q-214 0 -214 174q0 56 19 166zM700 1093l130 460h198l-190 -460h-138z" />
    <glyph glyph-name="Tbar" unicode="&#x166;" horiz-adv-x="1062" 
d="M352 0l115 649h-260l38 144h247l81 461h-414l38 153h1003l-39 -153h-403l-82 -461h261l-38 -144h-248l-114 -649h-185z" />
    <glyph glyph-name="tbar" unicode="&#x167;" horiz-adv-x="713" 
d="M275 839h-168l37 146h162l57 247l169 55l-53 -302h231l-38 -146h-219l-35 -197h222l-35 -129h-209l-33 -188q-17 -93 -17 -137q0 -71 93 -71q61 0 125 35l40 -138q-114 -43 -228 -43q-214 0 -214 172q0 52 19 159l37 211h-167l35 129h155z" />
    <glyph glyph-name="Utilde" unicode="&#x168;" horiz-adv-x="1342" 
d="M341 1407h184l-152 -863q-26 -147 -26 -211q0 -117 74 -167q64 -44 190 -44q211 0 295 139q46 75 82 283l152 863h185l-168 -951q-22 -128 -46.5 -195t-67.5 -122q-131 -168 -448 -168q-237 0 -345 96q-89 80 -89 243q0 77 26 222zM1134 1803h115q-30 -92 -64 -146
q-73 -121 -189 -121q-86 0 -159 78q-35 38 -54 51t-40 13q-30 0 -61.5 -35t-55.5 -94h-115q89 267 257 267q82 0 154 -74q42 -43 59.5 -55.5t37.5 -12.5q63 0 115 129z" />
    <glyph glyph-name="utilde" unicode="&#x169;" horiz-adv-x="1145" 
d="M736 126q-172 -155 -354 -155q-122 0 -188.5 56.5t-66.5 159.5q0 71 25 216l103 582h178l-106 -600q-16 -89 -16 -143q0 -116 126 -116q74 0 159.5 41.5t158.5 113.5l124 704h178l-174 -985h-148zM962 1389h116q-31 -93 -64 -147q-74 -120 -190 -120q-85 0 -158 79
q-35 37 -54 50t-41 13q-29 0 -61 -35t-55 -94h-116q34 100 75 160q73 107 183 107q82 0 154 -74q42 -44 59.5 -56t37.5 -12q64 0 114 129z" />
    <glyph glyph-name="Umacron" unicode="&#x16a;" horiz-adv-x="1342" 
d="M341 1407h184l-152 -863q-26 -147 -26 -211q0 -117 74 -167q64 -44 190 -44q211 0 295 139q46 75 82 283l152 863h185l-168 -951q-22 -128 -46.5 -195t-67.5 -122q-131 -168 -448 -168q-237 0 -345 96q-89 80 -89 243q0 77 26 222zM525 1609l24 140h662l-24 -140h-662z
" />
    <glyph glyph-name="umacron" unicode="&#x16b;" horiz-adv-x="1144" 
d="M736 126q-172 -155 -354 -155q-122 0 -188.5 56.5t-66.5 159.5q0 71 25 216l103 582h178l-106 -600q-16 -89 -16 -143q0 -116 126 -116q74 0 159.5 41.5t158.5 113.5l124 704h178l-174 -985h-148zM397 1192l24 140h574l-24 -140h-574z" />
    <glyph glyph-name="Ubreve" unicode="&#x16c;" horiz-adv-x="1342" 
d="M341 1407h184l-152 -863q-26 -147 -26 -211q0 -117 74 -167q64 -44 190 -44q211 0 295 139q46 75 82 283l152 863h185l-168 -951q-22 -128 -46.5 -195t-67.5 -122q-131 -168 -448 -168q-237 0 -345 96q-89 80 -89 243q0 77 26 222zM580 1813h131q-4 -30 -4 -45
q0 -105 161 -105q93 0 136.5 32t68.5 118h131q-26 -127 -67 -183q-80 -107 -276 -107q-289 0 -289 205q0 30 8 85z" />
    <glyph glyph-name="ubreve" unicode="&#x16d;" horiz-adv-x="1144" 
d="M736 126q-172 -155 -354 -155q-122 0 -188.5 56.5t-66.5 159.5q0 71 25 216l103 582h178l-106 -600q-16 -89 -16 -143q0 -116 126 -116q74 0 159.5 41.5t158.5 113.5l124 704h178l-174 -985h-148zM409 1400h130q-4 -27 -4 -44q0 -106 161 -106q94 0 137 31.5t69 118.5
h130q-25 -126 -67 -183q-80 -107 -275 -107q-290 0 -290 205q0 32 9 85z" />
    <glyph glyph-name="Uring" unicode="&#x16e;" horiz-adv-x="1342" 
d="M341 1407h184l-152 -863q-26 -147 -26 -211q0 -117 74 -167q64 -44 190 -44q211 0 295 139q46 75 82 283l152 863h185l-168 -951q-22 -128 -46.5 -195t-67.5 -122q-131 -168 -448 -168q-237 0 -345 96q-89 80 -89 243q0 77 26 222zM867 1860q93 0 149 -51q57 -52 57 -139
t-57.5 -139.5t-152.5 -52.5t-151 52q-58 54 -58 140q0 88 57 139t156 51zM865 1780q-103 0 -103 -111t101 -111q102 0 102 111t-100 111z" />
    <glyph glyph-name="uring" unicode="&#x16f;" horiz-adv-x="1144" 
d="M736 126q-172 -155 -354 -155q-122 0 -188.5 56.5t-66.5 159.5q0 71 25 216l103 582h178l-106 -600q-16 -89 -16 -143q0 -116 126 -116q74 0 159.5 41.5t158.5 113.5l124 704h178l-174 -985h-148zM705 1485q93 0 149 -51q57 -52 57 -138q0 -88 -57.5 -140.5t-151.5 -52.5
q-96 0 -152 52q-58 54 -58 140q0 88 57 139t156 51zM703 1405q-103 0 -103 -111t101 -111q102 0 102 111t-100 111z" />
    <glyph glyph-name="Uhungarumlaut" unicode="&#x170;" horiz-adv-x="1342" 
d="M341 1407h184l-152 -863q-26 -147 -26 -211q0 -117 74 -167q64 -44 190 -44q211 0 295 139q46 75 82 283l152 863h185l-168 -951q-22 -128 -46.5 -195t-67.5 -122q-131 -168 -448 -168q-237 0 -345 96q-89 80 -89 243q0 77 26 222zM613 1535l181 285h230l-278 -285h-133z
M926 1535l181 285h229l-277 -285h-133z" />
    <glyph glyph-name="uhungarumlaut" unicode="&#x171;" horiz-adv-x="1145" 
d="M736 126q-172 -155 -354 -155q-122 0 -188.5 56.5t-66.5 159.5q0 71 25 216l103 582h178l-106 -600q-16 -89 -16 -143q0 -116 126 -116q74 0 159.5 41.5t158.5 113.5l124 704h178l-174 -985h-148zM441 1122l180 285h230l-278 -285h-132zM754 1122l180 285h230l-278 -285
h-132z" />
    <glyph glyph-name="Uogonek" unicode="&#x172;" horiz-adv-x="1342" 
d="M341 1407h184l-152 -863q-26 -147 -26 -209q0 -118 74 -169q64 -43 190 -43q211 0 295 138q46 76 82 283l152 863h185l-168 -951q-26 -151 -61.5 -230.5t-100.5 -136.5q-91 -80 -260 -107q-10 -8 -71 -54q-146 -109 -146 -229q0 -48 35.5 -70t113.5 -22q49 0 122 15
l5 -97q-87 -30 -178 -30q-258 0 -258 186q0 86 49 151.5t168 139.5q-180 7 -275 61q-139 77 -139 277q0 77 26 222z" />
    <glyph glyph-name="uogonek" unicode="&#x173;" horiz-adv-x="1144" 
d="M736 126q-172 -155 -354 -155q-122 0 -188.5 56.5t-66.5 159.5q0 71 25 216l103 582h178l-106 -600q-16 -89 -16 -143q0 -116 126 -116q74 0 159.5 41.5t158.5 113.5l124 704h178l-174 -985q-133 -87 -189 -156t-56 -145q0 -48 35.5 -70t112.5 -22q50 0 123 15l5 -97
q-87 -30 -179 -30q-257 0 -257 186q0 94 67 170.5t213 148.5h-37z" />
    <glyph glyph-name="Wcircumflex" unicode="&#x174;" horiz-adv-x="1747" 
d="M292 0l-105 1407h184l68 -1136l519 1136h158l121 -1148l458 1148h188l-599 -1407h-177l-114 1132l-517 -1132h-184zM1062 1700l-205 -165h-178l296 285h206l196 -285h-167z" />
    <glyph glyph-name="wcircumflex" unicode="&#x175;" horiz-adv-x="1530" 
d="M274 0l-149 985h181l89 -767l363 767h147l138 -783q264 342 264 531q0 44 -17.5 75.5t-69.5 81.5l108 118q81 -61 118.5 -119.5t37.5 -125.5q0 -153 -142 -378q-113 -179 -284 -385h-143l-122 750l-354 -750h-165zM865 1287l-205 -165h-178l296 285h206l196 -285h-167z
" />
    <glyph glyph-name="Ycircumflex" unicode="&#x176;" horiz-adv-x="1109" 
d="M374 0l97 549l-310 858h195l235 -686l474 686h206l-616 -858l-96 -549h-185zM744 1700l-206 -165h-178l296 285h206l196 -285h-167z" />
    <glyph glyph-name="ycircumflex" unicode="&#x177;" horiz-adv-x="972" 
d="M306 1l-211 984h181l158 -815q17 23 26 34q115 148 149.5 199t69.5 123q62 128 62 209q0 42 -17.5 74.5t-65.5 80.5l111 118q81 -60 118.5 -119.5t37.5 -126.5q0 -135 -111 -321q-57 -96 -300 -413q-192 -250 -311 -511l-166 62q132 239 269 422zM529 1287l-205 -165
h-178l296 285h206l196 -285h-168z" />
    <glyph glyph-name="Ydieresis" unicode="&#x178;" horiz-adv-x="1109" 
d="M374 0l97 549l-310 858h195l235 -686l474 686h206l-616 -858l-96 -549h-185zM540 1792q45 0 77.5 -33t32.5 -79q0 -47 -32.5 -80t-79.5 -33t-79.5 33t-32.5 81q0 46 33 78.5t81 32.5zM936 1792q45 0 77.5 -33t32.5 -79q0 -47 -32.5 -80t-79.5 -33t-79.5 33t-32.5 81
q0 46 33 78.5t81 32.5z" />
    <glyph glyph-name="Zacute" unicode="&#x179;" horiz-adv-x="1066" 
d="M-55 0l20 126l933 1128h-652l39 153h858l-9 -126l-933 -1128h771l-39 -153h-988zM635 1535l223 285h239l-319 -285h-143z" />
    <glyph glyph-name="zacute" unicode="&#x17a;" horiz-adv-x="874" 
d="M-3 0l-21 132l644 707h-71q-257 0 -392 41l49 144q159 -39 441 -39h184l25 -119l-652 -719q79 6 143 6q251 0 445 -74l-62 -142q-107 39 -210.5 54.5t-261.5 15.5q-97 0 -261 -7zM461 1122l223 285h239l-319 -285h-143z" />
    <glyph glyph-name="Zdotaccent" unicode="&#x17b;" horiz-adv-x="1066" 
d="M-55 0l20 126l933 1128h-652l39 153h858l-9 -126l-933 -1128h771l-39 -153h-988zM758 1796q47 0 80.5 -34t33.5 -82q0 -49 -34 -83t-82 -34t-82 34.5t-34 83.5q0 48 34 81.5t84 33.5z" />
    <glyph glyph-name="zdotaccent" unicode="&#x17c;" horiz-adv-x="874" 
d="M-3 0l-21 132l644 707h-71q-257 0 -392 41l49 144q159 -39 441 -39h184l25 -119l-652 -719q79 6 143 6q251 0 445 -74l-62 -142q-107 39 -210.5 54.5t-261.5 15.5q-97 0 -261 -7zM569 1382q47 0 80.5 -34.5t33.5 -81.5q0 -49 -34 -83t-82 -34t-82 34.5t-34 82.5
q0 49 34.5 82.5t83.5 33.5z" />
    <glyph glyph-name="Zcaron" unicode="&#x17d;" horiz-adv-x="1066" 
d="M-55 0l20 126l933 1128h-652l39 153h858l-9 -126l-933 -1128h771l-39 -153h-988zM762 1655l205 165h179l-296 -285h-206l-197 285h168z" />
    <glyph glyph-name="zcaron" unicode="&#x17e;" horiz-adv-x="874" 
d="M-3 0l-21 132l644 707h-71q-257 0 -392 41l49 144q159 -39 441 -39h184l25 -119l-652 -719q79 6 143 6q251 0 445 -74l-62 -142q-107 39 -210.5 54.5t-261.5 15.5q-97 0 -261 -7zM582 1242l205 165h178l-296 -285h-206l-196 285h167z" />
    <glyph glyph-name="uni018F" unicode="&#x18f;" horiz-adv-x="1402" 
d="M232 1097q57 95 111 152q179 187 490 187q275 0 404 -142q73 -81 106 -212q23 -91 23 -191q0 -162 -45 -322t-127 -290q-193 -308 -563 -308q-511 0 -511 532q0 119 28 255h1005q11 75 11 136q0 202 -91 298q-83 87 -259 87q-204 0 -339 -132q-43 -42 -99 -128zM1126 612
h-808q-9 -67 -9 -118q0 -118 39 -208q73 -167 285 -167q250 0 391 222q67 106 102 271z" />
    <glyph glyph-name="florin" unicode="&#x192;" 
d="M500 641h-218l32 146h211l58 332q27 150 87 217q77 86 227 86q100 0 209 -39l-52 -138q-71 31 -132 31q-77 0 -112.5 -48.5t-59.5 -188.5l-44 -252h241l-32 -146h-235l-129 -737q-27 -157 -89 -229q-78 -91 -230 -91q-95 0 -198 35l52 138q64 -27 122 -27q79 0 114 48
t60 189z" />
    <glyph glyph-name="uni01C4" unicode="&#x1c4;" horiz-adv-x="2331" 
d="M100 0l248 1407h348q283 0 419 -97q169 -120 169 -421q0 -270 -106 -498q-110 -237 -312 -326q-147 -65 -372 -65h-394zM311 153h154q206 0 317 56q163 82 248 310q64 174 64 355q0 275 -180 346q-87 34 -276 34h-132zM2028 1655l205 165h178l-296 -285h-206l-196 285
h167zM1211 0l19 126l933 1128h-652l39 153h859l-9 -126l-933 -1128h771l-39 -153h-988z" />
    <glyph glyph-name="uni01C5" unicode="&#x1c5;" horiz-adv-x="2139" 
d="M100 0l248 1407h348q283 0 419 -97q169 -120 169 -421q0 -270 -106 -498q-110 -237 -312 -326q-147 -65 -372 -65h-394zM311 153h154q206 0 317 56q163 82 248 310q64 174 64 355q0 275 -180 346q-87 34 -276 34h-132zM1848 1242l205 165h178l-296 -285h-206l-196 285
h167zM1263 0l-21 132l644 707h-71q-258 0 -393 41l50 144q158 -39 441 -39h183l26 -119l-653 -719q80 6 143 6q252 0 445 -74l-62 -142q-106 39 -209.5 54.5t-261.5 15.5q-97 0 -261 -7z" />
    <glyph glyph-name="uni01C6" unicode="&#x1c6;" horiz-adv-x="1930" 
d="M849 964l85 484l184 37l-262 -1485h-139l-2 120q-141 -149 -321 -149q-147 0 -232 82q-92 89 -92 271q0 120 34 241t93 211q155 238 428 238q62 0 103 -9t121 -41zM821 808q-74 60 -184 60q-201 0 -307 -210q-76 -150 -76 -322q0 -116 53 -170q48 -49 129 -49
q133 0 233 112q62 70 83 185zM1638 1242l205 165h179l-296 -285h-206l-196 285h167zM1053 0l-21 132l644 707h-70q-258 0 -393 41l50 144q158 -39 440 -39h184l26 -119l-653 -719q79 6 143 6q252 0 445 -74l-62 -142q-106 39 -210 54.5t-261 15.5q-97 0 -262 -7z" />
    <glyph glyph-name="uni01C7" unicode="&#x1c7;" horiz-adv-x="1547" 
d="M100 0l248 1407h184l-221 -1254h581l-38 -153h-754zM1330 1407h185l-175 -991q-39 -223 -74 -332.5t-96 -202.5q-78 -118 -273 -265l-87 85q156 134 225.5 281.5t124.5 459.5z" />
    <glyph glyph-name="uni01C8" unicode="&#x1c8;" horiz-adv-x="1532" 
d="M100 0l248 1407h184l-221 -1254h581l-38 -153h-754zM1396 1382q47 0 80.5 -34t33.5 -82q0 -49 -34 -83t-82 -34t-82 34t-34 83t34 82.5t84 33.5zM1255 985h178l-166 -940q-41 -234 -126 -351q-59 -80 -185 -174l-72 71q97 117 132 196q46 103 90 350z" />
    <glyph glyph-name="uni01C9" unicode="&#x1c9;" horiz-adv-x="1102" 
d="M98 0l255 1448l184 37l-262 -1485h-177zM966 1382q47 0 80.5 -34t33.5 -82q0 -49 -34 -83t-82 -34t-82 34t-34 83t34 82.5t84 33.5zM825 985h178l-166 -940q-41 -234 -126 -351q-59 -80 -185 -174l-72 71q98 117 133 196q45 103 89 350z" />
    <glyph glyph-name="uni01CA" unicode="&#x1ca;" horiz-adv-x="2013" 
d="M100 0l248 1407h175l525 -1107l195 1107h175l-249 -1407h-165l-533 1115l-196 -1115h-175zM1796 1407h185l-175 -991q-39 -223 -74 -332.5t-96 -202.5q-78 -118 -273 -265l-87 85q156 134 225.5 281.5t124.5 459.5z" />
    <glyph glyph-name="uni01CB" unicode="&#x1cb;" horiz-adv-x="1998" 
d="M100 0l248 1407h175l525 -1107l195 1107h175l-249 -1407h-165l-533 1115l-196 -1115h-175zM1862 1382q47 0 80.5 -34t33.5 -82q0 -49 -34 -83t-82 -34t-82 34t-34 83t34 82.5t84 33.5zM1721 985h178l-166 -940q-41 -234 -126 -351q-59 -80 -185 -174l-72 71
q97 117 132 196q46 103 90 350z" />
    <glyph glyph-name="uni01CC" unicode="&#x1cc;" horiz-adv-x="1706" 
d="M88 0l174 985h143l-8 -143q195 172 389 172q122 0 191 -56t69 -155q0 -66 -25 -208l-105 -595h-177l109 623q15 82 15 119q0 115 -133 115q-79 0 -175 -53t-172 -139l-117 -665h-178zM1429 985h177l-166 -940q-41 -234 -126 -351q-58 -80 -185 -174l-71 71
q97 117 132 196q46 103 89 350zM1569 1382q47 0 80.5 -34t33.5 -82q0 -49 -34 -83t-82 -34t-82 34t-34 83t34 82.5t84 33.5z" />
    <glyph glyph-name="uni01CD" unicode="&#x1cd;" horiz-adv-x="1312" 
d="M951 418h-607l-241 -418h-200l828 1407h171l332 -1407h-190zM920 567l-138 621l-355 -621h493zM832 1655l205 165h178l-296 -285h-205l-197 285h168z" />
    <glyph glyph-name="uni01CE" unicode="&#x1ce;" horiz-adv-x="1109" 
d="M872 0h-180l7 111q-74 -74 -146 -107t-161 -33q-153 0 -241 88q-82 83 -82 254q0 123 35.5 248.5t97.5 219.5q154 233 445 233q153 0 367 -68l-101 -574q-41 -232 -41 -372zM816 829q-85 38 -175 38q-204 0 -309 -209q-36 -72 -57.5 -165.5t-21.5 -176.5q0 -199 176 -199
q135 0 233 112q35 40 52 79t29 106zM714 1242l205 165h178l-296 -285h-206l-196 285h167z" />
    <glyph glyph-name="uni01CF" unicode="&#x1cf;" horiz-adv-x="587" 
d="M115 0l248 1407h184l-248 -1407h-184zM494 1655l205 165h178l-296 -285h-206l-196 285h167z" />
    <glyph glyph-name="uni01D0" unicode="&#x1d0;" horiz-adv-x="550" 
d="M99 0l174 985h178l-174 -985h-178zM402 1242l205 165h178l-296 -285h-206l-196 285h167z" />
    <glyph glyph-name="uni01D1" unicode="&#x1d1;" horiz-adv-x="1400" 
d="M835 1436q155 0 279 -62q137 -68 195 -216q48 -119 48 -269q0 -174 -53 -357q-82 -284 -258 -430q-156 -131 -401 -131q-256 0 -387 128q-70 68 -105 174q-37 116 -37 243q0 175 54 359q164 561 665 561zM830 1285q-280 0 -418 -288q-47 -97 -76.5 -238t-29.5 -264
q0 -185 92 -284q84 -89 250 -89q276 0 413 287q47 98 76.5 237t29.5 263q0 184 -91 282q-41 43 -107 68.5t-139 25.5zM900 1655l205 165h178l-296 -285h-206l-196 285h167z" />
    <glyph glyph-name="uni01D2" unicode="&#x1d2;" horiz-adv-x="1101" 
d="M623 1014q194 0 299 -109q101 -104 101 -299q0 -113 -35 -230t-95 -201q-143 -204 -409 -204q-197 0 -299 101q-107 105 -107 308q0 113 35.5 230t93.5 200q145 204 416 204zM615 868q-192 0 -287 -195q-66 -135 -66 -296q0 -260 229 -260q187 0 282 195q66 136 66 297
q0 121 -54 188q-56 71 -170 71zM678 1242l205 165h178l-296 -285h-206l-196 285h167z" />
    <glyph glyph-name="uni01D3" unicode="&#x1d3;" horiz-adv-x="1342" 
d="M341 1407h184l-152 -863q-26 -147 -26 -211q0 -117 74 -167q64 -44 190 -44q211 0 295 139q46 75 82 283l152 863h185l-168 -951q-22 -128 -46.5 -195t-67.5 -122q-131 -168 -448 -168q-237 0 -345 96q-89 80 -89 243q0 77 26 222zM859 1655l205 165h178l-296 -285h-206
l-196 285h167z" />
    <glyph glyph-name="uni01D4" unicode="&#x1d4;" horiz-adv-x="1144" 
d="M736 126q-172 -155 -354 -155q-122 0 -188.5 56.5t-66.5 159.5q0 71 25 216l103 582h178l-106 -600q-16 -89 -16 -143q0 -116 126 -116q74 0 159.5 41.5t158.5 113.5l124 704h178l-174 -985h-148zM687 1242l205 165h179l-297 -285h-205l-197 285h168z" />
    <glyph glyph-name="uni01DD" unicode="&#x1dd;" horiz-adv-x="1057" 
d="M792 526q8 47 8 83q0 89 -36 155q-60 110 -248 110q-84 0 -143 -18.5t-162 -76.5l-34 126q103 62 182 85.5t184 23.5q268 0 373 -165q72 -112 72 -271q0 -214 -119 -396q-75 -114 -177 -164q-96 -47 -226 -47q-229 0 -328 142q-64 90 -64 230q0 96 25 183h693zM769 399
h-528q-3 -35 -3 -57q0 -81 30 -138q51 -96 186 -96q238 0 315 291z" />
    <glyph glyph-name="Gcaron" unicode="&#x1e6;" horiz-adv-x="1312" 
d="M932 171l69 391h-292l39 144h462l-116 -661q-188 -74 -411 -74q-282 0 -419 121q-76 67 -113 177q-37 109 -37 229q0 254 101 496q100 239 298 354q153 88 357 88q224 0 402 -109l-87 -142q-151 100 -317 100q-179 0 -298 -93q-147 -114 -220 -366q-46 -162 -46 -317
q0 -207 101 -303q89 -84 275 -84q152 0 252 49zM897 1655l205 165h178l-296 -285h-206l-196 285h167z" />
    <glyph glyph-name="gcaron" unicode="&#x1e7;" horiz-adv-x="1105" 
d="M683 100q-73 -70 -140 -99.5t-152 -29.5q-147 0 -233 82q-89 85 -89 261q0 120 34.5 242.5t95.5 217.5q154 240 445 240q155 0 366 -68l-135 -767q-50 -286 -104 -405q-110 -248 -430 -248q-187 0 -333 69l75 140q106 -65 253 -65q157 0 228 81t112 306zM812 829
q-88 39 -173 39q-203 0 -307 -209q-35 -72 -57 -167t-22 -178q0 -95 45.5 -146t128.5 -51q134 0 231 112q35 40 52 79t29 106zM718 1242l205 165h178l-296 -285h-206l-196 285h168z" />
    <glyph glyph-name="uni01EA" unicode="&#x1ea;" horiz-adv-x="1400" 
d="M758 -21q-55 -37 -130 -107q-81 -77 -81 -173q0 -48 35.5 -70t112.5 -22q50 0 123 15l5 -97q-87 -30 -178 -30q-258 0 -258 187q0 84 51 152.5t166 137.5q-162 7 -279 76q-105 62 -157 187q-52 123 -52 281q0 176 53 359q83 283 259 428q162 133 399 133q259 0 395 -138
q64 -66 99.5 -173t35.5 -236q0 -231 -86 -456q-81 -211 -225 -331q-117 -97 -288 -123zM830 1285q-280 0 -418 -288q-47 -97 -76.5 -237.5t-29.5 -264.5q0 -184 92 -283q84 -89 250 -89q275 0 413 286q47 99 76.5 238t29.5 263q0 183 -91 281q-41 43 -107 68.5t-139 25.5z
" />
    <glyph glyph-name="uni01EB" unicode="&#x1eb;" horiz-adv-x="1101" 
d="M621 -13q-43 -28 -117 -92q-106 -94 -106 -196q0 -48 35.5 -70t112.5 -22q49 0 123 15l5 -97q-88 -30 -179 -30q-257 0 -257 187q0 84 51.5 153.5t165.5 136.5q-377 26 -377 408q0 113 35 229.5t95 200.5q144 204 408 204q203 0 306 -109q101 -106 101 -299
q0 -164 -68 -321q-106 -243 -334 -298zM615 868q-192 0 -287 -194q-66 -136 -66 -296q0 -260 229 -260q187 0 282 195q66 136 66 297q0 120 -54 187q-56 71 -170 71z" />
    <glyph glyph-name="uni01F1" unicode="&#x1f1;" horiz-adv-x="2331" 
d="M100 0l248 1407h348q283 0 419 -97q169 -120 169 -421q0 -270 -106 -498q-110 -237 -312 -326q-147 -65 -372 -65h-394zM311 153h154q206 0 317 56q163 82 248 310q64 174 64 355q0 275 -180 346q-87 34 -276 34h-132zM1211 0l19 126l933 1128h-652l39 153h859l-9 -126
l-933 -1128h771l-39 -153h-988z" />
    <glyph glyph-name="uni01F2" unicode="&#x1f2;" horiz-adv-x="2139" 
d="M100 0l248 1407h348q283 0 419 -97q169 -120 169 -421q0 -270 -106 -498q-110 -237 -312 -326q-147 -65 -372 -65h-394zM311 153h154q206 0 317 56q163 82 248 310q64 174 64 355q0 275 -180 346q-87 34 -276 34h-132zM1263 0l-21 132l644 707h-71q-258 0 -393 41l50 144
q158 -39 441 -39h183l26 -119l-653 -719q80 6 143 6q252 0 445 -74l-62 -142q-106 39 -209.5 54.5t-261.5 15.5q-97 0 -261 -7z" />
    <glyph glyph-name="uni01F3" unicode="&#x1f3;" horiz-adv-x="1930" 
d="M849 964l85 484l184 37l-262 -1485h-139l-2 120q-141 -149 -321 -149q-147 0 -232 82q-92 89 -92 271q0 120 34 241t93 211q155 238 428 238q62 0 103 -9t121 -41zM821 808q-74 60 -184 60q-201 0 -307 -210q-76 -150 -76 -322q0 -116 53 -170q48 -49 129 -49
q133 0 233 112q62 70 83 185zM1053 0l-21 132l644 707h-70q-258 0 -393 41l50 144q158 -39 440 -39h184l26 -119l-653 -719q79 6 143 6q252 0 445 -74l-62 -142q-106 39 -210 54.5t-261 15.5q-97 0 -262 -7z" />
    <glyph glyph-name="uni01F4" unicode="&#x1f4;" horiz-adv-x="1312" 
d="M932 171l69 391h-292l39 144h462l-116 -661q-188 -74 -411 -74q-282 0 -419 121q-76 67 -113 177q-37 109 -37 229q0 254 101 496q100 239 298 354q153 88 357 88q224 0 402 -109l-87 -142q-151 100 -317 100q-179 0 -298 -93q-147 -114 -220 -366q-46 -162 -46 -317
q0 -207 101 -303q89 -84 275 -84q152 0 252 49zM740 1535l223 285h239l-319 -285h-143z" />
    <glyph glyph-name="uni01F5" unicode="&#x1f5;" horiz-adv-x="1105" 
d="M683 100q-73 -70 -140 -99.5t-152 -29.5q-147 0 -233 82q-89 85 -89 261q0 120 34.5 242.5t95.5 217.5q154 240 445 240q155 0 366 -68l-135 -767q-50 -286 -104 -405q-110 -248 -430 -248q-187 0 -333 69l75 140q106 -65 253 -65q157 0 228 81t112 306zM812 829
q-88 39 -173 39q-203 0 -307 -209q-35 -72 -57 -167t-22 -178q0 -95 45.5 -146t128.5 -51q134 0 231 112q35 40 52 79t29 106zM582 1122l222 285h239l-318 -285h-143z" />
    <glyph glyph-name="Aringacute" unicode="&#x1fa;" horiz-adv-x="1312" 
d="M703 1359q-80 54 -80 159q0 88 56.5 140t153.5 52q96 0 152 -51q57 -53 57 -140q0 -64 -32.5 -112t-91.5 -69l316 -1338h-190l-93 418h-607l-241 -418h-200zM920 567l-138 621l-355 -621h493zM834 1628q-103 0 -103 -111q0 -110 102 -110q101 0 101 110q0 111 -100 111z
M763 1754l205 246h239l-301 -246h-143z" />
    <glyph glyph-name="aringacute" unicode="&#x1fb;" horiz-adv-x="1109" 
d="M872 0h-180l7 111q-74 -74 -146 -107t-161 -33q-153 0 -241 88q-82 83 -82 254q0 123 35.5 248.5t97.5 219.5q154 233 445 233q153 0 367 -68l-101 -574q-41 -232 -41 -372zM816 829q-85 38 -175 38q-204 0 -309 -209q-36 -72 -57.5 -165.5t-21.5 -176.5q0 -199 176 -199
q135 0 233 112q35 40 52 79t29 106zM698 1480q93 0 149 -51q57 -52 57 -139q0 -89 -57.5 -142t-152.5 -53t-151 53q-58 54 -58 140q0 89 57 140.5t156 51.5zM696 1398q-103 0 -103 -111q0 -110 102 -110q101 0 101 110q0 111 -100 111zM624 1534l209 271h239l-305 -271h-143
z" />
    <glyph glyph-name="AEacute" unicode="&#x1fc;" horiz-adv-x="1763" 
d="M832 414h-505l-292 -414h-205l1010 1407h983l-39 -153h-620l-76 -429h512l-37 -146h-501l-92 -526h655l-39 -153h-827zM859 567l121 687h-66l-480 -687h425zM1240 1535l222 285h240l-319 -285h-143z" />
    <glyph glyph-name="aeacute" unicode="&#x1fd;" horiz-adv-x="1574" 
d="M738 158q-147 -187 -429 -187q-270 0 -270 249q0 138 95 230q74 71 201 102t384 39l14 77q9 51 9 75q0 127 -179 127q-150 0 -315 -99l-40 128q192 115 389 115q235 0 286 -148q47 49 86 75q110 73 264 73q141 0 217 -64.5t76 -183.5q0 -105 -60.5 -172.5t-193.5 -111.5
q-118 -39 -411 -77q-1 -17 -1 -27q0 -139 61 -203t193 -64q76 0 134 19.5t140 72.5l51 -135q-170 -97 -353 -97q-142 0 -224.5 44.5t-123.5 142.5zM701 470q-162 -10 -211.5 -16.5t-105.5 -24.5q-161 -52 -161 -196q0 -124 148 -124q138 0 234 83q56 47 71 135zM877 537
q214 24 337 69q78 29 112.5 66t34.5 93q0 114 -140 114q-130 0 -219 -89t-125 -253zM814 1122l222 285h240l-319 -285h-143z" />
    <glyph glyph-name="Oslashacute" unicode="&#x1fe;" horiz-adv-x="1400" 
d="M1294 1196q63 -138 63 -310q0 -158 -44.5 -323t-119.5 -286q-103 -167 -244 -240q-127 -66 -311 -66q-262 0 -400 152l-127 -130l-86 83l147 149q-56 129 -56 297q0 156 45 321.5t119 284.5q192 308 547 308q257 0 398 -143l140 142l84 -81zM1141 1043l-774 -790
q85 -131 283 -131q272 0 409 283q45 93 73 219.5t28 235.5q0 106 -19 183zM326 380l771 784q-89 121 -272 121q-313 0 -443 -363q-70 -194 -70 -413q0 -51 14 -129zM759 1535l223 285h239l-319 -285h-143z" />
    <glyph glyph-name="oslashacute" unicode="&#x1ff;" horiz-adv-x="1101" 
d="M974 832q49 -101 49 -228q0 -111 -35.5 -228.5t-94.5 -200.5q-144 -204 -409 -204q-185 0 -293 99l-118 -114l-78 74l130 126q-47 101 -47 226q0 111 35 227.5t94 200.5q144 204 410 204q179 0 292 -97l121 117l77 -74zM830 693l-518 -506q64 -74 180 -74q215 0 306 248
q41 112 41 231q0 27 -9 101zM270 296l518 504q-62 72 -178 72q-182 0 -278 -184q-71 -138 -71 -289q0 -43 9 -103zM537 1122l222 285h240l-319 -285h-143z" />
    <glyph glyph-name="uni0200" unicode="&#x200;" horiz-adv-x="1312" 
d="M951 418h-607l-241 -418h-200l828 1407h171l332 -1407h-190zM920 567l-138 621l-355 -621h493zM1064 1536h-133l-177 288h230zM751 1536h-133l-176 288h229z" />
    <glyph glyph-name="uni0201" unicode="&#x201;" horiz-adv-x="1109" 
d="M872 0h-180l7 111q-74 -74 -146 -107t-161 -33q-153 0 -241 88q-82 83 -82 254q0 123 35.5 248.5t97.5 219.5q154 233 445 233q153 0 367 -68l-101 -574q-41 -232 -41 -372zM816 829q-85 38 -175 38q-204 0 -309 -209q-36 -72 -57.5 -165.5t-21.5 -176.5q0 -199 176 -199
q135 0 233 112q35 40 52 79t29 106zM945 1122h-133l-177 288h230zM632 1122h-133l-176 288h229z" />
    <glyph glyph-name="uni0202" unicode="&#x202;" horiz-adv-x="1312" 
d="M951 418h-607l-241 -418h-200l828 1407h171l332 -1407h-190zM920 567l-138 621l-355 -621h493zM1149 1524h-131q3 27 3 45q0 105 -160 105q-93 0 -136.5 -32t-68.5 -118h-130q24 127 67 185q79 109 276 109q288 0 288 -206q0 -31 -8 -88z" />
    <glyph glyph-name="uni0203" unicode="&#x203;" horiz-adv-x="1109" 
d="M872 0h-180l7 111q-74 -74 -146 -107t-161 -33q-153 0 -241 88q-82 83 -82 254q0 123 35.5 248.5t97.5 219.5q154 233 445 233q153 0 367 -68l-101 -574q-41 -232 -41 -372zM816 829q-85 38 -175 38q-204 0 -309 -209q-36 -72 -57.5 -165.5t-21.5 -176.5q0 -199 176 -199
q135 0 233 112q35 40 52 79t29 106zM982 1109h-130q3 30 3 45q0 105 -161 105q-93 0 -136.5 -32t-68.5 -118h-130q24 126 67 185q79 109 277 109q288 0 288 -204q0 -32 -9 -90z" />
    <glyph glyph-name="uni0204" unicode="&#x204;" horiz-adv-x="1128" 
d="M100 0l248 1407h841l-39 -153h-644l-76 -429h536l-37 -146h-525l-93 -526h680l-39 -153h-852zM1054 1536h-132l-177 288h230zM741 1536h-132l-177 288h230z" />
    <glyph glyph-name="uni0205" unicode="&#x205;" horiz-adv-x="974" 
d="M260 405q-1 -19 -1 -26q0 -140 61 -204t193 -64q76 0 135 19.5t140 72.5l51 -135q-171 -97 -359 -97q-194 0 -287 84q-113 101 -113 310q0 117 35.5 234.5t96.5 204.5q147 210 416 210q145 0 221.5 -64t76.5 -184q0 -105 -60 -172.5t-194 -111.5q-118 -39 -412 -77z
M277 537q214 24 337 69q78 29 112.5 66t34.5 93q0 114 -141 114q-129 0 -218 -88.5t-125 -253.5zM883 1122h-132l-177 288h230zM570 1122h-132l-177 288h230z" />
    <glyph glyph-name="uni0206" unicode="&#x206;" horiz-adv-x="1128" 
d="M100 0l248 1407h841l-39 -153h-644l-76 -429h536l-37 -146h-525l-93 -526h680l-39 -153h-852zM1106 1524h-131q3 30 3 45q0 105 -161 105q-93 0 -136.5 -32t-67.5 -118h-131q25 127 67 185q80 109 277 109q288 0 288 -206q0 -32 -8 -88z" />
    <glyph glyph-name="uni0207" unicode="&#x207;" horiz-adv-x="974" 
d="M260 405q-1 -19 -1 -26q0 -140 61 -204t193 -64q76 0 135 19.5t140 72.5l51 -135q-171 -97 -359 -97q-194 0 -287 84q-113 101 -113 310q0 117 35.5 234.5t96.5 204.5q147 210 416 210q145 0 221.5 -64t76.5 -184q0 -105 -60 -172.5t-194 -111.5q-118 -39 -412 -77z
M277 537q214 24 337 69q78 29 112.5 66t34.5 93q0 114 -141 114q-129 0 -218 -88.5t-125 -253.5zM921 1109h-131q4 28 4 45q0 105 -161 105q-93 0 -136.5 -32t-68.5 -118h-130q24 126 67 185q80 109 276 109q289 0 289 -204q0 -32 -9 -90z" />
    <glyph glyph-name="uni0208" unicode="&#x208;" horiz-adv-x="587" 
d="M115 0l248 1407h184l-248 -1407h-184zM702 1536h-132l-177 288h230zM389 1536h-132l-177 288h230z" />
    <glyph glyph-name="uni0209" unicode="&#x209;" horiz-adv-x="550" 
d="M99 0l174 985h178l-174 -985h-178zM610 1122h-132l-177 288h230zM297 1122h-132l-177 288h230z" />
    <glyph glyph-name="uni020A" unicode="&#x20a;" horiz-adv-x="587" 
d="M115 0l248 1407h184l-248 -1407h-184zM788 1524h-131q3 30 3 45q0 105 -161 105q-93 0 -136.5 -32t-67.5 -118h-131q25 127 67 185q80 109 277 109q288 0 288 -206q0 -32 -8 -88z" />
    <glyph glyph-name="uni020B" unicode="&#x20b;" horiz-adv-x="550" 
d="M99 0l174 985h178l-174 -985h-178zM695 1109h-130q3 28 3 45q0 105 -161 105q-93 0 -136.5 -32t-67.5 -118h-131q24 126 67 185q80 109 277 109q288 0 288 -204q0 -31 -9 -90z" />
    <glyph glyph-name="uni020C" unicode="&#x20c;" horiz-adv-x="1400" 
d="M835 1436q155 0 279 -62q137 -68 195 -216q48 -119 48 -269q0 -174 -53 -357q-82 -284 -258 -430q-156 -131 -401 -131q-256 0 -387 128q-70 68 -105 174q-37 116 -37 243q0 175 54 359q164 561 665 561zM830 1285q-280 0 -418 -288q-47 -97 -76.5 -238t-29.5 -264
q0 -185 92 -284q84 -89 250 -89q276 0 413 287q47 98 76.5 237t29.5 263q0 184 -91 282q-41 43 -107 68.5t-139 25.5zM1108 1536h-132l-177 288h230zM795 1536h-132l-177 288h230z" />
    <glyph glyph-name="uni020D" unicode="&#x20d;" horiz-adv-x="1101" 
d="M623 1014q194 0 299 -109q101 -104 101 -299q0 -113 -35 -230t-95 -201q-143 -204 -409 -204q-197 0 -299 101q-107 105 -107 308q0 113 35.5 230t93.5 200q145 204 416 204zM615 868q-192 0 -287 -195q-66 -135 -66 -296q0 -260 229 -260q187 0 282 195q66 136 66 297
q0 121 -54 188q-56 71 -170 71zM886 1122h-132l-177 288h230zM573 1122h-132l-177 288h230z" />
    <glyph glyph-name="uni020E" unicode="&#x20e;" horiz-adv-x="1400" 
d="M835 1436q155 0 279 -62q137 -68 195 -216q48 -119 48 -269q0 -174 -53 -357q-82 -284 -258 -430q-156 -131 -401 -131q-256 0 -387 128q-70 68 -105 174q-37 116 -37 243q0 175 54 359q164 561 665 561zM830 1285q-280 0 -418 -288q-47 -97 -76.5 -238t-29.5 -264
q0 -185 92 -284q84 -89 250 -89q276 0 413 287q47 98 76.5 237t29.5 263q0 184 -91 282q-41 43 -107 68.5t-139 25.5zM1194 1524h-131q3 30 3 45q0 105 -161 105q-93 0 -136.5 -32t-67.5 -118h-131q25 127 67 185q80 109 277 109q288 0 288 -206q0 -32 -8 -88z" />
    <glyph glyph-name="uni020F" unicode="&#x20f;" horiz-adv-x="1101" 
d="M623 1014q194 0 299 -109q101 -104 101 -299q0 -113 -35 -230t-95 -201q-143 -204 -409 -204q-197 0 -299 101q-107 105 -107 308q0 113 35.5 230t93.5 200q145 204 416 204zM615 868q-192 0 -287 -195q-66 -135 -66 -296q0 -260 229 -260q187 0 282 195q66 136 66 297
q0 121 -54 188q-56 71 -170 71zM971 1109h-130q3 27 3 45q0 105 -161 105q-93 0 -136.5 -32t-68.5 -118h-130q24 126 67 185q79 109 276 109q289 0 289 -204q0 -32 -9 -90z" />
    <glyph glyph-name="uni0210" unicode="&#x210;" horiz-adv-x="1228" 
d="M387 584l-103 -584h-184l248 1407h388q225 0 331 -63q125 -74 125 -259q0 -92 -33.5 -184.5t-88.5 -153.5q-76 -84 -197 -119q36 -29 57.5 -67t50.5 -123l148 -438h-209l-108 344q-53 170 -78.5 205t-99.5 35h-247zM412 722h191q124 0 195.5 20.5t113.5 67.5
q40 46 65 118t25 143q0 106 -66 146.5t-239 40.5h-191zM1022 1536h-132l-177 288h230zM709 1536h-132l-177 288h230z" />
    <glyph glyph-name="uni0211" unicode="&#x211;" horiz-adv-x="747" 
d="M88 0l174 985h143l-13 -173q118 102 217 144t227 43l-39 -155q-114 -5 -209 -52q-118 -59 -211 -157l-111 -635h-178zM749 1122h-132l-177 288h230zM436 1122h-132l-177 288h230z" />
    <glyph glyph-name="uni0212" unicode="&#x212;" horiz-adv-x="1228" 
d="M387 584l-103 -584h-184l248 1407h388q225 0 331 -63q125 -74 125 -259q0 -92 -33.5 -184.5t-88.5 -153.5q-76 -84 -197 -119q36 -29 57.5 -67t50.5 -123l148 -438h-209l-108 344q-53 170 -78.5 205t-99.5 35h-247zM412 722h191q124 0 195.5 20.5t113.5 67.5
q40 46 65 118t25 143q0 106 -66 146.5t-239 40.5h-191zM1060 1524h-131q3 29 3 45q0 105 -161 105q-93 0 -136.5 -32t-67.5 -118h-130q24 127 67 185q79 109 276 109q288 0 288 -206q0 -31 -8 -88z" />
    <glyph glyph-name="uni0213" unicode="&#x213;" horiz-adv-x="747" 
d="M89 0l174 985h143l-13 -173q118 102 217 144t227 43l-39 -155q-114 -5 -209 -52q-118 -59 -211 -157l-111 -635h-178zM815 1109h-131q3 29 3 45q0 105 -161 105q-92 0 -135.5 -32t-68.5 -118h-130q24 126 66 185q80 109 277 109q288 0 288 -204q0 -30 -8 -90z" />
    <glyph glyph-name="uni0214" unicode="&#x214;" horiz-adv-x="1342" 
d="M341 1407h184l-152 -863q-26 -147 -26 -211q0 -117 74 -167q64 -44 190 -44q211 0 295 139q46 75 82 283l152 863h185l-168 -951q-22 -128 -46.5 -195t-67.5 -122q-131 -168 -448 -168q-237 0 -345 96q-89 80 -89 243q0 77 26 222zM1080 1536h-133l-177 288h230z
M767 1536h-133l-177 288h230z" />
    <glyph glyph-name="uni0215" unicode="&#x215;" horiz-adv-x="1144" 
d="M736 126q-172 -155 -354 -155q-122 0 -188.5 56.5t-66.5 159.5q0 71 25 216l103 582h178l-106 -600q-16 -89 -16 -143q0 -116 126 -116q74 0 159.5 41.5t158.5 113.5l124 704h178l-174 -985h-148zM921 1122h-132l-177 288h230zM608 1122h-132l-177 288h230z" />
    <glyph glyph-name="uni0216" unicode="&#x216;" horiz-adv-x="1342" 
d="M341 1407h184l-152 -863q-26 -147 -26 -211q0 -117 74 -167q64 -44 190 -44q211 0 295 139q46 75 82 283l152 863h185l-168 -951q-22 -128 -46.5 -195t-67.5 -122q-131 -168 -448 -168q-237 0 -345 96q-89 80 -89 243q0 77 26 222zM1165 1524h-131q3 31 3 45
q0 105 -161 105q-92 0 -136 -32t-68 -118h-131q25 127 67 185q80 109 277 109q288 0 288 -206q0 -32 -8 -88z" />
    <glyph glyph-name="uni0217" unicode="&#x217;" horiz-adv-x="1144" 
d="M736 126q-172 -155 -354 -155q-122 0 -188.5 56.5t-66.5 159.5q0 71 25 216l103 582h178l-106 -600q-16 -89 -16 -143q0 -116 126 -116q74 0 159.5 41.5t158.5 113.5l124 704h178l-174 -985h-148zM993 1109h-131q3 27 3 45q0 105 -161 105q-92 0 -135.5 -32t-68.5 -118
h-130q24 126 66 185q80 109 277 109q288 0 288 -204q0 -32 -8 -90z" />
    <glyph glyph-name="Scommaaccent" unicode="&#x218;" horiz-adv-x="1030" 
d="M-8 59l84 153q148 -90 324 -90q194 0 282 91q76 78 76 185q0 86 -46 136q-38 40 -181 114q-117 60 -171.5 96.5t-95.5 83.5q-73 83 -73 203q0 87 34 165.5t94 131.5q124 108 339 108q202 0 372 -89l-87 -142q-139 80 -282 80q-142 0 -218 -72q-68 -65 -68 -162
q0 -77 49.5 -125t215.5 -133q171 -87 231 -150q77 -82 77 -222q0 -107 -44 -199t-123 -152q-130 -99 -374 -99q-259 0 -415 88zM181 -523l140 399h192l-193 -399h-139z" />
    <glyph glyph-name="scommaaccent" unicode="&#x219;" horiz-adv-x="807" 
d="M-36 62l78 139q78 -51 136.5 -70.5t127.5 -19.5q99 0 156 49.5t57 134.5q0 51 -24.5 75.5t-138.5 84.5q-131 69 -179 125q-51 60 -51 146q0 132 94.5 210t254.5 78q161 0 293 -69l-77 -135q-96 64 -213 64q-82 0 -126.5 -36t-44.5 -103q0 -52 51 -88q26 -19 136 -80
q115 -64 161 -120.5t46 -134.5q0 -64 -25 -128t-68 -109q-100 -104 -313 -104q-200 0 -331 91zM86 -523l140 399h191l-193 -399h-138z" />
    <glyph glyph-name="uni021A" unicode="&#x21a;" horiz-adv-x="1062" 
d="M352 0l221 1254h-414l38 153h1003l-39 -153h-403l-221 -1254h-185zM189 -523l140 399h191l-193 -399h-138z" />
    <glyph glyph-name="uni021B" unicode="&#x21b;" horiz-adv-x="713" 
d="M275 839h-168l36 146h163l57 247l169 55l-53 -302h231l-38 -146h-219l-88 -497q-20 -114 -20 -154q0 -71 93 -71q62 0 126 35l39 -138q-113 -43 -227 -43q-214 0 -214 174q0 52 20 166zM46 -523l140 399h191l-193 -399h-138z" />
    <glyph glyph-name="uni0226" unicode="&#x226;" horiz-adv-x="1312" 
d="M951 418h-607l-241 -418h-200l828 1407h171l332 -1407h-190zM920 567l-138 621l-355 -621h493zM834 1796q46 0 79.5 -34t33.5 -82q0 -49 -34 -83t-81 -34q-48 0 -82 34.5t-34 83.5q0 48 34 81.5t84 33.5z" />
    <glyph glyph-name="uni0227" unicode="&#x227;" horiz-adv-x="1109" 
d="M872 0h-180l7 111q-74 -74 -146 -107t-161 -33q-153 0 -241 88q-82 83 -82 254q0 123 35.5 248.5t97.5 219.5q154 233 445 233q153 0 367 -68l-101 -574q-41 -232 -41 -372zM816 829q-85 38 -175 38q-204 0 -309 -209q-36 -72 -57.5 -165.5t-21.5 -176.5q0 -199 176 -199
q135 0 233 112q35 40 52 79t29 106zM728 1382q47 0 80.5 -34.5t33.5 -81.5q0 -49 -34 -83t-82 -34t-82 34.5t-34 83.5q0 48 34.5 81.5t83.5 33.5z" />
    <glyph glyph-name="uni0237" unicode="&#x237;" horiz-adv-x="555" 
d="M279 985h177l-165 -940q-42 -234 -127 -351q-58 -80 -184 -174l-72 71q97 117 132 196q46 103 89 350z" />
    <glyph glyph-name="uni0259" unicode="&#x259;" horiz-adv-x="1057" 
d="M792 526q8 47 8 83q0 89 -36 155q-60 110 -248 110q-84 0 -143 -18.5t-162 -76.5l-34 126q103 62 182 85.5t184 23.5q268 0 373 -165q72 -112 72 -271q0 -214 -119 -396q-75 -114 -177 -164q-96 -47 -226 -47q-229 0 -328 142q-64 90 -64 230q0 96 25 183h693zM769 399
h-528q-3 -35 -3 -57q0 -81 30 -138q51 -96 186 -96q238 0 315 291z" />
    <glyph glyph-name="afii57929" unicode="&#x2bc;" horiz-adv-x="406" 
d="M170 969l145 490h199l-201 -490h-143z" />
    <glyph glyph-name="circumflex" unicode="&#x2c6;" horiz-adv-x="1024" 
d="M658 1287l-206 -165h-178l296 285h206l196 -285h-167z" />
    <glyph glyph-name="caron" unicode="&#x2c7;" horiz-adv-x="1024" 
d="M639 1242l205 165h178l-296 -285h-206l-196 285h167z" />
    <glyph glyph-name="uni02C9" unicode="&#x2c9;" horiz-adv-x="1024" 
d="M349 1192l25 140h574l-25 -140h-574z" />
    <glyph glyph-name="breve" unicode="&#x2d8;" horiz-adv-x="1024" 
d="M360 1400h131q-4 -32 -4 -46q0 -104 161 -104q93 0 136 31.5t69 118.5h131q-26 -127 -67 -183q-80 -107 -275 -107q-290 0 -290 205q0 33 8 85z" />
    <glyph glyph-name="dotaccent" unicode="&#x2d9;" horiz-adv-x="1024" 
d="M651 1382q47 0 80.5 -34t33.5 -82q0 -49 -34 -83t-82 -34t-82 34.5t-34 82.5q0 49 34.5 82.5t83.5 33.5z" />
    <glyph glyph-name="ring" unicode="&#x2da;" horiz-adv-x="1024" 
d="M656 1485q94 0 150 -51q57 -52 57 -138q0 -88 -57.5 -140.5t-152.5 -52.5t-151 52q-58 54 -58 140q0 88 57 139t155 51zM655 1405q-103 0 -103 -111t102 -111q101 0 101 111t-100 111z" />
    <glyph glyph-name="ogonek" unicode="&#x2db;" horiz-adv-x="1024" 
d="M468 0h136q-76 -46 -164 -128q-81 -77 -81 -173q0 -48 35.5 -70t112.5 -22q50 0 123 15l5 -97q-87 -30 -178 -30q-258 0 -258 187q0 93 65.5 170.5t203.5 147.5z" />
    <glyph glyph-name="tilde" unicode="&#x2dc;" horiz-adv-x="1024" 
d="M902 1389h116q-31 -93 -64 -147q-74 -120 -190 -120q-85 0 -158 79q-35 38 -54 50.5t-41 12.5q-29 0 -61 -35t-55 -94h-116q35 100 75 160q73 107 183 107q83 0 154 -74q42 -44 59.5 -56t37.5 -12q64 0 114 129z" />
    <glyph glyph-name="hungarumlaut" unicode="&#x2dd;" horiz-adv-x="1024" 
d="M399 1122l181 285h229l-278 -285h-132zM712 1122l181 285h229l-278 -285h-132z" />
    <glyph glyph-name="uni0312" unicode="&#x312;" horiz-adv-x="1024" 
d="M919 1408l-221 -286h-239l317 286h143z" />
    <glyph glyph-name="uni0313" unicode="&#x313;" horiz-adv-x="186" 
d="M80 993l145 490h198l-202 -490h-141z" />
    <glyph glyph-name="uni031B" unicode="&#x31b;" horiz-adv-x="186" 
d="M80 993l145 490h198l-202 -490h-141z" />
    <glyph glyph-name="uni0323" unicode="&#x323;" horiz-adv-x="1024" 
d="M375 -185q46 0 79.5 -35t33.5 -83q0 -50 -34 -85t-82 -35q-49 0 -82.5 35t-33.5 84q0 50 34.5 84.5t84.5 34.5z" />
    <glyph glyph-name="commaaccent" unicode="&#x326;" horiz-adv-x="1024" 
d="M206 -523l140 399h191l-193 -399h-138z" />
    <glyph glyph-name="pi" unicode="&#x3c0;" horiz-adv-x="1180" 
d="M119 0l148 839h-149l37 146h1046l-39 -146h-136l-148 -839h-178l148 839h-403l-148 -839h-178z" />
    <glyph glyph-name="uni04D8" unicode="&#x4d8;" horiz-adv-x="1402" 
d="M232 1097q57 95 111 152q179 187 490 187q275 0 404 -142q73 -81 106 -212q23 -91 23 -191q0 -162 -45 -322t-127 -290q-193 -308 -563 -308q-511 0 -511 532q0 119 28 255h1005q11 75 11 136q0 202 -91 298q-83 87 -259 87q-204 0 -339 -132q-43 -42 -99 -128zM1126 612
h-808q-9 -67 -9 -118q0 -118 39 -208q73 -167 285 -167q250 0 391 222q67 106 102 271z" />
    <glyph glyph-name="afii10846" unicode="&#x4d9;" horiz-adv-x="1057" 
d="M792 526q8 47 8 83q0 89 -36 155q-60 110 -248 110q-84 0 -143 -18.5t-162 -76.5l-34 126q103 62 182 85.5t184 23.5q268 0 373 -165q72 -112 72 -271q0 -214 -119 -396q-75 -114 -177 -164q-96 -47 -226 -47q-229 0 -328 142q-64 90 -64 230q0 96 25 183h693zM769 399
h-528q-3 -35 -3 -57q0 -81 30 -138q51 -96 186 -96q238 0 315 291z" />
    <glyph glyph-name="uni1E02" unicode="&#x1e02;" horiz-adv-x="1246" 
d="M100 0l248 1407h436q253 0 350 -72q95 -72 95 -216q0 -151 -92 -258q-68 -79 -198 -114q101 -25 148 -77q67 -71 67 -202q0 -115 -45.5 -215.5t-122.5 -158.5q-70 -51 -165 -72.5t-255 -21.5h-466zM427 812h210q142 0 207.5 16t112.5 64q86 85 86 212q0 88 -62 121
t-225 33h-250zM311 149h237q225 0 310 66q49 38 77.5 106.5t28.5 148.5q0 131 -98 172q-70 30 -257 30h-206zM814 1796q47 0 80.5 -34t33.5 -82q0 -49 -34 -83t-82 -34t-82 34.5t-34 83.5q0 48 34 81.5t84 33.5z" />
    <glyph glyph-name="uni1E03" unicode="&#x1e03;" horiz-adv-x="1118" 
d="M101 69l243 1379l184 37l-105 -598q133 127 300 127q161 0 243 -98q79 -95 79 -272q0 -120 -34 -242t-92 -213q-141 -218 -414 -218q-196 0 -404 98zM297 177q80 -60 198 -60q193 0 292 194q74 145 74 319q0 238 -174 238q-138 0 -238 -112q-62 -70 -82 -185zM814 1382
q47 0 80.5 -34t33.5 -82q0 -49 -34 -83t-82 -34t-82 34.5t-34 82.5q0 49 34.5 82.5t83.5 33.5z" />
    <glyph glyph-name="uni1E0C" unicode="&#x1e0c;" horiz-adv-x="1327" 
d="M100 0l248 1407h348q283 0 419 -97q169 -120 169 -421q0 -270 -106 -498q-110 -237 -312 -326q-147 -65 -372 -65h-394zM311 153h154q206 0 317 56q163 82 248 310q64 174 64 355q0 275 -180 346q-87 34 -276 34h-132zM458 -185q46 0 79.5 -35t33.5 -83q0 -50 -34 -85
t-82 -35q-49 0 -82.5 35t-33.5 84q0 50 34.5 84.5t84.5 34.5z" />
    <glyph glyph-name="uni1E0D" unicode="&#x1e0d;" horiz-adv-x="1118" 
d="M849 964l85 484l184 37l-262 -1485h-139l-2 120q-141 -149 -321 -149q-147 0 -232 82q-92 89 -92 271q0 120 34 241t93 211q155 238 428 238q62 0 103 -9t121 -41zM821 808q-74 60 -184 60q-201 0 -307 -210q-76 -150 -76 -322q0 -116 53 -170q48 -49 129 -49
q133 0 233 112q62 70 83 185zM422 -185q46 0 79.5 -35t33.5 -83q0 -50 -34 -85t-82 -35q-49 0 -82.5 35t-33.5 84q0 50 34.5 84.5t84.5 34.5z" />
    <glyph glyph-name="uni1E1E" unicode="&#x1e1e;" horiz-adv-x="1041" 
d="M100 0l248 1407h805l-39 -153h-608l-79 -444h507l-38 -149h-495l-117 -661h-184zM801 1796q47 0 80.5 -34t33.5 -82q0 -49 -34 -83t-82 -34t-82 34.5t-34 83.5q0 48 34.5 81.5t83.5 33.5z" />
    <glyph glyph-name="uni1E1F" unicode="&#x1e1f;" horiz-adv-x="668" 
d="M277 835h-190l37 150h179l26 148q30 168 94 245q85 102 249 102q100 0 190 -39l-64 -136q-62 25 -116 25q-81 0 -121.5 -49.5t-63.5 -174.5l-21 -121h261l-38 -150h-249l-168 -945q-31 -176 -92 -256q-82 -108 -237 -108q-92 0 -177 34l64 136q56 -19 104 -19
q72 0 108.5 49t59.5 174zM545 1796q47 0 80.5 -34t33.5 -82q0 -49 -34 -83t-82 -34t-82 34.5t-34 83.5q0 48 34 81.5t84 33.5z" />
    <glyph glyph-name="uni1E24" unicode="&#x1e24;" horiz-adv-x="1411" 
d="M100 0l248 1407h184l-104 -594h669l105 594h184l-248 -1407h-184l116 657h-670l-116 -657h-184zM569 -185q46 0 79.5 -35t33.5 -83q0 -50 -34 -85t-82 -35q-49 0 -82.5 35t-33.5 84q0 50 34.5 84.5t84.5 34.5z" />
    <glyph glyph-name="uni1E25" unicode="&#x1e25;" horiz-adv-x="1171" 
d="M88 0l255 1448l184 37l-112 -636q109 92 191 128.5t177 36.5q129 0 202 -61q62 -52 62 -144q0 -68 -23 -201l-108 -608h-177l111 631q11 63 11 111q0 117 -132 117q-98 0 -216 -80q-77 -53 -130 -114l-117 -665h-178zM448 -185q46 0 79.5 -34.5t33.5 -83.5q0 -50 -34 -85
t-82 -35q-49 0 -82.5 35t-33.5 84q0 50 34.5 84.5t84.5 34.5z" />
    <glyph glyph-name="uni1E44" unicode="&#x1e44;" horiz-adv-x="1442" 
d="M100 0l248 1407h175l525 -1107l195 1107h175l-249 -1407h-165l-533 1115l-196 -1115h-175zM960 1796q47 0 80.5 -34t33.5 -82q0 -49 -34 -83t-82 -34t-82 34.5t-34 83.5q0 48 34 81.5t84 33.5z" />
    <glyph glyph-name="uni1E45" unicode="&#x1e45;" horiz-adv-x="1171" 
d="M88 0l174 985h143l-8 -143q195 172 389 172q122 0 191 -56t69 -155q0 -66 -25 -208l-105 -595h-177l109 623q15 82 15 119q0 115 -133 115q-79 0 -175 -53t-172 -139l-117 -665h-178zM724 1382q47 0 80.5 -34t33.5 -82q0 -49 -34 -83t-82 -34t-82 34.5t-34 82.5
q0 49 34.5 82.5t83.5 33.5z" />
    <glyph glyph-name="uni1E5A" unicode="&#x1e5a;" horiz-adv-x="1228" 
d="M387 584l-103 -584h-184l248 1407h388q225 0 331 -63q125 -74 125 -259q0 -92 -33.5 -184.5t-88.5 -153.5q-76 -84 -197 -119q36 -29 57.5 -67t50.5 -123l148 -438h-209l-108 344q-53 170 -78.5 205t-99.5 35h-247zM412 722h191q124 0 195.5 20.5t113.5 67.5
q40 46 65 118t25 143q0 106 -66 146.5t-239 40.5h-191zM504 -185q46 0 79.5 -35t33.5 -83q0 -50 -34 -85t-82 -35q-49 0 -82.5 35t-33.5 84q0 50 34.5 84.5t84.5 34.5z" />
    <glyph glyph-name="uni1E5B" unicode="&#x1e5b;" horiz-adv-x="747" 
d="M88 0l174 985h144l-14 -173q119 102 218 144t227 43l-39 -155q-114 -5 -209 -52q-119 -59 -211 -157l-112 -635h-178zM141 -185q46 0 79.5 -35t33.5 -83q0 -50 -34 -85t-82 -35q-49 0 -82.5 35t-33.5 84q0 50 34.5 84.5t84.5 34.5z" />
    <glyph glyph-name="uni1E62" unicode="&#x1e62;" horiz-adv-x="1030" 
d="M-8 59l84 153q148 -90 324 -90q194 0 282 91q76 78 76 185q0 86 -46 136q-38 40 -181 114q-117 60 -171.5 96.5t-95.5 83.5q-73 83 -73 203q0 87 34 165.5t94 131.5q124 108 339 108q202 0 372 -89l-87 -142q-139 80 -282 80q-142 0 -218 -72q-68 -65 -68 -162
q0 -77 49.5 -125t215.5 -133q171 -87 231 -150q77 -82 77 -222q0 -107 -44 -199t-123 -152q-130 -99 -374 -99q-259 0 -415 88zM364 -185q46 0 79.5 -35t33.5 -83q0 -50 -34 -85t-82 -35q-49 0 -82.5 35t-33.5 84q0 50 34.5 84.5t84.5 34.5z" />
    <glyph glyph-name="uni1E63" unicode="&#x1e63;" horiz-adv-x="807" 
d="M-36 62l78 139q78 -51 136.5 -70.5t127.5 -19.5q99 0 156 49.5t57 134.5q0 51 -24.5 75.5t-138.5 84.5q-131 69 -179 125q-51 60 -51 146q0 132 94.5 210t254.5 78q161 0 293 -69l-77 -135q-96 64 -213 64q-82 0 -126.5 -36t-44.5 -103q0 -52 51 -88q26 -19 136 -80
q115 -64 161 -120.5t46 -134.5q0 -64 -25 -128t-68 -109q-100 -104 -313 -104q-200 0 -331 91zM246 -185q46 0 79.5 -35t33.5 -83q0 -50 -34 -85t-82 -35q-49 0 -82.5 35t-33.5 84q0 50 34.5 84.5t84.5 34.5z" />
    <glyph glyph-name="uni1E6C" unicode="&#x1e6c;" horiz-adv-x="1062" 
d="M352 0l221 1254h-414l38 153h1003l-39 -153h-403l-221 -1254h-185zM394 -185q46 0 79.5 -35t33.5 -83q0 -50 -34 -85t-82 -35q-49 0 -82.5 35t-33.5 84q0 50 34.5 84.5t84.5 34.5z" />
    <glyph glyph-name="uni1E6D" unicode="&#x1e6d;" horiz-adv-x="713" 
d="M275 839h-169l37 146h163l56 247l169 55l-53 -302h232l-38 -146h-220l-87 -497q-20 -111 -20 -154q0 -71 93 -71q61 0 125 35l40 -138q-115 -43 -227 -43q-214 0 -214 174q0 56 19 166zM219 -185q46 0 79.5 -35t33.5 -83q0 -50 -34 -85t-82 -35q-49 0 -82.5 35t-33.5 84
q0 50 34.5 84.5t84.5 34.5z" />
    <glyph glyph-name="Wgrave" unicode="&#x1e80;" horiz-adv-x="1747" 
d="M292 0l-105 1407h184l68 -1136l519 1136h158l121 -1148l458 1148h188l-599 -1407h-177l-114 1132l-517 -1132h-184zM1205 1535h-138l-218 285h234z" />
    <glyph glyph-name="wgrave" unicode="&#x1e81;" horiz-adv-x="1530" 
d="M274 0l-149 985h181l89 -767l363 767h147l138 -783q264 342 264 531q0 44 -17.5 75.5t-69.5 81.5l108 118q81 -61 118.5 -119.5t37.5 -125.5q0 -153 -142 -378q-113 -179 -284 -385h-143l-122 750l-354 -750h-165zM1024 1122h-138l-218 285h234z" />
    <glyph glyph-name="Wacute" unicode="&#x1e82;" horiz-adv-x="1747" 
d="M292 0l-105 1407h184l68 -1136l519 1136h158l121 -1148l458 1148h188l-599 -1407h-177l-114 1132l-517 -1132h-184zM933 1535l222 285h240l-319 -285h-143z" />
    <glyph glyph-name="wacute" unicode="&#x1e83;" horiz-adv-x="1530" 
d="M274 0l-149 985h181l89 -767l363 767h147l138 -783q264 342 264 531q0 44 -17.5 75.5t-69.5 81.5l108 118q81 -61 118.5 -119.5t37.5 -125.5q0 -153 -142 -378q-113 -179 -284 -385h-143l-122 750l-354 -750h-165zM751 1122l223 285h239l-318 -285h-144z" />
    <glyph glyph-name="Wdieresis" unicode="&#x1e84;" horiz-adv-x="1747" 
d="M292 0l-105 1407h184l68 -1136l519 1136h158l121 -1148l458 1148h188l-599 -1407h-177l-114 1132l-517 -1132h-184zM864 1792q45 0 77.5 -33t32.5 -79q0 -47 -32.5 -80t-79.5 -33t-79.5 33t-32.5 81q0 46 33 78.5t81 32.5zM1260 1792q45 0 77.5 -33t32.5 -79
q0 -47 -32.5 -80t-79.5 -33t-79.5 33t-32.5 81q0 46 33 78.5t81 32.5z" />
    <glyph glyph-name="wdieresis" unicode="&#x1e85;" horiz-adv-x="1530" 
d="M274 0l-149 985h181l89 -767l363 767h147l138 -783q264 342 264 531q0 44 -17.5 75.5t-69.5 81.5l108 118q81 -61 118.5 -119.5t37.5 -125.5q0 -153 -142 -378q-113 -179 -284 -385h-143l-122 750l-354 -750h-165zM678 1378q45 0 77.5 -33t32.5 -79q0 -47 -33 -80
t-79 -33q-47 0 -79.5 33t-32.5 80t33 79.5t81 32.5zM1029 1378q45 0 77.5 -33t32.5 -79q0 -47 -33 -80t-79 -33q-47 0 -79.5 33t-32.5 80t33 79.5t81 32.5z" />
    <glyph glyph-name="uni1E92" unicode="&#x1e92;" horiz-adv-x="1066" 
d="M-55 0l20 126l933 1128h-652l39 153h858l-9 -126l-933 -1128h771l-39 -153h-988zM416 -185q46 0 79.5 -34.5t33.5 -83.5q0 -50 -34 -85t-82 -35q-49 0 -82.5 35t-33.5 84q0 50 34.5 84.5t84.5 34.5z" />
    <glyph glyph-name="uni1E93" unicode="&#x1e93;" horiz-adv-x="874" 
d="M-3 0l-21 132l644 707h-71q-257 0 -392 41l49 144q159 -39 441 -39h184l25 -119l-652 -719q79 6 143 6q251 0 445 -74l-62 -142q-107 39 -210.5 54.5t-261.5 15.5q-97 0 -261 -7zM300 -185q46 0 79.5 -35t33.5 -83q0 -50 -34 -85t-82 -35q-49 0 -82.5 35t-33.5 84
q0 50 34.5 84.5t84.5 34.5z" />
    <glyph glyph-name="Ygrave" unicode="&#x1ef2;" horiz-adv-x="1109" 
d="M374 0l97 549l-310 858h195l235 -686l474 686h206l-616 -858l-96 -549h-185zM886 1535h-138l-218 285h234z" />
    <glyph glyph-name="ygrave" unicode="&#x1ef3;" horiz-adv-x="972" 
d="M306 1l-211 984h181l158 -815q17 23 26 34q115 148 149.5 199t69.5 123q62 128 62 209q0 42 -17.5 74.5t-65.5 80.5l111 118q81 -60 118.5 -119.5t37.5 -126.5q0 -135 -111 -321q-57 -96 -300 -413q-192 -250 -311 -511l-166 62q132 239 269 422zM649 1122h-138l-218 285
h234z" />
    <glyph glyph-name="uni2011" unicode="&#x2011;" horiz-adv-x="735" 
d="M83 563l55 159h567l-55 -159h-567z" />
    <glyph glyph-name="figuredash" unicode="&#x2012;" 
d="M116 563l54 159h914l-55 -159h-913z" />
    <glyph glyph-name="endash" unicode="&#x2013;" 
d="M116 563l54 159h914l-55 -159h-913z" />
    <glyph glyph-name="emdash" unicode="&#x2014;" 
d="M-101 563l28 159h1359l-28 -159h-1359z" />
    <glyph glyph-name="afii00208" unicode="&#x2015;" 
d="M-101 563l28 159h1359l-28 -159h-1359z" />
    <glyph glyph-name="quoteleft" unicode="&#x2018;" horiz-adv-x="406" 
d="M491 1459l-145 -490h-199l202 490h142z" />
    <glyph glyph-name="quoteright" unicode="&#x2019;" horiz-adv-x="406" 
d="M170 969l145 490h199l-201 -490h-143z" />
    <glyph glyph-name="quotesinglbase" unicode="&#x201a;" horiz-adv-x="406" 
d="M-50 -281l145 490h199l-201 -490h-143z" />
    <glyph glyph-name="quotereversed" unicode="&#x201b;" horiz-adv-x="406" 
d="M514 969h-142l-202 490h199z" />
    <glyph glyph-name="quotedblleft" unicode="&#x201c;" horiz-adv-x="700" 
d="M785 1459l-145 -490h-199l202 490h142zM491 1459l-145 -490h-199l202 490h142z" />
    <glyph glyph-name="quotedblright" unicode="&#x201d;" horiz-adv-x="700" 
d="M170 969l145 490h199l-201 -490h-143zM464 969l145 490h199l-202 -490h-142z" />
    <glyph glyph-name="quotedblbase" unicode="&#x201e;" horiz-adv-x="700" 
d="M-50 -281l145 490h199l-201 -490h-143zM244 -281l145 490h199l-202 -490h-142z" />
    <glyph glyph-name="dagger" unicode="&#x2020;" 
d="M537 791h-351l38 158h341l80 458h185l-81 -458h352l-39 -158h-341l-210 -1191h-184z" />
    <glyph glyph-name="daggerdbl" unicode="&#x2021;" 
d="M537 791h-351l39 158h340l81 458h184l-81 -458h352l-39 -158h-341l-87 -494h352l-39 -158h-341l-95 -539h-184l95 539h-351l38 158h341z" />
    <glyph glyph-name="bullet" unicode="&#x2022;" 
d="M619 1009q121 0 203 -91q71 -78 71 -188q0 -128 -91 -210q-78 -70 -188 -70q-127 0 -208 90q-71 79 -71 192q0 124 91 206q79 71 193 71z" />
    <glyph glyph-name="ellipsis" unicode="&#x2026;" horiz-adv-x="1720" 
d="M219 220q50 0 86 -36.5t36 -87.5q0 -52 -36 -88.5t-88 -36.5q-53 0 -89 36.5t-36 89.5q0 51 37 87t90 36zM792 220q50 0 86 -36.5t36 -87.5q0 -52 -36 -88.5t-88 -36.5q-53 0 -89 36.5t-36 89.5q0 51 37 87t90 36zM1366 220q50 0 86 -36.5t36 -87.5q0 -52 -36 -88.5
t-88 -36.5q-53 0 -89 36.5t-36 89.5q0 51 37 87t90 36z" />
    <glyph glyph-name="perthousand" unicode="&#x2030;" horiz-adv-x="2447" 
d="M567 1436q126 0 198 -71q72 -72 72 -204q0 -90 -24.5 -180.5t-64.5 -149.5q-101 -147 -289 -147q-137 0 -208 71q-71 72 -71 205q0 90 24.5 179.5t64.5 149.5q100 147 298 147zM556 1316q-115 0 -170 -127q-46 -107 -46 -239q0 -146 124 -146q112 0 167 127
q46 108 46 239q0 146 -121 146zM1338 723q125 0 197 -71q72 -72 72 -203q0 -92 -24.5 -182t-64.5 -149q-101 -147 -289 -147q-137 0 -207 71q-72 72 -72 205q0 90 24.5 180t64.5 149q101 147 299 147zM1326 603q-115 0 -170 -127q-46 -107 -46 -239q0 -146 125 -146
q111 0 166 127q46 107 46 240q0 69 -32 107t-89 38zM2072 723q126 0 197 -71q72 -72 72 -204q0 -90 -24.5 -180.5t-64.5 -149.5q-101 -147 -289 -147q-137 0 -207 71q-71 72 -71 205q0 90 24.5 179.5t64.5 149.5q100 147 298 147zM2059 603q-115 0 -170 -127
q-46 -106 -46 -239q0 -146 125 -146q112 0 167 127q46 107 46 239q0 69 -32 107.5t-90 38.5zM419 0l790 1407h159l-791 -1407h-158z" />
    <glyph glyph-name="guilsinglleft" unicode="&#x2039;" horiz-adv-x="544" 
d="M300 530l127 -272l-97 -62l-249 328l6 36l365 328l71 -86z" />
    <glyph glyph-name="guilsinglright" unicode="&#x203a;" horiz-adv-x="544" 
d="M261 554l-127 272l97 62l249 -328l-6 -36l-365 -328l-71 86z" />
    <glyph glyph-name="uni203E" unicode="&#x203e;" horiz-adv-x="1024" 
d="M138 1690l21 119h1172l-21 -119h-1172z" />
    <glyph glyph-name="glyph452" unicode="&#x2044;" horiz-adv-x="246" 
d="M-396 0l969 1407h143l-969 -1407h-143z" />
    <glyph glyph-name="zerosuperior" unicode="&#x2070;" horiz-adv-x="737" 
d="M555 1629q135 0 201.5 -68.5t66.5 -207.5q0 -71 -20.5 -182.5t-46.5 -184.5q-47 -130 -131 -187q-79 -53 -194 -53q-138 0 -205 65q-68 65 -68 206q0 78 21 190.5t49 189.5q47 126 131 181q78 51 196 51zM549 1523q-71 0 -117 -46t-76 -146q-21 -68 -36.5 -164.5
t-15.5 -154.5q0 -160 130 -160q134 0 192 192q19 66 35 163.5t16 153.5q0 162 -128 162z" />
    <glyph glyph-name="foursuperior" unicode="&#x2074;" horiz-adv-x="737" 
d="M495 979h-387l17 95l480 538h145l-93 -529h127l-28 -104h-118l-38 -217h-143zM519 1079l67 377l-328 -377h261z" />
    <glyph glyph-name="fivesuperior" unicode="&#x2075;" horiz-adv-x="737" 
d="M244 1155l93 457h475l-30 -107h-332l-52 -240q72 33 144 33q232 0 232 -202q0 -75 -27 -143.5t-73 -113.5q-97 -93 -283 -93q-152 0 -261 59l62 105q95 -59 197 -59q142 0 197 91q40 66 40 138q0 115 -124 115q-70 0 -173 -60z" />
    <glyph glyph-name="sixsuperior" unicode="&#x2076;" horiz-adv-x="737" 
d="M359 1256q81 60 182 60q112 0 174 -55q66 -58 66 -163q0 -133 -75 -234q-87 -118 -272 -118q-264 0 -264 240q0 98 30.5 222.5t74.5 206.5q114 214 354 214q101 0 194 -35l-56 -102q-70 31 -130 31q-102 0 -166 -61.5t-112 -205.5zM513 1210q-87 0 -144 -63.5t-57 -160.5
q0 -134 130 -134q100 0 154 94q37 65 37 138q0 126 -120 126z" />
    <glyph glyph-name="sevensuperior" unicode="&#x2077;" horiz-adv-x="737" 
d="M689 1505h-435l28 107h581l-12 -71l-480 -779h-168z" />
    <glyph glyph-name="eightsuperior" unicode="&#x2078;" horiz-adv-x="737" 
d="M315 1210q-80 51 -80 149q0 125 86 197.5t234 72.5q131 0 199 -53q65 -50 65 -143q0 -160 -147 -229q108 -55 108 -170q0 -140 -91.5 -214t-263.5 -74q-294 0 -294 203q0 97 44.5 159.5t139.5 101.5zM552 1523q-77 0 -124 -44.5t-47 -117.5q0 -103 122 -103
q76 0 123 45.5t47 119.5q0 100 -121 100zM489 1152q-117 0 -169 -63q-41 -51 -41 -125q0 -112 153 -112q112 0 164 61q41 49 41 123q0 116 -148 116z" />
    <glyph glyph-name="ninesuperior" unicode="&#x2079;" horiz-adv-x="737" 
d="M624 1121q-82 -58 -185 -58q-109 0 -169 50q-68 57 -68 165q0 60 22 126t57 112q86 113 266 113q265 0 265 -239q0 -98 -29 -220t-72 -204q-114 -220 -355 -220q-95 0 -197 34l57 102q73 -30 128 -30q104 0 169 62t111 207zM543 1523q-95 0 -148 -83q-45 -69 -45 -149
q0 -122 122 -122q86 0 142 62t56 156q0 136 -127 136z" />
    <glyph glyph-name="zeroinferior" unicode="&#x2080;" horiz-adv-x="737" 
d="M384 662q136 0 202.5 -68.5t66.5 -207.5q0 -70 -20.5 -182.5t-46.5 -184.5q-86 -240 -325 -240q-138 0 -205 65q-68 65 -68 205q0 78 21 191t50 190q46 125 130 181q78 51 195 51zM379 556q-71 0 -117 -46t-76 -146q-21 -69 -36.5 -165t-15.5 -154q0 -160 130 -160
q134 0 191 192q20 67 36 164t16 154q0 161 -128 161z" />
    <glyph glyph-name="oneinferior" unicode="&#x2081;" horiz-adv-x="737" 
d="M207 -205l128 724l-158 -45l-16 95l229 76h112l-150 -850h-145z" />
    <glyph glyph-name="twoinferior" unicode="&#x2082;" horiz-adv-x="737" 
d="M-54 -205l17 96l331 293q104 91 148 153t44 117q0 104 -130 104q-97 0 -241 -85l-40 102q89 51 153 70t144 19q262 0 262 -197q0 -90 -50.5 -167t-182.5 -188l-250 -210h405l-19 -107h-591z" />
    <glyph glyph-name="threeinferior" unicode="&#x2083;" horiz-adv-x="737" 
d="M196 193l18 102h43q92 0 149 47q62 51 62 123q0 92 -125 92q-51 0 -93.5 -12.5t-132.5 -54.5l-35 100q145 73 281 73q122 0 186.5 -46t64.5 -132q0 -159 -161 -225q130 -47 130 -172q0 -141 -100 -225q-99 -84 -281 -84q-164 0 -268 66l65 103q99 -63 199 -63
q144 0 203 84q34 48 34 105q0 62 -43 90.5t-137 28.5h-59z" />
    <glyph glyph-name="fourinferior" unicode="&#x2084;" horiz-adv-x="737" 
d="M324 12h-387l17 95l480 538h145l-93 -528h127l-28 -105h-118l-38 -217h-143zM348 112l67 378l-328 -378h261z" />
    <glyph glyph-name="fiveinferior" unicode="&#x2085;" horiz-adv-x="737" 
d="M73 188l93 457h475l-30 -107h-332l-52 -240q70 33 144 33q232 0 232 -203q0 -160 -100 -256q-98 -93 -283 -93q-153 0 -261 59l62 105q94 -59 197 -59q142 0 198 91q39 65 39 138q0 115 -124 115q-71 0 -173 -60z" />
    <glyph glyph-name="sixinferior" unicode="&#x2086;" horiz-adv-x="737" 
d="M188 288q80 61 182 61q111 0 174 -55q66 -58 66 -163q0 -134 -75 -234q-87 -118 -272 -118q-264 0 -264 240q0 98 30.5 222t74.5 207q115 214 354 214q104 0 194 -35l-56 -102q-70 31 -130 31q-102 0 -166.5 -61.5t-111.5 -206.5zM342 243q-87 0 -144 -63.5t-57 -159.5
q0 -135 130 -135q100 0 154 94q37 65 37 138q0 126 -120 126z" />
    <glyph glyph-name="seveninferior" unicode="&#x2087;" horiz-adv-x="737" 
d="M519 538h-435l28 107h581l-12 -71l-480 -779h-168z" />
    <glyph glyph-name="eightinferior" unicode="&#x2088;" horiz-adv-x="737" 
d="M145 243q-80 51 -80 149q0 125 86 197.5t234 72.5q131 0 199 -53q65 -51 65 -143q0 -160 -147 -229q108 -55 108 -171q0 -139 -91.5 -213t-263.5 -74q-294 0 -294 204q0 96 44.5 158.5t139.5 101.5zM382 556q-88 0 -133 -54q-38 -45 -38 -109q0 -102 122 -102
q76 0 123 45.5t47 119.5q0 100 -121 100zM318 185q-116 0 -168 -63q-41 -51 -41 -125q0 -112 153 -112q97 0 150.5 48t53.5 136q0 116 -148 116z" />
    <glyph glyph-name="nineinferior" unicode="&#x2089;" horiz-adv-x="737" 
d="M454 154q-84 -58 -185 -58q-108 0 -168 50q-69 57 -69 164q0 61 22 127t57 112q86 113 266 113q265 0 265 -239q0 -97 -29 -219.5t-72 -204.5q-114 -220 -355 -220q-96 0 -197 34l57 102q71 -30 127 -30q105 0 169.5 61.5t111.5 207.5zM373 556q-95 0 -148 -83
q-44 -69 -44 -149q0 -122 122 -122q85 0 141 62t56 156q0 136 -127 136z" />
    <glyph glyph-name="franc" unicode="&#x20a3;" horiz-adv-x="1717" 
d="M100 0l248 1407h805l-40 -158h-608l-78 -437h508l-39 -153h-496l-116 -659h-184zM966 0l155 880h143l-13 -173q116 102 216 144t228 43l-39 -159q-114 -5 -209 -53q-121 -60 -211 -156l-93 -526h-177z" />
    <glyph glyph-name="lira" unicode="&#x20a4;" 
d="M291 498h-192l40 110h171l25 143h-192l40 110h171l23 129q20 112 47.5 173.5t80.5 114.5q128 129 365 129q185 0 348 -81l-85 -147q-122 73 -256 73q-168 0 -251 -106q-52 -68 -79 -221l-12 -64h332l-39 -110h-312l-25 -143h332l-39 -110h-313l-60 -345h614l-39 -153
h-941l39 153h146z" />
    <glyph glyph-name="peseta" unicode="&#x20a7;" horiz-adv-x="1166" 
d="M283 912h-151l39 110h131l68 385h312q246 0 354 -69q130 -83 130 -287q0 -15 -1 -29h143l-40 -110h-120q-49 -195 -185 -285t-383 -90h-184l-95 -537h-179zM462 912l-40 -226h156q173 0 258.5 50t129.5 176h-504zM481 1022h507v16q0 134 -85 181q-71 39 -224 39h-156z
" />
    <glyph glyph-name="Euro" unicode="&#x20ac;" 
d="M0 489l64 111h115q11 91 24 149h-157l63 111h122q72 225 181 355q186 221 494 221q228 0 373 -114l-82 -135q-126 98 -288 98q-346 0 -481 -425h574l-64 -111h-541q-17 -77 -26 -149h478l-63 -111h-420q3 -367 334 -367q160 0 314 97l54 -137q-170 -111 -396 -111
q-343 0 -448 258q-45 112 -49 260h-175z" />
    <glyph glyph-name="uni2101" unicode="&#x2101;" horiz-adv-x="1625" 
d="M355 0l968 1407h137l-969 -1407h-136zM931 39l59 106q71 -64 172 -64q73 0 114.5 32t41.5 90q0 29 -19.5 46.5t-93.5 55.5q-88 45 -120.5 81t-32.5 90q0 102 74 168t189 66q87 0 185 -47l-56 -99q-74 45 -148 45q-54 0 -86 -27t-32 -71q0 -25 22.5 -43.5t104.5 -60.5
q79 -40 109 -76.5t30 -90.5q0 -120 -79 -190t-215 -70q-129 0 -219 59zM700 713h-126l5 77q-98 -97 -215 -97q-109 0 -167.5 62t-58.5 177q0 186 93 328q108 163 312 163q110 0 257 -48l-71 -402q-29 -162 -29 -260zM661 1293q-60 27 -122 27q-144 0 -217 -146
q-55 -111 -55 -240q0 -139 123 -139q95 0 163 79q42 48 57 129z" />
    <glyph glyph-name="afii61248" unicode="&#x2105;" horiz-adv-x="1548" 
d="M671 856l38 -89q-116 -79 -250 -79q-263 0 -263 263q0 89 29.5 177.5t80.5 150.5q114 139 295 139q104 0 194 -59l-60 -95q-74 52 -149 52q-128 0 -202 -127q-56 -95 -56 -217q0 -182 172 -182q85 0 171 66zM1216 710q121 0 191.5 -71t70.5 -195q0 -86 -26 -171t-71 -144
q-113 -149 -301 -149q-151 0 -220 102q-46 68 -46 166q0 85 26.5 170.5t70.5 143.5q112 148 305 148zM1196 608q-134 0 -202 -136q-48 -96 -48 -204q0 -186 156 -186q130 0 197 137q48 97 48 207q0 182 -151 182zM285 0l969 1407h136l-968 -1407h-137z" />
    <glyph glyph-name="afii61289" unicode="&#x2113;" horiz-adv-x="983" 
d="M465 592q-25 -133 -45 -274.5t-20 -184.5q0 -54 38 -54q33 0 67 43.5t54 111.5l70 -31q-85 -243 -234 -243q-74 0 -116.5 53t-42.5 146q0 71 19 274l-122 -108l-37 60q9 7 52 52q75 77 124 133q77 413 178 669q107 270 265 270q66 0 107 -50t41 -131q0 -197 -143 -426
q-78 -126 -255 -310zM485 718q102 112 161 212q55 93 91 205.5t36 189.5q0 36 -15.5 59t-40.5 23q-60 0 -99 -102q-60 -159 -133 -587z" />
    <glyph glyph-name="afii61352" unicode="&#x2116;" horiz-adv-x="2501" 
d="M100 0l248 1407h175l525 -1107l195 1107h175l-249 -1407h-165l-533 1115l-196 -1115h-175zM2013 1207q167 0 264 -95q47 -47 74.5 -118t27.5 -147q0 -107 -33.5 -212t-89.5 -175q-145 -181 -383 -181q-175 0 -271 93q-102 100 -102 273q0 106 34.5 212t91.5 175
q145 175 387 175zM1998 1063q-170 0 -256 -165q-60 -114 -60 -244q0 -231 201 -231q170 0 255 167q59 116 59 241q0 232 -199 232zM1387 0l41 146h831l-41 -146h-831z" />
    <glyph glyph-name="uni2117" unicode="&#x2117;" horiz-adv-x="1707" 
d="M677 183v985h279q189 0 266 -80q80 -83 80 -221q0 -157 -86 -232t-266 -75h-144v-377h-129zM806 672h104q144 0 196 42q60 48 60 146q0 105 -56 150.5t-185 45.5h-119v-384zM904 1460q316 0 528 -214q213 -215 213 -537q0 -321 -213 -537q-211 -214 -538 -214t-538 214
q-213 216 -213 535q0 227 111 409q102 169 281 262q158 82 369 82zM903 1376q-300 0 -488 -202q-173 -187 -173 -467q0 -275 173 -463q187 -202 479 -202t479 202q173 187 173 465q0 283 -173 465q-192 202 -470 202z" />
    <glyph glyph-name="trademark" unicode="&#x2122;" horiz-adv-x="1737" 
d="M736 557l214 850h161l144 -622l363 622h162l-86 -850h-141l66 626l-362 -626h-82l-142 626l-155 -626h-142zM271 557l129 729h-262l29 121h669l-30 -121h-254l-129 -729h-152z" />
    <glyph glyph-name="Omega" unicode="&#x2126;" horiz-adv-x="1472" 
d="M32 0l26 146h324q-72 59 -117 113q-127 154 -127 355q0 127 40 258.5t111 237.5q220 326 593 326q274 0 419 -164q128 -146 128 -398q0 -301 -178 -511q-96 -114 -271 -217h320l-26 -146h-534l26 146q165 79 280 203q112 121 157 290q36 131 36 254q0 167 -87 277
q-92 115 -277 115q-296 0 -452 -298q-44 -84 -70.5 -196t-26.5 -214q0 -135 68 -245.5t197 -185.5l-26 -146h-533z" />
    <glyph glyph-name="estimated" unicode="&#x212e;" horiz-adv-x="1501" 
d="M1336 607h-943v-251q20 -69 40 -105.5t53 -66.5q94 -84 262 -84q152 0 249 62t154 195h136q-106 -381 -541 -381q-279 0 -432 178q-150 173 -150 471q0 317 165 495q160 172 426 172q220 0 372 -113q186 -139 205 -421q2 -30 4 -151zM1114 709v219q-20 57 -54 97
q-65 76 -139 109.5t-177 33.5q-164 0 -257 -99q-43 -46 -88 -141v-219h715z" />
    <glyph glyph-name="onethird" unicode="&#x2153;" horiz-adv-x="1720" 
d="M341 557l128 721l-158 -45l-16 98l229 76h112l-150 -850h-145zM1215 397l18 104h43q92 0 149 46q62 50 62 122q0 90 -125 90q-51 0 -95.5 -13t-130.5 -54l-35 103q143 73 280 73q122 0 187 -46t65 -133q0 -157 -161 -224q131 -47 131 -173q0 -143 -102.5 -225.5
t-279.5 -82.5q-164 0 -268 67l65 105q99 -63 199 -63q145 0 204 83q34 47 34 104q0 61 -43 89t-137 28h-60zM268 0l969 1407h143l-969 -1407h-143z" />
    <glyph glyph-name="twothirds" unicode="&#x2154;" horiz-adv-x="1720" 
d="M81 557l17 99l332 291q103 91 147 152.5t44 116.5q0 101 -130 101q-98 0 -241 -85l-40 105q85 49 151 69t146 20q262 0 262 -197q0 -90 -52 -169.5t-181 -186.5l-249 -206h385l-19 -110h-572zM1215 397l18 104h44q92 0 149 46q62 50 62 122q0 90 -125 90q-49 0 -86.5 -11
t-124.5 -50l-35 103q137 67 266 67q122 0 188 -47q63 -46 63 -132q0 -157 -161 -224q130 -48 130 -172q0 -143 -102.5 -226t-279.5 -83q-164 0 -268 67l65 105q100 -63 200 -63q144 0 203 83q34 47 34 104q0 61 -43 89t-137 28h-60zM342 0l968 1407h144l-969 -1407h-143z
" />
    <glyph glyph-name="uni2155" unicode="&#x2155;" horiz-adv-x="1720" 
d="M341 557l128 721l-158 -45l-16 98l229 76h112l-150 -850h-145zM1093 392l93 458h475l-31 -110h-331l-52 -235q70 33 144 33q232 0 232 -203q0 -75 -27 -144.5t-73 -113.5q-97 -93 -283 -93q-157 0 -261 59l61 107q97 -59 199 -59q141 0 196 91q40 64 40 135
q0 115 -124 115q-72 0 -173 -60zM268 0l969 1407h143l-969 -1407h-143z" />
    <glyph glyph-name="uni2156" unicode="&#x2156;" horiz-adv-x="1720" 
d="M81 557l17 99l332 291q103 91 147 152.5t44 116.5q0 101 -130 101q-98 0 -241 -85l-40 105q85 49 151 69t146 20q262 0 262 -197q0 -90 -52 -169.5t-181 -186.5l-249 -206h385l-19 -110h-572zM1093 392l93 458h475l-30 -110h-332l-52 -235q71 33 144 33q232 0 232 -203
q0 -75 -27 -144.5t-73 -113.5q-97 -93 -283 -93q-155 0 -261 59l62 107q96 -59 198 -59q141 0 197 91q39 64 39 136q0 114 -124 114q-71 0 -173 -60zM342 0l968 1407h144l-969 -1407h-143z" />
    <glyph glyph-name="uni2157" unicode="&#x2157;" horiz-adv-x="1720" 
d="M330 954l18 104h43q92 0 149 46q62 50 62 122q0 90 -125 90q-51 0 -95 -13t-131 -54l-35 103q143 73 280 73q123 0 187.5 -46t64.5 -133q0 -158 -161 -224q130 -47 130 -172q0 -144 -102 -226.5t-280 -82.5q-164 0 -267 67l65 105q99 -63 199 -63q144 0 203 83
q34 47 34 104q0 61 -43 89t-137 28h-59zM1093 392l93 458h475l-31 -110h-332l-52 -235q71 33 145 33q232 0 232 -203q0 -75 -27 -145t-73 -113q-97 -93 -283 -93q-156 0 -262 59l62 107q96 -59 199 -59q141 0 196 91q40 64 40 136q0 114 -125 114q-71 0 -173 -60zM338 0
l968 1407h144l-969 -1407h-143z" />
    <glyph glyph-name="uni2158" unicode="&#x2158;" horiz-adv-x="1720" 
d="M459 772h-387l17 97l480 538h145l-93 -528h127l-28 -107h-118l-38 -215h-143zM483 874l67 375l-328 -375h261zM1093 392l94 458h474l-30 -110h-332l-52 -235q71 33 144 33q232 0 232 -203q0 -75 -27 -144.5t-73 -113.5q-97 -93 -283 -93q-156 0 -261 59l62 107
q95 -59 198 -59q141 0 196 91q40 64 40 135q0 115 -124 115q-71 0 -173 -60zM342 0l969 1407h143l-969 -1407h-143z" />
    <glyph glyph-name="uni2159" unicode="&#x2159;" horiz-adv-x="1720" 
d="M341 557l128 721l-158 -45l-16 98l229 76h112l-150 -850h-145zM1203 496q83 60 182 60q113 0 175 -55q66 -58 66 -164q0 -135 -75 -236q-88 -117 -272 -117q-265 0 -265 240q0 99 30 223.5t75 206.5q114 213 354 213q105 0 195 -36l-57 -104q-70 31 -130 31
q-102 0 -166 -60t-112 -202zM1358 447q-87 0 -144.5 -63t-57.5 -158q0 -133 130 -133q101 0 155 93q37 65 37 136q0 125 -120 125zM268 0l969 1407h143l-969 -1407h-143z" />
    <glyph glyph-name="uni215A" unicode="&#x215a;" horiz-adv-x="1720" 
d="M208 949l93 458h475l-30 -110h-332l-52 -235q70 33 144 33q232 0 232 -203q0 -75 -27 -145t-73 -113q-98 -93 -283 -93q-155 0 -261 59l62 107q95 -58 198 -58q141 0 196 90q40 65 40 136q0 114 -124 114q-71 0 -173 -60zM1208 496q82 60 182 60q112 0 174 -55
q66 -58 66 -164q0 -135 -75 -236q-87 -117 -272 -117q-264 0 -264 240q0 99 30 223t75 207q114 213 354 213q104 0 194 -36l-56 -104q-71 31 -130 31q-102 0 -166 -60t-112 -202zM1362 447q-86 0 -143.5 -63t-57.5 -158q0 -133 130 -133q101 0 154 93q37 65 37 137
q0 124 -120 124zM345 0l969 1407h143l-969 -1407h-143z" />
    <glyph glyph-name="oneeighth" unicode="&#x215b;" horiz-adv-x="1720" 
d="M341 557l128 721l-158 -45l-16 98l229 76h112l-150 -850h-145zM1164 447q-79 51 -79 150q0 125 85.5 197.5t234.5 72.5q130 0 198 -54q65 -50 65 -143q0 -159 -147 -228q108 -56 108 -171q0 -139 -91.5 -213t-263.5 -74q-294 0 -294 204q0 96 44 157.5t140 101.5z
M1402 758q-88 0 -133 -54q-38 -44 -38 -106q0 -101 121 -101q92 0 137 61q33 44 33 101q0 99 -120 99zM1337 388q-115 0 -168 -63q-41 -49 -41 -121q0 -111 153 -111q97 0 150.5 47.5t53.5 134.5q0 113 -148 113zM268 0l969 1407h143l-969 -1407h-143z" />
    <glyph glyph-name="threeeighths" unicode="&#x215c;" horiz-adv-x="1720" 
d="M330 954l18 104h43q92 0 149 46q62 50 62 122q0 90 -125 90q-51 0 -95 -13t-131 -54l-35 103q143 73 280 73q123 0 187.5 -46t64.5 -133q0 -158 -161 -224q130 -47 130 -172q0 -144 -102 -226.5t-280 -82.5q-164 0 -267 67l65 105q99 -63 199 -63q144 0 203 83
q34 47 34 104q0 61 -43 89t-137 28h-59zM1164 447q-80 51 -80 150q0 125 86 197.5t234 72.5q127 0 195.5 -51t68.5 -146q0 -159 -147 -228q108 -56 108 -171q0 -139 -91.5 -213t-263.5 -74q-294 0 -294 203q0 97 43.5 158.5t140.5 101.5zM1401 758q-88 0 -133 -54
q-38 -44 -38 -106q0 -101 122 -101q76 0 123 44.5t47 117.5q0 99 -121 99zM1337 388q-115 0 -167 -63q-42 -49 -42 -121q0 -111 153 -111q97 0 150.5 47.5t53.5 134.5q0 113 -148 113zM341 0l969 1407h143l-968 -1407h-144z" />
    <glyph glyph-name="fiveeighths" unicode="&#x215d;" horiz-adv-x="1720" 
d="M208 949l93 458h475l-30 -110h-332l-52 -235q70 33 144 33q232 0 232 -203q0 -75 -27 -145t-73 -113q-98 -93 -283 -93q-155 0 -261 59l62 107q95 -58 198 -58q141 0 196 90q40 65 40 136q0 114 -124 114q-71 0 -173 -60zM1165 447q-80 50 -80 150q0 125 86 197.5
t234 72.5q130 0 198 -54q65 -51 65 -143q0 -158 -147 -228q108 -56 108 -171q0 -139 -91.5 -213t-263.5 -74q-294 0 -294 204q0 96 44 157.5t141 101.5zM1402 758q-88 0 -133 -54q-38 -44 -38 -106q0 -101 122 -101q76 0 122.5 45t46.5 118q0 98 -120 98zM1337 388
q-116 0 -168 -62q-41 -50 -41 -122q0 -111 152 -111q112 0 164 60q41 49 41 122q0 113 -148 113zM342 0l968 1407h144l-969 -1407h-143z" />
    <glyph glyph-name="seveneighths" unicode="&#x215e;" horiz-adv-x="1720" 
d="M653 1297h-435l28 110h581l-12 -73l-480 -777h-168zM1164 447q-79 51 -79 150q0 125 86 197.5t234 72.5q126 0 194.5 -51t68.5 -146q0 -159 -147 -228q108 -55 108 -171q0 -139 -91.5 -213t-263.5 -74q-294 0 -294 204q0 96 44 157.5t140 101.5zM1402 758
q-78 0 -124.5 -44t-46.5 -116q0 -101 122 -101q76 0 122.5 45t46.5 118q0 98 -120 98zM1337 388q-116 0 -168 -62q-41 -50 -41 -122q0 -111 153 -111q97 0 150.5 47.5t53.5 134.5q0 113 -148 113zM259 1l968 1407h144l-969 -1407h-143z" />
    <glyph glyph-name="partialdiff" unicode="&#x2202;" 
d="M830 947q-46 158 -141.5 235t-282.5 106l55 151q231 -27 367 -149q123 -111 181 -302q45 -148 45 -310q0 -146 -37 -280.5t-103 -224.5q-145 -202 -414 -202q-181 0 -281 86q-120 104 -120 314q0 116 36.5 233.5t98.5 200.5q145 195 392 195q60 0 100 -10t104 -43z
M642 854q-193 0 -291 -191q-68 -132 -68 -289q0 -257 226 -257q189 0 287 191q68 132 68 287q0 259 -222 259z" />
    <glyph glyph-name="emptyset" unicode="&#x2205;" 
d="M267 409q-84 117 -84 260q0 194 143 328q119 111 290 111q138 0 249 -79l179 186l95 -98l-178 -185q86 -117 86 -262q0 -195 -142 -328q-119 -110 -291 -110q-139 0 -250 78l-177 -184l-96 100zM379 525l390 404q-67 53 -155 53q-121 0 -194 -95q-66 -86 -66 -216
q0 -82 25 -146zM850 816l-389 -405q68 -54 154 -54q122 0 195 96q66 86 66 216q0 80 -26 147z" />
    <glyph glyph-name="Delta" unicode="&#x2206;" 
d="M-175 0l829 1407h164l333 -1407h-1326zM924 153l-230 1044l-597 -1044h827z" />
    <glyph glyph-name="product" unicode="&#x220f;" horiz-adv-x="1434" 
d="M1223 1403h-691l-338 -1915h-184l365 2068h1059l-365 -2068h-184z" />
    <glyph glyph-name="summation" unicode="&#x2211;" horiz-adv-x="1229" 
d="M1352 1556l-27 -153h-870l364 -841l-671 -921h886l-26 -153h-1089l34 193l654 890l-356 813l31 172h1070z" />
    <glyph glyph-name="minus" unicode="&#x2212;" 
d="M132 622l43 160h913l-43 -160h-913z" />
    <glyph glyph-name="fraction" unicode="&#x2215;" horiz-adv-x="246" 
d="M-396 0l969 1407h143l-969 -1407h-143z" />
    <glyph glyph-name="periodcentered" unicode="&#x2219;" horiz-adv-x="573" 
d="M314 758q50 0 86 -36.5t36 -87.5q0 -52 -36.5 -88.5t-87.5 -36.5q-53 0 -89 36.5t-36 89.5q0 51 37 87t90 36z" />
    <glyph glyph-name="radical" unicode="&#x221a;" 
d="M302 0l-75 604h-152l26 148h287l53 -565l702 1540h530l-26 -150h-389l-735 -1577h-221z" />
    <glyph glyph-name="infinity" unicode="&#x221e;" horiz-adv-x="1555" 
d="M817 607q-59 -86 -100 -121q-98 -81 -235 -81q-148 0 -234 90q-82 85 -82 223t82 223q85 90 234 90q148 0 249 -94q33 -31 86 -108q59 86 100 121q99 81 236 81q148 0 233 -90q82 -85 82 -223t-82 -223q-86 -90 -234 -90q-110 0 -184 44.5t-151 157.5zM749 718l-13 19
q-110 174 -244 174q-84 0 -137 -53.5t-53 -139.5q0 -88 53 -140q54 -53 137 -53q70 0 124 38.5t119 134.5zM885 718l14 -20q116 -173 242 -173q85 0 138 53.5t53 139.5q0 88 -53 140q-53 53 -138 53q-135 0 -244 -174z" />
    <glyph glyph-name="integral" unicode="&#x222b;" 
d="M60 -519l59 147q51 -17 85 -17q80 0 117 61q23 39 47 174l233 1320q22 125 39.5 182t48.5 107q80 130 253 130q68 0 150 -22l-58 -148q-51 19 -86 19q-81 0 -118 -63q-22 -39 -45 -167l-234 -1326q-21 -123 -39 -181t-49 -109q-81 -128 -254 -128q-67 0 -149 21z" />
    <glyph glyph-name="uni2243" unicode="&#x2243;" 
d="M129 462l43 166h865l-43 -166h-865zM297 733l-123 33q59 134 106 185q87 98 207 98q59 0 101 -18t108 -72q57 -46 84.5 -60.5t57.5 -14.5q45 0 82 33.5t83 115.5l118 -39q-53 -117 -101 -171q-87 -100 -210 -100q-54 0 -95 18t-105 71q-59 48 -85.5 62t-59.5 14
q-90 0 -168 -155z" />
    <glyph glyph-name="approxequal" unicode="&#x2248;" 
d="M297 733l-123 33q58 129 106 182q87 97 207 97q59 0 100 -18t109 -73q59 -47 85.5 -61.5t57.5 -14.5q45 0 82 34t82 117l118 -38q-51 -114 -100 -170q-88 -99 -210 -99q-55 0 -94.5 18t-106.5 72q-59 49 -85.5 63t-59.5 14q-90 0 -168 -156zM234 375l-123 33
q57 127 106 183q87 97 207 97q59 0 100.5 -18t109.5 -73q57 -47 84.5 -61.5t58.5 -14.5q44 0 80.5 33.5t82.5 116.5l119 -38q-53 -115 -101 -169q-88 -99 -210 -99q-55 0 -95 18t-106 72q-58 48 -85 62.5t-60 14.5q-47 0 -85.5 -35.5t-82.5 -121.5z" />
    <glyph glyph-name="notequal" unicode="&#x2260;" 
d="M129 467l43 161h303l99 153h-390l44 160h448l152 239l126 -68l-108 -171h247l-43 -160h-306l-99 -153h393l-44 -161h-451l-152 -239l-126 68l108 171h-244z" />
    <glyph glyph-name="lessequal" unicode="&#x2264;" 
d="M406 725l610 -308l-29 -170l-836 438l17 94l989 436l-32 -182zM35 0l26 146h901l-25 -146h-902z" />
    <glyph glyph-name="greaterequal" unicode="&#x2265;" 
d="M825 738l-610 308l29 169l836 -437l-17 -94l-989 -437l32 183zM35 0l26 146h901l-25 -146h-902z" />
    <glyph glyph-name="dotmath" unicode="&#x22c5;" horiz-adv-x="573" 
d="M314 758q50 0 86 -36.5t36 -87.5q0 -52 -36.5 -88.5t-87.5 -36.5q-53 0 -89 36.5t-36 89.5q0 51 37 87t90 36z" />
    <glyph glyph-name="lozenge" unicode="&#x25ca;" 
d="M67 704l544 762l544 -762l-544 -762zM271 704l340 -490l339 490l-339 490z" />
    <glyph glyph-name="ffl" unicode="&#xfb04;" horiz-adv-x="1882" 
d="M277 835h-190l37 150h179l26 148q30 168 94 245q85 102 249 102q100 0 190 -39l-64 -136q-62 25 -116 25q-81 0 -121.5 -49.5t-63.5 -174.5l-21 -121h261l-38 -150h-249l-168 -945q-31 -176 -92 -256q-82 -108 -237 -108q-92 0 -177 34l64 136q56 -19 104 -19
q72 0 108.5 49t59.5 174zM1433 0l255 1448l184 37l-262 -1485h-177zM945 835h-190l37 150h179l26 148q30 168 94 245q85 102 249 102q100 0 190 -39l-64 -136q-62 25 -116 25q-81 0 -122 -49.5t-63 -174.5l-21 -121h261l-38 -150h-249l-168 -945q-31 -176 -92 -256
q-82 -108 -237 -108q-92 0 -177 34l64 136q56 -19 104 -19q72 0 108.5 49t58.5 174z" />
    <glyph glyph-name="glyph172" 
 />
    <glyph glyph-name="glyph210" horiz-adv-x="492" 
 />
    <glyph glyph-name="idotaccent" horiz-adv-x="550" 
d="M99 0l174 985h177l-173 -985h-178zM413 1382q47 0 80.5 -34t33.5 -82q0 -49 -34 -83t-82 -34t-82 34.5t-34 82.5q0 49 34.5 82.5t83.5 33.5z" />
    </font>
</defs>
</svg>
