<?xml version="1.0" standalone="no"?>
<!DOCTYPE svg PUBLIC "-//W3C//DTD SVG 1.1//EN" "http://www.w3.org/Graphics/SVG/1.1/DTD/svg11.dtd" >
<svg xmlns="http://www.w3.org/2000/svg" xmlns:xlink="http://www.w3.org/1999/xlink" version="1.1">
<metadata>
Created by FontForge 20190801 at Fri Mar 24 11:34:13 2017
 By www-data
(URW)++,Copyright 2016 by (URW)++ Design &#38; Development
</metadata>
<defs>
<font id="JMSansMediumItalic" horiz-adv-x="1147" >
  <font-face 
    font-family="JMSansMediumItalic"
    font-weight="500"
    font-style="italic"
    font-stretch="normal"
    units-per-em="2048"
    panose-1="0 0 0 0 0 0 0 0 0 0"
    ascent="1536"
    descent="-512"
    x-height="985"
    cap-height="1407"
    bbox="-412 -546 2475 2014"
    underline-thickness="143"
    underline-position="-401"
    slope="-10"
    unicode-range="U+0020-FB04"
  />
<missing-glyph horiz-adv-x="492" 
d="M49 0v1407h394v-1407h-394zM394 49v1309h-296v-1309h296z" />
    <glyph glyph-name="ff" unicode="ff" horiz-adv-x="1373" 
d="M262 803h-190l46 182h175l26 146q30 172 95 250q88 104 257 104q112 0 217 -46l-78 -162q-67 26 -117 26q-73 0 -109.5 -45t-56.5 -158l-21 -115h242l-46 -182h-227l-160 -903q-33 -183 -97 -266q-88 -113 -253 -113q-102 0 -199 39l78 162q57 -19 100 -19
q68 0 103.5 44.5t55.5 157.5zM948 803h-189l45 182h175l26 146q18 99 38.5 152t57.5 98q88 104 256 104q113 0 217 -46l-78 -162q-66 26 -116 26q-73 0 -110 -45t-57 -158l-20 -115h257l-46 -182h-243l-160 -903q-32 -183 -97 -266q-88 -113 -252 -113q-103 0 -200 39
l78 162q58 -19 100 -19q69 0 104 45t55 157z" />
    <glyph glyph-name="fi" unicode="fi" horiz-adv-x="1255" 
d="M262 803h-190l46 182h175l26 146q30 172 95 250q88 104 257 104q112 0 217 -46l-78 -162q-67 26 -117 26q-73 0 -109.5 -45t-56.5 -158l-21 -115h258l-46 -182h-243l-160 -903q-33 -183 -97 -266q-88 -113 -253 -113q-102 0 -199 39l78 162q57 -19 100 -19
q68 0 103.5 44.5t55.5 157.5zM1111 1412q55 0 94.5 -40.5t39.5 -97.5t-40 -97.5t-96 -40.5t-96 40.5t-40 98.5q0 57 40.5 97t97.5 40zM774 0l174 985h220l-173 -985h-221z" />
    <glyph glyph-name="fl" unicode="fl" horiz-adv-x="1268" 
d="M262 803h-190l46 182h175l26 146q30 172 95 250q88 104 257 104q112 0 217 -46l-78 -162q-67 26 -117 26q-73 0 -109.5 -45t-56.5 -158l-21 -115h258l-46 -182h-243l-160 -903q-33 -183 -97 -266q-88 -113 -253 -113q-102 0 -199 39l78 162q57 -19 100 -19
q68 0 103.5 44.5t55.5 157.5zM789 0l255 1445l229 48l-264 -1493h-220z" />
    <glyph glyph-name="ffi" unicode="ffi" horiz-adv-x="1941" 
d="M262 803h-190l46 182h175l26 146q30 172 95 250q88 104 257 104q112 0 217 -46l-78 -162q-67 26 -117 26q-73 0 -109.5 -45t-56.5 -158l-21 -115h242l-46 -182h-227l-160 -903q-33 -183 -97 -266q-88 -113 -253 -113q-102 0 -199 39l78 162q57 -19 100 -19
q68 0 103.5 44.5t55.5 157.5zM1460 0l174 985h221l-174 -985h-221zM1798 1410q55 0 94.5 -40t39.5 -96q0 -57 -39.5 -97t-96.5 -40t-96.5 40t-39.5 98q0 56 40.5 95.5t97.5 39.5zM948 803h-189l45 182h175l26 146q18 99 38.5 152t57.5 98q88 104 256 104q113 0 217 -46
l-78 -162q-66 26 -116 26q-73 0 -110 -45t-57 -158l-20 -115h257l-46 -182h-243l-160 -903q-32 -183 -97 -266q-88 -113 -252 -113q-103 0 -200 39l78 162q58 -19 100 -19q69 0 104 45t55 157z" />
    <glyph glyph-name=".notdef" horiz-adv-x="492" 
d="M49 0v1407h394v-1407h-394zM394 49v1309h-296v-1309h296z" />
    <glyph glyph-name="glyph1" horiz-adv-x="0" 
 />
    <glyph glyph-name="glyph2" horiz-adv-x="492" 
 />
    <glyph glyph-name="space" unicode=" " horiz-adv-x="492" 
 />
    <glyph glyph-name="exclam" unicode="!" horiz-adv-x="725" 
d="M251 413l146 994h253l-204 -994h-195zM299 262q59 0 101 -43t42 -102q0 -61 -42.5 -103.5t-102.5 -42.5q-61 0 -103.5 42.5t-42.5 104.5q0 60 43 102t105 42z" />
    <glyph glyph-name="quotedbl" unicode="&#x22;" horiz-adv-x="824" 
d="M205 831l73 576h233l-130 -576h-176zM562 831l74 576h232l-130 -576h-176z" />
    <glyph glyph-name="numbersign" unicode="#" 
d="M305 600l52 207h-185l35 153h185l78 319h194l-77 -319h171l77 319h195l-77 -319h185l-35 -153h-186l-51 -207h184l-36 -153h-183l-77 -320h-195l77 320h-171l-77 -320h-195l77 320h-187l36 153h186zM500 600h171l52 207h-171z" />
    <glyph glyph-name="dollar" unicode="$" 
d="M450 -28q-249 9 -395 92l98 189q144 -89 329 -95l83 469q-147 71 -209 121q-131 107 -131 261q0 184 125.5 289.5t353.5 115.5l32 182h121l-33 -186q164 -15 310 -91l-105 -178q-119 71 -237 84l-76 -429q157 -72 215 -115q134 -98 134 -264t-104 -286
q-125 -143 -390 -157l-30 -169h-121zM605 849l65 374q-91 -15 -136 -41q-81 -47 -81 -150q0 -59 30 -95.5t122 -87.5zM677 575l-72 -408q87 17 132 49q89 64 89 172q0 65 -29.5 102t-119.5 85z" />
    <glyph glyph-name="percent" unicode="%" horiz-adv-x="1793" 
d="M581 1436q135 0 212 -71q81 -76 81 -216q0 -90 -25 -177.5t-67 -147.5q-107 -150 -312 -150q-144 0 -220 71q-81 75 -81 218q0 89 25 176.5t67 146.5q106 150 320 150zM565 1286q-103 0 -153 -114q-42 -97 -42 -214q0 -134 111 -134q99 0 150 115q42 96 42 214
q0 133 -108 133zM1405 733q135 0 212 -72q81 -75 81 -215q0 -90 -24.5 -177.5t-67.5 -147.5q-106 -150 -312 -150q-144 0 -219 71q-81 76 -81 218q0 88 25 176t67 147q107 150 319 150zM1389 583q-102 0 -152 -114q-42 -97 -42 -215q0 -133 111 -133q98 0 149 114
q42 97 42 215q0 133 -108 133zM418 0l831 1407h200l-831 -1407h-200z" />
    <glyph glyph-name="ampersand" unicode="&#x26;" horiz-adv-x="1405" 
d="M1089 256l198 -256h-309l-81 118q-194 -147 -423 -147q-201 0 -308 98q-100 93 -100 252q0 207 147 343q47 43 98 71.5t154 66.5q-70 121 -70 243q0 171 103 278q109 113 303 113q166 0 254 -80q82 -75 82 -208q0 -185 -143 -297q-72 -57 -232 -119l217 -331
q76 85 131.5 185t122.5 267l183 -49q-59 -165 -145.5 -310t-181.5 -238zM672 878q107 36 171 85q90 70 90 194q0 120 -136 120q-100 0 -153 -73q-42 -59 -42 -139q0 -44 14.5 -82.5t55.5 -104.5zM544 649q-250 -102 -250 -303q0 -96 59 -147q62 -54 171 -54q134 0 277 101z
" />
    <glyph glyph-name="quotesingle" unicode="'" horiz-adv-x="416" 
d="M180 831l73 576h233l-130 -576h-176z" />
    <glyph glyph-name="parenleft" unicode="(" horiz-adv-x="857" 
d="M567 -305l-153 -83q-170 293 -170 683q0 350 130 686t365 592l145 -83q-131 -180 -227 -404q-86 -200 -128 -396q-54 -249 -54 -439q0 -308 92 -556z" />
    <glyph glyph-name="parenright" unicode=")" horiz-adv-x="857" 
d="M325 1490l154 83q83 -142 126.5 -316.5t43.5 -365.5q0 -351 -130 -687t-364 -592l-146 83q132 181 227 404q85 199 128 396q54 248 54 437q0 310 -93 558z" />
    <glyph glyph-name="asterisk" unicode="*" 
d="M666 1013l-225 -294l-153 125l258 269l-309 64l93 197l289 -106l38 318h220l-75 -318l327 106l23 -197l-332 -64l164 -269l-197 -125z" />
    <glyph glyph-name="plus" unicode="+" 
d="M123 603l55 201h352l67 377h212l-67 -377h372l-55 -201h-352l-66 -373h-212l66 373h-372z" />
    <glyph glyph-name="comma" unicode="," horiz-adv-x="573" 
d="M-13 -279l161 526h246l-223 -526h-184z" />
    <glyph glyph-name="hyphen" unicode="-" horiz-adv-x="760" 
d="M82 541l66 199h583l-66 -199h-583z" />
    <glyph glyph-name="period" unicode="." horiz-adv-x="573" 
d="M223 262q59 0 101 -43t42 -102q0 -61 -42.5 -103.5t-102.5 -42.5q-61 0 -103.5 42.5t-42.5 104.5q0 60 43 102t105 42z" />
    <glyph glyph-name="slash" unicode="/" horiz-adv-x="573" 
d="M-113 0l646 1407h229l-646 -1407h-229z" />
    <glyph glyph-name="zero" unicode="0" 
d="M725 1436q91 0 172 -30t129 -82q99 -107 99 -331q0 -135 -33 -317.5t-82 -314.5q-77 -211 -207 -301q-127 -89 -298 -89q-92 0 -171.5 27t-127.5 74q-52 51 -81 139.5t-29 196.5q0 148 36 336.5t92 328.5q79 202 214 286q123 77 287 77zM706 1250q-107 0 -174.5 -73
t-114.5 -238q-35 -121 -60 -284t-25 -264q0 -234 186 -234q104 0 172 74t114 237q34 120 59.5 284t25.5 264q0 234 -183 234z" />
    <glyph glyph-name="one" unicode="1" 
d="M418 0l211 1196l-250 -78l-23 157l371 132h167l-248 -1407h-228z" />
    <glyph glyph-name="two" unicode="2" 
d="M15 0l30 168l519 478q158 146 227.5 251t69.5 198q0 157 -196 157q-161 0 -383 -131l-44 180q214 137 451 137q203 0 308 -83q47 -38 75 -104.5t28 -140.5q0 -147 -83.5 -278.5t-293.5 -315.5l-380 -333h626l-32 -183h-922z" />
    <glyph glyph-name="three" unicode="3" 
d="M383 654l30 174h91q154 0 240 67q95 75 95 198q0 157 -206 157q-147 0 -337 -98l-43 179q129 59 222 82t203 23q200 0 301 -86q93 -80 93 -225q0 -162 -101 -265q-48 -49 -159 -97q213 -75 213 -286q0 -102 -38.5 -196t-108.5 -161q-154 -149 -454 -149q-270 0 -428 110
l97 176q85 -56 158.5 -78t172.5 -22q206 0 297 114q65 82 65 194q0 101 -66.5 145t-219.5 44h-117z" />
    <glyph glyph-name="four" unicode="4" 
d="M615 350h-616l30 172l785 885h214l-154 -874h199l-45 -183h-186l-62 -350h-227zM657 529l107 603l-521 -603h414z" />
    <glyph glyph-name="five" unicode="5" 
d="M231 651l148 756h735l-43 -183h-519l-76 -378q67 30 109.5 40.5t100.5 10.5q362 0 362 -346q0 -122 -41.5 -235t-112.5 -186q-154 -159 -444 -159q-230 0 -399 91l92 179q141 -84 297 -84q215 0 303 142q66 106 66 236q0 183 -196 183q-120 0 -263 -94z" />
    <glyph glyph-name="six" unicode="6" 
d="M410 807q70 66 134.5 92.5t155.5 26.5q161 0 254 -82q108 -95 108 -272q0 -101 -31 -208.5t-82 -184.5q-140 -210 -426 -210q-414 0 -414 393q0 174 53.5 387.5t133.5 358.5q182 328 522 328q169 0 308 -62l-87 -169q-96 45 -205 45q-159 0 -259 -104.5t-165 -338.5z
M641 747q-148 0 -234 -131q-71 -108 -71 -257q0 -212 189 -212q159 0 240 157q58 114 58 243q0 93 -43 144q-47 56 -139 56z" />
    <glyph glyph-name="seven" unicode="7" 
d="M905 1224h-642l40 183h889l-22 -125l-746 -1282h-269z" />
    <glyph glyph-name="eight" unicode="8" 
d="M363 732q-57 36 -83 69q-61 76 -61 193q0 90 35.5 175.5t96.5 141.5q134 125 360 125q201 0 313 -93q100 -82 100 -233q0 -133 -63 -225.5t-193 -152.5q186 -80 186 -295q0 -212 -141 -340q-139 -126 -407 -126q-236 0 -356 99q-100 82 -100 237q0 153 83 265.5
t230 159.5zM709 1257q-146 0 -214 -103q-48 -73 -48 -163q0 -165 187 -165q145 0 213 103q49 72 49 164q0 78 -49.5 121t-137.5 43zM605 640q-175 0 -256 -104q-63 -82 -63 -202q0 -90 59.5 -137t171.5 -47q170 0 250 106q62 82 62 201q0 88 -54 133q-60 50 -170 50z" />
    <glyph glyph-name="nine" unicode="9" 
d="M818 623q-126 -116 -293 -116q-166 0 -263 87q-99 89 -99 259q0 103 35.5 210.5t95.5 185.5q143 187 406 187q219 0 323 -114q89 -98 89 -279q0 -186 -56.5 -413t-134.5 -360q-179 -301 -523 -301q-172 0 -313 60l88 174q105 -48 215 -48q213 0 324 190q58 100 106 278z
M699 1257q-156 0 -236 -143q-61 -108 -61 -238q0 -89 45 -138q48 -52 142 -52q139 0 227 120q70 96 70 242q0 209 -187 209z" />
    <glyph glyph-name="colon" unicode=":" horiz-adv-x="573" 
d="M218 262q59 0 101 -43t42 -102q0 -61 -42.5 -103.5t-102.5 -42.5q-61 0 -103.5 42.5t-42.5 104.5q0 60 43 102t105 42zM351 1016q59 0 101 -43t42 -103t-42.5 -102.5t-102.5 -42.5q-61 0 -103.5 42.5t-42.5 103.5t43 103t105 42z" />
    <glyph glyph-name="semicolon" unicode=";" horiz-adv-x="573" 
d="M-13 -279l161 526h246l-223 -526h-184zM351 1016q59 0 101 -43t42 -103t-42.5 -102.5t-102.5 -42.5q-61 0 -103.5 42.5t-42.5 103.5t43 103t105 42z" />
    <glyph glyph-name="less" unicode="&#x3c;" 
d="M465 692l556 -274l-42 -236l-840 463l19 109l1005 469l-45 -250z" />
    <glyph glyph-name="equal" unicode="=" 
d="M172 784l56 201h886l-55 -201h-887zM109 428l55 201h887l-55 -201h-887z" />
    <glyph glyph-name="greater" unicode="&#x3e;" 
d="M756 713l-556 275l42 235l840 -463l-20 -108l-1004 -470l44 250z" />
    <glyph glyph-name="question" unicode="?" horiz-adv-x="933" 
d="M510 411h-213l15 82q20 115 56 168.5t171 169.5q114 97 159 163.5t45 138.5q0 124 -164 124q-150 0 -335 -110l-51 169q212 120 446 120q200 0 286 -92q57 -62 57 -160q0 -137 -78 -257q-47 -72 -191 -196q-128 -110 -153 -143t-39 -111zM353 262q59 0 101 -43t42 -102
q0 -61 -42.5 -103.5t-102.5 -42.5q-61 0 -103.5 42.5t-42.5 104.5q0 60 43 102t105 42z" />
    <glyph glyph-name="at" unicode="@" horiz-adv-x="1647" 
d="M1105 978h145l-95 -450q-15 -69 -15 -99q0 -71 69 -71q77 0 133 85q95 148 95 351q0 193 -101 300q-64 68 -161 101q-111 39 -234 39q-288 0 -469 -185q-202 -206 -202 -564q0 -273 143 -395q141 -120 408 -120q268 0 523 100l39 -110q-261 -113 -563 -113
q-695 0 -695 632q0 275 114 483q109 199 312 301q176 89 394 89t375 -88q256 -144 256 -474q0 -293 -162 -471q-95 -105 -233 -105q-80 0 -119.5 32t-57.5 111q-65 -78 -125 -111.5t-138 -33.5q-113 0 -177.5 72t-64.5 198q0 109 38 214t104 181q107 121 260 121
q66 0 108.5 -24.5t75.5 -81.5zM907 854q-98 0 -162 -127q-59 -116 -59 -244q0 -121 93 -121q98 0 172 124q73 122 73 240q0 54 -28 88q-33 40 -89 40z" />
    <glyph glyph-name="A" unicode="A" horiz-adv-x="1329" 
d="M945 379h-590l-214 -379h-250l828 1407h214l332 -1407h-238zM909 562l-125 581l-328 -581h453z" />
    <glyph glyph-name="B" unicode="B" horiz-adv-x="1266" 
d="M89 0l248 1407h449q264 0 365 -76q96 -73 96 -221t-91 -251q-64 -74 -190 -112q96 -29 143 -80q65 -70 65 -199q0 -113 -45 -213t-123 -157q-91 -66 -235 -87q-78 -11 -200 -11h-482zM466 824h183q126 0 184 13.5t101 53.5q81 76 81 195q0 78 -55 108t-200 30h-224z
M353 183h206q203 0 282 64q44 34 69 94.5t25 130.5q0 119 -91 157q-63 26 -242 26h-166z" />
    <glyph glyph-name="C" unicode="C" horiz-adv-x="1150" 
d="M988 260l72 -180q-176 -109 -406 -109q-255 0 -392 124q-153 138 -153 410q0 242 91 464q101 246 289 366q157 101 369 101q231 0 389 -112l-108 -168q-123 94 -277 94q-264 0 -404 -268q-50 -95 -80 -223t-30 -246q0 -356 332 -356q155 0 308 103z" />
    <glyph glyph-name="D" unicode="D" horiz-adv-x="1338" 
d="M89 0l248 1407h369q289 0 424 -97q169 -123 169 -420q0 -127 -28.5 -261.5t-77.5 -239.5q-111 -239 -317 -327q-144 -62 -368 -62h-419zM354 189h125q109 0 171 10.5t119 39.5q149 75 228 286q63 168 63 343q0 249 -158 316q-80 34 -258 34h-109z" />
    <glyph glyph-name="E" unicode="E" horiz-adv-x="1133" 
d="M89 0l248 1407h867l-48 -189h-621l-67 -381h506l-45 -179h-493l-82 -469h656l-46 -189h-875z" />
    <glyph glyph-name="F" unicode="F" horiz-adv-x="1053" 
d="M89 0l248 1407h832l-48 -189h-586l-70 -396h482l-46 -183h-468l-113 -639h-231z" />
    <glyph glyph-name="G" unicode="G" horiz-adv-x="1335" 
d="M915 200l62 351h-269l40 174h490l-120 -677q-205 -78 -432 -78q-577 0 -577 533q0 196 62.5 385t167.5 312q202 236 542 236q236 0 424 -118l-107 -173q-154 105 -319 105q-170 0 -283 -91q-136 -109 -202 -341q-46 -159 -46 -308q0 -185 90 -273q82 -81 251 -81
q134 0 226 44z" />
    <glyph glyph-name="H" unicode="H" horiz-adv-x="1417" 
d="M89 0l248 1407h232l-102 -577h602l101 577h232l-248 -1407h-232l113 639h-602l-113 -639h-231z" />
    <glyph glyph-name="I" unicode="I" horiz-adv-x="617" 
d="M106 0l248 1407h232l-249 -1407h-231z" />
    <glyph glyph-name="J" unicode="J" horiz-adv-x="604" 
d="M347 1407h231l-173 -985q-41 -233 -78.5 -348.5t-104.5 -213.5q-79 -117 -274 -270l-110 104q91 95 129 146t77 129q76 152 132 466z" />
    <glyph glyph-name="K" unicode="K" horiz-adv-x="1248" 
d="M89 0l248 1407h232l-99 -559l634 559h290l-722 -626l502 -781h-259l-464 742l-131 -742h-231z" />
    <glyph glyph-name="L" unicode="L" horiz-adv-x="1038" 
d="M89 0l248 1407h232l-215 -1218h606l-47 -189h-824z" />
    <glyph glyph-name="M" unicode="M" horiz-adv-x="1736" 
d="M35 0l361 1407h228l214 -1076l593 1076h232l-135 -1407h-217l119 1030l-574 -1030h-150l-210 1030l-244 -1030h-217z" />
    <glyph glyph-name="N" unicode="N" horiz-adv-x="1442" 
d="M89 0l248 1407h214l476 -1040l183 1040h217l-248 -1407h-210l-480 1040l-183 -1040h-217z" />
    <glyph glyph-name="O" unicode="O" horiz-adv-x="1409" 
d="M837 1436q162 0 290 -64q134 -67 193 -210q51 -122 51 -274q0 -159 -44.5 -325.5t-118.5 -285.5q-100 -161 -240 -236q-131 -70 -316 -70q-261 0 -396 129q-70 67 -106 172q-39 117 -39 246q0 174 54 360q162 558 672 558zM830 1250q-252 0 -380 -269q-44 -92 -72 -226.5
t-28 -251.5q0 -170 83 -262q75 -84 224 -84q152 0 254 94q119 110 178 335q43 166 43 315q0 172 -83 263q-78 86 -219 86z" />
    <glyph glyph-name="P" unicode="P" horiz-adv-x="1173" 
d="M89 0l248 1407h345q266 0 379 -70q75 -47 111 -138q27 -70 27 -153q0 -104 -38.5 -205t-104.5 -170q-75 -80 -183 -115.5t-273 -35.5h-188l-92 -520h-231zM444 703h155q195 0 273 84q40 43 64 109.5t24 132.5q0 116 -75 160q-62 35 -193 35h-156z" />
    <glyph glyph-name="Q" unicode="Q" horiz-adv-x="1409" 
d="M1045 124q140 25 296 27l-27 -151q-277 -2 -481 -19q-129 -10 -180 -10q-210 0 -343 86q-103 67 -153 197q-46 117 -46 262q0 161 44 327.5t119 285.5q192 307 556 307q170 0 297 -64q133 -66 193 -210q51 -122 51 -269q0 -233 -91 -447t-235 -322zM830 1250
q-252 0 -380 -269q-44 -92 -72 -226.5t-28 -251.5q0 -170 83 -262q75 -84 224 -84q152 0 254 94q119 110 178 335q43 166 43 315q0 172 -83 263q-78 86 -219 86z" />
    <glyph glyph-name="R" unicode="R" horiz-adv-x="1241" 
d="M422 569l-101 -569h-231l248 1407h398q243 0 351 -66q131 -78 131 -266q0 -166 -85.5 -289t-232.5 -170q36 -31 57.5 -69.5t52.5 -126.5l146 -420h-263l-109 355q-47 150 -71.5 182t-92.5 32h-198zM451 735h177q198 0 270 82q36 41 58.5 106t22.5 129q0 96 -58.5 134
t-206.5 38h-177z" />
    <glyph glyph-name="S" unicode="S" horiz-adv-x="1055" 
d="M-20 64l98 189q159 -96 341 -96q180 0 260 81q67 66 67 159q0 75 -39 116t-174 109q-118 60 -174 97.5t-99 86.5q-76 89 -76 214q0 88 34.5 169t95.5 134q128 113 354 113q212 0 395 -96l-105 -177q-145 87 -288 87q-131 0 -199 -66q-59 -56 -59 -140q0 -70 48.5 -116
t202.5 -122q178 -89 241 -154q81 -85 81 -225q0 -107 -44 -199.5t-123 -153.5q-134 -103 -396 -103q-279 0 -442 93z" />
    <glyph glyph-name="T" unicode="T" horiz-adv-x="1100" 
d="M347 0l215 1218h-407l47 189h1033l-47 -189h-395l-214 -1218h-232z" />
    <glyph glyph-name="U" unicode="U" horiz-adv-x="1351" 
d="M329 1407h232l-155 -877q-22 -125 -22 -182q0 -191 236 -191q190 0 267 127q41 66 72 246l155 877h231l-168 -956q-23 -130 -47 -195t-68 -120q-133 -165 -458 -165q-247 0 -362 97q-93 78 -93 242q0 75 25 219z" />
    <glyph glyph-name="V" unicode="V" horiz-adv-x="1170" 
d="M387 0l-234 1407h234l153 -1116l553 1116h246l-735 -1407h-217z" />
    <glyph glyph-name="W" unicode="W" horiz-adv-x="1764" 
d="M275 0l-95 1407h229l53 -1073l490 1073h188l113 -1091l419 1091h235l-593 -1407h-219l-105 1067l-485 -1067h-230z" />
    <glyph glyph-name="X" unicode="X" horiz-adv-x="1225" 
d="M522 753l-299 654h247l223 -492l377 492h273l-561 -683l330 -724h-247l-253 559l-451 -559h-277z" />
    <glyph glyph-name="Y" unicode="Y" horiz-adv-x="1128" 
d="M361 0l96 542l-313 865h249l216 -642l439 642h261l-621 -865l-95 -542h-232z" />
    <glyph glyph-name="Z" unicode="Z" horiz-adv-x="1079" 
d="M-61 0l23 153l894 1065h-627l47 189h888l-14 -153l-894 -1065h742l-46 -189h-1013z" />
    <glyph glyph-name="bracketleft" unicode="[" horiz-adv-x="857" 
d="M889 1544l-29 -168h-181l-275 -1561h181l-30 -165h-412l334 1894h412z" />
    <glyph glyph-name="backslash" unicode="\" horiz-adv-x="573" 
d="M294 0l-156 1407h220l155 -1407h-219z" />
    <glyph glyph-name="bracketright" unicode="]" horiz-adv-x="857" 
d="M6 -350l29 165h181l276 1561h-181l29 168h412l-334 -1894h-412z" />
    <glyph glyph-name="asciicircum" unicode="^" 
d="M691 1126l-361 -458h-269l613 763h129l344 -763h-257z" />
    <glyph glyph-name="underscore" unicode="_" horiz-adv-x="1024" 
d="M-242 -403l25 143h1194l-25 -143h-1194z" />
    <glyph glyph-name="grave" unicode="`" horiz-adv-x="1024" 
d="M798 1118h-171l-238 311h277z" />
    <glyph glyph-name="a" unicode="a" horiz-adv-x="1130" 
d="M906 0h-221l6 102q-132 -131 -296 -131q-70 0 -135.5 23.5t-107.5 64.5q-88 85 -88 260q0 122 37 249.5t99 219.5q153 226 447 226q174 0 398 -74l-99 -557q-40 -229 -40 -383zM799 797q-72 38 -157 38q-185 0 -279 -191q-71 -143 -71 -311q0 -183 160 -183
q122 0 209 106q54 65 74 180z" />
    <glyph glyph-name="b" unicode="b" horiz-adv-x="1136" 
d="M90 72l242 1374l229 46l-104 -591q123 113 281 113q162 0 246 -97t84 -276q0 -118 -34 -240.5t-91 -211.5q-80 -125 -198 -177q-96 -41 -228 -41q-210 0 -427 101zM334 205q71 -55 177 -55q174 0 263 180q66 134 66 287q0 218 -158 218q-124 0 -212 -106
q-55 -66 -75 -179z" />
    <glyph glyph-name="c" unicode="c" horiz-adv-x="903" 
d="M760 226l41 -172q-139 -83 -316 -83q-413 0 -413 403q0 151 53 288q137 352 503 352q167 0 296 -72l-80 -166q-104 59 -204 59q-173 0 -265 -159q-75 -129 -75 -288q0 -238 232 -238q104 0 228 76z" />
    <glyph glyph-name="d" unicode="d" horiz-adv-x="1136" 
d="M836 973l83 473l229 46l-263 -1492h-176l-3 114q-134 -143 -310 -143q-147 0 -234 81q-97 91 -97 275q0 121 34.5 242.5t93.5 211.5q155 233 431 233q58 0 96.5 -7.5t115.5 -33.5zM802 782q-68 53 -163 53q-183 0 -278 -191q-68 -138 -68 -297q0 -197 164 -197
q121 0 210 106q54 66 74 180z" />
    <glyph glyph-name="e" unicode="e" horiz-adv-x="995" 
d="M298 387q-1 -10 -1 -15q0 -58 22 -121q39 -111 216 -111q76 0 136.5 19t143.5 69l50 -163q-177 -94 -377 -94q-206 0 -301 87q-110 100 -110 305q0 117 35 234.5t95 203.5q151 213 427 213q164 0 248 -78q69 -64 69 -184q0 -108 -59.5 -177t-192.5 -112
q-111 -37 -401 -76zM315 544q188 22 299 61q74 27 106 61t32 85q0 103 -125 103q-244 0 -312 -310z" />
    <glyph glyph-name="f" unicode="f" horiz-adv-x="686" 
d="M262 803h-190l46 182h175l26 146q30 172 95 250q88 104 257 104q112 0 217 -46l-78 -162q-67 26 -117 26q-73 0 -109.5 -45t-56.5 -158l-21 -115h258l-46 -182h-243l-160 -903q-33 -183 -97 -266q-88 -113 -253 -113q-102 0 -199 39l78 162q57 -19 100 -19
q68 0 103.5 44.5t55.5 157.5z" />
    <glyph glyph-name="g" unicode="g" horiz-adv-x="1123" 
d="M667 85q-67 -62 -129.5 -88t-143.5 -26q-145 0 -233 78q-97 85 -97 269q0 120 35 243t96 216q154 237 450 237q176 0 394 -74l-137 -777q-50 -283 -114 -407q-121 -235 -444 -235q-202 0 -353 76l88 169q114 -71 262 -71q145 0 214 73t103 263zM793 797q-73 38 -155 38
q-182 0 -275 -191q-32 -64 -51.5 -151.5t-19.5 -163.5q0 -179 158 -179q120 0 206 106q53 66 73 180z" />
    <glyph glyph-name="h" unicode="h" horiz-adv-x="1180" 
d="M78 0l255 1446l229 46l-111 -629q98 83 175 117t168 34q133 0 206 -62q66 -56 66 -154q0 -63 -23 -194l-107 -604h-220l106 604q12 68 12 111q0 106 -117 106q-73 0 -159.5 -51.5t-146.5 -131.5l-112 -638h-221z" />
    <glyph glyph-name="i" unicode="i" horiz-adv-x="569" 
d="M87 0l174 985h220l-173 -985h-221zM424 1410q55 0 94.5 -40t39.5 -96q0 -57 -39.5 -97t-96.5 -40t-96.5 40t-39.5 98q0 56 40.5 95.5t97.5 39.5z" />
    <glyph glyph-name="j" unicode="j" horiz-adv-x="573" 
d="M265 985h220l-162 -920q-38 -216 -105 -328t-229 -230l-90 87q87 110 122 185q50 110 94 359zM428 1410q55 0 94.5 -40t39.5 -96q0 -57 -39.5 -97t-96.5 -40t-96.5 40t-39.5 98q0 56 40.5 95.5t97.5 39.5z" />
    <glyph glyph-name="k" unicode="k" horiz-adv-x="1100" 
d="M88 0l255 1445l229 48l-147 -831q226 96 314 161.5t120 161.5h227q-28 -88 -72.5 -147t-125.5 -116q-105 -74 -262 -145l420 -577h-248l-347 503l-57 -23l-85 -480h-221z" />
    <glyph glyph-name="l" unicode="l" horiz-adv-x="566" 
d="M86 0l255 1446l229 46l-263 -1492h-221z" />
    <glyph glyph-name="m" unicode="m" horiz-adv-x="1767" 
d="M78 0l174 985h182l-7 -137q92 89 173 127.5t173 38.5q69 0 129 -19.5t88 -51.5q26 -30 45 -98q175 169 351 169q134 0 206 -68q59 -55 59 -150q0 -69 -23 -201l-105 -595h-221l107 604q11 65 11 116q0 101 -104 101q-67 0 -149 -51.5t-144 -131.5l-112 -638h-221l106 600
q12 69 12 120q0 101 -105 101q-67 0 -148.5 -51.5t-143.5 -131.5l-112 -638h-221z" />
    <glyph glyph-name="n" unicode="n" horiz-adv-x="1180" 
d="M78 0l174 985h182l-7 -137q178 166 369 166q140 0 213 -71q56 -55 56 -149q0 -63 -24 -199l-105 -595h-220l105 598q14 80 14 115q0 106 -118 106q-70 0 -156.5 -51t-149.5 -130l-112 -638h-221z" />
    <glyph glyph-name="o" unicode="o" horiz-adv-x="1118" 
d="M629 1014q197 0 306 -107q109 -106 109 -306q0 -113 -35 -228.5t-94 -197.5q-148 -204 -420 -204q-203 0 -309 102q-53 50 -82.5 132t-29.5 177q0 113 35 229t94 198q148 205 426 205zM617 835q-167 0 -253 -174q-62 -125 -62 -277q0 -234 203 -234q163 0 249 174
q62 126 62 279q0 107 -49 168q-51 64 -150 64z" />
    <glyph glyph-name="p" unicode="p" horiz-adv-x="1136" 
d="M-7 -483l258 1468h180v-114q134 143 309 143q152 0 240 -90q91 -94 91 -275q0 -113 -33 -234.5t-87 -210.5q-144 -233 -429 -233q-125 0 -220 46l-81 -458zM335 207q69 -57 167 -57q184 0 275 191q66 140 66 284q0 210 -164 210q-120 0 -209 -106q-55 -65 -75 -179z" />
    <glyph glyph-name="q" unicode="q" horiz-adv-x="1136" 
d="M1051 940l-244 -1381l-228 -42l100 566q-124 -112 -278 -112q-69 0 -135 22.5t-107 61.5q-95 86 -95 266q0 122 37 249.5t99 217.5q156 226 453 226q179 0 398 -74zM805 797q-74 38 -163 38q-184 0 -279 -191q-71 -142 -71 -309q0 -185 165 -185q123 0 210 106
q54 65 74 180z" />
    <glyph glyph-name="r" unicode="r" horiz-adv-x="771" 
d="M78 0l174 985h182l-13 -171q212 197 441 188l-49 -192q-242 -13 -408 -205l-106 -605h-221z" />
    <glyph glyph-name="s" unicode="s" horiz-adv-x="836" 
d="M-32 59l86 169q85 -50 144.5 -69t129.5 -19q83 0 131.5 40.5t48.5 110.5q0 43 -26 68q-18 18 -129 81q-125 70 -173 127q-53 62 -53 148q0 136 99.5 217.5t265.5 81.5q164 0 304 -66l-80 -162q-99 59 -216 59q-148 0 -148 -117q0 -38 25.5 -61t149.5 -96
q112 -66 159 -126.5t47 -139.5q0 -61 -26 -124t-70 -107q-102 -103 -320 -103q-209 0 -349 88z" />
    <glyph glyph-name="t" unicode="t" horiz-adv-x="732" 
d="M254 806h-169l45 179h163l56 246l213 71l-56 -317h237l-46 -179h-222l-77 -437q-19 -106 -19 -149q0 -71 88 -71q64 0 132 38l45 -166q-137 -50 -263 -50q-231 0 -231 187q0 58 21 178z" />
    <glyph glyph-name="u" unicode="u" horiz-adv-x="1154" 
d="M714 119q-158 -148 -335 -148q-124 0 -192.5 59t-68.5 167q0 73 24 208l102 580h221l-102 -576q-15 -86 -15 -138q0 -108 112 -108q66 0 141.5 38t134.5 101l120 683h221l-174 -985h-191z" />
    <glyph glyph-name="v" unicode="v" horiz-adv-x="1007" 
d="M290 0l-182 985h225l114 -757q285 317 285 488q0 44 -18 76.5t-68 79.5l138 145q91 -66 133.5 -129t42.5 -134q0 -82 -40 -172t-132 -213q-129 -175 -311 -369h-187z" />
    <glyph glyph-name="w" unicode="w" horiz-adv-x="1561" 
d="M266 0l-148 985h225l77 -720l336 720h185l129 -744q233 313 233 474q0 45 -18 77t-70 80l131 145q92 -65 134.5 -128.5t42.5 -135.5q0 -81 -35.5 -170.5t-117.5 -213.5q-115 -176 -277 -369h-186l-105 704l-328 -704h-208z" />
    <glyph glyph-name="x" unicode="x" horiz-adv-x="1052" 
d="M406 518l-277 467h245l191 -326l280 326h263l-450 -477l301 -508h-245l-214 367l-332 -367h-258z" />
    <glyph glyph-name="y" unicode="y" horiz-adv-x="1007" 
d="M302 1l-212 984h225l145 -773q17 22 110 144q71 92 117.5 195.5t46.5 167.5q0 42 -18.5 74t-68.5 79l138 145q93 -66 135 -129.5t42 -137.5q0 -102 -61.5 -223t-219.5 -328q-194 -256 -280.5 -390.5t-160.5 -299.5l-207 73q122 208 156 261t113 158z" />
    <glyph glyph-name="z" unicode="z" horiz-adv-x="887" 
d="M-2 0l-24 159l611 647h-62q-241 0 -384 40l60 180q170 -41 458 -41h192l31 -143l-620 -663q72 6 125 6q241 0 442 -81l-76 -174q-119 44 -224 60.5t-267 16.5q-90 0 -262 -7z" />
    <glyph glyph-name="braceleft" unicode="{" horiz-adv-x="857" 
d="M433 651q97 -45 97 -146q0 -30 -24 -168l-43 -243q-22 -124 -22 -181q0 -66 38.5 -92.5t135.5 -26.5h41l-26 -144h-135q-119 0 -181 25q-105 42 -105 193q0 63 30 235l45 255q6 34 17 90q7 37 7 62q0 87 -130 87h-26l19 108h26q89 0 128 39q22 22 32 54t31 146l39 221
q25 144 48 203t70 101q45 41 109 58t175 17h135l-25 -144h-41q-78 0 -118.5 -14.5t-67.5 -52.5q-41 -58 -72 -234l-24 -134q-25 -141 -39.5 -181.5t-53.5 -76.5q-34 -31 -90 -56z" />
    <glyph glyph-name="bar" unicode="|" horiz-adv-x="1024" 
d="M242 -408l320 1815h221l-320 -1815h-221z" />
    <glyph glyph-name="braceright" unicode="}" horiz-adv-x="857" 
d="M481 651q-96 50 -96 145q0 33 24 168l23 136q21 116 21 182q0 65 -38.5 91.5t-134.5 26.5h-41l26 144h125q122 0 187 -25q108 -41 108 -193q0 -70 -29 -235l-26 -148q-8 -46 -14 -75q-9 -46 -9 -76q0 -87 129 -87h26l-19 -108h-26q-89 0 -127 -39q-23 -22 -33.5 -55.5
t-29.5 -144.5l-58 -329q-26 -144 -48.5 -202.5t-69.5 -101.5q-45 -41 -109.5 -58t-174.5 -17h-136l25 144h41q78 0 118.5 14.5t67.5 52.5q42 58 73 234l42 242q25 140 39 179.5t53 76.5t91 58z" />
    <glyph glyph-name="asciitilde" unicode="~" 
d="M274 541l-153 38q59 141 114 202q92 101 220 101q59 0 100.5 -16t107.5 -64q59 -42 87.5 -56t56.5 -14q42 0 75 29t80 110l147 -47q-56 -123 -110 -182q-95 -105 -223 -105q-61 0 -101 18.5t-141 90.5q-57 41 -105 41q-43 0 -78 -32.5t-77 -113.5z" />
    <glyph glyph-name="nonbreakingspace" unicode="&#xa0;" horiz-adv-x="492" 
 />
    <glyph glyph-name="exclamdown" unicode="&#xa1;" horiz-adv-x="725" 
d="M474 573l-146 -994h-253l204 994h195zM431 1014q58 0 100.5 -43t42.5 -103t-42.5 -102.5t-103.5 -42.5q-60 0 -102.5 42.5t-42.5 103.5q0 60 43 102.5t105 42.5z" />
    <glyph glyph-name="cent" unicode="&#xa2;" 
d="M510 352q-374 39 -374 399q0 193 91 358q146 262 466 280l35 201h121l-36 -204q115 -12 219 -68l-80 -166q-88 50 -170 58l-120 -683q55 4 95.5 19t110.5 56l40 -172q-124 -74 -278 -81l-46 -261h-121zM542 537l118 665q-99 -21 -173 -100q-55 -60 -89 -153t-34 -186
q0 -130 88 -190q26 -18 90 -36z" />
    <glyph glyph-name="sterling" unicode="&#xa3;" 
d="M556 798h274l-46 -179h-259l-77 -436h593l-47 -183h-960l47 183h140l77 436h-187l46 179h172l33 188q21 116 48 179t82 118q130 131 370 131q195 0 369 -88l-101 -172q-128 74 -252 74q-133 0 -202 -69.5t-97 -232.5z" />
    <glyph glyph-name="currency" unicode="&#xa4;" 
d="M176 106l-114 116l177 184q-80 121 -80 257q0 135 80 255l-177 185l114 115l177 -186q118 76 252 76q74 0 128.5 -16.5t121.5 -59.5l176 186l114 -115l-176 -185q78 -123 78 -256t-78 -256l176 -184l-114 -116l-176 186q-67 -42 -122 -58.5t-129 -16.5t-129.5 16.5
t-121.5 58.5zM607 939q-119 0 -188 -83q-62 -74 -62 -194q0 -119 62 -193q69 -83 184 -83t184 83q62 74 62 193q0 120 -62 194q-69 83 -180 83z" />
    <glyph glyph-name="yen" unicode="&#xa5;" 
d="M367 0l53 304h-353l32 125h343l19 106l-11 31h-337l32 125h264l-239 716h243l201 -643l426 643h254l-494 -716h275l-32 -125h-329l-22 -31l-18 -106h355l-32 -125h-345l-54 -304h-231z" />
    <glyph glyph-name="brokenbar" unicode="&#xa6;" horiz-adv-x="1024" 
d="M462 838l100 569h221l-100 -569h-221zM314 0l95 536h220l-94 -536h-221z" />
    <glyph glyph-name="section" unicode="&#xa7;" 
d="M52 -122l104 172q147 -96 296 -96q120 0 176 58q48 50 48 117q0 54 -43 83q-34 24 -175 69q-167 55 -226 112q-65 62 -65 172q0 206 213 315q-68 64 -68 186q0 154 109 267q108 112 316 112q188 0 348 -89l-101 -162q-126 77 -240 77q-104 0 -157 -55q-47 -49 -47 -114
q0 -61 47 -93q35 -23 163 -66q161 -54 218 -110q64 -63 64 -174q0 -191 -198 -304q70 -70 70 -185q0 -158 -105 -270q-114 -120 -338 -120q-221 0 -409 98zM696 417q9 7 14 11q43 31 55 43t27 40q28 52 28 104q0 56 -48 91q-14 11 -137 58l-122 49q-68 -44 -89 -73
q-45 -61 -45 -129q0 -56 38 -86q30 -24 151 -64z" />
    <glyph glyph-name="dieresis" unicode="&#xa8;" horiz-adv-x="1024" 
d="M463 1404q53 0 90.5 -38.5t37.5 -91.5q0 -55 -38 -93t-92 -38t-92 38.5t-38 93.5q0 54 38.5 91.5t93.5 37.5zM841 1404q53 0 90.5 -38.5t37.5 -91.5q0 -55 -38 -93t-92 -38t-92 38.5t-38 93.5q0 54 38.5 91.5t93.5 37.5z" />
    <glyph glyph-name="copyright" unicode="&#xa9;" horiz-adv-x="1718" 
d="M1123 506l57 -110q-104 -66 -249 -66q-186 0 -277 106q-82 95 -82 263q0 186 95 289.5t265 103.5q127 0 234 -57l-56 -112q-87 43 -153 43q-89 0 -140 -69t-51 -190q0 -122 50 -186.5t145 -64.5q85 0 162 50zM907 1464q318 0 532 -215q214 -216 214 -541
q0 -323 -214 -540q-213 -215 -542 -215q-330 0 -543 215q-214 217 -214 539q0 228 112 411q103 170 283 263q160 83 372 83zM905 1361q-291 0 -472 -197q-168 -183 -168 -457q0 -270 168 -453q180 -198 463 -198q284 0 464 198q168 183 168 454q0 277 -168 456
q-185 197 -455 197z" />
    <glyph glyph-name="ordfeminine" unicode="&#xaa;" horiz-adv-x="737" 
d="M699 808h-156v55q-78 -69 -173 -69q-101 0 -156 54t-55 154q0 162 86 283q96 137 285 137q106 0 258 -43l-64 -339q-25 -135 -25 -232zM606 1282q-44 20 -87 20q-99 0 -152 -109q-40 -83 -40 -180q0 -99 83 -99q60 0 101 40.5t55 112.5z" />
    <glyph glyph-name="guillemotleft" unicode="&#xab;" horiz-adv-x="1006" 
d="M764 525l129 -277l-124 -77l-272 344l9 52l394 344l90 -109zM344 525l128 -277l-124 -77l-272 344l9 52l394 344l90 -109z" />
    <glyph glyph-name="logicalnot" unicode="&#xac;" 
d="M144 624l32 178h875l-104 -593h-221l73 415h-655z" />
    <glyph glyph-name="uni00AD" unicode="&#xad;" horiz-adv-x="760" 
d="M82 541l66 199h583l-66 -199h-583z" />
    <glyph glyph-name="registered" unicode="&#xae;" horiz-adv-x="1266" 
d="M546 735v557h180q123 0 177 -38.5t54 -125.5q0 -62 -25 -96.5t-87 -55.5q18 -17 45 -66l97 -175h-133l-73 141q-30 57 -41 69.5t-33 12.5h-42v-223h-119zM665 1037h59q61 0 86 19t25 65q0 47 -25 66t-86 19h-59v-169zM732 1564q223 0 378 -147q166 -157 166 -404
q0 -245 -166 -403q-154 -147 -385 -147q-230 0 -385 147q-166 158 -166 402q0 251 166 405q159 147 392 147zM731 1474q-203 0 -327 -128q-126 -132 -126 -334q0 -199 126 -331q123 -128 321 -128t321 128q126 132 126 332t-126 333q-122 128 -315 128z" />
    <glyph glyph-name="macron" unicode="&#xaf;" horiz-adv-x="1024" 
d="M322 1184l30 169h625l-30 -169h-625z" />
    <glyph glyph-name="degree" unicode="&#xb0;" horiz-adv-x="586" 
d="M421 1438q106 0 176 -67q71 -68 71 -171t-71 -170.5t-179 -67.5q-109 0 -178 67q-72 69 -72 170q0 105 71 172t182 67zM419 1320q-54 0 -84 -31.5t-30 -88.5q0 -56 30 -87.5t83 -31.5t83 32t30 88q0 55 -30 87t-82 32z" />
    <glyph glyph-name="plusminus" unicode="&#xb1;" 
d="M127 628l52 189h353l65 370h211l-65 -370h372l-53 -189h-352l-62 -352h-211l62 352h-372zM16 0l54 189h922l-54 -189h-922z" />
    <glyph glyph-name="twosuperior" unicode="&#xb2;" horiz-adv-x="737" 
d="M105 762l20 115l328 286q182 159 182 252q0 90 -117 90q-91 0 -245 -87l-38 126q89 49 157 68.5t152 19.5q271 0 271 -202q0 -92 -51.5 -169t-187.5 -190l-219 -181h383l-22 -128h-613z" />
    <glyph glyph-name="threesuperior" unicode="&#xb3;" horiz-adv-x="737" 
d="M348 1149l21 121h51q89 0 140 41q55 44 55 110q0 81 -112 81q-86 0 -225 -63l-35 121q88 40 149.5 54.5t138.5 14.5q259 0 259 -182q0 -79 -35.5 -131.5t-113.5 -87.5q121 -50 121 -170q0 -147 -103 -229.5t-286 -82.5q-170 0 -278 68l72 121q104 -62 202 -62
q129 0 182 74q32 44 32 95q0 57 -39 82t-128 25h-68z" />
    <glyph glyph-name="acute" unicode="&#xb4;" horiz-adv-x="1024" 
d="M479 1118l242 311h285l-347 -311h-180z" />
    <glyph glyph-name="mu" unicode="&#xb5;" horiz-adv-x="1141" 
d="M-20 -483l259 1468h220l-112 -639q-11 -61 -11 -83q0 -52 24.5 -76t78.5 -24q126 0 292 142l120 680h220l-173 -985h-200l6 122q-154 -145 -303 -145q-60 0 -114 28l-79 -446z" />
    <glyph glyph-name="paragraph" unicode="&#xb6;" horiz-adv-x="1383" 
d="M347 -409l187 1061h-51q-126 0 -182 25q-76 33 -119 108q-47 81 -47 186q0 118 59 223t156 159q86 47 208 52q37 2 180 2h532l-320 -1816h-216l287 1627h-171l-287 -1627h-216z" />
    <glyph glyph-name="glyph121" unicode="&#xb7;" horiz-adv-x="573" 
d="M314 778q59 0 101 -43t42 -102q0 -61 -42.5 -103.5t-102.5 -42.5q-61 0 -103.5 43t-42.5 104q0 60 43 102t105 42z" />
    <glyph glyph-name="cedilla" unicode="&#xb8;" horiz-adv-x="1024" 
d="M425 20h134l-113 -146q100 -10 146.5 -50.5t46.5 -117.5q0 -107 -78 -169.5t-211 -62.5q-104 0 -221 49l62 110q66 -31 135 -31q55 0 89 30t34 79q0 39 -37 59t-118 24l-14 42z" />
    <glyph glyph-name="onesuperior" unicode="&#xb9;" horiz-adv-x="737" 
d="M356 762l124 701l-153 -45l-19 113l244 81h129l-150 -850h-175z" />
    <glyph glyph-name="ordmasculine" unicode="&#xba;" horiz-adv-x="737" 
d="M519 1422q138 0 207 -73q62 -66 62 -183q0 -71 -23.5 -142t-62.5 -118q-92 -112 -260 -112q-130 0 -198 59q-76 67 -76 194q0 72 23.5 144t62.5 120q92 111 265 111zM514 1302q-92 0 -142 -98q-36 -72 -36 -156q0 -134 107 -134q91 0 141 98q36 72 36 158q0 132 -106 132
z" />
    <glyph glyph-name="guillemotright" unicode="&#xbb;" horiz-adv-x="1006" 
d="M259 557l-129 276l124 78l272 -344l-9 -52l-393 -344l-91 109zM680 557l-129 276l124 78l272 -344l-9 -52l-393 -344l-91 109z" />
    <glyph glyph-name="onequarter" unicode="&#xbc;" horiz-adv-x="1720" 
d="M288 557l124 699l-153 -45l-19 114l244 82h129l-150 -850h-175zM1241 200h-382l21 115l478 535h170l-92 -523h126l-32 -127h-116l-36 -200h-173zM1272 319l62 350l-300 -350h238zM237 0l970 1407h173l-970 -1407h-173z" />
    <glyph glyph-name="onehalf" unicode="&#xbd;" horiz-adv-x="1720" 
d="M289 557l124 699l-153 -45l-19 114l244 82h129l-150 -850h-175zM890 0l20 117l327 285q97 84 140.5 143.5t43.5 107.5q0 88 -117 88q-94 0 -247 -87l-37 128q157 88 309 88q271 0 271 -202q0 -92 -52.5 -171.5t-186.5 -188.5l-219 -178h383l-22 -130h-613zM215 0
l970 1407h173l-970 -1407h-173z" />
    <glyph glyph-name="threequarters" unicode="&#xbe;" horiz-adv-x="1720" 
d="M329 943l21 122h51q89 0 140 41q55 44 55 109q0 80 -111 80q-86 0 -226 -63l-35 123q150 69 287 69q260 0 260 -183q0 -79 -35.5 -131t-113.5 -87q121 -50 121 -170q0 -146 -103.5 -229t-286.5 -83q-170 0 -277 68l72 122q102 -61 202 -61q128 0 181 73q32 44 32 94
q0 56 -39 81t-127 25h-68zM1293 200h-381l20 115l479 535h170l-93 -523h127l-32 -127h-117l-35 -200h-173zM1325 319l62 350l-300 -350h238zM350 0l970 1407h174l-970 -1407h-174z" />
    <glyph glyph-name="questiondown" unicode="&#xbf;" horiz-adv-x="933" 
d="M425 575h213l-15 -83q-20 -115 -56 -168t-172 -169q-115 -98 -159.5 -164.5t-44.5 -137.5q0 -124 164 -124q150 0 335 110l52 -169q-210 -120 -446 -120q-202 0 -287 92q-57 62 -57 160q0 137 78 257q47 72 192 196q128 110 153 143t38 110zM583 1015q61 0 103.5 -42.5
t42.5 -104.5q0 -60 -43 -102t-105 -42q-59 0 -101 43t-42 102q0 61 42.5 103.5t102.5 42.5z" />
    <glyph glyph-name="Agrave" unicode="&#xc0;" horiz-adv-x="1329" 
d="M945 379h-590l-214 -379h-250l828 1407h214l332 -1407h-238zM909 562l-125 581l-328 -581h453zM940 1536h-171l-238 311h277z" />
    <glyph glyph-name="Aacute" unicode="&#xc1;" horiz-adv-x="1329" 
d="M945 379h-590l-214 -379h-250l828 1407h214l332 -1407h-238zM909 562l-125 581l-328 -581h453zM720 1536l242 311h285l-347 -311h-180z" />
    <glyph glyph-name="Acircumflex" unicode="&#xc2;" horiz-adv-x="1329" 
d="M945 379h-590l-214 -379h-250l828 1407h214l332 -1407h-238zM909 562l-125 581l-328 -581h453zM860 1707l-195 -171h-225l319 311h240l209 -311h-213z" />
    <glyph glyph-name="Atilde" unicode="&#xc3;" horiz-adv-x="1329" 
d="M945 379h-590l-214 -379h-250l828 1407h214l332 -1407h-238zM909 562l-125 581l-328 -581h453zM1106 1834h144q-28 -97 -63 -161q-77 -140 -210 -140q-94 0 -168 82q-35 40 -52 52.5t-36 12.5q-31 0 -63 -37t-53 -97h-144q37 115 81 181q77 120 198 120q91 0 162 -75
q46 -50 61 -61t35 -11q61 0 108 134z" />
    <glyph glyph-name="Adieresis" unicode="&#xc4;" horiz-adv-x="1329" 
d="M945 379h-590l-214 -379h-250l828 1407h214l332 -1407h-238zM909 562l-125 581l-328 -581h453zM648 1822q53 0 90.5 -38.5t37.5 -91.5q0 -55 -38 -93t-92 -38t-92 38.5t-38 93.5q0 54 38.5 91.5t93.5 37.5zM1059 1822q53 0 90.5 -38.5t37.5 -91.5q0 -55 -38 -93t-92 -38
t-92 38t-38 94q0 54 38.5 91.5t93.5 37.5z" />
    <glyph glyph-name="Aring" unicode="&#xc5;" horiz-adv-x="1329" 
d="M945 379h-590l-214 -379h-250l828 1407h214l332 -1407h-238zM909 562l-125 581l-328 -581h453zM854 1876q103 0 164 -53q65 -55 65 -147q0 -93 -64 -149t-168 -56t-167 55q-65 58 -65 150t63 146t172 54zM852 1781q-102 0 -102 -108q0 -107 100 -107q102 0 102 107
q0 108 -100 108z" />
    <glyph glyph-name="AE" unicode="&#xc6;" horiz-adv-x="1767" 
d="M822 376h-496l-265 -376h-250l1009 1407h1017l-48 -189h-587l-68 -381h474l-46 -179h-459l-83 -469h623l-46 -189h-842zM855 565l115 653h-56l-455 -653h396z" />
    <glyph glyph-name="Ccedilla" unicode="&#xc7;" horiz-adv-x="1150" 
d="M988 261l72 -180q-174 -109 -410 -109l-74 -98q100 -10 146.5 -50.5t46.5 -117.5q0 -107 -78 -169.5t-211 -62.5q-105 0 -221 49l61 110q66 -31 136 -31q55 0 89 30t34 79q0 75 -155 83l-14 42l115 146q-126 21 -218 79q-97 62 -147 177q-51 117 -51 269q0 240 91 462
q101 246 289 366q157 101 369 101q232 0 389 -112l-108 -168q-123 94 -277 94q-264 0 -404 -267q-50 -95 -80 -223.5t-30 -245.5q0 -356 332 -356q155 0 308 103z" />
    <glyph glyph-name="Egrave" unicode="&#xc8;" horiz-adv-x="1133" 
d="M89 0l248 1407h867l-48 -189h-621l-67 -381h506l-45 -179h-493l-82 -469h656l-46 -189h-875zM940 1536h-171l-237 311h276z" />
    <glyph glyph-name="Eacute" unicode="&#xc9;" horiz-adv-x="1133" 
d="M89 0l248 1407h867l-48 -189h-621l-67 -381h506l-45 -179h-493l-82 -469h656l-46 -189h-875zM662 1536l242 311h285l-347 -311h-180z" />
    <glyph glyph-name="Ecircumflex" unicode="&#xca;" horiz-adv-x="1133" 
d="M89 0l248 1407h867l-48 -189h-621l-67 -381h506l-45 -179h-493l-82 -469h656l-46 -189h-875zM812 1707l-195 -171h-225l318 311h240l210 -311h-213z" />
    <glyph glyph-name="Edieresis" unicode="&#xcb;" horiz-adv-x="1133" 
d="M89 0l248 1407h867l-48 -189h-621l-67 -381h506l-45 -179h-493l-82 -469h656l-46 -189h-875zM596 1822q53 0 90.5 -38.5t37.5 -91.5q0 -55 -38 -93t-92 -38t-92 38.5t-38 93.5q0 54 38.5 91.5t93.5 37.5zM1008 1822q53 0 90.5 -38.5t37.5 -91.5q0 -55 -38 -93t-92 -38
t-92 38.5t-38 93.5q0 54 38.5 91.5t93.5 37.5z" />
    <glyph glyph-name="Igrave" unicode="&#xcc;" horiz-adv-x="617" 
d="M106 0l248 1407h232l-249 -1407h-231zM601 1536h-171l-238 311h277z" />
    <glyph glyph-name="Iacute" unicode="&#xcd;" horiz-adv-x="617" 
d="M106 0l248 1407h232l-249 -1407h-231zM377 1536l242 311h285l-347 -311h-180z" />
    <glyph glyph-name="Icircumflex" unicode="&#xce;" horiz-adv-x="617" 
d="M98 0l249 1407h231l-248 -1407h-232zM507 1707l-195 -171h-225l318 311h240l209 -311h-212z" />
    <glyph glyph-name="Idieresis" unicode="&#xcf;" horiz-adv-x="617" 
d="M106 0l248 1407h232l-249 -1407h-231zM300 1822q53 0 90.5 -38.5t37.5 -91.5q0 -55 -38 -93t-92 -38t-92 38.5t-38 93.5q0 54 38.5 91.5t93.5 37.5zM711 1822q53 0 90.5 -38.5t37.5 -91.5q0 -55 -38 -93t-92 -38t-92 38.5t-38 93.5q0 54 38.5 91.5t93.5 37.5z" />
    <glyph glyph-name="Eth" unicode="&#xd0;" horiz-adv-x="1338" 
d="M201 636h-161l44 174h148l105 597h369q289 0 423 -97q170 -123 170 -420q0 -126 -28.5 -261.5t-77.5 -239.5q-111 -239 -317 -327q-144 -62 -368 -62h-419zM432 636l-78 -447h125q109 0 171 10.5t119 39.5q149 75 228 286q63 168 63 342q0 250 -158 317q-80 34 -258 34
h-109l-72 -408h353l-44 -174h-340z" />
    <glyph glyph-name="Ntilde" unicode="&#xd1;" horiz-adv-x="1442" 
d="M89 0l248 1407h214l476 -1040l183 1040h217l-248 -1407h-210l-480 1040l-183 -1040h-217zM1200 1834h144q-28 -96 -63 -161q-77 -140 -210 -140q-94 0 -168 82q-36 40 -53 52.5t-36 12.5q-31 0 -63 -37t-53 -97h-144q38 115 81 181q78 120 199 120q90 0 161 -75
q47 -50 62 -61t35 -11q61 0 108 134z" />
    <glyph glyph-name="Ograve" unicode="&#xd2;" horiz-adv-x="1409" 
d="M837 1436q162 0 290 -64q134 -67 193 -210q51 -122 51 -274q0 -159 -44.5 -325.5t-118.5 -285.5q-100 -161 -240 -236q-131 -70 -316 -70q-261 0 -396 129q-70 67 -106 172q-39 117 -39 246q0 174 54 360q162 558 672 558zM830 1250q-252 0 -380 -269q-44 -92 -72 -226.5
t-28 -251.5q0 -170 83 -262q75 -84 224 -84q152 0 254 94q119 110 178 335q43 166 43 315q0 172 -83 263q-78 86 -219 86zM1050 1536h-172l-237 311h277z" />
    <glyph glyph-name="Oacute" unicode="&#xd3;" horiz-adv-x="1409" 
d="M837 1436q162 0 290 -64q134 -67 193 -210q51 -122 51 -274q0 -159 -44.5 -325.5t-118.5 -285.5q-100 -161 -240 -236q-131 -70 -316 -70q-261 0 -396 129q-70 67 -106 172q-39 117 -39 246q0 174 54 360q162 558 672 558zM830 1250q-252 0 -380 -269q-44 -92 -72 -226.5
t-28 -251.5q0 -170 83 -262q75 -84 224 -84q152 0 254 94q119 110 178 335q43 166 43 315q0 172 -83 263q-78 86 -219 86zM758 1536l242 311h285l-347 -311h-180z" />
    <glyph glyph-name="Ocircumflex" unicode="&#xd4;" horiz-adv-x="1409" 
d="M837 1436q162 0 290 -64q134 -67 193 -210q51 -122 51 -274q0 -159 -44.5 -325.5t-118.5 -285.5q-100 -161 -240 -236q-131 -70 -316 -70q-261 0 -396 129q-70 67 -106 172q-39 117 -39 246q0 174 54 360q162 558 672 558zM830 1250q-252 0 -380 -269q-44 -92 -72 -226.5
t-28 -251.5q0 -170 83 -262q75 -84 224 -84q152 0 254 94q119 110 178 335q43 166 43 315q0 172 -83 263q-78 86 -219 86zM908 1707l-195 -171h-225l318 311h240l210 -311h-213z" />
    <glyph glyph-name="Otilde" unicode="&#xd5;" horiz-adv-x="1409" 
d="M837 1436q162 0 290 -64q134 -67 193 -210q51 -122 51 -274q0 -159 -44.5 -325.5t-118.5 -285.5q-100 -161 -240 -236q-131 -70 -316 -70q-261 0 -396 129q-70 67 -106 172q-39 117 -39 246q0 174 54 360q162 558 672 558zM830 1250q-252 0 -380 -269q-44 -92 -72 -226.5
t-28 -251.5q0 -170 83 -262q75 -84 224 -84q152 0 254 94q119 110 178 335q43 166 43 315q0 172 -83 263q-78 86 -219 86zM1166 1834h144q-28 -96 -63 -161q-77 -140 -210 -140q-94 0 -168 82q-36 40 -53 52.5t-35 12.5q-32 0 -63.5 -36.5t-52.5 -97.5h-145q38 115 81 181
q78 120 199 120q91 0 161 -75q47 -50 62 -61t35 -11q61 0 108 134z" />
    <glyph glyph-name="Odieresis" unicode="&#xd6;" horiz-adv-x="1409" 
d="M837 1436q162 0 290 -64q134 -67 193 -210q51 -122 51 -274q0 -159 -44.5 -325.5t-118.5 -285.5q-100 -161 -240 -236q-131 -70 -316 -70q-261 0 -396 129q-70 67 -106 172q-39 117 -39 246q0 174 54 360q162 558 672 558zM830 1250q-252 0 -380 -269q-44 -92 -72 -226.5
t-28 -251.5q0 -170 83 -262q75 -84 224 -84q152 0 254 94q119 110 178 335q43 166 43 315q0 172 -83 263q-78 86 -219 86zM706 1822q53 0 90.5 -38.5t37.5 -91.5q0 -55 -38 -93t-92 -38t-92 38.5t-38 93.5q0 54 38.5 91.5t93.5 37.5zM1117 1822q53 0 90.5 -38.5t37.5 -91.5
q0 -55 -38 -93t-92 -38t-92 38.5t-38 93.5q0 54 38.5 91.5t93.5 37.5z" />
    <glyph glyph-name="multiply" unicode="&#xd7;" 
d="M465 704l-279 279l145 146l279 -279l278 277l145 -146l-277 -277l279 -280l-145 -145l-280 279l-274 -275l-145 147z" />
    <glyph glyph-name="Oslash" unicode="&#xd8;" horiz-adv-x="1409" 
d="M1309 1187q62 -138 62 -302q0 -156 -45 -323t-119 -285q-101 -162 -243 -236q-132 -70 -317 -70q-258 0 -401 142l-124 -126l-100 98l144 145q-55 128 -55 294q0 154 45.5 321t118.5 284q194 307 554 307q258 0 400 -136l134 136l96 -97zM1113 991l-706 -717
q79 -117 251 -117q285 0 404 341q62 177 62 351q0 81 -11 142zM363 427l705 713q-80 110 -244 110q-278 0 -400 -332q-68 -185 -68 -394q0 -39 7 -97z" />
    <glyph glyph-name="Ugrave" unicode="&#xd9;" horiz-adv-x="1351" 
d="M329 1407h232l-155 -877q-22 -125 -22 -182q0 -191 236 -191q190 0 267 127q41 66 72 246l155 877h231l-168 -956q-23 -130 -47 -195t-68 -120q-133 -165 -458 -165q-247 0 -362 97q-93 78 -93 242q0 75 25 219zM1018 1536h-171l-238 311h277z" />
    <glyph glyph-name="Uacute" unicode="&#xda;" horiz-adv-x="1351" 
d="M329 1407h232l-155 -877q-22 -125 -22 -182q0 -191 236 -191q190 0 267 127q41 66 72 246l155 877h231l-168 -956q-23 -130 -47 -195t-68 -120q-133 -165 -458 -165q-247 0 -362 97q-93 78 -93 242q0 75 25 219zM738 1536l241 311h286l-348 -311h-179z" />
    <glyph glyph-name="Ucircumflex" unicode="&#xdb;" horiz-adv-x="1351" 
d="M329 1407h232l-155 -877q-22 -125 -22 -182q0 -191 236 -191q190 0 267 127q41 66 72 246l155 877h231l-168 -956q-23 -130 -47 -195t-68 -120q-133 -165 -458 -165q-247 0 -362 97q-93 78 -93 242q0 75 25 219zM883 1707l-194 -171h-225l318 311h240l209 -311h-213z" />
    <glyph glyph-name="Udieresis" unicode="&#xdc;" horiz-adv-x="1351" 
d="M329 1407h232l-155 -877q-22 -125 -22 -182q0 -191 236 -191q190 0 267 127q41 66 72 246l155 877h231l-168 -956q-23 -130 -47 -195t-68 -120q-133 -165 -458 -165q-247 0 -362 97q-93 78 -93 242q0 75 25 219zM671 1822q53 0 90.5 -38.5t37.5 -91.5q0 -55 -38 -93
t-92 -38t-92 38.5t-38 93.5q0 54 38.5 91.5t93.5 37.5zM1082 1822q53 0 90.5 -38.5t37.5 -91.5q0 -55 -38 -93t-92 -38t-92 38.5t-38 93.5q0 54 38.5 91.5t93.5 37.5z" />
    <glyph glyph-name="Yacute" unicode="&#xdd;" horiz-adv-x="1128" 
d="M361 0l96 542l-313 865h249l216 -642l439 642h261l-621 -865l-95 -542h-232zM647 1536l241 311h286l-348 -311h-179z" />
    <glyph glyph-name="Thorn" unicode="&#xde;" horiz-adv-x="1173" 
d="M89 0l248 1407h232l-39 -215h114q267 0 378 -70q76 -47 111 -138q28 -71 28 -153q0 -104 -38.5 -205t-104.5 -170q-75 -79 -183 -115t-273 -36h-188l-54 -305h-231zM406 488h155q195 0 273 84q40 43 64 109.5t24 131.5q0 118 -75 161q-61 35 -193 35h-156z" />
    <glyph glyph-name="germandbls" unicode="&#xdf;" horiz-adv-x="1197" 
d="M443 16l85 186q90 -46 186 -46q98 0 142 62q38 53 38 117q0 50 -29 85t-148 131q-83 66 -83 169q0 74 35.5 130.5t119.5 117.5q73 52 99.5 93.5t26.5 101.5q0 125 -168 125q-152 0 -214 -115q-42 -77 -74 -260l-178 -1013q-32 -183 -97 -266q-88 -113 -253 -113
q-102 0 -199 39l78 162q58 -19 99 -19q78 0 114 62q25 44 42 140l183 1034q35 199 64 268q113 263 439 263q206 0 307 -92q80 -72 80 -190q0 -88 -41 -153.5t-139 -134.5q-58 -41 -77.5 -66t-19.5 -58q0 -48 68 -99q100 -74 138 -120q55 -67 55 -172q0 -76 -27 -155
t-72 -133q-102 -123 -310 -123q-135 0 -270 42z" />
    <glyph glyph-name="agrave" unicode="&#xe0;" horiz-adv-x="1130" 
d="M906 0h-221l6 102q-132 -131 -296 -131q-70 0 -135.5 23.5t-107.5 64.5q-88 85 -88 260q0 122 37 249.5t99 219.5q153 226 447 226q174 0 398 -74l-99 -557q-40 -229 -40 -383zM799 797q-72 38 -157 38q-185 0 -279 -191q-71 -143 -71 -311q0 -183 160 -183
q122 0 209 106q54 65 74 180zM868 1118h-171l-237 311h276z" />
    <glyph glyph-name="aacute" unicode="&#xe1;" horiz-adv-x="1130" 
d="M906 0h-221l6 102q-132 -131 -296 -131q-70 0 -135.5 23.5t-107.5 64.5q-88 85 -88 260q0 122 37 249.5t99 219.5q153 226 447 226q174 0 398 -74l-99 -557q-40 -229 -40 -383zM799 797q-72 38 -157 38q-185 0 -279 -191q-71 -143 -71 -311q0 -183 160 -183
q122 0 209 106q54 65 74 180zM586 1118l242 311h285l-347 -311h-180z" />
    <glyph glyph-name="acircumflex" unicode="&#xe2;" horiz-adv-x="1130" 
d="M906 0h-221l6 102q-132 -131 -296 -131q-70 0 -135.5 23.5t-107.5 64.5q-88 85 -88 260q0 122 37 249.5t99 219.5q153 226 447 226q174 0 398 -74l-99 -557q-40 -229 -40 -383zM799 797q-72 38 -157 38q-185 0 -279 -191q-71 -143 -71 -311q0 -183 160 -183
q122 0 209 106q54 65 74 180zM715 1289l-195 -171h-225l318 311h240l209 -311h-212z" />
    <glyph glyph-name="atilde" unicode="&#xe3;" horiz-adv-x="1130" 
d="M906 0h-221l6 102q-132 -131 -296 -131q-70 0 -135.5 23.5t-107.5 64.5q-88 85 -88 260q0 122 37 249.5t99 219.5q153 226 447 226q174 0 398 -74l-99 -557q-40 -229 -40 -383zM799 797q-72 38 -157 38q-185 0 -279 -191q-71 -143 -71 -311q0 -183 160 -183
q122 0 209 106q54 65 74 180zM966 1416h144q-28 -96 -63 -161q-76 -141 -210 -141q-93 0 -168 83q-36 40 -52.5 52.5t-35.5 12.5q-31 0 -63 -36.5t-53 -97.5h-144q39 117 81 181q77 120 198 120q91 0 162 -76q46 -50 61 -61t35 -11q62 0 108 135z" />
    <glyph glyph-name="adieresis" unicode="&#xe4;" horiz-adv-x="1130" 
d="M906 0h-221l6 102q-132 -131 -296 -131q-70 0 -135.5 23.5t-107.5 64.5q-88 85 -88 260q0 122 37 249.5t99 219.5q153 226 447 226q174 0 398 -74l-99 -557q-40 -229 -40 -383zM799 797q-72 38 -157 38q-185 0 -279 -191q-71 -143 -71 -311q0 -183 160 -183
q122 0 209 106q54 65 74 180zM516 1404q53 0 90.5 -38.5t37.5 -91.5q0 -55 -38 -93t-92 -38t-92 38.5t-38 93.5q0 54 38.5 91.5t93.5 37.5zM893 1404q53 0 90.5 -38.5t37.5 -91.5q0 -55 -38 -93t-92 -38t-92 38.5t-38 93.5q0 54 38.5 91.5t93.5 37.5z" />
    <glyph glyph-name="aring" unicode="&#xe5;" horiz-adv-x="1130" 
d="M906 0h-221l6 102q-132 -131 -296 -131q-70 0 -135.5 23.5t-107.5 64.5q-88 85 -88 260q0 122 37 249.5t99 219.5q153 226 447 226q174 0 398 -74l-99 -557q-40 -229 -40 -383zM799 797q-72 38 -157 38q-185 0 -279 -191q-71 -143 -71 -311q0 -183 160 -183
q122 0 209 106q54 65 74 180zM735 1506q103 0 164 -53q65 -55 65 -147q0 -93 -63.5 -149t-168.5 -56q-104 0 -167 55q-65 58 -65 149q0 93 63 147t172 54zM734 1411q-103 0 -103 -108q0 -107 100 -107q102 0 102 107q0 108 -99 108z" />
    <glyph glyph-name="ae" unicode="&#xe6;" horiz-adv-x="1587" 
d="M736 145q-159 -174 -423 -174q-278 0 -278 254q0 136 92 229q75 76 201.5 106.5t383.5 36.5l11 61q9 48 9 66q0 116 -171 116q-147 0 -309 -90l-41 153q202 111 399 111q224 0 286 -129q48 44 84 65q106 64 253 64q149 0 230 -68.5t81 -194.5q0 -107 -60 -176t-192 -112
q-111 -37 -402 -76q-1 -129 55.5 -188t182.5 -59q75 0 135.5 19t143.5 69l50 -163q-177 -94 -369 -94q-143 0 -226.5 41.5t-125.5 132.5zM692 457q-50 -3 -76 -4q-167 -8 -249 -46q-49 -22 -76.5 -64.5t-27.5 -94.5q0 -112 132 -112q111 0 186 57t92 155zM908 544
q188 22 298 61q75 27 107 61t32 85q0 103 -125 103q-120 0 -200 -79.5t-112 -230.5z" />
    <glyph glyph-name="ccedilla" unicode="&#xe7;" horiz-adv-x="903" 
d="M760 226l41 -172q-129 -76 -287 -82l-75 -98q100 -10 146.5 -50.5t46.5 -117.5q0 -107 -78 -169.5t-211 -62.5q-104 0 -221 49l61 110q66 -31 136 -31q55 0 89 30.5t34 78.5q0 75 -155 83l-14 42l113 143q-314 49 -314 396q0 150 53 287q137 352 503 352q167 0 296 -72
l-80 -166q-105 59 -204 59q-173 0 -265 -159q-75 -129 -75 -288q0 -238 232 -238q59 0 108 16.5t120 59.5z" />
    <glyph glyph-name="egrave" unicode="&#xe8;" horiz-adv-x="995" 
d="M298 387q-1 -10 -1 -15q0 -58 22 -121q39 -111 216 -111q76 0 136.5 19t143.5 69l50 -163q-177 -94 -377 -94q-206 0 -301 87q-110 100 -110 305q0 117 35 234.5t95 203.5q151 213 427 213q164 0 248 -78q69 -64 69 -184q0 -108 -59.5 -177t-192.5 -112
q-111 -37 -401 -76zM315 544q188 22 299 61q74 27 106 61t32 85q0 103 -125 103q-244 0 -312 -310zM769 1118h-171l-238 311h277z" />
    <glyph glyph-name="eacute" unicode="&#xe9;" horiz-adv-x="995" 
d="M298 387q-1 -10 -1 -15q0 -58 22 -121q39 -111 216 -111q76 0 136.5 19t143.5 69l50 -163q-177 -94 -377 -94q-206 0 -301 87q-110 100 -110 305q0 117 35 234.5t95 203.5q151 213 427 213q164 0 248 -78q69 -64 69 -184q0 -108 -59.5 -177t-192.5 -112
q-111 -37 -401 -76zM315 544q188 22 299 61q74 27 106 61t32 85q0 103 -125 103q-244 0 -312 -310zM512 1118l242 311h285l-347 -311h-180z" />
    <glyph glyph-name="ecircumflex" unicode="&#xea;" horiz-adv-x="995" 
d="M298 387q-1 -10 -1 -15q0 -58 22 -121q39 -111 216 -111q76 0 136.5 19t143.5 69l50 -163q-177 -94 -377 -94q-206 0 -301 87q-110 100 -110 305q0 117 35 234.5t95 203.5q151 213 427 213q164 0 248 -78q69 -64 69 -184q0 -108 -59.5 -177t-192.5 -112
q-111 -37 -401 -76zM315 544q188 22 299 61q74 27 106 61t32 85q0 103 -125 103q-244 0 -312 -310zM668 1289l-195 -171h-225l318 311h240l209 -311h-212z" />
    <glyph glyph-name="edieresis" unicode="&#xeb;" horiz-adv-x="995" 
d="M298 387q-1 -10 -1 -15q0 -58 22 -121q39 -111 216 -111q76 0 136.5 19t143.5 69l50 -163q-177 -94 -377 -94q-206 0 -301 87q-110 100 -110 305q0 117 35 234.5t95 203.5q151 213 427 213q164 0 248 -78q69 -64 69 -184q0 -108 -59.5 -177t-192.5 -112
q-111 -37 -401 -76zM315 544q188 22 299 61q74 27 106 61t32 85q0 103 -125 103q-244 0 -312 -310zM469 1404q53 0 90.5 -38.5t37.5 -91.5q0 -55 -38 -93t-92 -38t-92 38.5t-38 93.5q0 54 38.5 91.5t93.5 37.5zM847 1404q53 0 90.5 -38.5t37.5 -91.5q0 -55 -38 -93t-92 -38
t-92 38.5t-38 93.5q0 54 38.5 91.5t93.5 37.5z" />
    <glyph glyph-name="igrave" unicode="&#xec;" horiz-adv-x="569" 
d="M87 0l174 985h220l-173 -985h-221zM526 1118h-172l-237 311h277z" />
    <glyph glyph-name="iacute" unicode="&#xed;" horiz-adv-x="569" 
d="M87 0l174 985h220l-173 -985h-221zM258 1118l242 311h285l-347 -311h-180z" />
    <glyph glyph-name="icircumflex" unicode="&#xee;" horiz-adv-x="569" 
d="M88 0l173 985h221l-174 -985h-220zM419 1289l-195 -171h-225l318 311h240l209 -311h-212z" />
    <glyph glyph-name="idieresis" unicode="&#xef;" horiz-adv-x="569" 
d="M78 0l174 985h220l-173 -985h-221zM214 1404q53 0 90.5 -38.5t37.5 -91.5q0 -55 -38 -93t-92 -38t-92 38.5t-38 93.5q0 54 38.5 91.5t93.5 37.5zM591 1404q53 0 90.5 -38.5t37.5 -91.5q0 -55 -38 -93t-92 -38t-92 38.5t-38 93.5q0 54 38.5 91.5t93.5 37.5z" />
    <glyph glyph-name="eth" unicode="&#xf0;" horiz-adv-x="1121" 
d="M794 953q-37 139 -126 229l-215 -109l-49 80l178 90q-92 47 -196 65l57 154q198 -24 327 -110l192 98l49 -80l-160 -81q97 -95 151.5 -250t54.5 -338q0 -156 -38 -297.5t-105 -230.5q-150 -202 -424 -202q-200 0 -304 97q-53 49 -83 130t-30 174q0 114 35 228t95 193
q149 201 399 201q80 0 192 -41zM622 815q-171 0 -258 -169q-63 -121 -63 -268q0 -228 199 -228q167 0 255 169q63 120 63 269q0 107 -48 165q-50 62 -148 62z" />
    <glyph glyph-name="ntilde" unicode="&#xf1;" horiz-adv-x="1180" 
d="M78 0l174 985h182l-7 -137q178 166 369 166q140 0 213 -71q56 -55 56 -149q0 -63 -24 -199l-105 -595h-220l105 598q14 80 14 115q0 106 -118 106q-70 0 -156.5 -51t-149.5 -130l-112 -638h-221zM955 1416h144q-28 -96 -64 -161q-76 -141 -209 -141q-94 0 -168 83
q-36 40 -53 52.5t-36 12.5q-31 0 -62.5 -36.5t-53.5 -97.5h-144q40 118 81 181q78 120 199 120q91 0 161 -76q48 -51 62 -61.5t35 -10.5q61 0 108 135z" />
    <glyph glyph-name="ograve" unicode="&#xf2;" horiz-adv-x="1118" 
d="M629 1014q197 0 306 -107q109 -106 109 -306q0 -113 -35 -228.5t-94 -197.5q-148 -204 -420 -204q-203 0 -309 102q-53 50 -82.5 132t-29.5 177q0 113 35 229t94 198q148 205 426 205zM617 835q-167 0 -253 -174q-62 -125 -62 -277q0 -234 203 -234q163 0 249 174
q62 126 62 279q0 107 -49 168q-51 64 -150 64zM803 1118h-171l-238 311h277z" />
    <glyph glyph-name="oacute" unicode="&#xf3;" horiz-adv-x="1118" 
d="M629 1014q197 0 306 -107q109 -106 109 -306q0 -113 -35 -228.5t-94 -197.5q-148 -204 -420 -204q-203 0 -309 102q-53 50 -82.5 132t-29.5 177q0 113 35 229t94 198q148 205 426 205zM617 835q-167 0 -253 -174q-62 -125 -62 -277q0 -234 203 -234q163 0 249 174
q62 126 62 279q0 107 -49 168q-51 64 -150 64zM533 1118l242 311h285l-347 -311h-180z" />
    <glyph glyph-name="ocircumflex" unicode="&#xf4;" horiz-adv-x="1118" 
d="M629 1014q197 0 306 -107q109 -106 109 -306q0 -113 -35 -228.5t-94 -197.5q-148 -204 -420 -204q-203 0 -309 102q-53 50 -82.5 132t-29.5 177q0 113 35 229t94 198q148 205 426 205zM617 835q-167 0 -253 -174q-62 -125 -62 -277q0 -234 203 -234q163 0 249 174
q62 126 62 279q0 107 -49 168q-51 64 -150 64zM693 1289l-195 -171h-225l318 311h240l209 -311h-212z" />
    <glyph glyph-name="otilde" unicode="&#xf5;" horiz-adv-x="1118" 
d="M629 1014q197 0 306 -107q109 -106 109 -306q0 -113 -35 -228.5t-94 -197.5q-148 -204 -420 -204q-203 0 -309 102q-53 50 -82.5 132t-29.5 177q0 113 35 229t94 198q148 205 426 205zM617 835q-167 0 -253 -174q-62 -125 -62 -277q0 -234 203 -234q163 0 249 174
q62 126 62 279q0 107 -49 168q-51 64 -150 64zM941 1416h144q-28 -96 -63 -161q-77 -141 -210 -141q-94 0 -168 83q-35 40 -52.5 52.5t-35.5 12.5q-32 0 -63.5 -36.5t-52.5 -97.5h-145q39 116 82 181q77 120 198 120q91 0 161 -76q48 -50 62.5 -61t34.5 -11q61 0 108 135z
" />
    <glyph glyph-name="odieresis" unicode="&#xf6;" horiz-adv-x="1118" 
d="M629 1014q197 0 306 -107q109 -106 109 -306q0 -113 -35 -228.5t-94 -197.5q-148 -204 -420 -204q-203 0 -309 102q-53 50 -82.5 132t-29.5 177q0 113 35 229t94 198q148 205 426 205zM617 835q-167 0 -253 -174q-62 -125 -62 -277q0 -234 203 -234q163 0 249 174
q62 126 62 279q0 107 -49 168q-51 64 -150 64zM494 1404q53 0 90.5 -38.5t37.5 -91.5q0 -55 -38 -93t-92 -38t-92 38.5t-38 93.5q0 54 38.5 91.5t93.5 37.5zM871 1404q53 0 90.5 -38.5t37.5 -91.5q0 -55 -38 -93t-92 -38t-92 38.5t-38 93.5q0 54 38.5 91.5t93.5 37.5z" />
    <glyph glyph-name="divide" unicode="&#xf7;" 
d="M674 1185q55 0 94.5 -40t39.5 -96q0 -57 -39.5 -96.5t-96.5 -39.5t-96.5 40t-39.5 97q0 56 40.5 95.5t97.5 39.5zM122 603l55 201h922l-55 -201h-922zM553 496q54 0 93.5 -40t39.5 -96t-39.5 -96t-96.5 -40t-96.5 40t-39.5 97t40.5 96t98.5 39z" />
    <glyph glyph-name="oslash" unicode="&#xf8;" horiz-adv-x="1118" 
d="M993 829q51 -100 51 -229q0 -111 -35.5 -227.5t-93.5 -197.5q-148 -204 -421 -204q-181 0 -292 92l-115 -111l-90 84l126 122q-49 103 -49 227q0 111 35.5 227t93.5 197q147 205 420 205q176 0 292 -91l118 113l88 -84zM813 655l-463 -449q59 -63 155 -63q191 0 274 223
q38 102 38 212zM304 332l463 449q-55 61 -154 61q-178 0 -263 -199q-50 -117 -50 -231q0 -28 4 -80z" />
    <glyph glyph-name="ugrave" unicode="&#xf9;" horiz-adv-x="1154" 
d="M714 119q-158 -148 -335 -148q-124 0 -192.5 59t-68.5 167q0 73 24 208l102 580h221l-102 -576q-15 -86 -15 -138q0 -108 112 -108q66 0 141.5 38t134.5 101l120 683h221l-174 -985h-191zM825 1118h-172l-237 311h277z" />
    <glyph glyph-name="uacute" unicode="&#xfa;" horiz-adv-x="1154" 
d="M714 119q-158 -148 -335 -148q-124 0 -192.5 59t-68.5 167q0 73 24 208l102 580h221l-102 -576q-15 -86 -15 -138q0 -108 112 -108q66 0 141.5 38t134.5 101l120 683h221l-174 -985h-191zM565 1118l242 311h285l-347 -311h-180z" />
    <glyph glyph-name="ucircumflex" unicode="&#xfb;" horiz-adv-x="1155" 
d="M714 119q-158 -148 -335 -148q-124 0 -192.5 59t-68.5 167q0 73 24 208l102 580h221l-102 -576q-15 -86 -15 -138q0 -108 112 -108q66 0 141.5 38t134.5 101l120 683h221l-174 -985h-191zM717 1289l-194 -171h-225l318 311h240l209 -311h-213z" />
    <glyph glyph-name="udieresis" unicode="&#xfc;" horiz-adv-x="1154" 
d="M714 119q-158 -148 -335 -148q-124 0 -192.5 59t-68.5 167q0 73 24 208l102 580h221l-102 -576q-15 -86 -15 -138q0 -108 112 -108q66 0 141.5 38t134.5 101l120 683h221l-174 -985h-191zM515 1404q53 0 90.5 -38.5t37.5 -91.5q0 -55 -38 -93t-92 -38t-92 38.5t-38 93.5
q0 54 38.5 91.5t93.5 37.5zM893 1404q53 0 90.5 -38.5t37.5 -91.5q0 -55 -38 -93t-92 -38t-92 38.5t-38 93.5q0 54 38.5 91.5t93.5 37.5z" />
    <glyph glyph-name="yacute" unicode="&#xfd;" horiz-adv-x="1007" 
d="M302 1l-212 984h225l145 -773q17 22 110 144q71 92 117.5 195.5t46.5 167.5q0 42 -18.5 74t-68.5 79l138 145q93 -66 135 -129.5t42 -137.5q0 -102 -61.5 -223t-219.5 -328q-194 -256 -280.5 -390.5t-160.5 -299.5l-207 73q122 208 156 261t113 158zM426 1118l242 311
h285l-347 -311h-180z" />
    <glyph glyph-name="thorn" unicode="&#xfe;" horiz-adv-x="1143" 
d="M0 -483l340 1929l229 46l-105 -596q128 118 284 118q151 0 239 -90q91 -94 91 -275q0 -113 -33 -234.5t-87 -210.5q-144 -233 -425 -233q-137 0 -224 46l-81 -458zM342 207q70 -57 168 -57q183 0 274 191q66 139 66 284q0 210 -164 210q-120 0 -208 -106
q-55 -65 -75 -179z" />
    <glyph glyph-name="ydieresis" unicode="&#xff;" horiz-adv-x="1007" 
d="M302 1l-212 984h225l145 -773q17 22 110 144q71 92 117.5 195.5t46.5 167.5q0 42 -18.5 74t-68.5 79l138 145q93 -66 135 -129.5t42 -137.5q0 -102 -61.5 -223t-219.5 -328q-194 -256 -280.5 -390.5t-160.5 -299.5l-207 73q122 208 156 261t113 158zM349 1404
q53 0 90.5 -38.5t37.5 -91.5q0 -55 -38 -93t-92 -38t-92 38.5t-38 93.5q0 54 38.5 91.5t93.5 37.5zM727 1404q53 0 90.5 -38.5t37.5 -91.5q0 -55 -38 -93t-92 -38t-92 38.5t-38 93.5q0 54 38.5 91.5t93.5 37.5z" />
    <glyph glyph-name="Amacron" unicode="&#x100;" horiz-adv-x="1329" 
d="M945 379h-590l-214 -379h-250l828 1407h214l332 -1407h-238zM909 562l-125 581l-328 -581h453zM487 1605l29 169h688l-29 -169h-688z" />
    <glyph glyph-name="amacron" unicode="&#x101;" horiz-adv-x="1130" 
d="M906 0h-221l6 102q-132 -131 -296 -131q-70 0 -135.5 23.5t-107.5 64.5q-88 85 -88 260q0 122 37 249.5t99 219.5q153 226 447 226q174 0 398 -74l-99 -557q-40 -229 -40 -383zM799 797q-72 38 -157 38q-185 0 -279 -191q-71 -143 -71 -311q0 -183 160 -183
q122 0 209 106q54 65 74 180zM392 1184l29 169h625l-29 -169h-625z" />
    <glyph glyph-name="Abreve" unicode="&#x102;" horiz-adv-x="1329" 
d="M945 379h-590l-214 -379h-250l828 1407h214l332 -1407h-238zM909 562l-125 581l-328 -581h453zM542 1842h156q-3 -33 -3 -46q0 -105 164 -105q94 0 137 31.5t70 119.5h157q-28 -140 -73 -200q-88 -120 -300 -120q-317 0 -317 221q0 35 9 99z" />
    <glyph glyph-name="abreve" unicode="&#x103;" horiz-adv-x="1130" 
d="M906 0h-221l6 102q-132 -131 -296 -131q-70 0 -135.5 23.5t-107.5 64.5q-88 85 -88 260q0 122 37 249.5t99 219.5q153 226 447 226q174 0 398 -74l-99 -557q-40 -229 -40 -383zM799 797q-72 38 -157 38q-185 0 -279 -191q-71 -143 -71 -311q0 -183 160 -183
q122 0 209 106q54 65 74 180zM389 1424h157q-3 -30 -3 -45q0 -106 163 -106q94 0 137 31.5t70 119.5h157q-28 -140 -73 -200q-88 -120 -300 -120q-317 0 -317 221q0 35 9 99z" />
    <glyph glyph-name="Aogonek" unicode="&#x104;" horiz-adv-x="1329" 
d="M945 379h-590l-214 -379h-250l828 1407h214l332 -1407q-15 -12 -93 -77q-143 -117 -143 -237q0 -84 137 -84q47 0 129 19l7 -115q-97 -35 -194 -35q-270 0 -270 198q0 97 63 171t217 160h-91zM909 562l-125 581l-328 -581h453z" />
    <glyph glyph-name="aogonek" unicode="&#x105;" horiz-adv-x="1130" 
d="M685 0l6 102q-132 -131 -296 -131q-70 0 -135.5 23.5t-107.5 64.5q-88 85 -88 260q0 122 37 249.5t99 219.5q153 226 447 226q169 0 398 -74l-99 -557q-40 -230 -40 -383q-17 -14 -93 -77q-143 -117 -143 -237q0 -43 33 -63.5t104 -20.5q47 0 129 19l7 -115
q-97 -35 -195 -35q-269 0 -269 199q0 96 63 170.5t215 159.5h-72zM799 797q-72 38 -157 38q-185 0 -279 -191q-71 -143 -71 -311q0 -183 160 -183q122 0 209 106q54 65 74 180z" />
    <glyph glyph-name="Cacute" unicode="&#x106;" horiz-adv-x="1150" 
d="M988 260l72 -180q-176 -109 -406 -109q-255 0 -392 124q-153 138 -153 410q0 242 91 464q101 246 289 366q157 101 369 101q231 0 389 -112l-108 -168q-123 94 -277 94q-264 0 -404 -268q-50 -95 -80 -223t-30 -246q0 -356 332 -356q155 0 308 103zM707 1536l242 311h285
l-347 -311h-180z" />
    <glyph glyph-name="cacute" unicode="&#x107;" horiz-adv-x="903" 
d="M760 226l41 -172q-139 -83 -316 -83q-413 0 -413 403q0 151 53 288q137 352 503 352q167 0 296 -72l-80 -166q-104 59 -204 59q-173 0 -265 -159q-75 -129 -75 -288q0 -238 232 -238q104 0 228 76zM495 1118l242 311h285l-347 -311h-180z" />
    <glyph glyph-name="Ccircumflex" unicode="&#x108;" horiz-adv-x="1150" 
d="M988 260l72 -180q-176 -109 -406 -109q-255 0 -392 124q-153 138 -153 410q0 242 91 464q101 246 289 366q157 101 369 101q231 0 389 -112l-108 -168q-123 94 -277 94q-264 0 -404 -268q-50 -95 -80 -223t-30 -246q0 -356 332 -356q155 0 308 103zM872 1707l-195 -171
h-225l318 311h240l210 -311h-213z" />
    <glyph glyph-name="ccircumflex" unicode="&#x109;" horiz-adv-x="903" 
d="M760 226l41 -172q-139 -83 -316 -83q-413 0 -413 403q0 151 53 288q137 352 503 352q167 0 296 -72l-80 -166q-104 59 -204 59q-173 0 -265 -159q-75 -129 -75 -288q0 -238 232 -238q104 0 228 76zM657 1289l-195 -171h-225l319 311h240l209 -311h-213z" />
    <glyph glyph-name="Cdotaccent" unicode="&#x10a;" horiz-adv-x="1150" 
d="M988 260l72 -180q-176 -109 -406 -109q-255 0 -392 124q-153 138 -153 410q0 242 91 464q101 246 289 366q157 101 369 101q231 0 389 -112l-108 -168q-123 94 -277 94q-264 0 -404 -268q-50 -95 -80 -223t-30 -246q0 -356 332 -356q155 0 308 103zM859 1827
q55 0 94.5 -40t39.5 -96q0 -57 -40 -97t-96 -40t-96 40t-40 98q0 56 40 95.5t98 39.5z" />
    <glyph glyph-name="cdotaccent" unicode="&#x10b;" horiz-adv-x="903" 
d="M760 226l41 -172q-139 -83 -316 -83q-413 0 -413 403q0 151 53 288q137 352 503 352q167 0 296 -72l-80 -166q-104 59 -204 59q-173 0 -265 -159q-75 -129 -75 -288q0 -238 232 -238q104 0 228 76zM637 1410q55 0 94.5 -40t39.5 -96q0 -57 -39.5 -97t-96.5 -40t-96.5 40
t-39.5 98q0 56 40 95.5t98 39.5z" />
    <glyph glyph-name="Ccaron" unicode="&#x10c;" horiz-adv-x="1150" 
d="M988 260l72 -180q-176 -109 -406 -109q-255 0 -392 124q-153 138 -153 410q0 242 91 464q101 246 289 366q157 101 369 101q231 0 389 -112l-108 -168q-123 94 -277 94q-264 0 -404 -268q-50 -95 -80 -223t-30 -246q0 -356 332 -356q155 0 308 103zM869 1676l194 171h225
l-318 -311h-240l-209 311h213z" />
    <glyph glyph-name="ccaron" unicode="&#x10d;" horiz-adv-x="903" 
d="M760 226l41 -172q-139 -83 -316 -83q-413 0 -413 403q0 151 53 288q137 352 503 352q167 0 296 -72l-80 -166q-104 59 -204 59q-173 0 -265 -159q-75 -129 -75 -288q0 -238 232 -238q104 0 228 76zM656 1258l195 171h225l-318 -311h-240l-209 311h212z" />
    <glyph glyph-name="Dcaron" unicode="&#x10e;" horiz-adv-x="1338" 
d="M89 0l248 1407h369q289 0 424 -97q169 -123 169 -420q0 -127 -28.5 -261.5t-77.5 -239.5q-111 -239 -317 -327q-144 -62 -368 -62h-419zM354 189h125q109 0 171 10.5t119 39.5q149 75 228 286q63 168 63 343q0 249 -158 316q-80 34 -258 34h-109zM749 1676l195 171h225
l-318 -311h-240l-209 311h212z" />
    <glyph glyph-name="dcaron" unicode="&#x10f;" horiz-adv-x="1367" 
d="M836 973l83 473l229 46l-263 -1492h-176l-3 114q-134 -143 -310 -143q-147 0 -234 81q-97 91 -97 275q0 121 34.5 242.5t93.5 211.5q155 233 431 233q58 0 96.5 -7.5t115.5 -33.5zM802 782q-68 53 -163 53q-183 0 -278 -191q-68 -138 -68 -297q0 -197 164 -197
q121 0 210 106q54 66 74 180zM1208 958l160 533h238l-224 -533h-174z" />
    <glyph glyph-name="Dcroat" unicode="&#x110;" horiz-adv-x="1338" 
d="M201 636h-161l44 174h148l105 597h369q289 0 423 -97q170 -123 170 -420q0 -126 -28.5 -261.5t-77.5 -239.5q-111 -239 -317 -327q-144 -62 -368 -62h-419zM432 636l-78 -447h125q109 0 171 10.5t119 39.5q149 75 228 286q63 168 63 342q0 250 -158 317q-80 34 -258 34
h-109l-72 -408h353l-44 -174h-340z" />
    <glyph glyph-name="dcroat" unicode="&#x111;" horiz-adv-x="1136" 
d="M836 973l30 173h-255l27 153h255l26 147l229 47l-34 -194h131l-27 -153h-131l-202 -1146h-176l-3 114q-134 -143 -310 -143q-147 0 -234 81q-97 91 -97 275q0 121 34.5 242.5t93.5 211.5q155 233 431 233q58 0 96.5 -7.5t115.5 -33.5zM802 782q-68 53 -163 53
q-183 0 -278 -191q-68 -138 -68 -297q0 -197 164 -197q121 0 210 106q54 66 74 180z" />
    <glyph glyph-name="Emacron" unicode="&#x112;" horiz-adv-x="1133" 
d="M89 0l248 1407h867l-48 -189h-621l-67 -381h506l-45 -179h-493l-82 -469h656l-46 -189h-875zM433 1605l29 169h688l-29 -169h-688z" />
    <glyph glyph-name="emacron" unicode="&#x113;" horiz-adv-x="995" 
d="M298 387q-1 -10 -1 -15q0 -58 22 -121q39 -111 216 -111q76 0 136.5 19t143.5 69l50 -163q-177 -94 -377 -94q-206 0 -301 87q-110 100 -110 305q0 117 35 234.5t95 203.5q151 213 427 213q164 0 248 -78q69 -64 69 -184q0 -108 -59.5 -177t-192.5 -112
q-111 -37 -401 -76zM315 544q188 22 299 61q74 27 106 61t32 85q0 103 -125 103q-244 0 -312 -310zM308 1184l30 169h625l-30 -169h-625z" />
    <glyph glyph-name="Ebreve" unicode="&#x114;" horiz-adv-x="1133" 
d="M89 0l248 1407h867l-48 -189h-621l-67 -381h506l-45 -179h-493l-82 -469h656l-46 -189h-875zM498 1842h157q-4 -30 -4 -45q0 -106 164 -106q94 0 137.5 31.5t69.5 119.5h157q-29 -140 -73 -200q-89 -120 -301 -120q-317 0 -317 221q0 36 10 99z" />
    <glyph glyph-name="ebreve" unicode="&#x115;" horiz-adv-x="995" 
d="M298 387q-1 -10 -1 -15q0 -58 22 -121q39 -111 216 -111q76 0 136.5 19t143.5 69l50 -163q-177 -94 -377 -94q-206 0 -301 87q-110 100 -110 305q0 117 35 234.5t95 203.5q151 213 427 213q164 0 248 -78q69 -64 69 -184q0 -108 -59.5 -177t-192.5 -112
q-111 -37 -401 -76zM315 544q188 22 299 61q74 27 106 61t32 85q0 103 -125 103q-244 0 -312 -310zM355 1424h157q-3 -30 -3 -46q0 -105 163 -105q94 0 137.5 31.5t69.5 119.5h157q-28 -140 -73 -200q-88 -120 -299 -120q-318 0 -318 223q0 34 9 97z" />
    <glyph glyph-name="Edotaccent" unicode="&#x116;" horiz-adv-x="1133" 
d="M89 0l248 1407h867l-48 -189h-621l-67 -381h506l-45 -179h-493l-82 -469h656l-46 -189h-875zM811 1827q55 0 94.5 -40t39.5 -96q0 -57 -40 -97t-96 -40t-96 40t-40 98q0 56 40 95.5t98 39.5z" />
    <glyph glyph-name="edotaccent" unicode="&#x117;" horiz-adv-x="995" 
d="M298 387q-1 -10 -1 -15q0 -58 22 -121q39 -111 216 -111q76 0 136.5 19t143.5 69l50 -163q-177 -94 -377 -94q-206 0 -301 87q-110 100 -110 305q0 117 35 234.5t95 203.5q151 213 427 213q164 0 248 -78q69 -64 69 -184q0 -108 -59.5 -177t-192.5 -112
q-111 -37 -401 -76zM315 544q188 22 299 61q74 27 106 61t32 85q0 103 -125 103q-244 0 -312 -310zM638 1410q55 0 94.5 -40t39.5 -96q0 -57 -39.5 -97t-96.5 -40t-96.5 40t-39.5 98q0 56 40 95.5t98 39.5z" />
    <glyph glyph-name="Eogonek" unicode="&#x118;" horiz-adv-x="1133" 
d="M89 0l248 1407h867l-48 -189h-621l-67 -381h506l-45 -179h-493l-82 -469h656l-46 -189q-117 -97 -155 -137q-81 -83 -81 -177q0 -43 33 -63.5t104 -20.5q46 0 129 19l7 -115q-97 -35 -195 -35q-269 0 -269 199q0 96 60 168.5t214 161.5h-722z" />
    <glyph glyph-name="eogonek" unicode="&#x119;" horiz-adv-x="995" 
d="M298 387q-1 -10 -1 -15q0 -58 22 -121q39 -111 216 -111q76 0 136.5 19t143.5 69l50 -163q-26 -20 -87 -60q-114 -74 -185 -159q-65 -78 -65 -159q0 -44 33 -64.5t104 -20.5q47 0 129 19l7 -115q-97 -35 -195 -35q-269 0 -269 199q0 87 49.5 158t160.5 145q-47 -2 -68 -2
q-402 0 -402 392q0 117 35 234.5t95 203.5q151 213 427 213q164 0 248 -78q69 -64 69 -184q0 -108 -59.5 -176.5t-192.5 -112.5q-110 -37 -401 -76zM315 544q236 29 336.5 76.5t100.5 130.5q0 103 -125 103q-244 0 -312 -310z" />
    <glyph glyph-name="Ecaron" unicode="&#x11a;" horiz-adv-x="1133" 
d="M89 0l248 1407h867l-48 -189h-621l-67 -381h506l-45 -179h-493l-82 -469h656l-46 -189h-875zM809 1676l195 171h225l-318 -311h-240l-209 311h213z" />
    <glyph glyph-name="ecaron" unicode="&#x11b;" horiz-adv-x="995" 
d="M298 387q-1 -10 -1 -15q0 -58 22 -121q39 -111 216 -111q76 0 136.5 19t143.5 69l50 -163q-177 -94 -377 -94q-206 0 -301 87q-110 100 -110 305q0 117 35 234.5t95 203.5q151 213 427 213q164 0 248 -78q69 -64 69 -184q0 -108 -59.5 -177t-192.5 -112
q-111 -37 -401 -76zM315 544q188 22 299 61q74 27 106 61t32 85q0 103 -125 103q-244 0 -312 -310zM647 1258l195 171h225l-318 -311h-240l-209 311h212z" />
    <glyph glyph-name="Gcircumflex" unicode="&#x11c;" horiz-adv-x="1335" 
d="M915 200l62 351h-269l40 174h490l-120 -677q-205 -78 -432 -78q-577 0 -577 533q0 196 62.5 385t167.5 312q202 236 542 236q236 0 424 -118l-107 -173q-154 105 -319 105q-170 0 -283 -91q-136 -109 -202 -341q-46 -159 -46 -308q0 -185 90 -273q82 -81 251 -81
q134 0 226 44zM897 1707l-194 -171h-225l318 311h240l209 -311h-213z" />
    <glyph glyph-name="gcircumflex" unicode="&#x11d;" horiz-adv-x="1123" 
d="M667 85q-67 -62 -129.5 -88t-143.5 -26q-145 0 -233 78q-97 85 -97 269q0 120 35 243t96 216q154 237 450 237q176 0 394 -74l-137 -777q-50 -283 -114 -407q-121 -235 -444 -235q-202 0 -353 76l88 169q114 -71 262 -71q145 0 214 73t103 263zM793 797q-73 38 -155 38
q-182 0 -275 -191q-32 -64 -51.5 -151.5t-19.5 -163.5q0 -179 158 -179q120 0 206 106q53 66 73 180zM718 1289l-195 -171h-225l319 311h240l209 -311h-213z" />
    <glyph glyph-name="Gbreve" unicode="&#x11e;" horiz-adv-x="1335" 
d="M915 200l62 351h-269l40 174h490l-120 -677q-205 -78 -432 -78q-577 0 -577 533q0 196 62.5 385t167.5 312q202 236 542 236q236 0 424 -118l-107 -173q-154 105 -319 105q-170 0 -283 -91q-136 -109 -202 -341q-46 -159 -46 -308q0 -185 90 -273q82 -81 251 -81
q134 0 226 44zM565 1842h157q-3 -26 -3 -44q0 -107 163 -107q94 0 137.5 32t69.5 119h157q-28 -139 -73 -200q-88 -120 -300 -120q-317 0 -317 221q0 36 9 99z" />
    <glyph glyph-name="gbreve" unicode="&#x11f;" horiz-adv-x="1123" 
d="M667 85q-67 -62 -129.5 -88t-143.5 -26q-145 0 -233 78q-97 85 -97 269q0 120 35 243t96 216q154 237 450 237q176 0 394 -74l-137 -777q-50 -283 -114 -407q-121 -235 -444 -235q-202 0 -353 76l88 169q114 -71 262 -71q145 0 214 73t103 263zM793 797q-73 38 -155 38
q-182 0 -275 -191q-32 -64 -51.5 -151.5t-19.5 -163.5q0 -179 158 -179q120 0 206 106q53 66 73 180zM410 1424h156q-3 -33 -3 -46q0 -105 163 -105q94 0 138 31.5t70 119.5h156q-28 -140 -72 -200q-89 -120 -300 -120q-318 0 -318 220q0 35 10 100z" />
    <glyph glyph-name="Gdotaccent" unicode="&#x120;" horiz-adv-x="1335" 
d="M915 200l62 351h-269l40 174h490l-120 -677q-205 -78 -432 -78q-577 0 -577 533q0 196 62.5 385t167.5 312q202 236 542 236q236 0 424 -118l-107 -173q-154 105 -319 105q-170 0 -283 -91q-136 -109 -202 -341q-46 -159 -46 -308q0 -185 90 -273q82 -81 251 -81
q134 0 226 44zM895 1827q55 0 94 -40t39 -96q0 -57 -39.5 -97t-95.5 -40q-57 0 -96.5 40t-39.5 98q0 57 40 96t98 39z" />
    <glyph glyph-name="gdotaccent" unicode="&#x121;" horiz-adv-x="1123" 
d="M667 85q-67 -62 -129.5 -88t-143.5 -26q-145 0 -233 78q-97 85 -97 269q0 120 35 243t96 216q154 237 450 237q176 0 394 -74l-137 -777q-50 -283 -114 -407q-121 -235 -444 -235q-202 0 -353 76l88 169q114 -71 262 -71q145 0 214 73t103 263zM793 797q-73 38 -155 38
q-182 0 -275 -191q-32 -64 -51.5 -151.5t-19.5 -163.5q0 -179 158 -179q120 0 206 106q53 66 73 180zM726 1410q55 0 94.5 -40t39.5 -96q0 -57 -39.5 -97t-96.5 -40t-96.5 40t-39.5 98q0 56 40.5 95.5t97.5 39.5z" />
    <glyph glyph-name="Gcommaaccent" unicode="&#x122;" horiz-adv-x="1335" 
d="M915 200l62 351h-269l40 174h490l-120 -677q-205 -78 -432 -78q-577 0 -577 533q0 196 62.5 385t167.5 312q202 236 542 236q236 0 424 -118l-107 -173q-154 105 -319 105q-170 0 -283 -91q-136 -109 -202 -341q-46 -159 -46 -308q0 -185 90 -273q82 -81 251 -81
q134 0 226 44zM387 -544l143 421h235l-210 -421h-168z" />
    <glyph glyph-name="gcommaaccent" unicode="&#x123;" horiz-adv-x="1123" 
d="M667 85q-67 -62 -129.5 -88t-143.5 -26q-145 0 -233 78q-97 85 -97 269q0 120 35 243t96 216q154 237 450 237q176 0 394 -74l-137 -777q-50 -283 -114 -407q-121 -235 -444 -235q-202 0 -353 76l88 169q114 -71 262 -71q145 0 214 73t103 263zM793 797q-73 38 -155 38
q-182 0 -275 -191q-32 -64 -51.5 -151.5t-19.5 -163.5q0 -179 158 -179q120 0 206 106q53 66 73 180zM1057 1430l-229 -312h-286l336 312h179z" />
    <glyph glyph-name="Hcircumflex" unicode="&#x124;" horiz-adv-x="1417" 
d="M89 0l248 1407h232l-102 -577h602l101 577h232l-248 -1407h-232l113 639h-602l-113 -639h-231zM916 1707l-195 -171h-225l318 311h240l210 -311h-213z" />
    <glyph glyph-name="hcircumflex" unicode="&#x125;" horiz-adv-x="1180" 
d="M78 0l255 1446l229 46l-111 -629q98 83 175 117t168 34q133 0 206 -62q66 -56 66 -154q0 -63 -23 -194l-107 -604h-220l106 604q12 68 12 111q0 106 -117 106q-73 0 -159.5 -51.5t-146.5 -131.5l-112 -638h-221zM574 1707l-195 -171h-225l318 311h240l210 -311h-213z" />
    <glyph glyph-name="Hbar" unicode="&#x126;" horiz-adv-x="1417" 
d="M89 0l175 992h-151l27 158h152l45 257h232l-46 -257h602l45 257h232l-45 -257h151l-28 -158h-151l-175 -992h-232l110 624h-602l-110 -624h-231zM496 992l-35 -194h602l35 194h-602z" />
    <glyph glyph-name="hbar" unicode="&#x127;" horiz-adv-x="1180" 
d="M78 0l202 1146h-130l27 153h130l26 147l229 47l-34 -194h266l-27 -153h-266l-50 -283q98 83 175 117t168 34q133 0 206 -62q66 -56 66 -154q0 -63 -23 -194l-107 -604h-220l106 604q12 68 12 111q0 106 -117 106q-73 0 -159.5 -51.5t-146.5 -131.5l-112 -638h-221z" />
    <glyph glyph-name="Itilde" unicode="&#x128;" horiz-adv-x="617" 
d="M106 0l248 1407h232l-249 -1407h-231zM770 1834h144q-27 -95 -63 -161q-76 -140 -210 -140q-93 0 -167 82q-36 40 -53 52.5t-36 12.5q-31 0 -62.5 -36t-53.5 -98h-144q38 115 81 181q77 120 199 120q90 0 161 -75q47 -50 61.5 -61t35.5 -11q61 0 107 134z" />
    <glyph glyph-name="itilde" unicode="&#x129;" horiz-adv-x="569" 
d="M87 0l174 985h221l-174 -985h-221zM672 1416h144q-27 -95 -63 -161q-76 -141 -209 -141q-94 0 -168 83q-36 40 -53 52.5t-36 12.5q-31 0 -62.5 -36.5t-53.5 -97.5h-144q38 114 81 181q76 120 199 120q91 0 161 -76q47 -50 61.5 -61t34.5 -11q62 0 108 135z" />
    <glyph glyph-name="Imacron" unicode="&#x12a;" horiz-adv-x="617" 
d="M106 0l248 1407h232l-249 -1407h-231zM149 1605l29 169h688l-29 -169h-688z" />
    <glyph glyph-name="imacron" unicode="&#x12b;" horiz-adv-x="569" 
d="M83 0l174 985h221l-174 -985h-221zM78 1184l30 169h625l-30 -169h-625z" />
    <glyph glyph-name="Ibreve" unicode="&#x12c;" horiz-adv-x="617" 
d="M106 0l248 1407h232l-249 -1407h-231zM200 1842h156q-3 -29 -3 -45q0 -106 164 -106q94 0 137.5 31.5t69.5 119.5h156q-28 -140 -72 -200q-88 -120 -300 -120q-318 0 -318 221q0 35 10 99z" />
    <glyph glyph-name="ibreve" unicode="&#x12d;" horiz-adv-x="569" 
d="M87 0l173 985h221l-173 -985h-221zM92 1424h156q-3 -27 -3 -45q0 -106 163 -106q94 0 137.5 31.5t70.5 119.5h156q-28 -140 -72 -200q-89 -120 -300 -120q-318 0 -318 221q0 36 10 99z" />
    <glyph glyph-name="Iogonek" unicode="&#x12e;" horiz-adv-x="617" 
d="M106 0l248 1407h232l-248 -1407q-16 -14 -93 -77q-143 -117 -143 -237q0 -43 33 -63.5t104 -20.5q46 0 129 19l7 -115q-97 -35 -195 -35q-269 0 -269 199q0 96 63 170.5t217 159.5h-85z" />
    <glyph glyph-name="iogonek" unicode="&#x12f;" horiz-adv-x="569" 
d="M87 0l174 985h220l-173 -985q-118 -98 -155 -137q-81 -84 -81 -177q0 -43 33 -63.5t104 -20.5q46 0 129 19l7 -115q-97 -35 -195 -35q-269 0 -269 199q0 96 63.5 171t216.5 159h-74zM425 1410q54 0 93.5 -40t39.5 -96q0 -57 -39.5 -97t-96.5 -40q-56 0 -96 40t-40 98
q0 56 40.5 95.5t98.5 39.5z" />
    <glyph glyph-name="Idotaccent" unicode="&#x130;" horiz-adv-x="617" 
d="M106 0l248 1407h232l-249 -1407h-231zM510 1827q56 0 95 -40t39 -96q0 -57 -39.5 -97t-96.5 -40t-96.5 40t-39.5 98q0 56 40 95.5t98 39.5z" />
    <glyph glyph-name="dotlessi" unicode="&#x131;" horiz-adv-x="569" 
d="M87 0l174 985h220l-173 -985h-221z" />
    <glyph glyph-name="IJ" unicode="&#x132;" horiz-adv-x="1221" 
d="M106 0l248 1407h232l-249 -1407h-231zM964 1407h232l-174 -985q-41 -233 -78.5 -348t-103.5 -214q-80 -117 -275 -270l-110 104q90 95 129 146.5t77 128.5q76 153 132 466z" />
    <glyph glyph-name="ij" unicode="&#x133;" horiz-adv-x="1141" 
d="M87 0l174 985h220l-173 -985h-221zM424 1410q55 0 94.5 -40t39.5 -96q0 -57 -39.5 -97t-96.5 -40t-96.5 40t-39.5 98q0 56 40.5 95.5t97.5 39.5zM997 1410q55 0 94.5 -40t39.5 -96q0 -57 -39.5 -97t-96.5 -40t-96.5 40t-39.5 98q0 56 40 95.5t98 39.5zM833 985h221
l-162 -920q-45 -251 -138 -377q-61 -83 -196 -181l-90 87q88 113 121 185q51 111 95 359z" />
    <glyph glyph-name="Jcircumflex" unicode="&#x134;" horiz-adv-x="604" 
d="M347 1407h231l-173 -985q-41 -233 -78.5 -348.5t-104.5 -213.5q-79 -117 -274 -270l-110 104q91 95 129 146t77 129q76 152 132 466zM491 1707l-195 -171h-225l318 311h241l209 -311h-213z" />
    <glyph glyph-name="jcircumflex" unicode="&#x135;" horiz-adv-x="573" 
d="M265 985h220l-162 -920q-38 -216 -105 -328t-229 -230l-90 87q87 110 122 185q50 110 94 359zM416 1289l-195 -171h-225l319 311h240l209 -311h-213z" />
    <glyph glyph-name="Kcommaaccent" unicode="&#x136;" horiz-adv-x="1248" 
d="M89 0l248 1407h232l-99 -559l634 559h290l-722 -626l502 -781h-259l-464 742l-131 -742h-231zM330 -544l144 421h234l-210 -421h-168z" />
    <glyph glyph-name="kcommaaccent" unicode="&#x137;" horiz-adv-x="1100" 
d="M88 0l255 1445l229 48l-147 -831q226 96 314 161.5t120 161.5h227q-28 -88 -72.5 -147t-125.5 -116q-105 -74 -262 -145l420 -577h-248l-347 503l-57 -23l-85 -480h-221zM252 -546l144 423h234l-209 -423h-169z" />
    <glyph glyph-name="kgreenlandic" unicode="&#x138;" horiz-adv-x="1062" 
d="M78 0l174 985h220l-68 -387l455 387h268l-525 -433l389 -552h-248l-353 515l-91 -515h-221z" />
    <glyph glyph-name="Lacute" unicode="&#x139;" horiz-adv-x="1038" 
d="M89 0l248 1407h232l-215 -1218h606l-47 -189h-824zM397 1536l241 311h286l-348 -311h-179z" />
    <glyph glyph-name="lacute" unicode="&#x13a;" horiz-adv-x="566" 
d="M86 0l255 1446l229 46l-263 -1492h-221zM363 1603l242 311h285l-347 -311h-180z" />
    <glyph glyph-name="Lcommaaccent" unicode="&#x13b;" horiz-adv-x="1038" 
d="M89 0l248 1407h232l-215 -1218h606l-47 -189h-824zM251 -544l144 421h234l-209 -421h-169z" />
    <glyph glyph-name="lcommaaccent" unicode="&#x13c;" horiz-adv-x="566" 
d="M86 0l255 1446l229 46l-263 -1492h-221zM-75 -544l144 421h234l-209 -421h-169z" />
    <glyph glyph-name="Lcaron" unicode="&#x13d;" horiz-adv-x="1038" 
d="M89 0l248 1407h232l-215 -1218h606l-47 -189h-824zM655 958l159 533h238l-223 -533h-174z" />
    <glyph glyph-name="lcaron" unicode="&#x13e;" horiz-adv-x="797" 
d="M86 0l255 1446l229 46l-263 -1492h-221zM639 958l159 533h238l-224 -533h-173z" />
    <glyph glyph-name="Ldot" unicode="&#x13f;" horiz-adv-x="1038" 
d="M89 0l248 1407h232l-215 -1218h606l-47 -189h-824zM838 796q59 0 101 -43t42 -102q0 -61 -42.5 -103.5t-102.5 -42.5q-62 0 -104 42.5t-42 104.5q0 60 43 102t105 42z" />
    <glyph glyph-name="ldot" unicode="&#x140;" horiz-adv-x="854" 
d="M86 0l255 1446l229 46l-263 -1492h-221zM738 778q59 0 101 -43t42 -102q0 -61 -42.5 -103.5t-102.5 -42.5q-61 0 -103.5 42.5t-42.5 104.5q0 60 43 102t105 42z" />
    <glyph glyph-name="Lslash" unicode="&#x141;" horiz-adv-x="1046" 
d="M98 0l72 406l-196 -113l38 214l195 112l139 788h231l-114 -652l446 256l-38 -213l-446 -257l-62 -352h606l-47 -189h-824z" />
    <glyph glyph-name="lslash" unicode="&#x142;" horiz-adv-x="634" 
d="M120 0l96 547l-214 -121l37 211l215 122l121 687l229 46l-106 -602l213 121l-37 -211l-214 -122l-119 -678h-221z" />
    <glyph glyph-name="Nacute" unicode="&#x143;" horiz-adv-x="1442" 
d="M89 0l248 1407h214l476 -1040l183 1040h217l-248 -1407h-210l-480 1040l-183 -1040h-217zM779 1536l241 311h286l-348 -311h-179z" />
    <glyph glyph-name="nacute" unicode="&#x144;" horiz-adv-x="1180" 
d="M78 0l174 985h182l-7 -137q178 166 369 166q140 0 213 -71q56 -55 56 -149q0 -63 -24 -199l-105 -595h-220l105 598q14 80 14 115q0 106 -118 106q-70 0 -156.5 -51t-149.5 -130l-112 -638h-221zM547 1118l242 311h285l-347 -311h-180z" />
    <glyph glyph-name="Ncommaaccent" unicode="&#x145;" horiz-adv-x="1442" 
d="M89 0l248 1407h214l476 -1040l183 1040h217l-248 -1407h-210l-480 1040l-183 -1040h-217zM406 -544l144 421h234l-209 -421h-169z" />
    <glyph glyph-name="ncommaaccent" unicode="&#x146;" horiz-adv-x="1180" 
d="M78 0l174 985h182l-7 -137q178 166 369 166q140 0 213 -71q56 -55 56 -149q0 -63 -24 -199l-105 -595h-220l105 598q14 80 14 115q0 106 -118 106q-70 0 -156.5 -51t-149.5 -130l-112 -638h-221zM248 -544l144 421h234l-209 -421h-169z" />
    <glyph glyph-name="Ncaron" unicode="&#x147;" horiz-adv-x="1442" 
d="M89 0l248 1407h214l476 -1040l183 1040h217l-248 -1407h-210l-480 1040l-183 -1040h-217zM913 1676l194 171h225l-318 -311h-240l-209 311h213z" />
    <glyph glyph-name="ncaron" unicode="&#x148;" horiz-adv-x="1180" 
d="M78 0l174 985h182l-7 -137q178 166 369 166q140 0 213 -71q56 -55 56 -149q0 -63 -24 -199l-105 -595h-220l105 598q14 80 14 115q0 106 -118 106q-70 0 -156.5 -51t-149.5 -130l-112 -638h-221zM686 1258l194 171h225l-318 -311h-240l-209 311h213z" />
    <glyph glyph-name="napostrophe" unicode="&#x149;" horiz-adv-x="1180" 
d="M72 1048l124 434h234l-188 -434h-170zM77 0l174 985h182l-7 -137q177 166 369 166q140 0 213 -71q56 -54 56 -150q0 -61 -24 -198l-105 -595h-221l106 598q14 80 14 115q0 106 -118 106q-70 0 -156.5 -51t-149.5 -130l-112 -638h-221z" />
    <glyph glyph-name="Eng" unicode="&#x14a;" horiz-adv-x="1442" 
d="M89 0l248 1407h216l474 -1040l183 1040h217l-232 -1316q-40 -227 -108.5 -344.5t-230.5 -239.5l-90 87q87 109 122 185q44 97 72 237l-471 1024l-183 -1040h-217z" />
    <glyph glyph-name="eng" unicode="&#x14b;" horiz-adv-x="1180" 
d="M78 0l174 985h182l-7 -137q178 166 369 166q140 0 213 -71q56 -55 56 -149q0 -63 -24 -199l-93 -530q-44 -251 -138 -377q-61 -82 -196 -181l-90 87q87 110 121 185q51 110 95 359l81 460q14 80 14 115q0 106 -118 106q-70 0 -156.5 -51t-149.5 -130l-112 -638h-221z" />
    <glyph glyph-name="Omacron" unicode="&#x14c;" horiz-adv-x="1409" 
d="M837 1436q162 0 290 -64q134 -67 193 -210q51 -122 51 -274q0 -159 -44.5 -325.5t-118.5 -285.5q-100 -161 -240 -236q-131 -70 -316 -70q-261 0 -396 129q-70 67 -106 172q-39 117 -39 246q0 174 54 360q162 558 672 558zM830 1250q-252 0 -380 -269q-44 -92 -72 -226.5
t-28 -251.5q0 -170 83 -262q75 -84 224 -84q152 0 254 94q119 110 178 335q43 166 43 315q0 172 -83 263q-78 86 -219 86zM538 1605l29 169h688l-29 -169h-688z" />
    <glyph glyph-name="omacron" unicode="&#x14d;" horiz-adv-x="1118" 
d="M629 1014q197 0 306 -107q109 -106 109 -306q0 -113 -35 -228.5t-94 -197.5q-148 -204 -420 -204q-203 0 -309 102q-53 50 -82.5 132t-29.5 177q0 113 35 229t94 198q148 205 426 205zM617 835q-167 0 -253 -174q-62 -125 -62 -277q0 -234 203 -234q163 0 249 174
q62 126 62 279q0 107 -49 168q-51 64 -150 64zM357 1184l29 169h625l-29 -169h-625z" />
    <glyph glyph-name="Obreve" unicode="&#x14e;" horiz-adv-x="1409" 
d="M837 1436q162 0 290 -64q134 -67 193 -210q51 -122 51 -274q0 -159 -44.5 -325.5t-118.5 -285.5q-100 -161 -240 -236q-131 -70 -316 -70q-261 0 -396 129q-70 67 -106 172q-39 117 -39 246q0 174 54 360q162 558 672 558zM830 1250q-252 0 -380 -269q-44 -92 -72 -226.5
t-28 -251.5q0 -170 83 -262q75 -84 224 -84q152 0 254 94q119 110 178 335q43 166 43 315q0 172 -83 263q-78 86 -219 86zM586 1842h156q-3 -28 -3 -45q0 -106 164 -106q93 0 136.5 31.5t70.5 119.5h156q-27 -139 -72 -200q-89 -120 -301 -120q-317 0 -317 223q0 35 10 97z
" />
    <glyph glyph-name="obreve" unicode="&#x14f;" horiz-adv-x="1118" 
d="M629 1014q197 0 306 -107q109 -106 109 -306q0 -113 -35 -228.5t-94 -197.5q-148 -204 -420 -204q-203 0 -309 102q-53 50 -82.5 132t-29.5 177q0 113 35 229t94 198q148 205 426 205zM617 835q-167 0 -253 -174q-62 -125 -62 -277q0 -234 203 -234q163 0 249 174
q62 126 62 279q0 107 -49 168q-51 64 -150 64zM367 1424h156q-2 -28 -2 -44q0 -107 163 -107q94 0 137 31.5t70 119.5h156q-27 -140 -72 -200q-89 -120 -300 -120q-317 0 -317 223q0 34 9 97z" />
    <glyph glyph-name="Ohungarumlaut" unicode="&#x150;" horiz-adv-x="1409" 
d="M837 1436q162 0 290 -64q134 -67 193 -210q51 -122 51 -274q0 -159 -44.5 -325.5t-118.5 -285.5q-100 -161 -240 -236q-131 -70 -316 -70q-261 0 -396 129q-70 67 -106 172q-39 117 -39 246q0 174 54 360q162 558 672 558zM830 1250q-252 0 -380 -269q-44 -92 -72 -226.5
t-28 -251.5q0 -170 83 -262q75 -84 224 -84q152 0 254 94q119 110 178 335q43 166 43 315q0 172 -83 263q-78 86 -219 86zM621 1536l206 311h267l-306 -311h-167zM971 1536l206 311h267l-307 -311h-166z" />
    <glyph glyph-name="ohungarumlaut" unicode="&#x151;" horiz-adv-x="1118" 
d="M629 1014q197 0 306 -107q109 -106 109 -306q0 -113 -35 -228.5t-94 -197.5q-148 -204 -420 -204q-203 0 -309 102q-53 50 -82.5 132t-29.5 177q0 113 35 229t94 198q148 205 426 205zM617 835q-167 0 -253 -174q-62 -125 -62 -277q0 -234 203 -234q163 0 249 174
q62 126 62 279q0 107 -49 168q-51 64 -150 64zM393 1118l206 311h267l-306 -311h-167zM743 1118l205 311h268l-307 -311h-166z" />
    <glyph glyph-name="OE" unicode="&#x152;" horiz-adv-x="1836" 
d="M1667 0h-828q-218 0 -298 10q-225 27 -328 161q-99 128 -99 358q0 270 117 500q140 276 399 347q71 19 148 25t260 6h868l-48 -189h-607l-67 -381h493l-45 -179h-480l-82 -469h643zM838 186l181 1031h-74q-124 0 -178 -8t-110 -33q-149 -70 -232 -273q-32 -79 -52 -184
t-20 -196q0 -104 36.5 -183t101.5 -114q45 -25 97.5 -32.5t174.5 -7.5h75z" />
    <glyph glyph-name="oe" unicode="&#x153;" horiz-adv-x="1681" 
d="M836 144q-147 -173 -355 -173q-195 0 -298 102q-109 107 -109 311q0 111 34.5 227.5t91.5 197.5q145 205 407 205q173 0 261 -82q33 -31 71 -101q73 89 171 136t211 47q164 0 248 -78q69 -65 69 -183q0 -109 -59.5 -177.5t-192.5 -112.5q-111 -37 -402 -76
q-1 -130 55.5 -188.5t182.5 -58.5q75 0 134.5 18.5t144.5 69.5l50 -163q-177 -94 -373 -94q-259 0 -342 173zM605 835q-160 0 -243 -174q-60 -125 -60 -278q0 -233 193 -233q156 0 239 174q60 126 60 280q0 106 -46 167q-48 64 -143 64zM1002 544q190 22 299 61
q74 27 106 60.5t32 85.5q0 103 -125 103q-245 0 -312 -310z" />
    <glyph glyph-name="Racute" unicode="&#x154;" horiz-adv-x="1241" 
d="M422 569l-101 -569h-231l248 1407h398q243 0 351 -66q131 -78 131 -266q0 -166 -85.5 -289t-232.5 -170q36 -31 57.5 -69.5t52.5 -126.5l146 -420h-263l-109 355q-47 150 -71.5 182t-92.5 32h-198zM451 735h177q198 0 270 82q36 41 58.5 106t22.5 129q0 96 -58.5 134
t-206.5 38h-177zM653 1536l241 311h286l-348 -311h-179z" />
    <glyph glyph-name="racute" unicode="&#x155;" horiz-adv-x="771" 
d="M78 0l174 985h182l-13 -171q212 197 441 188l-49 -192q-242 -13 -408 -205l-106 -605h-221zM458 1118l242 311h285l-347 -311h-180z" />
    <glyph glyph-name="Rcommaaccent" unicode="&#x156;" horiz-adv-x="1241" 
d="M422 569l-101 -569h-231l248 1407h398q243 0 351 -66q131 -78 131 -266q0 -166 -85.5 -289t-232.5 -170q36 -31 57.5 -69.5t52.5 -126.5l146 -420h-263l-109 355q-47 150 -71.5 182t-92.5 32h-198zM451 735h177q198 0 270 82q36 41 58.5 106t22.5 129q0 96 -58.5 134
t-206.5 38h-177zM337 -544l144 421h234l-209 -421h-169z" />
    <glyph glyph-name="rcommaaccent" unicode="&#x157;" horiz-adv-x="771" 
d="M78 0l174 985h182l-13 -171q212 197 441 188l-48 -192q-242 -13 -408 -205l-107 -605h-221zM-82 -544l144 421h234l-209 -421h-169z" />
    <glyph glyph-name="Rcaron" unicode="&#x158;" horiz-adv-x="1241" 
d="M422 569l-101 -569h-231l248 1407h398q243 0 351 -66q131 -78 131 -266q0 -166 -85.5 -289t-232.5 -170q36 -31 57.5 -69.5t52.5 -126.5l146 -420h-263l-109 355q-47 150 -71.5 182t-92.5 32h-198zM451 735h177q198 0 270 82q36 41 58.5 106t22.5 129q0 96 -58.5 134
t-206.5 38h-177zM800 1676l195 171h225l-318 -311h-240l-209 311h212z" />
    <glyph glyph-name="rcaron" unicode="&#x159;" horiz-adv-x="771" 
d="M78 0l174 985h182l-13 -171q212 197 441 188l-49 -192q-242 -13 -408 -205l-106 -605h-221zM573 1258l194 171h226l-319 -311h-240l-209 311h213z" />
    <glyph glyph-name="Sacute" unicode="&#x15a;" horiz-adv-x="1055" 
d="M-20 64l98 189q159 -96 341 -96q180 0 260 81q67 66 67 159q0 75 -39 116t-174 109q-118 60 -174 97.5t-99 86.5q-76 89 -76 214q0 88 34.5 169t95.5 134q128 113 354 113q212 0 395 -96l-105 -177q-145 87 -288 87q-131 0 -199 -66q-59 -56 -59 -140q0 -70 48.5 -116
t202.5 -122q178 -89 241 -154q81 -85 81 -225q0 -107 -44 -199.5t-123 -153.5q-134 -103 -396 -103q-279 0 -442 93zM586 1536l242 311h285l-347 -311h-180z" />
    <glyph glyph-name="sacute" unicode="&#x15b;" horiz-adv-x="836" 
d="M-32 59l86 169q85 -50 144.5 -69t129.5 -19q83 0 131.5 40.5t48.5 110.5q0 43 -26 68q-18 18 -129 81q-125 70 -173 127q-53 62 -53 148q0 136 99.5 217.5t265.5 81.5q164 0 304 -66l-80 -162q-99 59 -216 59q-148 0 -148 -117q0 -38 25.5 -61t149.5 -96
q112 -66 159 -126.5t47 -139.5q0 -61 -26 -124t-70 -107q-102 -103 -320 -103q-209 0 -349 88zM411 1118l241 311h286l-348 -311h-179z" />
    <glyph glyph-name="Scircumflex" unicode="&#x15c;" horiz-adv-x="1055" 
d="M-20 64l98 189q159 -96 341 -96q180 0 260 81q67 66 67 159q0 75 -39 116t-174 109q-118 60 -174 97.5t-99 86.5q-76 89 -76 214q0 88 34.5 169t95.5 134q128 113 354 113q212 0 395 -96l-105 -177q-145 87 -288 87q-131 0 -199 -66q-59 -56 -59 -140q0 -70 48.5 -116
t202.5 -122q178 -89 241 -154q81 -85 81 -225q0 -107 -44 -199.5t-123 -153.5q-134 -103 -396 -103q-279 0 -442 93zM717 1707l-195 -171h-225l318 311h240l210 -311h-213z" />
    <glyph glyph-name="scircumflex" unicode="&#x15d;" horiz-adv-x="836" 
d="M-32 59l86 169q85 -50 144.5 -69t129.5 -19q83 0 131.5 40.5t48.5 110.5q0 43 -26 68q-18 18 -129 81q-125 70 -173 127q-53 62 -53 148q0 136 99.5 217.5t265.5 81.5q164 0 304 -66l-80 -162q-99 59 -216 59q-148 0 -148 -117q0 -38 25.5 -61t149.5 -96
q112 -66 159 -126.5t47 -139.5q0 -61 -26 -124t-70 -107q-102 -103 -320 -103q-209 0 -349 88zM562 1289l-195 -171h-225l318 311h240l210 -311h-213z" />
    <glyph glyph-name="Scedilla" unicode="&#x15e;" horiz-adv-x="1055" 
d="M-20 64l98 189q160 -95 341 -95q180 0 260 81q67 66 67 159q0 74 -39 115.5t-174 109.5q-118 59 -174 97t-99 87q-76 88 -76 213q0 88 34.5 169t95.5 134q128 113 354 113q214 0 395 -96l-105 -177q-145 87 -288 87q-131 0 -199 -66q-59 -56 -59 -140q0 -70 48.5 -116
t202.5 -122q178 -88 241 -154q81 -85 81 -225q0 -171 -104 -293q-123 -144 -380 -159l-77 -101q100 -10 146.5 -50.5t46.5 -117.5q0 -107 -78 -169.5t-211 -62.5q-104 0 -221 49l62 110q66 -31 136 -31q54 0 88 30.5t34 78.5q0 75 -155 83l-14 42l107 137q-243 11 -385 91z
" />
    <glyph glyph-name="scedilla" unicode="&#x15f;" horiz-adv-x="836" 
d="M-32 60l86 168q84 -49 144 -68t130 -19q83 0 131.5 40.5t48.5 110.5q0 43 -26 68q-18 18 -129 81q-125 70 -173 127q-53 61 -53 147q0 136 99.5 217.5t265.5 81.5q164 0 304 -66l-80 -162q-100 59 -216 59q-148 0 -148 -117q0 -38 25.5 -61t149.5 -96q112 -66 159 -126.5
t47 -138.5q0 -75 -36.5 -147.5t-95.5 -115.5q-75 -54 -217 -69l-77 -100q100 -10 146.5 -50.5t46.5 -117.5q0 -107 -78 -169.5t-211 -62.5q-105 0 -221 49l61 110q67 -31 136 -31q55 0 89 30.5t34 79.5q0 74 -155 82l-14 42l108 138q-163 11 -281 86z" />
    <glyph glyph-name="Scaron" unicode="&#x160;" horiz-adv-x="1055" 
d="M-20 64l98 189q159 -96 341 -96q180 0 260 81q67 66 67 159q0 75 -39 116t-174 109q-118 60 -174 97.5t-99 86.5q-76 89 -76 214q0 88 34.5 169t95.5 134q128 113 354 113q212 0 395 -96l-105 -177q-145 87 -288 87q-131 0 -199 -66q-59 -56 -59 -140q0 -70 48.5 -116
t202.5 -122q178 -89 241 -154q81 -85 81 -225q0 -107 -44 -199.5t-123 -153.5q-134 -103 -396 -103q-279 0 -442 93zM727 1676l195 171h225l-318 -311h-240l-209 311h212z" />
    <glyph glyph-name="scaron" unicode="&#x161;" horiz-adv-x="836" 
d="M-32 59l86 169q85 -50 144.5 -69t129.5 -19q83 0 131.5 40.5t48.5 110.5q0 43 -26 68q-18 18 -129 81q-125 70 -173 127q-53 62 -53 148q0 136 99.5 217.5t265.5 81.5q164 0 304 -66l-80 -162q-99 59 -216 59q-148 0 -148 -117q0 -38 25.5 -61t149.5 -96
q112 -66 159 -126.5t47 -139.5q0 -61 -26 -124t-70 -107q-102 -103 -320 -103q-209 0 -349 88zM544 1258l195 171h225l-318 -311h-240l-210 311h213z" />
    <glyph glyph-name="Tcommaaccent" unicode="&#x162;" horiz-adv-x="1100" 
d="M347 0l215 1218h-407l47 189h1033l-47 -189h-395l-214 -1218h-232zM185 -544l144 421h234l-210 -421h-168z" />
    <glyph glyph-name="tcommaaccent" unicode="&#x163;" horiz-adv-x="732" 
d="M255 806h-169l45 179h162l57 246l213 71l-56 -317h236l-46 -179h-221l-78 -437q-18 -105 -18 -149q0 -71 88 -71q63 0 132 38l45 -166q-136 -50 -263 -50q-231 0 -231 187q0 60 21 178zM35 -544l144 421h234l-209 -421h-169z" />
    <glyph glyph-name="Tcaron" unicode="&#x164;" horiz-adv-x="1100" 
d="M347 0l215 1218h-407l47 189h1033l-47 -189h-395l-214 -1218h-232zM747 1676l195 171h225l-318 -311h-240l-209 311h212z" />
    <glyph glyph-name="tcaron" unicode="&#x165;" horiz-adv-x="857" 
d="M254 806h-169l45 179h163l56 246l213 71l-56 -317h237l-46 -179h-222l-77 -437q-19 -106 -19 -149q0 -71 88 -71q64 0 132 38l45 -166q-137 -50 -263 -50q-231 0 -231 187q0 58 21 178zM722 1083l136 487h238l-205 -487h-169z" />
    <glyph glyph-name="Tbar" unicode="&#x166;" horiz-adv-x="1100" 
d="M347 0l113 636h-254l45 174h239l72 408h-407l47 189h1033l-47 -189h-395l-72 -408h256l-45 -174h-241l-112 -636h-232z" />
    <glyph glyph-name="tbar" unicode="&#x167;" horiz-adv-x="732" 
d="M255 806h-169l45 179h162l57 246l213 71l-56 -317h236l-46 -179h-222l-30 -171h223l-41 -153h-209l-24 -139q-15 -84 -15 -122q0 -71 89 -71q64 0 132 37l45 -166q-136 -50 -264 -50q-232 0 -232 182q0 53 21 170l28 159h-167l42 153h152z" />
    <glyph glyph-name="Utilde" unicode="&#x168;" horiz-adv-x="1351" 
d="M329 1407h232l-155 -877q-22 -125 -22 -182q0 -191 236 -191q190 0 267 127q41 66 72 246l155 877h231l-168 -956q-23 -130 -47 -195t-68 -120q-133 -165 -458 -165q-247 0 -362 97q-93 78 -93 242q0 75 25 219zM1137 1834h144q-27 -95 -63 -161q-76 -140 -210 -140
q-94 0 -167 82q-36 40 -53 52.5t-36 12.5q-31 0 -63 -36.5t-53 -97.5h-144q38 116 81 181q78 120 199 120q90 0 161 -75q46 -49 61 -60.5t35 -11.5q62 0 108 134z" />
    <glyph glyph-name="utilde" unicode="&#x169;" horiz-adv-x="1155" 
d="M714 119q-158 -148 -335 -148q-124 0 -192.5 59t-68.5 167q0 73 24 208l102 580h221l-102 -576q-15 -86 -15 -138q0 -108 112 -108q66 0 141.5 38t134.5 101l120 683h221l-174 -985h-191zM965 1416h144q-28 -96 -63 -161q-77 -141 -210 -141q-93 0 -168 83
q-36 40 -52.5 52.5t-35.5 12.5q-31 0 -63 -36.5t-53 -97.5h-144q38 114 81 181q76 120 198 120q91 0 162 -76q46 -50 61 -61t35 -11q62 0 108 135z" />
    <glyph glyph-name="Umacron" unicode="&#x16a;" horiz-adv-x="1351" 
d="M329 1407h232l-155 -877q-22 -125 -22 -182q0 -191 236 -191q190 0 267 127q41 66 72 246l155 877h231l-168 -956q-23 -130 -47 -195t-68 -120q-133 -165 -458 -165q-247 0 -362 97q-93 78 -93 242q0 75 25 219zM516 1605l29 169h688l-29 -169h-688z" />
    <glyph glyph-name="umacron" unicode="&#x16b;" horiz-adv-x="1154" 
d="M714 119q-158 -148 -335 -148q-124 0 -192.5 59t-68.5 167q0 73 24 208l102 580h221l-102 -576q-15 -86 -15 -138q0 -108 112 -108q66 0 141.5 38t134.5 101l120 683h221l-174 -985h-191zM375 1184l29 169h625l-29 -169h-625z" />
    <glyph glyph-name="Ubreve" unicode="&#x16c;" horiz-adv-x="1351" 
d="M329 1407h232l-155 -877q-22 -125 -22 -182q0 -191 236 -191q190 0 267 127q41 66 72 246l155 877h231l-168 -956q-23 -130 -47 -195t-68 -120q-133 -165 -458 -165q-247 0 -362 97q-93 78 -93 242q0 75 25 219zM561 1842h157q-3 -28 -3 -45q0 -106 163 -106
q94 0 137.5 31.5t69.5 119.5h157q-28 -140 -73 -200q-88 -120 -300 -120q-317 0 -317 221q0 36 9 99z" />
    <glyph glyph-name="ubreve" unicode="&#x16d;" horiz-adv-x="1154" 
d="M714 119q-158 -148 -335 -148q-124 0 -192.5 59t-68.5 167q0 73 24 208l102 580h221l-102 -576q-15 -86 -15 -138q0 -108 112 -108q66 0 141.5 38t134.5 101l120 683h221l-174 -985h-191zM389 1424h156q-3 -31 -3 -45q0 -106 163 -106q94 0 137.5 31.5t70.5 119.5h156
q-28 -140 -72 -200q-89 -120 -300 -120q-318 0 -318 220q0 36 10 100z" />
    <glyph glyph-name="Uring" unicode="&#x16e;" horiz-adv-x="1351" 
d="M329 1407h232l-155 -877q-22 -125 -22 -182q0 -191 236 -191q190 0 267 127q41 66 72 246l155 877h231l-168 -956q-23 -130 -47 -195t-68 -120q-133 -165 -458 -165q-247 0 -362 97q-93 78 -93 242q0 75 25 219zM873 1876q103 0 165 -53q64 -56 64 -148t-64 -148
t-168 -56t-167 55q-65 58 -65 149q0 93 63 147t172 54zM872 1781q-103 0 -103 -108q0 -107 101 -107t101 107q0 108 -99 108z" />
    <glyph glyph-name="uring" unicode="&#x16f;" horiz-adv-x="1154" 
d="M714 119q-158 -148 -335 -148q-124 0 -192.5 59t-68.5 167q0 73 24 208l102 580h221l-102 -576q-15 -86 -15 -138q0 -108 112 -108q66 0 141.5 38t134.5 101l120 683h221l-174 -985h-191zM711 1506q103 0 164 -53q65 -56 65 -147q0 -92 -64 -148.5t-168 -56.5t-167 55
q-65 58 -65 150t63 146t172 54zM709 1411q-102 0 -102 -108q0 -107 100 -107q102 0 102 107q0 108 -100 108z" />
    <glyph glyph-name="Uhungarumlaut" unicode="&#x170;" horiz-adv-x="1351" 
d="M329 1407h232l-155 -877q-22 -125 -22 -182q0 -191 236 -191q190 0 267 127q41 66 72 246l155 877h231l-168 -956q-23 -130 -47 -195t-68 -120q-133 -165 -458 -165q-247 0 -362 97q-93 78 -93 242q0 75 25 219zM580 1536l206 311h267l-306 -311h-167zM930 1536l206 311
h267l-306 -311h-167z" />
    <glyph glyph-name="uhungarumlaut" unicode="&#x171;" horiz-adv-x="1155" 
d="M714 119q-158 -148 -335 -148q-124 0 -192.5 59t-68.5 167q0 73 24 208l102 580h221l-102 -576q-15 -86 -15 -138q0 -108 112 -108q66 0 141.5 38t134.5 101l120 683h221l-174 -985h-191zM408 1118l205 311h267l-306 -311h-166zM757 1118l206 311h267l-306 -311h-167z
" />
    <glyph glyph-name="Uogonek" unicode="&#x172;" horiz-adv-x="1351" 
d="M329 1407h232l-155 -877q-22 -125 -22 -180q0 -192 236 -192q190 0 267 126q41 67 72 246l155 877h231l-168 -956q-27 -152 -62 -230t-103 -135q-90 -77 -259 -103q-10 -10 -68 -59q-143 -122 -143 -238q0 -43 33 -63.5t104 -20.5q47 0 129 19l7 -115q-97 -35 -195 -35
q-269 0 -269 200q0 87 50 154t175 147q-187 9 -281 60q-146 79 -146 279q0 74 25 218z" />
    <glyph glyph-name="uogonek" unicode="&#x173;" horiz-adv-x="1154" 
d="M714 119q-158 -148 -335 -148q-124 0 -192.5 59t-68.5 167q0 73 24 208l102 580h221l-102 -576q-15 -86 -15 -138q0 -108 112 -108q66 0 141.5 38t134.5 101l120 683h221l-174 -985q-109 -86 -154 -137q-81 -91 -81 -177q0 -43 33 -63.5t103 -20.5q47 0 130 19l6 -115
q-97 -35 -194 -35q-269 0 -269 199q0 96 66 173t215 157h-56z" />
    <glyph glyph-name="Wcircumflex" unicode="&#x174;" horiz-adv-x="1764" 
d="M275 0l-95 1407h229l53 -1073l490 1073h188l113 -1091l419 1091h235l-593 -1407h-219l-105 1067l-485 -1067h-230zM1075 1707l-195 -171h-225l319 311h240l209 -311h-213z" />
    <glyph glyph-name="wcircumflex" unicode="&#x175;" horiz-adv-x="1561" 
d="M266 0l-148 985h225l77 -720l336 720h185l129 -744q233 313 233 474q0 45 -18 77t-70 80l131 145q92 -65 134.5 -128.5t42.5 -135.5q0 -81 -35.5 -170.5t-117.5 -213.5q-115 -176 -277 -369h-186l-105 704l-328 -704h-208zM887 1289l-195 -171h-225l318 311h240l209 -311
h-213z" />
    <glyph glyph-name="Ycircumflex" unicode="&#x176;" horiz-adv-x="1128" 
d="M361 0l96 542l-313 865h249l216 -642l439 642h261l-621 -865l-95 -542h-232zM755 1707l-195 -171h-225l318 311h240l209 -311h-212z" />
    <glyph glyph-name="ycircumflex" unicode="&#x177;" horiz-adv-x="1007" 
d="M302 1l-212 984h225l145 -773q17 22 110 144q71 92 117.5 195.5t46.5 167.5q0 42 -18.5 74t-68.5 79l138 145q93 -66 135 -129.5t42 -137.5q0 -102 -61.5 -223t-219.5 -328q-194 -256 -280.5 -390.5t-160.5 -299.5l-207 73q122 208 156 261t113 158zM547 1289l-194 -171
h-225l318 311h240l209 -311h-213z" />
    <glyph glyph-name="Ydieresis" unicode="&#x178;" horiz-adv-x="1128" 
d="M361 0l96 542l-313 865h249l216 -642l439 642h261l-621 -865l-95 -542h-232zM549 1822q53 0 90.5 -38.5t37.5 -91.5q0 -55 -38 -93t-92 -38t-92 38.5t-38 93.5q0 54 38.5 91.5t93.5 37.5zM960 1822q52 0 90 -38.5t38 -91.5q0 -55 -38 -93t-92 -38t-92 38.5t-38 93.5
q0 54 38.5 91.5t93.5 37.5z" />
    <glyph glyph-name="Zacute" unicode="&#x179;" horiz-adv-x="1079" 
d="M-61 0l23 153l894 1065h-627l47 189h888l-14 -153l-894 -1065h742l-46 -189h-1013zM629 1536l241 311h286l-348 -311h-179z" />
    <glyph glyph-name="zacute" unicode="&#x17a;" horiz-adv-x="887" 
d="M-2 0l-24 159l611 647h-62q-241 0 -384 40l60 180q170 -41 458 -41h192l31 -143l-620 -663q72 6 125 6q241 0 442 -81l-76 -174q-119 44 -224 60.5t-267 16.5q-90 0 -262 -7zM456 1118l242 311h285l-347 -311h-180z" />
    <glyph glyph-name="Zdotaccent" unicode="&#x17b;" horiz-adv-x="1079" 
d="M-61 0l23 153l894 1065h-627l47 189h888l-14 -153l-894 -1065h742l-46 -189h-1013zM766 1827q55 0 94.5 -40t39.5 -96q0 -57 -40 -97t-96 -40q-57 0 -96.5 40t-39.5 98q0 56 40 95.5t98 39.5z" />
    <glyph glyph-name="zdotaccent" unicode="&#x17c;" horiz-adv-x="887" 
d="M-2 0l-24 159l611 647h-62q-241 0 -384 40l60 180q170 -41 458 -41h192l31 -143l-620 -663q72 6 125 6q241 0 442 -81l-76 -174q-119 44 -224 60.5t-267 16.5q-90 0 -262 -7zM573 1410q55 0 94.5 -40t39.5 -96q0 -57 -39.5 -97t-96.5 -40t-96.5 40t-39.5 98
q0 56 40.5 95.5t97.5 39.5z" />
    <glyph glyph-name="Zcaron" unicode="&#x17d;" horiz-adv-x="1079" 
d="M-61 0l23 153l894 1065h-627l47 189h888l-14 -153l-894 -1065h742l-46 -189h-1013zM777 1676l194 171h225l-318 -311h-240l-209 311h213z" />
    <glyph glyph-name="zcaron" unicode="&#x17e;" horiz-adv-x="887" 
d="M-2 0l-24 159l611 647h-62q-241 0 -384 40l60 180q170 -41 458 -41h192l31 -143l-620 -663q72 6 125 6q241 0 442 -81l-76 -174q-119 44 -224 60.5t-267 16.5q-90 0 -262 -7zM590 1258l195 171h225l-318 -311h-240l-209 311h212z" />
    <glyph glyph-name="uni018F" unicode="&#x18f;" horiz-adv-x="1417" 
d="M241 1119q55 88 106 139q176 178 485 178q287 0 421 -149q74 -81 108 -211q24 -91 24 -192q0 -163 -45 -323.5t-127 -286.5q-197 -303 -574 -303q-304 0 -435 186q-89 127 -89 352q0 142 31 265h980q8 63 8 113q0 191 -84 282q-73 79 -233 79q-180 0 -308 -118
q-44 -40 -95 -114zM1092 595h-735q-7 -61 -7 -103q0 -110 39 -194q66 -146 256 -146q171 0 287.5 115.5t159.5 327.5z" />
    <glyph glyph-name="florin" unicode="&#x192;" 
d="M477 619h-217l42 179h206l54 306q28 158 92 229q83 93 241 93q112 0 233 -46l-70 -163q-74 31 -128 31q-70 0 -103 -44t-54 -169l-42 -237h243l-42 -179h-233l-118 -674q-29 -170 -95 -248q-84 -100 -245 -100q-107 0 -216 39l70 163q63 -24 112 -24q72 0 104.5 43.5
t54.5 169.5z" />
    <glyph glyph-name="uni01C4" unicode="&#x1c4;" horiz-adv-x="2358" 
d="M89 0l248 1407h369q289 0 424 -97q169 -123 169 -420q0 -127 -28.5 -261.5t-77.5 -239.5q-111 -239 -317 -327q-144 -62 -368 -62h-419zM354 189h125q109 0 171 10.5t119 39.5q149 75 228 286q63 168 63 343q0 249 -158 316q-80 34 -258 34h-109zM2055 1676l195 171h225
l-318 -311h-240l-209 311h212zM1218 0l23 153l894 1065h-627l47 189h888l-14 -153l-894 -1065h742l-46 -189h-1013z" />
    <glyph glyph-name="uni01C5" unicode="&#x1c5;" horiz-adv-x="2172" 
d="M89 0l248 1407h369q289 0 424 -97q169 -123 169 -420q0 -127 -28.5 -261.5t-77.5 -239.5q-111 -239 -317 -327q-144 -62 -368 -62h-419zM354 189h125q109 0 171 10.5t119 39.5q149 75 228 286q63 168 63 343q0 249 -158 316q-80 34 -258 34h-109zM1874 1258l195 171h225
l-319 -311h-240l-209 311h213zM1282 0l-24 159l611 647h-62q-241 0 -384 40l60 180q169 -41 457 -41h193l30 -143l-619 -663q71 6 125 6q241 0 442 -81l-77 -174q-118 44 -223 60.5t-267 16.5q-90 0 -262 -7z" />
    <glyph glyph-name="uni01C6" unicode="&#x1c6;" horiz-adv-x="1970" 
d="M836 973l83 473l229 46l-263 -1492h-176l-3 114q-134 -143 -310 -143q-147 0 -234 81q-97 91 -97 275q0 121 34.5 242.5t93.5 211.5q155 233 431 233q58 0 96.5 -7.5t115.5 -33.5zM802 782q-68 53 -163 53q-183 0 -278 -191q-68 -138 -68 -297q0 -197 164 -197
q121 0 210 106q54 66 74 180zM1672 1258l195 171h225l-318 -311h-240l-209 311h212zM1080 0l-24 159l611 647h-62q-241 0 -384 40l61 180q168 -41 457 -41h192l31 -143l-620 -663q71 6 125 6q242 0 442 -81l-76 -174q-118 44 -223.5 60.5t-267.5 16.5q-90 0 -262 -7z" />
    <glyph glyph-name="uni01C7" unicode="&#x1c7;" horiz-adv-x="1597" 
d="M89 0l248 1407h232l-215 -1218h560l-46 -189h-779zM1340 1407h231l-173 -985q-41 -233 -78.5 -348t-104.5 -214q-79 -117 -274 -270l-110 104q91 95 129 146t77 129q76 152 132 466z" />
    <glyph glyph-name="uni01C8" unicode="&#x1c8;" horiz-adv-x="1566" 
d="M89 0l248 1407h232l-215 -1218h560l-46 -189h-779zM1421 1410q55 0 94.5 -40t39.5 -96q0 -57 -39.5 -97t-96.5 -40t-96.5 40t-39.5 98q0 56 40 95.5t98 39.5zM1257 985h221l-162 -920q-45 -251 -138 -377q-61 -83 -196 -181l-90 87q87 110 121 185q51 110 95 359z" />
    <glyph glyph-name="uni01C9" unicode="&#x1c9;" horiz-adv-x="1139" 
d="M86 0l255 1446l229 46l-263 -1492h-221zM995 1410q55 0 94.5 -40t39.5 -96q0 -57 -39.5 -97t-96.5 -40t-96.5 40t-39.5 98q0 56 40.5 95.5t97.5 39.5zM831 985h221l-162 -920q-38 -216 -105 -328t-229 -230l-90 87q87 110 121 185q51 110 95 359z" />
    <glyph glyph-name="uni01CA" unicode="&#x1ca;" horiz-adv-x="2046" 
d="M89 0l248 1407h214l476 -1040l183 1040h217l-248 -1407h-210l-480 1040l-183 -1040h-217zM1789 1407h231l-173 -985q-41 -233 -78.5 -348t-104.5 -214q-79 -117 -274 -270l-110 104q90 95 128.5 146.5t77.5 128.5q76 153 131 466z" />
    <glyph glyph-name="uni01CB" unicode="&#x1cb;" horiz-adv-x="2014" 
d="M89 0l248 1407h214l476 -1040l183 1040h217l-248 -1407h-210l-480 1040l-183 -1040h-217zM1870 1410q55 0 94.5 -40t39.5 -96q0 -57 -39.5 -97t-96.5 -40t-96.5 40t-39.5 98q0 56 40 95.5t98 39.5zM1706 985h221l-162 -920q-45 -251 -138 -377q-62 -83 -196 -181l-90 87
q87 111 121 185q51 110 95 359z" />
    <glyph glyph-name="uni01CC" unicode="&#x1cc;" horiz-adv-x="1738" 
d="M78 0l174 985h182l-7 -137q178 166 369 166q140 0 213 -71q56 -55 56 -149q0 -63 -24 -199l-105 -595h-220l105 598q14 80 14 116q0 105 -118 105q-70 0 -156.5 -51t-149.5 -130l-112 -638h-221zM1594 1410q55 0 94.5 -40t39.5 -96q0 -57 -39.5 -97t-96.5 -40t-96.5 40
t-39.5 98q0 56 40 95.5t98 39.5zM1430 985h221l-162 -920q-44 -251 -138 -377q-61 -82 -196 -181l-90 87q89 114 122 185q50 111 94 359z" />
    <glyph glyph-name="uni01CD" unicode="&#x1cd;" horiz-adv-x="1329" 
d="M945 379h-590l-214 -379h-250l828 1407h214l332 -1407h-238zM909 562l-125 581l-328 -581h453zM843 1676l194 171h226l-319 -311h-240l-209 311h213z" />
    <glyph glyph-name="uni01CE" unicode="&#x1ce;" horiz-adv-x="1130" 
d="M906 0h-221l6 102q-132 -131 -296 -131q-70 0 -135.5 23.5t-107.5 64.5q-88 85 -88 260q0 122 37 249.5t99 219.5q153 226 447 226q174 0 398 -74l-99 -557q-40 -229 -40 -383zM799 797q-72 38 -157 38q-185 0 -279 -191q-71 -143 -71 -311q0 -183 160 -183
q122 0 209 106q54 65 74 180zM728 1258l195 171h225l-318 -311h-240l-209 311h212z" />
    <glyph glyph-name="uni01CF" unicode="&#x1cf;" horiz-adv-x="616" 
d="M106 0l248 1407h232l-249 -1407h-231zM511 1676l195 171h225l-318 -311h-240l-209 311h212z" />
    <glyph glyph-name="uni01D0" unicode="&#x1d0;" horiz-adv-x="569" 
d="M87 0l174 985h221l-174 -985h-221zM414 1258l194 171h225l-318 -311h-240l-209 311h213z" />
    <glyph glyph-name="uni01D1" unicode="&#x1d1;" horiz-adv-x="1409" 
d="M837 1436q162 0 290 -64q134 -67 193 -210q51 -122 51 -274q0 -159 -44.5 -325.5t-118.5 -285.5q-100 -161 -240 -236q-131 -70 -316 -70q-261 0 -396 129q-70 67 -106 172q-39 117 -39 246q0 174 54 360q162 558 672 558zM830 1250q-252 0 -380 -269q-44 -92 -72 -226.5
t-28 -251.5q0 -170 83 -262q75 -84 224 -84q152 0 254 94q119 110 178 335q43 166 43 315q0 172 -83 263q-78 86 -219 86zM907 1676l195 171h225l-318 -311h-240l-210 311h213z" />
    <glyph glyph-name="uni01D2" unicode="&#x1d2;" horiz-adv-x="1118" 
d="M629 1014q197 0 306 -107q109 -106 109 -306q0 -113 -35 -228.5t-94 -197.5q-148 -204 -420 -204q-203 0 -309 102q-53 50 -82.5 132t-29.5 177q0 113 35 229t94 198q148 205 426 205zM617 835q-167 0 -253 -174q-62 -125 -62 -277q0 -234 203 -234q163 0 249 174
q62 126 62 279q0 107 -49 168q-51 64 -150 64zM688 1258l195 171h225l-318 -311h-240l-209 311h212z" />
    <glyph glyph-name="uni01D3" unicode="&#x1d3;" horiz-adv-x="1351" 
d="M329 1407h232l-155 -877q-22 -125 -22 -182q0 -191 236 -191q190 0 267 127q41 66 72 246l155 877h231l-168 -956q-23 -130 -47 -195t-68 -120q-133 -165 -458 -165q-247 0 -362 97q-93 78 -93 242q0 75 25 219zM866 1676l195 171h225l-318 -311h-240l-210 311h213z" />
    <glyph glyph-name="uni01D4" unicode="&#x1d4;" horiz-adv-x="1154" 
d="M714 119q-158 -148 -335 -148q-124 0 -192.5 59t-68.5 167q0 73 24 208l102 580h221l-102 -576q-15 -86 -15 -138q0 -108 112 -108q66 0 141.5 38t134.5 101l120 683h221l-174 -985h-191zM694 1258l194 171h225l-318 -311h-240l-209 311h213z" />
    <glyph glyph-name="uni01DD" unicode="&#x1dd;" horiz-adv-x="1071" 
d="M769 546q5 37 5 68q0 231 -268 231q-80 0 -143.5 -18t-161.5 -69l-31 150q99 58 184 82t190 24q274 0 385 -157q77 -109 77 -271q0 -215 -117 -397q-77 -119 -182 -170q-98 -48 -235 -48q-195 0 -299.5 94.5t-104.5 271.5q0 110 31 209h670zM745 397h-476q-3 -31 -3 -53
q0 -208 196 -208q216 0 283 261z" />
    <glyph glyph-name="Gcaron" unicode="&#x1e6;" horiz-adv-x="1335" 
d="M915 200l62 351h-269l40 174h490l-120 -677q-205 -78 -432 -78q-577 0 -577 533q0 196 62.5 385t167.5 312q202 236 542 236q236 0 424 -118l-107 -173q-154 105 -319 105q-170 0 -283 -91q-136 -109 -202 -341q-46 -159 -46 -308q0 -185 90 -273q82 -81 251 -81
q134 0 226 44zM911 1676l195 171h225l-318 -311h-240l-210 311h213z" />
    <glyph glyph-name="gcaron" unicode="&#x1e7;" horiz-adv-x="1123" 
d="M667 85q-67 -62 -129.5 -88t-143.5 -26q-145 0 -233 78q-97 85 -97 269q0 120 35 243t96 216q154 237 450 237q176 0 394 -74l-137 -777q-50 -283 -114 -407q-121 -235 -444 -235q-202 0 -353 76l88 169q114 -71 262 -71q145 0 214 73t103 263zM793 797q-73 38 -155 38
q-182 0 -275 -191q-32 -64 -51.5 -151.5t-19.5 -163.5q0 -179 158 -179q120 0 206 106q53 66 73 180zM728 1258l195 171h225l-318 -311h-240l-210 311h213z" />
    <glyph glyph-name="uni01EA" unicode="&#x1ea;" horiz-adv-x="1409" 
d="M779 -19q-11 -10 -65 -57q-143 -126 -143 -237q0 -44 33 -64.5t104 -20.5q46 0 129 19l7 -115q-97 -35 -195 -35q-269 0 -269 199q0 88 50 155.5t175 147.5q-177 13 -281 76q-105 62 -159 185q-54 125 -54 283q0 161 44 327t119 285q192 307 556 307q170 0 297 -64
q133 -66 193 -210q51 -122 51 -274q0 -231 -86 -457q-75 -195 -202.5 -309t-303.5 -141zM830 1250q-252 0 -380 -269q-44 -92 -72 -226.5t-28 -251.5q0 -169 83 -261q75 -84 224 -84q152 0 254 94q119 110 178 334q43 167 43 315q0 172 -83 263q-78 86 -219 86z" />
    <glyph glyph-name="uni01EB" unicode="&#x1eb;" horiz-adv-x="1118" 
d="M646 -10q-35 -24 -115 -102q-105 -102 -105 -201q0 -44 33 -64.5t104 -20.5q46 0 129 19l7 -115q-97 -35 -195 -35q-269 0 -269 199q0 86 53.5 158.5t170.5 144.5q-144 12 -224 62q-79 49 -120 142t-41 204q0 114 35 230t94 198q147 205 419 205q205 0 313 -107
q109 -107 109 -306q0 -158 -65 -312q-102 -237 -333 -299zM617 835q-167 0 -253 -174q-62 -125 -62 -277q0 -234 203 -234q163 0 249 174q62 126 62 279q0 107 -49 168q-51 64 -150 64z" />
    <glyph glyph-name="uni01F1" unicode="&#x1f1;" horiz-adv-x="2358" 
d="M89 0l248 1407h369q289 0 424 -97q169 -123 169 -420q0 -127 -28.5 -261.5t-77.5 -239.5q-111 -239 -317 -327q-144 -62 -368 -62h-419zM354 189h125q109 0 171 10.5t119 39.5q149 75 228 286q63 168 63 343q0 249 -158 316q-80 34 -258 34h-109zM1218 0l23 153l894 1065
h-627l47 189h888l-14 -153l-894 -1065h742l-46 -189h-1013z" />
    <glyph glyph-name="uni01F2" unicode="&#x1f2;" horiz-adv-x="2172" 
d="M89 0l248 1407h369q289 0 424 -97q169 -123 169 -420q0 -127 -28.5 -261.5t-77.5 -239.5q-111 -239 -317 -327q-144 -62 -368 -62h-419zM354 189h125q109 0 171 10.5t119 39.5q149 75 228 286q63 168 63 343q0 249 -158 316q-80 34 -258 34h-109zM1282 0l-24 159l611 647
h-62q-241 0 -384 40l60 180q169 -41 457 -41h193l30 -143l-619 -663q71 6 125 6q241 0 442 -81l-77 -174q-118 44 -223 60.5t-267 16.5q-90 0 -262 -7z" />
    <glyph glyph-name="uni01F3" unicode="&#x1f3;" horiz-adv-x="1970" 
d="M836 973l83 473l229 46l-263 -1492h-176l-3 114q-134 -143 -310 -143q-147 0 -234 81q-97 91 -97 275q0 121 34.5 242.5t93.5 211.5q155 233 431 233q58 0 96.5 -7.5t115.5 -33.5zM802 782q-68 53 -163 53q-183 0 -278 -191q-68 -138 -68 -297q0 -197 164 -197
q121 0 210 106q54 66 74 180zM1080 0l-24 159l611 647h-62q-241 0 -384 40l61 180q168 -41 457 -41h192l31 -143l-620 -663q71 6 125 6q242 0 442 -81l-76 -174q-118 44 -223.5 60.5t-267.5 16.5q-90 0 -262 -7z" />
    <glyph glyph-name="uni01F4" unicode="&#x1f4;" horiz-adv-x="1335" 
d="M915 200l62 351h-269l40 174h490l-120 -677q-205 -78 -432 -78q-577 0 -577 533q0 196 62.5 385t167.5 312q202 236 542 236q236 0 424 -118l-107 -173q-154 105 -319 105q-170 0 -283 -91q-136 -109 -202 -341q-46 -159 -46 -308q0 -185 90 -273q82 -81 251 -81
q134 0 226 44zM728 1536l242 311h285l-347 -311h-180z" />
    <glyph glyph-name="uni01F5" unicode="&#x1f5;" horiz-adv-x="1123" 
d="M667 85q-67 -62 -129.5 -88t-143.5 -26q-145 0 -233 78q-97 85 -97 269q0 120 35 243t96 216q154 237 450 237q176 0 394 -74l-137 -777q-50 -283 -114 -407q-121 -235 -444 -235q-202 0 -353 76l88 169q114 -71 262 -71q145 0 214 73t103 263zM793 797q-73 38 -155 38
q-182 0 -275 -191q-32 -64 -51.5 -151.5t-19.5 -163.5q0 -179 158 -179q120 0 206 106q53 66 73 180zM573 1118l242 311h285l-347 -311h-180z" />
    <glyph glyph-name="Aringacute" unicode="&#x1fa;" horiz-adv-x="1329" 
d="M689 1356q-78 59 -78 161q0 92 62.5 146.5t169.5 54.5q106 0 167 -53q64 -56 64 -148q0 -134 -123 -187l314 -1330h-238l-82 379h-590l-214 -379h-250zM909 562l-125 581l-328 -581h453zM844 1622q-102 0 -102 -108q0 -107 100 -107q101 0 101 107q0 108 -99 108z
M762 1763l214 251h286l-320 -251h-180z" />
    <glyph glyph-name="aringacute" unicode="&#x1fb;" horiz-adv-x="1130" 
d="M906 0h-221l6 102q-132 -131 -296 -131q-70 0 -135.5 23.5t-107.5 64.5q-88 85 -88 260q0 122 37 249.5t99 219.5q153 226 447 226q174 0 398 -74l-99 -557q-40 -229 -40 -383zM799 797q-72 38 -157 38q-185 0 -279 -191q-71 -143 -71 -311q0 -183 160 -183
q122 0 209 106q54 65 74 180zM710 1496q102 0 164 -53q64 -55 64 -148q0 -92 -64 -148.5t-168 -56.5t-167 56q-65 57 -65 148q0 94 63 148t173 54zM708 1400q-103 0 -103 -107t101 -107t101 107t-99 107zM625 1549l220 287h285l-325 -287h-180z" />
    <glyph glyph-name="AEacute" unicode="&#x1fc;" horiz-adv-x="1767" 
d="M822 376h-496l-265 -376h-250l1009 1407h1017l-48 -189h-587l-68 -381h474l-46 -179h-459l-83 -469h623l-46 -189h-842zM855 565l115 653h-56l-455 -653h396zM1203 1536l242 311h285l-347 -311h-180z" />
    <glyph glyph-name="aeacute" unicode="&#x1fd;" horiz-adv-x="1587" 
d="M736 145q-159 -174 -423 -174q-278 0 -278 254q0 136 92 229q75 76 201.5 106.5t383.5 36.5l11 61q9 48 9 66q0 116 -171 116q-147 0 -309 -90l-41 153q202 111 399 111q224 0 286 -129q48 44 84 65q106 64 253 64q149 0 230 -68.5t81 -194.5q0 -107 -60 -176t-192 -112
q-111 -37 -402 -76q-1 -129 55.5 -188t182.5 -59q75 0 135.5 19t143.5 69l50 -163q-177 -94 -369 -94q-143 0 -226.5 41.5t-125.5 132.5zM692 457q-50 -3 -76 -4q-167 -8 -249 -46q-49 -22 -76.5 -64.5t-27.5 -94.5q0 -112 132 -112q111 0 186 57t92 155zM908 544
q188 22 298 61q75 27 107 61t32 85q0 103 -125 103q-120 0 -200 -79.5t-112 -230.5zM790 1118l242 311h285l-347 -311h-180z" />
    <glyph glyph-name="Oslashacute" unicode="&#x1fe;" horiz-adv-x="1409" 
d="M1309 1187q62 -138 62 -302q0 -156 -45 -323t-119 -285q-101 -162 -243 -236q-132 -70 -317 -70q-258 0 -401 142l-124 -126l-100 98l144 145q-55 128 -55 294q0 154 45.5 321t118.5 284q194 307 554 307q258 0 400 -136l134 136l96 -97zM1113 991l-706 -717
q79 -117 251 -117q285 0 404 341q62 177 62 351q0 81 -11 142zM363 427l705 713q-80 110 -244 110q-278 0 -400 -332q-68 -185 -68 -394q0 -39 7 -97zM745 1536l242 311h285l-347 -311h-180z" />
    <glyph glyph-name="oslashacute" unicode="&#x1ff;" horiz-adv-x="1118" 
d="M993 829q51 -100 51 -229q0 -111 -35.5 -227.5t-93.5 -197.5q-148 -204 -421 -204q-181 0 -292 92l-115 -111l-90 84l126 122q-49 103 -49 227q0 111 35.5 227t93.5 197q147 205 420 205q176 0 292 -91l118 113l88 -84zM813 655l-463 -449q59 -63 155 -63q191 0 274 223
q38 102 38 212zM304 332l463 449q-55 61 -154 61q-178 0 -263 -199q-50 -117 -50 -231q0 -28 4 -80zM526 1118l242 311h285l-347 -311h-180z" />
    <glyph glyph-name="uni0200" unicode="&#x200;" horiz-adv-x="1329" 
d="M945 379h-590l-214 -379h-250l828 1407h214l332 -1407h-238zM909 562l-125 581l-328 -581h453zM1115 1537h-166l-196 313h267zM766 1537h-167l-196 313h267z" />
    <glyph glyph-name="uni0201" unicode="&#x201;" horiz-adv-x="1130" 
d="M906 0h-221l6 102q-132 -131 -296 -131q-70 0 -135.5 23.5t-107.5 64.5q-88 85 -88 260q0 122 37 249.5t99 219.5q153 226 447 226q174 0 398 -74l-99 -557q-40 -229 -40 -383zM799 797q-72 38 -157 38q-185 0 -279 -191q-71 -143 -71 -311q0 -183 160 -183
q122 0 209 106q54 65 74 180zM981 1118h-167l-196 313h268zM631 1118h-166l-196 313h267z" />
    <glyph glyph-name="uni0202" unicode="&#x202;" horiz-adv-x="1329" 
d="M945 379h-590l-214 -379h-250l828 1407h214l332 -1407h-238zM909 562l-125 581l-328 -581h453zM1187 1522h-157q4 30 4 45q0 105 -163 105q-95 0 -139 -31.5t-69 -118.5h-157q28 140 73 201q88 121 301 121q317 0 317 -222q0 -37 -10 -100z" />
    <glyph glyph-name="uni0203" unicode="&#x203;" horiz-adv-x="1130" 
d="M906 0h-221l6 102q-132 -131 -296 -131q-70 0 -135.5 23.5t-107.5 64.5q-88 85 -88 260q0 122 37 249.5t99 219.5q153 226 447 226q174 0 398 -74l-99 -557q-40 -229 -40 -383zM799 797q-72 38 -157 38q-185 0 -279 -191q-71 -143 -71 -311q0 -183 160 -183
q122 0 209 106q54 65 74 180zM1024 1104h-157q4 27 4 44q0 106 -163 106q-95 0 -138.5 -31.5t-69.5 -118.5h-157q27 139 73 201q89 121 301 121q317 0 317 -221q0 -36 -10 -101z" />
    <glyph glyph-name="uni0204" unicode="&#x204;" horiz-adv-x="1133" 
d="M89 0l248 1407h867l-48 -189h-621l-67 -381h506l-45 -179h-493l-82 -469h656l-46 -189h-875zM1091 1537h-166l-197 313h268zM741 1537h-166l-196 313h267z" />
    <glyph glyph-name="uni0205" unicode="&#x205;" horiz-adv-x="995" 
d="M298 387q-1 -10 -1 -15q0 -58 22 -121q39 -111 216 -111q76 0 136.5 19t143.5 69l50 -163q-177 -94 -377 -94q-206 0 -301 87q-110 100 -110 305q0 117 35 234.5t95 203.5q151 213 427 213q164 0 248 -78q69 -64 69 -184q0 -108 -59.5 -177t-192.5 -112
q-111 -37 -401 -76zM315 544q188 22 299 61q74 27 106 61t32 85q0 103 -125 103q-244 0 -312 -310zM928 1118h-166l-197 313h268zM578 1118h-166l-196 313h267z" />
    <glyph glyph-name="uni0206" unicode="&#x206;" horiz-adv-x="1133" 
d="M89 0l248 1407h867l-48 -189h-621l-67 -381h506l-45 -179h-493l-82 -469h656l-46 -189h-875zM1136 1522h-156q3 29 3 45q0 105 -163 105q-94 0 -138.5 -32t-69.5 -118h-156q27 140 72 201q88 121 301 121q317 0 317 -222q0 -35 -10 -100z" />
    <glyph glyph-name="uni0207" unicode="&#x207;" horiz-adv-x="995" 
d="M298 387q-1 -10 -1 -15q0 -58 22 -121q39 -111 216 -111q76 0 136.5 19t143.5 69l50 -163q-177 -94 -377 -94q-206 0 -301 87q-110 100 -110 305q0 117 35 234.5t95 203.5q151 213 427 213q164 0 248 -78q69 -64 69 -184q0 -108 -59.5 -177t-192.5 -112
q-111 -37 -401 -76zM315 544q188 22 299 61q74 27 106 61t32 85q0 103 -125 103q-244 0 -312 -310zM963 1104h-156q3 27 3 44q0 106 -163 106q-94 0 -137.5 -31.5t-70.5 -118.5h-156q26 139 72 201q89 121 302 121q316 0 316 -221q0 -35 -10 -101z" />
    <glyph glyph-name="uni0208" unicode="&#x208;" horiz-adv-x="616" 
d="M106 0l248 1407h232l-248 -1407h-232zM759 1537h-166l-196 313h267zM410 1537h-167l-196 313h267z" />
    <glyph glyph-name="uni0209" unicode="&#x209;" horiz-adv-x="569" 
d="M87 0l174 985h221l-174 -985h-221zM661 1118h-166l-196 313h267zM312 1118h-167l-196 313h267z" />
    <glyph glyph-name="uni020A" unicode="&#x20a;" horiz-adv-x="616" 
d="M106 0l248 1407h232l-249 -1407h-231zM830 1522h-156q3 28 3 45q0 105 -163 105q-94 0 -138 -31.5t-70 -118.5h-156q27 140 72 201q89 121 301 121q317 0 317 -222q0 -36 -10 -100z" />
    <glyph glyph-name="uni020B" unicode="&#x20b;" horiz-adv-x="569" 
d="M87 0l174 985h221l-174 -985h-221zM732 1104h-156q3 27 3 44q0 106 -163 106q-94 0 -138 -31.5t-70 -118.5h-156q27 139 72 201q89 121 302 121q316 0 316 -221q0 -35 -10 -101z" />
    <glyph glyph-name="uni020C" unicode="&#x20c;" horiz-adv-x="1409" 
d="M837 1436q162 0 290 -64q134 -67 193 -210q51 -122 51 -274q0 -159 -44.5 -325.5t-118.5 -285.5q-100 -161 -240 -236q-131 -70 -316 -70q-261 0 -396 129q-70 67 -106 172q-39 117 -39 246q0 174 54 360q162 558 672 558zM830 1250q-252 0 -380 -269q-44 -92 -72 -226.5
t-28 -251.5q0 -170 83 -262q75 -84 224 -84q152 0 254 94q119 110 178 335q43 166 43 315q0 172 -83 263q-78 86 -219 86zM1155 1537h-167l-196 313h267zM805 1537h-166l-196 313h267z" />
    <glyph glyph-name="uni020D" unicode="&#x20d;" horiz-adv-x="1118" 
d="M629 1014q197 0 306 -107q109 -106 109 -306q0 -113 -35 -228.5t-94 -197.5q-148 -204 -420 -204q-203 0 -309 102q-53 50 -82.5 132t-29.5 177q0 113 35 229t94 198q148 205 426 205zM617 835q-167 0 -253 -174q-62 -125 -62 -277q0 -234 203 -234q163 0 249 174
q62 126 62 279q0 107 -49 168q-51 64 -150 64zM936 1118h-166l-197 313h268zM586 1118h-166l-196 313h267z" />
    <glyph glyph-name="uni020E" unicode="&#x20e;" horiz-adv-x="1409" 
d="M837 1436q162 0 290 -64q134 -67 193 -210q51 -122 51 -274q0 -159 -44.5 -325.5t-118.5 -285.5q-100 -161 -240 -236q-131 -70 -316 -70q-261 0 -396 129q-70 67 -106 172q-39 117 -39 246q0 174 54 360q162 558 672 558zM830 1250q-252 0 -380 -269q-44 -92 -72 -226.5
t-28 -251.5q0 -170 83 -262q75 -84 224 -84q152 0 254 94q119 110 178 335q43 166 43 315q0 172 -83 263q-78 86 -219 86zM1226 1522h-156q3 29 3 45q0 105 -163 105q-94 0 -138.5 -32t-69.5 -118h-156q27 140 72 201q88 121 301 121q317 0 317 -222q0 -35 -10 -100z" />
    <glyph glyph-name="uni020F" unicode="&#x20f;" horiz-adv-x="1118" 
d="M629 1014q197 0 306 -107q109 -106 109 -306q0 -113 -35 -228.5t-94 -197.5q-148 -204 -420 -204q-203 0 -309 102q-53 50 -82.5 132t-29.5 177q0 113 35 229t94 198q148 205 426 205zM617 835q-167 0 -253 -174q-62 -125 -62 -277q0 -234 203 -234q163 0 249 174
q62 126 62 279q0 107 -49 168q-51 64 -150 64zM1007 1104h-156q3 27 3 44q0 106 -163 106q-94 0 -138 -31.5t-70 -118.5h-156q27 140 72 201q89 121 302 121q316 0 316 -221q0 -34 -10 -101z" />
    <glyph glyph-name="uni0210" unicode="&#x210;" horiz-adv-x="1241" 
d="M422 569l-101 -569h-231l248 1407h398q243 0 351 -66q131 -78 131 -266q0 -166 -85.5 -289t-232.5 -170q36 -31 57.5 -69.5t52.5 -126.5l146 -420h-263l-109 355q-47 150 -71.5 182t-92.5 32h-198zM451 735h177q198 0 270 82q36 41 58.5 106t22.5 129q0 96 -58.5 134
t-206.5 38h-177zM1072 1537h-166l-197 313h268zM722 1537h-166l-196 313h267z" />
    <glyph glyph-name="uni0211" unicode="&#x211;" horiz-adv-x="771" 
d="M67 0l174 985h182l-13 -171q212 197 441 188l-49 -192q-242 -13 -408 -205l-106 -605h-221zM796 1118h-166l-196 313h267zM447 1118h-167l-196 313h267z" />
    <glyph glyph-name="uni0212" unicode="&#x212;" horiz-adv-x="1241" 
d="M422 569l-101 -569h-231l248 1407h398q243 0 351 -66q131 -78 131 -266q0 -166 -85.5 -289t-232.5 -170q36 -31 57.5 -69.5t52.5 -126.5l146 -420h-263l-109 355q-47 150 -71.5 182t-92.5 32h-198zM451 735h177q198 0 270 82q36 41 58.5 106t22.5 129q0 96 -58.5 134
t-206.5 38h-177zM1103 1522h-156q3 33 3 46q0 104 -163 104q-94 0 -138 -31.5t-70 -118.5h-156q27 140 72 201q89 121 301 121q317 0 317 -221q0 -36 -10 -101z" />
    <glyph glyph-name="uni0213" unicode="&#x213;" horiz-adv-x="771" 
d="M78 0l174 985h182l-13 -171q212 197 441 188l-49 -192q-242 -13 -408 -205l-106 -605h-221zM858 1104h-156q3 27 3 44q0 106 -163 106q-94 0 -138 -31.5t-70 -118.5h-156q26 139 72 201q89 121 302 121q316 0 316 -221q0 -35 -10 -101z" />
    <glyph glyph-name="uni0214" unicode="&#x214;" horiz-adv-x="1351" 
d="M329 1407h232l-155 -877q-22 -125 -22 -182q0 -191 236 -191q190 0 267 127q41 66 72 246l155 877h231l-168 -956q-23 -130 -47 -195t-68 -120q-133 -165 -458 -165q-247 0 -362 97q-93 78 -93 242q0 75 25 219zM1126 1537h-166l-196 313h267zM777 1537h-167l-196 313
h267z" />
    <glyph glyph-name="uni0215" unicode="&#x215;" horiz-adv-x="1154" 
d="M714 119q-158 -148 -335 -148q-124 0 -192.5 59t-68.5 167q0 73 24 208l102 580h221l-102 -576q-15 -86 -15 -138q0 -108 112 -108q66 0 141.5 38t134.5 101l120 683h221l-174 -985h-191zM964 1118h-167l-196 313h267zM614 1118h-167l-196 313h268z" />
    <glyph glyph-name="uni0216" unicode="&#x216;" horiz-adv-x="1351" 
d="M329 1407h232l-155 -877q-22 -125 -22 -182q0 -191 236 -191q190 0 267 127q41 66 72 246l155 877h231l-168 -956q-23 -130 -47 -195t-68 -120q-133 -165 -458 -165q-247 0 -362 97q-93 78 -93 242q0 75 25 219zM1198 1522h-157q3 33 3 46q0 104 -163 104
q-94 0 -138 -31.5t-70 -118.5h-156q28 141 72 201q89 121 302 121q316 0 316 -221q0 -36 -9 -101z" />
    <glyph glyph-name="uni0217" unicode="&#x217;" horiz-adv-x="1154" 
d="M714 119q-158 -148 -335 -148q-124 0 -192.5 59t-68.5 167q0 73 24 208l102 580h221l-102 -576q-15 -86 -15 -138q0 -108 112 -108q66 0 141.5 38t134.5 101l120 683h221l-174 -985h-191zM1025 1104h-156q3 26 3 44q0 106 -163 106q-94 0 -138 -31.5t-70 -118.5h-156
q26 139 72 201q89 121 302 121q316 0 316 -221q0 -36 -10 -101z" />
    <glyph glyph-name="Scommaaccent" unicode="&#x218;" horiz-adv-x="1055" 
d="M-20 64l98 189q159 -96 341 -96q180 0 260 81q67 66 67 159q0 75 -39 116t-174 109q-118 60 -174 97.5t-99 86.5q-76 89 -76 214q0 88 34.5 169t95.5 134q128 113 354 113q212 0 395 -96l-105 -177q-145 87 -288 87q-131 0 -199 -66q-59 -56 -59 -140q0 -70 48.5 -116
t202.5 -122q178 -89 241 -154q81 -85 81 -225q0 -107 -44 -199.5t-123 -153.5q-134 -103 -396 -103q-279 0 -442 93zM167 -544l144 421h234l-209 -421h-169z" />
    <glyph glyph-name="scommaaccent" unicode="&#x219;" horiz-adv-x="836" 
d="M-32 59l86 169q85 -50 144.5 -69t129.5 -19q83 0 131.5 40.5t48.5 110.5q0 43 -26 68q-18 18 -129 81q-125 70 -173 127q-53 62 -53 148q0 136 99.5 217.5t265.5 81.5q164 0 304 -66l-80 -162q-99 59 -216 59q-148 0 -148 -117q0 -38 25.5 -61t149.5 -96
q112 -66 159 -126.5t47 -139.5q0 -61 -26 -124t-70 -107q-102 -103 -320 -103q-209 0 -349 88zM84 -544l144 421h234l-209 -421h-169z" />
    <glyph glyph-name="uni021A" unicode="&#x21a;" horiz-adv-x="1100" 
d="M347 0l215 1218h-407l47 189h1033l-47 -189h-395l-214 -1218h-232zM185 -544l144 421h234l-210 -421h-168z" />
    <glyph glyph-name="uni021B" unicode="&#x21b;" horiz-adv-x="732" 
d="M255 806h-169l45 179h162l57 246l213 71l-56 -317h236l-46 -179h-221l-78 -437q-18 -105 -18 -149q0 -71 88 -71q63 0 132 38l45 -166q-136 -50 -263 -50q-231 0 -231 187q0 60 21 178zM35 -544l144 421h234l-209 -421h-169z" />
    <glyph glyph-name="uni0226" unicode="&#x226;" horiz-adv-x="1329" 
d="M945 379h-590l-214 -379h-250l828 1407h214l332 -1407h-238zM909 562l-125 581l-328 -581h453zM844 1827q56 0 95 -40t39 -96q0 -57 -39.5 -97t-96.5 -40t-96.5 40t-39.5 98q0 56 40 95.5t98 39.5z" />
    <glyph glyph-name="uni0227" unicode="&#x227;" horiz-adv-x="1130" 
d="M906 0h-221l6 102q-132 -131 -296 -131q-70 0 -135.5 23.5t-107.5 64.5q-88 85 -88 260q0 122 37 249.5t99 219.5q153 226 447 226q174 0 398 -74l-99 -557q-40 -229 -40 -383zM799 797q-72 38 -157 38q-185 0 -279 -191q-71 -143 -71 -311q0 -183 160 -183
q122 0 209 106q54 65 74 180zM739 1410q55 0 94.5 -40t39.5 -96q0 -57 -39.5 -97t-96.5 -40t-96.5 40t-39.5 98q0 56 40 95.5t98 39.5z" />
    <glyph glyph-name="uni0237" unicode="&#x237;" horiz-adv-x="573" 
d="M265 985h220l-162 -920q-38 -216 -105 -328t-229 -230l-90 87q87 110 122 185q50 110 94 359z" />
    <glyph glyph-name="uni0259" unicode="&#x259;" horiz-adv-x="1071" 
d="M769 546q5 37 5 68q0 231 -268 231q-80 0 -143.5 -18t-161.5 -69l-31 150q99 58 184 82t190 24q274 0 385 -157q77 -109 77 -271q0 -215 -117 -397q-77 -119 -182 -170q-98 -48 -235 -48q-195 0 -299.5 94.5t-104.5 271.5q0 110 31 209h670zM745 397h-476q-3 -31 -3 -53
q0 -208 196 -208q216 0 283 261z" />
    <glyph glyph-name="afii57929" unicode="&#x2bc;" horiz-adv-x="446" 
d="M161 930l159 533h245l-224 -533h-180z" />
    <glyph glyph-name="circumflex" unicode="&#x2c6;" horiz-adv-x="1024" 
d="M659 1289l-195 -171h-225l318 311h240l209 -311h-212z" />
    <glyph glyph-name="caron" unicode="&#x2c7;" horiz-adv-x="1024" 
d="M642 1258l194 171h225l-318 -311h-240l-209 311h213z" />
    <glyph glyph-name="uni02C9" unicode="&#x2c9;" horiz-adv-x="1024" 
d="M322 1184l30 169h625l-30 -169h-625z" />
    <glyph glyph-name="breve" unicode="&#x2d8;" horiz-adv-x="1024" 
d="M337 1424h156q-3 -27 -3 -45q0 -106 163 -106q94 0 137.5 31.5t70.5 119.5h156q-28 -140 -72 -200q-89 -120 -300 -120q-318 0 -318 221q0 36 10 99z" />
    <glyph glyph-name="dotaccent" unicode="&#x2d9;" horiz-adv-x="1024" 
d="M652 1410q55 0 94.5 -40t39.5 -96q0 -57 -39.5 -97t-96.5 -40t-96.5 40t-39.5 98q0 56 40.5 95.5t97.5 39.5z" />
    <glyph glyph-name="ring" unicode="&#x2da;" horiz-adv-x="1024" 
d="M659 1506q103 0 165 -53q64 -55 64 -147q0 -93 -63.5 -149t-168.5 -56q-104 0 -167 55q-65 58 -65 150t63 146t172 54zM657 1411q-102 0 -102 -108q0 -107 100 -107q102 0 102 108q0 107 -100 107z" />
    <glyph glyph-name="ogonek" unicode="&#x2db;" horiz-adv-x="1024" 
d="M462 0h153q-71 -50 -155 -137q-81 -83 -81 -177q0 -43 33 -63.5t104 -20.5q46 0 129 19l7 -115q-97 -35 -195 -35q-269 0 -269 199q0 95 65.5 174t208.5 156z" />
    <glyph glyph-name="tilde" unicode="&#x2dc;" horiz-adv-x="1024" 
d="M900 1416h144q-27 -95 -63 -161q-76 -141 -209 -141q-94 0 -168 83q-36 40 -53 52.5t-36 12.5q-31 0 -62.5 -36.5t-53.5 -97.5h-144q38 114 81 181q76 120 199 120q91 0 161 -76q47 -50 61.5 -61t34.5 -11q62 0 108 135z" />
    <glyph glyph-name="hungarumlaut" unicode="&#x2dd;" horiz-adv-x="1024" 
d="M356 1118l205 311h268l-307 -311h-166zM706 1118l205 311h268l-307 -311h-166z" />
    <glyph glyph-name="uni0312" unicode="&#x312;" horiz-adv-x="1024" 
d="M955 1430l-230 -312h-285l335 312h180z" />
    <glyph glyph-name="uni0313" unicode="&#x313;" horiz-adv-x="230" 
d="M72 958l159 533h238l-223 -533h-174z" />
    <glyph glyph-name="uni031B" unicode="&#x31b;" horiz-adv-x="230" 
d="M72 958l159 533h238l-223 -533h-174z" />
    <glyph glyph-name="uni0323" unicode="&#x323;" horiz-adv-x="1024" 
d="M373 -179q55 0 94 -40.5t39 -97.5t-40 -97.5t-96 -40.5q-57 0 -96.5 40.5t-39.5 98.5q0 57 40.5 97t98.5 40z" />
    <glyph glyph-name="commaaccent" unicode="&#x326;" horiz-adv-x="1024" 
d="M188 -544l144 421h234l-209 -421h-169z" />
    <glyph glyph-name="pi" unicode="&#x3c0;" horiz-adv-x="1188" 
d="M110 0l142 806h-148l46 179h1070l-47 -179h-133l-142 -806h-221l143 806h-347l-143 -806h-220z" />
    <glyph glyph-name="uni04D8" unicode="&#x4d8;" horiz-adv-x="1417" 
d="M241 1119q55 88 106 139q176 178 485 178q287 0 421 -149q74 -81 108 -211q24 -91 24 -192q0 -163 -45 -323.5t-127 -286.5q-197 -303 -574 -303q-304 0 -435 186q-89 127 -89 352q0 142 31 265h980q8 63 8 113q0 191 -84 282q-73 79 -233 79q-180 0 -308 -118
q-44 -40 -95 -114zM1092 595h-735q-7 -61 -7 -103q0 -110 39 -194q66 -146 256 -146q171 0 287.5 115.5t159.5 327.5z" />
    <glyph glyph-name="afii10846" unicode="&#x4d9;" horiz-adv-x="1071" 
d="M769 546q5 37 5 68q0 231 -268 231q-80 0 -143.5 -18t-161.5 -69l-31 150q99 58 184 82t190 24q274 0 385 -157q77 -109 77 -271q0 -215 -117 -397q-77 -119 -182 -170q-98 -48 -235 -48q-195 0 -299.5 94.5t-104.5 271.5q0 110 31 209h670zM745 397h-476q-3 -31 -3 -53
q0 -208 196 -208q216 0 283 261z" />
    <glyph glyph-name="uni1E02" unicode="&#x1e02;" horiz-adv-x="1266" 
d="M89 0l248 1407h449q264 0 365 -76q96 -73 96 -221t-91 -251q-64 -74 -190 -112q96 -29 143 -80q65 -70 65 -199q0 -113 -45 -213t-123 -157q-91 -66 -235 -87q-78 -11 -200 -11h-482zM466 824h183q126 0 184 13.5t101 53.5q81 76 81 195q0 78 -55 108t-200 30h-224z
M353 183h206q203 0 282 64q44 34 69 94.5t25 130.5q0 119 -91 157q-63 26 -242 26h-166zM820 1827q56 0 95 -40t39 -96q0 -57 -39.5 -97t-96.5 -40t-96.5 40t-39.5 98q0 56 40 95.5t98 39.5z" />
    <glyph glyph-name="uni1E03" unicode="&#x1e03;" horiz-adv-x="1136" 
d="M90 72l242 1374l229 46l-104 -591q123 113 281 113q162 0 246 -97t84 -276q0 -118 -34 -240.5t-91 -211.5q-80 -125 -198 -177q-96 -41 -228 -41q-210 0 -427 101zM334 205q71 -55 177 -55q174 0 263 180q66 134 66 287q0 218 -158 218q-124 0 -212 -106
q-55 -66 -75 -179zM849 1410q55 0 94.5 -40t39.5 -96q0 -57 -39.5 -97t-96.5 -40t-96.5 40t-39.5 98q0 56 40.5 95.5t97.5 39.5z" />
    <glyph glyph-name="uni1E0C" unicode="&#x1e0c;" horiz-adv-x="1338" 
d="M89 0l248 1407h369q289 0 424 -97q169 -123 169 -420q0 -127 -28.5 -261.5t-77.5 -239.5q-111 -239 -317 -327q-144 -62 -368 -62h-419zM354 189h125q109 0 171 10.5t119 39.5q149 75 228 286q63 168 63 343q0 249 -158 316q-80 34 -258 34h-109zM479 -179q55 0 94 -40.5
t39 -97.5t-40 -97.5t-96 -40.5q-57 0 -96.5 40.5t-39.5 98.5q0 57 40.5 97t98.5 40z" />
    <glyph glyph-name="uni1E0D" unicode="&#x1e0d;" horiz-adv-x="1136" 
d="M836 973l83 473l229 46l-263 -1492h-176l-3 114q-134 -143 -310 -143q-147 0 -234 81q-97 91 -97 275q0 121 34.5 242.5t93.5 211.5q155 233 431 233q58 0 96.5 -7.5t115.5 -33.5zM802 782q-68 53 -163 53q-183 0 -278 -191q-68 -138 -68 -297q0 -197 164 -197
q121 0 210 106q54 66 74 180zM429 -179q55 0 94 -40.5t39 -97.5t-40 -97.5t-96 -40.5q-57 0 -96.5 40.5t-39.5 98.5q0 57 40.5 97t98.5 40z" />
    <glyph glyph-name="uni1E1E" unicode="&#x1e1e;" horiz-adv-x="1053" 
d="M89 0l248 1407h832l-48 -189h-586l-70 -396h482l-46 -183h-468l-113 -639h-231zM800 1827q55 0 94.5 -40t39.5 -96q0 -57 -40 -97t-96 -40q-57 0 -96.5 40t-39.5 98q0 57 40 96t98 39z" />
    <glyph glyph-name="uni1E1F" unicode="&#x1e1f;" horiz-adv-x="686" 
d="M262 803h-190l46 182h175l26 146q30 172 95 250q88 104 257 104q112 0 217 -46l-78 -162q-67 26 -117 26q-73 0 -109.5 -45t-56.5 -158l-21 -115h258l-46 -182h-243l-160 -903q-33 -183 -97 -266q-88 -113 -253 -113q-102 0 -199 39l78 162q57 -19 100 -19
q68 0 103.5 44.5t55.5 157.5zM557 1827q56 0 95 -40t39 -96q0 -57 -39.5 -97t-96.5 -40t-96.5 40t-39.5 98q0 57 40 96t98 39z" />
    <glyph glyph-name="uni1E24" unicode="&#x1e24;" horiz-adv-x="1417" 
d="M89 0l248 1407h232l-102 -577h602l101 577h232l-248 -1407h-232l113 639h-602l-113 -639h-231zM569 -179q55 0 94 -40.5t39 -97.5t-40 -97.5t-96 -40.5q-57 0 -96.5 40.5t-39.5 98.5q0 57 40.5 97t98.5 40z" />
    <glyph glyph-name="uni1E25" unicode="&#x1e25;" horiz-adv-x="1180" 
d="M78 0l255 1446l229 46l-111 -629q98 83 175 117t168 34q133 0 206 -62q66 -56 66 -154q0 -63 -23 -194l-107 -604h-220l106 604q12 68 12 111q0 106 -117 106q-73 0 -159.5 -51.5t-146.5 -131.5l-112 -638h-221zM451 -179q55 0 94 -40.5t39 -97.5t-40 -97.5t-96 -40.5
q-57 0 -96.5 40.5t-39.5 98.5q0 57 40.5 97t98.5 40z" />
    <glyph glyph-name="uni1E44" unicode="&#x1e44;" horiz-adv-x="1442" 
d="M89 0l248 1407h214l476 -1040l183 1040h217l-248 -1407h-210l-480 1040l-183 -1040h-217zM954 1827q55 0 94.5 -40t39.5 -96q0 -57 -40 -97t-96 -40q-57 0 -96.5 40t-39.5 98q0 57 40 96t98 39z" />
    <glyph glyph-name="uni1E45" unicode="&#x1e45;" horiz-adv-x="1180" 
d="M78 0l174 985h182l-7 -137q178 166 369 166q140 0 213 -71q56 -55 56 -149q0 -63 -24 -199l-105 -595h-220l105 598q14 80 14 115q0 106 -118 106q-70 0 -156.5 -51t-149.5 -130l-112 -638h-221zM730 1410q55 0 94.5 -40t39.5 -96q0 -57 -39.5 -97t-96.5 -40t-96.5 40
t-39.5 98q0 56 40 95.5t98 39.5z" />
    <glyph glyph-name="uni1E5A" unicode="&#x1e5a;" horiz-adv-x="1241" 
d="M422 569l-101 -569h-231l248 1407h398q243 0 351 -66q131 -78 131 -266q0 -166 -85.5 -289t-232.5 -170q36 -31 57.5 -69.5t52.5 -126.5l146 -420h-263l-109 355q-47 150 -71.5 182t-92.5 32h-198zM451 735h177q198 0 270 82q36 41 58.5 106t22.5 129q0 96 -58.5 134
t-206.5 38h-177zM509 -179q55 0 94 -40.5t39 -97.5t-40 -97.5t-96 -40.5q-57 0 -96.5 40.5t-39.5 98.5q0 57 40.5 97t98.5 40z" />
    <glyph glyph-name="uni1E5B" unicode="&#x1e5b;" horiz-adv-x="771" 
d="M78 0l173 985h183l-13 -171q212 197 440 188l-48 -192q-242 -13 -408 -205l-106 -605h-221zM147 -179q55 0 94 -40.5t39 -97.5t-40 -97.5t-96 -40.5q-57 0 -96.5 40.5t-39.5 98.5q0 57 40.5 97t98.5 40z" />
    <glyph glyph-name="uni1E62" unicode="&#x1e62;" horiz-adv-x="1055" 
d="M-20 64l98 189q159 -96 341 -96q180 0 260 81q67 66 67 159q0 75 -39 116t-174 109q-118 60 -174 97.5t-99 86.5q-76 89 -76 214q0 88 34.5 169t95.5 134q128 113 354 113q212 0 395 -96l-105 -177q-145 87 -288 87q-131 0 -199 -66q-59 -56 -59 -140q0 -70 48.5 -116
t202.5 -122q178 -89 241 -154q81 -85 81 -225q0 -107 -44 -199.5t-123 -153.5q-134 -103 -396 -103q-279 0 -442 93zM373 -179q55 0 94 -40.5t39 -97.5t-40 -97.5t-96 -40.5q-57 0 -96.5 40.5t-39.5 98.5q0 57 40.5 97t98.5 40z" />
    <glyph glyph-name="uni1E63" unicode="&#x1e63;" horiz-adv-x="836" 
d="M-32 59l86 169q85 -50 144.5 -69t129.5 -19q83 0 131.5 40.5t48.5 110.5q0 43 -26 68q-18 18 -129 81q-125 70 -173 127q-53 62 -53 148q0 136 99.5 217.5t265.5 81.5q164 0 304 -66l-80 -162q-99 59 -216 59q-148 0 -148 -117q0 -38 25.5 -61t149.5 -96
q112 -66 159 -126.5t47 -139.5q0 -61 -26 -124t-70 -107q-102 -103 -320 -103q-209 0 -349 88zM259 -179q55 0 94 -40.5t39 -97.5t-40 -97.5t-96 -40.5q-57 0 -96.5 40.5t-39.5 98.5q0 57 40.5 97t98.5 40z" />
    <glyph glyph-name="uni1E6C" unicode="&#x1e6c;" horiz-adv-x="1100" 
d="M347 0l215 1218h-407l47 189h1033l-47 -189h-395l-214 -1218h-232zM411 -179q55 0 94 -40.5t39 -97.5t-40 -97.5t-96 -40.5q-57 0 -96.5 40.5t-39.5 98.5q0 57 40.5 97t98.5 40z" />
    <glyph glyph-name="uni1E6D" unicode="&#x1e6d;" horiz-adv-x="732" 
d="M250 806h-169l45 179h163l56 246l213 71l-56 -317h237l-46 -179h-222l-77 -437q-19 -106 -19 -149q0 -71 88 -71q64 0 132 38l45 -166q-137 -50 -263 -50q-231 0 -231 187q0 58 21 178zM222 -179q55 0 94 -40.5t39 -97.5t-40 -97.5t-96 -40.5q-57 0 -96.5 40.5
t-39.5 98.5q0 57 40.5 97t98.5 40z" />
    <glyph glyph-name="Wgrave" unicode="&#x1e80;" horiz-adv-x="1764" 
d="M275 0l-95 1407h229l53 -1073l490 1073h188l113 -1091l419 1091h235l-593 -1407h-219l-105 1067l-485 -1067h-230zM1242 1536h-171l-238 311h277z" />
    <glyph glyph-name="wgrave" unicode="&#x1e81;" horiz-adv-x="1561" 
d="M266 0l-148 985h225l77 -720l336 720h185l129 -744q233 313 233 474q0 45 -18 77t-70 80l131 145q92 -65 134.5 -128.5t42.5 -135.5q0 -81 -35.5 -170.5t-117.5 -213.5q-115 -176 -277 -369h-186l-105 704l-328 -704h-208zM1055 1118h-171l-238 311h277z" />
    <glyph glyph-name="Wacute" unicode="&#x1e82;" horiz-adv-x="1764" 
d="M275 0l-95 1407h229l53 -1073l490 1073h188l113 -1091l419 1091h235l-593 -1407h-219l-105 1067l-485 -1067h-230zM923 1536l242 311h285l-347 -311h-180z" />
    <glyph glyph-name="wacute" unicode="&#x1e83;" horiz-adv-x="1561" 
d="M266 0l-148 985h225l77 -720l336 720h185l129 -744q233 313 233 474q0 45 -18 77t-70 80l131 145q92 -65 134.5 -128.5t42.5 -135.5q0 -81 -35.5 -170.5t-117.5 -213.5q-115 -176 -277 -369h-186l-105 704l-328 -704h-208zM748 1118l241 311h286l-348 -311h-179z" />
    <glyph glyph-name="Wdieresis" unicode="&#x1e84;" horiz-adv-x="1764" 
d="M275 0l-95 1407h229l53 -1073l490 1073h188l113 -1091l419 1091h235l-593 -1407h-219l-105 1067l-485 -1067h-230zM866 1822q53 0 90.5 -38.5t37.5 -91.5q0 -55 -38 -93t-92 -38t-92 38.5t-38 93.5q0 54 38.5 91.5t93.5 37.5zM1277 1822q53 0 90.5 -38.5t37.5 -91.5
q0 -55 -38 -93t-92 -38t-92 38.5t-38 93.5q0 54 38.5 91.5t93.5 37.5z" />
    <glyph glyph-name="wdieresis" unicode="&#x1e85;" horiz-adv-x="1561" 
d="M266 0l-148 985h225l77 -720l336 720h185l129 -744q233 313 233 474q0 45 -18 77t-70 80l131 145q92 -65 134.5 -128.5t42.5 -135.5q0 -81 -35.5 -170.5t-117.5 -213.5q-115 -176 -277 -369h-186l-105 704l-328 -704h-208zM687 1404q53 0 90.5 -38.5t37.5 -91.5
q0 -55 -38 -93t-92 -38t-92 38.5t-38 93.5q0 54 38.5 91.5t93.5 37.5zM1065 1404q53 0 90.5 -38.5t37.5 -91.5q0 -55 -38 -93t-92 -38t-92 38.5t-38 93.5q0 54 38.5 91.5t93.5 37.5z" />
    <glyph glyph-name="uni1E92" unicode="&#x1e92;" horiz-adv-x="1079" 
d="M-61 0l23 153l894 1065h-627l47 189h888l-14 -153l-894 -1065h742l-46 -189h-1013zM415 -179q55 0 94 -40.5t39 -97.5t-40 -97.5t-96 -40.5q-57 0 -96.5 40.5t-39.5 98.5q0 57 40.5 97t98.5 40z" />
    <glyph glyph-name="uni1E93" unicode="&#x1e93;" horiz-adv-x="887" 
d="M-2 0l-24 159l611 647h-62q-241 0 -384 40l60 180q170 -41 458 -41h192l31 -143l-620 -663q72 6 125 6q241 0 442 -81l-76 -174q-119 44 -224 60.5t-267 16.5q-90 0 -262 -7zM305 -179q55 0 94 -40.5t39 -97.5t-40 -97.5t-96 -40.5q-57 0 -96.5 40.5t-39.5 98.5
q0 57 40.5 97t98.5 40z" />
    <glyph glyph-name="Ygrave" unicode="&#x1ef2;" horiz-adv-x="1128" 
d="M361 0l96 542l-313 865h249l216 -642l439 642h261l-621 -865l-95 -542h-232zM911 1536h-171l-238 311h277z" />
    <glyph glyph-name="ygrave" unicode="&#x1ef3;" horiz-adv-x="1007" 
d="M302 1l-212 984h225l145 -773q17 22 110 144q71 92 117.5 195.5t46.5 167.5q0 42 -18.5 74t-68.5 79l138 145q93 -66 135 -129.5t42 -137.5q0 -102 -61.5 -223t-219.5 -328q-194 -256 -280.5 -390.5t-160.5 -299.5l-207 73q122 208 156 261t113 158zM682 1118h-171
l-237 311h276z" />
    <glyph glyph-name="uni2011" unicode="&#x2011;" horiz-adv-x="760" 
d="M82 541l66 199h583l-66 -199h-583z" />
    <glyph glyph-name="figuredash" unicode="&#x2012;" 
d="M106 541l65 199h923l-66 -199h-922z" />
    <glyph glyph-name="endash" unicode="&#x2013;" 
d="M106 541l65 199h923l-66 -199h-922z" />
    <glyph glyph-name="emdash" unicode="&#x2014;" 
d="M-106 541l35 199h1351l-35 -199h-1351z" />
    <glyph glyph-name="afii00208" unicode="&#x2015;" 
d="M-106 541l35 199h1351l-35 -199h-1351z" />
    <glyph glyph-name="quoteleft" unicode="&#x2018;" horiz-adv-x="446" 
d="M533 1463l-159 -533h-245l224 533h180z" />
    <glyph glyph-name="quoteright" unicode="&#x2019;" horiz-adv-x="446" 
d="M161 930l159 533h245l-224 -533h-180z" />
    <glyph glyph-name="quotesinglbase" unicode="&#x201a;" horiz-adv-x="446" 
d="M-54 -286l159 533h245l-224 -533h-180z" />
    <glyph glyph-name="quotereversed" unicode="&#x201b;" horiz-adv-x="446" 
d="M565 930h-180l-224 533h245z" />
    <glyph glyph-name="quotedblleft" unicode="&#x201c;" horiz-adv-x="797" 
d="M885 1463l-159 -533h-245l223 533h181zM533 1463l-159 -533h-245l224 533h180z" />
    <glyph glyph-name="quotedblright" unicode="&#x201d;" horiz-adv-x="797" 
d="M161 930l159 533h245l-224 -533h-180zM513 930l159 533h245l-224 -533h-180z" />
    <glyph glyph-name="quotedblbase" unicode="&#x201e;" horiz-adv-x="797" 
d="M-54 -286l159 533h245l-224 -533h-180zM298 -286l159 533h245l-224 -533h-180z" />
    <glyph glyph-name="dagger" unicode="&#x2020;" 
d="M508 767h-343l48 197h330l78 443h231l-78 -443h344l-49 -197h-329l-204 -1155h-232z" />
    <glyph glyph-name="daggerdbl" unicode="&#x2021;" 
d="M508 767h-343l48 197h330l78 443h231l-78 -443h344l-49 -197h-330l-77 -436h344l-49 -197h-329l-92 -522h-232l92 522h-343l48 197h330z" />
    <glyph glyph-name="bullet" unicode="&#x2022;" 
d="M621 1033q131 0 220 -98q77 -85 77 -205q0 -138 -99 -227q-85 -76 -204 -76q-138 0 -226 98q-77 86 -77 208q0 135 99 224q85 76 210 76z" />
    <glyph glyph-name="ellipsis" unicode="&#x2026;" horiz-adv-x="1720" 
d="M223 262q59 0 101 -43t42 -102q0 -61 -42.5 -103.5t-102.5 -42.5q-61 0 -103.5 42.5t-42.5 104.5q0 60 43 102t105 42zM796 262q59 0 101 -43t42 -102q0 -61 -42.5 -103.5t-102.5 -42.5q-61 0 -103.5 42.5t-42.5 104.5q0 60 43 102t105 42zM1370 262q59 0 101 -43
t42 -102q0 -61 -42.5 -103.5t-102.5 -42.5q-61 0 -103.5 42.5t-42.5 104.5q0 60 43 102t105 42z" />
    <glyph glyph-name="perthousand" unicode="&#x2030;" horiz-adv-x="2567" 
d="M581 1436q135 0 212 -71q81 -76 81 -216q0 -90 -25 -177.5t-67 -147.5q-107 -150 -312 -150q-144 0 -220 71q-81 75 -81 218q0 89 25 176.5t67 146.5q106 150 320 150zM565 1286q-103 0 -153 -114q-42 -97 -42 -214q0 -134 111 -134q99 0 150 115q42 96 42 214
q0 133 -108 133zM1405 733q135 0 212 -72q81 -75 81 -215q0 -90 -24.5 -177.5t-67.5 -147.5q-106 -150 -312 -150q-144 0 -220 71q-81 76 -81 218q0 89 25 176.5t67 146.5q107 150 320 150zM1389 583q-102 0 -153 -114q-42 -98 -42 -214q0 -134 111 -134q99 0 150 114
q42 97 42 215q0 133 -108 133zM2178 733q136 0 213 -71q81 -76 81 -217q0 -90 -25 -177t-67 -147q-107 -150 -312 -150q-145 0 -220 71q-81 76 -81 218q0 89 25 176.5t67 146.5q107 150 319 150zM2161 583q-103 0 -154 -114q-42 -95 -42 -214q0 -134 113 -134q100 0 151 114
q42 96 42 215q0 133 -110 133zM417 0l831 1407h201l-831 -1407h-201z" />
    <glyph glyph-name="guilsinglleft" unicode="&#x2039;" horiz-adv-x="586" 
d="M344 525l128 -277l-124 -77l-272 344l9 52l394 344l90 -109z" />
    <glyph glyph-name="guilsinglright" unicode="&#x203a;" horiz-adv-x="586" 
d="M259 557l-129 276l124 78l272 -344l-9 -52l-393 -344l-91 109z" />
    <glyph glyph-name="uni203E" unicode="&#x203e;" horiz-adv-x="1024" 
d="M123 1666l25 143h1194l-25 -143h-1194z" />
    <glyph glyph-name="glyph452" unicode="&#x2044;" horiz-adv-x="246" 
d="M-412 0l970 1407h173l-970 -1407h-173z" />
    <glyph glyph-name="zerosuperior" unicode="&#x2070;" horiz-adv-x="737" 
d="M557 1629q273 0 273 -278q0 -78 -20 -186t-48 -183q-49 -129 -133 -184q-80 -52 -198 -52q-142 0 -210 67t-68 211q0 82 21.5 193t52.5 189q49 121 133 174q78 49 197 49zM547 1502q-115 0 -168 -178q-21 -68 -35.5 -160.5t-14.5 -151.5q0 -139 109 -139q113 0 166 178
q20 65 35 158t15 148q0 145 -107 145z" />
    <glyph glyph-name="foursuperior" unicode="&#x2074;" horiz-adv-x="737" 
d="M479 963h-381l20 114l479 535h170l-93 -524h127l-32 -125h-117l-35 -201h-173zM511 1081l62 352l-300 -352h238z" />
    <glyph glyph-name="fivesuperior" unicode="&#x2075;" horiz-adv-x="737" 
d="M236 1148l91 464h496l-31 -128h-328l-43 -202q66 26 127 26q236 0 236 -208q0 -77 -27.5 -147.5t-73.5 -114.5q-98 -92 -289 -92q-158 0 -270 57l68 125q106 -57 199 -57q125 0 176 82q37 60 37 125q0 107 -111 107q-68 0 -161 -58z" />
    <glyph glyph-name="sixsuperior" unicode="&#x2076;" horiz-adv-x="737" 
d="M387 1277q77 51 166 51q111 0 173 -55q66 -58 66 -166q0 -143 -78 -245q-89 -116 -278 -116q-275 0 -275 245q0 102 30.5 226t76.5 207q113 205 350 205q111 0 213 -41l-66 -121q-76 35 -137 35q-88 0 -143.5 -51.5t-97.5 -173.5zM509 1201q-74 0 -124.5 -59.5
t-50.5 -148.5q0 -120 111 -120q87 0 134 86q33 61 33 128q0 114 -103 114z" />
    <glyph glyph-name="sevensuperior" unicode="&#x2077;" horiz-adv-x="737" 
d="M657 1484h-407l29 128h591l-15 -88l-465 -762h-204z" />
    <glyph glyph-name="eightsuperior" unicode="&#x2078;" horiz-adv-x="737" 
d="M306 1207q-79 53 -79 154q0 122 89 195t238 73q131 0 202 -52.5t71 -148.5q0 -156 -145 -225q106 -59 106 -173q0 -137 -94 -210.5t-267 -73.5q-303 0 -303 208q0 177 182 253zM549 1502q-65 0 -105.5 -40t-40.5 -104q0 -90 103 -90q65 0 105 40.5t40 105.5q0 88 -102 88
zM487 1141q-101 0 -147 -57q-36 -45 -36 -109q0 -102 133 -102q84 0 131.5 43.5t47.5 121.5q0 103 -129 103z" />
    <glyph glyph-name="ninesuperior" unicode="&#x2079;" horiz-adv-x="737" 
d="M596 1098q-78 -48 -168 -48q-109 0 -169 51q-68 58 -68 167q0 62 21 128.5t56 113.5q86 119 275 119q278 0 278 -246q0 -99 -29.5 -221t-71.5 -201q-116 -215 -353 -215q-105 0 -216 40l66 121q79 -34 134 -34q91 0 147 51.5t98 173.5zM539 1502q-83 0 -130 -78
q-38 -64 -38 -136q0 -111 105 -111q73 0 122.5 58.5t49.5 145.5q0 121 -109 121z" />
    <glyph glyph-name="zeroinferior" unicode="&#x2080;" horiz-adv-x="737" 
d="M385 662q274 0 274 -278q0 -78 -20 -186t-48 -183q-49 -128 -133 -184q-80 -52 -198 -52q-141 0 -210 67q-68 67 -68 210q0 82 21.5 193.5t52.5 189.5q49 121 133 174q78 49 196 49zM376 535q-116 0 -168 -178q-21 -67 -35.5 -159.5t-14.5 -151.5q0 -140 109 -140
q114 0 166 178q20 66 35 159t15 150q0 142 -107 142z" />
    <glyph glyph-name="oneinferior" unicode="&#x2081;" horiz-adv-x="737" 
d="M186 -205l124 701l-153 -45l-19 112l244 82h129l-150 -850h-175z" />
    <glyph glyph-name="twoinferior" unicode="&#x2082;" horiz-adv-x="737" 
d="M-65 -205l20 115l327 286q97 84 140 143.5t43 108.5q0 90 -116 90q-92 0 -246 -87l-38 126q92 50 158.5 69t150.5 19q271 0 271 -201q0 -93 -51.5 -170.5t-187.5 -189.5l-219 -181h383l-22 -128h-613z" />
    <glyph glyph-name="threeinferior" unicode="&#x2083;" horiz-adv-x="737" 
d="M178 182l21 121h51q89 0 140 41q55 44 55 110q0 81 -112 81q-85 0 -225 -63l-35 121q88 40 149.5 54.5t138.5 14.5q259 0 259 -182q0 -79 -35.5 -131.5t-113.5 -87.5q121 -50 121 -170q0 -147 -103.5 -229.5t-285.5 -82.5q-171 0 -278 68l72 121q104 -62 202 -62
q129 0 182 74q32 45 32 95q0 57 -39 82t-128 25h-68z" />
    <glyph glyph-name="fourinferior" unicode="&#x2084;" horiz-adv-x="737" 
d="M308 -4h-381l20 114l479 535h170l-93 -524h127l-32 -125h-117l-35 -201h-173zM340 114l62 352l-300 -352h238z" />
    <glyph glyph-name="fiveinferior" unicode="&#x2085;" horiz-adv-x="737" 
d="M65 181l91 464h495l-30 -128h-328l-43 -202q66 26 127 26q236 0 236 -209q0 -76 -27.5 -146.5t-73.5 -114.5q-98 -92 -289 -92q-159 0 -270 57l68 125q107 -57 199 -57q125 0 176 82q37 60 37 125q0 107 -111 107q-68 0 -161 -58z" />
    <glyph glyph-name="sixinferior" unicode="&#x2086;" horiz-adv-x="737" 
d="M217 310q77 51 166 51q111 0 173 -55q66 -58 66 -165q0 -143 -78 -246q-88 -116 -278 -116q-275 0 -275 245q0 102 30.5 226t76.5 207q114 205 350 205q113 0 213 -41l-66 -121q-77 35 -137 35q-88 0 -144 -52t-97 -173zM340 234q-75 0 -125.5 -59.5t-50.5 -147.5
q0 -121 111 -121q88 0 135 86q33 61 33 128q0 114 -103 114z" />
    <glyph glyph-name="seveninferior" unicode="&#x2087;" horiz-adv-x="737" 
d="M487 517h-407l29 128h591l-16 -88l-464 -762h-204z" />
    <glyph glyph-name="eightinferior" unicode="&#x2088;" horiz-adv-x="737" 
d="M135 240q-78 53 -78 154q0 122 89 195t238 73q130 0 201.5 -52.5t71.5 -148.5q0 -156 -145 -225q106 -59 106 -173q0 -137 -94 -210.5t-267 -73.5q-303 0 -303 208q0 177 181 253zM379 535q-65 0 -105.5 -40t-40.5 -105q0 -89 103 -89q65 0 105 40.5t40 105.5
q0 88 -102 88zM317 174q-101 0 -148 -57q-36 -45 -36 -110q0 -101 133 -101q85 0 132.5 43.5t47.5 121.5q0 103 -129 103z" />
    <glyph glyph-name="nineinferior" unicode="&#x2089;" horiz-adv-x="737" 
d="M426 131q-78 -48 -169 -48q-109 0 -169 51q-68 58 -68 167q0 61 21.5 128t55.5 114q87 119 275 119q279 0 279 -246q0 -98 -29.5 -220.5t-71.5 -201.5q-115 -215 -352 -215q-107 0 -217 40l66 121q79 -34 134 -34q91 0 147 51.5t98 173.5zM369 535q-84 0 -131 -78
q-38 -64 -38 -136q0 -111 106 -111q73 0 122.5 58.5t49.5 145.5q0 121 -109 121z" />
    <glyph glyph-name="franc" unicode="&#x20a3;" horiz-adv-x="1753" 
d="M89 0l248 1407h832l-48 -193h-586l-70 -392h482l-47 -186h-467l-113 -636h-231zM967 0l156 889h183l-13 -170q110 101 209.5 143.5t230.5 43.5l-48 -195q-124 -7 -217 -55q-112 -58 -192 -151l-89 -505h-220z" />
    <glyph glyph-name="lira" unicode="&#x20a4;" 
d="M275 487h-187l43 125h166l24 137h-187l42 125h166l20 112q21 116 48.5 179t81.5 119q130 131 370 131q197 0 369 -89l-102 -175q-126 75 -252 75q-132 0 -200.5 -69t-97.5 -231l-10 -52h317l-42 -125h-297l-24 -137h317l-42 -125h-297l-53 -301h593l-47 -186h-960l47 186
h141z" />
    <glyph glyph-name="peseta" unicode="&#x20a7;" horiz-adv-x="1177" 
d="M279 896h-152l42 125h132l68 386h315q259 0 366 -71q131 -87 131 -292q0 -6 -1 -23h140l-42 -125h-117q-53 -197 -186.5 -287t-372.5 -90h-167l-91 -519h-223zM502 896l-35 -198h134q146 0 222 44.5t115 153.5h-436zM524 1021h438q1 9 1 11q0 117 -75 160q-62 36 -194 36
h-134z" />
    <glyph glyph-name="Euro" unicode="&#x20ac;" 
d="M-2 474l70 125h110q11 95 21 142h-154l70 125h115q70 218 178 348q185 222 493 222q234 0 384 -119l-99 -162q-127 95 -278 95q-306 0 -432 -384h540l-71 -125h-503q-17 -78 -24 -142h443l-70 -125h-377q7 -317 302 -317q84 0 151.5 20.5t154.5 73.5l63 -170
q-180 -110 -407 -110q-480 0 -503 503h-177z" />
    <glyph glyph-name="uni2101" unicode="&#x2101;" horiz-adv-x="1661" 
d="M363 0l970 1407h169l-970 -1407h-169zM959 39l64 124q82 -62 182 -62q62 0 96.5 26.5t34.5 74.5q0 25 -17.5 41t-89.5 54q-87 47 -120 84t-33 90q0 105 76.5 172t197.5 67q93 0 193 -45l-58 -117q-74 41 -150 41q-47 0 -74.5 -22t-27.5 -61q0 -22 18 -36.5t102 -60.5
q79 -44 109.5 -81.5t30.5 -91.5q0 -104 -72 -178q-75 -78 -231 -78q-135 0 -231 59zM722 715h-154l4 72q-93 -92 -207 -92q-111 0 -171.5 63.5t-60.5 179.5q0 87 25.5 175.5t69.5 153.5q108 158 314 158q125 0 277 -52l-68 -390q-29 -165 -29 -268zM647 1273q-50 27 -110 27
q-129 0 -195 -134q-49 -100 -49 -218q0 -128 113 -128q75 0 127.5 53.5t69.5 146.5z" />
    <glyph glyph-name="afii61248" unicode="&#x2105;" horiz-adv-x="1560" 
d="M667 876l30 -112q-108 -69 -238 -69q-274 0 -274 266q0 90 30 178.5t83 151.5q112 134 297 134q105 0 193 -54l-63 -115q-73 44 -140 44q-120 0 -187 -116q-50 -87 -50 -199q0 -165 160 -165q75 0 159 56zM1225 710q126 0 198 -71t72 -196q0 -86 -26 -170.5t-71 -142.5
q-113 -150 -309 -150q-130 0 -202.5 71t-72.5 198q0 84 26.5 169t70.5 143q113 149 314 149zM1200 585q-118 0 -179 -121q-45 -89 -45 -195q0 -164 137 -164q114 0 175 122q45 89 45 196q0 162 -133 162zM264 0l970 1407h168l-970 -1407h-168z" />
    <glyph glyph-name="afii61289" unicode="&#x2113;" horiz-adv-x="983" 
d="M465 592q-25 -133 -45 -274.5t-20 -184.5q0 -54 38 -54q33 0 67 43.5t54 111.5l70 -31q-85 -243 -234 -243q-74 0 -116.5 53t-42.5 146q0 71 19 274l-122 -108l-37 60q9 7 52 52q75 77 124 133q77 413 178 669q107 270 265 270q66 0 107 -50t41 -131q0 -197 -143 -426
q-78 -126 -255 -310zM485 718q102 112 161 212q55 93 91 205.5t36 189.5q0 36 -15.5 59t-40.5 23q-60 0 -99 -102q-60 -159 -133 -587z" />
    <glyph glyph-name="afii61352" unicode="&#x2116;" horiz-adv-x="2505" 
d="M89 0l248 1407h214l476 -1040l183 1040h217l-248 -1407h-210l-480 1040l-183 -1040h-217zM2020 1219q171 0 270 -90q53 -47 82 -118q30 -75 30 -152q0 -105 -33 -206t-90 -171q-144 -177 -393 -177q-185 0 -284 93q-106 100 -106 273q0 105 34.5 207.5t93.5 170.5
q145 170 396 170zM2001 1045q-149 0 -226 -143q-54 -101 -54 -220q0 -203 178 -203q148 0 224 145q54 102 54 217q0 204 -176 204zM1387 0l53 179h840l-53 -179h-840z" />
    <glyph glyph-name="uni2117" unicode="&#x2117;" horiz-adv-x="1718" 
d="M669 188v985h281q199 0 279 -75q90 -84 90 -230q0 -161 -88 -238.5t-270 -77.5h-130v-364h-162zM831 685h98q124 0 170 40q52 44 52 134q0 97 -49 139t-162 42h-109v-355zM910 1465q317 0 532 -216q214 -216 214 -541q0 -323 -214 -540q-214 -216 -542 -216
q-329 0 -543 216q-214 217 -214 539q0 229 112 412q103 170 283 263q160 83 372 83zM909 1369q-297 0 -482 -200q-171 -184 -171 -462q0 -274 171 -459q184 -200 473 -200q288 0 472 200q171 185 171 460q0 281 -171 461q-190 200 -463 200z" />
    <glyph glyph-name="trademark" unicode="&#x2122;" horiz-adv-x="1779" 
d="M758 557l214 850h184l140 -577l343 577h185l-87 -850h-168l61 575l-336 -575h-92l-132 575l-143 -575h-169zM268 557l126 712h-258l34 138h686l-34 -138h-248l-126 -712h-180z" />
    <glyph glyph-name="Omega" unicode="&#x2126;" horiz-adv-x="1483" 
d="M20 0l32 179h310q-73 63 -113 114q-116 148 -116 339q0 130 42.5 263t117.5 237q220 304 591 304q281 0 430 -163q133 -145 133 -393q0 -286 -166 -487q-90 -110 -260 -214h306l-32 -179h-549l31 177q155 84 254 201q103 120 144 275q33 121 33 235q0 155 -81 256
q-86 106 -256 106q-266 0 -409 -269q-42 -79 -67.5 -185.5t-25.5 -205.5q0 -257 232 -413l-31 -177h-550z" />
    <glyph glyph-name="estimated" unicode="&#x212e;" horiz-adv-x="1501" 
d="M1336 607h-943v-251q20 -69 40 -105.5t53 -66.5q94 -84 262 -84q152 0 249 62t154 195h136q-106 -381 -541 -381q-279 0 -432 178q-150 173 -150 471q0 317 165 495q160 172 426 172q220 0 372 -113q186 -139 205 -421q2 -30 4 -151zM1114 709v219q-20 57 -54 97
q-65 76 -139 109.5t-177 33.5q-164 0 -257 -99q-43 -46 -88 -141v-219h715z" />
    <glyph glyph-name="onethird" unicode="&#x2153;" horiz-adv-x="1720" 
d="M320 557l124 699l-153 -45l-19 114l244 82h129l-150 -850h-175zM1197 386l21 122h51q89 0 140 41q55 44 55 109q0 80 -112 80q-84 0 -225 -63l-35 123q149 69 287 69q128 0 196 -49q64 -46 64 -134q0 -79 -35 -130.5t-114 -86.5q121 -52 121 -172q0 -145 -103.5 -228
t-286.5 -83q-170 0 -277 68l72 122q103 -61 203 -61q128 0 181 73q32 44 32 94q0 56 -39 81t-128 25h-68zM252 0l970 1407h173l-970 -1407h-173z" />
    <glyph glyph-name="twothirds" unicode="&#x2154;" horiz-adv-x="1720" 
d="M69 557l20 117l328 285q182 159 182 251q0 88 -116 88q-93 0 -246 -87l-38 128q89 49 157.5 68.5t151.5 19.5q271 0 271 -202q0 -92 -53 -171.5t-186 -188.5l-219 -178h353l-22 -130h-583zM1197 386l21 122h51q90 0 141 41q55 44 55 109q0 80 -113 80q-75 0 -199 -54
l-36 124q140 59 264 59q259 0 259 -184q0 -78 -35.5 -129.5t-113.5 -86.5q120 -52 120 -172q0 -145 -103.5 -228t-285.5 -83q-170 0 -278 68l72 122q103 -61 203 -61q128 0 181 73q32 44 32 94q0 56 -39 81t-128 25h-68zM326 0l970 1407h173l-970 -1407h-173z" />
    <glyph glyph-name="uni2155" unicode="&#x2155;" horiz-adv-x="1720" 
d="M320 557l124 699l-153 -45l-19 114l244 82h129l-150 -850h-175zM1084 385l91 465h496l-31 -130h-328l-42 -199q64 26 127 26q235 0 235 -209q0 -77 -27 -147.5t-74 -114.5q-98 -92 -289 -92q-161 0 -270 57l68 127q105 -57 199 -57q125 0 176 81q37 59 37 124
q0 106 -111 106q-68 0 -161 -58zM252 0l970 1407h173l-970 -1407h-173z" />
    <glyph glyph-name="uni2156" unicode="&#x2156;" horiz-adv-x="1720" 
d="M69 557l20 117l328 285q182 159 182 251q0 88 -116 88q-93 0 -246 -87l-38 128q89 49 157.5 68.5t151.5 19.5q271 0 271 -202q0 -92 -53 -171.5t-186 -188.5l-219 -178h353l-22 -130h-583zM1085 385l91 465h495l-31 -130h-328l-42 -199q64 26 127 26q236 0 236 -209
q0 -77 -27 -147.5t-74 -114.5q-98 -92 -289 -92q-161 0 -271 57l68 127q105 -57 199 -57q125 0 177 81q37 58 37 123q0 107 -111 107q-69 0 -162 -58zM326 0l970 1407h173l-970 -1407h-173z" />
    <glyph glyph-name="uni2157" unicode="&#x2157;" horiz-adv-x="1720" 
d="M312 943l21 122h51q89 0 140 41q55 44 55 109q0 80 -111 80q-86 0 -226 -63l-35 123q150 69 287 69q260 0 260 -183q0 -79 -35.5 -131t-113.5 -87q121 -50 121 -170q0 -146 -103.5 -229t-286.5 -83q-170 0 -277 68l72 122q102 -61 202 -61q128 0 181 73q32 44 32 94
q0 56 -39 81t-127 25h-68zM1084 385l91 465h495l-30 -130h-328l-43 -199q64 26 128 26q235 0 235 -209q0 -77 -27.5 -147.5t-73.5 -114.5q-98 -92 -289 -92q-160 0 -270 57l68 127q105 -57 198 -57q126 0 177 81q37 59 37 124q0 106 -111 106q-68 0 -161 -58zM320 0
l970 1407h174l-970 -1407h-174z" />
    <glyph glyph-name="uni2158" unicode="&#x2158;" horiz-adv-x="1720" 
d="M443 757h-381l20 115l479 535h170l-93 -523h127l-32 -127h-117l-35 -200h-173zM475 876l62 350l-300 -350h238zM1085 385l91 465h495l-31 -130h-327l-43 -199q64 26 127 26q236 0 236 -209q0 -77 -27.5 -147.5t-73.5 -114.5q-98 -92 -289 -92q-161 0 -270 57l67 127
q105 -57 199 -57q125 0 177 81q37 59 37 124q0 106 -111 106q-69 0 -162 -58zM326 0l970 1407h174l-970 -1407h-174z" />
    <glyph glyph-name="uni2159" unicode="&#x2159;" horiz-adv-x="1720" 
d="M320 557l124 699l-153 -45l-19 114l244 82h129l-150 -850h-175zM1230 517q79 49 166 49q112 0 173 -54q66 -59 66 -167q0 -143 -78 -245q-88 -116 -278 -116q-274 0 -274 245q0 103 30.5 226.5t76.5 206.5q113 205 350 205q112 0 213 -42l-66 -122q-77 35 -137 35
q-88 0 -144 -51t-98 -170zM1353 437q-74 0 -124.5 -59t-50.5 -147q0 -118 110 -118q88 0 135 85q33 60 33 127q0 112 -103 112zM252 0l970 1407h173l-970 -1407h-173z" />
    <glyph glyph-name="uni215A" unicode="&#x215a;" horiz-adv-x="1720" 
d="M199 942l91 465h495l-30 -130h-328l-43 -199q64 26 127 26q236 0 236 -209q0 -77 -27.5 -147.5t-73.5 -114.5q-98 -92 -289 -92q-159 0 -270 57l68 127q104 -57 198 -57q126 0 177 81q37 59 37 124q0 106 -111 106q-69 0 -161 -58zM1235 517q78 49 166 49q112 0 173 -54
q66 -59 66 -167q0 -65 -21.5 -132t-56.5 -113q-89 -116 -279 -116q-274 0 -274 245q0 103 30.5 226.5t76.5 206.5q113 205 351 205q112 0 213 -42l-66 -122q-78 35 -138 35q-88 0 -143.5 -51t-97.5 -170zM1358 437q-75 0 -125.5 -59t-50.5 -147q0 -118 111 -118q88 0 135 85
q33 60 33 127q0 112 -103 112zM331 0l970 1407h173l-970 -1407h-173z" />
    <glyph glyph-name="oneeighth" unicode="&#x215b;" horiz-adv-x="1720" 
d="M320 557l124 699l-153 -45l-19 114l244 82h129l-150 -850h-175zM1154 445q-78 52 -78 154q0 122 89 195t238 73q130 0 201.5 -53t71.5 -149q0 -154 -146 -224q107 -60 107 -174q0 -135 -94 -209t-267 -74q-303 0 -303 208q0 91 43 151.5t138 101.5zM1398 738
q-65 0 -105.5 -39.5t-40.5 -102.5q0 -89 103 -89q64 0 104.5 40t40.5 103q0 88 -102 88zM1336 378q-100 0 -147 -56q-36 -45 -36 -108q0 -101 133 -101q84 0 131.5 43.5t47.5 120.5q0 101 -129 101zM252 0l970 1407h173l-970 -1407h-173z" />
    <glyph glyph-name="threeeighths" unicode="&#x215c;" horiz-adv-x="1720" 
d="M312 943l21 122h51q89 0 140 41q55 44 55 109q0 80 -111 80q-86 0 -226 -63l-35 123q150 69 287 69q260 0 260 -183q0 -79 -35.5 -131t-113.5 -87q121 -50 121 -170q0 -146 -103.5 -229t-286.5 -83q-170 0 -277 68l72 122q102 -61 202 -61q128 0 181 73q32 44 32 94
q0 56 -39 81t-127 25h-68zM1154 445q-78 53 -78 154q0 122 89 195t238 73q130 0 201 -53t71 -149q0 -153 -145 -224q107 -59 107 -174q0 -136 -94 -209.5t-268 -73.5q-303 0 -303 208q0 91 43.5 151.5t138.5 101.5zM1397 738q-65 0 -105 -39.5t-40 -103.5q0 -88 102 -88
q65 0 105 40t40 105q0 86 -102 86zM1336 378q-101 0 -147 -57q-37 -45 -37 -106q0 -102 133 -102q85 0 132.5 43t47.5 120q0 102 -129 102zM325 0l971 1407h173l-970 -1407h-174z" />
    <glyph glyph-name="fiveeighths" unicode="&#x215d;" horiz-adv-x="1720" 
d="M199 942l91 465h495l-30 -130h-328l-43 -199q64 26 127 26q236 0 236 -209q0 -77 -27.5 -147.5t-73.5 -114.5q-98 -92 -289 -92q-159 0 -270 57l68 127q104 -57 198 -57q126 0 177 81q37 59 37 124q0 106 -111 106q-69 0 -161 -58zM1154 445q-78 52 -78 154q0 122 89 195
t238 73q130 0 201 -53t71 -149q0 -153 -145 -224q107 -59 107 -173q0 -136 -94 -210t-268 -74q-303 0 -303 208q0 92 43 152t139 101zM1397 738q-65 0 -105 -39.5t-40 -102.5q0 -89 103 -89q64 0 104 40t40 105q0 86 -102 86zM1336 378q-101 0 -147 -57q-37 -44 -37 -106
q0 -102 133 -102q85 0 132.5 43.5t47.5 119.5q0 102 -129 102zM325 0l970 1407h174l-970 -1407h-174z" />
    <glyph glyph-name="seveneighths" unicode="&#x215e;" horiz-adv-x="1720" 
d="M621 1277h-407l29 130h591l-15 -90l-465 -760h-204zM1154 445q-78 52 -78 154q0 123 89 195.5t238 72.5q130 0 201.5 -53t71.5 -149q0 -154 -146 -224q107 -59 107 -174q0 -135 -94 -209t-268 -74q-302 0 -302 208q0 91 43.5 151.5t137.5 101.5zM1398 738
q-65 0 -105.5 -39.5t-40.5 -102.5q0 -89 103 -89q65 0 105 40t40 105q0 86 -102 86zM1336 378q-101 0 -147 -57q-36 -44 -36 -106q0 -102 133 -102q84 0 131.5 43.5t47.5 120.5q0 101 -129 101zM244 2l970 1407h173l-970 -1407h-173z" />
    <glyph glyph-name="partialdiff" unicode="&#x2202;" 
d="M809 947q-45 140 -141.5 209t-284.5 97l69 189q130 -16 214.5 -47t158.5 -90q138 -110 198 -303q46 -145 46 -309q0 -153 -38 -292t-104 -228q-149 -202 -425 -202q-192 0 -296 91q-57 50 -88.5 131.5t-31.5 178.5q0 115 37 231.5t100 196.5q147 191 393 191
q60 0 87.5 -6.5t105.5 -37.5zM634 813q-168 0 -257 -168q-63 -120 -63 -265q0 -230 201 -230q164 0 252 168q63 120 63 265q0 230 -196 230z" />
    <glyph glyph-name="emptyset" unicode="&#x2205;" 
d="M251 404q-81 119 -81 256q0 197 148 335q121 113 298 113q139 0 249 -75l183 188l114 -117l-183 -188q80 -116 80 -255q0 -197 -147 -334q-120 -113 -298 -113q-135 0 -248 72l-179 -184l-114 119zM389 546l357 365q-57 38 -132 38q-108 0 -174.5 -79t-66.5 -209
q0 -61 16 -115zM840 774l-354 -364q58 -38 129 -38q109 0 175 79.5t66 209.5q0 60 -16 113z" />
    <glyph glyph-name="Delta" unicode="&#x2206;" 
d="M-198 0l829 1407h209l332 -1407h-1370zM884 189l-204 960l-542 -960h746z" />
    <glyph glyph-name="product" unicode="&#x220f;" horiz-adv-x="1434" 
d="M1177 1367h-612l-332 -1879h-231l365 2068h1075l-365 -2068h-231z" />
    <glyph glyph-name="summation" unicode="&#x2211;" horiz-adv-x="1229" 
d="M1355 1556l-33 -189h-817l336 -804l-640 -886h844l-33 -189h-1108l40 225l627 859l-332 784l36 200h1080z" />
    <glyph glyph-name="minus" unicode="&#x2212;" 
d="M122 603l55 201h922l-55 -201h-922z" />
    <glyph glyph-name="fraction" unicode="&#x2215;" horiz-adv-x="246" 
d="M-412 0l970 1407h173l-970 -1407h-173z" />
    <glyph glyph-name="periodcentered" unicode="&#x2219;" horiz-adv-x="573" 
d="M314 778q59 0 101 -43t42 -102q0 -61 -42.5 -103.5t-102.5 -42.5q-61 0 -103.5 43t-42.5 104q0 60 43 102t105 42z" />
    <glyph glyph-name="radical" unicode="&#x221a;" 
d="M272 0l-70 585h-145l33 188h313l42 -537l687 1523h563l-33 -191h-384l-728 -1568h-278z" />
    <glyph glyph-name="infinity" unicode="&#x221e;" horiz-adv-x="1602" 
d="M840 579q-60 -81 -103 -114q-104 -80 -245 -80q-162 0 -253 96q-83 89 -83 235q0 145 83 234q91 96 252 96q115 0 191 -42.5t158 -151.5q64 84 103 114q104 80 246 80q162 0 252 -96q84 -89 84 -234q0 -146 -84 -235q-90 -96 -252 -96q-153 0 -261 93q-30 26 -88 101z
M756 715l-15 20q-120 157 -237 157q-78 0 -127 -49t-49 -127q0 -80 49 -128t127 -48q81 0 150 60q29 25 85 95zM924 715l17 -20q72 -90 121.5 -122.5t113.5 -32.5q79 0 128 48.5t49 127.5q0 80 -48 127q-50 49 -129 49q-118 0 -237 -157z" />
    <glyph glyph-name="integral" unicode="&#x222b;" 
d="M45 -495l73 180q53 -20 86 -20q73 0 106 55q22 37 49 192l208 1182q27 150 44 212.5t49 119.5q84 154 275 154q81 0 176 -27l-73 -180q-52 21 -86 21q-74 0 -107 -57q-21 -36 -47 -186l-209 -1187q-26 -149 -44.5 -213t-49.5 -120q-86 -152 -276 -152q-76 0 -174 26z" />
    <glyph glyph-name="uni2243" unicode="&#x2243;" 
d="M109 424l55 205h887l-55 -205h-887zM308 733l-153 38q61 144 115 203q92 102 222 102q58 0 98.5 -15.5t107.5 -63.5q59 -42 87 -55.5t56 -13.5q41 0 76 31t79 106l147 -47q-59 -125 -110 -182q-96 -106 -225 -106q-53 0 -94.5 16.5t-103.5 60.5q-65 47 -90 59t-57 12
q-81 0 -155 -145z" />
    <glyph glyph-name="approxequal" unicode="&#x2248;" 
d="M307 733l-153 38q60 141 115 201q92 101 221 101q58 0 99 -15.5t108 -63.5q60 -43 87.5 -56.5t55.5 -13.5q41 0 76 31t79 107l147 -47q-58 -124 -110 -181q-97 -105 -225 -105q-52 0 -93.5 16.5t-104.5 61.5q-66 48 -90.5 60t-55.5 12q-82 0 -156 -146zM239 347l-153 37
q61 143 115 202q93 102 222 102q58 0 98.5 -15.5t108.5 -64.5q59 -43 87 -56.5t55 -13.5q41 0 76 31t79 107l147 -47q-58 -123 -110 -181q-96 -105 -225 -105q-52 0 -94 16.5t-104 61.5q-64 47 -89.5 59.5t-56.5 12.5q-44 0 -79 -33t-77 -113z" />
    <glyph glyph-name="notequal" unicode="&#x2260;" 
d="M108 428l55 201h288l103 155h-383l56 201h455l156 243l157 -90l-98 -153h216l-55 -201h-289l-103 -155h384l-55 -201h-458l-156 -243l-156 89l98 154h-215z" />
    <glyph glyph-name="lessequal" unicode="&#x2264;" 
d="M475 742l558 -262l-37 -207l-847 422l19 108l996 420l-39 -219zM30 0l32 179h913l-31 -179h-914z" />
    <glyph glyph-name="greaterequal" unicode="&#x2265;" 
d="M764 755l-558 261l36 207l847 -421l-19 -109l-995 -420l38 220zM30 0l32 179h913l-31 -179h-914z" />
    <glyph glyph-name="dotmath" unicode="&#x22c5;" horiz-adv-x="573" 
d="M314 778q59 0 101 -43t42 -102q0 -61 -42.5 -103.5t-102.5 -42.5q-61 0 -103.5 43t-42.5 104q0 60 43 102t105 42z" />
    <glyph glyph-name="lozenge" unicode="&#x25ca;" 
d="M50 704l561 753l561 -753l-561 -754zM317 704l294 -413l294 413l-294 412z" />
    <glyph glyph-name="ffl" unicode="&#xfb04;" horiz-adv-x="1939" 
d="M262 803h-190l46 182h175l26 146q30 172 95 250q88 104 257 104q112 0 217 -46l-78 -162q-67 26 -117 26q-73 0 -109.5 -45t-56.5 -158l-21 -115h242l-46 -182h-227l-160 -903q-33 -183 -97 -266q-88 -113 -253 -113q-102 0 -199 39l78 162q57 -19 100 -19
q68 0 103.5 44.5t55.5 157.5zM1459 0l255 1446l229 46l-263 -1492h-221zM948 803h-189l45 182h175l26 146q18 99 38.5 152t57.5 98q88 104 256 104q113 0 217 -46l-78 -162q-66 26 -116 26q-73 0 -110 -45t-57 -158l-20 -115h257l-46 -182h-243l-160 -903q-32 -183 -97 -266
q-88 -113 -252 -113q-103 0 -200 39l78 162q58 -19 100 -19q69 0 104 45t55 157z" />
    <glyph glyph-name="glyph172" 
 />
    <glyph glyph-name="glyph210" horiz-adv-x="492" 
 />
    <glyph glyph-name="idotaccent" horiz-adv-x="569" 
d="M87 0l174 985h220l-173 -985h-221zM424 1410q55 0 94.5 -40t39.5 -96q0 -57 -39.5 -97t-96.5 -40t-96.5 40t-39.5 98q0 56 40.5 95.5t97.5 39.5z" />
    </font>
</defs>
</svg>
