<?xml version="1.0" standalone="no"?>
<!DOCTYPE svg PUBLIC "-//W3C//DTD SVG 1.1//EN" "http://www.w3.org/Graphics/SVG/1.1/DTD/svg11.dtd" >
<svg xmlns="http://www.w3.org/2000/svg" xmlns:xlink="http://www.w3.org/1999/xlink" version="1.1">
<metadata>
Created by FontForge 20190801 at Fri Mar 24 11:34:09 2017
 By www-data
(URW)++,Copyright 2016 by (URW)++ Design &#38; Development
</metadata>
<defs>
<font id="JMSansLightItalic" horiz-adv-x="1147" >
  <font-face 
    font-family="JMSansLightItalic"
    font-weight="300"
    font-style="italic"
    font-stretch="normal"
    units-per-em="2048"
    panose-1="0 0 0 0 0 0 0 0 0 0"
    ascent="1536"
    descent="-512"
    x-height="985"
    cap-height="1407"
    bbox="-378 -561 2372 1983"
    underline-thickness="92"
    underline-position="-402"
    slope="-10"
    unicode-range="U+0020-FB04"
  />
<missing-glyph horiz-adv-x="492" 
d="M49 0v1407h394v-1407h-394zM394 49v1309h-296v-1309h296z" />
    <glyph glyph-name="ff" unicode="ff" horiz-adv-x="1267" 
d="M297 874h-192l28 111h183l27 151q29 163 91 239q83 99 243 99q85 0 157 -31l-47 -103q-57 23 -115 23q-91 0 -136 -54.5t-70 -195.5l-23 -128h239l-29 -111h-229l-177 -998q-29 -166 -86 -243q-76 -101 -220 -101q-81 0 -152 29l48 103q55 -21 109 -21q85 0 126 73
q30 52 52 177zM917 874h-192l28 111h183l27 151q29 163 92 239q82 99 242 99q85 0 158 -31l-48 -103q-57 23 -115 23q-91 0 -136 -54t-70 -196l-22 -128h265l-29 -111h-256l-176 -998q-30 -166 -87 -243q-76 -101 -220 -101q-81 0 -152 29l48 103q55 -21 109 -21
q85 0 126 73q30 52 52 177z" />
    <glyph glyph-name="fi" unicode="fi" horiz-adv-x="1175" 
d="M297 874h-192l28 111h183l27 151q29 163 91 239q83 99 243 99q85 0 157 -31l-47 -103q-57 23 -115 23q-91 0 -136 -54.5t-70 -195.5l-23 -128h266l-29 -111h-256l-177 -998q-29 -166 -86 -243q-76 -101 -220 -101q-81 0 -152 29l48 103q55 -21 109 -21q85 0 126 73
q30 52 52 177zM1048 1352q37 0 64 -28t27 -67t-27 -67t-66 -28t-66 28t-27 68q0 39 27.5 66.5t67.5 27.5zM760 0l174 985h128l-173 -985h-129z" />
    <glyph glyph-name="fl" unicode="fl" horiz-adv-x="1165" 
d="M297 874h-192l28 111h183l27 151q29 163 91 239q83 99 243 99q85 0 157 -31l-47 -103q-57 23 -115 23q-91 0 -136 -54.5t-70 -195.5l-23 -128h266l-29 -111h-256l-177 -998q-29 -166 -86 -243q-76 -101 -220 -101q-81 0 -152 29l48 103q55 -21 109 -21q85 0 126 73
q30 52 52 177zM753 0l255 1450l134 27l-261 -1477h-128z" />
    <glyph glyph-name="ffi" unicode="ffi" horiz-adv-x="1796" 
d="M297 874h-192l28 111h183l27 151q29 163 91 239q83 99 243 99q85 0 157 -31l-47 -103q-57 23 -115 23q-91 0 -136 -54.5t-70 -195.5l-23 -128h239l-29 -111h-229l-177 -998q-29 -166 -86 -243q-76 -101 -220 -101q-81 0 -152 29l48 103q55 -21 109 -21q85 0 126 73
q30 52 52 177zM1381 0l174 985h128l-174 -985h-128zM1669 1350q37 0 64 -27.5t27 -66.5t-27 -66.5t-66 -27.5t-66 27.5t-27 67.5q0 39 27.5 66t67.5 27zM917 874h-192l28 111h183l27 151q29 163 92 239q82 99 242 99q85 0 158 -31l-48 -103q-57 23 -115 23q-91 0 -136 -54
t-70 -196l-22 -128h265l-29 -111h-256l-176 -998q-30 -166 -87 -243q-76 -101 -220 -101q-81 0 -152 29l48 103q55 -21 109 -21q85 0 126 73q30 52 52 177z" />
    <glyph glyph-name=".notdef" horiz-adv-x="492" 
d="M49 0v1407h394v-1407h-394zM394 49v1309h-296v-1309h296z" />
    <glyph glyph-name="glyph1" horiz-adv-x="0" 
 />
    <glyph glyph-name="glyph2" horiz-adv-x="492" 
 />
    <glyph glyph-name="space" unicode=" " horiz-adv-x="492" 
 />
    <glyph glyph-name="exclam" unicode="!" horiz-adv-x="684" 
d="M269 379l161 1028h146l-201 -1028h-106zM270 173q41 0 70 -29.5t29 -71.5t-29.5 -71.5t-71.5 -29.5t-71.5 29.5t-29.5 72.5q0 42 30 71t73 29z" />
    <glyph glyph-name="quotedbl" unicode="&#x22;" horiz-adv-x="560" 
d="M179 882l72 525h127l-113 -525h-86zM432 882l72 525h127l-114 -525h-85z" />
    <glyph glyph-name="numbersign" unicode="#" 
d="M360 594l69 237h-234l34 104h234l93 308h121l-93 -308h191l93 308h121l-93 -308h233l-34 -104h-233l-69 -237h230l-36 -104h-228l-95 -328h-121l95 328h-191l-95 -328h-121l95 328h-238l35 104h237zM481 594h191l69 237h-191z" />
    <glyph glyph-name="dollar" unicode="$" 
d="M444 -28q-218 5 -358 81l67 113q73 -45 140 -63t171 -20l104 590q-133 68 -187 113q-62 51 -88.5 105t-26.5 131q0 141 73 233q106 134 356 141l34 190h97l-34 -194q155 -14 274 -77l-68 -103q-104 59 -226 70l-92 -521q150 -77 192 -110q114 -89 114 -251
q0 -171 -109 -288q-113 -121 -336 -138l-28 -162h-97zM591 806l84 477q-275 -23 -275 -245q0 -78 38.5 -124.5t152.5 -107.5zM657 628l-95 -537q107 17 165 57q57 40 89.5 102t32.5 132q0 118 -85 183q-24 18 -107 63z" />
    <glyph glyph-name="percent" unicode="%" horiz-adv-x="1624" 
d="M553 1436q117 0 181 -71q62 -68 62 -189q0 -91 -24 -184t-62 -152q-94 -144 -266 -144q-126 0 -190 71q-61 68 -61 190q0 91 23.5 183.5t62.5 151.5q94 144 274 144zM547 1349q-130 0 -190 -141q-22 -50 -36.5 -126.5t-14.5 -139.5q0 -159 140 -159q126 0 186 141
q51 119 51 266q0 75 -35 116q-35 43 -101 43zM1262 711q116 0 180 -71q62 -68 62 -188q0 -92 -24 -185t-62 -152q-94 -144 -266 -144q-126 0 -189 71q-61 68 -61 191q0 91 23.5 182.5t62.5 151.5q93 144 274 144zM1255 624q-130 0 -189 -141q-51 -119 -51 -265
q0 -160 139 -160q126 0 186 141q51 119 51 267q0 74 -35 115q-35 43 -101 43zM420 0l746 1407h111l-746 -1407h-111z" />
    <glyph glyph-name="ampersand" unicode="&#x26;" horiz-adv-x="1395" 
d="M1030 231l158 -231h-182l-88 138q-209 -167 -449 -167q-170 0 -274 83q-116 92 -116 256q0 209 152 345q90 80 272 142q-80 126 -80 261q0 156 93 262q102 116 279 116q141 0 221 -71q74 -67 74 -187q0 -185 -147 -297q-90 -68 -261 -124l285 -436q157 177 292 584
l129 -1q-143 -449 -358 -673zM627 841q143 47 221 105q119 89 119 242q0 142 -172 142q-131 0 -196 -93q-52 -74 -52 -178q0 -102 80 -218zM554 713q-341 -114 -341 -385q0 -122 74 -184q76 -64 210 -64q185 0 364 143z" />
    <glyph glyph-name="quotesingle" unicode="'" horiz-adv-x="284" 
d="M168 882l72 525h127l-113 -525h-86z" />
    <glyph glyph-name="parenleft" unicode="(" horiz-adv-x="807" 
d="M504 -288l-94 -50q-138 279 -138 643q0 434 205 839q111 220 252 385l87 -50q-78 -104 -121.5 -178.5t-104.5 -205.5q-90 -196 -130 -374q-59 -258 -59 -433q0 -80 13.5 -200t30.5 -196q18 -78 59 -180z" />
    <glyph glyph-name="parenright" unicode=")" horiz-adv-x="807" 
d="M340 1479l93 50q139 -280 139 -644q0 -433 -205 -838q-110 -218 -252 -385l-87 50q75 100 120 176t106 208q89 194 130 374q59 257 59 432q0 78 -13.5 201t-30.5 196q-18 76 -59 180z" />
    <glyph glyph-name="asterisk" unicode="*" 
d="M683 1112l-245 -328l-97 68l283 312l-348 69l61 122l322 -117l42 351h132l-82 -351l364 117l18 -122l-373 -69l174 -312l-121 -68z" />
    <glyph glyph-name="plus" unicode="+" 
d="M144 642l30 115h394l74 414h126l-73 -414h407l-30 -115h-397l-73 -412h-126l72 412h-404z" />
    <glyph glyph-name="comma" unicode="," horiz-adv-x="573" 
d="M41 -261l133 427h148l-188 -427h-93z" />
    <glyph glyph-name="hyphen" unicode="-" horiz-adv-x="707" 
d="M84 587l43 114h549l-43 -114h-549z" />
    <glyph glyph-name="period" unicode="." horiz-adv-x="573" 
d="M215 173q41 0 70 -29.5t29 -71.5t-29.5 -71.5t-71.5 -29.5t-71.5 29.5t-29.5 72.5q0 42 30 71t73 29z" />
    <glyph glyph-name="slash" unicode="/" horiz-adv-x="573" 
d="M-93 0l706 1407h127l-706 -1407h-127z" />
    <glyph glyph-name="zero" unicode="0" 
d="M724 1436q85 0 162.5 -28t122.5 -75q98 -102 98 -322q0 -119 -33 -312.5t-76 -319.5q-73 -221 -202 -316q-124 -92 -292 -92q-86 0 -163.5 26.5t-122.5 70.5q-48 48 -75.5 134t-27.5 186q0 127 33.5 321.5t78.5 325.5q73 217 203 312q123 89 294 89zM719 1325
q-141 0 -231 -87t-146 -277q-35 -121 -63.5 -299t-28.5 -280q0 -300 257 -300q138 0 228 88t145 276q35 121 63.5 298.5t28.5 278.5q0 302 -253 302z" />
    <glyph glyph-name="one" unicode="1" 
d="M483 0l225 1274l-262 -76l-16 98l322 111h110l-248 -1407h-131z" />
    <glyph glyph-name="two" unicode="2" 
d="M57 0l18 104l533 501q177 167 250 284t73 234q0 204 -242 204q-173 0 -363 -130l-47 97q115 78 212.5 111.5t208.5 33.5q180 0 276 -82q91 -77 91 -232q0 -142 -81 -274t-275 -308l-478 -432h693l-19 -111h-850z" />
    <glyph glyph-name="three" unicode="3" 
d="M409 691l20 109h94q162 0 270 86q117 94 117 240q0 199 -236 199q-164 0 -351 -110l-43 104q195 117 409 117q176 0 269 -82q87 -78 87 -216q0 -140 -79 -236.5t-232 -143.5q254 -59 254 -298q0 -103 -39.5 -195.5t-111.5 -157.5q-150 -136 -417 -136q-240 0 -387 102
l69 106q86 -57 150 -77t163 -20q247 0 357 138q80 99 80 234q0 123 -78 180t-246 57h-119z" />
    <glyph glyph-name="four" unicode="4" 
d="M665 396h-645l19 105l799 906h135l-158 -900h198l-30 -111h-188l-70 -396h-130zM687 506l127 723l-633 -723h506z" />
    <glyph glyph-name="five" unicode="5" 
d="M259 677l155 730h666l-39 -111h-532l-107 -508q86 44 141.5 59t128.5 15q344 0 344 -320q0 -114 -39 -221.5t-107 -182.5q-153 -167 -429 -167q-211 0 -368 98l71 110q131 -97 292 -97q261 0 364 167q80 128 80 296q0 207 -237 207q-69 0 -135 -22.5t-162 -78.5z" />
    <glyph glyph-name="six" unicode="6" 
d="M318 728q143 157 350 157q166 0 257 -86q99 -92 99 -259q0 -95 -30 -193.5t-81 -175.5q-137 -203 -399 -203q-201 0 -293 104q-84 96 -84 265q0 154 46.5 361t112.5 345q102 212 260 309q136 84 301 84q128 0 244 -42l-58 -104q-76 35 -178 35q-272 0 -413 -247
q-78 -137 -134 -350zM652 775q-181 0 -290 -134q-44 -53 -69.5 -136t-25.5 -169q0 -258 248 -258q200 0 301 181q72 129 72 279q0 111 -55 170q-63 67 -181 67z" />
    <glyph glyph-name="seven" unicode="7" 
d="M1000 1296h-720l34 111h857l-12 -66l-793 -1341h-155z" />
    <glyph glyph-name="eight" unicode="8" 
d="M396 739q-60 34 -89 69q-60 72 -60 184q0 92 34 179.5t91 143.5q124 121 339 121q186 0 288 -80q99 -78 99 -230q0 -140 -65 -236t-197 -151q192 -68 192 -289q0 -110 -38.5 -207t-104.5 -157q-128 -115 -380 -115q-213 0 -328 83q-103 73 -103 238q0 170 85 287.5
t237 159.5zM715 1326q-194 0 -278 -131q-56 -87 -56 -201q0 -205 245 -205q193 0 280 133q58 88 58 202q0 202 -249 202zM612 678q-226 0 -323 -124q-80 -102 -80 -258q0 -215 298 -215q133 0 209 38q108 55 151 176q28 78 28 163q0 220 -283 220z" />
    <glyph glyph-name="nine" unicode="9" 
d="M911 702q-129 -166 -352 -166q-171 0 -268 91q-92 87 -92 247q0 96 33 197t90 178q137 187 386 187q201 0 294 -106q37 -42 59.5 -113t22.5 -147q0 -197 -61.5 -433t-149.5 -376q-99 -158 -245 -231q-122 -62 -263 -62q-136 0 -247 41l57 105q80 -35 181 -35
q271 0 415 250q77 135 140 373zM709 1326q-196 0 -297 -169q-77 -130 -77 -285q0 -103 56 -161q62 -65 186 -65q174 0 283 127q43 50 68.5 130t25.5 165q0 258 -245 258z" />
    <glyph glyph-name="colon" unicode=":" horiz-adv-x="573" 
d="M206 173q41 0 70 -29.5t29 -71.5t-29.5 -71.5t-71.5 -29.5t-71.5 29.5t-29.5 72.5q0 42 30 71t73 29zM353 1008q40 0 69.5 -30t29.5 -71q0 -42 -29.5 -71.5t-71.5 -29.5t-71.5 29.5t-29.5 72.5q0 42 30 71t73 29z" />
    <glyph glyph-name="semicolon" unicode=";" horiz-adv-x="573" 
d="M40 -261l133 427h148l-188 -427h-93zM353 1008q40 0 69.5 -30t29.5 -71q0 -42 -29.5 -71.5t-71.5 -29.5t-71.5 29.5t-29.5 72.5q0 42 30 71t73 29z" />
    <glyph glyph-name="less" unicode="&#x3c;" 
d="M326 695l670 -363l-24 -134l-820 465l14 77l984 467l-25 -146z" />
    <glyph glyph-name="equal" unicode="=" 
d="M199 776l29 115h841l-30 -115h-840zM152 512l30 115h840l-30 -115h-840z" />
    <glyph glyph-name="greater" unicode="&#x3e;" 
d="M894 710l-670 363l24 134l820 -465l-13 -77l-985 -467l26 146z" />
    <glyph glyph-name="question" unicode="?" horiz-adv-x="921" 
d="M449 377h-114l18 102q13 73 28 110.5t44 71.5q43 50 181 164q127 106 168 179q42 76 42 159q0 163 -214 163q-170 0 -349 -101l-37 101q197 110 413 110q187 0 268 -86q55 -58 55 -150q0 -130 -75 -245q-48 -73 -189 -192q-151 -126 -178.5 -162t-44.5 -134zM345 173
q41 0 70 -29.5t29 -71.5t-29.5 -71.5t-71.5 -29.5t-71.5 29.5t-29.5 72.5q0 42 30 71t73 29z" />
    <glyph glyph-name="at" unicode="@" horiz-adv-x="1636" 
d="M1127 999h112l-105 -496q-13 -63 -13 -89q0 -80 83 -80q79 0 131 75q115 164 115 399q0 198 -99 309q-68 77 -180 115q-116 38 -243 38q-292 0 -471 -186q-204 -210 -204 -573q0 -297 166 -427q135 -105 385 -105q284 0 541 112l39 -96q-262 -113 -567 -113
q-679 0 -679 625q0 285 118 492q107 185 294 278q175 86 389 86q228 0 385 -97q240 -147 240 -465q0 -281 -156 -458q-91 -104 -225 -104q-79 0 -113 35t-39 121q-112 -162 -270 -162q-115 0 -177.5 71.5t-62.5 202.5q0 150 65 285q109 228 322 228q139 0 202 -121zM909 924
q-118 0 -191 -128q-73 -127 -73 -290q0 -85 38 -130q39 -46 101 -46q125 0 208 141q80 138 80 274q0 73 -38 121q-47 58 -125 58z" />
    <glyph glyph-name="A" unicode="A" horiz-adv-x="1292" 
d="M959 463h-627l-269 -463h-145l828 1407h123l332 -1407h-136zM934 574l-152 666l-387 -666h539z" />
    <glyph glyph-name="B" unicode="B" horiz-adv-x="1223" 
d="M112 0l248 1407h422q240 0 331 -69q94 -70 94 -210q0 -155 -93 -266q-73 -86 -205 -116q104 -20 155 -73q68 -72 68 -207q0 -115 -46 -217t-123 -159q-67 -50 -157.5 -70t-245.5 -20h-448zM384 798h238q160 0 234.5 19.5t126.5 74.5q41 43 65.5 106.5t24.5 125.5
q0 97 -76 139q-60 33 -246 33h-279zM263 111h272q138 0 214.5 15.5t126.5 53.5q55 42 87.5 119t32.5 168q0 130 -79.5 176.5t-300.5 46.5h-251z" />
    <glyph glyph-name="C" unicode="C" horiz-adv-x="1101" 
d="M937 178l49 -109q-147 -98 -355 -98q-247 0 -376 125q-137 133 -137 393q0 244 95 483q183 464 634 464q100 0 192.5 -23.5t155.5 -64.5l-70 -105q-119 82 -281 82q-182 0 -307 -102q-156 -126 -231 -386q-52 -178 -52 -345q0 -410 379 -410q163 0 304 96z" />
    <glyph glyph-name="D" unicode="D" horiz-adv-x="1314" 
d="M112 0l248 1407h323q279 0 416 -96q168 -119 168 -421q0 -267 -106 -496q-110 -237 -307 -326q-151 -68 -375 -68h-367zM263 112h187q223 0 346 62q179 91 269 338q66 181 66 368q0 306 -204 380q-96 35 -297 35h-159z" />
    <glyph glyph-name="E" unicode="E" horiz-adv-x="1122" 
d="M112 0l248 1407h812l-28 -112h-673l-85 -485h571l-29 -110h-562l-103 -588h707l-31 -112h-827z" />
    <glyph glyph-name="F" unicode="F" horiz-adv-x="1027" 
d="M112 0l248 1407h775l-29 -112h-635l-87 -498h536l-29 -111h-527l-121 -686h-131z" />
    <glyph glyph-name="G" unicode="G" horiz-adv-x="1285" 
d="M951 138l77 437h-318l37 109h431l-113 -641q-172 -72 -386 -72q-276 0 -410 116q-77 68 -114 180q-36 108 -36 227q0 264 103 508q90 212 252 323t381 111q212 0 381 -99l-66 -107q-148 95 -314 95q-189 0 -315 -95q-161 -122 -239 -396q-47 -166 -47 -328
q0 -232 114 -336q96 -88 299 -88q174 0 283 56z" />
    <glyph glyph-name="H" unicode="H" horiz-adv-x="1404" 
d="M112 0l248 1407h131l-108 -614h745l109 614h131l-248 -1407h-131l119 677h-745l-120 -677h-131z" />
    <glyph glyph-name="I" unicode="I" horiz-adv-x="554" 
d="M125 0l248 1407h131l-248 -1407h-131z" />
    <glyph glyph-name="J" unicode="J" horiz-adv-x="532" 
d="M361 1407h131l-176 -998q-38 -214 -69.5 -316.5t-85.5 -188.5q-81 -126 -273 -258l-60 61q164 129 234 268q39 76 68 182.5t62 292.5z" />
    <glyph glyph-name="K" unicode="K" horiz-adv-x="1182" 
d="M112 0l248 1407h131l-106 -603l744 603h176l-793 -637l584 -770h-156l-563 757l-134 -757h-131z" />
    <glyph glyph-name="L" unicode="L" horiz-adv-x="1003" 
d="M112 0l248 1407h131l-228 -1295h649l-30 -112h-770z" />
    <glyph glyph-name="M" unicode="M" horiz-adv-x="1694" 
d="M61 0l341 1407h138l254 -1192l674 1192h146l-155 -1407h-126l136 1174l-668 -1174h-82l-255 1174l-277 -1174h-126z" />
    <glyph glyph-name="N" unicode="N" horiz-adv-x="1443" 
d="M112 0l248 1407h131l579 -1182l209 1182h128l-248 -1407h-116l-592 1199l-211 -1199h-128z" />
    <glyph glyph-name="O" unicode="O" horiz-adv-x="1391" 
d="M833 1436q149 0 268 -59q241 -121 241 -487q0 -176 -53 -356q-84 -288 -260 -435q-151 -128 -392 -128q-249 0 -377 126q-138 137 -138 418q0 176 53 357q166 564 658 564zM831 1325q-310 0 -461 -310q-49 -103 -80.5 -251t-31.5 -279q0 -201 103 -306q94 -96 276 -96
q191 0 317 113q138 124 204 374q48 184 48 349q0 198 -101 303q-45 47 -119.5 75t-154.5 28z" />
    <glyph glyph-name="P" unicode="P" horiz-adv-x="1146" 
d="M112 0l248 1407h316q232 0 343 -66q71 -43 105 -133q25 -67 25 -146q0 -100 -37 -196.5t-100 -161.5q-73 -75 -183 -109t-279 -34h-208l-99 -561h-131zM362 672h185q257 0 353 97q51 51 82 129t31 155q0 148 -97 200q-79 43 -259 43h-185z" />
    <glyph glyph-name="Q" unicode="Q" horiz-adv-x="1391" 
d="M989 75q165 32 324 32l-19 -107q-274 -2 -499 -20q-108 -9 -158 -9q-192 0 -314 76q-104 66 -154 193q-47 119 -47 274q0 177 53 358q84 288 260 433q160 131 390 131q252 0 385 -138q132 -137 132 -406q0 -253 -99 -482.5t-254 -334.5zM831 1325q-310 0 -461 -310
q-49 -103 -80.5 -251t-31.5 -279q0 -201 103 -306q94 -96 276 -96q191 0 317 113q138 124 204 374q48 184 48 349q0 198 -101 303q-45 47 -119.5 75t-154.5 28z" />
    <glyph glyph-name="R" unicode="R" horiz-adv-x="1212" 
d="M349 601l-106 -601h-131l248 1407h377q206 0 308 -60q119 -70 119 -252q0 -92 -35.5 -187t-92.5 -156q-74 -79 -194 -111q37 -28 58.5 -64t48.5 -118l150 -459h-149l-104 332q-61 194 -88 231.5t-107 37.5h-302zM368 708h208q144 0 224.5 22t126.5 74q45 50 73 130.5
t28 158.5q0 117 -74 160t-274 43h-208z" />
    <glyph glyph-name="S" unicode="S" horiz-adv-x="1002" 
d="M7 53l67 113q132 -84 304 -84q211 0 307 102q86 92 86 214q0 98 -51 155q-39 44 -192 123q-113 59 -167 95.5t-94 81.5q-68 75 -68 190q0 180 127 291q117 102 322 102q193 0 346 -81l-68 -104q-127 74 -276 74q-155 0 -239 -80q-78 -74 -78 -186q0 -85 55 -140
q48 -47 227 -140q165 -86 219 -145q73 -80 73 -219q0 -108 -43.5 -199.5t-123.5 -150.5q-125 -94 -350 -94q-233 0 -383 82z" />
    <glyph glyph-name="T" unicode="T" horiz-adv-x="1018" 
d="M357 0l229 1295h-423l28 112h968l-29 -112h-413l-229 -1295h-131z" />
    <glyph glyph-name="U" unicode="U" horiz-adv-x="1332" 
d="M353 1407h131l-149 -847q-29 -164 -29 -243q0 -132 81 -187q70 -48 214 -48q234 0 325 152q52 87 94 326l150 847h131l-167 -946q-22 -126 -46 -194t-67 -124q-128 -172 -435 -172q-224 0 -327 96q-85 80 -85 243q0 80 26 226z" />
    <glyph glyph-name="V" unicode="V" horiz-adv-x="1126" 
d="M411 0l-240 1407h132l202 -1217l633 1217h140l-737 -1407h-130z" />
    <glyph glyph-name="W" unicode="W" horiz-adv-x="1727" 
d="M311 0l-117 1407h132l86 -1208l552 1208h125l128 -1212l502 1212h136l-606 -1407h-130l-125 1206l-551 -1206h-132z" />
    <glyph glyph-name="X" unicode="X" horiz-adv-x="1167" 
d="M557 748l-293 659h137l253 -570l447 570h153l-552 -677l325 -730h-138l-284 641l-527 -641h-155z" />
    <glyph glyph-name="Y" unicode="Y" horiz-adv-x="1087" 
d="M390 0l98 556l-307 851h135l256 -735l513 735h144l-610 -851l-98 -556h-131z" />
    <glyph glyph-name="Z" unicode="Z" horiz-adv-x="1051" 
d="M-48 0l16 95l977 1200h-680l29 112h825l-3 -95l-977 -1200h804l-30 -112h-961z" />
    <glyph glyph-name="bracketleft" unicode="[" horiz-adv-x="807" 
d="M847 1552l-18 -98h-204l-300 -1701h205l-18 -97h-335l334 1896h336z" />
    <glyph glyph-name="backslash" unicode="\" horiz-adv-x="573" 
d="M372 0l-211 1407h121l211 -1407h-121z" />
    <glyph glyph-name="bracketright" unicode="]" horiz-adv-x="807" 
d="M0 -344l17 97h205l299 1701h-204l17 98h336l-335 -1896h-335z" />
    <glyph glyph-name="asciicircum" unicode="^" 
d="M717 1275l-440 -566h-144l575 724h64l319 -724h-134z" />
    <glyph glyph-name="underscore" unicode="_" horiz-adv-x="1024" 
d="M-219 -402l16 92h1146l-16 -92h-1146z" />
    <glyph glyph-name="grave" unicode="`" horiz-adv-x="1024" 
d="M738 1126h-100l-196 256h186z" />
    <glyph glyph-name="a" unicode="a" horiz-adv-x="1085" 
d="M833 0h-135l9 120q-78 -79 -152.5 -114t-167.5 -35q-152 0 -237 89q-76 81 -76 247q0 122 34.5 245.5t95.5 219.5q152 242 436 242q129 0 339 -62l-104 -592q-40 -229 -42 -360zM835 864q-99 40 -197 40q-225 0 -341 -230q-41 -79 -65 -181.5t-24 -193.5q0 -112 54 -167
q51 -51 140 -51q150 0 261 119q39 42 57.5 82t30.5 107z" />
    <glyph glyph-name="b" unicode="b" horiz-adv-x="1096" 
d="M112 66l244 1385l133 26l-107 -606q144 143 323 143q312 0 312 -367q0 -123 -34 -244.5t-94 -212.5q-143 -219 -399 -219q-182 0 -378 95zM254 145q90 -64 223 -64q211 0 323 210q83 156 83 353q0 260 -192 260q-154 0 -267 -119q-40 -42 -59 -82t-31 -107z" />
    <glyph glyph-name="c" unicode="c" horiz-adv-x="909" 
d="M746 184l49 -105q-151 -108 -336 -108q-378 0 -378 396q0 145 49 281q74 202 221 295q114 71 265 71q173 0 299 -84l-64 -105q-109 79 -235 79q-197 0 -307 -185q-94 -159 -94 -350q0 -151 79 -226q65 -62 188 -62q130 0 264 103z" />
    <glyph glyph-name="d" unicode="d" horiz-adv-x="1096" 
d="M862 955l88 496l133 26l-260 -1477h-98l-1 127q-149 -156 -332 -156q-148 0 -231 84q-86 87 -86 265q0 120 33 239t92 211q156 244 425 244q118 0 237 -59zM841 837q-81 67 -206 67q-222 0 -342 -231q-84 -162 -84 -350q0 -129 60 -189q54 -53 140 -53q69 0 139.5 31.5
t123.5 87.5q40 42 59.5 82.5t31.5 106.5z" />
    <glyph glyph-name="e" unicode="e" horiz-adv-x="951" 
d="M219 425q-3 -29 -3 -49q0 -120 40 -192q58 -105 232 -105q77 0 137 21t134 75l51 -103q-159 -101 -341 -101q-177 0 -269 80q-54 47 -83 124q-33 91 -33 192q0 117 35.5 234.5t97.5 206.5q146 206 405 206q134 0 205 -60t71 -172q0 -102 -60.5 -167.5t-196.5 -110.5
q-127 -42 -422 -79zM234 528q246 27 380 78q83 32 120.5 73t37.5 102q0 127 -158 127q-142 0 -240.5 -98.5t-139.5 -281.5z" />
    <glyph glyph-name="f" unicode="f" horiz-adv-x="647" 
d="M297 874h-192l28 111h183l27 151q29 163 91 239q83 99 243 99q85 0 157 -31l-47 -103q-57 23 -115 23q-91 0 -136 -54.5t-70 -195.5l-23 -128h266l-29 -111h-256l-177 -998q-29 -166 -86 -243q-76 -101 -220 -101q-81 0 -152 29l48 103q55 -21 109 -21q85 0 126 73
q30 52 52 177z" />
    <glyph glyph-name="g" unicode="g" horiz-adv-x="1084" 
d="M701 116q-78 -78 -150.5 -111.5t-163.5 -33.5q-151 0 -234 87q-79 84 -79 251q0 119 34.5 242t94.5 219q152 244 434 244q79 0 146.5 -12.5t193.5 -49.5l-133 -754q-51 -293 -92 -404q-96 -262 -415 -262q-172 0 -310 61l60 106q98 -58 241 -58q131 0 204 53
q81 60 120 195q23 82 44 196zM833 864q-108 40 -196 40q-224 0 -341 -230q-40 -79 -64.5 -182t-24.5 -194q0 -104 50.5 -160.5t142.5 -56.5q150 0 261 119q39 42 58 82t31 107z" />
    <glyph glyph-name="h" unicode="h" horiz-adv-x="1161" 
d="M101 0l256 1451l133 26l-113 -645q120 101 208 141.5t188 40.5q125 0 196 -59q59 -48 59 -135q0 -69 -24 -207l-109 -613h-128l116 662q11 60 11 109q0 59 -25 88q-36 42 -124 42q-110 0 -241 -84q-82 -52 -152 -121l-122 -696h-129z" />
    <glyph glyph-name="i" unicode="i" horiz-adv-x="528" 
d="M113 0l174 985h128l-173 -985h-129zM401 1350q37 0 64 -27.5t27 -66.5t-27 -66.5t-66 -27.5t-66 27.5t-27 67.5q0 39 27.5 66t67.5 27z" />
    <glyph glyph-name="j" unicode="j" horiz-adv-x="536" 
d="M294 985h128l-169 -963q-33 -187 -90.5 -285t-195.5 -203l-50 53q106 120 144 209q40 94 83 339zM408 1350q37 0 64 -27.5t27 -66.5t-27 -66.5t-66 -27.5t-66 27.5t-27 67.5q0 39 27.5 66t67.5 27z" />
    <glyph glyph-name="k" unicode="k" horiz-adv-x="1025" 
d="M103 0l256 1450l133 27l-146 -829q32 13 122 48q183 71 278 138.5t127 150.5h121q-22 -77 -71 -134t-138 -109q-127 -75 -294 -143l456 -599h-150l-410 557l-61 -23l-94 -534h-129z" />
    <glyph glyph-name="l" unicode="l" horiz-adv-x="524" 
d="M111 0l256 1451l133 26l-260 -1477h-129z" />
    <glyph glyph-name="m" unicode="m" horiz-adv-x="1771" 
d="M101 0l174 985h99l-9 -150q115 100 199 139.5t180 39.5q69 0 128 -20t86 -54q31 -36 39 -110q197 184 385 184q126 0 198 -63q56 -48 56 -135q0 -74 -26 -221l-105 -595h-128l116 663q10 55 10 112q0 126 -137 126q-83 0 -181.5 -53.5t-194.5 -151.5l-123 -696h-128
l116 662q10 55 10 113q0 57 -24 87q-32 39 -113 39q-84 0 -181.5 -53.5t-194.5 -151.5l-122 -696h-129z" />
    <glyph glyph-name="n" unicode="n" horiz-adv-x="1161" 
d="M101 0l174 985h99l-9 -150q214 179 410 179q118 0 184.5 -53t66.5 -148q0 -72 -26 -218l-105 -595h-128l114 651q14 77 14 122q0 127 -150 127q-89 0 -193.5 -54.5t-199.5 -149.5l-122 -696h-129z" />
    <glyph glyph-name="o" unicode="o" horiz-adv-x="1083" 
d="M618 1014q192 0 290 -112q92 -103 92 -292q0 -113 -35 -231.5t-95 -204.5q-141 -203 -398 -203q-191 0 -288 100q-101 104 -101 304q0 113 35.5 232t94.5 204q141 203 405 203zM612 904q-218 0 -324 -218q-71 -148 -71 -316q0 -289 259 -289q213 0 318 218q72 148 72 314
q0 291 -254 291z" />
    <glyph glyph-name="p" unicode="p" horiz-adv-x="1096" 
d="M18 -476l257 1461h99v-127q149 156 333 156q155 0 239 -95q77 -87 77 -257q0 -116 -32.5 -236t-89.5 -211q-151 -244 -423 -244q-158 0 -242 60l-83 -470zM257 149q83 -68 206 -68q227 0 343 231q83 166 83 345q0 120 -48 180q-54 67 -151 67q-70 0 -140.5 -31.5
t-123.5 -87.5q-40 -41 -59.5 -82t-31.5 -107z" />
    <glyph glyph-name="q" unicode="q" horiz-adv-x="1096" 
d="M990 952l-245 -1392l-136 -38l105 591q-141 -142 -317 -142q-150 0 -235 82q-88 85 -88 260q0 120 35 242.5t96 217.5q156 241 438 241q138 0 347 -62zM846 864q-111 40 -204 40q-225 0 -345 -230q-40 -78 -64.5 -179.5t-24.5 -191.5q0 -111 54 -167q53 -55 149 -55
q151 0 262 119q40 42 58.5 82t30.5 107z" />
    <glyph glyph-name="r" unicode="r" horiz-adv-x="719" 
d="M101 0l174 985h99l-13 -176q133 106 228 145.5t220 40.5l-28 -113q-215 -5 -433 -213l-118 -669h-129z" />
    <glyph glyph-name="s" unicode="s" horiz-adv-x="773" 
d="M-40 65l68 105q123 -92 255 -92q115 0 182.5 59.5t67.5 161.5q0 59 -27.5 86.5t-146.5 85.5q-135 66 -185 123t-50 143q0 128 89.5 202.5t241.5 74.5q159 0 283 -74l-74 -103q-92 69 -211 69q-104 0 -153 -49q-43 -44 -43 -114q0 -62 57 -102q29 -20 144 -80
q115 -59 157 -104q51 -55 51 -137q0 -67 -24.5 -133.5t-64.5 -109.5q-98 -106 -307 -106q-187 0 -310 94z" />
    <glyph glyph-name="t" unicode="t" horiz-adv-x="691" 
d="M298 875h-168l27 110h164l57 249l118 36l-50 -285h227l-29 -110h-217l-100 -564q-20 -116 -20 -158q0 -72 97 -72q60 0 119 32l33 -108q-93 -34 -185 -34q-196 0 -196 159q0 47 18 152z" />
    <glyph glyph-name="u" unicode="u" horiz-adv-x="1133" 
d="M759 133q-187 -162 -376 -162q-118 0 -182.5 53.5t-64.5 150.5q0 71 27 225l103 585h129l-110 -627q-17 -93 -17 -147q0 -66 34 -96.5t108 -30.5q83 0 178 45t188 128l128 728h129l-174 -985h-101z" />
    <glyph glyph-name="v" unicode="v" horiz-adv-x="932" 
d="M287 0l-171 985h132l129 -842q369 389 369 611q0 42 -17 74.5t-63 80.5l82 89q132 -107 132 -222q0 -158 -148 -372q-121 -177 -334 -404h-111z" />
    <glyph glyph-name="w" unicode="w" horiz-adv-x="1494" 
d="M282 0l-151 985h132l103 -820l393 820h103l149 -828q299 378 299 596q0 43 -17.5 74.5t-67.5 81.5l80 89q71 -57 102 -109.5t31 -115.5q0 -154 -129 -369q-105 -175 -291 -404h-96l-140 803l-384 -803h-116z" />
    <glyph glyph-name="x" unicode="x" horiz-adv-x="982" 
d="M429 514l-263 471h143l211 -380l329 380h155l-432 -471l286 -514h-142l-235 424l-380 -424h-154z" />
    <glyph glyph-name="y" unicode="y" horiz-adv-x="932" 
d="M310 2l-209 983h132l171 -861q26 33 39 49q119 150 160.5 210.5t79.5 139.5q67 139 67 229q0 43 -16.5 75.5t-64.5 81.5l82 89q70 -56 101.5 -109t31.5 -116q0 -135 -101 -314q-46 -82 -87.5 -140t-214.5 -278q-199 -253 -321 -514l-119 49q107 208 269 426z" />
    <glyph glyph-name="z" unicode="z" horiz-adv-x="859" 
d="M-3 0l-17 101l681 774h-80q-278 0 -403 42l38 105q144 -37 422 -37h173l21 -94l-691 -781q93 8 166 8q264 0 446 -68l-46 -104q-175 62 -451 62q-98 0 -259 -8z" />
    <glyph glyph-name="braceleft" unicode="{" horiz-adv-x="807" 
d="M371 656q109 -46 109 -155q0 -29 -25 -168l-39 -226q-29 -163 -29 -223q0 -73 39 -104t130 -31h51l-16 -93h-77q-102 0 -159 25q-100 44 -100 188q0 64 27 217l42 238q9 49 17 87q12 59 12 99q0 107 -150 107h-33l14 78h33q101 0 148 50q29 29 40 65.5t36 178.5l34 193
q24 135 48 195.5t69 101.5q81 73 257 73h76l-16 -93h-51q-147 0 -195 -91q-38 -72 -73 -269l-21 -119q-25 -145 -39.5 -184.5t-57.5 -78.5q-45 -41 -101 -61z" />
    <glyph glyph-name="bar" unicode="|" horiz-adv-x="1024" 
d="M288 -412l321 1819h128l-320 -1819h-129z" />
    <glyph glyph-name="braceright" unicode="}" horiz-adv-x="807" 
d="M493 656q-109 45 -109 153q0 27 25 170l21 122q28 156 28 223q0 73 -39 104t-129 31h-51l16 93h74q103 0 161 -25q101 -44 101 -188q0 -64 -27 -217l-24 -134q-9 -49 -16 -85q-13 -61 -13 -102q0 -106 150 -106h33l-13 -78h-34q-100 0 -148 -50q-28 -30 -39.5 -66
t-36.5 -179l-53 -296q-24 -136 -47.5 -195.5t-68.5 -101.5q-81 -73 -257 -73h-76l16 93h51q147 0 195 90q38 72 73 270l39 222q26 146 40.5 185t56.5 78q45 41 101 62z" />
    <glyph glyph-name="asciitilde" unicode="~" 
d="M256 571l-89 27q53 110 96 160q81 93 190 93q60 0 103.5 -21t109.5 -83q55 -51 82 -66.5t61 -15.5q49 0 88 37t85 128l87 -30q-63 -138 -125.5 -193t-156.5 -55q-59 0 -98 20t-107 84q-53 50 -81 66t-64 16q-51 0 -93 -39t-88 -128z" />
    <glyph glyph-name="nonbreakingspace" unicode="&#xa0;" horiz-adv-x="492" 
 />
    <glyph glyph-name="exclamdown" unicode="&#xa1;" horiz-adv-x="684" 
d="M415 608l-162 -1028h-145l201 1028h106zM418 1016q40 0 69.5 -30t29.5 -71q0 -42 -29.5 -71.5t-71.5 -29.5t-71.5 29.5t-29.5 71.5t30 71.5t73 29.5z" />
    <glyph glyph-name="cent" unicode="&#xa2;" 
d="M539 350q-342 38 -342 393q0 185 84 350q139 271 441 294l34 193h97l-34 -194q142 -9 250 -81l-64 -105q-97 69 -205 78l-145 -822q120 6 246 102l49 -104q-141 -99 -314 -107l-55 -310h-97zM559 462l143 812q-122 -20 -204 -101q-76 -75 -121.5 -193.5t-45.5 -238.5
q0 -174 120 -244q34 -19 108 -35z" />
    <glyph glyph-name="sterling" unicode="&#xa3;" 
d="M484 775h286l-28 -110h-277l-98 -554h638l-28 -111h-920l28 111h152l98 554h-195l28 110h187l39 220q18 104 45.5 164t79.5 112q126 125 360 125q165 0 324 -70l-66 -111q-115 70 -259 70q-187 0 -278 -115q-60 -74 -90 -247z" />
    <glyph glyph-name="currency" unicode="&#xa4;" 
d="M178 161l-75 71l176 181q-91 117 -91 270q0 151 91 268l-176 182l75 71l175 -183q128 86 255 86q125 0 253 -86l175 183l75 -71l-176 -182q89 -121 89 -269q0 -147 -89 -269l176 -181l-75 -71l-175 182q-129 -85 -254 -85t-254 85zM610 999q-136 0 -221 -99
q-74 -86 -74 -218q0 -131 74 -217q84 -99 217 -99t217 99q74 86 74 218t-74 217q-86 99 -213 99z" />
    <glyph glyph-name="yen" unicode="&#xa5;" 
d="M409 0l57 321h-387l34 95h370l22 126l-5 18h-379l34 95h316l-266 752l133 -1l253 -735l510 735l143 1l-534 -752h336l-34 -95h-363l-13 -18l-22 -126h390l-34 -95h-373l-57 -321h-131z" />
    <glyph glyph-name="brokenbar" unicode="&#xa6;" horiz-adv-x="1024" 
d="M518 890l91 517h129l-91 -517h-129zM361 0l85 482h129l-85 -482h-129z" />
    <glyph glyph-name="section" unicode="&#xa7;" 
d="M114 -140l82 105q119 -90 262 -90q136 0 206 81q61 71 61 163q0 68 -42.5 103t-183.5 81q-100 32 -151 57.5t-84 57.5q-54 54 -54 154q0 224 230 329q-74 62 -74 190q0 163 110 265q101 94 276 94q166 0 295 -84l-82 -102q-98 77 -211 77q-126 0 -193 -74
q-61 -67 -61 -156q0 -73 41.5 -111.5t175.5 -86.5q102 -37 143 -57t71 -48q63 -57 63 -165q0 -206 -213 -318q77 -66 77 -186q0 -160 -103 -267q-103 -106 -298 -106t-343 94zM696 369q87 51 118 96q50 73 50 158q0 69 -54 109q-15 11 -146 63l-141 59q-89 -45 -127 -95
q-56 -76 -56 -166q0 -65 37.5 -96.5t169.5 -76.5z" />
    <glyph glyph-name="dieresis" unicode="&#xa8;" horiz-adv-x="1024" 
d="M489 1349q37 0 63.5 -27t26.5 -65q0 -39 -27 -66t-65 -27t-65 27t-27 66t27 65.5t67 26.5zM809 1349q37 0 63.5 -27t26.5 -65q0 -39 -27 -66t-65 -27t-65 27t-27 66t27 65.5t67 26.5z" />
    <glyph glyph-name="copyright" unicode="&#xa9;" horiz-adv-x="1695" 
d="M1093 473l37 -75q-86 -49 -202 -49q-168 0 -250 100q-76 92 -76 257q0 183 86.5 287t237.5 104q99 0 192 -43l-35 -75q-80 39 -146 39q-100 0 -156 -77q-59 -83 -59 -222q0 -291 221 -291q84 0 150 45zM896 1452q313 0 523 -212q211 -212 211 -531q0 -318 -211 -531
q-209 -212 -534 -212q-324 0 -533 212q-211 213 -211 529q0 225 110 405q101 167 279 259q157 81 366 81zM895 1368q-295 0 -480 -200q-170 -185 -170 -461q0 -271 170 -457q184 -200 471 -200t470 200q170 185 170 459q0 279 -170 459q-189 200 -461 200z" />
    <glyph glyph-name="ordfeminine" unicode="&#xaa;" horiz-adv-x="737" 
d="M667 809h-98l-1 62q-87 -78 -190 -78q-198 0 -198 209q0 157 80 279q94 144 272 144q81 0 228 -40l-66 -353q-26 -137 -27 -223zM640 1325q-60 19 -108 19q-125 0 -190 -130q-51 -101 -51 -221q0 -119 100 -119q84 0 146 65q38 39 50 103z" />
    <glyph glyph-name="guillemotleft" unicode="&#xab;" horiz-adv-x="813" 
d="M569 535l125 -267l-68 -43l-222 308l4 20l331 308l49 -59zM251 535l126 -267l-68 -43l-222 308l4 20l330 308l50 -59z" />
    <glyph glyph-name="logicalnot" unicode="&#xac;" 
d="M156 654l19 110h853l-96 -541h-128l76 431h-724z" />
    <glyph glyph-name="uni00AD" unicode="&#xad;" horiz-adv-x="707" 
d="M84 587l43 114h549l-43 -114h-549z" />
    <glyph glyph-name="registered" unicode="&#xae;" horiz-adv-x="1252" 
d="M560 735v557h162q113 0 163 -37.5t50 -120.5q0 -120 -121 -147q16 -15 41 -61l101 -191h-86l-69 133q-40 77 -52.5 91t-40.5 14h-72v-238h-76zM636 1031h69q85 0 116.5 21.5t31.5 79.5t-31.5 79.5t-116.5 21.5h-69v-202zM725 1557q220 0 374 -145q163 -155 163 -398
q0 -242 -163 -398q-153 -145 -381 -145q-227 0 -381 145q-163 155 -163 397q0 248 163 399q157 145 388 145zM725 1488q-212 0 -337 -131q-61 -64 -95.5 -155t-34.5 -189q0 -203 130 -342q123 -131 330 -131t330 131q130 139 130 343q0 205 -130 343q-124 131 -323 131z" />
    <glyph glyph-name="macron" unicode="&#xaf;" horiz-adv-x="1024" 
d="M379 1199l19 108h516l-19 -108h-516z" />
    <glyph glyph-name="degree" unicode="&#xb0;" horiz-adv-x="558" 
d="M407 1408q89 0 150 -59q63 -60 63 -149t-61.5 -148.5t-153.5 -59.5q-93 0 -153 59q-63 60 -63 148q0 91 61.5 150t156.5 59zM406 1320q-53 0 -83.5 -32.5t-30.5 -88.5q0 -55 30.5 -87t81.5 -32q52 0 82.5 32.5t30.5 88.5q0 54 -30.5 86.5t-80.5 32.5z" />
    <glyph glyph-name="plusminus" unicode="&#xb1;" 
d="M136 602l28 112h396l77 434h126l-76 -434h406l-30 -112h-396l-70 -400h-127l70 400h-404zM30 0l29 112h904l-30 -112h-903z" />
    <glyph glyph-name="twosuperior" unicode="&#xb2;" horiz-adv-x="737" 
d="M130 762l13 75l337 300q110 98 155 164t45 130q0 118 -145 118q-104 0 -234 -85l-43 76q147 91 284 91q251 0 251 -191q0 -88 -50.5 -166.5t-176.5 -186.5l-283 -242h428l-15 -83h-566z" />
    <glyph glyph-name="threesuperior" unicode="&#xb3;" horiz-adv-x="737" 
d="M386 1173l15 81h34q96 0 163 55t67 135q0 104 -140 104q-55 0 -98 -13.5t-131 -57.5l-35 76q132 77 273 77q118 0 180.5 -44.5t62.5 -128.5q0 -167 -174 -232q141 -43 141 -173q0 -142 -100 -224t-274 -82q-156 0 -256 64l57 83q94 -64 196 -64q119 0 191.5 58t72.5 154
q0 68 -47.5 100t-147.5 32h-50z" />
    <glyph glyph-name="acute" unicode="&#xb4;" horiz-adv-x="1024" 
d="M519 1126l201 256h188l-287 -256h-102z" />
    <glyph glyph-name="mu" unicode="&#xb5;" horiz-adv-x="1136" 
d="M14 -477l257 1462h129l-119 -674q-11 -63 -11 -100q0 -57 22 -86q32 -41 118 -41q166 0 371 174l128 727h129l-174 -985h-103l2 134q-191 -161 -377 -161q-95 0 -157 40l-80 -452z" />
    <glyph glyph-name="paragraph" unicode="&#xb6;" horiz-adv-x="1341" 
d="M433 -376l191 1083h-63q-87 0 -119.5 4.5t-69.5 20.5q-70 32 -110.5 104t-40.5 166q0 110 54.5 208t142.5 147q81 44 197 49q35 1 185 1h368l-314 -1783h-128l295 1671h-165l-295 -1671h-128z" />
    <glyph glyph-name="glyph121" unicode="&#xb7;" horiz-adv-x="573" 
d="M314 736q41 0 70 -29.5t29 -71.5t-29.5 -71.5t-71.5 -29.5t-71.5 29.5t-29.5 72.5q0 42 30 71t73 29z" />
    <glyph glyph-name="cedilla" unicode="&#xb8;" horiz-adv-x="1024" 
d="M414 20h97l-112 -159q204 -14 204 -145q0 -89 -65 -142q-67 -55 -204 -55q-105 0 -201 36l45 76q67 -29 150 -29q64 0 103 33t39 88q0 40 -42.5 56.5t-146.5 16.5l-3 39z" />
    <glyph glyph-name="onesuperior" unicode="&#xb9;" horiz-adv-x="737" 
d="M401 762l132 750l-162 -44l-14 75l213 69h91l-150 -850h-110z" />
    <glyph glyph-name="ordmasculine" unicode="&#xba;" horiz-adv-x="737" 
d="M524 1425q242 0 242 -250q0 -152 -82 -264q-86 -118 -248 -118q-247 0 -247 248q0 155 81 266q87 118 254 118zM521 1344q-118 0 -179 -125q-42 -85 -42 -178q0 -167 136 -167q116 0 177 125q42 84 42 180q0 165 -134 165z" />
    <glyph glyph-name="guillemotright" unicode="&#xbb;" horiz-adv-x="813" 
d="M263 551l-126 267l68 43l222 -308l-4 -20l-331 -308l-49 59zM580 551l-126 267l68 43l222 -308l-3 -20l-331 -308l-50 59z" />
    <glyph glyph-name="onequarter" unicode="&#xbc;" horiz-adv-x="1720" 
d="M329 557l132 749l-162 -45l-14 77l213 69h91l-150 -850h-110zM1268 233h-394l13 75l482 542h117l-94 -534h127l-23 -83h-118l-42 -233h-109zM1284 314l72 406l-360 -406h288zM267 0l967 1407h109l-967 -1407h-109z" />
    <glyph glyph-name="onehalf" unicode="&#xbd;" horiz-adv-x="1720" 
d="M329 557l132 749l-162 -45l-14 77l213 69h91l-150 -850h-110zM890 0l13 76l337 299q109 97 154.5 163.5t45.5 130.5q0 117 -145 117q-104 0 -234 -85l-42 77q82 50 145 70.5t138 20.5q251 0 251 -191q0 -89 -50.5 -168t-176.5 -185l-283 -241h428l-14 -84h-567zM243 0
l967 1407h109l-967 -1407h-109z" />
    <glyph glyph-name="threequarters" unicode="&#xbe;" horiz-adv-x="1720" 
d="M373 967l15 82h34q97 0 163.5 55t66.5 135q0 103 -140 103q-54 0 -99 -14t-130 -57l-35 77q128 77 273 77q118 0 180.5 -44.5t62.5 -128.5q0 -167 -174 -232q141 -43 141 -173q0 -142 -100.5 -224t-273.5 -82q-156 0 -256 64l57 84q92 -65 196 -65q120 0 192 58t72 153
q0 68 -47 100t-148 32h-50zM1330 233h-393l13 75l481 542h118l-95 -534h128l-23 -83h-119l-41 -233h-110zM1347 314l72 406l-360 -406h288zM384 0l967 1407h109l-967 -1407h-109z" />
    <glyph glyph-name="questiondown" unicode="&#xbf;" horiz-adv-x="921" 
d="M473 610h114l-18 -102q-20 -112 -57.5 -163t-196.5 -183q-127 -106 -167 -179q-43 -76 -43 -160q0 -162 214 -162q171 0 350 101l37 -102q-196 -109 -414 -109q-187 0 -268 86q-55 58 -55 150q0 130 75 245q48 73 190 192q151 126 178.5 162.5t44.5 133.5zM579 1016
q42 0 71.5 -29.5t29.5 -72.5q0 -42 -30 -71t-73 -29q-41 0 -70 29.5t-29 71.5t29.5 71.5t71.5 29.5z" />
    <glyph glyph-name="Agrave" unicode="&#xc0;" horiz-adv-x="1292" 
d="M959 463h-627l-269 -463h-145l828 1407h123l332 -1407h-136zM934 574l-152 666l-387 -666h539zM879 1534h-101l-196 256h186z" />
    <glyph glyph-name="Aacute" unicode="&#xc1;" horiz-adv-x="1292" 
d="M959 463h-627l-269 -463h-145l828 1407h123l332 -1407h-136zM934 574l-152 666l-387 -666h539zM729 1534l201 256h187l-287 -256h-101z" />
    <glyph glyph-name="Acircumflex" unicode="&#xc2;" horiz-adv-x="1292" 
d="M959 463h-627l-269 -463h-145l828 1407h123l332 -1407h-136zM934 574l-152 666l-387 -666h539zM841 1692l-217 -158h-125l271 256h167l182 -256h-117z" />
    <glyph glyph-name="Atilde" unicode="&#xc3;" horiz-adv-x="1292" 
d="M959 463h-627l-269 -463h-145l828 1407h123l332 -1407h-136zM934 574l-152 666l-387 -666h539zM1089 1766h83q-78 -226 -231 -226q-75 0 -148 73q-60 62 -99 62q-61 0 -120 -122h-83q82 226 232 226q75 0 147 -72q63 -63 99 -63q61 0 120 122z" />
    <glyph glyph-name="Adieresis" unicode="&#xc4;" horiz-adv-x="1292" 
d="M959 463h-627l-269 -463h-145l828 1407h123l332 -1407h-136zM934 574l-152 666l-387 -666h539zM645 1759q37 0 63.5 -27t26.5 -65q0 -39 -27 -66t-65 -27t-65 27t-27 66t27 65.5t67 26.5zM1023 1759q37 0 63.5 -27t26.5 -65q0 -39 -27 -66t-65 -27t-65 27t-27 66t27 65.5
t67 26.5z" />
    <glyph glyph-name="Aring" unicode="&#xc5;" horiz-adv-x="1292" 
d="M959 463h-627l-269 -463h-145l828 1407h123l332 -1407h-136zM934 574l-152 666l-387 -666h539zM831 1843q83 0 132.5 -48.5t49.5 -128.5q0 -82 -50 -130.5t-134 -48.5q-85 0 -135 48.5t-50 129.5q0 83 50 130.5t137 47.5zM830 1779q-105 0 -105 -114t103 -114
q104 0 104 114t-102 114z" />
    <glyph glyph-name="AE" unicode="&#xc6;" horiz-adv-x="1758" 
d="M844 458h-516l-321 -458h-155l1011 1407h945l-28 -112h-658l-85 -485h555l-28 -110h-547l-103 -588h691l-31 -112h-811zM863 570l128 725h-76l-508 -725h456z" />
    <glyph glyph-name="Ccedilla" unicode="&#xc7;" horiz-adv-x="1101" 
d="M937 178l49 -109q-147 -98 -346 -98q-5 0 -23 1l-78 -111q204 -14 204 -145q0 -89 -65 -142q-67 -55 -204 -55q-105 0 -201 36l45 76q67 -29 150 -29q64 0 103 33t39 88q0 40 -42.5 56.5t-146.5 16.5l-3 39l106 144q-121 17 -208 70q-99 61 -149 178q-49 115 -49 263
q0 243 95 482q183 464 634 464q100 0 192.5 -23.5t155.5 -64.5l-70 -105q-119 82 -281 82q-182 0 -307 -102q-156 -126 -231 -386q-52 -178 -52 -345q0 -410 379 -410q163 0 304 96z" />
    <glyph glyph-name="Egrave" unicode="&#xc8;" horiz-adv-x="1122" 
d="M112 0l248 1407h812l-28 -112h-673l-85 -485h571l-29 -110h-562l-103 -588h707l-31 -112h-827zM895 1534h-100l-196 256h185z" />
    <glyph glyph-name="Eacute" unicode="&#xc9;" horiz-adv-x="1122" 
d="M112 0l248 1407h812l-28 -112h-673l-85 -485h571l-29 -110h-562l-103 -588h707l-31 -112h-827zM695 1534l201 256h188l-287 -256h-102z" />
    <glyph glyph-name="Ecircumflex" unicode="&#xca;" horiz-adv-x="1122" 
d="M112 0l248 1407h812l-28 -112h-673l-85 -485h571l-29 -110h-562l-103 -588h707l-31 -112h-827zM801 1692l-217 -158h-125l271 256h167l182 -256h-116z" />
    <glyph glyph-name="Edieresis" unicode="&#xcb;" horiz-adv-x="1122" 
d="M112 0l248 1407h812l-28 -112h-673l-85 -485h571l-29 -110h-562l-103 -588h707l-31 -112h-827zM599 1759q37 0 63.5 -27t26.5 -65q0 -39 -27 -66t-65 -27t-65 27.5t-27 65.5q0 39 27 65.5t67 26.5zM977 1759q37 0 63.5 -27t26.5 -65q0 -39 -27 -66t-65 -27t-65 27t-27 66
t27 65.5t67 26.5z" />
    <glyph glyph-name="Igrave" unicode="&#xcc;" horiz-adv-x="554" 
d="M125 0l248 1407h131l-248 -1407h-131zM524 1534h-100l-196 256h185z" />
    <glyph glyph-name="Iacute" unicode="&#xcd;" horiz-adv-x="554" 
d="M125 0l248 1407h131l-248 -1407h-131zM379 1534l201 256h187l-286 -256h-102z" />
    <glyph glyph-name="Icircumflex" unicode="&#xce;" horiz-adv-x="554" 
d="M121 0l248 1407h131l-248 -1407h-131zM473 1692l-217 -158h-125l271 256h167l182 -256h-116z" />
    <glyph glyph-name="Idieresis" unicode="&#xcf;" horiz-adv-x="554" 
d="M125 0l248 1407h131l-248 -1407h-131zM278 1759q37 0 63.5 -27t26.5 -65q0 -39 -27 -66t-65 -27t-65 27.5t-27 65.5q0 39 27 65.5t67 26.5zM656 1759q37 0 63.5 -27t26.5 -65q0 -39 -27 -66t-65 -27t-65 27.5t-27 65.5q0 39 27 65.5t67 26.5z" />
    <glyph glyph-name="Eth" unicode="&#xd0;" horiz-adv-x="1314" 
d="M229 665h-164l28 109h156l111 633h323q279 0 415 -96q168 -119 168 -421q0 -268 -106 -496q-110 -237 -306 -326q-151 -68 -375 -68h-367zM360 665l-97 -553h187q222 0 346 62q178 90 268 337q66 182 66 369q0 306 -203 380q-96 35 -297 35h-159l-91 -521h448l-28 -109
h-440z" />
    <glyph glyph-name="Ntilde" unicode="&#xd1;" horiz-adv-x="1443" 
d="M112 0l248 1407h131l579 -1182l209 1182h128l-248 -1407h-116l-592 1199l-211 -1199h-128zM1200 1766h83q-79 -226 -232 -226q-74 0 -147 73q-60 62 -99 62q-61 0 -120 -122h-83q81 226 232 226q75 0 147 -72q63 -63 99 -63q62 0 120 122z" />
    <glyph glyph-name="Ograve" unicode="&#xd2;" horiz-adv-x="1391" 
d="M833 1436q149 0 268 -59q241 -121 241 -487q0 -176 -53 -356q-84 -288 -260 -435q-151 -128 -392 -128q-249 0 -377 126q-138 137 -138 418q0 176 53 357q166 564 658 564zM831 1325q-310 0 -461 -310q-49 -103 -80.5 -251t-31.5 -279q0 -201 103 -306q94 -96 276 -96
q191 0 317 113q138 124 204 374q48 184 48 349q0 198 -101 303q-45 47 -119.5 75t-154.5 28zM991 1534h-100l-197 256h186z" />
    <glyph glyph-name="Oacute" unicode="&#xd3;" horiz-adv-x="1391" 
d="M833 1436q149 0 268 -59q241 -121 241 -487q0 -176 -53 -356q-84 -288 -260 -435q-151 -128 -392 -128q-249 0 -377 126q-138 137 -138 418q0 176 53 357q166 564 658 564zM831 1325q-310 0 -461 -310q-49 -103 -80.5 -251t-31.5 -279q0 -201 103 -306q94 -96 276 -96
q191 0 317 113q138 124 204 374q48 184 48 349q0 198 -101 303q-45 47 -119.5 75t-154.5 28zM799 1534l200 256h188l-287 -256h-101z" />
    <glyph glyph-name="Ocircumflex" unicode="&#xd4;" horiz-adv-x="1391" 
d="M833 1436q149 0 268 -59q241 -121 241 -487q0 -176 -53 -356q-84 -288 -260 -435q-151 -128 -392 -128q-249 0 -377 126q-138 137 -138 418q0 176 53 357q166 564 658 564zM831 1325q-310 0 -461 -310q-49 -103 -80.5 -251t-31.5 -279q0 -201 103 -306q94 -96 276 -96
q191 0 317 113q138 124 204 374q48 184 48 349q0 198 -101 303q-45 47 -119.5 75t-154.5 28zM892 1692l-217 -158h-126l272 256h167l181 -256h-116z" />
    <glyph glyph-name="Otilde" unicode="&#xd5;" horiz-adv-x="1391" 
d="M833 1436q149 0 268 -59q241 -121 241 -487q0 -176 -53 -356q-84 -288 -260 -435q-151 -128 -392 -128q-249 0 -377 126q-138 137 -138 418q0 176 53 357q166 564 658 564zM831 1325q-310 0 -461 -310q-49 -103 -80.5 -251t-31.5 -279q0 -201 103 -306q94 -96 276 -96
q191 0 317 113q138 124 204 374q48 184 48 349q0 198 -101 303q-45 47 -119.5 75t-154.5 28zM1158 1766h84q-79 -226 -232 -226q-75 0 -147 73q-61 62 -99 62q-61 0 -120 -122h-84q82 226 233 226q74 0 146 -72q63 -63 99 -63q62 0 120 122z" />
    <glyph glyph-name="Odieresis" unicode="&#xd6;" horiz-adv-x="1391" 
d="M833 1436q149 0 268 -59q241 -121 241 -487q0 -176 -53 -356q-84 -288 -260 -435q-151 -128 -392 -128q-249 0 -377 126q-138 137 -138 418q0 176 53 357q166 564 658 564zM831 1325q-310 0 -461 -310q-49 -103 -80.5 -251t-31.5 -279q0 -201 103 -306q94 -96 276 -96
q191 0 317 113q138 124 204 374q48 184 48 349q0 198 -101 303q-45 47 -119.5 75t-154.5 28zM714 1759q37 0 63.5 -27t26.5 -65q0 -39 -27 -66t-65 -27t-65 27.5t-27 65.5q0 39 27 65.5t67 26.5zM1092 1759q37 0 63.5 -27t26.5 -65q0 -39 -27 -66t-65 -27t-65 27.5t-27 65.5
q0 39 27 65.5t67 26.5z" />
    <glyph glyph-name="multiply" unicode="&#xd7;" 
d="M522 697l-295 295l86 86l295 -295l298 298l87 -86l-298 -298l295 -295l-86 -87l-296 295l-291 -291l-86 86z" />
    <glyph glyph-name="Oslash" unicode="&#xd8;" horiz-adv-x="1391" 
d="M1275 1206q67 -138 67 -319q0 -174 -53 -353q-84 -287 -260 -435q-152 -128 -394 -128q-276 0 -406 164l-131 -134l-70 66l150 153q-56 130 -56 300q0 156 44.5 321t119.5 286q190 309 538 309q259 0 397 -151l147 150l68 -64zM1172 1101l-851 -872q93 -146 318 -146
q305 0 454 307q48 97 79.5 239.5t31.5 258.5q0 122 -32 213zM283 326l847 866q-102 133 -306 133q-302 0 -453 -308q-50 -103 -80.5 -247t-30.5 -278q0 -68 23 -166z" />
    <glyph glyph-name="Ugrave" unicode="&#xd9;" horiz-adv-x="1332" 
d="M353 1407h131l-149 -847q-29 -164 -29 -243q0 -132 81 -187q70 -48 214 -48q234 0 325 152q52 87 94 326l150 847h131l-167 -946q-22 -126 -46 -194t-67 -124q-128 -172 -435 -172q-224 0 -327 96q-85 80 -85 243q0 80 26 226zM950 1534h-100l-197 256h186z" />
    <glyph glyph-name="Uacute" unicode="&#xda;" horiz-adv-x="1332" 
d="M353 1407h131l-149 -847q-29 -164 -29 -243q0 -132 81 -187q70 -48 214 -48q234 0 325 152q52 87 94 326l150 847h131l-167 -946q-22 -126 -46 -194t-67 -124q-128 -172 -435 -172q-224 0 -327 96q-85 80 -85 243q0 80 26 226zM755 1534l201 256h187l-286 -256h-102z" />
    <glyph glyph-name="Ucircumflex" unicode="&#xdb;" horiz-adv-x="1332" 
d="M353 1407h131l-149 -847q-29 -164 -29 -243q0 -132 81 -187q70 -48 214 -48q234 0 325 152q52 87 94 326l150 847h131l-167 -946q-22 -126 -46 -194t-67 -124q-128 -172 -435 -172q-224 0 -327 96q-85 80 -85 243q0 80 26 226zM869 1692l-217 -158h-125l271 256h167
l182 -256h-116z" />
    <glyph glyph-name="Udieresis" unicode="&#xdc;" horiz-adv-x="1332" 
d="M353 1407h131l-149 -847q-29 -164 -29 -243q0 -132 81 -187q70 -48 214 -48q234 0 325 152q52 87 94 326l150 847h131l-167 -946q-22 -126 -46 -194t-67 -124q-128 -172 -435 -172q-224 0 -327 96q-85 80 -85 243q0 80 26 226zM673 1759q37 0 63.5 -27t26.5 -65
q0 -39 -27 -66t-65 -27t-65 27t-27 66t27 65.5t67 26.5zM1051 1759q37 0 63.5 -27t26.5 -65q0 -39 -27 -66t-65 -27t-65 27t-27 66t27 65.5t67 26.5z" />
    <glyph glyph-name="Yacute" unicode="&#xdd;" horiz-adv-x="1087" 
d="M390 0l98 556l-307 851h135l256 -735l513 735h144l-610 -851l-98 -556h-131zM664 1534l201 256h187l-286 -256h-102z" />
    <glyph glyph-name="Thorn" unicode="&#xde;" horiz-adv-x="1146" 
d="M112 0l248 1407h131l-40 -229h185q232 0 342 -66q72 -43 105 -133q25 -67 25 -146q0 -100 -37 -196.5t-100 -161.5q-73 -75 -182.5 -109t-278.5 -34h-208l-59 -332h-131zM321 443h186q257 0 352 97q51 51 82 129t31 154q0 149 -96 201q-79 43 -259 43h-186z" />
    <glyph glyph-name="germandbls" unicode="&#xdf;" horiz-adv-x="1133" 
d="M422 23l52 113q103 -48 224 -48q129 0 182 82q44 66 44 143q0 78 -48 127q-23 23 -159 107q-117 73 -117 192q0 82 44 144.5t143 119.5q93 55 118 97q29 48 29 109q0 59 -52.5 92t-147.5 33q-188 0 -261 -140q-50 -94 -90 -320l-176 -998q-29 -166 -86 -243
q-76 -101 -220 -101q-82 0 -152 29l48 103q56 -21 108 -21q86 0 126 73q30 52 52 177l186 1055q33 186 63 254q108 243 402 243q160 0 247 -64q82 -60 82 -173q0 -90 -44.5 -152.5t-158.5 -133.5q-74 -45 -100.5 -80.5t-26.5 -87.5q0 -36 19.5 -62.5t68.5 -57.5
q133 -83 173 -126q64 -67 64 -165q0 -73 -23.5 -143t-63.5 -117q-91 -106 -262 -106q-166 0 -287 46z" />
    <glyph glyph-name="agrave" unicode="&#xe0;" horiz-adv-x="1085" 
d="M833 0h-135l9 120q-78 -79 -152.5 -114t-167.5 -35q-152 0 -237 89q-76 81 -76 247q0 122 34.5 245.5t95.5 219.5q152 242 436 242q129 0 339 -62l-104 -592q-40 -229 -42 -360zM835 864q-99 40 -197 40q-225 0 -341 -230q-41 -79 -65 -181.5t-24 -193.5q0 -112 54 -167
q51 -51 140 -51q150 0 261 119q39 42 57.5 82t30.5 107zM784 1126h-100l-196 256h185z" />
    <glyph glyph-name="aacute" unicode="&#xe1;" horiz-adv-x="1085" 
d="M833 0h-135l9 120q-78 -79 -152.5 -114t-167.5 -35q-152 0 -237 89q-76 81 -76 247q0 122 34.5 245.5t95.5 219.5q152 242 436 242q129 0 339 -62l-104 -592q-40 -229 -42 -360zM835 864q-99 40 -197 40q-225 0 -341 -230q-41 -79 -65 -181.5t-24 -193.5q0 -112 54 -167
q51 -51 140 -51q150 0 261 119q39 42 57.5 82t30.5 107zM615 1126l201 256h188l-287 -256h-102z" />
    <glyph glyph-name="acircumflex" unicode="&#xe2;" horiz-adv-x="1085" 
d="M833 0h-135l9 120q-78 -79 -152.5 -114t-167.5 -35q-152 0 -237 89q-76 81 -76 247q0 122 34.5 245.5t95.5 219.5q152 242 436 242q129 0 339 -62l-104 -592q-40 -229 -42 -360zM835 864q-99 40 -197 40q-225 0 -341 -230q-41 -79 -65 -181.5t-24 -193.5q0 -112 54 -167
q51 -51 140 -51q150 0 261 119q39 42 57.5 82t30.5 107zM688 1284l-217 -158h-126l272 256h167l181 -256h-116z" />
    <glyph glyph-name="atilde" unicode="&#xe3;" horiz-adv-x="1085" 
d="M833 0h-135l9 120q-78 -79 -152.5 -114t-167.5 -35q-152 0 -237 89q-76 81 -76 247q0 122 34.5 245.5t95.5 219.5q152 242 436 242q129 0 339 -62l-104 -592q-40 -229 -42 -360zM835 864q-99 40 -197 40q-225 0 -341 -230q-41 -79 -65 -181.5t-24 -193.5q0 -112 54 -167
q51 -51 140 -51q150 0 261 119q39 42 57.5 82t30.5 107zM958 1358h83q-78 -227 -231 -227q-75 0 -147 74q-61 62 -100 62q-60 0 -120 -123h-83q82 227 233 227q74 0 146 -72q63 -64 100 -64q61 0 119 123z" />
    <glyph glyph-name="adieresis" unicode="&#xe4;" horiz-adv-x="1085" 
d="M833 0h-135l9 120q-78 -79 -152.5 -114t-167.5 -35q-152 0 -237 89q-76 81 -76 247q0 122 34.5 245.5t95.5 219.5q152 242 436 242q129 0 339 -62l-104 -592q-40 -229 -42 -360zM835 864q-99 40 -197 40q-225 0 -341 -230q-41 -79 -65 -181.5t-24 -193.5q0 -112 54 -167
q51 -51 140 -51q150 0 261 119q39 42 57.5 82t30.5 107zM520 1349q37 0 63.5 -27t26.5 -65q0 -39 -27 -66t-65 -27t-65 27t-27 66t27 65.5t67 26.5zM840 1349q37 0 63.5 -27t26.5 -65q0 -39 -27 -66t-65 -27t-65 27t-27 66t27 65.5t67 26.5z" />
    <glyph glyph-name="aring" unicode="&#xe5;" horiz-adv-x="1085" 
d="M833 0h-135l9 120q-78 -79 -152.5 -114t-167.5 -35q-152 0 -237 89q-76 81 -76 247q0 122 34.5 245.5t95.5 219.5q152 242 436 242q129 0 339 -62l-104 -592q-40 -229 -42 -360zM835 864q-99 40 -197 40q-225 0 -341 -230q-41 -79 -65 -181.5t-24 -193.5q0 -112 54 -167
q51 -51 140 -51q150 0 261 119q39 42 57.5 82t30.5 107zM716 1461q83 0 132.5 -48.5t49.5 -129.5t-50 -129.5t-134 -48.5q-85 0 -135 48.5t-50 129.5q0 83 50 130.5t137 47.5zM715 1397q-105 0 -105 -115q0 -113 103 -113q104 0 104 114t-102 114z" />
    <glyph glyph-name="ae" unicode="&#xe6;" horiz-adv-x="1559" 
d="M741 173q-133 -202 -436 -202q-153 0 -215 77q-46 58 -46 166q0 140 98 231q111 103 396 128q69 6 189 12l17 95q11 60 11 86q0 139 -189 139q-155 0 -322 -111l-38 99q185 121 377 121q246 0 285 -170q144 170 365 170q132 0 203 -60.5t71 -171.5q0 -102 -61 -168
t-196 -110q-127 -42 -422 -79q-3 -29 -3 -49q0 -120 40 -192q58 -105 232 -105q77 0 137 21.5t134 74.5l51 -103q-159 -101 -337 -101q-138 0 -220 48.5t-121 153.5zM712 484q-260 -17 -351 -46q-183 -59 -183 -224q0 -136 162 -136q155 0 264 86q60 47 76 138zM843 528
q245 27 380 78q83 31 120.5 72.5t37.5 102.5q0 127 -158 127q-141 0 -240.5 -99t-139.5 -281z" />
    <glyph glyph-name="ccedilla" unicode="&#xe7;" horiz-adv-x="909" 
d="M746 184l49 -105q-137 -97 -300 -106l-78 -112q204 -14 204 -145q0 -89 -65 -142q-67 -55 -204 -55q-105 0 -201 36l45 76q67 -29 150 -29q64 0 103 33t39 88q0 40 -42.5 56.5t-146.5 17.5l-3 38l103 140q-318 33 -318 392q0 145 49 281q74 202 221 295q114 71 265 71
q173 0 299 -84l-64 -105q-110 79 -235 79q-197 0 -307 -185q-94 -159 -94 -350q0 -151 79 -226q65 -62 188 -62q71 0 130.5 23t133.5 80z" />
    <glyph glyph-name="egrave" unicode="&#xe8;" horiz-adv-x="951" 
d="M219 425q-3 -29 -3 -49q0 -120 40 -192q58 -105 232 -105q77 0 137 21t134 75l51 -103q-159 -101 -341 -101q-177 0 -269 80q-54 47 -83 124q-33 91 -33 192q0 117 35.5 234.5t97.5 206.5q146 206 405 206q134 0 205 -60t71 -172q0 -102 -60.5 -167.5t-196.5 -110.5
q-127 -42 -422 -79zM234 528q246 27 380 78q83 32 120.5 73t37.5 102q0 127 -158 127q-142 0 -240.5 -98.5t-139.5 -281.5zM709 1126h-100l-196 256h185z" />
    <glyph glyph-name="eacute" unicode="&#xe9;" horiz-adv-x="951" 
d="M219 425q-3 -29 -3 -49q0 -120 40 -192q58 -105 232 -105q77 0 137 21t134 75l51 -103q-159 -101 -341 -101q-177 0 -269 80q-54 47 -83 124q-33 91 -33 192q0 117 35.5 234.5t97.5 206.5q146 206 405 206q134 0 205 -60t71 -172q0 -102 -60.5 -167.5t-196.5 -110.5
q-127 -42 -422 -79zM234 528q246 27 380 78q83 32 120.5 73t37.5 102q0 127 -158 127q-142 0 -240.5 -98.5t-139.5 -281.5zM535 1126l201 256h188l-287 -256h-102z" />
    <glyph glyph-name="ecircumflex" unicode="&#xea;" horiz-adv-x="951" 
d="M219 425q-3 -29 -3 -49q0 -120 40 -192q58 -105 232 -105q77 0 137 21t134 75l51 -103q-159 -101 -341 -101q-177 0 -269 80q-54 47 -83 124q-33 91 -33 192q0 117 35.5 234.5t97.5 206.5q146 206 405 206q134 0 205 -60t71 -172q0 -102 -60.5 -167.5t-196.5 -110.5
q-127 -42 -422 -79zM234 528q246 27 380 78q83 32 120.5 73t37.5 102q0 127 -158 127q-142 0 -240.5 -98.5t-139.5 -281.5zM646 1284l-218 -158h-125l271 256h168l181 -256h-116z" />
    <glyph glyph-name="edieresis" unicode="&#xeb;" horiz-adv-x="951" 
d="M219 425q-3 -29 -3 -49q0 -120 40 -192q58 -105 232 -105q77 0 137 21t134 75l51 -103q-159 -101 -341 -101q-177 0 -269 80q-54 47 -83 124q-33 91 -33 192q0 117 35.5 234.5t97.5 206.5q146 206 405 206q134 0 205 -60t71 -172q0 -102 -60.5 -167.5t-196.5 -110.5
q-127 -42 -422 -79zM234 528q246 27 380 78q83 32 120.5 73t37.5 102q0 127 -158 127q-142 0 -240.5 -98.5t-139.5 -281.5zM473 1349q37 0 63.5 -27t26.5 -65q0 -39 -27 -66t-65 -27t-65 27t-27 66t27 65.5t67 26.5zM793 1349q37 0 63.5 -27t26.5 -65q0 -39 -27 -66t-65 -27
t-65 27t-27 66t27 65.5t67 26.5z" />
    <glyph glyph-name="igrave" unicode="&#xec;" horiz-adv-x="528" 
d="M113 0l174 985h128l-173 -985h-129zM454 1126h-100l-196 256h186z" />
    <glyph glyph-name="iacute" unicode="&#xed;" horiz-adv-x="528" 
d="M113 0l174 985h128l-173 -985h-129zM283 1126l202 256h187l-287 -256h-102z" />
    <glyph glyph-name="icircumflex" unicode="&#xee;" horiz-adv-x="528" 
d="M114 0l173 985h129l-174 -985h-128zM396 1284l-217 -158h-125l271 256h168l181 -256h-116z" />
    <glyph glyph-name="idieresis" unicode="&#xef;" horiz-adv-x="529" 
d="M111 0l174 985h128l-173 -985h-129zM227 1349q37 0 63.5 -27t26.5 -65q0 -39 -27 -66t-65 -27t-65 27t-27 66t27 65.5t67 26.5zM547 1349q37 0 63.5 -27t26.5 -65q0 -39 -27 -66t-65 -27t-65 27t-27 66t27 65.5t67 26.5z" />
    <glyph glyph-name="eth" unicode="&#xf0;" horiz-adv-x="1084" 
d="M828 946q-41 152 -127 249l-225 -87l-34 75l187 73q-90 60 -224 85l36 98q182 -19 316 -128l197 76l33 -75l-165 -64q85 -102 134.5 -257.5t49.5 -323.5q0 -141 -36.5 -271t-100.5 -222q-142 -203 -402 -203q-180 0 -276 90q-108 102 -108 308q0 117 35 234.5t96 203.5
q143 203 393 203q64 0 110 -13.5t111 -50.5zM621 900q-223 0 -331 -217q-73 -146 -73 -314q0 -288 255 -288q217 0 325 217q73 146 73 317q0 285 -249 285z" />
    <glyph glyph-name="ntilde" unicode="&#xf1;" horiz-adv-x="1161" 
d="M101 0l174 985h99l-9 -150q214 179 410 179q118 0 184.5 -53t66.5 -148q0 -72 -26 -218l-105 -595h-128l114 651q14 77 14 122q0 127 -150 127q-89 0 -193.5 -54.5t-199.5 -149.5l-122 -696h-129zM951 1358h83q-80 -227 -231 -227q-75 0 -147 74q-61 62 -100 62
q-61 0 -120 -123h-83q82 227 233 227q74 0 146 -72q63 -64 100 -64q60 0 119 123z" />
    <glyph glyph-name="ograve" unicode="&#xf2;" horiz-adv-x="1083" 
d="M618 1014q192 0 290 -112q92 -103 92 -292q0 -113 -35 -231.5t-95 -204.5q-141 -203 -398 -203q-191 0 -288 100q-101 104 -101 304q0 113 35.5 232t94.5 204q141 203 405 203zM612 904q-218 0 -324 -218q-71 -148 -71 -316q0 -289 259 -289q213 0 318 218q72 148 72 314
q0 291 -254 291zM748 1126h-100l-196 256h185z" />
    <glyph glyph-name="oacute" unicode="&#xf3;" horiz-adv-x="1083" 
d="M618 1014q192 0 290 -112q92 -103 92 -292q0 -113 -35 -231.5t-95 -204.5q-141 -203 -398 -203q-191 0 -288 100q-101 104 -101 304q0 113 35.5 232t94.5 204q141 203 405 203zM612 904q-218 0 -324 -218q-71 -148 -71 -316q0 -289 259 -289q213 0 318 218q72 148 72 314
q0 291 -254 291zM561 1126l201 256h187l-286 -256h-102z" />
    <glyph glyph-name="ocircumflex" unicode="&#xf4;" horiz-adv-x="1083" 
d="M618 1014q192 0 290 -112q92 -103 92 -292q0 -113 -35 -231.5t-95 -204.5q-141 -203 -398 -203q-191 0 -288 100q-101 104 -101 304q0 113 35.5 232t94.5 204q141 203 405 203zM612 904q-218 0 -324 -218q-71 -148 -71 -316q0 -289 259 -289q213 0 318 218q72 148 72 314
q0 291 -254 291zM672 1284l-217 -158h-125l271 256h167l182 -256h-117z" />
    <glyph glyph-name="otilde" unicode="&#xf5;" horiz-adv-x="1083" 
d="M618 1014q192 0 290 -112q92 -103 92 -292q0 -113 -35 -231.5t-95 -204.5q-141 -203 -398 -203q-191 0 -288 100q-101 104 -101 304q0 113 35.5 232t94.5 204q141 203 405 203zM612 904q-218 0 -324 -218q-71 -148 -71 -316q0 -289 259 -289q213 0 318 218q72 148 72 314
q0 291 -254 291zM931 1358h83q-79 -227 -231 -227q-75 0 -147 74q-61 62 -100 62q-60 0 -119 -123h-84q82 227 233 227q74 0 146 -72q63 -64 100 -64q61 0 119 123z" />
    <glyph glyph-name="odieresis" unicode="&#xf6;" horiz-adv-x="1083" 
d="M618 1014q192 0 290 -112q92 -103 92 -292q0 -113 -35 -231.5t-95 -204.5q-141 -203 -398 -203q-191 0 -288 100q-101 104 -101 304q0 113 35.5 232t94.5 204q141 203 405 203zM612 904q-218 0 -324 -218q-71 -148 -71 -316q0 -289 259 -289q213 0 318 218q72 148 72 314
q0 291 -254 291zM499 1349q37 0 63.5 -27t26.5 -65q0 -39 -27 -66t-65 -27t-65 27t-27 66t27 65.5t67 26.5zM819 1349q37 0 63.5 -27t26.5 -65q0 -39 -27 -66t-65 -27t-65 27t-27 66t27 65.5t67 26.5z" />
    <glyph glyph-name="divide" unicode="&#xf7;" 
d="M662 1074q39 0 67 -29t28 -68q0 -40 -28.5 -68.5t-68.5 -28.5q-41 0 -69 28.5t-28 69.5q0 40 28.5 68t70.5 28zM144 642l30 115h903l-30 -115h-903zM564 519q39 0 67 -28.5t28 -68.5t-28.5 -68.5t-68.5 -28.5q-41 0 -69 28.5t-28 69.5q0 40 28.5 68t70.5 28z" />
    <glyph glyph-name="oslash" unicode="&#xf8;" horiz-adv-x="1083" 
d="M953 835q47 -99 47 -226q0 -113 -35.5 -231t-94.5 -204q-141 -203 -398 -203q-191 0 -293 108l-122 -119l-64 63l135 131q-44 98 -44 224q0 112 35 229.5t95 202.5q141 204 397 204q185 0 290 -105l125 123l64 -63zM851 735l-582 -568q71 -88 208 -88q213 0 319 218
q70 146 70 310q0 55 -15 128zM231 255l580 567q-69 83 -203 83q-213 0 -318 -214q-73 -148 -73 -310q0 -59 14 -126z" />
    <glyph glyph-name="ugrave" unicode="&#xf9;" horiz-adv-x="1133" 
d="M759 133q-187 -162 -376 -162q-118 0 -182.5 53.5t-64.5 150.5q0 71 27 225l103 585h129l-110 -627q-17 -93 -17 -147q0 -66 34 -96.5t108 -30.5q83 0 178 45t188 128l128 728h129l-174 -985h-101zM774 1126h-100l-197 256h186z" />
    <glyph glyph-name="uacute" unicode="&#xfa;" horiz-adv-x="1133" 
d="M759 133q-187 -162 -376 -162q-118 0 -182.5 53.5t-64.5 150.5q0 71 27 225l103 585h129l-110 -627q-17 -93 -17 -147q0 -66 34 -96.5t108 -30.5q83 0 178 45t188 128l128 728h129l-174 -985h-101zM589 1126l201 256h187l-286 -256h-102z" />
    <glyph glyph-name="ucircumflex" unicode="&#xfb;" horiz-adv-x="1133" 
d="M759 133q-187 -162 -376 -162q-118 0 -182.5 53.5t-64.5 150.5q0 71 27 225l103 585h129l-110 -627q-17 -93 -17 -147q0 -66 34 -96.5t108 -30.5q83 0 178 45t188 128l128 728h129l-174 -985h-101zM699 1284l-217 -158h-125l271 256h168l181 -256h-116z" />
    <glyph glyph-name="udieresis" unicode="&#xfc;" horiz-adv-x="1133" 
d="M759 133q-187 -162 -376 -162q-118 0 -182.5 53.5t-64.5 150.5q0 71 27 225l103 585h129l-110 -627q-17 -93 -17 -147q0 -66 34 -96.5t108 -30.5q83 0 178 45t188 128l128 728h129l-174 -985h-101zM531 1349q37 0 63.5 -27t26.5 -65q0 -39 -27 -66t-65 -27t-65 27t-27 66
t27 65.5t67 26.5zM851 1349q37 0 63.5 -27t26.5 -65q0 -39 -27 -66t-65 -27t-65 27t-27 66t27 65.5t67 26.5z" />
    <glyph glyph-name="yacute" unicode="&#xfd;" horiz-adv-x="932" 
d="M310 2l-209 983h132l171 -861q26 33 39 49q119 150 160.5 210.5t79.5 139.5q67 139 67 229q0 43 -16.5 75.5t-64.5 81.5l82 89q70 -56 101.5 -109t31.5 -116q0 -135 -101 -314q-46 -82 -87.5 -140t-214.5 -278q-199 -253 -321 -514l-119 49q107 208 269 426zM431 1126
l202 256h187l-287 -256h-102z" />
    <glyph glyph-name="thorn" unicode="&#xfe;" horiz-adv-x="1108" 
d="M30 -476l340 1927l133 26l-108 -609q148 146 324 146q155 0 239 -95q77 -87 77 -257q0 -116 -32.5 -235.5t-89.5 -211.5q-150 -244 -418 -244q-162 0 -247 60l-83 -470zM269 149q84 -68 206 -68q227 0 343 231q83 166 83 345q0 120 -48 180q-53 67 -151 67
q-70 0 -140.5 -31.5t-123.5 -87.5q-40 -42 -59.5 -82.5t-30.5 -106.5z" />
    <glyph glyph-name="ydieresis" unicode="&#xff;" horiz-adv-x="932" 
d="M310 2l-209 983h132l171 -861q26 33 39 49q119 150 160.5 210.5t79.5 139.5q67 139 67 229q0 43 -16.5 75.5t-64.5 81.5l82 89q70 -56 101.5 -109t31.5 -116q0 -135 -101 -314q-46 -82 -87.5 -140t-214.5 -278q-199 -253 -321 -514l-119 49q107 208 269 426zM330 1349
q37 0 63.5 -27t26.5 -65q0 -39 -27 -66t-65 -27t-65 27t-27 66t27 65.5t67 26.5zM649 1349q37 0 63.5 -27t26.5 -65q0 -39 -27 -66t-65 -27t-65 27t-27 66t27 65.5t67 26.5z" />
    <glyph glyph-name="Amacron" unicode="&#x100;" horiz-adv-x="1292" 
d="M959 463h-627l-269 -463h-145l828 1407h123l332 -1407h-136zM934 574l-152 666l-387 -666h539zM494 1612l19 108h633l-20 -108h-632z" />
    <glyph glyph-name="amacron" unicode="&#x101;" horiz-adv-x="1085" 
d="M833 0h-135l9 120q-78 -79 -152.5 -114t-167.5 -35q-152 0 -237 89q-76 81 -76 247q0 122 34.5 245.5t95.5 219.5q152 242 436 242q129 0 339 -62l-104 -592q-40 -229 -42 -360zM835 864q-99 40 -197 40q-225 0 -341 -230q-41 -79 -65 -181.5t-24 -193.5q0 -112 54 -167
q51 -51 140 -51q150 0 261 119q39 42 57.5 82t30.5 107zM429 1199l19 108h517l-19 -108h-517z" />
    <glyph glyph-name="Abreve" unicode="&#x102;" horiz-adv-x="1292" 
d="M959 463h-627l-269 -463h-145l828 1407h123l332 -1407h-136zM934 574l-152 666l-387 -666h539zM574 1781h101q-3 -29 -3 -45q0 -103 158 -103q92 0 135 31.5t66 116.5h101q-21 -111 -60 -163q-69 -93 -247 -93q-258 0 -258 185q0 28 7 71z" />
    <glyph glyph-name="abreve" unicode="&#x103;" horiz-adv-x="1085" 
d="M833 0h-135l9 120q-78 -79 -152.5 -114t-167.5 -35q-152 0 -237 89q-76 81 -76 247q0 122 34.5 245.5t95.5 219.5q152 242 436 242q129 0 339 -62l-104 -592q-40 -229 -42 -360zM835 864q-99 40 -197 40q-225 0 -341 -230q-41 -79 -65 -181.5t-24 -193.5q0 -112 54 -167
q51 -51 140 -51q150 0 261 119q39 42 57.5 82t30.5 107zM419 1372h101q-3 -28 -3 -45q0 -103 158 -103q92 0 135 31.5t66 116.5h102q-22 -111 -61 -163q-69 -93 -246 -93q-259 0 -259 185q0 28 7 71z" />
    <glyph glyph-name="Aogonek" unicode="&#x104;" horiz-adv-x="1292" 
d="M959 463h-627l-269 -463h-145l828 1407h123l332 -1407q-146 -85 -201 -146.5t-55 -139.5q0 -53 38.5 -77t123.5 -24q57 0 115 9l4 -75q-80 -24 -164 -24q-242 0 -242 171q0 94 60 161t215 145h-30zM934 574l-152 666l-387 -666h539z" />
    <glyph glyph-name="aogonek" unicode="&#x105;" horiz-adv-x="1085" 
d="M698 0l9 120q-78 -79 -152.5 -114t-167.5 -35q-152 0 -237 89q-76 81 -76 247q0 122 34.5 245.5t95.5 219.5q152 242 436 242q130 0 339 -62l-104 -592q-41 -233 -41 -326v-10l-1 -24q-145 -85 -200 -146t-55 -140q0 -53 38 -77t124 -24q56 0 115 9l3 -75
q-79 -24 -163 -24q-242 0 -242 171q0 94 60 162t211 144h-26zM835 864q-99 40 -197 40q-225 0 -341 -230q-41 -79 -65 -181.5t-24 -193.5q0 -112 54 -167q51 -51 140 -51q150 0 261 119q39 42 57.5 82t30.5 107z" />
    <glyph glyph-name="Cacute" unicode="&#x106;" horiz-adv-x="1101" 
d="M937 178l49 -109q-147 -98 -355 -98q-247 0 -376 125q-137 133 -137 393q0 244 95 483q183 464 634 464q100 0 192.5 -23.5t155.5 -64.5l-70 -105q-119 82 -281 82q-182 0 -307 -102q-156 -126 -231 -386q-52 -178 -52 -345q0 -410 379 -410q163 0 304 96zM735 1534
l201 256h188l-287 -256h-102z" />
    <glyph glyph-name="cacute" unicode="&#x107;" horiz-adv-x="909" 
d="M746 184l49 -105q-151 -108 -336 -108q-378 0 -378 396q0 145 49 281q74 202 221 295q114 71 265 71q173 0 299 -84l-64 -105q-109 79 -235 79q-197 0 -307 -185q-94 -159 -94 -350q0 -151 79 -226q65 -62 188 -62q130 0 264 103zM527 1126l201 256h187l-287 -256h-101z
" />
    <glyph glyph-name="Ccircumflex" unicode="&#x108;" horiz-adv-x="1101" 
d="M937 178l49 -109q-147 -98 -355 -98q-247 0 -376 125q-137 133 -137 393q0 244 95 483q183 464 634 464q100 0 192.5 -23.5t155.5 -64.5l-70 -105q-119 82 -281 82q-182 0 -307 -102q-156 -126 -231 -386q-52 -178 -52 -345q0 -410 379 -410q163 0 304 96zM869 1692
l-217 -158h-126l272 256h167l182 -256h-117z" />
    <glyph glyph-name="ccircumflex" unicode="&#x109;" horiz-adv-x="909" 
d="M746 184l49 -105q-151 -108 -336 -108q-378 0 -378 396q0 145 49 281q74 202 221 295q114 71 265 71q173 0 299 -84l-64 -105q-109 79 -235 79q-197 0 -307 -185q-94 -159 -94 -350q0 -151 79 -226q65 -62 188 -62q130 0 264 103zM638 1284l-217 -158h-125l271 256h167
l182 -256h-116z" />
    <glyph glyph-name="Cdotaccent" unicode="&#x10a;" horiz-adv-x="1101" 
d="M937 178l49 -109q-147 -98 -355 -98q-247 0 -376 125q-137 133 -137 393q0 244 95 483q183 464 634 464q100 0 192.5 -23.5t155.5 -64.5l-70 -105q-119 82 -281 82q-182 0 -307 -102q-156 -126 -231 -386q-52 -178 -52 -345q0 -410 379 -410q163 0 304 96zM845 1760
q37 0 64 -27.5t27 -66.5t-27 -66.5t-66 -27.5t-66 27.5t-27 67.5q0 39 27.5 66t67.5 27z" />
    <glyph glyph-name="cdotaccent" unicode="&#x10b;" horiz-adv-x="909" 
d="M746 184l49 -105q-151 -108 -336 -108q-378 0 -378 396q0 145 49 281q74 202 221 295q114 71 265 71q173 0 299 -84l-64 -105q-109 79 -235 79q-197 0 -307 -185q-94 -159 -94 -350q0 -151 79 -226q65 -62 188 -62q130 0 264 103zM618 1350q37 0 64 -27.5t27 -66.5
t-27 -66.5t-66 -27.5t-66 27.5t-27 67.5q0 39 27.5 66t67.5 27z" />
    <glyph glyph-name="Ccaron" unicode="&#x10c;" horiz-adv-x="1101" 
d="M937 178l49 -109q-147 -98 -355 -98q-247 0 -376 125q-137 133 -137 393q0 244 95 483q183 464 634 464q100 0 192.5 -23.5t155.5 -64.5l-70 -105q-119 82 -281 82q-182 0 -307 -102q-156 -126 -231 -386q-52 -178 -52 -345q0 -410 379 -410q163 0 304 96zM858 1632
l217 158h125l-271 -256h-167l-182 256h116z" />
    <glyph glyph-name="ccaron" unicode="&#x10d;" horiz-adv-x="909" 
d="M746 184l49 -105q-151 -108 -336 -108q-378 0 -378 396q0 145 49 281q74 202 221 295q114 71 265 71q173 0 299 -84l-64 -105q-109 79 -235 79q-197 0 -307 -185q-94 -159 -94 -350q0 -151 79 -226q65 -62 188 -62q130 0 264 103zM649 1224l217 158h125l-271 -256h-167
l-182 256h116z" />
    <glyph glyph-name="Dcaron" unicode="&#x10e;" horiz-adv-x="1314" 
d="M112 0l248 1407h323q279 0 416 -96q168 -119 168 -421q0 -267 -106 -496q-110 -237 -307 -326q-151 -68 -375 -68h-367zM263 112h187q223 0 346 62q179 91 269 338q66 181 66 368q0 306 -204 380q-96 35 -297 35h-159zM732 1632l216 158h126l-271 -256h-168l-181 256h116
z" />
    <glyph glyph-name="dcaron" unicode="&#x10f;" horiz-adv-x="1231" 
d="M862 955l88 496l133 26l-260 -1477h-98l-1 127q-149 -156 -332 -156q-148 0 -231 84q-86 87 -86 265q0 120 33 239t92 211q156 244 425 244q118 0 237 -59zM841 837q-81 67 -206 67q-222 0 -342 -231q-84 -162 -84 -350q0 -129 60 -189q54 -53 140 -53q69 0 139.5 31.5
t123.5 87.5q40 42 59.5 82.5t31.5 106.5zM1184 1033l128 442h152l-176 -442h-104z" />
    <glyph glyph-name="Dcroat" unicode="&#x110;" horiz-adv-x="1314" 
d="M229 665h-164l28 109h156l111 633h323q279 0 415 -96q168 -119 168 -421q0 -268 -106 -496q-110 -237 -306 -326q-151 -68 -375 -68h-367zM360 665l-97 -553h187q222 0 346 62q178 90 268 337q66 182 66 369q0 306 -203 380q-96 35 -297 35h-159l-91 -521h448l-28 -109
h-440z" />
    <glyph glyph-name="dcroat" unicode="&#x111;" horiz-adv-x="1096" 
d="M862 955l39 220h-279l18 101h279l31 174l133 27l-35 -201h120l-18 -101h-120l-207 -1175h-98l-1 127q-149 -156 -332 -156q-148 0 -231 84q-86 87 -86 265q0 120 33 239t92 211q156 244 425 244q118 0 237 -59zM841 837q-81 67 -206 67q-222 0 -342 -231
q-84 -162 -84 -350q0 -129 60 -189q54 -53 140 -53q69 0 139.5 31.5t123.5 87.5q40 42 59.5 82.5t31.5 106.5z" />
    <glyph glyph-name="Emacron" unicode="&#x112;" horiz-adv-x="1122" 
d="M112 0l248 1407h812l-28 -112h-673l-85 -485h571l-29 -110h-562l-103 -588h707l-31 -112h-827zM456 1612l19 108h633l-19 -108h-633z" />
    <glyph glyph-name="emacron" unicode="&#x113;" horiz-adv-x="951" 
d="M219 425q-3 -29 -3 -49q0 -120 40 -192q58 -105 232 -105q77 0 137 21t134 75l51 -103q-159 -101 -341 -101q-177 0 -269 80q-54 47 -83 124q-33 91 -33 192q0 117 35.5 234.5t97.5 206.5q146 206 405 206q134 0 205 -60t71 -172q0 -102 -60.5 -167.5t-196.5 -110.5
q-127 -42 -422 -79zM234 528q246 27 380 78q83 32 120.5 73t37.5 102q0 127 -158 127q-142 0 -240.5 -98.5t-139.5 -281.5zM326 1199l19 108h517l-19 -108h-517z" />
    <glyph glyph-name="Ebreve" unicode="&#x114;" horiz-adv-x="1122" 
d="M112 0l248 1407h812l-28 -112h-673l-85 -485h571l-29 -110h-562l-103 -588h707l-31 -112h-827zM549 1781h101q-3 -29 -3 -45q0 -103 158 -103q92 0 135 31.5t66 116.5h101q-21 -111 -60 -163q-69 -93 -247 -93q-258 0 -258 185q0 27 7 71z" />
    <glyph glyph-name="ebreve" unicode="&#x115;" horiz-adv-x="951" 
d="M219 425q-3 -29 -3 -49q0 -120 40 -192q58 -105 232 -105q77 0 137 21t134 75l51 -103q-159 -101 -341 -101q-177 0 -269 80q-54 47 -83 124q-33 91 -33 192q0 117 35.5 234.5t97.5 206.5q146 206 405 206q134 0 205 -60t71 -172q0 -102 -60.5 -167.5t-196.5 -110.5
q-127 -42 -422 -79zM234 528q246 27 380 78q83 32 120.5 73t37.5 102q0 127 -158 127q-142 0 -240.5 -98.5t-139.5 -281.5zM369 1372h101q-2 -28 -2 -46q0 -102 158 -102q92 0 134.5 31.5t66.5 116.5h101q-22 -111 -60 -163q-70 -93 -247 -93q-258 0 -258 185q0 27 6 71z
" />
    <glyph glyph-name="Edotaccent" unicode="&#x116;" horiz-adv-x="1122" 
d="M112 0l248 1407h812l-28 -112h-673l-85 -485h571l-29 -110h-562l-103 -588h707l-31 -112h-827zM804 1760q37 0 64 -27.5t27 -66.5t-27.5 -66.5t-65.5 -27.5q-39 0 -66 27.5t-27 67.5q0 39 27.5 66t67.5 27z" />
    <glyph glyph-name="edotaccent" unicode="&#x117;" horiz-adv-x="951" 
d="M219 425q-3 -29 -3 -49q0 -120 40 -192q58 -105 232 -105q77 0 137 21t134 75l51 -103q-159 -101 -341 -101q-177 0 -269 80q-54 47 -83 124q-33 91 -33 192q0 117 35.5 234.5t97.5 206.5q146 206 405 206q134 0 205 -60t71 -172q0 -102 -60.5 -167.5t-196.5 -110.5
q-127 -42 -422 -79zM234 528q246 27 380 78q83 32 120.5 73t37.5 102q0 127 -158 127q-142 0 -240.5 -98.5t-139.5 -281.5zM612 1350q37 0 64 -27.5t27 -66.5t-27 -66.5t-66 -27.5t-66 27.5t-27 67.5q0 39 27.5 66t67.5 27z" />
    <glyph glyph-name="Eogonek" unicode="&#x118;" horiz-adv-x="1122" 
d="M112 0l248 1407h812l-28 -112h-673l-85 -485h571l-29 -110h-562l-103 -588h707l-31 -112q-144 -83 -200 -145.5t-56 -140.5q0 -53 38.5 -77t123.5 -24q56 0 115 9l4 -75q-80 -24 -164 -24q-123 0 -182.5 42t-59.5 130q0 93 57 159t207 146h-710z" />
    <glyph glyph-name="eogonek" unicode="&#x119;" horiz-adv-x="951" 
d="M219 425q-3 -29 -3 -49q0 -120 40 -192q58 -105 232 -105q77 0 137 21t134 75l51 -103q-55 -33 -98 -58q-136 -80 -188 -138q-66 -72 -66 -161q0 -54 38 -78t124 -24q56 0 115 9l4 -75q-80 -24 -164 -24q-123 0 -182.5 42t-59.5 130q0 82 42.5 147t140.5 131
q-37 -2 -55 -2q-169 0 -261 80q-54 47 -83 124q-33 91 -33 192q0 117 35.5 234.5t97.5 206.5q146 206 405 206q134 0 205 -60t71 -172q0 -102 -60.5 -167.5t-196.5 -110.5q-129 -42 -422 -79zM234 528q289 34 413.5 92.5t124.5 160.5q0 127 -158 127q-142 0 -240.5 -98.5
t-139.5 -281.5z" />
    <glyph glyph-name="Ecaron" unicode="&#x11a;" horiz-adv-x="1122" 
d="M112 0l248 1407h812l-28 -112h-673l-85 -485h571l-29 -110h-562l-103 -588h707l-31 -112h-827zM809 1632l217 158h126l-271 -256h-168l-181 256h116z" />
    <glyph glyph-name="ecaron" unicode="&#x11b;" horiz-adv-x="951" 
d="M219 425q-3 -29 -3 -49q0 -120 40 -192q58 -105 232 -105q77 0 137 21t134 75l51 -103q-159 -101 -341 -101q-177 0 -269 80q-54 47 -83 124q-33 91 -33 192q0 117 35.5 234.5t97.5 206.5q146 206 405 206q134 0 205 -60t71 -172q0 -102 -60.5 -167.5t-196.5 -110.5
q-127 -42 -422 -79zM234 528q246 27 380 78q83 32 120.5 73t37.5 102q0 127 -158 127q-142 0 -240.5 -98.5t-139.5 -281.5zM620 1224l217 158h126l-272 -256h-167l-181 256h116z" />
    <glyph glyph-name="Gcircumflex" unicode="&#x11c;" horiz-adv-x="1285" 
d="M951 138l77 437h-318l37 109h431l-113 -641q-172 -72 -386 -72q-276 0 -410 116q-77 68 -114 180q-36 108 -36 227q0 264 103 508q90 212 252 323t381 111q212 0 381 -99l-66 -107q-148 95 -314 95q-189 0 -315 -95q-161 -122 -239 -396q-47 -166 -47 -328
q0 -232 114 -336q96 -88 299 -88q174 0 283 56zM877 1692l-217 -158h-125l271 256h167l182 -256h-117z" />
    <glyph glyph-name="gcircumflex" unicode="&#x11d;" horiz-adv-x="1084" 
d="M701 116q-78 -78 -150.5 -111.5t-163.5 -33.5q-151 0 -234 87q-79 84 -79 251q0 119 34.5 242t94.5 219q152 244 434 244q79 0 146.5 -12.5t193.5 -49.5l-133 -754q-51 -293 -92 -404q-96 -262 -415 -262q-172 0 -310 61l60 106q98 -58 241 -58q131 0 204 53
q81 60 120 195q23 82 44 196zM833 864q-108 40 -196 40q-224 0 -341 -230q-40 -79 -64.5 -182t-24.5 -194q0 -104 50.5 -160.5t142.5 -56.5q150 0 261 119q39 42 58 82t31 107zM693 1284l-217 -158h-125l271 256h167l182 -256h-116z" />
    <glyph glyph-name="Gbreve" unicode="&#x11e;" horiz-adv-x="1285" 
d="M951 138l77 437h-318l37 109h431l-113 -641q-172 -72 -386 -72q-276 0 -410 116q-77 68 -114 180q-36 108 -36 227q0 264 103 508q90 212 252 323t381 111q212 0 381 -99l-66 -107q-148 95 -314 95q-189 0 -315 -95q-161 -122 -239 -396q-47 -166 -47 -328
q0 -232 114 -336q96 -88 299 -88q174 0 283 56zM591 1781h101q-3 -28 -3 -45q0 -103 158 -103q92 0 135 31.5t66 116.5h101q-21 -112 -60 -163q-69 -93 -247 -93q-258 0 -258 186q0 30 7 70z" />
    <glyph glyph-name="gbreve" unicode="&#x11f;" horiz-adv-x="1084" 
d="M701 116q-78 -78 -150.5 -111.5t-163.5 -33.5q-151 0 -234 87q-79 84 -79 251q0 119 34.5 242t94.5 219q152 244 434 244q79 0 146.5 -12.5t193.5 -49.5l-133 -754q-51 -293 -92 -404q-96 -262 -415 -262q-172 0 -310 61l60 106q98 -58 241 -58q131 0 204 53
q81 60 120 195q23 82 44 196zM833 864q-108 40 -196 40q-224 0 -341 -230q-40 -79 -64.5 -182t-24.5 -194q0 -104 50.5 -160.5t142.5 -56.5q150 0 261 119q39 42 58 82t31 107zM434 1372h101q-3 -28 -3 -45q0 -103 158 -103q92 0 135 31.5t66 116.5h101q-21 -111 -60 -163
q-69 -93 -246 -93q-259 0 -259 185q0 29 7 71z" />
    <glyph glyph-name="Gdotaccent" unicode="&#x120;" horiz-adv-x="1285" 
d="M951 138l77 437h-318l37 109h431l-113 -641q-172 -72 -386 -72q-276 0 -410 116q-77 68 -114 180q-36 108 -36 227q0 264 103 508q90 212 252 323t381 111q212 0 381 -99l-66 -107q-148 95 -314 95q-189 0 -315 -95q-161 -122 -239 -396q-47 -166 -47 -328
q0 -232 114 -336q96 -88 299 -88q174 0 283 56zM865 1760q37 0 64 -27.5t27 -66.5t-27 -66.5t-66 -27.5t-66 27.5t-27 67.5q0 39 27.5 66t67.5 27z" />
    <glyph glyph-name="gdotaccent" unicode="&#x121;" horiz-adv-x="1084" 
d="M701 116q-78 -78 -150.5 -111.5t-163.5 -33.5q-151 0 -234 87q-79 84 -79 251q0 119 34.5 242t94.5 219q152 244 434 244q79 0 146.5 -12.5t193.5 -49.5l-133 -754q-51 -293 -92 -404q-96 -262 -415 -262q-172 0 -310 61l60 106q98 -58 241 -58q131 0 204 53
q81 60 120 195q23 82 44 196zM833 864q-108 40 -196 40q-224 0 -341 -230q-40 -79 -64.5 -182t-24.5 -194q0 -104 50.5 -160.5t142.5 -56.5q150 0 261 119q39 42 58 82t31 107zM694 1350q37 0 64 -27.5t27 -66.5t-27 -66.5t-66 -27.5t-66 27.5t-27 67.5q0 39 27.5 66
t67.5 27z" />
    <glyph glyph-name="Gcommaaccent" unicode="&#x122;" horiz-adv-x="1285" 
d="M951 138l77 437h-318l37 109h431l-113 -641q-172 -72 -386 -72q-276 0 -410 116q-77 68 -114 180q-36 108 -36 227q0 264 103 508q90 212 252 323t381 111q212 0 381 -99l-66 -107q-148 95 -314 95q-189 0 -315 -95q-161 -122 -239 -396q-47 -166 -47 -328
q0 -232 114 -336q96 -88 299 -88q174 0 283 56zM414 -498l136 372h143l-175 -372h-104z" />
    <glyph glyph-name="gcommaaccent" unicode="&#x123;" horiz-adv-x="1084" 
d="M701 116q-78 -78 -150.5 -111.5t-163.5 -33.5q-151 0 -234 87q-79 84 -79 251q0 119 34.5 242t94.5 219q152 244 434 244q79 0 146.5 -12.5t193.5 -49.5l-133 -754q-51 -293 -92 -404q-96 -262 -415 -262q-172 0 -310 61l60 106q98 -58 241 -58q131 0 204 53
q81 60 120 195q23 82 44 196zM833 864q-108 40 -196 40q-224 0 -341 -230q-40 -79 -64.5 -182t-24.5 -194q0 -104 50.5 -160.5t142.5 -56.5q150 0 261 119q39 42 58 82t31 107zM988 1383l-210 -257h-187l295 257h102z" />
    <glyph glyph-name="Hcircumflex" unicode="&#x124;" horiz-adv-x="1404" 
d="M112 0l248 1407h131l-108 -614h745l109 614h131l-248 -1407h-131l119 677h-745l-120 -677h-131zM906 1692l-217 -158h-125l271 256h167l182 -256h-116z" />
    <glyph glyph-name="hcircumflex" unicode="&#x125;" horiz-adv-x="1161" 
d="M101 0l256 1451l133 26l-113 -645q120 101 208 141.5t188 40.5q125 0 196 -59q59 -48 59 -135q0 -69 -24 -207l-109 -613h-128l116 662q11 60 11 109q0 59 -25 88q-36 42 -124 42q-110 0 -241 -84q-82 -52 -152 -121l-122 -696h-129zM527 1692l-217 -158h-125l271 256
h168l181 -256h-116z" />
    <glyph glyph-name="Hbar" unicode="&#x126;" horiz-adv-x="1404" 
d="M112 0l180 1022h-154l17 102h155l50 283h131l-50 -283h746l50 283h131l-50 -283h154l-17 -102h-155l-180 -1022h-131l118 674h-745l-119 -674h-131zM423 1022l-41 -236h745l42 236h-746z" />
    <glyph glyph-name="hbar" unicode="&#x127;" horiz-adv-x="1161" 
d="M101 0l207 1175h-118l18 101h118l31 174l133 27l-35 -201h275l-17 -101h-276l-60 -343q120 101 208 141.5t188 40.5q125 0 196 -59q59 -48 59 -135q0 -69 -24 -207l-109 -613h-128l116 662q11 60 11 109q0 59 -25 88q-36 42 -124 42q-110 0 -241 -84q-82 -52 -152 -121
l-122 -696h-129z" />
    <glyph glyph-name="Itilde" unicode="&#x128;" horiz-adv-x="554" 
d="M125 0l248 1407h131l-248 -1407h-131zM740 1766h84q-81 -226 -232 -226q-74 0 -147 73q-61 62 -99 62q-60 0 -120 -122h-84q82 226 233 226q74 0 146 -72q63 -63 100 -63q62 0 119 122z" />
    <glyph glyph-name="itilde" unicode="&#x129;" horiz-adv-x="528" 
d="M114 0l173 985h129l-174 -985h-128zM656 1358h83q-79 -227 -232 -227q-74 0 -146 74q-61 62 -100 62q-61 0 -120 -123h-83q82 227 233 227q74 0 146 -72q63 -64 100 -64q61 0 119 123z" />
    <glyph glyph-name="Imacron" unicode="&#x12a;" horiz-adv-x="554" 
d="M125 0l248 1407h131l-248 -1407h-131zM146 1612l19 108h633l-19 -108h-633z" />
    <glyph glyph-name="imacron" unicode="&#x12b;" horiz-adv-x="528" 
d="M111 0l174 985h128l-173 -985h-129zM116 1199l20 108h516l-19 -108h-517z" />
    <glyph glyph-name="Ibreve" unicode="&#x12c;" horiz-adv-x="554" 
d="M125 0l248 1407h131l-248 -1407h-131zM224 1781h101q-3 -29 -3 -46q0 -102 158 -102q92 0 135 31.5t66 116.5h102q-23 -112 -61 -163q-69 -93 -246 -93q-259 0 -259 186q0 29 7 70z" />
    <glyph glyph-name="ibreve" unicode="&#x12d;" horiz-adv-x="528" 
d="M113 0l174 985h129l-174 -985h-129zM116 1372h101q-3 -31 -3 -46q0 -102 158 -102q92 0 134.5 31t66.5 117h101q-21 -111 -60 -163q-69 -93 -247 -93q-258 0 -258 185q0 28 7 71z" />
    <glyph glyph-name="Iogonek" unicode="&#x12e;" horiz-adv-x="554" 
d="M125 0l248 1407h131l-248 -1407q-146 -84 -201 -146t-55 -140q0 -53 38.5 -77t123.5 -24q56 0 115 9l4 -75q-81 -24 -164 -24q-123 0 -182.5 42t-59.5 130q0 92 65 164.5t210 140.5h-25z" />
    <glyph glyph-name="iogonek" unicode="&#x12f;" horiz-adv-x="528" 
d="M113 0l174 985h128l-173 -985q-144 -83 -200 -145.5t-56 -140.5q0 -53 38.5 -77t123.5 -24q56 0 115 9l4 -75q-81 -24 -164 -24q-123 0 -182.5 42t-59.5 129q0 93 63.5 164t211.5 142h-23zM401 1350q37 0 64 -27.5t27 -66.5t-27 -66.5t-66 -27.5t-66 27.5t-27 67.5
q0 39 27.5 66t67.5 27z" />
    <glyph glyph-name="Idotaccent" unicode="&#x130;" horiz-adv-x="554" 
d="M125 0l248 1407h131l-248 -1407h-131zM474 1760q37 0 64 -27.5t27 -66.5t-27 -66.5t-66 -27.5t-66 27.5t-27 67.5q0 39 27.5 66t67.5 27z" />
    <glyph glyph-name="dotlessi" unicode="&#x131;" horiz-adv-x="528" 
d="M113 0l174 985h128l-173 -985h-129z" />
    <glyph glyph-name="IJ" unicode="&#x132;" horiz-adv-x="1086" 
d="M125 0l248 1407h131l-248 -1407h-131zM915 1407h131l-176 -998q-37 -215 -68.5 -317t-86.5 -188q-80 -126 -273 -258l-59 61q163 128 234 268q70 139 130 475z" />
    <glyph glyph-name="ij" unicode="&#x133;" horiz-adv-x="1064" 
d="M113 0l174 985h128l-173 -985h-129zM401 1350q37 0 64 -27.5t27 -66.5t-27 -66.5t-66 -27.5t-66 27.5t-27 67.5q0 39 27.5 66t67.5 27zM822 985h129l-170 -963q-33 -187 -90.5 -285t-194.5 -203l-50 53q106 120 143 209q40 94 84 339zM937 1350q37 0 64 -27.5t27 -66.5
t-27 -66.5t-66 -27.5t-66 27.5t-27 67.5q0 39 27.5 66t67.5 27z" />
    <glyph glyph-name="Jcircumflex" unicode="&#x134;" horiz-adv-x="532" 
d="M361 1407h131l-176 -998q-38 -214 -69.5 -316.5t-85.5 -188.5q-81 -126 -273 -258l-60 61q164 129 234 268q39 76 68 182.5t62 292.5zM454 1692l-217 -158h-126l272 256h167l182 -256h-117z" />
    <glyph glyph-name="jcircumflex" unicode="&#x135;" horiz-adv-x="536" 
d="M294 985h128l-169 -963q-33 -187 -90.5 -285t-195.5 -203l-50 53q106 120 144 209q40 94 83 339zM392 1284l-217 -158h-125l271 256h167l182 -256h-116z" />
    <glyph glyph-name="Kcommaaccent" unicode="&#x136;" horiz-adv-x="1182" 
d="M112 0l248 1407h131l-106 -603l744 603h176l-793 -637l584 -770h-156l-563 757l-134 -757h-131zM339 -498l136 372h143l-175 -372h-104z" />
    <glyph glyph-name="kcommaaccent" unicode="&#x137;" horiz-adv-x="1025" 
d="M103 0l256 1450l133 27l-146 -829q32 13 122 48q183 71 278 138.5t127 150.5h121q-22 -77 -71 -134t-138 -109q-127 -75 -294 -143l456 -599h-150l-410 557l-61 -23l-94 -534h-129zM267 -499l136 373h143l-175 -373h-104z" />
    <glyph glyph-name="kgreenlandic" unicode="&#x138;" horiz-adv-x="1030" 
d="M101 0l174 985h128l-70 -400l520 400h173l-580 -441l452 -544h-153l-423 522l-92 -522h-129z" />
    <glyph glyph-name="Lacute" unicode="&#x139;" horiz-adv-x="1003" 
d="M112 0l248 1407h131l-228 -1295h649l-30 -112h-770zM413 1534l201 256h187l-286 -256h-102z" />
    <glyph glyph-name="lacute" unicode="&#x13a;" horiz-adv-x="524" 
d="M111 0l256 1451l133 26l-260 -1477h-129zM374 1578l201 256h187l-286 -256h-102z" />
    <glyph glyph-name="Lcommaaccent" unicode="&#x13b;" horiz-adv-x="1003" 
d="M112 0l248 1407h131l-228 -1295h649l-30 -112h-770zM298 -498l135 372h143l-174 -372h-104z" />
    <glyph glyph-name="lcommaaccent" unicode="&#x13c;" horiz-adv-x="524" 
d="M111 0l256 1451l133 26l-260 -1477h-129zM-52 -498l136 372h143l-175 -372h-104z" />
    <glyph glyph-name="Lcaron" unicode="&#x13d;" horiz-adv-x="1003" 
d="M112 0l248 1407h131l-228 -1295h649l-30 -112h-770zM631 1033l129 442h152l-177 -442h-104z" />
    <glyph glyph-name="lcaron" unicode="&#x13e;" horiz-adv-x="659" 
d="M111 0l256 1451l133 26l-260 -1477h-129zM612 1033l129 442h152l-177 -442h-104z" />
    <glyph glyph-name="Ldot" unicode="&#x13f;" horiz-adv-x="1003" 
d="M112 0l248 1407h131l-228 -1295h649l-30 -112h-770zM800 739q41 0 70 -29.5t29 -71.5t-29.5 -71.5t-71.5 -29.5t-71.5 29.5t-29.5 72.5q0 42 30 71t73 29z" />
    <glyph glyph-name="ldot" unicode="&#x140;" horiz-adv-x="779" 
d="M111 0l256 1451l133 26l-260 -1477h-129zM679 736q41 0 70 -29.5t29 -71.5t-29.5 -71.5t-71.5 -29.5q-43 0 -72 29.5t-29 72.5q0 42 30 71t73 29z" />
    <glyph glyph-name="Lslash" unicode="&#x141;" horiz-adv-x="1005" 
d="M114 0l80 452l-223 -138l23 132l223 138l145 823h131l-130 -737l511 317l-23 -131l-511 -317l-75 -427h649l-30 -112h-770z" />
    <glyph glyph-name="lslash" unicode="&#x142;" horiz-adv-x="539" 
d="M119 0l114 645l-210 -130l23 128l209 130l120 678l133 26l-109 -619l208 129l-22 -128l-209 -128l-128 -731h-129z" />
    <glyph glyph-name="Nacute" unicode="&#x143;" horiz-adv-x="1443" 
d="M112 0l248 1407h131l579 -1182l209 1182h128l-248 -1407h-116l-592 1199l-211 -1199h-128zM821 1534l201 256h188l-287 -256h-102z" />
    <glyph glyph-name="nacute" unicode="&#x144;" horiz-adv-x="1161" 
d="M101 0l174 985h99l-9 -150q214 179 410 179q118 0 184.5 -53t66.5 -148q0 -72 -26 -218l-105 -595h-128l114 651q14 77 14 122q0 127 -150 127q-89 0 -193.5 -54.5t-199.5 -149.5l-122 -696h-129zM586 1126l201 256h188l-287 -256h-102z" />
    <glyph glyph-name="Ncommaaccent" unicode="&#x145;" horiz-adv-x="1443" 
d="M112 0l248 1407h131l579 -1182l209 1182h128l-248 -1407h-116l-592 1199l-211 -1199h-128zM454 -498l136 372h143l-175 -372h-104z" />
    <glyph glyph-name="ncommaaccent" unicode="&#x146;" horiz-adv-x="1161" 
d="M101 0l174 985h99l-9 -150q214 179 410 179q118 0 184.5 -53t66.5 -148q0 -72 -26 -218l-105 -595h-128l114 651q14 77 14 122q0 127 -150 127q-89 0 -193.5 -54.5t-199.5 -149.5l-122 -696h-129zM291 -498l136 372h143l-175 -372h-104z" />
    <glyph glyph-name="Ncaron" unicode="&#x147;" horiz-adv-x="1443" 
d="M112 0l248 1407h131l579 -1182l209 1182h128l-248 -1407h-116l-592 1199l-211 -1199h-128zM922 1632l216 158h126l-271 -256h-168l-181 256h116z" />
    <glyph glyph-name="ncaron" unicode="&#x148;" horiz-adv-x="1161" 
d="M101 0l174 985h99l-9 -150q214 179 410 179q118 0 184.5 -53t66.5 -148q0 -72 -26 -218l-105 -595h-128l114 651q14 77 14 122q0 127 -150 127q-89 0 -193.5 -54.5t-199.5 -149.5l-122 -696h-129zM672 1224l217 158h125l-271 -256h-168l-181 256h116z" />
    <glyph glyph-name="napostrophe" unicode="&#x149;" horiz-adv-x="1161" 
d="M90 1039l121 420h145l-169 -420h-97zM101 0l173 985h100l-9 -150q214 179 409 179q119 0 185.5 -53t66.5 -148q0 -71 -26 -218l-105 -595h-128l114 651q14 78 14 122q0 127 -151 127q-108 0 -240 -84q-87 -55 -152 -120l-123 -696h-128z" />
    <glyph glyph-name="Eng" unicode="&#x14a;" horiz-adv-x="1443" 
d="M112 0l248 1407h135l575 -1182l209 1182h128l-244 -1379q-33 -189 -90.5 -288t-195.5 -205l-50 52q97 110 137 193.5t68 234.5l-581 1184l-211 -1199h-128z" />
    <glyph glyph-name="eng" unicode="&#x14b;" horiz-adv-x="1161" 
d="M101 0l174 985h99l-9 -150q214 179 410 179q118 0 184.5 -53t66.5 -148q0 -72 -26 -218l-101 -573q-33 -187 -90 -285t-195 -202l-50 52q106 121 143 209q40 94 83 339l91 516q14 77 14 122q0 127 -150 127q-89 0 -193.5 -54.5t-199.5 -149.5l-122 -696h-129z" />
    <glyph glyph-name="Omacron" unicode="&#x14c;" horiz-adv-x="1391" 
d="M833 1436q149 0 268 -59q241 -121 241 -487q0 -176 -53 -356q-84 -288 -260 -435q-151 -128 -392 -128q-249 0 -377 126q-138 137 -138 418q0 176 53 357q166 564 658 564zM831 1325q-310 0 -461 -310q-49 -103 -80.5 -251t-31.5 -279q0 -201 103 -306q94 -96 276 -96
q191 0 317 113q138 124 204 374q48 184 48 349q0 198 -101 303q-45 47 -119.5 75t-154.5 28zM563 1612l19 108h632l-19 -108h-632z" />
    <glyph glyph-name="omacron" unicode="&#x14d;" horiz-adv-x="1083" 
d="M618 1014q192 0 290 -112q92 -103 92 -292q0 -113 -35 -231.5t-95 -204.5q-141 -203 -398 -203q-191 0 -288 100q-101 104 -101 304q0 113 35.5 232t94.5 204q141 203 405 203zM612 904q-218 0 -324 -218q-71 -148 -71 -316q0 -289 259 -289q213 0 318 218q72 148 72 314
q0 291 -254 291zM396 1199l19 108h516l-19 -108h-516z" />
    <glyph glyph-name="Obreve" unicode="&#x14e;" horiz-adv-x="1391" 
d="M833 1436q149 0 268 -59q241 -121 241 -487q0 -176 -53 -356q-84 -288 -260 -435q-151 -128 -392 -128q-249 0 -377 126q-138 137 -138 418q0 176 53 357q166 564 658 564zM831 1325q-310 0 -461 -310q-49 -103 -80.5 -251t-31.5 -279q0 -201 103 -306q94 -96 276 -96
q191 0 317 113q138 124 204 374q48 184 48 349q0 198 -101 303q-45 47 -119.5 75t-154.5 28zM624 1781h101q-3 -31 -3 -46q0 -102 158 -102q92 0 135 31.5t66 116.5h101q-21 -111 -60 -163q-69 -93 -247 -93q-258 0 -258 185q0 28 7 71z" />
    <glyph glyph-name="obreve" unicode="&#x14f;" horiz-adv-x="1083" 
d="M618 1014q192 0 290 -112q92 -103 92 -292q0 -113 -35 -231.5t-95 -204.5q-141 -203 -398 -203q-191 0 -288 100q-101 104 -101 304q0 113 35.5 232t94.5 204q141 203 405 203zM612 904q-218 0 -324 -218q-71 -148 -71 -316q0 -289 259 -289q213 0 318 218q72 148 72 314
q0 291 -254 291zM398 1372h101q-3 -28 -3 -45q0 -103 158 -103q92 0 135 31.5t66 116.5h102q-22 -111 -61 -163q-69 -93 -246 -93q-259 0 -259 185q0 28 7 71z" />
    <glyph glyph-name="Ohungarumlaut" unicode="&#x150;" horiz-adv-x="1391" 
d="M833 1436q149 0 268 -59q241 -121 241 -487q0 -176 -53 -356q-84 -288 -260 -435q-151 -128 -392 -128q-249 0 -377 126q-138 137 -138 418q0 176 53 357q166 564 658 564zM831 1325q-310 0 -461 -310q-49 -103 -80.5 -251t-31.5 -279q0 -201 103 -306q94 -96 276 -96
q191 0 317 113q138 124 204 374q48 184 48 349q0 198 -101 303q-45 47 -119.5 75t-154.5 28zM702 1534l153 256h187l-246 -256h-94zM974 1534l152 256h187l-245 -256h-94z" />
    <glyph glyph-name="ohungarumlaut" unicode="&#x151;" horiz-adv-x="1083" 
d="M618 1014q192 0 290 -112q92 -103 92 -292q0 -113 -35 -231.5t-95 -204.5q-141 -203 -398 -203q-191 0 -288 100q-101 104 -101 304q0 113 35.5 232t94.5 204q141 203 405 203zM612 904q-218 0 -324 -218q-71 -148 -71 -316q0 -289 259 -289q213 0 318 218q72 148 72 314
q0 291 -254 291zM469 1126l152 256h188l-246 -256h-94zM741 1126l152 256h187l-246 -256h-93z" />
    <glyph glyph-name="OE" unicode="&#x152;" horiz-adv-x="1843" 
d="M1659 0h-830q-225 0 -321 12.5t-169 51.5q-216 115 -216 449q0 274 114 511q135 280 388 351q69 19 151.5 25.5t257.5 6.5h859l-28 -112h-682l-85 -485h580l-29 -110h-571l-104 -588h716zM844 113l208 1180h-95q-158 0 -212 -6t-115 -30q-186 -71 -285 -313
q-38 -92 -62 -219t-24 -236q0 -125 46.5 -214.5t130.5 -126.5q54 -24 104 -29.5t209 -5.5h95z" />
    <glyph glyph-name="oe" unicode="&#x153;" horiz-adv-x="1660" 
d="M832 207q-135 -236 -382 -236q-180 0 -271 100q-96 104 -96 304q0 114 33.5 231.5t91.5 203.5q135 204 380 204q266 0 331 -240q149 240 412 240q133 0 204.5 -60t71.5 -172q0 -102 -61 -168t-196 -110q-127 -42 -422 -79q-3 -32 -3 -51q0 -117 40 -190q58 -105 232 -105
q77 0 136.5 21t134.5 75l51 -103q-159 -101 -339 -101q-145 0 -227 55.5t-121 180.5zM590 904q-205 0 -305 -218q-68 -147 -68 -316q0 -289 239 -289q201 0 300 218q68 148 68 315q0 290 -234 290zM943 528q245 27 380 78q82 31 119.5 72.5t37.5 102.5q0 127 -157 127
q-142 0 -240.5 -98.5t-139.5 -281.5z" />
    <glyph glyph-name="Racute" unicode="&#x154;" horiz-adv-x="1212" 
d="M349 601l-106 -601h-131l248 1407h377q206 0 308 -60q119 -70 119 -252q0 -92 -35.5 -187t-92.5 -156q-74 -79 -194 -111q37 -28 58.5 -64t48.5 -118l150 -459h-149l-104 332q-61 194 -88 231.5t-107 37.5h-302zM368 708h208q144 0 224.5 22t126.5 74q45 50 73 130.5
t28 158.5q0 117 -74 160t-274 43h-208zM668 1534l201 256h187l-287 -256h-101z" />
    <glyph glyph-name="racute" unicode="&#x155;" horiz-adv-x="719" 
d="M101 0l174 985h99l-13 -176q133 106 228 145.5t220 40.5l-28 -113q-215 -5 -433 -213l-118 -669h-129zM481 1126l201 256h187l-286 -256h-102z" />
    <glyph glyph-name="Rcommaaccent" unicode="&#x156;" horiz-adv-x="1212" 
d="M349 601l-106 -601h-131l248 1407h377q206 0 308 -60q119 -70 119 -252q0 -92 -35.5 -187t-92.5 -156q-74 -79 -194 -111q37 -28 58.5 -64t48.5 -118l150 -459h-149l-104 332q-61 194 -88 231.5t-107 37.5h-302zM368 708h208q144 0 224.5 22t126.5 74q45 50 73 130.5
t28 158.5q0 117 -74 160t-274 43h-208zM372 -498l136 372h143l-175 -372h-104z" />
    <glyph glyph-name="rcommaaccent" unicode="&#x157;" horiz-adv-x="720" 
d="M101 0l174 985h99l-13 -176q133 106 228 145.5t220 40.5l-28 -113q-217 -5 -433 -213l-118 -669h-129zM-53 -498l136 372h143l-175 -372h-104z" />
    <glyph glyph-name="Rcaron" unicode="&#x158;" horiz-adv-x="1212" 
d="M349 601l-106 -601h-131l248 1407h377q206 0 308 -60q119 -70 119 -252q0 -92 -35.5 -187t-92.5 -156q-74 -79 -194 -111q37 -28 58.5 -64t48.5 -118l150 -459h-149l-104 332q-61 194 -88 231.5t-107 37.5h-302zM368 708h208q144 0 224.5 22t126.5 74q45 50 73 130.5
t28 158.5q0 117 -74 160t-274 43h-208zM777 1632l216 158h126l-271 -256h-167l-182 256h116z" />
    <glyph glyph-name="rcaron" unicode="&#x159;" horiz-adv-x="719" 
d="M101 0l174 985h99l-13 -176q133 106 228 145.5t220 40.5l-28 -113q-215 -5 -433 -213l-118 -669h-129zM545 1224l217 158h126l-272 -256h-167l-181 256h116z" />
    <glyph glyph-name="Sacute" unicode="&#x15a;" horiz-adv-x="1002" 
d="M7 53l67 113q132 -84 304 -84q211 0 307 102q86 92 86 214q0 98 -51 155q-39 44 -192 123q-113 59 -167 95.5t-94 81.5q-68 75 -68 190q0 180 127 291q117 102 322 102q193 0 346 -81l-68 -104q-127 74 -276 74q-155 0 -239 -80q-78 -74 -78 -186q0 -85 55 -140
q48 -47 227 -140q165 -86 219 -145q73 -80 73 -219q0 -108 -43.5 -199.5t-123.5 -150.5q-125 -94 -350 -94q-233 0 -383 82zM600 1534l201 256h187l-286 -256h-102z" />
    <glyph glyph-name="sacute" unicode="&#x15b;" horiz-adv-x="774" 
d="M-40 65l68 105q123 -92 255 -92q115 0 182.5 59.5t67.5 161.5q0 59 -27.5 86.5t-146.5 85.5q-135 66 -185 123t-50 143q0 128 89.5 202.5t241.5 74.5q159 0 283 -74l-74 -103q-92 69 -211 69q-104 0 -153 -49q-43 -44 -43 -114q0 -62 57 -102q29 -20 144 -80
q115 -59 157 -104q51 -55 51 -137q0 -67 -24.5 -133.5t-64.5 -109.5q-98 -106 -307 -106q-187 0 -310 94zM400 1126l201 256h188l-287 -256h-102z" />
    <glyph glyph-name="Scircumflex" unicode="&#x15c;" horiz-adv-x="1002" 
d="M7 53l67 113q132 -84 304 -84q211 0 307 102q86 92 86 214q0 98 -51 155q-39 44 -192 123q-113 59 -167 95.5t-94 81.5q-68 75 -68 190q0 180 127 291q117 102 322 102q193 0 346 -81l-68 -104q-127 74 -276 74q-155 0 -239 -80q-78 -74 -78 -186q0 -85 55 -140
q48 -47 227 -140q165 -86 219 -145q73 -80 73 -219q0 -108 -43.5 -199.5t-123.5 -150.5q-125 -94 -350 -94q-233 0 -383 82zM694 1692l-217 -158h-125l271 256h167l182 -256h-116z" />
    <glyph glyph-name="scircumflex" unicode="&#x15d;" horiz-adv-x="773" 
d="M-40 65l68 105q123 -92 255 -92q115 0 182.5 59.5t67.5 161.5q0 59 -27.5 86.5t-146.5 85.5q-135 66 -185 123t-50 143q0 128 89.5 202.5t241.5 74.5q159 0 283 -74l-74 -103q-92 69 -211 69q-104 0 -153 -49q-43 -44 -43 -114q0 -62 57 -102q29 -20 144 -80
q115 -59 157 -104q51 -55 51 -137q0 -67 -24.5 -133.5t-64.5 -109.5q-98 -106 -307 -106q-187 0 -310 94zM515 1284l-217 -158h-126l272 256h167l182 -256h-117z" />
    <glyph glyph-name="Scedilla" unicode="&#x15e;" horiz-adv-x="1002" 
d="M7 53l67 113q132 -83 304 -83q211 0 307 102q86 92 86 214q0 98 -51 155q-39 43 -192 123q-113 59 -167 95.5t-94 80.5q-68 76 -68 190q0 180 127 291q117 102 322 102q193 0 346 -81l-68 -104q-127 74 -276 74q-155 0 -239 -80q-78 -74 -78 -186q0 -85 55 -139
q30 -29 74 -56.5t153 -84.5q164 -85 219 -144q73 -80 73 -220q0 -176 -110 -298q-120 -132 -365 -144l-79 -112q205 -14 205 -145q0 -89 -65 -142q-67 -55 -204 -55q-106 0 -202 36l46 76q66 -29 149 -29q64 0 103.5 33.5t39.5 87.5q0 40 -43 56.5t-146 17.5l-4 38l101 138
q-202 13 -326 80z" />
    <glyph glyph-name="scedilla" unicode="&#x15f;" horiz-adv-x="773" 
d="M-40 65l68 105q123 -91 255 -91q116 0 183 59.5t67 161.5q0 59 -27.5 86.5t-146.5 85.5q-134 65 -184.5 122t-50.5 144q0 127 89.5 201.5t241.5 74.5q159 0 283 -74l-74 -103q-93 69 -211 69q-104 0 -153 -49q-43 -44 -43 -114q0 -62 57 -102q28 -20 144 -79
q115 -60 157 -105q51 -54 51 -137q0 -85 -36.5 -162t-96.5 -119q-72 -51 -205 -65l-79 -113q204 -14 204 -146q0 -88 -65 -141q-67 -55 -204 -55q-106 0 -201 36l45 76q67 -29 149 -29q65 0 104 33t39 88q0 40 -42.5 56.5t-146.5 17.5l-3 38l101 138q-162 10 -269 92z" />
    <glyph glyph-name="Scaron" unicode="&#x160;" horiz-adv-x="1002" 
d="M7 53l67 113q132 -84 304 -84q211 0 307 102q86 92 86 214q0 98 -51 155q-39 44 -192 123q-113 59 -167 95.5t-94 81.5q-68 75 -68 190q0 180 127 291q117 102 322 102q193 0 346 -81l-68 -104q-127 74 -276 74q-155 0 -239 -80q-78 -74 -78 -186q0 -85 55 -140
q48 -47 227 -140q165 -86 219 -145q73 -80 73 -219q0 -108 -43.5 -199.5t-123.5 -150.5q-125 -94 -350 -94q-233 0 -383 82zM697 1632l217 158h125l-271 -256h-167l-182 256h116z" />
    <glyph glyph-name="scaron" unicode="&#x161;" horiz-adv-x="773" 
d="M-40 65l68 105q123 -92 255 -92q115 0 182.5 59.5t67.5 161.5q0 59 -27.5 86.5t-146.5 85.5q-135 66 -185 123t-50 143q0 128 89.5 202.5t241.5 74.5q159 0 283 -74l-74 -103q-92 69 -211 69q-104 0 -153 -49q-43 -44 -43 -114q0 -62 57 -102q29 -20 144 -80
q115 -59 157 -104q51 -55 51 -137q0 -67 -24.5 -133.5t-64.5 -109.5q-98 -106 -307 -106q-187 0 -310 94zM495 1224l217 158h125l-271 -256h-167l-181 256h116z" />
    <glyph glyph-name="Tcommaaccent" unicode="&#x162;" horiz-adv-x="1018" 
d="M357 0l229 1295h-423l28 112h968l-29 -112h-413l-229 -1295h-131zM193 -498l135 372h143l-174 -372h-104z" />
    <glyph glyph-name="tcommaaccent" unicode="&#x163;" horiz-adv-x="691" 
d="M298 875h-168l27 110h163l58 249l118 36l-50 -285h226l-28 -110h-217l-100 -564q-20 -114 -20 -158q0 -72 97 -72q60 0 119 32l33 -108q-93 -34 -185 -34q-196 0 -196 159q0 48 18 152zM58 -498l136 372h143l-175 -372h-104z" />
    <glyph glyph-name="Tcaron" unicode="&#x164;" horiz-adv-x="1018" 
d="M357 0l229 1295h-423l28 112h968l-29 -112h-413l-229 -1295h-131zM695 1632l216 158h126l-271 -256h-167l-182 256h116z" />
    <glyph glyph-name="tcaron" unicode="&#x165;" horiz-adv-x="718" 
d="M298 875h-168l27 110h164l57 249l118 36l-50 -285h227l-29 -110h-217l-100 -564q-20 -116 -20 -158q0 -72 97 -72q60 0 119 32l33 -108q-93 -34 -185 -34q-196 0 -196 159q0 47 18 152zM676 1103l123 432h152l-172 -432h-103z" />
    <glyph glyph-name="Tbar" unicode="&#x166;" horiz-adv-x="1018" 
d="M357 0l118 665h-266l29 109h256l92 521h-423l28 112h968l-29 -112h-413l-92 -521h265l-28 -109h-256l-118 -665h-131z" />
    <glyph glyph-name="tbar" unicode="&#x167;" horiz-adv-x="691" 
d="M298 875h-168l27 110h164l57 249l119 36l-51 -285h227l-29 -110h-217l-40 -226h221l-28 -101h-211l-42 -243q-20 -110 -20 -152q0 -72 97 -72q62 0 119 32l33 -108q-93 -34 -185 -34q-196 0 -196 158q0 47 18 150l48 269h-168l27 101h158z" />
    <glyph glyph-name="Utilde" unicode="&#x168;" horiz-adv-x="1332" 
d="M353 1407h131l-149 -847q-29 -164 -29 -243q0 -132 81 -187q70 -48 214 -48q234 0 325 152q52 87 94 326l150 847h131l-167 -946q-22 -126 -46 -194t-67 -124q-128 -172 -435 -172q-224 0 -327 96q-85 80 -85 243q0 80 26 226zM1129 1766h83q-78 -226 -231 -226
q-75 0 -148 73q-60 62 -99 62q-60 0 -120 -122h-83q81 226 232 226q75 0 147 -72q63 -63 99 -63q62 0 120 122z" />
    <glyph glyph-name="utilde" unicode="&#x169;" horiz-adv-x="1133" 
d="M759 133q-187 -162 -376 -162q-118 0 -182.5 53.5t-64.5 150.5q0 71 27 225l103 585h129l-110 -627q-17 -93 -17 -147q0 -66 34 -96.5t108 -30.5q83 0 178 45t188 128l128 728h129l-174 -985h-101zM958 1358h83q-81 -227 -232 -227q-75 0 -147 74q-61 62 -99 62
q-62 0 -120 -123h-83q82 227 232 227q74 0 146 -72q64 -64 100 -64q61 0 120 123z" />
    <glyph glyph-name="Umacron" unicode="&#x16a;" horiz-adv-x="1332" 
d="M353 1407h131l-149 -847q-29 -164 -29 -243q0 -132 81 -187q70 -48 214 -48q234 0 325 152q52 87 94 326l150 847h131l-167 -946q-22 -126 -46 -194t-67 -124q-128 -172 -435 -172q-224 0 -327 96q-85 80 -85 243q0 80 26 226zM535 1612l19 108h632l-19 -108h-632z" />
    <glyph glyph-name="umacron" unicode="&#x16b;" horiz-adv-x="1133" 
d="M759 133q-187 -162 -376 -162q-118 0 -182.5 53.5t-64.5 150.5q0 71 27 225l103 585h129l-110 -627q-17 -93 -17 -147q0 -66 34 -96.5t108 -30.5q83 0 178 45t188 128l128 728h129l-174 -985h-101zM421 1199l19 108h516l-19 -108h-516z" />
    <glyph glyph-name="Ubreve" unicode="&#x16c;" horiz-adv-x="1332" 
d="M353 1407h131l-149 -847q-29 -164 -29 -243q0 -132 81 -187q70 -48 214 -48q234 0 325 152q52 87 94 326l150 847h131l-167 -946q-22 -126 -46 -194t-67 -124q-128 -172 -435 -172q-224 0 -327 96q-85 80 -85 243q0 80 26 226zM601 1781h102q-3 -27 -3 -45
q0 -103 158 -103q92 0 135 32t66 116h101q-22 -111 -60 -163q-70 -93 -247 -93q-258 0 -258 185q0 28 6 71z" />
    <glyph glyph-name="ubreve" unicode="&#x16d;" horiz-adv-x="1133" 
d="M759 133q-187 -162 -376 -162q-118 0 -182.5 53.5t-64.5 150.5q0 71 27 225l103 585h129l-110 -627q-17 -93 -17 -147q0 -66 34 -96.5t108 -30.5q83 0 178 45t188 128l128 728h129l-174 -985h-101zM430 1372h101q-3 -29 -3 -45q0 -103 158 -103q92 0 135 31.5t66 116.5
h102q-22 -111 -61 -163q-69 -93 -247 -93q-258 0 -258 185q0 29 7 71z" />
    <glyph glyph-name="Uring" unicode="&#x16e;" horiz-adv-x="1332" 
d="M353 1407h131l-149 -847q-29 -164 -29 -243q0 -132 81 -187q70 -48 214 -48q234 0 325 152q52 87 94 326l150 847h131l-167 -946q-22 -126 -46 -194t-67 -124q-128 -172 -435 -172q-224 0 -327 96q-85 80 -85 243q0 80 26 226zM859 1843q83 0 132.5 -48.5t49.5 -129.5
t-50 -129.5t-135 -48.5q-84 0 -134 48.5t-50 129.5q0 83 50 130.5t137 47.5zM858 1779q-105 0 -105 -114t104 -114q103 0 103 114t-102 114z" />
    <glyph glyph-name="uring" unicode="&#x16f;" horiz-adv-x="1133" 
d="M759 133q-187 -162 -376 -162q-118 0 -182.5 53.5t-64.5 150.5q0 71 27 225l103 585h129l-110 -627q-17 -93 -17 -147q0 -66 34 -96.5t108 -30.5q83 0 178 45t188 128l128 728h129l-174 -985h-101zM696 1461q83 0 132.5 -48.5t49.5 -128.5q0 -82 -50 -130.5t-135 -48.5
q-83 0 -133.5 48.5t-50.5 129.5q0 83 50 130.5t137 47.5zM695 1397q-105 0 -105 -115q0 -113 103 -113q104 0 104 114t-102 114z" />
    <glyph glyph-name="Uhungarumlaut" unicode="&#x170;" horiz-adv-x="1332" 
d="M353 1407h131l-149 -847q-29 -164 -29 -243q0 -132 81 -187q70 -48 214 -48q234 0 325 152q52 87 94 326l150 847h131l-167 -946q-22 -126 -46 -194t-67 -124q-128 -172 -435 -172q-224 0 -327 96q-85 80 -85 243q0 80 26 226zM650 1534l152 256h188l-246 -256h-94z
M921 1534l152 256h188l-246 -256h-94z" />
    <glyph glyph-name="uhungarumlaut" unicode="&#x171;" horiz-adv-x="1133" 
d="M759 133q-187 -162 -376 -162q-118 0 -182.5 53.5t-64.5 150.5q0 71 27 225l103 585h129l-110 -627q-17 -93 -17 -147q0 -66 34 -96.5t108 -30.5q83 0 178 45t188 128l128 728h129l-174 -985h-101zM477 1126l153 256h187l-246 -256h-94zM749 1126l152 256h187l-245 -256
h-94z" />
    <glyph glyph-name="Uogonek" unicode="&#x172;" horiz-adv-x="1332" 
d="M353 1407h131l-149 -847q-29 -164 -29 -243q0 -131 81 -186q70 -48 214 -48q234 0 325 152q52 87 94 325l150 847h131l-167 -946q-26 -148 -61.5 -230.5t-97.5 -138.5q-90 -82 -262 -111q-127 -78 -175 -135.5t-48 -131.5q0 -53 38.5 -77t124.5 -24q55 0 114 9l4 -75
q-80 -24 -164 -24q-123 0 -182.5 42t-59.5 130q0 83 48.5 147t160.5 130q-174 5 -269 61q-131 78 -131 277q0 80 26 226z" />
    <glyph glyph-name="uogonek" unicode="&#x173;" horiz-adv-x="1133" 
d="M759 133q-187 -162 -376 -162q-118 0 -182.5 53.5t-64.5 150.5q0 71 27 225l103 585h129l-110 -627q-17 -93 -17 -147q0 -66 34 -96.5t108 -30.5q83 0 178 45t188 128l128 728h129l-174 -985q-127 -75 -174 -119q-82 -75 -82 -167q0 -53 38.5 -77t124.5 -24q56 0 114 9
l4 -75q-80 -24 -164 -24q-123 0 -182.5 42t-59.5 129q0 93 65 164.5t214 141.5h-17z" />
    <glyph glyph-name="Wcircumflex" unicode="&#x174;" horiz-adv-x="1727" 
d="M311 0l-117 1407h132l86 -1208l552 1208h125l128 -1212l502 1212h136l-606 -1407h-130l-125 1206l-551 -1206h-132zM1047 1692l-217 -158h-125l271 256h167l182 -256h-117z" />
    <glyph glyph-name="wcircumflex" unicode="&#x175;" horiz-adv-x="1494" 
d="M282 0l-151 985h132l103 -820l393 820h103l149 -828q299 378 299 596q0 43 -17.5 74.5t-67.5 81.5l80 89q71 -57 102 -109.5t31 -115.5q0 -154 -129 -369q-105 -175 -291 -404h-96l-140 803l-384 -803h-116zM839 1284l-217 -158h-125l271 256h167l182 -256h-116z" />
    <glyph glyph-name="Ycircumflex" unicode="&#x176;" horiz-adv-x="1087" 
d="M390 0l98 556l-307 851h135l256 -735l513 735h144l-610 -851l-98 -556h-131zM732 1692l-217 -158h-126l272 256h167l181 -256h-116z" />
    <glyph glyph-name="ycircumflex" unicode="&#x177;" horiz-adv-x="932" 
d="M310 2l-209 983h132l171 -861q26 33 39 49q119 150 160.5 210.5t79.5 139.5q67 139 67 229q0 43 -16.5 75.5t-64.5 81.5l82 89q70 -56 101.5 -109t31.5 -116q0 -135 -101 -314q-46 -82 -87.5 -140t-214.5 -278q-199 -253 -321 -514l-119 49q107 208 269 426zM508 1284
l-217 -158h-126l272 256h167l181 -256h-116z" />
    <glyph glyph-name="Ydieresis" unicode="&#x178;" horiz-adv-x="1087" 
d="M390 0l98 556l-307 851h135l256 -735l513 735h144l-610 -851l-98 -556h-131zM532 1759q37 0 63.5 -27t26.5 -65q0 -39 -27 -66t-65 -27t-65 27t-27 66t27 65.5t67 26.5zM910 1759q37 0 63.5 -27t26.5 -65q0 -39 -27 -66t-65 -27t-65 27.5t-27 65.5q0 39 27 65.5t67 26.5z
" />
    <glyph glyph-name="Zacute" unicode="&#x179;" horiz-adv-x="1051" 
d="M-48 0l16 95l977 1200h-680l29 112h825l-3 -95l-977 -1200h804l-30 -112h-961zM643 1534l201 256h187l-287 -256h-101z" />
    <glyph glyph-name="zacute" unicode="&#x17a;" horiz-adv-x="859" 
d="M-3 0l-17 101l681 774h-80q-278 0 -403 42l38 105q144 -37 422 -37h173l21 -94l-691 -781q93 8 166 8q264 0 446 -68l-46 -104q-175 62 -451 62q-98 0 -259 -8zM468 1126l201 256h188l-287 -256h-102z" />
    <glyph glyph-name="Zdotaccent" unicode="&#x17b;" horiz-adv-x="1051" 
d="M-48 0l16 95l977 1200h-680l29 112h825l-3 -95l-977 -1200h804l-30 -112h-961zM749 1760q37 0 64 -27.5t27 -66.5t-27 -66.5t-66 -27.5t-66 27.5t-27 67.5q0 39 27.5 66t67.5 27z" />
    <glyph glyph-name="zdotaccent" unicode="&#x17c;" horiz-adv-x="859" 
d="M-3 0l-17 101l681 774h-80q-278 0 -403 42l38 105q144 -37 422 -37h173l21 -94l-691 -781q93 8 166 8q264 0 446 -68l-46 -104q-175 62 -451 62q-98 0 -259 -8zM564 1350q37 0 64 -27.5t27 -66.5t-27 -66.5t-66 -27.5t-66 27.5t-27 67.5q0 39 27.5 66t67.5 27z" />
    <glyph glyph-name="Zcaron" unicode="&#x17d;" horiz-adv-x="1051" 
d="M-48 0l16 95l977 1200h-680l29 112h825l-3 -95l-977 -1200h804l-30 -112h-961zM746 1632l217 158h126l-272 -256h-167l-182 256h117z" />
    <glyph glyph-name="zcaron" unicode="&#x17e;" horiz-adv-x="859" 
d="M-3 0l-17 101l681 774h-80q-278 0 -403 42l38 105q144 -37 422 -37h173l21 -94l-691 -781q93 8 166 8q264 0 446 -68l-46 -104q-175 62 -451 62q-98 0 -259 -8zM574 1224l217 158h126l-272 -256h-167l-181 256h116z" />
    <glyph glyph-name="uni018F" unicode="&#x18f;" horiz-adv-x="1385" 
d="M219 1072q58 104 115 166q181 198 482 198q249 0 374 -117q55 -52 85 -115q67 -143 67 -320q0 -156 -44 -314.5t-124 -288.5q-189 -310 -552 -310q-266 0 -392 155q-106 131 -106 367q0 106 25 248h1033q13 89 13 158q0 215 -99 318q-94 96 -286 96q-235 0 -375 -147
q-43 -45 -104 -144zM1162 631h-891q-10 -75 -10 -133q0 -128 40 -226q41 -100 134 -149q80 -42 183 -42q134 0 244 62.5t185 180.5q76 119 115 307z" />
    <glyph glyph-name="florin" unicode="&#x192;" 
d="M525 665h-219l21 110h218l62 361q27 150 95 216t197 66q86 0 183 -32l-33 -109q-67 31 -135 31q-86 0 -124.5 -53t-65.5 -211l-47 -269h240l-22 -110h-238l-141 -808q-27 -153 -95 -220t-197 -67q-88 0 -180 30l32 109q66 -29 133 -29q86 0 124.5 53t65.5 210z" />
    <glyph glyph-name="uni01C4" unicode="&#x1c4;" horiz-adv-x="2304" 
d="M112 0l248 1407h323q279 0 416 -96q168 -119 168 -421q0 -267 -106 -496q-110 -237 -307 -326q-151 -68 -375 -68h-367zM263 112h187q223 0 346 62q179 91 269 338q66 181 66 368q0 306 -204 380q-96 35 -297 35h-159zM1999 1632l217 158h125l-271 -256h-167l-182 256
h116zM1205 0l15 95l978 1200h-681l30 112h825l-3 -95l-977 -1200h803l-30 -112h-960z" />
    <glyph glyph-name="uni01C5" unicode="&#x1c5;" horiz-adv-x="2112" 
d="M112 0l248 1407h323q279 0 416 -96q168 -119 168 -421q0 -267 -106 -496q-110 -237 -307 -326q-151 -68 -375 -68h-367zM263 112h187q223 0 346 62q179 91 269 338q66 181 66 368q0 306 -204 380q-96 35 -297 35h-159zM1827 1224l217 158h125l-271 -256h-167l-182 256
h116zM1250 0l-17 101l681 774h-80q-279 0 -403 42l37 105q145 -37 422 -37h174l20 -94l-690 -781q93 8 165 8q263 0 447 -68l-46 -104q-176 62 -452 62q-98 0 -258 -8z" />
    <glyph glyph-name="uni01C6" unicode="&#x1c6;" horiz-adv-x="1894" 
d="M862 955l88 496l133 26l-260 -1477h-98l-1 127q-149 -156 -332 -156q-148 0 -231 84q-86 87 -86 265q0 120 33 239t92 211q156 244 425 244q118 0 237 -59zM841 837q-81 67 -206 67q-222 0 -342 -231q-84 -162 -84 -350q0 -129 60 -189q54 -53 140 -53q69 0 139.5 31.5
t123.5 87.5q40 42 59.5 82.5t31.5 106.5zM1609 1224l216 158h126l-271 -256h-168l-181 256h116zM1031 0l-17 101l681 774h-80q-278 0 -403 42l38 105q144 -37 422 -37h174l20 -94l-691 -781q93 8 166 8q264 0 446 -68l-46 -104q-175 62 -451 62q-98 0 -259 -8z" />
    <glyph glyph-name="uni01C7" unicode="&#x1c7;" horiz-adv-x="1490" 
d="M112 0l248 1407h131l-228 -1295h604l-30 -112h-725zM1320 1407h131l-176 -998q-38 -214 -69.5 -316.5t-86.5 -188.5q-81 -126 -273 -258l-59 61q163 129 234 268q70 139 130 475z" />
    <glyph glyph-name="uni01C8" unicode="&#x1c8;" horiz-adv-x="1494" 
d="M112 0l248 1407h131l-228 -1295h604l-30 -112h-725zM1252 985h129l-170 -963q-33 -187 -90 -285t-195 -203l-50 53q105 118 143 209q41 94 84 339zM1367 1350q37 0 64 -27.5t27 -66.5t-27 -66.5t-66 -27.5t-66 27.5t-27 67.5q0 39 27.5 66t67.5 27z" />
    <glyph glyph-name="uni01C9" unicode="&#x1c9;" horiz-adv-x="1060" 
d="M111 0l256 1451l133 26l-260 -1477h-129zM932 1350q37 0 64 -27.5t27 -66.5t-27 -66.5t-66 -27.5t-66 27.5t-27 67.5q0 39 27.5 66t67.5 27zM818 985h129l-170 -963q-33 -187 -90.5 -285t-194.5 -203l-51 53q106 120 144 209q40 94 83 339z" />
    <glyph glyph-name="uni01CA" unicode="&#x1ca;" horiz-adv-x="1975" 
d="M112 0l248 1407h131l579 -1182l209 1182h128l-248 -1407h-116l-592 1199l-211 -1199h-128zM1805 1407h131l-176 -998q-38 -214 -69.5 -316.5t-86.5 -188.5q-81 -127 -272 -258l-60 61q164 129 234 268q71 139 130 475z" />
    <glyph glyph-name="uni01CB" unicode="&#x1cb;" horiz-adv-x="1979" 
d="M112 0l248 1407h131l579 -1182l209 1182h128l-248 -1407h-116l-592 1199l-211 -1199h-128zM1852 1350q37 0 64 -27.5t27 -66.5t-27 -66.5t-66 -27.5t-66 27.5t-27 67.5q0 39 27.5 66t67.5 27zM1738 985h128l-169 -963q-33 -187 -90.5 -285t-195.5 -203l-50 53
q106 121 144 209q40 94 83 339z" />
    <glyph glyph-name="uni01CC" unicode="&#x1cc;" horiz-adv-x="1676" 
d="M101 0l174 985h99l-9 -150q214 179 410 179q118 0 184.5 -53t66.5 -148q0 -72 -26 -218l-105 -595h-128l114 651q14 77 14 122q0 127 -150 127q-89 0 -193.5 -54.5t-199.5 -149.5l-122 -696h-129zM1435 985h129l-170 -963q-33 -187 -90.5 -285t-194.5 -203l-51 53
q107 121 144 209q40 94 83 339zM1549 1350q37 0 64 -27.5t27 -66.5t-27 -66.5t-66 -27.5t-66 27.5t-27 67.5q0 39 27.5 66t67.5 27z" />
    <glyph glyph-name="uni01CD" unicode="&#x1cd;" horiz-adv-x="1292" 
d="M959 463h-627l-269 -463h-145l828 1407h123l332 -1407h-136zM934 574l-152 666l-387 -666h539zM821 1632l217 158h126l-271 -256h-168l-181 256h116z" />
    <glyph glyph-name="uni01CE" unicode="&#x1ce;" horiz-adv-x="1085" 
d="M833 0h-135l9 120q-78 -79 -152.5 -114t-167.5 -35q-152 0 -237 89q-76 81 -76 247q0 122 34.5 245.5t95.5 219.5q152 242 436 242q129 0 339 -62l-104 -592q-40 -229 -42 -360zM835 864q-99 40 -197 40q-225 0 -341 -230q-41 -79 -65 -181.5t-24 -193.5q0 -112 54 -167
q51 -51 140 -51q150 0 261 119q39 42 57.5 82t30.5 107zM696 1224l217 158h126l-272 -256h-167l-181 256h116z" />
    <glyph glyph-name="uni01CF" unicode="&#x1cf;" horiz-adv-x="554" 
d="M125 0l248 1407h131l-248 -1407h-131zM474 1632l217 158h125l-271 -256h-167l-182 256h116z" />
    <glyph glyph-name="uni01D0" unicode="&#x1d0;" horiz-adv-x="528" 
d="M111 0l174 985h128l-173 -985h-129zM387 1224l217 158h125l-271 -256h-167l-182 256h116z" />
    <glyph glyph-name="uni01D1" unicode="&#x1d1;" horiz-adv-x="1391" 
d="M833 1436q149 0 268 -59q241 -121 241 -487q0 -176 -53 -356q-84 -288 -260 -435q-151 -128 -392 -128q-249 0 -377 126q-138 137 -138 418q0 176 53 357q166 564 658 564zM831 1325q-310 0 -461 -310q-49 -103 -80.5 -251t-31.5 -279q0 -201 103 -306q94 -96 276 -96
q191 0 317 113q138 124 204 374q48 184 48 349q0 198 -101 303q-45 47 -119.5 75t-154.5 28zM892 1632l217 158h125l-271 -256h-167l-182 256h116z" />
    <glyph glyph-name="uni01D2" unicode="&#x1d2;" horiz-adv-x="1083" 
d="M618 1014q192 0 290 -112q92 -103 92 -292q0 -113 -35 -231.5t-95 -204.5q-141 -203 -398 -203q-191 0 -288 100q-101 104 -101 304q0 113 35.5 232t94.5 204q141 203 405 203zM612 904q-218 0 -324 -218q-71 -148 -71 -316q0 -289 259 -289q213 0 318 218q72 148 72 314
q0 291 -254 291zM666 1224l217 158h125l-271 -256h-167l-182 256h116z" />
    <glyph glyph-name="uni01D3" unicode="&#x1d3;" horiz-adv-x="1332" 
d="M353 1407h131l-149 -847q-29 -164 -29 -243q0 -132 81 -187q70 -48 214 -48q234 0 325 152q52 87 94 326l150 847h131l-167 -946q-22 -126 -46 -194t-67 -124q-128 -172 -435 -172q-224 0 -327 96q-85 80 -85 243q0 80 26 226zM850 1632l217 158h125l-271 -256h-167
l-182 256h116z" />
    <glyph glyph-name="uni01D4" unicode="&#x1d4;" horiz-adv-x="1133" 
d="M759 133q-187 -162 -376 -162q-118 0 -182.5 53.5t-64.5 150.5q0 71 27 225l103 585h129l-110 -627q-17 -93 -17 -147q0 -66 34 -96.5t108 -30.5q83 0 178 45t188 128l128 728h129l-174 -985h-101zM679 1224l217 158h125l-271 -256h-168l-181 256h116z" />
    <glyph glyph-name="uni01DD" unicode="&#x1dd;" horiz-adv-x="1043" 
d="M816 505q10 55 10 103q0 130 -55 204q-69 94 -248 94q-84 0 -143.5 -20t-159.5 -82l-36 97q98 64 175 88.5t181 24.5q257 0 358 -161q67 -106 67 -259q0 -223 -122 -411q-136 -212 -393 -212q-220 0 -316 143q-58 87 -58 216q0 92 22 175h718zM795 402h-588
q-2 -35 -2 -61q0 -90 33 -154q57 -109 205 -109q263 0 352 324z" />
    <glyph glyph-name="Gcaron" unicode="&#x1e6;" horiz-adv-x="1285" 
d="M951 138l77 437h-318l37 109h431l-113 -641q-172 -72 -386 -72q-276 0 -410 116q-77 68 -114 180q-36 108 -36 227q0 264 103 508q90 212 252 323t381 111q212 0 381 -99l-66 -107q-148 95 -314 95q-189 0 -315 -95q-161 -122 -239 -396q-47 -166 -47 -328
q0 -232 114 -336q96 -88 299 -88q174 0 283 56zM880 1632l217 158h125l-271 -256h-167l-182 256h117z" />
    <glyph glyph-name="gcaron" unicode="&#x1e7;" horiz-adv-x="1084" 
d="M701 116q-78 -78 -150.5 -111.5t-163.5 -33.5q-151 0 -234 87q-79 84 -79 251q0 119 34.5 242t94.5 219q152 244 434 244q79 0 146.5 -12.5t193.5 -49.5l-133 -754q-51 -293 -92 -404q-96 -262 -415 -262q-172 0 -310 61l60 106q98 -58 241 -58q131 0 204 53
q81 60 120 195q23 82 44 196zM833 864q-108 40 -196 40q-224 0 -341 -230q-40 -79 -64.5 -182t-24.5 -194q0 -104 50.5 -160.5t142.5 -56.5q150 0 261 119q39 42 58 82t31 107zM706 1224l217 158h126l-272 -256h-167l-181 256h116z" />
    <glyph glyph-name="uni01EA" unicode="&#x1ea;" horiz-adv-x="1391" 
d="M736 -23q-111 -63 -163.5 -127.5t-52.5 -135.5q0 -53 38.5 -77t123.5 -24q56 0 115 9l3 -75q-79 -24 -163 -24q-123 0 -182.5 42t-59.5 130q0 83 48.5 147t160.5 130q-172 9 -278 74q-104 64 -155 190q-49 121 -49 278q0 178 53 358q84 288 260 433q160 131 390 131
q252 0 385 -138q132 -137 132 -408q0 -231 -86 -455q-83 -215 -227 -336q-64 -55 -128.5 -81.5t-164.5 -40.5zM831 1325q-310 0 -461 -310q-49 -103 -80.5 -251t-31.5 -279q0 -201 103 -306q94 -96 276 -96q191 0 317 113q138 124 204 374q48 184 48 349q0 198 -101 303
q-45 47 -119.5 75t-154.5 28z" />
    <glyph glyph-name="uni01EB" unicode="&#x1eb;" horiz-adv-x="1083" 
d="M594 -16q-118 -67 -173 -132t-55 -138q0 -53 38.5 -77t123.5 -24q56 0 115 9l4 -75q-80 -24 -164 -24q-123 0 -182.5 42t-59.5 130q0 82 50.5 148.5t158.5 128.5q-142 9 -222 63q-72 48 -109 140q-36 89 -36 200q0 114 35 232t95 204q141 203 398 203q199 0 297 -112
q92 -104 92 -291q0 -140 -49 -275t-132 -224q-87 -94 -225 -128zM612 904q-218 0 -324 -218q-71 -148 -71 -316q0 -289 259 -289q213 0 318 218q72 148 72 314q0 291 -254 291z" />
    <glyph glyph-name="uni01F1" unicode="&#x1f1;" horiz-adv-x="2304" 
d="M112 0l248 1407h323q279 0 416 -96q168 -119 168 -421q0 -267 -106 -496q-110 -237 -307 -326q-151 -68 -375 -68h-367zM263 112h187q223 0 346 62q179 91 269 338q66 181 66 368q0 306 -204 380q-96 35 -297 35h-159zM1205 0l15 95l978 1200h-681l30 112h825l-3 -95
l-977 -1200h803l-30 -112h-960z" />
    <glyph glyph-name="uni01F2" unicode="&#x1f2;" horiz-adv-x="2112" 
d="M112 0l248 1407h323q279 0 416 -96q168 -119 168 -421q0 -267 -106 -496q-110 -237 -307 -326q-151 -68 -375 -68h-367zM263 112h187q223 0 346 62q179 91 269 338q66 181 66 368q0 306 -204 380q-96 35 -297 35h-159zM1250 0l-17 101l681 774h-80q-279 0 -403 42l37 105
q145 -37 422 -37h174l20 -94l-690 -781q93 8 165 8q263 0 447 -68l-46 -104q-176 62 -452 62q-98 0 -258 -8z" />
    <glyph glyph-name="uni01F3" unicode="&#x1f3;" horiz-adv-x="1894" 
d="M862 955l88 496l133 26l-260 -1477h-98l-1 127q-149 -156 -332 -156q-148 0 -231 84q-86 87 -86 265q0 120 33 239t92 211q156 244 425 244q118 0 237 -59zM841 837q-81 67 -206 67q-222 0 -342 -231q-84 -162 -84 -350q0 -129 60 -189q54 -53 140 -53q69 0 139.5 31.5
t123.5 87.5q40 42 59.5 82.5t31.5 106.5zM1031 0l-17 101l681 774h-80q-278 0 -403 42l38 105q144 -37 422 -37h174l20 -94l-691 -781q93 8 166 8q264 0 446 -68l-46 -104q-175 62 -451 62q-98 0 -259 -8z" />
    <glyph glyph-name="uni01F4" unicode="&#x1f4;" horiz-adv-x="1285" 
d="M951 138l77 437h-318l37 109h431l-113 -641q-172 -72 -386 -72q-276 0 -410 116q-77 68 -114 180q-36 108 -36 227q0 264 103 508q90 212 252 323t381 111q212 0 381 -99l-66 -107q-148 95 -314 95q-189 0 -315 -95q-161 -122 -239 -396q-47 -166 -47 -328
q0 -232 114 -336q96 -88 299 -88q174 0 283 56zM753 1534l201 256h187l-286 -256h-102z" />
    <glyph glyph-name="uni01F5" unicode="&#x1f5;" horiz-adv-x="1084" 
d="M701 116q-78 -78 -150.5 -111.5t-163.5 -33.5q-151 0 -234 87q-79 84 -79 251q0 119 34.5 242t94.5 219q152 244 434 244q79 0 146.5 -12.5t193.5 -49.5l-133 -754q-51 -293 -92 -404q-96 -262 -415 -262q-172 0 -310 61l60 106q98 -58 241 -58q131 0 204 53
q81 60 120 195q23 82 44 196zM833 864q-108 40 -196 40q-224 0 -341 -230q-40 -79 -64.5 -182t-24.5 -194q0 -104 50.5 -160.5t142.5 -56.5q150 0 261 119q39 42 58 82t31 107zM591 1126l201 256h187l-287 -256h-101z" />
    <glyph glyph-name="Aringacute" unicode="&#x1fa;" horiz-adv-x="1292" 
d="M722 1366q-83 48 -83 155q0 83 49.5 131t134.5 48t135 -48t50 -130q0 -66 -33.5 -112t-92.5 -61l319 -1349h-136l-106 463h-627l-269 -463h-145zM934 574l-152 666l-387 -666h539zM825 1635q-105 0 -105 -115q0 -113 104 -113q103 0 103 114t-102 114zM765 1741l195 242
h188l-281 -242h-102z" />
    <glyph glyph-name="aringacute" unicode="&#x1fb;" horiz-adv-x="1085" 
d="M833 0h-135l9 120q-78 -79 -152.5 -114t-167.5 -35q-152 0 -237 89q-76 81 -76 247q0 122 34.5 245.5t95.5 219.5q152 242 436 242q129 0 339 -62l-104 -592q-40 -229 -42 -360zM835 864q-99 40 -197 40q-225 0 -341 -230q-41 -79 -65 -181.5t-24 -193.5q0 -112 54 -167
q51 -51 140 -51q150 0 261 119q39 42 57.5 82t30.5 107zM684 1459q83 0 132.5 -48.5t49.5 -128.5q0 -83 -50 -131.5t-135 -48.5q-84 0 -134 48.5t-50 130.5t50 130t137 48zM683 1394q-105 0 -105 -114q0 -113 103 -113q104 0 104 114q0 113 -102 113zM622 1516l197 250h187
l-282 -250h-102z" />
    <glyph glyph-name="AEacute" unicode="&#x1fc;" horiz-adv-x="1758" 
d="M844 458h-516l-321 -458h-155l1011 1407h945l-28 -112h-658l-85 -485h555l-28 -110h-547l-103 -588h691l-31 -112h-811zM863 570l128 725h-76l-508 -725h456zM1275 1534l201 256h188l-287 -256h-102z" />
    <glyph glyph-name="aeacute" unicode="&#x1fd;" horiz-adv-x="1559" 
d="M741 173q-133 -202 -436 -202q-153 0 -215 77q-46 58 -46 166q0 140 98 231q111 103 396 128q69 6 189 12l17 95q11 60 11 86q0 139 -189 139q-155 0 -322 -111l-38 99q185 121 377 121q246 0 285 -170q144 170 365 170q132 0 203 -60.5t71 -171.5q0 -102 -61 -168
t-196 -110q-127 -42 -422 -79q-3 -29 -3 -49q0 -120 40 -192q58 -105 232 -105q77 0 137 21.5t134 74.5l51 -103q-159 -101 -337 -101q-138 0 -220 48.5t-121 153.5zM712 484q-260 -17 -351 -46q-183 -59 -183 -224q0 -136 162 -136q155 0 264 86q60 47 76 138zM843 528
q245 27 380 78q83 31 120.5 72.5t37.5 102.5q0 127 -158 127q-141 0 -240.5 -99t-139.5 -281zM823 1126l201 256h188l-287 -256h-102z" />
    <glyph glyph-name="Oslashacute" unicode="&#x1fe;" horiz-adv-x="1391" 
d="M1275 1206q67 -138 67 -319q0 -174 -53 -353q-84 -287 -260 -435q-152 -128 -394 -128q-276 0 -406 164l-131 -134l-70 66l150 153q-56 130 -56 300q0 156 44.5 321t119.5 286q190 309 538 309q259 0 397 -151l147 150l68 -64zM1172 1101l-851 -872q93 -146 318 -146
q305 0 454 307q48 97 79.5 239.5t31.5 258.5q0 122 -32 213zM283 326l847 866q-102 133 -306 133q-302 0 -453 -308q-50 -103 -80.5 -247t-30.5 -278q0 -68 23 -166zM775 1534l201 256h187l-286 -256h-102z" />
    <glyph glyph-name="oslashacute" unicode="&#x1ff;" horiz-adv-x="1083" 
d="M953 835q47 -99 47 -226q0 -113 -35.5 -231t-94.5 -204q-141 -203 -398 -203q-191 0 -293 108l-122 -119l-64 63l135 131q-44 98 -44 224q0 112 35 229.5t95 202.5q141 204 397 204q185 0 290 -105l125 123l64 -63zM851 735l-582 -568q71 -88 208 -88q213 0 319 218
q70 146 70 310q0 55 -15 128zM231 255l580 567q-69 83 -203 83q-213 0 -318 -214q-73 -148 -73 -310q0 -59 14 -126zM549 1126l201 256h188l-287 -256h-102z" />
    <glyph glyph-name="uni0200" unicode="&#x200;" horiz-adv-x="1292" 
d="M959 463h-627l-269 -463h-145l828 1407h123l332 -1407h-136zM934 574l-152 666l-387 -666h539zM1007 1534h-94l-156 257h188zM735 1534h-94l-155 257h187z" />
    <glyph glyph-name="uni0201" unicode="&#x201;" horiz-adv-x="1085" 
d="M833 0h-135l9 120q-78 -79 -152.5 -114t-167.5 -35q-152 0 -237 89q-76 81 -76 247q0 122 34.5 245.5t95.5 219.5q152 242 436 242q129 0 339 -62l-104 -592q-40 -229 -42 -360zM835 864q-99 40 -197 40q-225 0 -341 -230q-41 -79 -65 -181.5t-24 -193.5q0 -112 54 -167
q51 -51 140 -51q150 0 261 119q39 42 57.5 82t30.5 107zM899 1126h-94l-155 257h187zM627 1126h-93l-156 257h188z" />
    <glyph glyph-name="uni0202" unicode="&#x202;" horiz-adv-x="1292" 
d="M959 463h-627l-269 -463h-145l828 1407h123l332 -1407h-136zM934 574l-152 666l-387 -666h539zM1108 1525h-102q3 30 3 45q0 103 -158 103q-91 0 -135 -32t-66 -116h-101q22 111 61 164q69 93 246 93q258 0 258 -185q0 -28 -6 -72z" />
    <glyph glyph-name="uni0203" unicode="&#x203;" horiz-adv-x="1085" 
d="M833 0h-135l9 120q-78 -79 -152.5 -114t-167.5 -35q-152 0 -237 89q-76 81 -76 247q0 122 34.5 245.5t95.5 219.5q152 242 436 242q129 0 339 -62l-104 -592q-40 -229 -42 -360zM835 864q-99 40 -197 40q-225 0 -341 -230q-41 -79 -65 -181.5t-24 -193.5q0 -112 54 -167
q51 -51 140 -51q150 0 261 119q39 42 57.5 82t30.5 107zM952 1116h-101q3 31 3 46q0 103 -158 103q-92 0 -135 -32t-66 -117h-101q20 110 60 164q69 94 247 94q258 0 258 -185q0 -25 -7 -73z" />
    <glyph glyph-name="uni0204" unicode="&#x204;" horiz-adv-x="1122" 
d="M112 0l248 1407h812l-28 -112h-673l-85 -485h571l-29 -110h-562l-103 -588h707l-31 -112h-827zM1004 1534h-95l-155 257h187zM732 1534h-94l-155 257h187z" />
    <glyph glyph-name="uni0205" unicode="&#x205;" horiz-adv-x="951" 
d="M219 425q-3 -29 -3 -49q0 -120 40 -192q58 -105 232 -105q77 0 137 21t134 75l51 -103q-159 -101 -341 -101q-177 0 -269 80q-54 47 -83 124q-33 91 -33 192q0 117 35.5 234.5t97.5 206.5q146 206 405 206q134 0 205 -60t71 -172q0 -102 -60.5 -167.5t-196.5 -110.5
q-127 -42 -422 -79zM234 528q246 27 380 78q83 32 120.5 73t37.5 102q0 127 -158 127q-142 0 -240.5 -98.5t-139.5 -281.5zM812 1126h-94l-156 257h188zM540 1126h-94l-155 257h187z" />
    <glyph glyph-name="uni0206" unicode="&#x206;" horiz-adv-x="1122" 
d="M112 0l248 1407h812l-28 -112h-673l-85 -485h571l-29 -110h-562l-103 -588h707l-31 -112h-827zM1066 1525h-101q3 28 3 45q0 103 -158 103q-92 0 -135 -32t-66 -116h-102q22 112 61 164q70 93 247 93q258 0 258 -185q0 -27 -7 -72z" />
    <glyph glyph-name="uni0207" unicode="&#x207;" horiz-adv-x="951" 
d="M219 425q-3 -29 -3 -49q0 -120 40 -192q58 -105 232 -105q77 0 137 21t134 75l51 -103q-159 -101 -341 -101q-177 0 -269 80q-54 47 -83 124q-33 91 -33 192q0 117 35.5 234.5t97.5 206.5q146 206 405 206q134 0 205 -60t71 -172q0 -102 -60.5 -167.5t-196.5 -110.5
q-127 -42 -422 -79zM234 528q246 27 380 78q83 32 120.5 73t37.5 102q0 127 -158 127q-142 0 -240.5 -98.5t-139.5 -281.5zM894 1116h-102q3 31 3 46q0 103 -158 103q-92 0 -135 -32t-66 -117h-101q21 110 60 164q69 94 247 94q258 0 258 -185q0 -25 -6 -73z" />
    <glyph glyph-name="uni0208" unicode="&#x208;" horiz-adv-x="554" 
d="M121 0l248 1407h131l-248 -1407h-131zM634 1534h-94l-156 257h188zM362 1534h-94l-155 257h187z" />
    <glyph glyph-name="uni0209" unicode="&#x209;" horiz-adv-x="528" 
d="M113 0l174 985h129l-174 -985h-129zM553 1126h-94l-156 257h188zM281 1126h-94l-155 257h187z" />
    <glyph glyph-name="uni020A" unicode="&#x20a;" horiz-adv-x="554" 
d="M125 0l248 1407h131l-248 -1407h-131zM739 1525h-102q4 28 4 45q0 103 -159 103q-91 0 -134.5 -32t-66.5 -116h-101q22 112 61 164q69 93 247 93q258 0 258 -185q0 -29 -7 -72z" />
    <glyph glyph-name="uni020B" unicode="&#x20b;" horiz-adv-x="528" 
d="M113 0l174 985h129l-174 -985h-129zM654 1116h-102q4 31 4 46q0 103 -159 103q-91 0 -134.5 -32t-66.5 -117h-101q21 110 61 164q69 94 247 94q258 0 258 -184q0 -28 -7 -74z" />
    <glyph glyph-name="uni020C" unicode="&#x20c;" horiz-adv-x="1391" 
d="M833 1436q149 0 268 -59q241 -121 241 -487q0 -176 -53 -356q-84 -288 -260 -435q-151 -128 -392 -128q-249 0 -377 126q-138 137 -138 418q0 176 53 357q166 564 658 564zM831 1325q-310 0 -461 -310q-49 -103 -80.5 -251t-31.5 -279q0 -201 103 -306q94 -96 276 -96
q191 0 317 113q138 124 204 374q48 184 48 349q0 198 -101 303q-45 47 -119.5 75t-154.5 28zM1056 1534h-94l-156 257h188zM784 1534h-93l-156 257h187z" />
    <glyph glyph-name="uni020D" unicode="&#x20d;" horiz-adv-x="1083" 
d="M618 1014q192 0 290 -112q92 -103 92 -292q0 -113 -35 -231.5t-95 -204.5q-141 -203 -398 -203q-191 0 -288 100q-101 104 -101 304q0 113 35.5 232t94.5 204q141 203 405 203zM612 904q-218 0 -324 -218q-71 -148 -71 -316q0 -289 259 -289q213 0 318 218q72 148 72 314
q0 291 -254 291zM830 1126h-94l-156 257h188zM558 1126h-94l-155 257h187z" />
    <glyph glyph-name="uni020E" unicode="&#x20e;" horiz-adv-x="1391" 
d="M833 1436q149 0 268 -59q241 -121 241 -487q0 -176 -53 -356q-84 -288 -260 -435q-151 -128 -392 -128q-249 0 -377 126q-138 137 -138 418q0 176 53 357q166 564 658 564zM831 1325q-310 0 -461 -310q-49 -103 -80.5 -251t-31.5 -279q0 -201 103 -306q94 -96 276 -96
q191 0 317 113q138 124 204 374q48 184 48 349q0 198 -101 303q-45 47 -119.5 75t-154.5 28zM1157 1525h-102q3 24 3 44q0 104 -158 104q-92 0 -135 -32t-66 -116h-101q22 111 60 164q70 93 247 93q258 0 258 -185q0 -29 -6 -72z" />
    <glyph glyph-name="uni020F" unicode="&#x20f;" horiz-adv-x="1083" 
d="M618 1014q192 0 290 -112q92 -103 92 -292q0 -113 -35 -231.5t-95 -204.5q-141 -203 -398 -203q-191 0 -288 100q-101 104 -101 304q0 113 35.5 232t94.5 204q141 203 405 203zM612 904q-218 0 -324 -218q-71 -148 -71 -316q0 -289 259 -289q213 0 318 218q72 148 72 314
q0 291 -254 291zM931 1116h-102q4 31 4 46q0 103 -159 103q-91 0 -134.5 -32t-66.5 -117h-101q21 110 60 164q70 94 248 94q258 0 258 -184q0 -29 -7 -74z" />
    <glyph glyph-name="uni0210" unicode="&#x210;" horiz-adv-x="1212" 
d="M349 601l-106 -601h-131l248 1407h377q206 0 308 -60q119 -70 119 -252q0 -92 -35.5 -187t-92.5 -156q-74 -79 -194 -111q37 -28 58.5 -64t48.5 -118l150 -459h-149l-104 332q-61 194 -88 231.5t-107 37.5h-302zM368 708h208q144 0 224.5 22t126.5 74q45 50 73 130.5
t28 158.5q0 117 -74 160t-274 43h-208zM967 1534h-94l-156 257h188zM695 1534h-93l-156 257h188z" />
    <glyph glyph-name="uni0211" unicode="&#x211;" horiz-adv-x="719" 
d="M101 0l174 985h99l-13 -176q133 106 228 145.5t220 40.5l-28 -113q-215 -5 -433 -213l-118 -669h-129zM685 1126h-94l-155 257h187zM413 1126h-93l-156 257h188z" />
    <glyph glyph-name="uni0212" unicode="&#x212;" horiz-adv-x="1212" 
d="M349 601l-106 -601h-131l248 1407h377q206 0 308 -60q119 -70 119 -252q0 -92 -35.5 -187t-92.5 -156q-74 -79 -194 -111q37 -28 58.5 -64t48.5 -118l150 -459h-149l-104 332q-61 194 -88 231.5t-107 37.5h-302zM368 708h208q144 0 224.5 22t126.5 74q45 50 73 130.5
t28 158.5q0 117 -74 160t-274 43h-208zM1038 1525h-101q3 26 3 45q0 103 -158 103q-92 0 -135.5 -32t-66.5 -116h-101q22 112 61 164q69 93 247 93q258 0 258 -186q0 -29 -7 -71z" />
    <glyph glyph-name="uni0213" unicode="&#x213;" horiz-adv-x="720" 
d="M101 0l174 985h99l-13 -176q133 106 228 145.5t220 40.5l-28 -113q-215 -5 -433 -213l-118 -669h-129zM779 1116h-102q4 31 4 46q0 103 -159 103q-91 0 -134.5 -32t-66.5 -117h-101q21 110 60 164q70 94 248 94q258 0 258 -184q0 -29 -7 -74z" />
    <glyph glyph-name="uni0214" unicode="&#x214;" horiz-adv-x="1332" 
d="M353 1407h131l-149 -847q-29 -164 -29 -243q0 -132 81 -187q70 -48 214 -48q234 0 325 152q52 87 94 326l150 847h131l-167 -946q-22 -126 -46 -194t-67 -124q-128 -172 -435 -172q-224 0 -327 96q-85 80 -85 243q0 80 26 226zM1026 1534h-94l-155 257h187zM755 1534h-94
l-156 257h188z" />
    <glyph glyph-name="uni0215" unicode="&#x215;" horiz-adv-x="1133" 
d="M759 133q-187 -162 -376 -162q-118 0 -182.5 53.5t-64.5 150.5q0 71 27 225l103 585h129l-110 -627q-17 -93 -17 -147q0 -66 34 -96.5t108 -30.5q83 0 178 45t188 128l128 728h129l-174 -985h-101zM859 1126h-94l-155 257h188zM588 1126h-94l-155 257h187z" />
    <glyph glyph-name="uni0216" unicode="&#x216;" horiz-adv-x="1332" 
d="M353 1407h131l-149 -847q-29 -164 -29 -243q0 -132 81 -187q70 -48 214 -48q234 0 325 152q52 87 94 326l150 847h131l-167 -946q-22 -126 -46 -194t-67 -124q-128 -172 -435 -172q-224 0 -327 96q-85 80 -85 243q0 80 26 226zM1127 1525h-101q3 28 3 45q0 103 -158 103
q-92 0 -135.5 -32t-65.5 -116h-102q22 112 61 164q69 93 247 93q258 0 258 -185q0 -30 -7 -72z" />
    <glyph glyph-name="uni0217" unicode="&#x217;" horiz-adv-x="1133" 
d="M759 133q-187 -162 -376 -162q-118 0 -182.5 53.5t-64.5 150.5q0 71 27 225l103 585h129l-110 -627q-17 -93 -17 -147q0 -66 34 -96.5t108 -30.5q83 0 178 45t188 128l128 728h129l-174 -985h-101zM956 1116h-102q3 31 3 46q0 103 -158 103q-92 0 -135 -32t-66 -117h-101
q21 110 60 164q70 94 247 94q258 0 258 -184q0 -26 -6 -74z" />
    <glyph glyph-name="Scommaaccent" unicode="&#x218;" horiz-adv-x="1002" 
d="M7 53l67 113q132 -84 304 -84q211 0 307 102q86 92 86 214q0 98 -51 155q-39 44 -192 123q-113 59 -167 95.5t-94 81.5q-68 75 -68 190q0 180 127 291q117 102 322 102q193 0 346 -81l-68 -104q-127 74 -276 74q-155 0 -239 -80q-78 -74 -78 -186q0 -85 55 -140
q48 -47 227 -140q165 -86 219 -145q73 -80 73 -219q0 -108 -43.5 -199.5t-123.5 -150.5q-125 -94 -350 -94q-233 0 -383 82zM206 -498l135 372h143l-174 -372h-104z" />
    <glyph glyph-name="scommaaccent" unicode="&#x219;" horiz-adv-x="773" 
d="M-40 65l68 105q123 -92 255 -92q115 0 182.5 59.5t67.5 161.5q0 59 -27.5 86.5t-146.5 85.5q-135 66 -185 123t-50 143q0 128 89.5 202.5t241.5 74.5q159 0 283 -74l-74 -103q-92 69 -211 69q-104 0 -153 -49q-43 -44 -43 -114q0 -62 57 -102q29 -20 144 -80
q115 -59 157 -104q51 -55 51 -137q0 -67 -24.5 -133.5t-64.5 -109.5q-98 -106 -307 -106q-187 0 -310 94zM89 -498l135 372h143l-174 -372h-104z" />
    <glyph glyph-name="uni021A" unicode="&#x21a;" horiz-adv-x="1018" 
d="M357 0l229 1295h-423l28 112h968l-29 -112h-413l-229 -1295h-131zM193 -498l135 372h143l-174 -372h-104z" />
    <glyph glyph-name="uni021B" unicode="&#x21b;" horiz-adv-x="691" 
d="M298 875h-168l27 110h163l58 249l118 36l-50 -285h226l-28 -110h-217l-100 -564q-20 -114 -20 -158q0 -72 97 -72q60 0 119 32l33 -108q-93 -34 -185 -34q-196 0 -196 159q0 48 18 152zM58 -498l136 372h143l-175 -372h-104z" />
    <glyph glyph-name="uni0226" unicode="&#x226;" horiz-adv-x="1292" 
d="M959 463h-627l-269 -463h-145l828 1407h123l332 -1407h-136zM934 574l-152 666l-387 -666h539zM823 1760q37 0 64 -27.5t27 -66.5t-27.5 -66.5t-65.5 -27.5q-39 0 -66 27.5t-27 67.5q0 39 27.5 66t67.5 27z" />
    <glyph glyph-name="uni0227" unicode="&#x227;" horiz-adv-x="1085" 
d="M833 0h-135l9 120q-78 -79 -152.5 -114t-167.5 -35q-152 0 -237 89q-76 81 -76 247q0 122 34.5 245.5t95.5 219.5q152 242 436 242q129 0 339 -62l-104 -592q-40 -229 -42 -360zM835 864q-99 40 -197 40q-225 0 -341 -230q-41 -79 -65 -181.5t-24 -193.5q0 -112 54 -167
q51 -51 140 -51q150 0 261 119q39 42 57.5 82t30.5 107zM714 1350q37 0 64 -27.5t27 -66.5t-27 -66.5t-66 -27.5t-66 27.5t-27 67.5q0 39 27.5 66t67.5 27z" />
    <glyph glyph-name="uni0237" unicode="&#x237;" horiz-adv-x="536" 
d="M294 985h128l-169 -963q-33 -187 -90.5 -285t-195.5 -203l-50 53q106 120 144 209q40 94 83 339z" />
    <glyph glyph-name="uni0259" unicode="&#x259;" horiz-adv-x="1043" 
d="M816 505q10 55 10 103q0 130 -55 204q-69 94 -248 94q-84 0 -143.5 -20t-159.5 -82l-36 97q98 64 175 88.5t181 24.5q257 0 358 -161q67 -106 67 -259q0 -223 -122 -411q-136 -212 -393 -212q-220 0 -316 143q-58 87 -58 216q0 92 22 175h718zM795 402h-588
q-2 -35 -2 -61q0 -90 33 -154q57 -109 205 -109q263 0 352 324z" />
    <glyph glyph-name="afii57929" unicode="&#x2bc;" horiz-adv-x="362" 
d="M181 1012l129 442h147l-176 -442h-100z" />
    <glyph glyph-name="circumflex" unicode="&#x2c6;" horiz-adv-x="1024" 
d="M656 1284l-217 -158h-125l271 256h168l181 -256h-116z" />
    <glyph glyph-name="caron" unicode="&#x2c7;" horiz-adv-x="1024" 
d="M637 1224l217 158h125l-271 -256h-167l-182 256h116z" />
    <glyph glyph-name="uni02C9" unicode="&#x2c9;" horiz-adv-x="1024" 
d="M379 1199l19 108h516l-19 -108h-516z" />
    <glyph glyph-name="breve" unicode="&#x2d8;" horiz-adv-x="1024" 
d="M388 1372h101q-3 -31 -3 -46q0 -102 158 -102q92 0 134.5 31t66.5 117h101q-21 -111 -60 -163q-69 -93 -247 -93q-258 0 -258 185q0 28 7 71z" />
    <glyph glyph-name="dotaccent" unicode="&#x2d9;" horiz-adv-x="1024" 
d="M649 1350q37 0 64 -27.5t27 -66.5t-27 -66.5t-66 -27.5t-66 27.5t-27 67.5q0 39 27.5 66t67.5 27z" />
    <glyph glyph-name="ring" unicode="&#x2da;" horiz-adv-x="1024" 
d="M654 1461q83 0 132.5 -48.5t49.5 -128.5q0 -82 -50 -130.5t-135 -48.5q-83 0 -133.5 48.5t-50.5 129.5q0 83 50 130.5t137 47.5zM653 1397q-105 0 -105 -115q0 -113 103 -113q104 0 104 114t-102 114z" />
    <glyph glyph-name="ogonek" unicode="&#x2db;" horiz-adv-x="1024" 
d="M476 0h117q-140 -78 -198 -143t-58 -143q0 -53 38.5 -77t123.5 -24q56 0 115 9l4 -75q-81 -24 -164 -24q-123 0 -182.5 42t-59.5 130q0 92 62.5 164.5t201.5 140.5z" />
    <glyph glyph-name="tilde" unicode="&#x2dc;" horiz-adv-x="1024" 
d="M903 1358h83q-79 -227 -232 -227q-74 0 -146 74q-61 62 -100 62q-61 0 -120 -123h-83q82 227 233 227q74 0 146 -72q63 -64 100 -64q61 0 119 123z" />
    <glyph glyph-name="hungarumlaut" unicode="&#x2dd;" horiz-adv-x="1024" 
d="M447 1126l152 256h188l-246 -256h-94zM719 1126l152 256h187l-246 -256h-93z" />
    <glyph glyph-name="uni0312" unicode="&#x312;" horiz-adv-x="1024" 
d="M877 1383l-210 -257h-187l295 257h102z" />
    <glyph glyph-name="uni0313" unicode="&#x313;" horiz-adv-x="135" 
d="M88 1033l129 442h152l-177 -442h-104z" />
    <glyph glyph-name="uni031B" unicode="&#x31b;" horiz-adv-x="135" 
d="M88 1033l129 442h152l-177 -442h-104z" />
    <glyph glyph-name="uni0323" unicode="&#x323;" horiz-adv-x="1024" 
d="M377 -194q37 0 64 -28t27 -66q0 -40 -27.5 -67.5t-65.5 -27.5q-39 0 -66 27.5t-27 67.5q0 39 27.5 66.5t67.5 27.5z" />
    <glyph glyph-name="commaaccent" unicode="&#x326;" horiz-adv-x="1024" 
d="M226 -498l136 372h143l-175 -372h-104z" />
    <glyph glyph-name="pi" unicode="&#x3c0;" horiz-adv-x="1170" 
d="M134 0l154 875h-150l27 110h1018l-28 -110h-142l-154 -875h-129l155 875h-468l-154 -875h-129z" />
    <glyph glyph-name="uni04D8" unicode="&#x4d8;" horiz-adv-x="1385" 
d="M219 1072q58 104 115 166q181 198 482 198q249 0 374 -117q55 -52 85 -115q67 -143 67 -320q0 -156 -44 -314.5t-124 -288.5q-189 -310 -552 -310q-266 0 -392 155q-106 131 -106 367q0 106 25 248h1033q13 89 13 158q0 215 -99 318q-94 96 -286 96q-235 0 -375 -147
q-43 -45 -104 -144zM1162 631h-891q-10 -75 -10 -133q0 -128 40 -226q41 -100 134 -149q80 -42 183 -42q134 0 244 62.5t185 180.5q76 119 115 307z" />
    <glyph glyph-name="afii10846" unicode="&#x4d9;" horiz-adv-x="1043" 
d="M816 505q10 55 10 103q0 130 -55 204q-69 94 -248 94q-84 0 -143.5 -20t-159.5 -82l-36 97q98 64 175 88.5t181 24.5q257 0 358 -161q67 -106 67 -259q0 -223 -122 -411q-136 -212 -393 -212q-220 0 -316 143q-58 87 -58 216q0 92 22 175h718zM795 402h-588
q-2 -35 -2 -61q0 -90 33 -154q57 -109 205 -109q263 0 352 324z" />
    <glyph glyph-name="uni1E02" unicode="&#x1e02;" horiz-adv-x="1223" 
d="M112 0l248 1407h422q240 0 331 -69q94 -70 94 -210q0 -155 -93 -266q-73 -86 -205 -116q104 -20 155 -73q68 -72 68 -207q0 -115 -46 -217t-123 -159q-67 -50 -157.5 -70t-245.5 -20h-448zM384 798h238q160 0 234.5 19.5t126.5 74.5q41 43 65.5 106.5t24.5 125.5
q0 97 -76 139q-60 33 -246 33h-279zM263 111h272q138 0 214.5 15.5t126.5 53.5q55 42 87.5 119t32.5 168q0 130 -79.5 176.5t-300.5 46.5h-251zM798 1760q37 0 64 -27.5t27 -66.5t-27.5 -66.5t-65.5 -27.5q-39 0 -66 27.5t-27 67.5q0 39 27.5 66t67.5 27z" />
    <glyph glyph-name="uni1E03" unicode="&#x1e03;" horiz-adv-x="1096" 
d="M112 66l244 1385l133 26l-107 -606q144 143 323 143q312 0 312 -367q0 -123 -34 -244.5t-94 -212.5q-143 -219 -399 -219q-182 0 -378 95zM254 145q90 -64 223 -64q211 0 323 210q83 156 83 353q0 260 -192 260q-154 0 -267 -119q-40 -42 -59 -82t-31 -107zM756 1350
q37 0 64 -27.5t27 -66.5t-27 -66.5t-66 -27.5t-66 27.5t-27 67.5q0 39 27.5 66t67.5 27z" />
    <glyph glyph-name="uni1E0C" unicode="&#x1e0c;" horiz-adv-x="1314" 
d="M112 0l248 1407h323q279 0 416 -96q168 -119 168 -421q0 -267 -106 -496q-110 -237 -307 -326q-151 -68 -375 -68h-367zM263 112h187q223 0 346 62q179 91 269 338q66 181 66 368q0 306 -204 380q-96 35 -297 35h-159zM478 -194q37 0 64 -28t27 -66q0 -40 -27.5 -67.5
t-65.5 -27.5q-39 0 -66 27.5t-27 67.5q0 39 27.5 66.5t67.5 27.5z" />
    <glyph glyph-name="uni1E0D" unicode="&#x1e0d;" horiz-adv-x="1096" 
d="M862 955l88 496l133 26l-260 -1477h-98l-1 127q-149 -156 -332 -156q-148 0 -231 84q-86 87 -86 265q0 120 33 239t92 211q156 244 425 244q118 0 237 -59zM841 837q-81 67 -206 67q-222 0 -342 -231q-84 -162 -84 -350q0 -129 60 -189q54 -53 140 -53q69 0 139.5 31.5
t123.5 87.5q40 42 59.5 82.5t31.5 106.5zM412 -194q37 0 64 -28t27 -66q0 -40 -27 -67.5t-66 -27.5t-66 27.5t-27 67.5q0 39 27.5 66.5t67.5 27.5z" />
    <glyph glyph-name="uni1E1E" unicode="&#x1e1e;" horiz-adv-x="1027" 
d="M112 0l248 1407h775l-29 -112h-635l-87 -498h536l-29 -111h-527l-121 -686h-131zM800 1760q37 0 64 -27.5t27 -66.5t-27.5 -66.5t-65.5 -27.5q-39 0 -66 27.5t-27 67.5q0 39 27.5 66t67.5 27z" />
    <glyph glyph-name="uni1E1F" unicode="&#x1e1f;" horiz-adv-x="647" 
d="M297 874h-192l28 111h183l27 151q29 163 91 239q83 99 243 99q85 0 157 -31l-47 -103q-57 23 -115 23q-91 0 -136 -54.5t-70 -195.5l-23 -128h266l-29 -111h-256l-177 -998q-29 -166 -86 -243q-76 -101 -220 -101q-81 0 -152 29l48 103q55 -21 109 -21q85 0 126 73
q30 52 52 177zM533 1760q37 0 64 -27.5t27 -66.5t-27 -66.5t-66 -27.5t-66 27.5t-27 67.5q0 39 27.5 66t67.5 27z" />
    <glyph glyph-name="uni1E24" unicode="&#x1e24;" horiz-adv-x="1404" 
d="M112 0l248 1407h131l-108 -614h745l109 614h131l-248 -1407h-131l119 677h-745l-120 -677h-131zM567 -194q37 0 64 -27.5t27 -66.5q0 -40 -27 -67.5t-66 -27.5t-66 28t-27 67t27.5 66.5t67.5 27.5z" />
    <glyph glyph-name="uni1E25" unicode="&#x1e25;" horiz-adv-x="1161" 
d="M101 0l256 1451l133 26l-113 -645q120 101 208 141.5t188 40.5q125 0 196 -59q59 -48 59 -135q0 -69 -24 -207l-109 -613h-128l116 662q11 60 11 109q0 59 -25 88q-36 42 -124 42q-110 0 -241 -84q-82 -52 -152 -121l-122 -696h-129zM445 -194q37 0 64 -27.5t27 -66.5
q0 -40 -27 -67.5t-66 -27.5t-66 28t-27 67t27.5 66.5t67.5 27.5z" />
    <glyph glyph-name="uni1E44" unicode="&#x1e44;" horiz-adv-x="1443" 
d="M112 0l248 1407h131l579 -1182l209 1182h128l-248 -1407h-116l-592 1199l-211 -1199h-128zM960 1760q38 0 64.5 -27.5t26.5 -66.5t-27 -66.5t-66 -27.5t-66 28t-27 67t27.5 66t67.5 27z" />
    <glyph glyph-name="uni1E45" unicode="&#x1e45;" horiz-adv-x="1161" 
d="M101 0l174 985h99l-9 -150q214 179 410 179q118 0 184.5 -53t66.5 -148q0 -72 -26 -218l-105 -595h-128l114 651q14 77 14 122q0 127 -150 127q-89 0 -193.5 -54.5t-199.5 -149.5l-122 -696h-129zM718 1350q37 0 64 -27.5t27 -66.5t-27 -66.5t-66 -27.5t-66 27.5
t-27 67.5q0 39 27.5 66t67.5 27z" />
    <glyph glyph-name="uni1E5A" unicode="&#x1e5a;" horiz-adv-x="1212" 
d="M349 601l-106 -601h-131l248 1407h377q206 0 308 -60q119 -70 119 -252q0 -92 -35.5 -187t-92.5 -156q-74 -79 -194 -111q37 -28 58.5 -64t48.5 -118l150 -459h-149l-104 332q-61 194 -88 231.5t-107 37.5h-302zM368 708h208q144 0 224.5 22t126.5 74q45 50 73 130.5
t28 158.5q0 117 -74 160t-274 43h-208zM500 -194q37 0 64 -28t27 -66q0 -40 -27 -67.5t-66 -27.5t-66 27.5t-27 67.5q0 39 27.5 66.5t67.5 27.5z" />
    <glyph glyph-name="uni1E5B" unicode="&#x1e5b;" horiz-adv-x="719" 
d="M101 0l174 985h99l-13 -176q131 105 227 145t221 41l-28 -113q-217 -5 -433 -213l-118 -669h-129zM127 -194q37 0 64 -28t27 -66q0 -40 -27.5 -67.5t-65.5 -27.5q-39 0 -66 27.5t-27 67.5q0 39 27.5 66.5t67.5 27.5z" />
    <glyph glyph-name="uni1E62" unicode="&#x1e62;" horiz-adv-x="1002" 
d="M7 53l67 113q132 -84 304 -84q211 0 307 102q86 92 86 214q0 98 -51 155q-39 44 -192 123q-113 59 -167 95.5t-94 81.5q-68 75 -68 190q0 180 127 291q117 102 322 102q193 0 346 -81l-68 -104q-127 74 -276 74q-155 0 -239 -80q-78 -74 -78 -186q0 -85 55 -140
q48 -47 227 -140q165 -86 219 -145q73 -80 73 -219q0 -108 -43.5 -199.5t-123.5 -150.5q-125 -94 -350 -94q-233 0 -383 82zM354 -194q37 0 64 -28t27 -66q0 -40 -27 -67.5t-66 -27.5t-66 27.5t-27 67.5q0 39 27.5 66.5t67.5 27.5z" />
    <glyph glyph-name="uni1E63" unicode="&#x1e63;" horiz-adv-x="773" 
d="M-40 65l68 105q123 -92 255 -92q115 0 182.5 59.5t67.5 161.5q0 59 -27.5 86.5t-146.5 85.5q-135 66 -185 123t-50 143q0 128 89.5 202.5t241.5 74.5q159 0 283 -74l-74 -103q-92 69 -211 69q-104 0 -153 -49q-43 -44 -43 -114q0 -62 57 -102q29 -20 144 -80
q115 -59 157 -104q51 -55 51 -137q0 -67 -24.5 -133.5t-64.5 -109.5q-98 -106 -307 -106q-187 0 -310 94zM233 -194q37 0 64 -28t27 -66q0 -40 -27.5 -67.5t-65.5 -27.5q-39 0 -66 27.5t-27 67.5q0 39 27.5 66.5t67.5 27.5z" />
    <glyph glyph-name="uni1E6C" unicode="&#x1e6c;" horiz-adv-x="1018" 
d="M357 0l229 1295h-423l28 112h968l-29 -112h-413l-229 -1295h-131zM373 -194q37 0 64 -28t27 -66q0 -40 -27 -67.5t-66 -27.5t-66 27.5t-27 67.5q0 39 27.5 66.5t67.5 27.5z" />
    <glyph glyph-name="uni1E6D" unicode="&#x1e6d;" horiz-adv-x="691" 
d="M298 875h-168l27 110h164l57 249l119 36l-51 -285h227l-29 -110h-217l-99 -564q-21 -117 -21 -158q0 -72 97 -72q60 0 119 32l33 -108q-93 -34 -185 -34q-196 0 -196 159q0 46 19 152zM210 -194q37 0 64 -28t27 -66q0 -40 -27.5 -67.5t-65.5 -27.5q-39 0 -66 27.5
t-27 67.5q0 39 27.5 66.5t67.5 27.5z" />
    <glyph glyph-name="Wgrave" unicode="&#x1e80;" horiz-adv-x="1727" 
d="M311 0l-117 1407h132l86 -1208l552 1208h125l128 -1212l502 1212h136l-606 -1407h-130l-125 1206l-551 -1206h-132zM1162 1534h-100l-196 256h185z" />
    <glyph glyph-name="wgrave" unicode="&#x1e81;" horiz-adv-x="1494" 
d="M282 0l-151 985h132l103 -820l393 820h103l149 -828q299 378 299 596q0 43 -17.5 74.5t-67.5 81.5l80 89q71 -57 102 -109.5t31 -115.5q0 -154 -129 -369q-105 -175 -291 -404h-96l-140 803l-384 -803h-116zM973 1126h-100l-196 256h186z" />
    <glyph glyph-name="Wacute" unicode="&#x1e82;" horiz-adv-x="1727" 
d="M311 0l-117 1407h132l86 -1208l552 1208h125l128 -1212l502 1212h136l-606 -1407h-130l-125 1206l-551 -1206h-132zM943 1534l201 256h187l-287 -256h-101z" />
    <glyph glyph-name="wacute" unicode="&#x1e83;" horiz-adv-x="1494" 
d="M282 0l-151 985h132l103 -820l393 820h103l149 -828q299 378 299 596q0 43 -17.5 74.5t-67.5 81.5l80 89q71 -57 102 -109.5t31 -115.5q0 -154 -129 -369q-105 -175 -291 -404h-96l-140 803l-384 -803h-116zM754 1126l201 256h187l-286 -256h-102z" />
    <glyph glyph-name="Wdieresis" unicode="&#x1e84;" horiz-adv-x="1727" 
d="M311 0l-117 1407h132l86 -1208l552 1208h125l128 -1212l502 1212h136l-606 -1407h-130l-125 1206l-551 -1206h-132zM862 1759q37 0 63.5 -27t26.5 -65q0 -39 -27 -66t-65 -27t-65 27.5t-27 65.5q0 39 27 65.5t67 26.5zM1240 1759q37 0 63.5 -27t26.5 -65q0 -39 -27 -66
t-65 -27t-65 27t-27 66t27 65.5t67 26.5z" />
    <glyph glyph-name="wdieresis" unicode="&#x1e85;" horiz-adv-x="1494" 
d="M282 0l-151 985h132l103 -820l393 820h103l149 -828q299 378 299 596q0 43 -17.5 74.5t-67.5 81.5l80 89q71 -57 102 -109.5t31 -115.5q0 -154 -129 -369q-105 -175 -291 -404h-96l-140 803l-384 -803h-116zM667 1349q37 0 63.5 -27t26.5 -65q0 -39 -27 -66t-65 -27
t-65 27t-27 66t27 65.5t67 26.5zM986 1349q37 0 63.5 -27t26.5 -65q0 -39 -27 -66t-65 -27t-65 27t-27 66t27 65.5t67 26.5z" />
    <glyph glyph-name="uni1E92" unicode="&#x1e92;" horiz-adv-x="1051" 
d="M-48 0l16 95l977 1200h-680l29 112h825l-3 -95l-977 -1200h804l-30 -112h-961zM413 -194q37 0 64 -28t27 -66q0 -40 -27 -67.5t-66 -27.5t-66 27.5t-27 67.5q0 39 27.5 66.5t67.5 27.5z" />
    <glyph glyph-name="uni1E93" unicode="&#x1e93;" horiz-adv-x="859" 
d="M-3 0l-17 101l681 774h-80q-278 0 -403 42l38 105q144 -37 422 -37h173l21 -94l-691 -781q93 8 166 8q264 0 446 -68l-46 -104q-175 62 -451 62q-98 0 -259 -8zM294 -194q37 0 64 -27.5t27 -66.5q0 -40 -27 -67.5t-66 -27.5t-66 27.5t-27 67.5q0 39 27.5 66.5t67.5 27.5z
" />
    <glyph glyph-name="Ygrave" unicode="&#x1ef2;" horiz-adv-x="1087" 
d="M390 0l98 556l-307 851h135l256 -735l513 735h144l-610 -851l-98 -556h-131zM843 1534h-101l-196 256h186z" />
    <glyph glyph-name="ygrave" unicode="&#x1ef3;" horiz-adv-x="932" 
d="M310 2l-209 983h132l171 -861q26 33 39 49q119 150 160.5 210.5t79.5 139.5q67 139 67 229q0 43 -16.5 75.5t-64.5 81.5l82 89q70 -56 101.5 -109t31.5 -116q0 -135 -101 -314q-46 -82 -87.5 -140t-214.5 -278q-199 -253 -321 -514l-119 49q107 208 269 426zM624 1126
h-100l-197 256h186z" />
    <glyph glyph-name="uni2011" unicode="&#x2011;" horiz-adv-x="707" 
d="M84 587l43 114h549l-43 -114h-549z" />
    <glyph glyph-name="figuredash" unicode="&#x2012;" 
d="M128 587l42 114h903l-42 -114h-903z" />
    <glyph glyph-name="endash" unicode="&#x2013;" 
d="M128 587l42 114h903l-42 -114h-903z" />
    <glyph glyph-name="emdash" unicode="&#x2014;" 
d="M-96 587l20 114h1368l-21 -114h-1367z" />
    <glyph glyph-name="afii00208" unicode="&#x2015;" 
d="M-96 587l20 114h1368l-21 -114h-1367z" />
    <glyph glyph-name="quoteleft" unicode="&#x2018;" horiz-adv-x="362" 
d="M442 1454l-129 -442h-147l177 442h99z" />
    <glyph glyph-name="quoteright" unicode="&#x2019;" horiz-adv-x="362" 
d="M181 1012l129 442h147l-176 -442h-100z" />
    <glyph glyph-name="quotesinglbase" unicode="&#x201a;" horiz-adv-x="362" 
d="M-46 -276l129 442h147l-176 -442h-100z" />
    <glyph glyph-name="quotereversed" unicode="&#x201b;" horiz-adv-x="362" 
d="M457 1012h-99l-177 442h147z" />
    <glyph glyph-name="quotedblleft" unicode="&#x201c;" horiz-adv-x="590" 
d="M671 1454l-129 -442h-147l176 442h100zM442 1454l-129 -442h-147l177 442h99z" />
    <glyph glyph-name="quotedblright" unicode="&#x201d;" horiz-adv-x="590" 
d="M181 1012l129 442h147l-176 -442h-100zM410 1012l128 442h148l-177 -442h-99z" />
    <glyph glyph-name="quotedblbase" unicode="&#x201e;" horiz-adv-x="590" 
d="M-46 -276l129 442h147l-176 -442h-100zM183 -276l128 442h148l-177 -442h-99z" />
    <glyph glyph-name="dagger" unicode="&#x2020;" 
d="M570 819h-360l28 114h352l83 474h131l-83 -474h361l-29 -114h-352l-218 -1233h-131z" />
    <glyph glyph-name="daggerdbl" unicode="&#x2021;" 
d="M570 819h-360l28 114h352l83 474h132l-84 -474h361l-29 -114h-352l-99 -561h361l-29 -114h-352l-99 -558h-131l99 558h-360l28 114h352z" />
    <glyph glyph-name="bullet" unicode="&#x2022;" 
d="M619 981q109 0 183 -81q64 -71 64 -171q0 -115 -82 -189q-71 -63 -170 -63q-114 0 -188 82q-64 71 -64 173q0 112 82 186q71 63 175 63z" />
    <glyph glyph-name="ellipsis" unicode="&#x2026;" horiz-adv-x="1720" 
d="M215 173q41 0 70 -29.5t29 -71.5t-29.5 -71.5t-71.5 -29.5t-71.5 29.5t-29.5 72.5q0 42 30 71t73 29zM788 173q41 0 70 -29.5t29 -71.5t-29.5 -71.5t-71.5 -29.5t-71.5 29.5t-29.5 72.5q0 42 30 71t73 29zM1362 173q41 0 70 -29.5t29 -71.5t-29.5 -71.5t-71.5 -29.5
t-71.5 29.5t-29.5 72.5q0 42 30 71t73 29z" />
    <glyph glyph-name="perthousand" unicode="&#x2030;" horiz-adv-x="2313" 
d="M553 1436q117 0 181 -71q62 -68 62 -189q0 -91 -24 -184t-62 -152q-94 -144 -266 -144q-126 0 -190 71q-61 68 -61 190q0 91 23.5 183.5t62.5 151.5q94 144 274 144zM547 1349q-130 0 -190 -141q-22 -50 -36.5 -126.5t-14.5 -139.5q0 -159 140 -159q126 0 186 141
q51 119 51 266q0 75 -35 116q-35 43 -101 43zM1262 711q116 0 180 -71q62 -68 62 -188q0 -92 -24 -185t-62 -152q-94 -144 -266 -144q-126 0 -189 71q-61 68 -61 191q0 91 23.5 183t62.5 151q94 144 274 144zM1255 624q-130 0 -189 -141q-51 -119 -51 -265q0 -160 139 -160
q127 0 186 141q51 119 51 267q0 74 -36 116t-100 42zM1952 711q116 0 180 -71q62 -68 62 -189q0 -91 -23.5 -184t-62.5 -152q-94 -144 -266 -144q-126 0 -189 71q-61 68 -61 190q0 92 23.5 183.5t62.5 151.5q94 144 274 144zM1945 624q-129 0 -189 -141q-51 -118 -51 -265
q0 -160 140 -160q126 0 185 141q51 119 51 266q0 74 -35 116q-35 43 -101 43zM420 0l746 1407h111l-746 -1407h-111z" />
    <glyph glyph-name="guilsinglleft" unicode="&#x2039;" horiz-adv-x="496" 
d="M251 535l126 -267l-68 -43l-222 308l4 20l330 308l50 -59z" />
    <glyph glyph-name="guilsinglright" unicode="&#x203a;" horiz-adv-x="496" 
d="M263 551l-126 267l68 43l222 -308l-4 -20l-331 -308l-49 59z" />
    <glyph glyph-name="uni203E" unicode="&#x203e;" horiz-adv-x="1024" 
d="M155 1717l16 92h1146l-16 -92h-1146z" />
    <glyph glyph-name="glyph452" unicode="&#x2044;" horiz-adv-x="246" 
d="M-378 0l967 1407h109l-967 -1407h-109z" />
    <glyph glyph-name="zerosuperior" unicode="&#x2070;" horiz-adv-x="737" 
d="M554 1629q143 0 209 -76q54 -62 54 -194q0 -65 -20.5 -182t-44.5 -186q-84 -245 -321 -245q-133 0 -198 62q-68 64 -68 202q0 72 20.5 187t45.5 189q46 132 129 190q77 53 194 53zM553 1547q-159 0 -222 -209q-21 -69 -37.5 -169.5t-16.5 -161.5q0 -178 154 -178
q156 0 219 209q21 67 37.5 168.5t16.5 159.5q0 181 -151 181z" />
    <glyph glyph-name="foursuperior" unicode="&#x2074;" horiz-adv-x="737" 
d="M513 996h-394l13 74l482 542h117l-94 -534h127l-23 -82h-119l-41 -234h-109zM529 1076l72 408l-360 -408h288z" />
    <glyph glyph-name="fivesuperior" unicode="&#x2075;" horiz-adv-x="737" 
d="M253 1164l96 448h452l-30 -83h-337l-62 -283q78 42 162 42q229 0 229 -197q0 -160 -101 -252.5t-275 -92.5q-147 0 -250 62l55 81q88 -61 195 -61q160 0 221 103q42 71 42 151q0 125 -138 125q-72 0 -186 -63z" />
    <glyph glyph-name="sixsuperior" unicode="&#x2076;" horiz-adv-x="737" 
d="M327 1231q84 73 201 73q110 0 175 -55q66 -57 66 -161q0 -123 -71 -222q-87 -120 -265 -120q-253 0 -253 232q0 96 30 221t72 206q116 224 359 224q91 0 174 -29l-47 -80q-63 27 -120 27q-137 0 -224 -108q-51 -64 -97 -208zM517 1222q-101 0 -165.5 -68t-64.5 -175
q0 -150 151 -150q115 0 176 103q42 71 42 151q0 66 -36.5 102.5t-102.5 36.5z" />
    <glyph glyph-name="sevensuperior" unicode="&#x2077;" horiz-adv-x="737" 
d="M724 1529h-465l27 83h570l-9 -51l-497 -799h-128z" />
    <glyph glyph-name="eightsuperior" unicode="&#x2078;" horiz-adv-x="737" 
d="M327 1213q-81 50 -81 147q0 125 83 197t227 72q255 0 255 -189q0 -166 -149 -234q110 -51 110 -168q0 -143 -88.5 -217.5t-258.5 -74.5q-145 0 -215 48.5t-70 149.5q0 102 45.5 167t141.5 102zM556 1547q-101 0 -154 -60q-44 -50 -44 -124q0 -117 143 -117q107 0 160 70
q37 50 37 116q0 115 -142 115zM491 1164q-133 0 -191 -70q-47 -56 -47 -141q0 -124 175 -124q127 0 185 67q47 55 47 139q0 129 -169 129z" />
    <glyph glyph-name="ninesuperior" unicode="&#x2079;" horiz-adv-x="737" 
d="M656 1146q-87 -68 -205 -68q-107 0 -167 49q-69 56 -69 162q0 60 22.5 124.5t59.5 110.5q86 105 252 105q254 0 254 -231q0 -97 -29.5 -221t-71.5 -206q-116 -225 -359 -225q-87 0 -175 28l47 80q62 -25 121 -25q136 0 222 107q53 66 98 210zM547 1546q-108 0 -168 -87
q-51 -76 -51 -164q0 -134 142 -134q99 0 162.5 65.5t63.5 168.5q0 151 -149 151z" />
    <glyph glyph-name="zeroinferior" unicode="&#x2080;" horiz-adv-x="737" 
d="M383 662q143 0 209 -76q54 -63 54 -194q0 -65 -20.5 -181.5t-44.5 -186.5q-84 -245 -321 -245q-133 0 -198 62q-68 64 -68 201q0 72 20.5 187.5t45.5 189.5q46 132 129 190q77 53 194 53zM382 579q-82 0 -135.5 -50t-86.5 -159q-21 -70 -37.5 -170t-16.5 -161
q0 -178 154 -178q156 0 219 209q21 68 37.5 169t16.5 160q0 180 -151 180z" />
    <glyph glyph-name="oneinferior" unicode="&#x2081;" horiz-adv-x="737" 
d="M230 -205l132 750l-162 -44l-14 75l213 69h91l-150 -850h-110z" />
    <glyph glyph-name="twoinferior" unicode="&#x2082;" horiz-adv-x="737" 
d="M-40 -205l13 75l337 300q111 99 155.5 164t44.5 129q0 118 -145 118q-104 0 -234 -84l-43 75q81 51 144.5 71.5t139.5 20.5q251 0 251 -192q0 -88 -50.5 -166t-176.5 -186l-283 -242h428l-15 -83h-566z" />
    <glyph glyph-name="threeinferior" unicode="&#x2083;" horiz-adv-x="737" 
d="M216 206l15 81h34q97 0 163.5 55t66.5 135q0 103 -140 103q-55 0 -95 -12t-133 -58l-36 76q130 77 273 77q118 0 180.5 -44.5t62.5 -127.5q0 -168 -174 -233q141 -43 141 -173q0 -142 -100 -224t-273 -82q-157 0 -257 64l57 83q94 -65 196 -65q161 0 227 95q37 53 37 117
q0 68 -47.5 100.5t-147.5 32.5h-50z" />
    <glyph glyph-name="fourinferior" unicode="&#x2084;" horiz-adv-x="737" 
d="M343 29h-394l13 74l482 542h117l-94 -534h127l-23 -82h-119l-41 -234h-109zM359 109l72 408l-360 -408h288z" />
    <glyph glyph-name="fiveinferior" unicode="&#x2085;" horiz-adv-x="737" 
d="M83 197l96 448h452l-30 -83h-337l-62 -283q78 42 163 42q228 0 228 -197q0 -160 -101 -252.5t-275 -92.5q-146 0 -250 62l55 81q88 -61 195 -61q160 0 221 102q42 72 42 153q0 124 -138 124q-71 0 -186 -63z" />
    <glyph glyph-name="sixinferior" unicode="&#x2086;" horiz-adv-x="737" 
d="M156 264q83 72 201 72q110 0 175 -55q66 -57 66 -160q0 -124 -71 -222q-87 -120 -265 -120q-253 0 -253 231q0 97 29.5 221.5t72.5 206.5q116 224 359 224q93 0 174 -29l-47 -80q-62 26 -121 26q-118 0 -191.5 -72.5t-128.5 -242.5zM346 254q-100 0 -165 -68t-65 -174
q0 -151 151 -151q115 0 176 103q42 71 42 150q0 66 -36.5 103t-102.5 37z" />
    <glyph glyph-name="seveninferior" unicode="&#x2087;" horiz-adv-x="737" 
d="M554 562h-465l27 83h569l-8 -51l-497 -799h-128z" />
    <glyph glyph-name="eightinferior" unicode="&#x2088;" horiz-adv-x="737" 
d="M156 246q-81 49 -81 146q0 126 82.5 198t227.5 72q255 0 255 -190q0 -165 -149 -233q110 -52 110 -168q0 -143 -88.5 -217.5t-258.5 -74.5q-145 0 -215 48.5t-70 149.5q0 102 45 167t142 102zM385 579q-101 0 -154 -60q-44 -50 -44 -123q0 -117 143 -117q107 0 160 70
q37 49 37 115q0 115 -142 115zM320 197q-133 0 -191 -70q-47 -57 -47 -141q0 -125 175 -125q127 0 185 68q47 54 47 139q0 129 -169 129z" />
    <glyph glyph-name="nineinferior" unicode="&#x2089;" horiz-adv-x="737" 
d="M486 179q-88 -68 -206 -68q-107 0 -167 49q-69 56 -69 162q0 60 22.5 124.5t60.5 109.5q85 106 251 106q254 0 254 -228q0 -98 -29 -222.5t-72 -206.5q-115 -226 -359 -226q-88 0 -175 28l47 80q61 -26 120 -26q136 0 223 108q53 64 99 210zM376 579q-108 0 -168 -88
q-51 -75 -51 -163q0 -135 142 -135q99 0 162.5 65.5t63.5 168.5q0 152 -149 152z" />
    <glyph glyph-name="franc" unicode="&#x20a3;" horiz-adv-x="1677" 
d="M112 0l248 1407h775l-29 -114h-635l-87 -495h536l-29 -112h-527l-121 -686h-131zM965 0l153 868h99l-14 -176q132 106 227 145.5t222 40.5l-28 -114q-217 -5 -434 -213l-97 -551h-128z" />
    <glyph glyph-name="lira" unicode="&#x20a4;" 
d="M308 512h-196l36 92h177l26 148h-198l36 92h178l27 150q19 106 46 165.5t79 111.5q126 125 360 125q167 0 324 -70l-66 -112q-115 69 -259 69q-187 0 -279 -115q-59 -74 -89 -245l-14 -79h350l-36 -92h-330l-26 -148h350l-36 -92h-330l-71 -400h638l-28 -112h-920l28 112
h152z" />
    <glyph glyph-name="peseta" unicode="&#x20a7;" horiz-adv-x="1154" 
d="M286 931h-149l36 92h129l68 384h309q232 0 340 -66q129 -79 129 -282q0 -16 -2 -36h147l-36 -92h-126q-47 -195 -184.5 -283t-393.5 -88h-203l-99 -560h-129zM415 931l-45 -260h180q204 0 303 57.5t144 202.5h-582zM432 1023h583q2 14 2 28q0 150 -97 202q-79 43 -259 43
h-181z" />
    <glyph glyph-name="Euro" unicode="&#x20ac;" 
d="M2 506l56 95h122q10 87 27 157h-161l56 95h130q182 583 678 583q225 0 362 -108l-63 -105q-124 102 -298 102q-389 0 -538 -472h613l-56 -95h-584q-16 -71 -29 -157h519l-56 -95h-470q1 -138 34 -224q77 -200 337 -200q174 0 324 102l44 -101q-161 -112 -385 -112
q-353 0 -450 275q-37 102 -40 260h-172z" />
    <glyph glyph-name="uni2101" unicode="&#x2101;" horiz-adv-x="1553" 
d="M321 0l967 1407h107l-967 -1407h-107zM919 40l53 82q61 -66 161 -66q88 0 136.5 40.5t48.5 114.5q0 37 -21.5 58t-95.5 55q-91 42 -125.5 77.5t-34.5 88.5q0 98 68.5 159t177.5 61q94 0 182 -51l-52 -74q-70 48 -145 48q-65 0 -102 -32t-37 -88q0 -34 21 -52t114 -63
q83 -41 113 -74t30 -85q0 -120 -77 -189.5t-211 -69.5q-129 0 -204 60zM654 713h-95l6 84q-102 -104 -223 -104q-107 0 -163.5 60.5t-56.5 174.5q0 182 91 326q107 169 306 169q95 0 237 -44l-73 -414q-28 -158 -29 -252zM655 1317q-70 29 -138 29q-157 0 -239 -161
q-62 -122 -62 -263q0 -152 136 -152q104 0 182 83q48 51 62 132z" />
    <glyph glyph-name="afii61248" unicode="&#x2105;" horiz-adv-x="1535" 
d="M636 841l31 -69q-113 -80 -246 -80q-251 0 -251 260q0 87 29 176t79 155q105 138 280 138q112 0 198 -60l-48 -73q-76 56 -162 56q-140 0 -219 -138q-61 -108 -61 -237q0 -96 48 -148t138 -52t184 72zM1204 710q120 0 185.5 -69.5t65.5 -196.5q0 -184 -96 -317
q-105 -147 -291 -147q-123 0 -189 69.5t-66 198.5q0 83 26 169t70 147q105 146 295 146zM1189 633q-154 0 -230 -152q-51 -104 -51 -221q0 -203 178 -203q148 0 223 152q51 104 51 225q0 199 -171 199zM288 0l967 1407h107l-967 -1407h-107z" />
    <glyph glyph-name="afii61289" unicode="&#x2113;" horiz-adv-x="983" 
d="M465 592q-25 -133 -45 -274.5t-20 -184.5q0 -54 38 -54q33 0 67 43.5t54 111.5l70 -31q-85 -243 -234 -243q-74 0 -116.5 53t-42.5 146q0 71 19 274l-122 -108l-37 60q9 7 52 52q75 77 124 133q77 413 178 669q107 270 265 270q66 0 107 -50t41 -131q0 -197 -143 -426
q-78 -126 -255 -310zM485 718q102 112 161 212q55 93 91 205.5t36 189.5q0 36 -15.5 59t-40.5 23q-60 0 -99 -102q-60 -159 -133 -587z" />
    <glyph glyph-name="afii61352" unicode="&#x2116;" horiz-adv-x="2497" 
d="M112 0l248 1407h131l579 -1182l209 1182h128l-248 -1407h-116l-592 1199l-211 -1199h-128zM2005 1193q164 0 257 -101q91 -99 91 -264q0 -106 -34 -214.5t-90 -179.5q-144 -185 -371 -185q-165 0 -255 94q-98 102 -98 268q0 111 34 219.5t91 181.5q143 181 375 181z
M1996 1084q-195 0 -292 -191q-66 -129 -66 -274q0 -261 228 -261q193 0 288 193q66 132 66 270q0 263 -224 263zM1385 0l30 110h821l-29 -110h-822z" />
    <glyph glyph-name="uni2117" unicode="&#x2117;" horiz-adv-x="1694" 
d="M678 179v985h247q189 0 266 -72q84 -78 84 -223q0 -153 -89 -225t-278 -72h-138v-393h-92zM770 652h125q165 0 222 52q62 57 62 162q0 121 -72 175q-57 43 -207 43h-130v-432zM898 1452q313 0 523 -212q211 -212 211 -532q0 -318 -211 -531q-209 -212 -534 -212
q-323 0 -533 212q-211 213 -211 530q0 225 110 405q101 167 279 259q157 81 366 81zM897 1372q-298 0 -483 -201q-172 -186 -172 -464q0 -274 172 -461q184 -201 474 -201t475 201q171 187 171 462q0 281 -171 463q-191 201 -466 201z" />
    <glyph glyph-name="trademark" unicode="&#x2122;" horiz-adv-x="1689" 
d="M710 557l215 850h134l149 -674l386 674h135l-85 -850h-109l71 684l-392 -684h-72l-151 684l-170 -684h-111zM274 557l132 749h-267l24 101h648l-25 -101h-260l-132 -749h-120z" />
    <glyph glyph-name="Omega" unicode="&#x2126;" horiz-adv-x="1459" 
d="M46 0l19 110h341q-74 56 -123 111q-140 159 -140 374q0 258 142 491q214 350 596 350q180 0 309 -81q125 -78 180 -236q40 -115 40 -252q0 -316 -192 -537q-100 -116 -283 -220h334l-19 -110h-515l19 112q166 70 308 206q119 114 173 307q39 140 39 275q0 180 -94 300
q-98 125 -301 125q-216 0 -366 -148q-132 -129 -189 -320q-46 -156 -46 -295q0 -107 38 -190t124 -162q65 -61 140 -98l-20 -112h-514z" />
    <glyph glyph-name="estimated" unicode="&#x212e;" horiz-adv-x="1501" 
d="M1336 607h-943v-251q20 -69 40 -105.5t53 -66.5q94 -84 262 -84q152 0 249 62t154 195h136q-106 -381 -541 -381q-279 0 -432 178q-150 173 -150 471q0 317 165 495q160 172 426 172q220 0 372 -113q186 -139 205 -421q2 -30 4 -151zM1114 709v219q-20 57 -54 97
q-65 76 -139 109.5t-177 33.5q-164 0 -257 -99q-43 -46 -88 -141v-219h715z" />
    <glyph glyph-name="onethird" unicode="&#x2153;" horiz-adv-x="1720" 
d="M365 557l132 749l-163 -45l-13 77l213 69h90l-149 -850h-110zM1236 411l14 81h35q95 0 160 53q70 57 70 137q0 103 -140 103q-54 0 -99 -14t-130 -57l-35 77q127 77 272 77q119 0 181.5 -44.5t62.5 -129.5q0 -165 -175 -231q141 -43 141 -174q0 -141 -100.5 -223
t-273.5 -82q-155 0 -256 64l58 84q92 -65 195 -65q120 0 192 58t72 153q0 68 -47 100.5t-147 32.5h-50zM286 0l967 1407h109l-967 -1407h-109z" />
    <glyph glyph-name="twothirds" unicode="&#x2154;" horiz-adv-x="1720" 
d="M94 557l13 76l337 299q110 98 155 164t45 130q0 117 -145 117q-104 0 -234 -85l-42 76q144 92 283 92q251 0 251 -191q0 -89 -51 -168t-176 -185l-283 -241h421l-14 -84h-560zM1236 411l14 81h34q96 0 161 53q69 57 69 137q0 49 -36.5 76t-102.5 27q-54 0 -95 -12.5
t-129 -56.5l-35 77q127 75 267 75q118 0 180.5 -44.5t62.5 -129.5q0 -165 -174 -231q141 -43 141 -174q0 -141 -100.5 -223t-273.5 -82q-155 0 -256 64l57 84q92 -65 196 -65q161 0 227 95q37 53 37 116q0 68 -47 100.5t-148 32.5h-49zM359 0l967 1407h109l-966 -1407h-110z
" />
    <glyph glyph-name="uni2155" unicode="&#x2155;" horiz-adv-x="1720" 
d="M365 557l132 749l-163 -45l-13 77l213 69h90l-149 -850h-110zM1103 402l95 448h452l-30 -84h-336l-63 -281q79 41 163 41q228 0 228 -197q0 -160 -101 -252.5t-274 -92.5q-150 0 -251 62l55 82q88 -61 196 -61q159 0 220 102q42 71 42 151q0 124 -139 124q-72 0 -185 -62
zM286 0l967 1407h109l-967 -1407h-109z" />
    <glyph glyph-name="uni2156" unicode="&#x2156;" horiz-adv-x="1720" 
d="M94 557l13 76l337 299q110 98 155 164t45 130q0 117 -145 117q-104 0 -234 -85l-42 76q144 92 283 92q251 0 251 -191q0 -89 -51 -168t-176 -185l-283 -241h421l-14 -84h-560zM1102 402l96 448h452l-30 -84h-337l-62 -281q79 41 162 41q229 0 229 -197
q0 -160 -101 -252.5t-274 -92.5q-150 0 -251 62l55 82q87 -61 196 -61q159 0 220 102q42 71 42 151q0 124 -139 124q-72 0 -185 -62zM359 0l967 1407h109l-966 -1407h-110z" />
    <glyph glyph-name="uni2157" unicode="&#x2157;" horiz-adv-x="1720" 
d="M350 967l15 82h34q97 0 163.5 55t66.5 135q0 103 -140 103q-54 0 -99 -14t-130 -57l-35 77q128 77 273 77q118 0 180.5 -44.5t62.5 -128.5q0 -167 -174 -232q141 -43 141 -173q0 -142 -100.5 -224t-273.5 -82q-156 0 -256 64l57 84q92 -65 196 -65q120 0 192 58t72 153
q0 68 -47 100t-148 32h-50zM1102 402l96 448h451l-30 -84h-336l-63 -281q79 41 163 41q229 0 229 -197q0 -160 -101 -252.5t-275 -92.5q-150 0 -250 62l54 82q88 -61 196 -61q160 0 221 102q42 71 42 151q0 124 -139 124q-73 0 -186 -62zM358 0l967 1407h109l-967 -1407
h-109z" />
    <glyph glyph-name="uni2158" unicode="&#x2158;" horiz-adv-x="1720" 
d="M477 791h-394l13 75l482 541h117l-94 -534h127l-23 -82h-119l-41 -234h-109zM493 872l72 405l-360 -405h288zM1102 402l96 448h452l-30 -84h-337l-62 -281q79 41 162 41q229 0 229 -197q0 -160 -101 -252.5t-274 -92.5q-150 0 -251 62l55 82q87 -61 196 -61
q159 0 220 102q42 71 42 151q0 124 -139 124q-72 0 -185 -62zM360 0l966 1407h110l-967 -1407h-109z" />
    <glyph glyph-name="uni2159" unicode="&#x2159;" horiz-adv-x="1720" 
d="M365 557l132 749l-163 -45l-13 77l213 69h90l-149 -850h-110zM1172 470q84 72 201 72q111 0 175 -55q66 -57 66 -161q0 -124 -71 -222q-87 -120 -265 -120q-253 0 -253 231q0 97 29.5 221.5t72.5 207.5q116 223 359 223q90 0 174 -29l-47 -81q-62 27 -120 27
q-136 0 -224 -107q-50 -62 -97 -207zM1362 459q-101 0 -165.5 -68t-64.5 -174q0 -150 151 -150q115 0 176 103q42 71 42 149q0 67 -36.5 103.5t-102.5 36.5zM286 0l967 1407h109l-967 -1407h-109z" />
    <glyph glyph-name="uni215A" unicode="&#x215a;" horiz-adv-x="1720" 
d="M217 959l96 448h452l-30 -84h-337l-62 -281q78 41 162 41q229 0 229 -197q0 -160 -101 -252.5t-275 -92.5q-148 0 -250 62l55 82q88 -61 196 -61q159 0 220 102q42 71 42 150q0 125 -138 125q-72 0 -186 -62zM1176 470q84 72 200 72q111 0 176 -55q66 -57 66 -161
q0 -124 -71 -222q-88 -120 -266 -120q-253 0 -253 231q0 97 29.5 221.5t72.5 207.5q115 223 360 223q90 0 173 -29l-46 -81q-62 27 -121 27q-136 0 -223 -107q-51 -63 -97 -207zM1366 459q-101 0 -166 -68t-65 -174q0 -150 152 -150q115 0 176 103q42 70 42 149
q0 140 -139 140zM361 0l966 1407h110l-967 -1407h-109z" />
    <glyph glyph-name="oneeighth" unicode="&#x215b;" horiz-adv-x="1720" 
d="M365 557l132 749l-163 -45l-13 77l213 69h90l-149 -850h-110zM1176 451q-81 49 -81 146q0 126 83 198t227 72q255 0 255 -190q0 -165 -149 -233q110 -51 110 -168q0 -143 -88.5 -217.5t-258.5 -74.5q-145 0 -215 48.5t-70 149.5q0 102 45 167t142 102zM1406 784
q-102 0 -154 -60q-44 -50 -44 -122q0 -118 142 -118q107 0 160 70q37 49 37 115q0 115 -141 115zM1340 401q-133 0 -191 -70q-47 -56 -47 -140q0 -124 175 -124q128 0 185 67q47 55 47 139q0 128 -169 128zM286 0l967 1407h109l-967 -1407h-109z" />
    <glyph glyph-name="threeeighths" unicode="&#x215c;" horiz-adv-x="1720" 
d="M350 967l15 82h34q97 0 163.5 55t66.5 135q0 103 -140 103q-54 0 -99 -14t-130 -57l-35 77q128 77 273 77q118 0 180.5 -44.5t62.5 -128.5q0 -167 -174 -232q141 -43 141 -173q0 -142 -100.5 -224t-273.5 -82q-156 0 -256 64l57 84q92 -65 196 -65q120 0 192 58t72 153
q0 68 -47 100t-148 32h-50zM1175 451q-81 49 -81 146q0 126 82.5 198t227.5 72q255 0 255 -190q0 -164 -149 -233q110 -51 110 -168q0 -143 -88.5 -217.5t-258.5 -74.5q-145 0 -215 48.5t-70 149.5q0 102 45 166.5t142 102.5zM1405 784q-101 0 -154 -60q-44 -50 -44 -123
q0 -117 143 -117q107 0 159 70q38 49 38 116q0 54 -37 84t-105 30zM1339 401q-133 0 -191 -70q-47 -56 -47 -139q0 -125 175 -125q128 0 186 67q47 55 47 139q0 128 -170 128zM359 0l967 1407h109l-967 -1407h-109z" />
    <glyph glyph-name="fiveeighths" unicode="&#x215d;" horiz-adv-x="1720" 
d="M217 959l96 448h452l-30 -84h-337l-62 -281q78 41 162 41q229 0 229 -197q0 -160 -101 -252.5t-275 -92.5q-148 0 -250 62l55 82q88 -61 196 -61q159 0 220 102q42 71 42 150q0 125 -138 125q-72 0 -186 -62zM1176 451q-82 49 -82 147q0 125 83 197t227 72
q255 0 255 -190q0 -164 -149 -233q110 -51 110 -168q0 -143 -88.5 -217.5t-258.5 -74.5q-145 0 -215 48.5t-70 149.5q0 102 45 166.5t143 102.5zM1405 784q-102 0 -155 -60q-44 -50 -44 -123q0 -117 143 -117q108 0 160 70q38 50 38 116q0 54 -37 84t-105 30zM1339 401
q-133 0 -191 -70q-47 -57 -47 -140q0 -124 175 -124q128 0 186 67q47 55 47 139q0 128 -170 128zM359 0l967 1407h109l-966 -1407h-110z" />
    <glyph glyph-name="seveneighths" unicode="&#x215e;" horiz-adv-x="1720" 
d="M688 1323h-465l27 84h570l-9 -52l-497 -798h-128zM1175 451q-81 49 -81 146q0 126 83 198t227 72q255 0 255 -190q0 -164 -149 -233q110 -51 110 -168q0 -143 -88.5 -217.5t-258.5 -74.5q-145 0 -215 48.5t-70 149.5q0 102 45 166.5t142 102.5zM1405 784q-101 0 -154 -60
q-44 -50 -44 -122q0 -118 142 -118q107 0 160 70q37 49 37 117q0 54 -37 83.5t-104 29.5zM1339 401q-133 0 -191 -70q-47 -56 -47 -139q0 -125 175 -125q127 0 185 67q47 54 47 139q0 128 -169 128zM276 0l966 1407h110l-967 -1407h-109z" />
    <glyph glyph-name="partialdiff" unicode="&#x2202;" 
d="M854 947q-47 178 -143 264.5t-279 116.5l39 106q223 -21 360 -161q106 -110 162 -301q44 -153 44 -310q0 -138 -36.5 -268t-100.5 -221q-142 -202 -401 -202q-170 0 -265 81q-120 102 -120 318q0 118 35.5 235.5t97.5 204.5q142 199 390 199q116 0 217 -62zM651 899
q-221 0 -330 -216q-73 -147 -73 -315q0 -287 255 -287q216 0 325 216q73 146 73 313q0 289 -250 289z" />
    <glyph glyph-name="emptyset" unicode="&#x2205;" 
d="M259 414q-90 115 -90 267q0 93 36.5 177t100.5 141q123 108 283 108q139 0 251 -85l178 186l74 -71l-177 -186q41 -50 66 -124t25 -145q0 -93 -36.5 -178t-101.5 -141q-122 -106 -281 -106q-133 0 -253 85l-175 -183l-75 72zM344 503l420 439q-81 62 -176 62
q-132 0 -217 -101q-73 -88 -73 -223q0 -95 46 -177zM830 862l-420 -440q78 -62 178 -62q131 0 215 100q74 88 74 224q0 97 -47 178z" />
    <glyph glyph-name="Delta" unicode="&#x2206;" 
d="M-150 0l828 1407h115l333 -1407h-1276zM967 112l-257 1139l-660 -1139h917z" />
    <glyph glyph-name="product" unicode="&#x220f;" horiz-adv-x="1434" 
d="M1275 1444h-780l-345 -1956h-131l365 2068h1041l-364 -2068h-131z" />
    <glyph glyph-name="summation" unicode="&#x2211;" horiz-adv-x="1229" 
d="M1347 1556l-20 -112h-931l398 -883l-707 -961h934l-19 -112h-1067l28 156l684 924l-384 848l25 140h1059z" />
    <glyph glyph-name="minus" unicode="&#x2212;" 
d="M144 642l30 115h903l-30 -115h-903z" />
    <glyph glyph-name="fraction" unicode="&#x2215;" horiz-adv-x="246" 
d="M-378 0l967 1407h109l-967 -1407h-109z" />
    <glyph glyph-name="periodcentered" unicode="&#x2219;" horiz-adv-x="573" 
d="M314 736q41 0 70 -29.5t29 -71.5t-29.5 -71.5t-71.5 -29.5t-71.5 29.5t-29.5 72.5q0 42 30 71t73 29z" />
    <glyph glyph-name="radical" unicode="&#x221a;" 
d="M336 0l-81 626h-160l17 102h259l64 -596l720 1560h492l-17 -103h-395l-743 -1589h-156z" />
    <glyph glyph-name="infinity" unicode="&#x221e;" horiz-adv-x="1502" 
d="M792 639q-52 -87 -98 -129q-92 -83 -223 -83q-133 0 -214 82q-79 81 -79 211q0 131 79 211q82 83 214 83q105 0 179 -49t142 -163q65 113 140 162.5t180 49.5q132 0 214 -83q79 -80 79 -211q0 -130 -79 -211q-81 -82 -214 -82q-105 0 -179.5 49.5t-140.5 162.5zM741 721
l-9 18q-42 87 -111 140.5t-140 53.5q-92 0 -149.5 -59t-57.5 -153q0 -98 58 -155q58 -58 149 -58q94 0 166 75q53 56 84 119zM842 721l10 -19q46 -91 112 -142.5t138 -51.5q92 0 149.5 59t57.5 154q0 97 -58 154q-58 58 -149 58q-94 0 -165 -75q-56 -58 -85 -119z" />
    <glyph glyph-name="integral" unicode="&#x222b;" 
d="M76 -546l43 110q46 -14 85 -14q78 0 114.5 46.5t59.5 175.5l260 1476q30 167 83 241q74 102 227 102q53 0 122 -17l-42 -110q-46 16 -86 16q-77 0 -113.5 -46t-58.5 -169l-262 -1485q-29 -165 -83 -240q-73 -101 -229 -101q-50 0 -120 15z" />
    <glyph glyph-name="uni2243" unicode="&#x2243;" 
d="M152 510l30 117h840l-30 -117h-840zM284 733l-89 27q54 113 96 161q82 93 191 93q59 0 103 -21.5t109 -81.5q55 -50 82 -65.5t62 -15.5q48 0 87 37t85 126l87 -30q-62 -137 -125.5 -192.5t-157.5 -55.5q-58 0 -97.5 19.5t-106.5 83.5q-54 50 -81.5 65.5t-63.5 15.5
q-96 0 -181 -166z" />
    <glyph glyph-name="approxequal" unicode="&#x2248;" 
d="M284 733l-89 27q53 110 96 160q82 93 191 93q58 0 102.5 -21.5t109.5 -81.5q56 -52 82.5 -67t61.5 -15q48 0 87.5 37.5t84.5 126.5l87 -30q-62 -136 -125.5 -191.5t-157.5 -55.5q-59 0 -97 19.5t-107 83.5q-54 50 -81.5 65.5t-63.5 15.5q-96 0 -181 -166zM227 408l-89 27
q52 109 96 160q81 93 191 93q59 0 103 -21.5t109 -81.5q56 -51 82.5 -66.5t60.5 -15.5q49 0 88.5 37.5t84.5 126.5l87 -30q-62 -136 -125.5 -191.5t-157.5 -55.5q-58 0 -97.5 20t-106.5 83q-53 50 -81.5 66t-63.5 16q-51 0 -93.5 -39t-87.5 -128z" />
    <glyph glyph-name="notequal" unicode="&#x2260;" 
d="M152 512l30 115h320l94 149h-397l29 115h441l147 235l92 -44l-120 -191h281l-30 -115h-324l-94 -149h401l-30 -115h-444l-147 -235l-92 44l121 191h-278z" />
    <glyph glyph-name="lessequal" unicode="&#x2264;" 
d="M329 706l670 -361l-22 -127l-822 456l13 77l983 456l-25 -140zM42 0l19 110h888l-19 -110h-888z" />
    <glyph glyph-name="greaterequal" unicode="&#x2265;" 
d="M896 719l-670 361l22 127l823 -456l-14 -77l-983 -456l25 140zM42 0l19 110h888l-19 -110h-888z" />
    <glyph glyph-name="dotmath" unicode="&#x22c5;" horiz-adv-x="573" 
d="M314 736q41 0 70 -29.5t29 -71.5t-29.5 -71.5t-71.5 -29.5t-71.5 29.5t-29.5 72.5q0 42 30 71t73 29z" />
    <glyph glyph-name="lozenge" unicode="&#x25ca;" 
d="M86 704l524 771l525 -771l-525 -771zM220 704l390 -578l391 578l-391 578z" />
    <glyph glyph-name="ffl" unicode="&#xfb04;" horiz-adv-x="1791" 
d="M297 874h-192l28 111h183l27 151q29 163 91 239q83 99 243 99q85 0 157 -31l-47 -103q-57 23 -115 23q-91 0 -136 -54.5t-70 -195.5l-23 -128h239l-29 -111h-229l-177 -998q-29 -166 -86 -243q-76 -101 -220 -101q-81 0 -152 29l48 103q55 -21 109 -21q85 0 126 73
q30 52 52 177zM1379 0l255 1451l134 26l-261 -1477h-128zM917 874h-192l28 111h183l27 151q29 163 92 239q82 99 242 99q85 0 158 -31l-48 -103q-57 23 -115 23q-91 0 -136 -54t-70 -196l-22 -128h265l-29 -111h-256l-176 -998q-30 -166 -87 -243q-76 -101 -220 -101
q-81 0 -152 29l48 103q55 -21 109 -21q85 0 126 73q30 52 52 177z" />
    <glyph glyph-name="glyph172" 
 />
    <glyph glyph-name="glyph210" horiz-adv-x="492" 
 />
    <glyph glyph-name="idotaccent" horiz-adv-x="528" 
d="M113 0l174 985h128l-173 -985h-129zM401 1350q37 0 64 -27.5t27 -66.5t-27 -66.5t-66 -27.5t-66 27.5t-27 67.5q0 39 27.5 66t67.5 27z" />
    </font>
</defs>
</svg>
